%TF.GenerationSoftware,KiCad,Pcbnew,8.0.1*%
%TF.CreationDate,2025-02-17T15:06:25+05:00*%
%TF.ProjectId,brain_board,62726169-6e5f-4626-9f61-72642e6b6963,rev?*%
%TF.SameCoordinates,Original*%
%TF.FileFunction,Drillmap*%
%TF.FilePolarity,Positive*%
%FSLAX45Y45*%
G04 Gerber Fmt 4.5, Leading zero omitted, Abs format (unit mm)*
G04 Created by KiCad (PCBNEW 8.0.1) date 2025-02-17 15:06:25*
%MOMM*%
%LPD*%
G01*
G04 APERTURE LIST*
%ADD10C,0.050000*%
%ADD11C,0.200000*%
%ADD12C,0.100000*%
%ADD13C,0.220000*%
G04 APERTURE END LIST*
D10*
X13646248Y-6375000D02*
X17646248Y-6375000D01*
X18146248Y-10875000D02*
G75*
G02*
X17646248Y-11374998I-499998J0D01*
G01*
X13646248Y-11375000D02*
G75*
G02*
X13146250Y-10875000I2J500000D01*
G01*
X18146248Y-6875000D02*
X18146248Y-10875000D01*
X17646248Y-6375000D02*
G75*
G02*
X18146250Y-6875000I2J-500000D01*
G01*
X13146248Y-6875000D02*
G75*
G02*
X13646248Y-6374998I500002J0D01*
G01*
X13146248Y-10875000D02*
X13146248Y-6875000D01*
X17646248Y-11375000D02*
X13646248Y-11375000D01*
D11*
D12*
X15311000Y-10655000D02*
X15376000Y-10720000D01*
X15376000Y-10655000D02*
X15311000Y-10720000D01*
X15889000Y-10655000D02*
X15954000Y-10720000D01*
X15954000Y-10655000D02*
X15889000Y-10720000D01*
D13*
X13758748Y-6867500D02*
G75*
G02*
X13538748Y-6867500I-110000J0D01*
G01*
X13538748Y-6867500D02*
G75*
G02*
X13758748Y-6867500I110000J0D01*
G01*
X13758748Y-10867500D02*
G75*
G02*
X13538748Y-10867500I-110000J0D01*
G01*
X13538748Y-10867500D02*
G75*
G02*
X13758748Y-10867500I110000J0D01*
G01*
X17758748Y-6867500D02*
G75*
G02*
X17538748Y-6867500I-110000J0D01*
G01*
X17538748Y-6867500D02*
G75*
G02*
X17758748Y-6867500I110000J0D01*
G01*
X17758748Y-10867500D02*
G75*
G02*
X17538748Y-10867500I-110000J0D01*
G01*
X17538748Y-10867500D02*
G75*
G02*
X17758748Y-10867500I110000J0D01*
G01*
D11*
X13404525Y-11688984D02*
X13404525Y-11488984D01*
X13404525Y-11488984D02*
X13452144Y-11488984D01*
X13452144Y-11488984D02*
X13480715Y-11498508D01*
X13480715Y-11498508D02*
X13499763Y-11517555D01*
X13499763Y-11517555D02*
X13509287Y-11536603D01*
X13509287Y-11536603D02*
X13518810Y-11574698D01*
X13518810Y-11574698D02*
X13518810Y-11603269D01*
X13518810Y-11603269D02*
X13509287Y-11641365D01*
X13509287Y-11641365D02*
X13499763Y-11660412D01*
X13499763Y-11660412D02*
X13480715Y-11679460D01*
X13480715Y-11679460D02*
X13452144Y-11688984D01*
X13452144Y-11688984D02*
X13404525Y-11688984D01*
X13604525Y-11688984D02*
X13604525Y-11555650D01*
X13604525Y-11593746D02*
X13614048Y-11574698D01*
X13614048Y-11574698D02*
X13623572Y-11565174D01*
X13623572Y-11565174D02*
X13642620Y-11555650D01*
X13642620Y-11555650D02*
X13661668Y-11555650D01*
X13728334Y-11688984D02*
X13728334Y-11555650D01*
X13728334Y-11488984D02*
X13718810Y-11498508D01*
X13718810Y-11498508D02*
X13728334Y-11508031D01*
X13728334Y-11508031D02*
X13737858Y-11498508D01*
X13737858Y-11498508D02*
X13728334Y-11488984D01*
X13728334Y-11488984D02*
X13728334Y-11508031D01*
X13852144Y-11688984D02*
X13833096Y-11679460D01*
X13833096Y-11679460D02*
X13823572Y-11660412D01*
X13823572Y-11660412D02*
X13823572Y-11488984D01*
X13956906Y-11688984D02*
X13937858Y-11679460D01*
X13937858Y-11679460D02*
X13928334Y-11660412D01*
X13928334Y-11660412D02*
X13928334Y-11488984D01*
X14185477Y-11688984D02*
X14185477Y-11488984D01*
X14185477Y-11488984D02*
X14252144Y-11631841D01*
X14252144Y-11631841D02*
X14318810Y-11488984D01*
X14318810Y-11488984D02*
X14318810Y-11688984D01*
X14499763Y-11688984D02*
X14499763Y-11584222D01*
X14499763Y-11584222D02*
X14490239Y-11565174D01*
X14490239Y-11565174D02*
X14471191Y-11555650D01*
X14471191Y-11555650D02*
X14433096Y-11555650D01*
X14433096Y-11555650D02*
X14414048Y-11565174D01*
X14499763Y-11679460D02*
X14480715Y-11688984D01*
X14480715Y-11688984D02*
X14433096Y-11688984D01*
X14433096Y-11688984D02*
X14414048Y-11679460D01*
X14414048Y-11679460D02*
X14404525Y-11660412D01*
X14404525Y-11660412D02*
X14404525Y-11641365D01*
X14404525Y-11641365D02*
X14414048Y-11622317D01*
X14414048Y-11622317D02*
X14433096Y-11612793D01*
X14433096Y-11612793D02*
X14480715Y-11612793D01*
X14480715Y-11612793D02*
X14499763Y-11603269D01*
X14595001Y-11555650D02*
X14595001Y-11755650D01*
X14595001Y-11565174D02*
X14614048Y-11555650D01*
X14614048Y-11555650D02*
X14652144Y-11555650D01*
X14652144Y-11555650D02*
X14671191Y-11565174D01*
X14671191Y-11565174D02*
X14680715Y-11574698D01*
X14680715Y-11574698D02*
X14690239Y-11593746D01*
X14690239Y-11593746D02*
X14690239Y-11650888D01*
X14690239Y-11650888D02*
X14680715Y-11669936D01*
X14680715Y-11669936D02*
X14671191Y-11679460D01*
X14671191Y-11679460D02*
X14652144Y-11688984D01*
X14652144Y-11688984D02*
X14614048Y-11688984D01*
X14614048Y-11688984D02*
X14595001Y-11679460D01*
X14775953Y-11669936D02*
X14785477Y-11679460D01*
X14785477Y-11679460D02*
X14775953Y-11688984D01*
X14775953Y-11688984D02*
X14766429Y-11679460D01*
X14766429Y-11679460D02*
X14775953Y-11669936D01*
X14775953Y-11669936D02*
X14775953Y-11688984D01*
X14775953Y-11565174D02*
X14785477Y-11574698D01*
X14785477Y-11574698D02*
X14775953Y-11584222D01*
X14775953Y-11584222D02*
X14766429Y-11574698D01*
X14766429Y-11574698D02*
X14775953Y-11565174D01*
X14775953Y-11565174D02*
X14775953Y-11584222D01*
D12*
X13078748Y-11985000D02*
X13143748Y-12050000D01*
X13143748Y-11985000D02*
X13078748Y-12050000D01*
D11*
X13442620Y-11908984D02*
X13461668Y-11908984D01*
X13461668Y-11908984D02*
X13480715Y-11918508D01*
X13480715Y-11918508D02*
X13490239Y-11928031D01*
X13490239Y-11928031D02*
X13499763Y-11947079D01*
X13499763Y-11947079D02*
X13509287Y-11985174D01*
X13509287Y-11985174D02*
X13509287Y-12032793D01*
X13509287Y-12032793D02*
X13499763Y-12070888D01*
X13499763Y-12070888D02*
X13490239Y-12089936D01*
X13490239Y-12089936D02*
X13480715Y-12099460D01*
X13480715Y-12099460D02*
X13461668Y-12108984D01*
X13461668Y-12108984D02*
X13442620Y-12108984D01*
X13442620Y-12108984D02*
X13423572Y-12099460D01*
X13423572Y-12099460D02*
X13414048Y-12089936D01*
X13414048Y-12089936D02*
X13404525Y-12070888D01*
X13404525Y-12070888D02*
X13395001Y-12032793D01*
X13395001Y-12032793D02*
X13395001Y-11985174D01*
X13395001Y-11985174D02*
X13404525Y-11947079D01*
X13404525Y-11947079D02*
X13414048Y-11928031D01*
X13414048Y-11928031D02*
X13423572Y-11918508D01*
X13423572Y-11918508D02*
X13442620Y-11908984D01*
X13595001Y-12089936D02*
X13604525Y-12099460D01*
X13604525Y-12099460D02*
X13595001Y-12108984D01*
X13595001Y-12108984D02*
X13585477Y-12099460D01*
X13585477Y-12099460D02*
X13595001Y-12089936D01*
X13595001Y-12089936D02*
X13595001Y-12108984D01*
X13775953Y-11908984D02*
X13737858Y-11908984D01*
X13737858Y-11908984D02*
X13718810Y-11918508D01*
X13718810Y-11918508D02*
X13709287Y-11928031D01*
X13709287Y-11928031D02*
X13690239Y-11956603D01*
X13690239Y-11956603D02*
X13680715Y-11994698D01*
X13680715Y-11994698D02*
X13680715Y-12070888D01*
X13680715Y-12070888D02*
X13690239Y-12089936D01*
X13690239Y-12089936D02*
X13699763Y-12099460D01*
X13699763Y-12099460D02*
X13718810Y-12108984D01*
X13718810Y-12108984D02*
X13756906Y-12108984D01*
X13756906Y-12108984D02*
X13775953Y-12099460D01*
X13775953Y-12099460D02*
X13785477Y-12089936D01*
X13785477Y-12089936D02*
X13795001Y-12070888D01*
X13795001Y-12070888D02*
X13795001Y-12023269D01*
X13795001Y-12023269D02*
X13785477Y-12004222D01*
X13785477Y-12004222D02*
X13775953Y-11994698D01*
X13775953Y-11994698D02*
X13756906Y-11985174D01*
X13756906Y-11985174D02*
X13718810Y-11985174D01*
X13718810Y-11985174D02*
X13699763Y-11994698D01*
X13699763Y-11994698D02*
X13690239Y-12004222D01*
X13690239Y-12004222D02*
X13680715Y-12023269D01*
X13975953Y-11908984D02*
X13880715Y-11908984D01*
X13880715Y-11908984D02*
X13871191Y-12004222D01*
X13871191Y-12004222D02*
X13880715Y-11994698D01*
X13880715Y-11994698D02*
X13899763Y-11985174D01*
X13899763Y-11985174D02*
X13947382Y-11985174D01*
X13947382Y-11985174D02*
X13966429Y-11994698D01*
X13966429Y-11994698D02*
X13975953Y-12004222D01*
X13975953Y-12004222D02*
X13985477Y-12023269D01*
X13985477Y-12023269D02*
X13985477Y-12070888D01*
X13985477Y-12070888D02*
X13975953Y-12089936D01*
X13975953Y-12089936D02*
X13966429Y-12099460D01*
X13966429Y-12099460D02*
X13947382Y-12108984D01*
X13947382Y-12108984D02*
X13899763Y-12108984D01*
X13899763Y-12108984D02*
X13880715Y-12099460D01*
X13880715Y-12099460D02*
X13871191Y-12089936D01*
X14109287Y-11908984D02*
X14128334Y-11908984D01*
X14128334Y-11908984D02*
X14147382Y-11918508D01*
X14147382Y-11918508D02*
X14156906Y-11928031D01*
X14156906Y-11928031D02*
X14166429Y-11947079D01*
X14166429Y-11947079D02*
X14175953Y-11985174D01*
X14175953Y-11985174D02*
X14175953Y-12032793D01*
X14175953Y-12032793D02*
X14166429Y-12070888D01*
X14166429Y-12070888D02*
X14156906Y-12089936D01*
X14156906Y-12089936D02*
X14147382Y-12099460D01*
X14147382Y-12099460D02*
X14128334Y-12108984D01*
X14128334Y-12108984D02*
X14109287Y-12108984D01*
X14109287Y-12108984D02*
X14090239Y-12099460D01*
X14090239Y-12099460D02*
X14080715Y-12089936D01*
X14080715Y-12089936D02*
X14071191Y-12070888D01*
X14071191Y-12070888D02*
X14061668Y-12032793D01*
X14061668Y-12032793D02*
X14061668Y-11985174D01*
X14061668Y-11985174D02*
X14071191Y-11947079D01*
X14071191Y-11947079D02*
X14080715Y-11928031D01*
X14080715Y-11928031D02*
X14090239Y-11918508D01*
X14090239Y-11918508D02*
X14109287Y-11908984D01*
X14261668Y-12108984D02*
X14261668Y-11975650D01*
X14261668Y-11994698D02*
X14271191Y-11985174D01*
X14271191Y-11985174D02*
X14290239Y-11975650D01*
X14290239Y-11975650D02*
X14318810Y-11975650D01*
X14318810Y-11975650D02*
X14337858Y-11985174D01*
X14337858Y-11985174D02*
X14347382Y-12004222D01*
X14347382Y-12004222D02*
X14347382Y-12108984D01*
X14347382Y-12004222D02*
X14356906Y-11985174D01*
X14356906Y-11985174D02*
X14375953Y-11975650D01*
X14375953Y-11975650D02*
X14404525Y-11975650D01*
X14404525Y-11975650D02*
X14423572Y-11985174D01*
X14423572Y-11985174D02*
X14433096Y-12004222D01*
X14433096Y-12004222D02*
X14433096Y-12108984D01*
X14528334Y-12108984D02*
X14528334Y-11975650D01*
X14528334Y-11994698D02*
X14537858Y-11985174D01*
X14537858Y-11985174D02*
X14556906Y-11975650D01*
X14556906Y-11975650D02*
X14585477Y-11975650D01*
X14585477Y-11975650D02*
X14604525Y-11985174D01*
X14604525Y-11985174D02*
X14614049Y-12004222D01*
X14614049Y-12004222D02*
X14614049Y-12108984D01*
X14614049Y-12004222D02*
X14623572Y-11985174D01*
X14623572Y-11985174D02*
X14642620Y-11975650D01*
X14642620Y-11975650D02*
X14671191Y-11975650D01*
X14671191Y-11975650D02*
X14690239Y-11985174D01*
X14690239Y-11985174D02*
X14699763Y-12004222D01*
X14699763Y-12004222D02*
X14699763Y-12108984D01*
X15090239Y-11899460D02*
X14918811Y-12156603D01*
X15347382Y-11908984D02*
X15366430Y-11908984D01*
X15366430Y-11908984D02*
X15385477Y-11918508D01*
X15385477Y-11918508D02*
X15395001Y-11928031D01*
X15395001Y-11928031D02*
X15404525Y-11947079D01*
X15404525Y-11947079D02*
X15414049Y-11985174D01*
X15414049Y-11985174D02*
X15414049Y-12032793D01*
X15414049Y-12032793D02*
X15404525Y-12070888D01*
X15404525Y-12070888D02*
X15395001Y-12089936D01*
X15395001Y-12089936D02*
X15385477Y-12099460D01*
X15385477Y-12099460D02*
X15366430Y-12108984D01*
X15366430Y-12108984D02*
X15347382Y-12108984D01*
X15347382Y-12108984D02*
X15328334Y-12099460D01*
X15328334Y-12099460D02*
X15318811Y-12089936D01*
X15318811Y-12089936D02*
X15309287Y-12070888D01*
X15309287Y-12070888D02*
X15299763Y-12032793D01*
X15299763Y-12032793D02*
X15299763Y-11985174D01*
X15299763Y-11985174D02*
X15309287Y-11947079D01*
X15309287Y-11947079D02*
X15318811Y-11928031D01*
X15318811Y-11928031D02*
X15328334Y-11918508D01*
X15328334Y-11918508D02*
X15347382Y-11908984D01*
X15499763Y-12089936D02*
X15509287Y-12099460D01*
X15509287Y-12099460D02*
X15499763Y-12108984D01*
X15499763Y-12108984D02*
X15490239Y-12099460D01*
X15490239Y-12099460D02*
X15499763Y-12089936D01*
X15499763Y-12089936D02*
X15499763Y-12108984D01*
X15633096Y-11908984D02*
X15652144Y-11908984D01*
X15652144Y-11908984D02*
X15671192Y-11918508D01*
X15671192Y-11918508D02*
X15680715Y-11928031D01*
X15680715Y-11928031D02*
X15690239Y-11947079D01*
X15690239Y-11947079D02*
X15699763Y-11985174D01*
X15699763Y-11985174D02*
X15699763Y-12032793D01*
X15699763Y-12032793D02*
X15690239Y-12070888D01*
X15690239Y-12070888D02*
X15680715Y-12089936D01*
X15680715Y-12089936D02*
X15671192Y-12099460D01*
X15671192Y-12099460D02*
X15652144Y-12108984D01*
X15652144Y-12108984D02*
X15633096Y-12108984D01*
X15633096Y-12108984D02*
X15614049Y-12099460D01*
X15614049Y-12099460D02*
X15604525Y-12089936D01*
X15604525Y-12089936D02*
X15595001Y-12070888D01*
X15595001Y-12070888D02*
X15585477Y-12032793D01*
X15585477Y-12032793D02*
X15585477Y-11985174D01*
X15585477Y-11985174D02*
X15595001Y-11947079D01*
X15595001Y-11947079D02*
X15604525Y-11928031D01*
X15604525Y-11928031D02*
X15614049Y-11918508D01*
X15614049Y-11918508D02*
X15633096Y-11908984D01*
X15775953Y-11928031D02*
X15785477Y-11918508D01*
X15785477Y-11918508D02*
X15804525Y-11908984D01*
X15804525Y-11908984D02*
X15852144Y-11908984D01*
X15852144Y-11908984D02*
X15871192Y-11918508D01*
X15871192Y-11918508D02*
X15880715Y-11928031D01*
X15880715Y-11928031D02*
X15890239Y-11947079D01*
X15890239Y-11947079D02*
X15890239Y-11966127D01*
X15890239Y-11966127D02*
X15880715Y-11994698D01*
X15880715Y-11994698D02*
X15766430Y-12108984D01*
X15766430Y-12108984D02*
X15890239Y-12108984D01*
X16071192Y-11908984D02*
X15975953Y-11908984D01*
X15975953Y-11908984D02*
X15966430Y-12004222D01*
X15966430Y-12004222D02*
X15975953Y-11994698D01*
X15975953Y-11994698D02*
X15995001Y-11985174D01*
X15995001Y-11985174D02*
X16042620Y-11985174D01*
X16042620Y-11985174D02*
X16061668Y-11994698D01*
X16061668Y-11994698D02*
X16071192Y-12004222D01*
X16071192Y-12004222D02*
X16080715Y-12023269D01*
X16080715Y-12023269D02*
X16080715Y-12070888D01*
X16080715Y-12070888D02*
X16071192Y-12089936D01*
X16071192Y-12089936D02*
X16061668Y-12099460D01*
X16061668Y-12099460D02*
X16042620Y-12108984D01*
X16042620Y-12108984D02*
X15995001Y-12108984D01*
X15995001Y-12108984D02*
X15975953Y-12099460D01*
X15975953Y-12099460D02*
X15966430Y-12089936D01*
X16252144Y-11908984D02*
X16214049Y-11908984D01*
X16214049Y-11908984D02*
X16195001Y-11918508D01*
X16195001Y-11918508D02*
X16185477Y-11928031D01*
X16185477Y-11928031D02*
X16166430Y-11956603D01*
X16166430Y-11956603D02*
X16156906Y-11994698D01*
X16156906Y-11994698D02*
X16156906Y-12070888D01*
X16156906Y-12070888D02*
X16166430Y-12089936D01*
X16166430Y-12089936D02*
X16175953Y-12099460D01*
X16175953Y-12099460D02*
X16195001Y-12108984D01*
X16195001Y-12108984D02*
X16233096Y-12108984D01*
X16233096Y-12108984D02*
X16252144Y-12099460D01*
X16252144Y-12099460D02*
X16261668Y-12089936D01*
X16261668Y-12089936D02*
X16271192Y-12070888D01*
X16271192Y-12070888D02*
X16271192Y-12023269D01*
X16271192Y-12023269D02*
X16261668Y-12004222D01*
X16261668Y-12004222D02*
X16252144Y-11994698D01*
X16252144Y-11994698D02*
X16233096Y-11985174D01*
X16233096Y-11985174D02*
X16195001Y-11985174D01*
X16195001Y-11985174D02*
X16175953Y-11994698D01*
X16175953Y-11994698D02*
X16166430Y-12004222D01*
X16166430Y-12004222D02*
X16156906Y-12023269D01*
X16347382Y-11908984D02*
X16347382Y-11947079D01*
X16423573Y-11908984D02*
X16423573Y-11947079D01*
X16718811Y-12185174D02*
X16709287Y-12175650D01*
X16709287Y-12175650D02*
X16690239Y-12147079D01*
X16690239Y-12147079D02*
X16680715Y-12128031D01*
X16680715Y-12128031D02*
X16671192Y-12099460D01*
X16671192Y-12099460D02*
X16661668Y-12051841D01*
X16661668Y-12051841D02*
X16661668Y-12013746D01*
X16661668Y-12013746D02*
X16671192Y-11966127D01*
X16671192Y-11966127D02*
X16680715Y-11937555D01*
X16680715Y-11937555D02*
X16690239Y-11918508D01*
X16690239Y-11918508D02*
X16709287Y-11889936D01*
X16709287Y-11889936D02*
X16718811Y-11880412D01*
X16785477Y-11928031D02*
X16795001Y-11918508D01*
X16795001Y-11918508D02*
X16814049Y-11908984D01*
X16814049Y-11908984D02*
X16861668Y-11908984D01*
X16861668Y-11908984D02*
X16880716Y-11918508D01*
X16880716Y-11918508D02*
X16890239Y-11928031D01*
X16890239Y-11928031D02*
X16899763Y-11947079D01*
X16899763Y-11947079D02*
X16899763Y-11966127D01*
X16899763Y-11966127D02*
X16890239Y-11994698D01*
X16890239Y-11994698D02*
X16775954Y-12108984D01*
X16775954Y-12108984D02*
X16899763Y-12108984D01*
X17137858Y-12108984D02*
X17137858Y-11908984D01*
X17223573Y-12108984D02*
X17223573Y-12004222D01*
X17223573Y-12004222D02*
X17214049Y-11985174D01*
X17214049Y-11985174D02*
X17195001Y-11975650D01*
X17195001Y-11975650D02*
X17166430Y-11975650D01*
X17166430Y-11975650D02*
X17147382Y-11985174D01*
X17147382Y-11985174D02*
X17137858Y-11994698D01*
X17347382Y-12108984D02*
X17328335Y-12099460D01*
X17328335Y-12099460D02*
X17318811Y-12089936D01*
X17318811Y-12089936D02*
X17309287Y-12070888D01*
X17309287Y-12070888D02*
X17309287Y-12013746D01*
X17309287Y-12013746D02*
X17318811Y-11994698D01*
X17318811Y-11994698D02*
X17328335Y-11985174D01*
X17328335Y-11985174D02*
X17347382Y-11975650D01*
X17347382Y-11975650D02*
X17375954Y-11975650D01*
X17375954Y-11975650D02*
X17395001Y-11985174D01*
X17395001Y-11985174D02*
X17404525Y-11994698D01*
X17404525Y-11994698D02*
X17414049Y-12013746D01*
X17414049Y-12013746D02*
X17414049Y-12070888D01*
X17414049Y-12070888D02*
X17404525Y-12089936D01*
X17404525Y-12089936D02*
X17395001Y-12099460D01*
X17395001Y-12099460D02*
X17375954Y-12108984D01*
X17375954Y-12108984D02*
X17347382Y-12108984D01*
X17528335Y-12108984D02*
X17509287Y-12099460D01*
X17509287Y-12099460D02*
X17499763Y-12080412D01*
X17499763Y-12080412D02*
X17499763Y-11908984D01*
X17680716Y-12099460D02*
X17661668Y-12108984D01*
X17661668Y-12108984D02*
X17623573Y-12108984D01*
X17623573Y-12108984D02*
X17604525Y-12099460D01*
X17604525Y-12099460D02*
X17595001Y-12080412D01*
X17595001Y-12080412D02*
X17595001Y-12004222D01*
X17595001Y-12004222D02*
X17604525Y-11985174D01*
X17604525Y-11985174D02*
X17623573Y-11975650D01*
X17623573Y-11975650D02*
X17661668Y-11975650D01*
X17661668Y-11975650D02*
X17680716Y-11985174D01*
X17680716Y-11985174D02*
X17690239Y-12004222D01*
X17690239Y-12004222D02*
X17690239Y-12023269D01*
X17690239Y-12023269D02*
X17595001Y-12042317D01*
X17766430Y-12099460D02*
X17785478Y-12108984D01*
X17785478Y-12108984D02*
X17823573Y-12108984D01*
X17823573Y-12108984D02*
X17842620Y-12099460D01*
X17842620Y-12099460D02*
X17852144Y-12080412D01*
X17852144Y-12080412D02*
X17852144Y-12070888D01*
X17852144Y-12070888D02*
X17842620Y-12051841D01*
X17842620Y-12051841D02*
X17823573Y-12042317D01*
X17823573Y-12042317D02*
X17795001Y-12042317D01*
X17795001Y-12042317D02*
X17775954Y-12032793D01*
X17775954Y-12032793D02*
X17766430Y-12013746D01*
X17766430Y-12013746D02*
X17766430Y-12004222D01*
X17766430Y-12004222D02*
X17775954Y-11985174D01*
X17775954Y-11985174D02*
X17795001Y-11975650D01*
X17795001Y-11975650D02*
X17823573Y-11975650D01*
X17823573Y-11975650D02*
X17842620Y-11985174D01*
X17918811Y-12185174D02*
X17928335Y-12175650D01*
X17928335Y-12175650D02*
X17947382Y-12147079D01*
X17947382Y-12147079D02*
X17956906Y-12128031D01*
X17956906Y-12128031D02*
X17966430Y-12099460D01*
X17966430Y-12099460D02*
X17975954Y-12051841D01*
X17975954Y-12051841D02*
X17975954Y-12013746D01*
X17975954Y-12013746D02*
X17966430Y-11966127D01*
X17966430Y-11966127D02*
X17956906Y-11937555D01*
X17956906Y-11937555D02*
X17947382Y-11918508D01*
X17947382Y-11918508D02*
X17928335Y-11889936D01*
X17928335Y-11889936D02*
X17918811Y-11880412D01*
X18280716Y-12185174D02*
X18271192Y-12175650D01*
X18271192Y-12175650D02*
X18252144Y-12147079D01*
X18252144Y-12147079D02*
X18242620Y-12128031D01*
X18242620Y-12128031D02*
X18233097Y-12099460D01*
X18233097Y-12099460D02*
X18223573Y-12051841D01*
X18223573Y-12051841D02*
X18223573Y-12013746D01*
X18223573Y-12013746D02*
X18233097Y-11966127D01*
X18233097Y-11966127D02*
X18242620Y-11937555D01*
X18242620Y-11937555D02*
X18252144Y-11918508D01*
X18252144Y-11918508D02*
X18271192Y-11889936D01*
X18271192Y-11889936D02*
X18280716Y-11880412D01*
X18356906Y-11975650D02*
X18356906Y-12108984D01*
X18356906Y-11994698D02*
X18366430Y-11985174D01*
X18366430Y-11985174D02*
X18385478Y-11975650D01*
X18385478Y-11975650D02*
X18414049Y-11975650D01*
X18414049Y-11975650D02*
X18433097Y-11985174D01*
X18433097Y-11985174D02*
X18442620Y-12004222D01*
X18442620Y-12004222D02*
X18442620Y-12108984D01*
X18566430Y-12108984D02*
X18547382Y-12099460D01*
X18547382Y-12099460D02*
X18537859Y-12089936D01*
X18537859Y-12089936D02*
X18528335Y-12070888D01*
X18528335Y-12070888D02*
X18528335Y-12013746D01*
X18528335Y-12013746D02*
X18537859Y-11994698D01*
X18537859Y-11994698D02*
X18547382Y-11985174D01*
X18547382Y-11985174D02*
X18566430Y-11975650D01*
X18566430Y-11975650D02*
X18595001Y-11975650D01*
X18595001Y-11975650D02*
X18614049Y-11985174D01*
X18614049Y-11985174D02*
X18623573Y-11994698D01*
X18623573Y-11994698D02*
X18633097Y-12013746D01*
X18633097Y-12013746D02*
X18633097Y-12070888D01*
X18633097Y-12070888D02*
X18623573Y-12089936D01*
X18623573Y-12089936D02*
X18614049Y-12099460D01*
X18614049Y-12099460D02*
X18595001Y-12108984D01*
X18595001Y-12108984D02*
X18566430Y-12108984D01*
X18690240Y-11975650D02*
X18766430Y-11975650D01*
X18718811Y-11908984D02*
X18718811Y-12080412D01*
X18718811Y-12080412D02*
X18728335Y-12099460D01*
X18728335Y-12099460D02*
X18747382Y-12108984D01*
X18747382Y-12108984D02*
X18766430Y-12108984D01*
X18985478Y-11975650D02*
X18985478Y-12175650D01*
X18985478Y-11985174D02*
X19004525Y-11975650D01*
X19004525Y-11975650D02*
X19042621Y-11975650D01*
X19042621Y-11975650D02*
X19061668Y-11985174D01*
X19061668Y-11985174D02*
X19071192Y-11994698D01*
X19071192Y-11994698D02*
X19080716Y-12013746D01*
X19080716Y-12013746D02*
X19080716Y-12070888D01*
X19080716Y-12070888D02*
X19071192Y-12089936D01*
X19071192Y-12089936D02*
X19061668Y-12099460D01*
X19061668Y-12099460D02*
X19042621Y-12108984D01*
X19042621Y-12108984D02*
X19004525Y-12108984D01*
X19004525Y-12108984D02*
X18985478Y-12099460D01*
X19195001Y-12108984D02*
X19175954Y-12099460D01*
X19175954Y-12099460D02*
X19166430Y-12080412D01*
X19166430Y-12080412D02*
X19166430Y-11908984D01*
X19356906Y-12108984D02*
X19356906Y-12004222D01*
X19356906Y-12004222D02*
X19347382Y-11985174D01*
X19347382Y-11985174D02*
X19328335Y-11975650D01*
X19328335Y-11975650D02*
X19290240Y-11975650D01*
X19290240Y-11975650D02*
X19271192Y-11985174D01*
X19356906Y-12099460D02*
X19337859Y-12108984D01*
X19337859Y-12108984D02*
X19290240Y-12108984D01*
X19290240Y-12108984D02*
X19271192Y-12099460D01*
X19271192Y-12099460D02*
X19261668Y-12080412D01*
X19261668Y-12080412D02*
X19261668Y-12061365D01*
X19261668Y-12061365D02*
X19271192Y-12042317D01*
X19271192Y-12042317D02*
X19290240Y-12032793D01*
X19290240Y-12032793D02*
X19337859Y-12032793D01*
X19337859Y-12032793D02*
X19356906Y-12023269D01*
X19423573Y-11975650D02*
X19499763Y-11975650D01*
X19452144Y-11908984D02*
X19452144Y-12080412D01*
X19452144Y-12080412D02*
X19461668Y-12099460D01*
X19461668Y-12099460D02*
X19480716Y-12108984D01*
X19480716Y-12108984D02*
X19499763Y-12108984D01*
X19642621Y-12099460D02*
X19623573Y-12108984D01*
X19623573Y-12108984D02*
X19585478Y-12108984D01*
X19585478Y-12108984D02*
X19566430Y-12099460D01*
X19566430Y-12099460D02*
X19556906Y-12080412D01*
X19556906Y-12080412D02*
X19556906Y-12004222D01*
X19556906Y-12004222D02*
X19566430Y-11985174D01*
X19566430Y-11985174D02*
X19585478Y-11975650D01*
X19585478Y-11975650D02*
X19623573Y-11975650D01*
X19623573Y-11975650D02*
X19642621Y-11985174D01*
X19642621Y-11985174D02*
X19652144Y-12004222D01*
X19652144Y-12004222D02*
X19652144Y-12023269D01*
X19652144Y-12023269D02*
X19556906Y-12042317D01*
X19823573Y-12108984D02*
X19823573Y-11908984D01*
X19823573Y-12099460D02*
X19804525Y-12108984D01*
X19804525Y-12108984D02*
X19766430Y-12108984D01*
X19766430Y-12108984D02*
X19747382Y-12099460D01*
X19747382Y-12099460D02*
X19737859Y-12089936D01*
X19737859Y-12089936D02*
X19728335Y-12070888D01*
X19728335Y-12070888D02*
X19728335Y-12013746D01*
X19728335Y-12013746D02*
X19737859Y-11994698D01*
X19737859Y-11994698D02*
X19747382Y-11985174D01*
X19747382Y-11985174D02*
X19766430Y-11975650D01*
X19766430Y-11975650D02*
X19804525Y-11975650D01*
X19804525Y-11975650D02*
X19823573Y-11985174D01*
X19899763Y-12185174D02*
X19909287Y-12175650D01*
X19909287Y-12175650D02*
X19928335Y-12147079D01*
X19928335Y-12147079D02*
X19937859Y-12128031D01*
X19937859Y-12128031D02*
X19947382Y-12099460D01*
X19947382Y-12099460D02*
X19956906Y-12051841D01*
X19956906Y-12051841D02*
X19956906Y-12013746D01*
X19956906Y-12013746D02*
X19947382Y-11966127D01*
X19947382Y-11966127D02*
X19937859Y-11937555D01*
X19937859Y-11937555D02*
X19928335Y-11918508D01*
X19928335Y-11918508D02*
X19909287Y-11889936D01*
X19909287Y-11889936D02*
X19899763Y-11880412D01*
X13143748Y-12281500D02*
G75*
G02*
X12943748Y-12281500I-100000J0D01*
G01*
X12943748Y-12281500D02*
G75*
G02*
X13143748Y-12281500I100000J0D01*
G01*
X13395001Y-12192031D02*
X13404525Y-12182508D01*
X13404525Y-12182508D02*
X13423572Y-12172984D01*
X13423572Y-12172984D02*
X13471191Y-12172984D01*
X13471191Y-12172984D02*
X13490239Y-12182508D01*
X13490239Y-12182508D02*
X13499763Y-12192031D01*
X13499763Y-12192031D02*
X13509287Y-12211079D01*
X13509287Y-12211079D02*
X13509287Y-12230127D01*
X13509287Y-12230127D02*
X13499763Y-12258698D01*
X13499763Y-12258698D02*
X13385477Y-12372984D01*
X13385477Y-12372984D02*
X13509287Y-12372984D01*
X13595001Y-12353936D02*
X13604525Y-12363460D01*
X13604525Y-12363460D02*
X13595001Y-12372984D01*
X13595001Y-12372984D02*
X13585477Y-12363460D01*
X13585477Y-12363460D02*
X13595001Y-12353936D01*
X13595001Y-12353936D02*
X13595001Y-12372984D01*
X13680715Y-12192031D02*
X13690239Y-12182508D01*
X13690239Y-12182508D02*
X13709287Y-12172984D01*
X13709287Y-12172984D02*
X13756906Y-12172984D01*
X13756906Y-12172984D02*
X13775953Y-12182508D01*
X13775953Y-12182508D02*
X13785477Y-12192031D01*
X13785477Y-12192031D02*
X13795001Y-12211079D01*
X13795001Y-12211079D02*
X13795001Y-12230127D01*
X13795001Y-12230127D02*
X13785477Y-12258698D01*
X13785477Y-12258698D02*
X13671191Y-12372984D01*
X13671191Y-12372984D02*
X13795001Y-12372984D01*
X13918810Y-12172984D02*
X13937858Y-12172984D01*
X13937858Y-12172984D02*
X13956906Y-12182508D01*
X13956906Y-12182508D02*
X13966429Y-12192031D01*
X13966429Y-12192031D02*
X13975953Y-12211079D01*
X13975953Y-12211079D02*
X13985477Y-12249174D01*
X13985477Y-12249174D02*
X13985477Y-12296793D01*
X13985477Y-12296793D02*
X13975953Y-12334888D01*
X13975953Y-12334888D02*
X13966429Y-12353936D01*
X13966429Y-12353936D02*
X13956906Y-12363460D01*
X13956906Y-12363460D02*
X13937858Y-12372984D01*
X13937858Y-12372984D02*
X13918810Y-12372984D01*
X13918810Y-12372984D02*
X13899763Y-12363460D01*
X13899763Y-12363460D02*
X13890239Y-12353936D01*
X13890239Y-12353936D02*
X13880715Y-12334888D01*
X13880715Y-12334888D02*
X13871191Y-12296793D01*
X13871191Y-12296793D02*
X13871191Y-12249174D01*
X13871191Y-12249174D02*
X13880715Y-12211079D01*
X13880715Y-12211079D02*
X13890239Y-12192031D01*
X13890239Y-12192031D02*
X13899763Y-12182508D01*
X13899763Y-12182508D02*
X13918810Y-12172984D01*
X14109287Y-12172984D02*
X14128334Y-12172984D01*
X14128334Y-12172984D02*
X14147382Y-12182508D01*
X14147382Y-12182508D02*
X14156906Y-12192031D01*
X14156906Y-12192031D02*
X14166429Y-12211079D01*
X14166429Y-12211079D02*
X14175953Y-12249174D01*
X14175953Y-12249174D02*
X14175953Y-12296793D01*
X14175953Y-12296793D02*
X14166429Y-12334888D01*
X14166429Y-12334888D02*
X14156906Y-12353936D01*
X14156906Y-12353936D02*
X14147382Y-12363460D01*
X14147382Y-12363460D02*
X14128334Y-12372984D01*
X14128334Y-12372984D02*
X14109287Y-12372984D01*
X14109287Y-12372984D02*
X14090239Y-12363460D01*
X14090239Y-12363460D02*
X14080715Y-12353936D01*
X14080715Y-12353936D02*
X14071191Y-12334888D01*
X14071191Y-12334888D02*
X14061668Y-12296793D01*
X14061668Y-12296793D02*
X14061668Y-12249174D01*
X14061668Y-12249174D02*
X14071191Y-12211079D01*
X14071191Y-12211079D02*
X14080715Y-12192031D01*
X14080715Y-12192031D02*
X14090239Y-12182508D01*
X14090239Y-12182508D02*
X14109287Y-12172984D01*
X14261668Y-12372984D02*
X14261668Y-12239650D01*
X14261668Y-12258698D02*
X14271191Y-12249174D01*
X14271191Y-12249174D02*
X14290239Y-12239650D01*
X14290239Y-12239650D02*
X14318810Y-12239650D01*
X14318810Y-12239650D02*
X14337858Y-12249174D01*
X14337858Y-12249174D02*
X14347382Y-12268222D01*
X14347382Y-12268222D02*
X14347382Y-12372984D01*
X14347382Y-12268222D02*
X14356906Y-12249174D01*
X14356906Y-12249174D02*
X14375953Y-12239650D01*
X14375953Y-12239650D02*
X14404525Y-12239650D01*
X14404525Y-12239650D02*
X14423572Y-12249174D01*
X14423572Y-12249174D02*
X14433096Y-12268222D01*
X14433096Y-12268222D02*
X14433096Y-12372984D01*
X14528334Y-12372984D02*
X14528334Y-12239650D01*
X14528334Y-12258698D02*
X14537858Y-12249174D01*
X14537858Y-12249174D02*
X14556906Y-12239650D01*
X14556906Y-12239650D02*
X14585477Y-12239650D01*
X14585477Y-12239650D02*
X14604525Y-12249174D01*
X14604525Y-12249174D02*
X14614049Y-12268222D01*
X14614049Y-12268222D02*
X14614049Y-12372984D01*
X14614049Y-12268222D02*
X14623572Y-12249174D01*
X14623572Y-12249174D02*
X14642620Y-12239650D01*
X14642620Y-12239650D02*
X14671191Y-12239650D01*
X14671191Y-12239650D02*
X14690239Y-12249174D01*
X14690239Y-12249174D02*
X14699763Y-12268222D01*
X14699763Y-12268222D02*
X14699763Y-12372984D01*
X15090239Y-12163460D02*
X14918811Y-12420603D01*
X15347382Y-12172984D02*
X15366430Y-12172984D01*
X15366430Y-12172984D02*
X15385477Y-12182508D01*
X15385477Y-12182508D02*
X15395001Y-12192031D01*
X15395001Y-12192031D02*
X15404525Y-12211079D01*
X15404525Y-12211079D02*
X15414049Y-12249174D01*
X15414049Y-12249174D02*
X15414049Y-12296793D01*
X15414049Y-12296793D02*
X15404525Y-12334888D01*
X15404525Y-12334888D02*
X15395001Y-12353936D01*
X15395001Y-12353936D02*
X15385477Y-12363460D01*
X15385477Y-12363460D02*
X15366430Y-12372984D01*
X15366430Y-12372984D02*
X15347382Y-12372984D01*
X15347382Y-12372984D02*
X15328334Y-12363460D01*
X15328334Y-12363460D02*
X15318811Y-12353936D01*
X15318811Y-12353936D02*
X15309287Y-12334888D01*
X15309287Y-12334888D02*
X15299763Y-12296793D01*
X15299763Y-12296793D02*
X15299763Y-12249174D01*
X15299763Y-12249174D02*
X15309287Y-12211079D01*
X15309287Y-12211079D02*
X15318811Y-12192031D01*
X15318811Y-12192031D02*
X15328334Y-12182508D01*
X15328334Y-12182508D02*
X15347382Y-12172984D01*
X15499763Y-12353936D02*
X15509287Y-12363460D01*
X15509287Y-12363460D02*
X15499763Y-12372984D01*
X15499763Y-12372984D02*
X15490239Y-12363460D01*
X15490239Y-12363460D02*
X15499763Y-12353936D01*
X15499763Y-12353936D02*
X15499763Y-12372984D01*
X15633096Y-12172984D02*
X15652144Y-12172984D01*
X15652144Y-12172984D02*
X15671192Y-12182508D01*
X15671192Y-12182508D02*
X15680715Y-12192031D01*
X15680715Y-12192031D02*
X15690239Y-12211079D01*
X15690239Y-12211079D02*
X15699763Y-12249174D01*
X15699763Y-12249174D02*
X15699763Y-12296793D01*
X15699763Y-12296793D02*
X15690239Y-12334888D01*
X15690239Y-12334888D02*
X15680715Y-12353936D01*
X15680715Y-12353936D02*
X15671192Y-12363460D01*
X15671192Y-12363460D02*
X15652144Y-12372984D01*
X15652144Y-12372984D02*
X15633096Y-12372984D01*
X15633096Y-12372984D02*
X15614049Y-12363460D01*
X15614049Y-12363460D02*
X15604525Y-12353936D01*
X15604525Y-12353936D02*
X15595001Y-12334888D01*
X15595001Y-12334888D02*
X15585477Y-12296793D01*
X15585477Y-12296793D02*
X15585477Y-12249174D01*
X15585477Y-12249174D02*
X15595001Y-12211079D01*
X15595001Y-12211079D02*
X15604525Y-12192031D01*
X15604525Y-12192031D02*
X15614049Y-12182508D01*
X15614049Y-12182508D02*
X15633096Y-12172984D01*
X15814049Y-12258698D02*
X15795001Y-12249174D01*
X15795001Y-12249174D02*
X15785477Y-12239650D01*
X15785477Y-12239650D02*
X15775953Y-12220603D01*
X15775953Y-12220603D02*
X15775953Y-12211079D01*
X15775953Y-12211079D02*
X15785477Y-12192031D01*
X15785477Y-12192031D02*
X15795001Y-12182508D01*
X15795001Y-12182508D02*
X15814049Y-12172984D01*
X15814049Y-12172984D02*
X15852144Y-12172984D01*
X15852144Y-12172984D02*
X15871192Y-12182508D01*
X15871192Y-12182508D02*
X15880715Y-12192031D01*
X15880715Y-12192031D02*
X15890239Y-12211079D01*
X15890239Y-12211079D02*
X15890239Y-12220603D01*
X15890239Y-12220603D02*
X15880715Y-12239650D01*
X15880715Y-12239650D02*
X15871192Y-12249174D01*
X15871192Y-12249174D02*
X15852144Y-12258698D01*
X15852144Y-12258698D02*
X15814049Y-12258698D01*
X15814049Y-12258698D02*
X15795001Y-12268222D01*
X15795001Y-12268222D02*
X15785477Y-12277746D01*
X15785477Y-12277746D02*
X15775953Y-12296793D01*
X15775953Y-12296793D02*
X15775953Y-12334888D01*
X15775953Y-12334888D02*
X15785477Y-12353936D01*
X15785477Y-12353936D02*
X15795001Y-12363460D01*
X15795001Y-12363460D02*
X15814049Y-12372984D01*
X15814049Y-12372984D02*
X15852144Y-12372984D01*
X15852144Y-12372984D02*
X15871192Y-12363460D01*
X15871192Y-12363460D02*
X15880715Y-12353936D01*
X15880715Y-12353936D02*
X15890239Y-12334888D01*
X15890239Y-12334888D02*
X15890239Y-12296793D01*
X15890239Y-12296793D02*
X15880715Y-12277746D01*
X15880715Y-12277746D02*
X15871192Y-12268222D01*
X15871192Y-12268222D02*
X15852144Y-12258698D01*
X16061668Y-12172984D02*
X16023572Y-12172984D01*
X16023572Y-12172984D02*
X16004525Y-12182508D01*
X16004525Y-12182508D02*
X15995001Y-12192031D01*
X15995001Y-12192031D02*
X15975953Y-12220603D01*
X15975953Y-12220603D02*
X15966430Y-12258698D01*
X15966430Y-12258698D02*
X15966430Y-12334888D01*
X15966430Y-12334888D02*
X15975953Y-12353936D01*
X15975953Y-12353936D02*
X15985477Y-12363460D01*
X15985477Y-12363460D02*
X16004525Y-12372984D01*
X16004525Y-12372984D02*
X16042620Y-12372984D01*
X16042620Y-12372984D02*
X16061668Y-12363460D01*
X16061668Y-12363460D02*
X16071192Y-12353936D01*
X16071192Y-12353936D02*
X16080715Y-12334888D01*
X16080715Y-12334888D02*
X16080715Y-12287269D01*
X16080715Y-12287269D02*
X16071192Y-12268222D01*
X16071192Y-12268222D02*
X16061668Y-12258698D01*
X16061668Y-12258698D02*
X16042620Y-12249174D01*
X16042620Y-12249174D02*
X16004525Y-12249174D01*
X16004525Y-12249174D02*
X15985477Y-12258698D01*
X15985477Y-12258698D02*
X15975953Y-12268222D01*
X15975953Y-12268222D02*
X15966430Y-12287269D01*
X16252144Y-12172984D02*
X16214049Y-12172984D01*
X16214049Y-12172984D02*
X16195001Y-12182508D01*
X16195001Y-12182508D02*
X16185477Y-12192031D01*
X16185477Y-12192031D02*
X16166430Y-12220603D01*
X16166430Y-12220603D02*
X16156906Y-12258698D01*
X16156906Y-12258698D02*
X16156906Y-12334888D01*
X16156906Y-12334888D02*
X16166430Y-12353936D01*
X16166430Y-12353936D02*
X16175953Y-12363460D01*
X16175953Y-12363460D02*
X16195001Y-12372984D01*
X16195001Y-12372984D02*
X16233096Y-12372984D01*
X16233096Y-12372984D02*
X16252144Y-12363460D01*
X16252144Y-12363460D02*
X16261668Y-12353936D01*
X16261668Y-12353936D02*
X16271192Y-12334888D01*
X16271192Y-12334888D02*
X16271192Y-12287269D01*
X16271192Y-12287269D02*
X16261668Y-12268222D01*
X16261668Y-12268222D02*
X16252144Y-12258698D01*
X16252144Y-12258698D02*
X16233096Y-12249174D01*
X16233096Y-12249174D02*
X16195001Y-12249174D01*
X16195001Y-12249174D02*
X16175953Y-12258698D01*
X16175953Y-12258698D02*
X16166430Y-12268222D01*
X16166430Y-12268222D02*
X16156906Y-12287269D01*
X16347382Y-12172984D02*
X16347382Y-12211079D01*
X16423573Y-12172984D02*
X16423573Y-12211079D01*
X16718811Y-12449174D02*
X16709287Y-12439650D01*
X16709287Y-12439650D02*
X16690239Y-12411079D01*
X16690239Y-12411079D02*
X16680715Y-12392031D01*
X16680715Y-12392031D02*
X16671192Y-12363460D01*
X16671192Y-12363460D02*
X16661668Y-12315841D01*
X16661668Y-12315841D02*
X16661668Y-12277746D01*
X16661668Y-12277746D02*
X16671192Y-12230127D01*
X16671192Y-12230127D02*
X16680715Y-12201555D01*
X16680715Y-12201555D02*
X16690239Y-12182508D01*
X16690239Y-12182508D02*
X16709287Y-12153936D01*
X16709287Y-12153936D02*
X16718811Y-12144412D01*
X16880716Y-12239650D02*
X16880716Y-12372984D01*
X16833096Y-12163460D02*
X16785477Y-12306317D01*
X16785477Y-12306317D02*
X16909287Y-12306317D01*
X17137858Y-12372984D02*
X17137858Y-12172984D01*
X17223573Y-12372984D02*
X17223573Y-12268222D01*
X17223573Y-12268222D02*
X17214049Y-12249174D01*
X17214049Y-12249174D02*
X17195001Y-12239650D01*
X17195001Y-12239650D02*
X17166430Y-12239650D01*
X17166430Y-12239650D02*
X17147382Y-12249174D01*
X17147382Y-12249174D02*
X17137858Y-12258698D01*
X17347382Y-12372984D02*
X17328335Y-12363460D01*
X17328335Y-12363460D02*
X17318811Y-12353936D01*
X17318811Y-12353936D02*
X17309287Y-12334888D01*
X17309287Y-12334888D02*
X17309287Y-12277746D01*
X17309287Y-12277746D02*
X17318811Y-12258698D01*
X17318811Y-12258698D02*
X17328335Y-12249174D01*
X17328335Y-12249174D02*
X17347382Y-12239650D01*
X17347382Y-12239650D02*
X17375954Y-12239650D01*
X17375954Y-12239650D02*
X17395001Y-12249174D01*
X17395001Y-12249174D02*
X17404525Y-12258698D01*
X17404525Y-12258698D02*
X17414049Y-12277746D01*
X17414049Y-12277746D02*
X17414049Y-12334888D01*
X17414049Y-12334888D02*
X17404525Y-12353936D01*
X17404525Y-12353936D02*
X17395001Y-12363460D01*
X17395001Y-12363460D02*
X17375954Y-12372984D01*
X17375954Y-12372984D02*
X17347382Y-12372984D01*
X17528335Y-12372984D02*
X17509287Y-12363460D01*
X17509287Y-12363460D02*
X17499763Y-12344412D01*
X17499763Y-12344412D02*
X17499763Y-12172984D01*
X17680716Y-12363460D02*
X17661668Y-12372984D01*
X17661668Y-12372984D02*
X17623573Y-12372984D01*
X17623573Y-12372984D02*
X17604525Y-12363460D01*
X17604525Y-12363460D02*
X17595001Y-12344412D01*
X17595001Y-12344412D02*
X17595001Y-12268222D01*
X17595001Y-12268222D02*
X17604525Y-12249174D01*
X17604525Y-12249174D02*
X17623573Y-12239650D01*
X17623573Y-12239650D02*
X17661668Y-12239650D01*
X17661668Y-12239650D02*
X17680716Y-12249174D01*
X17680716Y-12249174D02*
X17690239Y-12268222D01*
X17690239Y-12268222D02*
X17690239Y-12287269D01*
X17690239Y-12287269D02*
X17595001Y-12306317D01*
X17766430Y-12363460D02*
X17785478Y-12372984D01*
X17785478Y-12372984D02*
X17823573Y-12372984D01*
X17823573Y-12372984D02*
X17842620Y-12363460D01*
X17842620Y-12363460D02*
X17852144Y-12344412D01*
X17852144Y-12344412D02*
X17852144Y-12334888D01*
X17852144Y-12334888D02*
X17842620Y-12315841D01*
X17842620Y-12315841D02*
X17823573Y-12306317D01*
X17823573Y-12306317D02*
X17795001Y-12306317D01*
X17795001Y-12306317D02*
X17775954Y-12296793D01*
X17775954Y-12296793D02*
X17766430Y-12277746D01*
X17766430Y-12277746D02*
X17766430Y-12268222D01*
X17766430Y-12268222D02*
X17775954Y-12249174D01*
X17775954Y-12249174D02*
X17795001Y-12239650D01*
X17795001Y-12239650D02*
X17823573Y-12239650D01*
X17823573Y-12239650D02*
X17842620Y-12249174D01*
X17918811Y-12449174D02*
X17928335Y-12439650D01*
X17928335Y-12439650D02*
X17947382Y-12411079D01*
X17947382Y-12411079D02*
X17956906Y-12392031D01*
X17956906Y-12392031D02*
X17966430Y-12363460D01*
X17966430Y-12363460D02*
X17975954Y-12315841D01*
X17975954Y-12315841D02*
X17975954Y-12277746D01*
X17975954Y-12277746D02*
X17966430Y-12230127D01*
X17966430Y-12230127D02*
X17956906Y-12201555D01*
X17956906Y-12201555D02*
X17947382Y-12182508D01*
X17947382Y-12182508D02*
X17928335Y-12153936D01*
X17928335Y-12153936D02*
X17918811Y-12144412D01*
X18280716Y-12449174D02*
X18271192Y-12439650D01*
X18271192Y-12439650D02*
X18252144Y-12411079D01*
X18252144Y-12411079D02*
X18242620Y-12392031D01*
X18242620Y-12392031D02*
X18233097Y-12363460D01*
X18233097Y-12363460D02*
X18223573Y-12315841D01*
X18223573Y-12315841D02*
X18223573Y-12277746D01*
X18223573Y-12277746D02*
X18233097Y-12230127D01*
X18233097Y-12230127D02*
X18242620Y-12201555D01*
X18242620Y-12201555D02*
X18252144Y-12182508D01*
X18252144Y-12182508D02*
X18271192Y-12153936D01*
X18271192Y-12153936D02*
X18280716Y-12144412D01*
X18356906Y-12239650D02*
X18356906Y-12372984D01*
X18356906Y-12258698D02*
X18366430Y-12249174D01*
X18366430Y-12249174D02*
X18385478Y-12239650D01*
X18385478Y-12239650D02*
X18414049Y-12239650D01*
X18414049Y-12239650D02*
X18433097Y-12249174D01*
X18433097Y-12249174D02*
X18442620Y-12268222D01*
X18442620Y-12268222D02*
X18442620Y-12372984D01*
X18566430Y-12372984D02*
X18547382Y-12363460D01*
X18547382Y-12363460D02*
X18537859Y-12353936D01*
X18537859Y-12353936D02*
X18528335Y-12334888D01*
X18528335Y-12334888D02*
X18528335Y-12277746D01*
X18528335Y-12277746D02*
X18537859Y-12258698D01*
X18537859Y-12258698D02*
X18547382Y-12249174D01*
X18547382Y-12249174D02*
X18566430Y-12239650D01*
X18566430Y-12239650D02*
X18595001Y-12239650D01*
X18595001Y-12239650D02*
X18614049Y-12249174D01*
X18614049Y-12249174D02*
X18623573Y-12258698D01*
X18623573Y-12258698D02*
X18633097Y-12277746D01*
X18633097Y-12277746D02*
X18633097Y-12334888D01*
X18633097Y-12334888D02*
X18623573Y-12353936D01*
X18623573Y-12353936D02*
X18614049Y-12363460D01*
X18614049Y-12363460D02*
X18595001Y-12372984D01*
X18595001Y-12372984D02*
X18566430Y-12372984D01*
X18690240Y-12239650D02*
X18766430Y-12239650D01*
X18718811Y-12172984D02*
X18718811Y-12344412D01*
X18718811Y-12344412D02*
X18728335Y-12363460D01*
X18728335Y-12363460D02*
X18747382Y-12372984D01*
X18747382Y-12372984D02*
X18766430Y-12372984D01*
X18985478Y-12239650D02*
X18985478Y-12439650D01*
X18985478Y-12249174D02*
X19004525Y-12239650D01*
X19004525Y-12239650D02*
X19042621Y-12239650D01*
X19042621Y-12239650D02*
X19061668Y-12249174D01*
X19061668Y-12249174D02*
X19071192Y-12258698D01*
X19071192Y-12258698D02*
X19080716Y-12277746D01*
X19080716Y-12277746D02*
X19080716Y-12334888D01*
X19080716Y-12334888D02*
X19071192Y-12353936D01*
X19071192Y-12353936D02*
X19061668Y-12363460D01*
X19061668Y-12363460D02*
X19042621Y-12372984D01*
X19042621Y-12372984D02*
X19004525Y-12372984D01*
X19004525Y-12372984D02*
X18985478Y-12363460D01*
X19195001Y-12372984D02*
X19175954Y-12363460D01*
X19175954Y-12363460D02*
X19166430Y-12344412D01*
X19166430Y-12344412D02*
X19166430Y-12172984D01*
X19356906Y-12372984D02*
X19356906Y-12268222D01*
X19356906Y-12268222D02*
X19347382Y-12249174D01*
X19347382Y-12249174D02*
X19328335Y-12239650D01*
X19328335Y-12239650D02*
X19290240Y-12239650D01*
X19290240Y-12239650D02*
X19271192Y-12249174D01*
X19356906Y-12363460D02*
X19337859Y-12372984D01*
X19337859Y-12372984D02*
X19290240Y-12372984D01*
X19290240Y-12372984D02*
X19271192Y-12363460D01*
X19271192Y-12363460D02*
X19261668Y-12344412D01*
X19261668Y-12344412D02*
X19261668Y-12325365D01*
X19261668Y-12325365D02*
X19271192Y-12306317D01*
X19271192Y-12306317D02*
X19290240Y-12296793D01*
X19290240Y-12296793D02*
X19337859Y-12296793D01*
X19337859Y-12296793D02*
X19356906Y-12287269D01*
X19423573Y-12239650D02*
X19499763Y-12239650D01*
X19452144Y-12172984D02*
X19452144Y-12344412D01*
X19452144Y-12344412D02*
X19461668Y-12363460D01*
X19461668Y-12363460D02*
X19480716Y-12372984D01*
X19480716Y-12372984D02*
X19499763Y-12372984D01*
X19642621Y-12363460D02*
X19623573Y-12372984D01*
X19623573Y-12372984D02*
X19585478Y-12372984D01*
X19585478Y-12372984D02*
X19566430Y-12363460D01*
X19566430Y-12363460D02*
X19556906Y-12344412D01*
X19556906Y-12344412D02*
X19556906Y-12268222D01*
X19556906Y-12268222D02*
X19566430Y-12249174D01*
X19566430Y-12249174D02*
X19585478Y-12239650D01*
X19585478Y-12239650D02*
X19623573Y-12239650D01*
X19623573Y-12239650D02*
X19642621Y-12249174D01*
X19642621Y-12249174D02*
X19652144Y-12268222D01*
X19652144Y-12268222D02*
X19652144Y-12287269D01*
X19652144Y-12287269D02*
X19556906Y-12306317D01*
X19823573Y-12372984D02*
X19823573Y-12172984D01*
X19823573Y-12363460D02*
X19804525Y-12372984D01*
X19804525Y-12372984D02*
X19766430Y-12372984D01*
X19766430Y-12372984D02*
X19747382Y-12363460D01*
X19747382Y-12363460D02*
X19737859Y-12353936D01*
X19737859Y-12353936D02*
X19728335Y-12334888D01*
X19728335Y-12334888D02*
X19728335Y-12277746D01*
X19728335Y-12277746D02*
X19737859Y-12258698D01*
X19737859Y-12258698D02*
X19747382Y-12249174D01*
X19747382Y-12249174D02*
X19766430Y-12239650D01*
X19766430Y-12239650D02*
X19804525Y-12239650D01*
X19804525Y-12239650D02*
X19823573Y-12249174D01*
X19899763Y-12449174D02*
X19909287Y-12439650D01*
X19909287Y-12439650D02*
X19928335Y-12411079D01*
X19928335Y-12411079D02*
X19937859Y-12392031D01*
X19937859Y-12392031D02*
X19947382Y-12363460D01*
X19947382Y-12363460D02*
X19956906Y-12315841D01*
X19956906Y-12315841D02*
X19956906Y-12277746D01*
X19956906Y-12277746D02*
X19947382Y-12230127D01*
X19947382Y-12230127D02*
X19937859Y-12201555D01*
X19937859Y-12201555D02*
X19928335Y-12182508D01*
X19928335Y-12182508D02*
X19909287Y-12153936D01*
X19909287Y-12153936D02*
X19899763Y-12144412D01*
M02*
