G04 #@! TF.GenerationSoftware,KiCad,Pcbnew,8.0.1*
G04 #@! TF.CreationDate,2025-02-17T15:06:08+05:00*
G04 #@! TF.ProjectId,brain_board,62726169-6e5f-4626-9f61-72642e6b6963,rev?*
G04 #@! TF.SameCoordinates,Original*
G04 #@! TF.FileFunction,Copper,L6,Bot*
G04 #@! TF.FilePolarity,Positive*
%FSLAX46Y46*%
G04 Gerber Fmt 4.6, Leading zero omitted, Abs format (unit mm)*
G04 Created by KiCad (PCBNEW 8.0.1) date 2025-02-17 15:06:08*
%MOMM*%
%LPD*%
G01*
G04 APERTURE LIST*
G04 Aperture macros list*
%AMRoundRect*
0 Rectangle with rounded corners*
0 $1 Rounding radius*
0 $2 $3 $4 $5 $6 $7 $8 $9 X,Y pos of 4 corners*
0 Add a 4 corners polygon primitive as box body*
4,1,4,$2,$3,$4,$5,$6,$7,$8,$9,$2,$3,0*
0 Add four circle primitives for the rounded corners*
1,1,$1+$1,$2,$3*
1,1,$1+$1,$4,$5*
1,1,$1+$1,$6,$7*
1,1,$1+$1,$8,$9*
0 Add four rect primitives between the rounded corners*
20,1,$1+$1,$2,$3,$4,$5,0*
20,1,$1+$1,$4,$5,$6,$7,0*
20,1,$1+$1,$6,$7,$8,$9,0*
20,1,$1+$1,$8,$9,$2,$3,0*%
%AMRotRect*
0 Rectangle, with rotation*
0 The origin of the aperture is its center*
0 $1 length*
0 $2 width*
0 $3 Rotation angle, in degrees counterclockwise*
0 Add horizontal line*
21,1,$1,$2,0,0,$3*%
G04 Aperture macros list end*
G04 #@! TA.AperFunction,ComponentPad*
%ADD10O,1.000000X1.600000*%
G04 #@! TD*
G04 #@! TA.AperFunction,ComponentPad*
%ADD11O,1.000000X2.100000*%
G04 #@! TD*
G04 #@! TA.AperFunction,SMDPad,CuDef*
%ADD12R,1.000000X3.000000*%
G04 #@! TD*
G04 #@! TA.AperFunction,SMDPad,CuDef*
%ADD13RoundRect,0.147500X0.172500X-0.147500X0.172500X0.147500X-0.172500X0.147500X-0.172500X-0.147500X0*%
G04 #@! TD*
G04 #@! TA.AperFunction,HeatsinkPad*
%ADD14RotRect,3.400000X4.300000X225.000000*%
G04 #@! TD*
G04 #@! TA.AperFunction,SMDPad,CuDef*
%ADD15RoundRect,0.125000X0.088388X0.265165X-0.265165X-0.088388X-0.088388X-0.265165X0.265165X0.088388X0*%
G04 #@! TD*
G04 #@! TA.AperFunction,SMDPad,CuDef*
%ADD16RoundRect,0.250000X1.100000X-0.250000X1.100000X0.250000X-1.100000X0.250000X-1.100000X-0.250000X0*%
G04 #@! TD*
G04 #@! TA.AperFunction,SMDPad,CuDef*
%ADD17RoundRect,0.150000X0.700000X-0.150000X0.700000X0.150000X-0.700000X0.150000X-0.700000X-0.150000X0*%
G04 #@! TD*
G04 #@! TA.AperFunction,SMDPad,CuDef*
%ADD18R,0.300000X2.800000*%
G04 #@! TD*
G04 #@! TA.AperFunction,SMDPad,CuDef*
%ADD19R,0.450000X0.200000*%
G04 #@! TD*
G04 #@! TA.AperFunction,SMDPad,CuDef*
%ADD20RoundRect,0.225000X0.017678X-0.335876X0.335876X-0.017678X-0.017678X0.335876X-0.335876X0.017678X0*%
G04 #@! TD*
G04 #@! TA.AperFunction,SMDPad,CuDef*
%ADD21R,3.330000X0.700000*%
G04 #@! TD*
G04 #@! TA.AperFunction,SMDPad,CuDef*
%ADD22R,2.800000X0.860000*%
G04 #@! TD*
G04 #@! TA.AperFunction,SMDPad,CuDef*
%ADD23R,1.830000X1.140000*%
G04 #@! TD*
G04 #@! TA.AperFunction,SMDPad,CuDef*
%ADD24R,0.780000X1.050000*%
G04 #@! TD*
G04 #@! TA.AperFunction,SMDPad,CuDef*
%ADD25R,0.930000X0.900000*%
G04 #@! TD*
G04 #@! TA.AperFunction,SMDPad,CuDef*
%ADD26R,1.100000X0.700000*%
G04 #@! TD*
G04 #@! TA.AperFunction,SMDPad,CuDef*
%ADD27RoundRect,0.200000X0.335876X0.053033X0.053033X0.335876X-0.335876X-0.053033X-0.053033X-0.335876X0*%
G04 #@! TD*
G04 #@! TA.AperFunction,SMDPad,CuDef*
%ADD28RoundRect,0.200000X-0.053033X0.335876X-0.335876X0.053033X0.053033X-0.335876X0.335876X-0.053033X0*%
G04 #@! TD*
G04 #@! TA.AperFunction,ViaPad*
%ADD29C,0.400000*%
G04 #@! TD*
G04 #@! TA.AperFunction,ViaPad*
%ADD30C,0.600000*%
G04 #@! TD*
G04 #@! TA.AperFunction,Conductor*
%ADD31C,0.300000*%
G04 #@! TD*
G04 #@! TA.AperFunction,Conductor*
%ADD32C,0.500000*%
G04 #@! TD*
G04 #@! TA.AperFunction,Conductor*
%ADD33C,0.156500*%
G04 #@! TD*
G04 #@! TA.AperFunction,Conductor*
%ADD34C,0.158200*%
G04 #@! TD*
G04 APERTURE END LIST*
D10*
X160645000Y-110525000D03*
D11*
X160645000Y-106345000D03*
D10*
X152005000Y-110525000D03*
D11*
X152005000Y-106345000D03*
D12*
X147347479Y-73219999D03*
X147347479Y-78259999D03*
X144807480Y-73219999D03*
X144807480Y-78259999D03*
X142267478Y-73219999D03*
X142267478Y-78259999D03*
X139727479Y-73219999D03*
X139727479Y-78259999D03*
D13*
X155425000Y-65365000D03*
X155425000Y-66335000D03*
D14*
X148700000Y-89600000D03*
D15*
X145443773Y-90162150D03*
X146341799Y-91060176D03*
X147239824Y-91958201D03*
X148137850Y-92856227D03*
X151956227Y-89037850D03*
X151058201Y-88139824D03*
X150160176Y-87241799D03*
X149262150Y-86343773D03*
D13*
X157800000Y-65390000D03*
X157800000Y-66360000D03*
X159100000Y-65390000D03*
X159100000Y-66360000D03*
D12*
X173322479Y-73169999D03*
X173322479Y-78209999D03*
X170782480Y-73169999D03*
X170782480Y-78209999D03*
X168242478Y-73169999D03*
X168242478Y-78209999D03*
X165702479Y-73169999D03*
X165702479Y-78209999D03*
D16*
X133000000Y-94725000D03*
X133000000Y-102175000D03*
D17*
X136200000Y-96575000D03*
X136200000Y-97825000D03*
X136200000Y-99075000D03*
X136200000Y-100325000D03*
D18*
X165099999Y-90699999D03*
D19*
X165675000Y-92099999D03*
X165675000Y-91699999D03*
X165675000Y-91299999D03*
X165675000Y-90899999D03*
X165675000Y-90499999D03*
X165675000Y-90099999D03*
X165675000Y-89699999D03*
X165675000Y-89299999D03*
X164524999Y-89299999D03*
X164525000Y-89699999D03*
X164525000Y-90099999D03*
X164525000Y-90500000D03*
X164525000Y-90899998D03*
X164525000Y-91299999D03*
X164525000Y-91699999D03*
X164524999Y-92099999D03*
D13*
X156500000Y-65372500D03*
X156500000Y-66342500D03*
D12*
X165677479Y-104145000D03*
X165677479Y-99105000D03*
X168217478Y-104145000D03*
X168217478Y-99105000D03*
X170757480Y-104145000D03*
X170757480Y-99105000D03*
X173297479Y-104145000D03*
X173297479Y-99105000D03*
D16*
X132950000Y-85025000D03*
X132950000Y-92475000D03*
D17*
X136150000Y-86875000D03*
X136150000Y-88125000D03*
X136150000Y-89375000D03*
X136150000Y-90625000D03*
D20*
X144598008Y-88076992D03*
X143501992Y-89173008D03*
D12*
X139727479Y-104170000D03*
X139727479Y-99130000D03*
X142267478Y-104170000D03*
X142267478Y-99130000D03*
X144807480Y-104170000D03*
X144807480Y-99130000D03*
X147347479Y-104170000D03*
X147347479Y-99130000D03*
D21*
X168360000Y-81840000D03*
X168360000Y-94800000D03*
D22*
X179125000Y-81920000D03*
D23*
X179610000Y-94579999D03*
D24*
X167085000Y-88224999D03*
D25*
X167160000Y-92490000D03*
D26*
X179625001Y-83000000D03*
X179625000Y-84100000D03*
X179625000Y-85200000D03*
X179625000Y-86300000D03*
X179625000Y-87400000D03*
X179625000Y-88500000D03*
X179625000Y-89600000D03*
X179625001Y-90700000D03*
D27*
X144791637Y-91616637D03*
X145958363Y-92783363D03*
D28*
X146716637Y-86058363D03*
X147883363Y-84891637D03*
D29*
X178935000Y-108255000D03*
X178935000Y-105715000D03*
X178935000Y-103175000D03*
X178935000Y-93015000D03*
X178935000Y-72695000D03*
X178935000Y-70155000D03*
X178935000Y-67615000D03*
X176395000Y-110795000D03*
X176395000Y-93015000D03*
X176395000Y-72695000D03*
X176395000Y-65075000D03*
X173855000Y-110795000D03*
X173855000Y-108255000D03*
X173855000Y-93015000D03*
X173855000Y-82855000D03*
X173855000Y-70155000D03*
X173855000Y-67615000D03*
X173855000Y-65075000D03*
X171315000Y-110795000D03*
X171315000Y-93015000D03*
X171315000Y-85395000D03*
X171315000Y-70155000D03*
X171315000Y-67615000D03*
X171315000Y-65075000D03*
X168775000Y-110795000D03*
X168775000Y-93015000D03*
X168775000Y-87935000D03*
X168775000Y-85395000D03*
X168775000Y-70155000D03*
X168775000Y-67615000D03*
X168775000Y-65075000D03*
X166235000Y-110795000D03*
X166235000Y-70155000D03*
X166235000Y-67615000D03*
X166235000Y-65075000D03*
X163695000Y-110795000D03*
X163695000Y-108255000D03*
X163695000Y-105715000D03*
X163695000Y-103175000D03*
X163695000Y-85395000D03*
X163695000Y-80315000D03*
X163695000Y-77775000D03*
X163695000Y-75235000D03*
X163695000Y-72695000D03*
X163695000Y-67615000D03*
X163695000Y-65075000D03*
X161155000Y-80315000D03*
X161155000Y-77775000D03*
X158615000Y-110795000D03*
X156075000Y-110795000D03*
X153535000Y-110795000D03*
X153535000Y-93015000D03*
X153535000Y-90475000D03*
X153535000Y-72695000D03*
X153535000Y-65075000D03*
X150995000Y-103175000D03*
X150995000Y-75235000D03*
X150995000Y-72695000D03*
X150995000Y-70155000D03*
X150995000Y-67615000D03*
X150995000Y-65075000D03*
X148455000Y-70155000D03*
X148455000Y-67615000D03*
X148455000Y-65075000D03*
X145915000Y-70155000D03*
X145915000Y-67615000D03*
X145915000Y-65075000D03*
X143375000Y-70155000D03*
X143375000Y-67615000D03*
X143375000Y-65075000D03*
X140835000Y-110795000D03*
X140835000Y-108255000D03*
X140835000Y-70155000D03*
X140835000Y-67615000D03*
X140835000Y-65075000D03*
X138295000Y-110795000D03*
X138295000Y-108255000D03*
X138295000Y-72695000D03*
X138295000Y-70155000D03*
X138295000Y-67615000D03*
X138295000Y-65075000D03*
X135755000Y-110795000D03*
X135755000Y-105715000D03*
X135755000Y-103175000D03*
X135755000Y-72695000D03*
X135755000Y-65075000D03*
X133215000Y-108255000D03*
X133215000Y-105715000D03*
X133215000Y-98095000D03*
X133215000Y-82855000D03*
X133215000Y-75235000D03*
X133215000Y-72695000D03*
X133215000Y-70155000D03*
X133215000Y-67615000D03*
D30*
X160800000Y-100100000D03*
D29*
X142900000Y-87375000D03*
X151125000Y-95100000D03*
X148550000Y-94575000D03*
X141750000Y-90350000D03*
D30*
X151950000Y-104500000D03*
X148750000Y-89600000D03*
X160800000Y-93600000D03*
X156500000Y-103700000D03*
X154200000Y-76700000D03*
X145700000Y-93900000D03*
D29*
X143600000Y-92800000D03*
X155375000Y-90350000D03*
D30*
X154675000Y-67025000D03*
X150550000Y-89825000D03*
X157300000Y-107500000D03*
X140700000Y-84100000D03*
X153650000Y-67000000D03*
X155800000Y-76900000D03*
X161900000Y-71275000D03*
X146600000Y-94450000D03*
X143800000Y-107600000D03*
X134600000Y-83700000D03*
D29*
X143225000Y-91900000D03*
X165100000Y-87900000D03*
D30*
X160475000Y-104575000D03*
D29*
X143500000Y-86225000D03*
D30*
X139500000Y-82800000D03*
X134150000Y-90250000D03*
X141600000Y-80200000D03*
X159900000Y-100100000D03*
X161800000Y-100100000D03*
X162600000Y-100100000D03*
X149500000Y-112100000D03*
D29*
X164400000Y-93300000D03*
D30*
X160700000Y-95800000D03*
X145900000Y-87300000D03*
D29*
X178600000Y-85400000D03*
D30*
X149150000Y-91100000D03*
X147950000Y-88025000D03*
X148750000Y-95850000D03*
D29*
X139975000Y-94375000D03*
D30*
X157125000Y-75125000D03*
X162875000Y-71225000D03*
D29*
X162300000Y-90300000D03*
X166275000Y-85000000D03*
D30*
X138900000Y-82100000D03*
D29*
X164700000Y-81550000D03*
D30*
X152750000Y-88200000D03*
X154700000Y-77600000D03*
X161400000Y-95200000D03*
X142900000Y-107600000D03*
X148900000Y-109700000D03*
X147325000Y-95175000D03*
D29*
X163000000Y-91600000D03*
D30*
X135900000Y-78500000D03*
D29*
X149750000Y-86775000D03*
X162700000Y-92900000D03*
X138500000Y-95400000D03*
D30*
X161700000Y-74800000D03*
D29*
X166300000Y-83125000D03*
D30*
X140100000Y-83500000D03*
X135300000Y-84100000D03*
D29*
X150925000Y-93875000D03*
X140900000Y-95200000D03*
X136800000Y-95250000D03*
X165900000Y-82075000D03*
X150300000Y-96175000D03*
D30*
X134200000Y-100050000D03*
X144800000Y-101600000D03*
D29*
X163000000Y-90600000D03*
D30*
X145175000Y-86700000D03*
X161300000Y-93100000D03*
X150400000Y-112100000D03*
D29*
X158025000Y-89625000D03*
D30*
X152950000Y-103800000D03*
X146800000Y-89350000D03*
X143100000Y-101700000D03*
D29*
X140600000Y-97200000D03*
X142600000Y-90250000D03*
D30*
X179200000Y-100525000D03*
X175600000Y-76200000D03*
X153275000Y-74675000D03*
X177675000Y-97025000D03*
X178200000Y-76300000D03*
X158100000Y-79200000D03*
X153200000Y-75800000D03*
X134400000Y-77100000D03*
X145175000Y-85650000D03*
X160300000Y-67075000D03*
X168250000Y-101325000D03*
X177800000Y-80300000D03*
X165175000Y-108175000D03*
X176700000Y-78000000D03*
X175800000Y-77300000D03*
X177000000Y-79100000D03*
X142600000Y-88325000D03*
X142700000Y-75800000D03*
X177675000Y-98725000D03*
X177700000Y-100625000D03*
X170350000Y-107000000D03*
X165275000Y-106850000D03*
X134300000Y-96700000D03*
X152500000Y-75200000D03*
X165625000Y-101275000D03*
X176900000Y-76300000D03*
X167950000Y-108150000D03*
X147600000Y-75900000D03*
X160600000Y-74775000D03*
D29*
X165800000Y-92800000D03*
D30*
X136800000Y-83400000D03*
X179400000Y-76400000D03*
X179500000Y-77600000D03*
X175000000Y-79800000D03*
X136800000Y-93725000D03*
X177900000Y-77800000D03*
X133500000Y-79400000D03*
X141100000Y-75650000D03*
X172525000Y-106900000D03*
X179500000Y-78900000D03*
X135000000Y-77600000D03*
X142200000Y-110900000D03*
X170775000Y-101275000D03*
X175700000Y-79000000D03*
X179500000Y-80300000D03*
X176300000Y-80300000D03*
X179225000Y-96975000D03*
X173300000Y-101250000D03*
X142300000Y-109900000D03*
X178300000Y-78900000D03*
X170400000Y-108150000D03*
X161900000Y-92600000D03*
D29*
X178700000Y-87400000D03*
D30*
X132800000Y-79900000D03*
X147700000Y-101100000D03*
X148300000Y-101600000D03*
X134050000Y-86950000D03*
X179225000Y-98700000D03*
X140400000Y-81300000D03*
X145100000Y-75850000D03*
X167925000Y-106925000D03*
X136100000Y-84000000D03*
X172350000Y-108150000D03*
X156600000Y-67500000D03*
X157025000Y-76025000D03*
X143925000Y-85650000D03*
X157750000Y-71650000D03*
X156075000Y-90450000D03*
X157825000Y-67525000D03*
X159100000Y-67500000D03*
X157400000Y-89400000D03*
X158925000Y-71875000D03*
D29*
X156400000Y-95100000D03*
X156400000Y-95800000D03*
X162800000Y-90100000D03*
X163600000Y-90500000D03*
X163100000Y-91100000D03*
X150450000Y-95600000D03*
X149075000Y-81875000D03*
X150750000Y-94450000D03*
X149275000Y-87125000D03*
X148000000Y-94625000D03*
X147350000Y-96625000D03*
X151625000Y-95350000D03*
D30*
X147975000Y-95850000D03*
X146500000Y-95300000D03*
X144900000Y-94100000D03*
X145800000Y-94700000D03*
D29*
X144050000Y-93250000D03*
D30*
X159475000Y-103800000D03*
X158100000Y-107400000D03*
D29*
X165850000Y-83525000D03*
X142800000Y-91525000D03*
X165950000Y-84475000D03*
X139725000Y-93875000D03*
D30*
X137900000Y-88850000D03*
D29*
X165725000Y-82650000D03*
X142575000Y-90750000D03*
D30*
X155450000Y-67525000D03*
D29*
X142375000Y-87650000D03*
X139025000Y-95050000D03*
X154250000Y-98350000D03*
X160425000Y-98125000D03*
X153150000Y-99400000D03*
X157500000Y-98675000D03*
D30*
X137450000Y-87700000D03*
D29*
X151775000Y-99825000D03*
X163525000Y-97975000D03*
X142225000Y-86950000D03*
X137475000Y-95575000D03*
X164800000Y-92900000D03*
X165400000Y-88400000D03*
X156375000Y-96575000D03*
X162500000Y-92300000D03*
X151750000Y-100475000D03*
X158725000Y-99675000D03*
X141400000Y-89800000D03*
X165125000Y-82000000D03*
X154050000Y-97650000D03*
X157800000Y-97525000D03*
X140500000Y-96640000D03*
X140973608Y-95797216D03*
D31*
X165250000Y-93100000D02*
X165000000Y-93350000D01*
X165099999Y-90699999D02*
X165100000Y-88736397D01*
D32*
X151956227Y-88993773D02*
X152750000Y-88200000D01*
D31*
X165099999Y-92563602D02*
X165250000Y-92713603D01*
D32*
X178600000Y-85400000D02*
X179425000Y-85400000D01*
D31*
X155425000Y-65365000D02*
X159075000Y-65365000D01*
D32*
X151956227Y-89037850D02*
X151956227Y-88993773D01*
X179425000Y-85400000D02*
X179625000Y-85200000D01*
D31*
X164950000Y-88050000D02*
X165100000Y-87900000D01*
X164950000Y-88586397D02*
X164950000Y-88050000D01*
X165000000Y-93350000D02*
X164450000Y-93350000D01*
X136200000Y-100325000D02*
X134475000Y-100325000D01*
X165250000Y-92713603D02*
X165250000Y-93100000D01*
X134475000Y-100325000D02*
X134200000Y-100050000D01*
X164450000Y-93350000D02*
X164400000Y-93300000D01*
X165100000Y-88736397D02*
X164950000Y-88586397D01*
X165099999Y-90699999D02*
X165099999Y-92563602D01*
X136150000Y-90625000D02*
X134525000Y-90625000D01*
X134525000Y-90625000D02*
X134150000Y-90250000D01*
D32*
X142267478Y-78259999D02*
X142267478Y-76232522D01*
D33*
X165675000Y-92100000D02*
X165675000Y-92675000D01*
D32*
X178700000Y-87400000D02*
X179625000Y-87400000D01*
D33*
X165675000Y-91700000D02*
X165675000Y-92100000D01*
D32*
X139727479Y-77022521D02*
X141100000Y-75650000D01*
D31*
X145583363Y-86058363D02*
X145175000Y-85650000D01*
D32*
X142267478Y-76232522D02*
X142700000Y-75800000D01*
D31*
X134125000Y-86875000D02*
X134050000Y-86950000D01*
X136200000Y-96575000D02*
X134425000Y-96575000D01*
D32*
X144807480Y-76142520D02*
X145100000Y-75850000D01*
X144825000Y-90550000D02*
X145055923Y-90550000D01*
X142600000Y-88325000D02*
X144825000Y-90550000D01*
X139727479Y-78259999D02*
X147347479Y-78259999D01*
X144807480Y-78259999D02*
X144807480Y-76142520D01*
D33*
X165675000Y-92675000D02*
X165800000Y-92800000D01*
D32*
X139727479Y-78259999D02*
X139727479Y-77022521D01*
X147347479Y-78259999D02*
X147347479Y-76152521D01*
X147347479Y-76152521D02*
X147600000Y-75900000D01*
D31*
X146716637Y-86058363D02*
X145583363Y-86058363D01*
X134425000Y-96575000D02*
X134300000Y-96700000D01*
D32*
X145055923Y-90550000D02*
X145443773Y-90162150D01*
D31*
X136150000Y-86875000D02*
X134125000Y-86875000D01*
X156600000Y-67500000D02*
X156600000Y-66442500D01*
X156600000Y-66442500D02*
X156500000Y-66342500D01*
D33*
X157631750Y-71768250D02*
X157631750Y-87293250D01*
D31*
X157800000Y-66360000D02*
X157800000Y-67500000D01*
D33*
X156025000Y-90400000D02*
X156075000Y-90450000D01*
X157631750Y-87293250D02*
X156025000Y-88900000D01*
X157750000Y-71650000D02*
X157631750Y-71768250D01*
X156025000Y-88900000D02*
X156025000Y-90400000D01*
D31*
X157800000Y-67500000D02*
X157825000Y-67525000D01*
X159125000Y-65990000D02*
X159150000Y-66015000D01*
X159100000Y-66360000D02*
X159100000Y-67500000D01*
D33*
X158925000Y-87875000D02*
X158925000Y-71875000D01*
X157400000Y-89400000D02*
X158925000Y-87875000D01*
X164524999Y-89299999D02*
X161800001Y-89299999D01*
X160900000Y-90900000D02*
X156700000Y-95100000D01*
X161800001Y-89299999D02*
X160900000Y-90200000D01*
X156700000Y-95100000D02*
X156400000Y-95100000D01*
X160900000Y-90200000D02*
X160900000Y-90900000D01*
X161300000Y-90500000D02*
X162100001Y-89699999D01*
X156800000Y-95800000D02*
X161300000Y-91300000D01*
X162100001Y-89699999D02*
X164525000Y-89699999D01*
X156400000Y-95800000D02*
X156800000Y-95800000D01*
X161300000Y-91300000D02*
X161300000Y-90500000D01*
X162800001Y-90099999D02*
X164525000Y-90099999D01*
X162800000Y-90100000D02*
X162800001Y-90099999D01*
X164525000Y-90500000D02*
X163600000Y-90500000D01*
X163300002Y-90899998D02*
X163100000Y-91100000D01*
X164525000Y-90899998D02*
X163300002Y-90899998D01*
X150450000Y-95168377D02*
X148137850Y-92856227D01*
X150450000Y-95600000D02*
X150450000Y-95168377D01*
X151725000Y-84525000D02*
X149075000Y-81875000D01*
X151725000Y-87473025D02*
X151725000Y-85650000D01*
X151725000Y-85650000D02*
X151725000Y-84525000D01*
X151058201Y-88139824D02*
X151725000Y-87473025D01*
X147360176Y-91060176D02*
X146341799Y-91060176D01*
X150750000Y-94450000D02*
X147360176Y-91060176D01*
X147883363Y-84964986D02*
X147883363Y-84891637D01*
X149275000Y-87125000D02*
X149262150Y-87112150D01*
X149262150Y-86343773D02*
X147883363Y-84964986D01*
X149262150Y-87112150D02*
X149262150Y-86343773D01*
X150160176Y-88235176D02*
X150160176Y-87241799D01*
X151625000Y-95350000D02*
X151625000Y-89700000D01*
X151625000Y-89700000D02*
X150160176Y-88235176D01*
D31*
X148150000Y-96025000D02*
X148150000Y-96975000D01*
X147347479Y-97777521D02*
X147347479Y-99130000D01*
X148150000Y-96975000D02*
X147347479Y-97777521D01*
X147975000Y-95850000D02*
X148150000Y-96025000D01*
X144807480Y-96992520D02*
X146500000Y-95300000D01*
X144807480Y-99130000D02*
X144807480Y-96992520D01*
X141300000Y-97400000D02*
X144600000Y-94100000D01*
X139727479Y-99130000D02*
X139727479Y-98922521D01*
X139727479Y-98922521D02*
X141250000Y-97400000D01*
X141250000Y-97400000D02*
X141300000Y-97400000D01*
X144600000Y-94100000D02*
X144900000Y-94100000D01*
X142267478Y-99130000D02*
X142267478Y-98232522D01*
X142267478Y-98232522D02*
X145800000Y-94700000D01*
D33*
X144791637Y-92508363D02*
X144050000Y-93250000D01*
X144791637Y-91616637D02*
X144791637Y-92508363D01*
D31*
X158100000Y-106400000D02*
X158100000Y-107400000D01*
X159475000Y-105025000D02*
X158100000Y-106400000D01*
X159475000Y-103800000D02*
X159475000Y-105025000D01*
X137900000Y-88850000D02*
X137375000Y-89375000D01*
X137375000Y-89375000D02*
X136150000Y-89375000D01*
X155425000Y-66335000D02*
X155425000Y-67500000D01*
X155425000Y-67500000D02*
X155450000Y-67525000D01*
D34*
X154250000Y-98350000D02*
X154475000Y-98125000D01*
X154475000Y-98125000D02*
X160425000Y-98125000D01*
X156775000Y-99400000D02*
X157500000Y-98675000D01*
X153150000Y-99400000D02*
X156775000Y-99400000D01*
D31*
X137025000Y-88125000D02*
X137450000Y-87700000D01*
X136150000Y-88125000D02*
X137025000Y-88125000D01*
D34*
X160425000Y-98800000D02*
X162700000Y-98800000D01*
X157750000Y-99350000D02*
X158300000Y-98800000D01*
X157275000Y-99825000D02*
X157750000Y-99350000D01*
X158300000Y-98800000D02*
X160425000Y-98800000D01*
X162700000Y-98800000D02*
X163525000Y-97975000D01*
X151775000Y-99825000D02*
X157275000Y-99825000D01*
D33*
X147239824Y-91958201D02*
X146414662Y-92783363D01*
X146414662Y-92783363D02*
X145958363Y-92783363D01*
X156625000Y-96825000D02*
X161525000Y-96825000D01*
X164524999Y-92100000D02*
X164524999Y-92624999D01*
X167085000Y-88224999D02*
X165575001Y-88224999D01*
X164125001Y-92099999D02*
X164524999Y-92099999D01*
X164524999Y-92624999D02*
X164800000Y-92900000D01*
X162525000Y-93700000D02*
X164125001Y-92099999D01*
X156375000Y-96575000D02*
X156625000Y-96825000D01*
X165575001Y-88224999D02*
X165400000Y-88400000D01*
X161525000Y-96825000D02*
X162525000Y-95825000D01*
X162525000Y-95825000D02*
X162525000Y-93700000D01*
X163800001Y-91299999D02*
X164525000Y-91299999D01*
X163300000Y-92300000D02*
X163578250Y-92021750D01*
X162500000Y-92300000D02*
X163300000Y-92300000D01*
X163578250Y-91521750D02*
X163800001Y-91299999D01*
X163578250Y-92021750D02*
X163578250Y-91521750D01*
X176700000Y-84100000D02*
X179625000Y-84100000D01*
X167500000Y-89700000D02*
X167900000Y-89300000D01*
X165675000Y-89700000D02*
X167500000Y-89700000D01*
X171500000Y-89300000D02*
X176700000Y-84100000D01*
X167900000Y-89300000D02*
X171500000Y-89300000D01*
X179025001Y-91300000D02*
X179625001Y-90700000D01*
X165675000Y-91300000D02*
X179025001Y-91300000D01*
X165675000Y-90900000D02*
X175600000Y-90900000D01*
X175600000Y-90900000D02*
X176900000Y-89600000D01*
X176900000Y-89600000D02*
X179625000Y-89600000D01*
X167900000Y-90100000D02*
X168100000Y-89900000D01*
X176900000Y-86300000D02*
X179625000Y-86300000D01*
X168100000Y-89900000D02*
X173300000Y-89900000D01*
X173300000Y-89900000D02*
X176900000Y-86300000D01*
X165675000Y-90100000D02*
X167900000Y-90100000D01*
X177125000Y-83000000D02*
X179625001Y-83000000D01*
X165675000Y-89300000D02*
X167200000Y-89300000D01*
X171325000Y-88800000D02*
X177125000Y-83000000D01*
X167200000Y-89300000D02*
X167700000Y-88800000D01*
X167700000Y-88800000D02*
X171325000Y-88800000D01*
X165675000Y-90500000D02*
X174825000Y-90500000D01*
X174825000Y-90500000D02*
X176825000Y-88500000D01*
X176825000Y-88500000D02*
X179625000Y-88500000D01*
D34*
X157925000Y-100475000D02*
X158725000Y-99675000D01*
X151750000Y-100475000D02*
X157925000Y-100475000D01*
X154175000Y-97525000D02*
X154050000Y-97650000D01*
X157800000Y-97525000D02*
X154175000Y-97525000D01*
D31*
X140500000Y-96640000D02*
X139310000Y-96640000D01*
X136875000Y-99075000D02*
X136200000Y-99075000D01*
X139310000Y-96640000D02*
X136875000Y-99075000D01*
X140970824Y-95800000D02*
X139150000Y-95800000D01*
X137125000Y-97825000D02*
X136200000Y-97825000D01*
X140973608Y-95797216D02*
X140970824Y-95800000D01*
X139150000Y-95800000D02*
X137125000Y-97825000D01*
G04 #@! TA.AperFunction,Conductor*
G36*
X164971748Y-75126026D02*
G01*
X165013881Y-75133836D01*
X165094996Y-75164090D01*
X165154606Y-75170499D01*
X166250351Y-75170498D01*
X166309962Y-75164090D01*
X166354394Y-75147517D01*
X166398905Y-75139707D01*
X167578750Y-75151017D01*
X167620885Y-75158827D01*
X167634995Y-75164090D01*
X167694605Y-75170499D01*
X168790350Y-75170498D01*
X168790352Y-75170497D01*
X168790365Y-75170497D01*
X168821137Y-75167188D01*
X168849961Y-75164090D01*
X168849963Y-75164089D01*
X168850337Y-75164049D01*
X168864763Y-75163344D01*
X180389404Y-75273820D01*
X180456251Y-75294146D01*
X180501498Y-75347386D01*
X180512215Y-75398080D01*
X180500501Y-80865766D01*
X180480673Y-80932763D01*
X180427771Y-80978404D01*
X180376501Y-80989500D01*
X177677129Y-80989500D01*
X177677123Y-80989501D01*
X177617516Y-80995908D01*
X177482671Y-81046203D01*
X177477571Y-81048988D01*
X177416703Y-81064147D01*
X165036485Y-80920191D01*
X164980300Y-80905995D01*
X164950224Y-80890209D01*
X164785056Y-80849500D01*
X164614944Y-80849500D01*
X164449772Y-80890210D01*
X164449770Y-80890211D01*
X164434343Y-80898308D01*
X164375288Y-80912502D01*
X164368623Y-80912425D01*
X164301815Y-80891967D01*
X164256673Y-80838638D01*
X164247529Y-80769369D01*
X164268003Y-80717995D01*
X164319818Y-80642930D01*
X164380140Y-80483872D01*
X164400645Y-80315000D01*
X164380140Y-80146128D01*
X164319818Y-79987070D01*
X164295669Y-79952085D01*
X164285476Y-79937318D01*
X164223183Y-79847071D01*
X164095852Y-79734266D01*
X164095849Y-79734263D01*
X163945226Y-79655210D01*
X163780056Y-79614500D01*
X163609944Y-79614500D01*
X163609942Y-79614500D01*
X163453674Y-79653016D01*
X163383872Y-79649947D01*
X163326810Y-79609627D01*
X163300605Y-79544857D01*
X163300000Y-79532619D01*
X163300000Y-78557380D01*
X163319685Y-78490341D01*
X163372489Y-78444586D01*
X163441647Y-78434642D01*
X163453662Y-78436980D01*
X163609944Y-78475500D01*
X163780056Y-78475500D01*
X163842947Y-78459999D01*
X164702479Y-78459999D01*
X164702479Y-79757843D01*
X164708880Y-79817371D01*
X164708882Y-79817378D01*
X164759124Y-79952085D01*
X164759128Y-79952092D01*
X164845288Y-80067186D01*
X164845291Y-80067189D01*
X164960385Y-80153349D01*
X164960392Y-80153353D01*
X165095099Y-80203595D01*
X165095106Y-80203597D01*
X165154634Y-80209998D01*
X165154651Y-80209999D01*
X165452479Y-80209999D01*
X165452479Y-78459999D01*
X165952479Y-78459999D01*
X165952479Y-80209999D01*
X166250307Y-80209999D01*
X166250323Y-80209998D01*
X166309851Y-80203597D01*
X166309858Y-80203595D01*
X166444565Y-80153353D01*
X166444572Y-80153349D01*
X166559666Y-80067189D01*
X166559669Y-80067186D01*
X166645829Y-79952092D01*
X166645833Y-79952085D01*
X166696075Y-79817378D01*
X166696077Y-79817371D01*
X166702478Y-79757843D01*
X166702479Y-79757826D01*
X166702479Y-78459999D01*
X167242478Y-78459999D01*
X167242478Y-79757843D01*
X167248879Y-79817371D01*
X167248881Y-79817378D01*
X167299123Y-79952085D01*
X167299127Y-79952092D01*
X167385287Y-80067186D01*
X167385290Y-80067189D01*
X167500384Y-80153349D01*
X167500391Y-80153353D01*
X167635098Y-80203595D01*
X167635105Y-80203597D01*
X167694633Y-80209998D01*
X167694650Y-80209999D01*
X167992478Y-80209999D01*
X167992478Y-78459999D01*
X168492478Y-78459999D01*
X168492478Y-80209999D01*
X168790306Y-80209999D01*
X168790322Y-80209998D01*
X168849850Y-80203597D01*
X168849857Y-80203595D01*
X168984564Y-80153353D01*
X168984571Y-80153349D01*
X169099665Y-80067189D01*
X169099668Y-80067186D01*
X169185828Y-79952092D01*
X169185832Y-79952085D01*
X169236074Y-79817378D01*
X169236076Y-79817371D01*
X169242477Y-79757843D01*
X169242478Y-79757826D01*
X169242478Y-78459999D01*
X169782480Y-78459999D01*
X169782480Y-79757843D01*
X169788881Y-79817371D01*
X169788883Y-79817378D01*
X169839125Y-79952085D01*
X169839129Y-79952092D01*
X169925289Y-80067186D01*
X169925292Y-80067189D01*
X170040386Y-80153349D01*
X170040393Y-80153353D01*
X170175100Y-80203595D01*
X170175107Y-80203597D01*
X170234635Y-80209998D01*
X170234652Y-80209999D01*
X170532480Y-80209999D01*
X170532480Y-78459999D01*
X171032480Y-78459999D01*
X171032480Y-80209999D01*
X171330308Y-80209999D01*
X171330324Y-80209998D01*
X171389852Y-80203597D01*
X171389859Y-80203595D01*
X171524566Y-80153353D01*
X171524573Y-80153349D01*
X171639667Y-80067189D01*
X171639670Y-80067186D01*
X171725830Y-79952092D01*
X171725834Y-79952085D01*
X171776076Y-79817378D01*
X171776078Y-79817371D01*
X171782479Y-79757843D01*
X171782480Y-79757826D01*
X171782480Y-78459999D01*
X172322479Y-78459999D01*
X172322479Y-79757843D01*
X172328880Y-79817371D01*
X172328882Y-79817378D01*
X172379124Y-79952085D01*
X172379128Y-79952092D01*
X172465288Y-80067186D01*
X172465291Y-80067189D01*
X172580385Y-80153349D01*
X172580392Y-80153353D01*
X172715099Y-80203595D01*
X172715106Y-80203597D01*
X172774634Y-80209998D01*
X172774651Y-80209999D01*
X173072479Y-80209999D01*
X173072479Y-78459999D01*
X173572479Y-78459999D01*
X173572479Y-80209999D01*
X173870307Y-80209999D01*
X173870323Y-80209998D01*
X173929851Y-80203597D01*
X173929858Y-80203595D01*
X174064565Y-80153353D01*
X174064572Y-80153349D01*
X174179666Y-80067189D01*
X174179669Y-80067186D01*
X174265829Y-79952092D01*
X174265833Y-79952085D01*
X174316075Y-79817378D01*
X174316077Y-79817371D01*
X174322478Y-79757843D01*
X174322479Y-79757826D01*
X174322479Y-78459999D01*
X173572479Y-78459999D01*
X173072479Y-78459999D01*
X172322479Y-78459999D01*
X171782480Y-78459999D01*
X171032480Y-78459999D01*
X170532480Y-78459999D01*
X169782480Y-78459999D01*
X169242478Y-78459999D01*
X168492478Y-78459999D01*
X167992478Y-78459999D01*
X167242478Y-78459999D01*
X166702479Y-78459999D01*
X165952479Y-78459999D01*
X165452479Y-78459999D01*
X164702479Y-78459999D01*
X163842947Y-78459999D01*
X163945225Y-78434790D01*
X164024692Y-78393081D01*
X164095849Y-78355736D01*
X164095850Y-78355734D01*
X164095852Y-78355734D01*
X164223183Y-78242929D01*
X164319818Y-78102930D01*
X164374024Y-77959999D01*
X164702479Y-77959999D01*
X165452479Y-77959999D01*
X165452479Y-76209999D01*
X165952479Y-76209999D01*
X165952479Y-77959999D01*
X166702479Y-77959999D01*
X167242478Y-77959999D01*
X167992478Y-77959999D01*
X167992478Y-76209999D01*
X168492478Y-76209999D01*
X168492478Y-77959999D01*
X169242478Y-77959999D01*
X169782480Y-77959999D01*
X170532480Y-77959999D01*
X170532480Y-76209999D01*
X171032480Y-76209999D01*
X171032480Y-77959999D01*
X171782480Y-77959999D01*
X172322479Y-77959999D01*
X173072479Y-77959999D01*
X173072479Y-76209999D01*
X173572479Y-76209999D01*
X173572479Y-77959999D01*
X174322479Y-77959999D01*
X174322479Y-76662171D01*
X174322478Y-76662154D01*
X174316077Y-76602626D01*
X174316075Y-76602619D01*
X174265833Y-76467912D01*
X174265829Y-76467905D01*
X174179669Y-76352811D01*
X174179666Y-76352808D01*
X174064572Y-76266648D01*
X174064565Y-76266644D01*
X173929858Y-76216402D01*
X173929851Y-76216400D01*
X173870323Y-76209999D01*
X173572479Y-76209999D01*
X173072479Y-76209999D01*
X172774634Y-76209999D01*
X172715106Y-76216400D01*
X172715099Y-76216402D01*
X172580392Y-76266644D01*
X172580385Y-76266648D01*
X172465291Y-76352808D01*
X172465288Y-76352811D01*
X172379128Y-76467905D01*
X172379124Y-76467912D01*
X172328882Y-76602619D01*
X172328880Y-76602626D01*
X172322479Y-76662154D01*
X172322479Y-77959999D01*
X171782480Y-77959999D01*
X171782480Y-76662171D01*
X171782479Y-76662154D01*
X171776078Y-76602626D01*
X171776076Y-76602619D01*
X171725834Y-76467912D01*
X171725830Y-76467905D01*
X171639670Y-76352811D01*
X171639667Y-76352808D01*
X171524573Y-76266648D01*
X171524566Y-76266644D01*
X171389859Y-76216402D01*
X171389852Y-76216400D01*
X171330324Y-76209999D01*
X171032480Y-76209999D01*
X170532480Y-76209999D01*
X170234635Y-76209999D01*
X170175107Y-76216400D01*
X170175100Y-76216402D01*
X170040393Y-76266644D01*
X170040386Y-76266648D01*
X169925292Y-76352808D01*
X169925289Y-76352811D01*
X169839129Y-76467905D01*
X169839125Y-76467912D01*
X169788883Y-76602619D01*
X169788881Y-76602626D01*
X169782480Y-76662154D01*
X169782480Y-77959999D01*
X169242478Y-77959999D01*
X169242478Y-76662171D01*
X169242477Y-76662154D01*
X169236076Y-76602626D01*
X169236074Y-76602619D01*
X169185832Y-76467912D01*
X169185828Y-76467905D01*
X169099668Y-76352811D01*
X169099665Y-76352808D01*
X168984571Y-76266648D01*
X168984564Y-76266644D01*
X168849857Y-76216402D01*
X168849850Y-76216400D01*
X168790322Y-76209999D01*
X168492478Y-76209999D01*
X167992478Y-76209999D01*
X167694633Y-76209999D01*
X167635105Y-76216400D01*
X167635098Y-76216402D01*
X167500391Y-76266644D01*
X167500384Y-76266648D01*
X167385290Y-76352808D01*
X167385287Y-76352811D01*
X167299127Y-76467905D01*
X167299123Y-76467912D01*
X167248881Y-76602619D01*
X167248879Y-76602626D01*
X167242478Y-76662154D01*
X167242478Y-77959999D01*
X166702479Y-77959999D01*
X166702479Y-76662171D01*
X166702478Y-76662154D01*
X166696077Y-76602626D01*
X166696075Y-76602619D01*
X166645833Y-76467912D01*
X166645829Y-76467905D01*
X166559669Y-76352811D01*
X166559666Y-76352808D01*
X166444572Y-76266648D01*
X166444565Y-76266644D01*
X166309858Y-76216402D01*
X166309851Y-76216400D01*
X166250323Y-76209999D01*
X165952479Y-76209999D01*
X165452479Y-76209999D01*
X165154634Y-76209999D01*
X165095106Y-76216400D01*
X165095099Y-76216402D01*
X164960392Y-76266644D01*
X164960385Y-76266648D01*
X164845291Y-76352808D01*
X164845288Y-76352811D01*
X164759128Y-76467905D01*
X164759124Y-76467912D01*
X164708882Y-76602619D01*
X164708880Y-76602626D01*
X164702479Y-76662154D01*
X164702479Y-77959999D01*
X164374024Y-77959999D01*
X164380140Y-77943872D01*
X164400645Y-77775000D01*
X164380140Y-77606128D01*
X164319818Y-77447070D01*
X164223183Y-77307071D01*
X164095852Y-77194266D01*
X164095849Y-77194263D01*
X163945226Y-77115210D01*
X163780056Y-77074500D01*
X163609944Y-77074500D01*
X163609942Y-77074500D01*
X163453674Y-77113016D01*
X163383872Y-77109947D01*
X163326810Y-77069627D01*
X163300605Y-77004857D01*
X163300000Y-76992619D01*
X163300000Y-76017380D01*
X163319685Y-75950341D01*
X163372489Y-75904586D01*
X163441647Y-75894642D01*
X163453662Y-75896980D01*
X163609944Y-75935500D01*
X163780056Y-75935500D01*
X163945225Y-75894790D01*
X164024692Y-75853081D01*
X164095849Y-75815736D01*
X164095850Y-75815734D01*
X164095852Y-75815734D01*
X164223183Y-75702929D01*
X164319818Y-75562930D01*
X164380140Y-75403872D01*
X164400645Y-75235000D01*
X164400644Y-75234997D01*
X164401155Y-75230795D01*
X164428777Y-75166617D01*
X164486711Y-75127560D01*
X164525433Y-75121748D01*
X164971748Y-75126026D01*
G37*
G04 #@! TD.AperFunction*
G04 #@! TA.AperFunction,Conductor*
G36*
X159564334Y-105958125D02*
G01*
X159620267Y-105999997D01*
X159644684Y-106065461D01*
X159645000Y-106074307D01*
X159645000Y-106095000D01*
X160345000Y-106095000D01*
X160345000Y-106595000D01*
X159729393Y-106595000D01*
X159662354Y-106575315D01*
X159642383Y-106556950D01*
X159641252Y-106558082D01*
X159537666Y-106454496D01*
X159537661Y-106454492D01*
X159417838Y-106385313D01*
X159417837Y-106385312D01*
X159323068Y-106359919D01*
X159263408Y-106323553D01*
X159232879Y-106260706D01*
X159241174Y-106191331D01*
X159267476Y-106152468D01*
X159433322Y-105986623D01*
X159494642Y-105953141D01*
X159564334Y-105958125D01*
G37*
G04 #@! TD.AperFunction*
G04 #@! TA.AperFunction,Conductor*
G36*
X176465182Y-63950617D02*
G01*
X176875397Y-63968526D01*
X176886135Y-63969466D01*
X177290552Y-64022707D01*
X177301171Y-64024579D01*
X177699414Y-64112866D01*
X177709840Y-64115660D01*
X178098865Y-64238317D01*
X178109000Y-64242006D01*
X178485847Y-64398100D01*
X178495627Y-64402660D01*
X178837046Y-64580390D01*
X178857434Y-64591003D01*
X178866799Y-64596409D01*
X179152124Y-64778181D01*
X179210807Y-64815566D01*
X179219668Y-64821771D01*
X179543258Y-65070068D01*
X179551545Y-65077022D01*
X179852260Y-65352576D01*
X179859899Y-65360214D01*
X180135471Y-65660946D01*
X180142411Y-65669216D01*
X180185615Y-65725521D01*
X180390727Y-65992827D01*
X180396931Y-66001689D01*
X180588238Y-66301980D01*
X180616075Y-66345674D01*
X180621484Y-66355042D01*
X180809820Y-66716833D01*
X180814392Y-66726637D01*
X180881778Y-66889320D01*
X180958690Y-67075003D01*
X180970480Y-67103465D01*
X180974179Y-67113628D01*
X180993681Y-67175478D01*
X181096831Y-67502629D01*
X181099631Y-67513079D01*
X181187913Y-67911294D01*
X181189791Y-67921947D01*
X181243029Y-68326325D01*
X181243972Y-68337101D01*
X181261861Y-68746816D01*
X181261979Y-68752225D01*
X181261979Y-75356668D01*
X181242294Y-75423707D01*
X181189490Y-75469462D01*
X181120332Y-75479406D01*
X181056776Y-75450381D01*
X181019002Y-75391603D01*
X181014638Y-75369434D01*
X181006784Y-75293525D01*
X180996067Y-75242831D01*
X180963308Y-75141809D01*
X180948260Y-75117894D01*
X180924017Y-75079364D01*
X180886683Y-75020029D01*
X180886680Y-75020025D01*
X180886675Y-75020018D01*
X180841441Y-74966794D01*
X180841439Y-74966792D01*
X180841415Y-74966771D01*
X180737012Y-74874538D01*
X180733612Y-74871534D01*
X180733605Y-74871529D01*
X180603316Y-74810513D01*
X180603316Y-74810512D01*
X180541079Y-74791588D01*
X180536462Y-74790184D01*
X180536460Y-74790183D01*
X180536458Y-74790183D01*
X180394245Y-74768342D01*
X174445290Y-74711315D01*
X174378443Y-74690989D01*
X174333196Y-74637749D01*
X174322479Y-74587321D01*
X174322479Y-73419999D01*
X172322479Y-73419999D01*
X172322479Y-74565771D01*
X172302794Y-74632810D01*
X172249990Y-74678565D01*
X172197290Y-74689765D01*
X171905291Y-74686966D01*
X171838444Y-74666640D01*
X171793197Y-74613400D01*
X171782480Y-74562972D01*
X171782480Y-73419999D01*
X169782480Y-73419999D01*
X169782480Y-74541423D01*
X169762795Y-74608462D01*
X169709991Y-74654217D01*
X169657291Y-74665417D01*
X169365289Y-74662618D01*
X169298442Y-74642292D01*
X169253195Y-74589052D01*
X169242478Y-74538624D01*
X169242478Y-73419999D01*
X167242478Y-73419999D01*
X167242478Y-74517075D01*
X167222793Y-74584114D01*
X167169989Y-74629869D01*
X167117289Y-74641069D01*
X166825290Y-74638270D01*
X166758443Y-74617944D01*
X166713196Y-74564704D01*
X166702479Y-74514276D01*
X166702479Y-73419999D01*
X164702479Y-73419999D01*
X164702479Y-74492727D01*
X164682794Y-74559766D01*
X164629990Y-74605521D01*
X164577291Y-74616721D01*
X164530293Y-74616270D01*
X164530278Y-74616271D01*
X164450401Y-74621847D01*
X164450400Y-74621847D01*
X164411672Y-74627660D01*
X164333669Y-74645783D01*
X164204130Y-74708418D01*
X164146207Y-74747468D01*
X164039568Y-74844054D01*
X163964458Y-74966771D01*
X163938231Y-75027707D01*
X163937341Y-75029621D01*
X163936832Y-75030957D01*
X163899341Y-75169861D01*
X163887538Y-75267065D01*
X163880383Y-75296090D01*
X163874270Y-75312208D01*
X163860380Y-75338673D01*
X163850585Y-75352864D01*
X163830759Y-75375243D01*
X163817852Y-75386677D01*
X163793254Y-75403656D01*
X163777987Y-75411669D01*
X163750042Y-75422268D01*
X163733302Y-75426395D01*
X163703620Y-75430000D01*
X163686379Y-75430000D01*
X163656704Y-75426397D01*
X163574622Y-75406165D01*
X163550214Y-75400786D01*
X163538197Y-75398447D01*
X163513592Y-75394288D01*
X163513586Y-75394287D01*
X163513583Y-75394287D01*
X163513577Y-75394287D01*
X163369706Y-75394287D01*
X163340778Y-75398447D01*
X163300545Y-75404232D01*
X163300540Y-75404233D01*
X163300536Y-75404234D01*
X163162498Y-75444766D01*
X163162492Y-75444769D01*
X163041462Y-75522551D01*
X163041451Y-75522559D01*
X162988659Y-75568303D01*
X162894433Y-75677044D01*
X162894430Y-75677048D01*
X162834664Y-75807914D01*
X162814976Y-75874962D01*
X162794500Y-76017381D01*
X162794500Y-76992621D01*
X162795116Y-77017568D01*
X162795721Y-77029810D01*
X162797573Y-77054748D01*
X162832005Y-77194446D01*
X162855397Y-77252264D01*
X162857082Y-77257281D01*
X162930603Y-77383553D01*
X162930604Y-77383554D01*
X162930606Y-77383557D01*
X163035099Y-77482465D01*
X163092161Y-77522785D01*
X163092163Y-77522786D01*
X163092169Y-77522789D01*
X163092180Y-77522796D01*
X163092427Y-77522920D01*
X163220289Y-77588247D01*
X163361668Y-77614959D01*
X163409992Y-77617083D01*
X163431466Y-77618028D01*
X163431467Y-77618027D01*
X163431470Y-77618028D01*
X163574646Y-77603828D01*
X163656704Y-77583603D01*
X163686379Y-77580000D01*
X163703623Y-77580000D01*
X163733296Y-77583603D01*
X163750037Y-77587729D01*
X163777986Y-77598328D01*
X163793247Y-77606337D01*
X163817849Y-77623317D01*
X163830765Y-77634759D01*
X163850584Y-77657130D01*
X163860380Y-77671322D01*
X163874272Y-77697793D01*
X163880385Y-77713913D01*
X163887537Y-77742931D01*
X163889616Y-77760049D01*
X163889616Y-77789949D01*
X163887537Y-77807067D01*
X163880383Y-77836090D01*
X163874270Y-77852208D01*
X163860380Y-77878673D01*
X163850585Y-77892864D01*
X163830762Y-77915241D01*
X163817857Y-77926674D01*
X163793256Y-77943655D01*
X163777985Y-77951670D01*
X163750035Y-77962270D01*
X163733296Y-77966396D01*
X163703619Y-77970000D01*
X163686379Y-77970000D01*
X163656704Y-77966397D01*
X163574622Y-77946165D01*
X163550214Y-77940786D01*
X163538197Y-77938447D01*
X163513592Y-77934288D01*
X163513586Y-77934287D01*
X163513583Y-77934287D01*
X163513577Y-77934287D01*
X163369706Y-77934287D01*
X163340778Y-77938447D01*
X163300545Y-77944232D01*
X163300540Y-77944233D01*
X163300536Y-77944234D01*
X163162498Y-77984766D01*
X163162492Y-77984769D01*
X163041462Y-78062551D01*
X163041451Y-78062559D01*
X162988659Y-78108303D01*
X162894433Y-78217044D01*
X162894430Y-78217048D01*
X162834664Y-78347914D01*
X162814976Y-78414962D01*
X162794500Y-78557381D01*
X162794500Y-79532621D01*
X162795116Y-79557568D01*
X162795721Y-79569810D01*
X162797573Y-79594746D01*
X162832005Y-79734446D01*
X162855397Y-79792264D01*
X162857082Y-79797281D01*
X162930603Y-79923553D01*
X162930604Y-79923554D01*
X162930606Y-79923557D01*
X163035099Y-80022465D01*
X163092161Y-80062785D01*
X163092163Y-80062786D01*
X163092169Y-80062789D01*
X163092180Y-80062796D01*
X163092427Y-80062920D01*
X163220289Y-80128247D01*
X163361668Y-80154959D01*
X163409992Y-80157083D01*
X163431466Y-80158028D01*
X163431467Y-80158027D01*
X163431470Y-80158028D01*
X163574646Y-80143828D01*
X163656704Y-80123603D01*
X163686379Y-80120000D01*
X163703623Y-80120000D01*
X163733296Y-80123603D01*
X163750037Y-80127729D01*
X163777986Y-80138328D01*
X163793247Y-80146337D01*
X163817849Y-80163317D01*
X163830765Y-80174759D01*
X163850584Y-80197130D01*
X163855185Y-80203796D01*
X163860380Y-80211322D01*
X163874272Y-80237793D01*
X163880385Y-80253913D01*
X163887537Y-80282931D01*
X163889616Y-80300049D01*
X163889616Y-80329949D01*
X163887537Y-80347067D01*
X163880384Y-80376088D01*
X163874272Y-80392204D01*
X163860385Y-80418666D01*
X163851988Y-80430831D01*
X163851985Y-80430837D01*
X163798422Y-80530849D01*
X163777943Y-80582234D01*
X163748039Y-80691651D01*
X163746377Y-80835522D01*
X163755521Y-80904791D01*
X163755522Y-80904799D01*
X163794458Y-81043304D01*
X163794458Y-81043305D01*
X163870843Y-81165234D01*
X163870844Y-81165235D01*
X163915986Y-81218564D01*
X164023626Y-81314034D01*
X164023627Y-81314034D01*
X164023628Y-81314035D01*
X164153798Y-81375311D01*
X164153803Y-81375312D01*
X164153804Y-81375313D01*
X164220612Y-81395771D01*
X164220613Y-81395771D01*
X164220616Y-81395772D01*
X164220888Y-81395813D01*
X164362783Y-81417891D01*
X164369448Y-81417968D01*
X164430742Y-81411064D01*
X164499557Y-81423119D01*
X164550936Y-81470469D01*
X164568559Y-81538080D01*
X164546831Y-81604486D01*
X164546667Y-81604724D01*
X164500183Y-81672068D01*
X164500182Y-81672068D01*
X164439860Y-81831125D01*
X164439859Y-81831130D01*
X164419355Y-82000000D01*
X164439859Y-82168869D01*
X164439860Y-82168874D01*
X164500182Y-82327931D01*
X164510535Y-82342929D01*
X164596817Y-82467929D01*
X164724148Y-82580734D01*
X164724150Y-82580735D01*
X164874775Y-82659790D01*
X164874774Y-82659790D01*
X164941935Y-82676343D01*
X165002316Y-82711499D01*
X165034105Y-82773718D01*
X165035357Y-82781792D01*
X165039859Y-82818870D01*
X165039860Y-82818875D01*
X165100182Y-82977930D01*
X165100183Y-82977931D01*
X165197524Y-83118954D01*
X165219407Y-83185308D01*
X165211417Y-83233364D01*
X165164859Y-83356129D01*
X165164859Y-83356130D01*
X165144355Y-83525000D01*
X165164859Y-83693869D01*
X165164860Y-83693874D01*
X165225182Y-83852931D01*
X165326078Y-83999102D01*
X165324084Y-84000478D01*
X165348810Y-84053078D01*
X165339629Y-84122342D01*
X165328327Y-84142513D01*
X165325183Y-84147067D01*
X165325182Y-84147068D01*
X165264860Y-84306125D01*
X165264859Y-84306130D01*
X165244355Y-84475000D01*
X165264859Y-84643869D01*
X165264860Y-84643874D01*
X165325182Y-84802931D01*
X165328368Y-84807546D01*
X165421817Y-84942929D01*
X165519791Y-85029726D01*
X165549150Y-85055736D01*
X165699773Y-85134789D01*
X165699775Y-85134790D01*
X165864944Y-85175500D01*
X166035056Y-85175500D01*
X166200225Y-85134790D01*
X166297488Y-85083742D01*
X166350849Y-85055736D01*
X166350850Y-85055734D01*
X166350852Y-85055734D01*
X166478183Y-84942929D01*
X166574818Y-84802930D01*
X166635140Y-84643872D01*
X166655645Y-84475000D01*
X166635140Y-84306128D01*
X166574818Y-84147070D01*
X166557749Y-84122342D01*
X166473922Y-84000898D01*
X166475916Y-83999521D01*
X166451190Y-83946924D01*
X166460368Y-83877660D01*
X166471672Y-83857487D01*
X166474818Y-83852930D01*
X166535140Y-83693872D01*
X166555645Y-83525000D01*
X166535140Y-83356128D01*
X166474818Y-83197070D01*
X166474817Y-83197068D01*
X166474816Y-83197066D01*
X166377475Y-83056046D01*
X166355591Y-82989691D01*
X166363581Y-82941639D01*
X166410140Y-82818872D01*
X166414572Y-82782363D01*
X166442192Y-82718188D01*
X166500125Y-82679130D01*
X166569978Y-82677593D01*
X166581001Y-82681128D01*
X166587620Y-82683596D01*
X166587627Y-82683598D01*
X166647155Y-82689999D01*
X166647172Y-82690000D01*
X168110000Y-82690000D01*
X168110000Y-82090000D01*
X168610000Y-82090000D01*
X168610000Y-82690000D01*
X170072828Y-82690000D01*
X170072844Y-82689999D01*
X170132372Y-82683598D01*
X170132379Y-82683596D01*
X170267086Y-82633354D01*
X170267093Y-82633350D01*
X170382187Y-82547190D01*
X170382190Y-82547187D01*
X170468350Y-82432093D01*
X170468354Y-82432086D01*
X170518596Y-82297379D01*
X170518598Y-82297372D01*
X170524999Y-82237844D01*
X170525000Y-82237827D01*
X170525000Y-82090000D01*
X168610000Y-82090000D01*
X168110000Y-82090000D01*
X166194530Y-82090000D01*
X166132932Y-82071912D01*
X166132493Y-82072751D01*
X166128309Y-82070555D01*
X166127491Y-82070315D01*
X166126148Y-82069421D01*
X165975226Y-81990210D01*
X165908063Y-81973656D01*
X165847682Y-81938500D01*
X165815894Y-81876280D01*
X165814642Y-81868205D01*
X165810140Y-81831131D01*
X165810139Y-81831125D01*
X165749817Y-81672068D01*
X165749816Y-81672066D01*
X165720304Y-81629312D01*
X165698420Y-81562958D01*
X165715885Y-81495306D01*
X165767152Y-81447836D01*
X165823791Y-81434879D01*
X166072445Y-81437771D01*
X166139248Y-81458233D01*
X166184386Y-81511565D01*
X166195000Y-81561762D01*
X166195000Y-81590000D01*
X170525000Y-81590000D01*
X170535390Y-81579609D01*
X170544685Y-81547956D01*
X170597489Y-81502201D01*
X170650438Y-81491003D01*
X177102445Y-81566027D01*
X177169248Y-81586489D01*
X177214386Y-81639821D01*
X177219632Y-81664632D01*
X177225000Y-81670000D01*
X179251000Y-81670000D01*
X179318039Y-81689685D01*
X179363794Y-81742489D01*
X179375000Y-81794000D01*
X179375000Y-82025500D01*
X179355315Y-82092539D01*
X179302511Y-82138294D01*
X179251001Y-82149500D01*
X179027131Y-82149500D01*
X179027124Y-82149501D01*
X178967519Y-82155908D01*
X178956119Y-82160160D01*
X178950698Y-82162182D01*
X178907366Y-82170000D01*
X177225000Y-82170000D01*
X177225000Y-82297250D01*
X177205315Y-82364289D01*
X177152511Y-82410044D01*
X177101000Y-82421250D01*
X177048806Y-82421250D01*
X176920110Y-82455734D01*
X176920109Y-82455733D01*
X176901613Y-82460690D01*
X176901610Y-82460691D01*
X176769640Y-82536883D01*
X176769637Y-82536885D01*
X171121593Y-88184931D01*
X171060270Y-88218416D01*
X171033912Y-88221250D01*
X168099499Y-88221250D01*
X168032460Y-88201565D01*
X167986705Y-88148761D01*
X167975499Y-88097250D01*
X167975499Y-87652128D01*
X167975498Y-87652122D01*
X167973587Y-87634346D01*
X167969091Y-87592516D01*
X167964727Y-87580816D01*
X167918797Y-87457670D01*
X167918793Y-87457663D01*
X167832547Y-87342454D01*
X167832544Y-87342451D01*
X167717335Y-87256205D01*
X167717328Y-87256201D01*
X167582482Y-87205907D01*
X167582483Y-87205907D01*
X167522883Y-87199500D01*
X167522881Y-87199499D01*
X167522873Y-87199499D01*
X167522864Y-87199499D01*
X166647129Y-87199499D01*
X166647123Y-87199500D01*
X166587516Y-87205907D01*
X166452671Y-87256201D01*
X166452664Y-87256205D01*
X166337455Y-87342451D01*
X166337452Y-87342454D01*
X166251206Y-87457663D01*
X166251202Y-87457670D01*
X166210954Y-87565582D01*
X166169083Y-87621516D01*
X166103618Y-87645933D01*
X166094772Y-87646249D01*
X165498807Y-87646249D01*
X165388562Y-87675789D01*
X165388561Y-87675788D01*
X165351616Y-87685688D01*
X165344102Y-87688801D01*
X165344020Y-87688603D01*
X165320103Y-87698228D01*
X165149773Y-87740210D01*
X164999150Y-87819263D01*
X164871816Y-87932072D01*
X164775182Y-88072068D01*
X164714860Y-88231125D01*
X164714859Y-88231130D01*
X164694355Y-88400000D01*
X164713849Y-88560553D01*
X164702388Y-88629476D01*
X164655484Y-88681262D01*
X164590753Y-88699499D01*
X164252129Y-88699499D01*
X164252122Y-88699500D01*
X164192517Y-88705907D01*
X164180034Y-88710563D01*
X164172344Y-88713431D01*
X164129013Y-88721249D01*
X161723807Y-88721249D01*
X161596499Y-88755361D01*
X161596498Y-88755360D01*
X161576614Y-88760689D01*
X161576609Y-88760691D01*
X161444644Y-88836880D01*
X161444639Y-88836884D01*
X160436886Y-89844637D01*
X160360692Y-89976608D01*
X160360691Y-89976609D01*
X160350109Y-90016104D01*
X160321250Y-90123806D01*
X160321250Y-90123808D01*
X160321250Y-90608911D01*
X160301565Y-90675950D01*
X160284931Y-90696592D01*
X156612301Y-94369221D01*
X156550978Y-94402706D01*
X156494948Y-94401938D01*
X156491585Y-94401109D01*
X156485056Y-94399500D01*
X156314944Y-94399500D01*
X156149773Y-94440210D01*
X155999150Y-94519263D01*
X155871816Y-94632072D01*
X155775182Y-94772068D01*
X155714860Y-94931125D01*
X155714859Y-94931130D01*
X155694355Y-95100000D01*
X155714859Y-95268869D01*
X155714859Y-95268870D01*
X155766876Y-95406030D01*
X155772242Y-95475694D01*
X155766876Y-95493970D01*
X155714859Y-95631129D01*
X155714859Y-95631130D01*
X155694355Y-95800000D01*
X155714859Y-95968869D01*
X155714861Y-95968877D01*
X155772400Y-96120596D01*
X155777767Y-96190259D01*
X155758511Y-96235002D01*
X155750183Y-96247067D01*
X155750182Y-96247068D01*
X155689860Y-96406125D01*
X155689859Y-96406130D01*
X155669355Y-96575000D01*
X155689859Y-96743869D01*
X155689859Y-96743870D01*
X155702587Y-96777430D01*
X155707953Y-96847094D01*
X155674804Y-96908599D01*
X155613666Y-96942420D01*
X155586644Y-96945400D01*
X154098694Y-96945400D01*
X154098693Y-96945400D01*
X154090637Y-96946461D01*
X154090628Y-96946398D01*
X154067068Y-96949500D01*
X153964944Y-96949500D01*
X153799773Y-96990210D01*
X153649150Y-97069263D01*
X153521816Y-97182072D01*
X153425182Y-97322068D01*
X153364860Y-97481125D01*
X153364859Y-97481130D01*
X153344355Y-97650000D01*
X153364859Y-97818869D01*
X153364860Y-97818874D01*
X153425182Y-97977931D01*
X153521818Y-98117931D01*
X153526791Y-98123544D01*
X153525023Y-98125110D01*
X153556021Y-98174529D01*
X153559763Y-98223101D01*
X153544355Y-98349999D01*
X153564859Y-98518869D01*
X153564861Y-98518877D01*
X153594634Y-98597382D01*
X153600001Y-98667045D01*
X153566853Y-98728551D01*
X153505714Y-98762372D01*
X153435996Y-98757770D01*
X153421065Y-98751148D01*
X153400224Y-98740209D01*
X153235056Y-98699500D01*
X153064944Y-98699500D01*
X152899773Y-98740210D01*
X152749150Y-98819263D01*
X152621816Y-98932072D01*
X152525182Y-99072068D01*
X152525182Y-99072069D01*
X152489798Y-99165371D01*
X152447620Y-99221074D01*
X152382023Y-99245131D01*
X152373856Y-99245400D01*
X152208576Y-99245400D01*
X152150950Y-99231196D01*
X152025226Y-99165210D01*
X151860056Y-99124500D01*
X151689944Y-99124500D01*
X151524773Y-99165210D01*
X151374150Y-99244263D01*
X151246816Y-99357072D01*
X151150182Y-99497068D01*
X151089860Y-99656125D01*
X151089859Y-99656130D01*
X151069355Y-99825000D01*
X151089859Y-99993869D01*
X151089859Y-99993870D01*
X151119895Y-100073069D01*
X151125261Y-100142733D01*
X151119895Y-100161009D01*
X151064859Y-100306129D01*
X151064859Y-100306130D01*
X151044355Y-100475000D01*
X151064859Y-100643869D01*
X151064860Y-100643874D01*
X151125182Y-100802931D01*
X151133259Y-100814632D01*
X151221817Y-100942929D01*
X151303282Y-101015100D01*
X151349150Y-101055736D01*
X151499773Y-101134789D01*
X151499775Y-101134790D01*
X151664944Y-101175500D01*
X151835056Y-101175500D01*
X152000225Y-101134790D01*
X152111700Y-101076283D01*
X152125950Y-101068804D01*
X152183576Y-101054600D01*
X158001303Y-101054600D01*
X158001305Y-101054600D01*
X158001306Y-101054600D01*
X158148717Y-101015101D01*
X158280883Y-100938796D01*
X158830897Y-100388779D01*
X158888901Y-100356066D01*
X158975225Y-100334790D01*
X159125852Y-100255734D01*
X159253183Y-100142929D01*
X159349818Y-100002930D01*
X159410140Y-99843872D01*
X159430645Y-99675000D01*
X159411648Y-99518547D01*
X159423108Y-99449623D01*
X159470012Y-99397837D01*
X159534744Y-99379600D01*
X162776303Y-99379600D01*
X162776305Y-99379600D01*
X162776306Y-99379600D01*
X162923717Y-99340101D01*
X162952135Y-99323694D01*
X163055883Y-99263796D01*
X163509163Y-98810514D01*
X163570485Y-98777030D01*
X163640176Y-98782014D01*
X163696110Y-98823885D01*
X163720527Y-98889350D01*
X163720838Y-98897067D01*
X163725051Y-99359604D01*
X163745106Y-101561779D01*
X163745107Y-101561790D01*
X163756708Y-101664950D01*
X163756709Y-101664956D01*
X163767510Y-101714448D01*
X163767512Y-101714455D01*
X163799941Y-101813065D01*
X163799942Y-101813067D01*
X163839062Y-101874998D01*
X163876782Y-101934711D01*
X163905972Y-101968935D01*
X163917365Y-101982293D01*
X163918126Y-101983300D01*
X163922128Y-101987877D01*
X164030120Y-102082939D01*
X164030122Y-102082940D01*
X164030124Y-102082942D01*
X164160532Y-102143731D01*
X164227415Y-102163938D01*
X164369663Y-102185526D01*
X164648478Y-102187704D01*
X164715362Y-102207911D01*
X164760703Y-102261071D01*
X164770106Y-102330305D01*
X164746777Y-102386010D01*
X164734128Y-102402906D01*
X164734124Y-102402913D01*
X164683882Y-102537620D01*
X164683880Y-102537627D01*
X164677479Y-102597155D01*
X164677479Y-103895000D01*
X166677479Y-103895000D01*
X166677479Y-102597172D01*
X166677478Y-102597155D01*
X166671077Y-102537627D01*
X166671075Y-102537620D01*
X166620833Y-102402914D01*
X166620299Y-102402200D01*
X166619987Y-102401363D01*
X166616582Y-102395128D01*
X166617478Y-102394638D01*
X166595881Y-102336736D01*
X166610732Y-102268462D01*
X166660136Y-102219056D01*
X166720529Y-102203892D01*
X167173711Y-102207432D01*
X167240592Y-102227640D01*
X167285933Y-102280799D01*
X167295336Y-102350034D01*
X167276812Y-102394274D01*
X167278375Y-102395128D01*
X167274123Y-102402913D01*
X167223881Y-102537620D01*
X167223879Y-102537627D01*
X167217478Y-102597155D01*
X167217478Y-103895000D01*
X169217478Y-103895000D01*
X169217478Y-102597172D01*
X169217477Y-102597155D01*
X169211076Y-102537627D01*
X169211074Y-102537620D01*
X169157732Y-102394601D01*
X169160248Y-102393662D01*
X169148350Y-102338999D01*
X169172758Y-102273531D01*
X169228685Y-102231652D01*
X169272995Y-102223833D01*
X169702065Y-102227185D01*
X169768943Y-102247391D01*
X169814284Y-102300551D01*
X169823687Y-102369785D01*
X169815643Y-102394010D01*
X169817226Y-102394601D01*
X169763883Y-102537620D01*
X169763881Y-102537627D01*
X169757480Y-102597155D01*
X169757480Y-103895000D01*
X171757480Y-103895000D01*
X171757480Y-102597172D01*
X171757479Y-102597155D01*
X171751078Y-102537627D01*
X171751076Y-102537620D01*
X171703876Y-102411068D01*
X171698892Y-102341376D01*
X171732377Y-102280053D01*
X171793701Y-102246569D01*
X171821018Y-102243739D01*
X172234665Y-102246971D01*
X172301547Y-102267179D01*
X172346888Y-102320338D01*
X172356291Y-102389572D01*
X172349877Y-102414300D01*
X172303882Y-102537619D01*
X172303880Y-102537627D01*
X172297479Y-102597155D01*
X172297479Y-103895000D01*
X174297479Y-103895000D01*
X174297479Y-102597172D01*
X174297478Y-102597155D01*
X174291077Y-102537627D01*
X174291075Y-102537620D01*
X174251298Y-102430970D01*
X174246314Y-102361278D01*
X174279799Y-102299955D01*
X174341123Y-102266471D01*
X174368441Y-102263641D01*
X179653503Y-102304931D01*
X180121918Y-102308591D01*
X180121918Y-102308590D01*
X180121927Y-102308591D01*
X180233073Y-102297109D01*
X180286318Y-102285555D01*
X180392229Y-102249935D01*
X180512738Y-102171328D01*
X180562589Y-102127535D01*
X180564853Y-102125659D01*
X180658711Y-102015842D01*
X180658710Y-102015842D01*
X180658713Y-102015840D01*
X180717593Y-101884559D01*
X180736822Y-101817387D01*
X180756330Y-101674835D01*
X180720495Y-96398123D01*
X180708892Y-96293816D01*
X180697977Y-96243781D01*
X180665084Y-96144117D01*
X180587978Y-96022642D01*
X180542521Y-95969582D01*
X180542520Y-95969581D01*
X180542518Y-95969578D01*
X180427648Y-95868906D01*
X180429584Y-95866696D01*
X180393757Y-95824884D01*
X180384198Y-95755671D01*
X180413575Y-95692277D01*
X180472562Y-95654830D01*
X180506836Y-95649999D01*
X180572828Y-95649999D01*
X180572844Y-95649998D01*
X180632372Y-95643597D01*
X180632379Y-95643595D01*
X180767086Y-95593353D01*
X180767093Y-95593349D01*
X180882187Y-95507189D01*
X180882190Y-95507186D01*
X180968350Y-95392092D01*
X180968354Y-95392085D01*
X181021309Y-95250107D01*
X181023995Y-95251108D01*
X181051868Y-95202150D01*
X181113776Y-95169759D01*
X181183368Y-95175980D01*
X181238550Y-95218838D01*
X181261801Y-95284725D01*
X181261979Y-95291374D01*
X181261979Y-108747293D01*
X181261861Y-108752702D01*
X181243951Y-109162896D01*
X181243008Y-109173672D01*
X181189771Y-109578048D01*
X181187893Y-109588702D01*
X181099611Y-109986916D01*
X181096811Y-109997365D01*
X180974160Y-110386362D01*
X180970460Y-110396527D01*
X180814373Y-110773354D01*
X180809801Y-110783158D01*
X180621469Y-111144937D01*
X180616061Y-111154305D01*
X180396909Y-111498305D01*
X180390704Y-111507167D01*
X180142397Y-111830765D01*
X180135443Y-111839051D01*
X179859900Y-112139753D01*
X179852251Y-112147403D01*
X179551524Y-112422966D01*
X179543237Y-112429919D01*
X179219656Y-112678211D01*
X179210795Y-112684416D01*
X178866793Y-112903568D01*
X178857425Y-112908976D01*
X178495631Y-113097313D01*
X178485826Y-113101885D01*
X178109008Y-113257967D01*
X178098843Y-113261667D01*
X177709845Y-113384316D01*
X177699396Y-113387116D01*
X177301184Y-113475396D01*
X177290531Y-113477274D01*
X176886152Y-113530510D01*
X176875375Y-113531453D01*
X176464693Y-113549382D01*
X176459285Y-113549500D01*
X136465187Y-113549500D01*
X136459778Y-113549382D01*
X136049584Y-113531471D01*
X136038807Y-113530528D01*
X135634430Y-113477289D01*
X135623777Y-113475411D01*
X135225566Y-113387128D01*
X135215117Y-113384328D01*
X134826121Y-113261676D01*
X134815956Y-113257976D01*
X134439129Y-113101888D01*
X134429325Y-113097316D01*
X134067537Y-112908980D01*
X134058175Y-112903575D01*
X133714178Y-112684423D01*
X133705325Y-112678224D01*
X133381719Y-112429912D01*
X133373432Y-112422958D01*
X133072731Y-112147415D01*
X133065087Y-112139772D01*
X132937514Y-112000550D01*
X132789518Y-111839039D01*
X132782565Y-111830752D01*
X132534273Y-111507172D01*
X132528068Y-111498311D01*
X132466878Y-111402262D01*
X132308912Y-111154303D01*
X132303505Y-111144936D01*
X132288796Y-111116681D01*
X132176000Y-110900003D01*
X141394435Y-110900003D01*
X141414630Y-111079249D01*
X141414631Y-111079254D01*
X141474211Y-111249523D01*
X141570184Y-111402262D01*
X141697738Y-111529816D01*
X141850478Y-111625789D01*
X142020745Y-111685368D01*
X142020750Y-111685369D01*
X142199996Y-111705565D01*
X142200000Y-111705565D01*
X142200004Y-111705565D01*
X142379249Y-111685369D01*
X142379252Y-111685368D01*
X142379255Y-111685368D01*
X142549522Y-111625789D01*
X142702262Y-111529816D01*
X142829816Y-111402262D01*
X142925789Y-111249522D01*
X142985368Y-111079255D01*
X142985369Y-111079249D01*
X143002918Y-110923495D01*
X151005000Y-110923495D01*
X151043427Y-111116681D01*
X151043430Y-111116693D01*
X151118807Y-111298671D01*
X151118814Y-111298684D01*
X151228248Y-111462462D01*
X151228251Y-111462466D01*
X151367533Y-111601748D01*
X151367537Y-111601751D01*
X151531315Y-111711185D01*
X151531328Y-111711192D01*
X151713308Y-111786569D01*
X151755000Y-111794862D01*
X151755000Y-110991988D01*
X151764940Y-111009205D01*
X151820795Y-111065060D01*
X151889204Y-111104556D01*
X151965504Y-111125000D01*
X152044496Y-111125000D01*
X152120796Y-111104556D01*
X152189205Y-111065060D01*
X152245060Y-111009205D01*
X152255000Y-110991988D01*
X152255000Y-111794862D01*
X152296690Y-111786569D01*
X152296692Y-111786569D01*
X152478671Y-111711192D01*
X152478684Y-111711185D01*
X152642462Y-111601751D01*
X152642466Y-111601748D01*
X152781748Y-111462466D01*
X152781751Y-111462462D01*
X152891185Y-111298684D01*
X152891192Y-111298671D01*
X152966569Y-111116693D01*
X152966572Y-111116681D01*
X153004999Y-110923495D01*
X159645000Y-110923495D01*
X159683427Y-111116681D01*
X159683430Y-111116693D01*
X159758807Y-111298671D01*
X159758814Y-111298684D01*
X159868248Y-111462462D01*
X159868251Y-111462466D01*
X160007533Y-111601748D01*
X160007537Y-111601751D01*
X160171315Y-111711185D01*
X160171328Y-111711192D01*
X160353308Y-111786569D01*
X160395000Y-111794862D01*
X160395000Y-110991988D01*
X160404940Y-111009205D01*
X160460795Y-111065060D01*
X160529204Y-111104556D01*
X160605504Y-111125000D01*
X160684496Y-111125000D01*
X160760796Y-111104556D01*
X160829205Y-111065060D01*
X160885060Y-111009205D01*
X160895000Y-110991988D01*
X160895000Y-111794862D01*
X160936690Y-111786569D01*
X160936692Y-111786569D01*
X161118671Y-111711192D01*
X161118684Y-111711185D01*
X161282462Y-111601751D01*
X161282466Y-111601748D01*
X161421748Y-111462466D01*
X161421751Y-111462462D01*
X161531185Y-111298684D01*
X161531192Y-111298671D01*
X161606569Y-111116693D01*
X161606572Y-111116681D01*
X161644999Y-110923495D01*
X161645000Y-110923492D01*
X161645000Y-110775000D01*
X160945000Y-110775000D01*
X160945000Y-110275000D01*
X161645000Y-110275000D01*
X161645000Y-110126508D01*
X161644999Y-110126504D01*
X161606572Y-109933318D01*
X161606569Y-109933306D01*
X161531192Y-109751328D01*
X161531185Y-109751315D01*
X161421751Y-109587537D01*
X161421748Y-109587533D01*
X161282466Y-109448251D01*
X161282462Y-109448248D01*
X161118684Y-109338814D01*
X161118671Y-109338807D01*
X160936691Y-109263429D01*
X160936683Y-109263427D01*
X160895000Y-109255135D01*
X160895000Y-110058011D01*
X160885060Y-110040795D01*
X160829205Y-109984940D01*
X160760796Y-109945444D01*
X160684496Y-109925000D01*
X160605504Y-109925000D01*
X160529204Y-109945444D01*
X160460795Y-109984940D01*
X160404940Y-110040795D01*
X160395000Y-110058011D01*
X160395000Y-109255136D01*
X160394999Y-109255135D01*
X160353316Y-109263427D01*
X160353308Y-109263429D01*
X160171328Y-109338807D01*
X160171315Y-109338814D01*
X160007537Y-109448248D01*
X160007533Y-109448251D01*
X159868251Y-109587533D01*
X159868248Y-109587537D01*
X159758814Y-109751315D01*
X159758807Y-109751328D01*
X159683430Y-109933306D01*
X159683427Y-109933318D01*
X159645000Y-110126504D01*
X159645000Y-110275000D01*
X160345000Y-110275000D01*
X160345000Y-110775000D01*
X159645000Y-110775000D01*
X159645000Y-110923495D01*
X153004999Y-110923495D01*
X153005000Y-110923492D01*
X153005000Y-110775000D01*
X152305000Y-110775000D01*
X152305000Y-110275000D01*
X153005000Y-110275000D01*
X153005000Y-110126508D01*
X153004999Y-110126504D01*
X152966572Y-109933318D01*
X152966569Y-109933306D01*
X152891192Y-109751328D01*
X152891185Y-109751315D01*
X152781751Y-109587537D01*
X152781748Y-109587533D01*
X152642466Y-109448251D01*
X152642462Y-109448248D01*
X152478684Y-109338814D01*
X152478671Y-109338807D01*
X152296691Y-109263429D01*
X152296683Y-109263427D01*
X152255000Y-109255135D01*
X152255000Y-110058011D01*
X152245060Y-110040795D01*
X152189205Y-109984940D01*
X152120796Y-109945444D01*
X152044496Y-109925000D01*
X151965504Y-109925000D01*
X151889204Y-109945444D01*
X151820795Y-109984940D01*
X151764940Y-110040795D01*
X151755000Y-110058011D01*
X151755000Y-109255136D01*
X151754999Y-109255135D01*
X151713316Y-109263427D01*
X151713308Y-109263429D01*
X151531328Y-109338807D01*
X151531315Y-109338814D01*
X151367537Y-109448248D01*
X151367533Y-109448251D01*
X151228251Y-109587533D01*
X151228248Y-109587537D01*
X151118814Y-109751315D01*
X151118807Y-109751328D01*
X151043430Y-109933306D01*
X151043427Y-109933318D01*
X151005000Y-110126504D01*
X151005000Y-110275000D01*
X151705000Y-110275000D01*
X151705000Y-110775000D01*
X151005000Y-110775000D01*
X151005000Y-110923495D01*
X143002918Y-110923495D01*
X143005565Y-110900003D01*
X143005565Y-110899996D01*
X142985369Y-110720750D01*
X142985368Y-110720745D01*
X142957826Y-110642035D01*
X142925789Y-110550478D01*
X142922286Y-110544903D01*
X142903284Y-110477666D01*
X142923650Y-110410831D01*
X142929512Y-110402745D01*
X142929814Y-110402263D01*
X142929816Y-110402262D01*
X143025789Y-110249522D01*
X143085368Y-110079255D01*
X143085369Y-110079249D01*
X143105565Y-109900003D01*
X143105565Y-109899996D01*
X143085369Y-109720750D01*
X143085368Y-109720745D01*
X143039164Y-109588702D01*
X143025789Y-109550478D01*
X142929816Y-109397738D01*
X142802262Y-109270184D01*
X142649523Y-109174211D01*
X142479254Y-109114631D01*
X142479249Y-109114630D01*
X142300004Y-109094435D01*
X142299996Y-109094435D01*
X142120750Y-109114630D01*
X142120745Y-109114631D01*
X141950476Y-109174211D01*
X141797737Y-109270184D01*
X141670184Y-109397737D01*
X141574211Y-109550476D01*
X141514631Y-109720745D01*
X141514630Y-109720750D01*
X141494435Y-109899996D01*
X141494435Y-109900003D01*
X141514630Y-110079249D01*
X141514631Y-110079254D01*
X141574211Y-110249523D01*
X141577715Y-110255099D01*
X141596715Y-110322335D01*
X141576347Y-110389171D01*
X141570491Y-110397249D01*
X141474211Y-110550476D01*
X141414631Y-110720745D01*
X141414630Y-110720750D01*
X141394435Y-110899996D01*
X141394435Y-110900003D01*
X132176000Y-110900003D01*
X132115169Y-110783147D01*
X132110600Y-110773347D01*
X131954518Y-110396528D01*
X131950818Y-110386364D01*
X131907672Y-110249523D01*
X131828159Y-109997343D01*
X131825370Y-109986931D01*
X131737082Y-109588690D01*
X131735209Y-109578062D01*
X131681967Y-109173652D01*
X131681027Y-109162915D01*
X131664194Y-108777351D01*
X135186979Y-108777351D01*
X135219001Y-108979534D01*
X135282260Y-109174223D01*
X135346170Y-109299653D01*
X135366124Y-109338814D01*
X135375194Y-109356613D01*
X135495507Y-109522213D01*
X135640265Y-109666971D01*
X135756357Y-109751315D01*
X135805869Y-109787287D01*
X135866408Y-109818133D01*
X135988255Y-109880218D01*
X135988257Y-109880218D01*
X135988260Y-109880220D01*
X136049137Y-109900000D01*
X136182944Y-109943477D01*
X136284036Y-109959488D01*
X136385127Y-109975500D01*
X136385128Y-109975500D01*
X136589830Y-109975500D01*
X136589831Y-109975500D01*
X136792013Y-109943477D01*
X136986698Y-109880220D01*
X137169089Y-109787287D01*
X137262069Y-109719732D01*
X137334692Y-109666971D01*
X137334694Y-109666968D01*
X137334698Y-109666966D01*
X137479445Y-109522219D01*
X137479447Y-109522215D01*
X137479450Y-109522213D01*
X137569885Y-109397738D01*
X137599766Y-109356610D01*
X137692699Y-109174219D01*
X137755956Y-108979534D01*
X137787979Y-108777352D01*
X137787979Y-108572648D01*
X137780357Y-108524523D01*
X137755956Y-108370465D01*
X137692697Y-108175776D01*
X137658982Y-108109607D01*
X137599766Y-107993390D01*
X137583314Y-107970745D01*
X137479450Y-107827786D01*
X137334692Y-107683028D01*
X137169092Y-107562715D01*
X137169091Y-107562714D01*
X137169089Y-107562713D01*
X137092408Y-107523642D01*
X136986702Y-107469781D01*
X136792013Y-107406522D01*
X136617474Y-107378878D01*
X136589831Y-107374500D01*
X136385127Y-107374500D01*
X136360808Y-107378351D01*
X136182944Y-107406522D01*
X135988255Y-107469781D01*
X135805865Y-107562715D01*
X135640265Y-107683028D01*
X135495507Y-107827786D01*
X135375194Y-107993386D01*
X135282260Y-108175776D01*
X135219001Y-108370465D01*
X135186979Y-108572648D01*
X135186979Y-108777351D01*
X131664194Y-108777351D01*
X131663096Y-108752213D01*
X131662979Y-108746822D01*
X131662979Y-106993495D01*
X151005000Y-106993495D01*
X151043427Y-107186681D01*
X151043430Y-107186693D01*
X151118807Y-107368671D01*
X151118814Y-107368684D01*
X151228248Y-107532462D01*
X151228251Y-107532466D01*
X151367533Y-107671748D01*
X151367537Y-107671751D01*
X151531315Y-107781185D01*
X151531328Y-107781192D01*
X151713308Y-107856569D01*
X151755000Y-107864862D01*
X151755000Y-107061988D01*
X151764940Y-107079205D01*
X151820795Y-107135060D01*
X151889204Y-107174556D01*
X151965504Y-107195000D01*
X152044496Y-107195000D01*
X152120796Y-107174556D01*
X152189205Y-107135060D01*
X152245060Y-107079205D01*
X152255000Y-107061988D01*
X152255000Y-107864862D01*
X152296690Y-107856569D01*
X152296692Y-107856569D01*
X152478671Y-107781192D01*
X152478684Y-107781185D01*
X152642462Y-107671751D01*
X152642466Y-107671748D01*
X152781748Y-107532466D01*
X152781751Y-107532462D01*
X152891185Y-107368684D01*
X152891187Y-107368680D01*
X152906374Y-107332016D01*
X152950215Y-107277613D01*
X153016509Y-107255547D01*
X153084208Y-107272826D01*
X153108617Y-107291787D01*
X153112335Y-107295505D01*
X153232164Y-107364688D01*
X153365817Y-107400500D01*
X153365819Y-107400500D01*
X153504181Y-107400500D01*
X153504183Y-107400500D01*
X153506038Y-107400003D01*
X157294435Y-107400003D01*
X157314630Y-107579249D01*
X157314631Y-107579254D01*
X157374211Y-107749523D01*
X157441473Y-107856569D01*
X157470184Y-107902262D01*
X157597738Y-108029816D01*
X157750478Y-108125789D01*
X157819678Y-108150003D01*
X157920745Y-108185368D01*
X157920750Y-108185369D01*
X158099996Y-108205565D01*
X158100000Y-108205565D01*
X158100004Y-108205565D01*
X158279249Y-108185369D01*
X158279252Y-108185368D01*
X158279255Y-108185368D01*
X158308876Y-108175003D01*
X164369435Y-108175003D01*
X164389630Y-108354249D01*
X164389631Y-108354254D01*
X164449211Y-108524523D01*
X164529475Y-108652262D01*
X164545184Y-108677262D01*
X164672738Y-108804816D01*
X164825478Y-108900789D01*
X164924299Y-108935368D01*
X164995745Y-108960368D01*
X164995750Y-108960369D01*
X165174996Y-108980565D01*
X165175000Y-108980565D01*
X165175004Y-108980565D01*
X165354249Y-108960369D01*
X165354252Y-108960368D01*
X165354255Y-108960368D01*
X165524522Y-108900789D01*
X165677262Y-108804816D01*
X165804816Y-108677262D01*
X165900789Y-108524522D01*
X165960368Y-108354255D01*
X165963185Y-108329254D01*
X165980565Y-108175003D01*
X165980565Y-108174996D01*
X165960369Y-107995750D01*
X165960368Y-107995745D01*
X165911668Y-107856569D01*
X165900789Y-107825478D01*
X165885080Y-107800478D01*
X165811285Y-107683034D01*
X165804816Y-107672738D01*
X165782259Y-107650181D01*
X165748774Y-107588858D01*
X165753758Y-107519166D01*
X165782259Y-107474819D01*
X165840311Y-107416767D01*
X165904816Y-107352262D01*
X166000789Y-107199522D01*
X166060368Y-107029255D01*
X166063664Y-107000003D01*
X166072115Y-106925003D01*
X167119435Y-106925003D01*
X167139630Y-107104249D01*
X167139631Y-107104254D01*
X167199211Y-107274523D01*
X167295184Y-107427262D01*
X167330241Y-107462319D01*
X167363726Y-107523642D01*
X167358742Y-107593334D01*
X167330241Y-107637681D01*
X167320184Y-107647737D01*
X167224211Y-107800476D01*
X167164631Y-107970745D01*
X167164630Y-107970750D01*
X167144435Y-108149996D01*
X167144435Y-108150003D01*
X167164630Y-108329249D01*
X167164631Y-108329254D01*
X167224211Y-108499523D01*
X167239920Y-108524523D01*
X167320184Y-108652262D01*
X167447738Y-108779816D01*
X167600478Y-108875789D01*
X167671924Y-108900789D01*
X167770745Y-108935368D01*
X167770750Y-108935369D01*
X167949996Y-108955565D01*
X167950000Y-108955565D01*
X167950004Y-108955565D01*
X168129249Y-108935369D01*
X168129252Y-108935368D01*
X168129255Y-108935368D01*
X168299522Y-108875789D01*
X168452262Y-108779816D01*
X168579816Y-108652262D01*
X168675789Y-108499522D01*
X168735368Y-108329255D01*
X168735369Y-108329249D01*
X168755565Y-108150003D01*
X168755565Y-108149996D01*
X168735369Y-107970750D01*
X168735368Y-107970745D01*
X168685344Y-107827786D01*
X168675789Y-107800478D01*
X168663666Y-107781185D01*
X168595584Y-107672833D01*
X168579816Y-107647738D01*
X168544759Y-107612681D01*
X168511274Y-107551358D01*
X168516258Y-107481666D01*
X168544759Y-107437319D01*
X168545936Y-107436142D01*
X168554816Y-107427262D01*
X168650789Y-107274522D01*
X168710368Y-107104255D01*
X168713185Y-107079254D01*
X168722114Y-107000003D01*
X169544435Y-107000003D01*
X169564630Y-107179249D01*
X169564631Y-107179254D01*
X169624211Y-107349523D01*
X169720184Y-107502262D01*
X169737102Y-107519180D01*
X169770587Y-107580503D01*
X169765603Y-107650195D01*
X169754415Y-107672833D01*
X169674211Y-107800476D01*
X169614631Y-107970745D01*
X169614630Y-107970750D01*
X169594435Y-108149996D01*
X169594435Y-108150003D01*
X169614630Y-108329249D01*
X169614631Y-108329254D01*
X169674211Y-108499523D01*
X169689920Y-108524523D01*
X169770184Y-108652262D01*
X169897738Y-108779816D01*
X170050478Y-108875789D01*
X170121924Y-108900789D01*
X170220745Y-108935368D01*
X170220750Y-108935369D01*
X170399996Y-108955565D01*
X170400000Y-108955565D01*
X170400004Y-108955565D01*
X170579249Y-108935369D01*
X170579252Y-108935368D01*
X170579255Y-108935368D01*
X170749522Y-108875789D01*
X170902262Y-108779816D01*
X171029816Y-108652262D01*
X171125789Y-108499522D01*
X171185368Y-108329255D01*
X171185369Y-108329249D01*
X171205565Y-108150003D01*
X171544435Y-108150003D01*
X171564630Y-108329249D01*
X171564631Y-108329254D01*
X171624211Y-108499523D01*
X171639920Y-108524523D01*
X171720184Y-108652262D01*
X171847738Y-108779816D01*
X172000478Y-108875789D01*
X172071924Y-108900789D01*
X172170745Y-108935368D01*
X172170750Y-108935369D01*
X172349996Y-108955565D01*
X172350000Y-108955565D01*
X172350004Y-108955565D01*
X172529249Y-108935369D01*
X172529252Y-108935368D01*
X172529255Y-108935368D01*
X172699522Y-108875789D01*
X172852262Y-108779816D01*
X172854727Y-108777351D01*
X175186979Y-108777351D01*
X175219001Y-108979534D01*
X175282260Y-109174223D01*
X175346170Y-109299653D01*
X175366124Y-109338814D01*
X175375194Y-109356613D01*
X175495507Y-109522213D01*
X175640265Y-109666971D01*
X175756357Y-109751315D01*
X175805869Y-109787287D01*
X175866408Y-109818133D01*
X175988255Y-109880218D01*
X175988257Y-109880218D01*
X175988260Y-109880220D01*
X176049137Y-109900000D01*
X176182944Y-109943477D01*
X176284036Y-109959488D01*
X176385127Y-109975500D01*
X176385128Y-109975500D01*
X176589830Y-109975500D01*
X176589831Y-109975500D01*
X176792013Y-109943477D01*
X176986698Y-109880220D01*
X177169089Y-109787287D01*
X177262069Y-109719732D01*
X177334692Y-109666971D01*
X177334694Y-109666968D01*
X177334698Y-109666966D01*
X177479445Y-109522219D01*
X177479447Y-109522215D01*
X177479450Y-109522213D01*
X177569885Y-109397738D01*
X177599766Y-109356610D01*
X177692699Y-109174219D01*
X177755956Y-108979534D01*
X177787979Y-108777352D01*
X177787979Y-108572648D01*
X177780357Y-108524523D01*
X177755956Y-108370465D01*
X177692697Y-108175776D01*
X177658982Y-108109607D01*
X177599766Y-107993390D01*
X177583314Y-107970745D01*
X177479450Y-107827786D01*
X177334692Y-107683028D01*
X177169092Y-107562715D01*
X177169091Y-107562714D01*
X177169089Y-107562713D01*
X177092408Y-107523642D01*
X176986702Y-107469781D01*
X176792013Y-107406522D01*
X176617474Y-107378878D01*
X176589831Y-107374500D01*
X176385127Y-107374500D01*
X176360808Y-107378351D01*
X176182944Y-107406522D01*
X175988255Y-107469781D01*
X175805865Y-107562715D01*
X175640265Y-107683028D01*
X175495507Y-107827786D01*
X175375194Y-107993386D01*
X175282260Y-108175776D01*
X175219001Y-108370465D01*
X175186979Y-108572648D01*
X175186979Y-108777351D01*
X172854727Y-108777351D01*
X172979816Y-108652262D01*
X173075789Y-108499522D01*
X173135368Y-108329255D01*
X173135369Y-108329249D01*
X173155565Y-108150003D01*
X173155565Y-108149996D01*
X173135369Y-107970750D01*
X173135368Y-107970745D01*
X173075788Y-107800475D01*
X173005232Y-107688188D01*
X172986231Y-107620951D01*
X173006598Y-107554116D01*
X173022544Y-107534534D01*
X173087298Y-107469780D01*
X173154816Y-107402262D01*
X173250789Y-107249522D01*
X173310368Y-107079255D01*
X173313610Y-107050481D01*
X173330565Y-106900003D01*
X173330565Y-106899996D01*
X173310369Y-106720750D01*
X173310368Y-106720745D01*
X173292872Y-106670745D01*
X173250789Y-106550478D01*
X173154816Y-106397738D01*
X173062459Y-106305381D01*
X173028974Y-106244058D01*
X173033958Y-106174366D01*
X173047479Y-106153328D01*
X173047479Y-104395000D01*
X173547479Y-104395000D01*
X173547479Y-106145000D01*
X173845307Y-106145000D01*
X173845323Y-106144999D01*
X173904851Y-106138598D01*
X173904858Y-106138596D01*
X174039565Y-106088354D01*
X174039572Y-106088350D01*
X174154666Y-106002190D01*
X174154669Y-106002187D01*
X174240829Y-105887093D01*
X174240833Y-105887086D01*
X174291075Y-105752379D01*
X174291077Y-105752372D01*
X174297478Y-105692844D01*
X174297479Y-105692827D01*
X174297479Y-104395000D01*
X173547479Y-104395000D01*
X173047479Y-104395000D01*
X172297479Y-104395000D01*
X172297479Y-105692844D01*
X172303880Y-105752372D01*
X172303882Y-105752379D01*
X172354124Y-105887086D01*
X172354126Y-105887088D01*
X172385958Y-105929611D01*
X172410375Y-105995075D01*
X172395524Y-106063348D01*
X172346118Y-106112754D01*
X172327646Y-106120963D01*
X172175480Y-106174208D01*
X172022737Y-106270184D01*
X171895184Y-106397737D01*
X171799211Y-106550476D01*
X171739631Y-106720745D01*
X171739630Y-106720750D01*
X171719435Y-106899996D01*
X171719435Y-106900003D01*
X171739630Y-107079249D01*
X171739631Y-107079254D01*
X171799211Y-107249523D01*
X171869768Y-107361813D01*
X171888768Y-107429050D01*
X171868400Y-107495885D01*
X171852456Y-107515466D01*
X171720183Y-107647739D01*
X171624211Y-107800476D01*
X171564631Y-107970745D01*
X171564630Y-107970750D01*
X171544435Y-108149996D01*
X171544435Y-108150003D01*
X171205565Y-108150003D01*
X171205565Y-108149996D01*
X171185369Y-107970750D01*
X171185368Y-107970745D01*
X171135344Y-107827786D01*
X171125789Y-107800478D01*
X171113666Y-107781185D01*
X171045584Y-107672833D01*
X171029816Y-107647738D01*
X171012897Y-107630819D01*
X170979412Y-107569496D01*
X170984396Y-107499804D01*
X170995583Y-107477168D01*
X171068066Y-107361813D01*
X171075788Y-107349524D01*
X171075789Y-107349522D01*
X171135368Y-107179255D01*
X171135369Y-107179249D01*
X171155565Y-107000003D01*
X171155565Y-106999996D01*
X171135369Y-106820750D01*
X171135368Y-106820745D01*
X171082882Y-106670750D01*
X171075789Y-106650478D01*
X170979816Y-106497738D01*
X170852262Y-106370184D01*
X170852258Y-106370181D01*
X170846946Y-106365945D01*
X170806808Y-106308755D01*
X170803960Y-106238943D01*
X170839307Y-106178674D01*
X170901627Y-106147083D01*
X170924262Y-106145000D01*
X171305308Y-106145000D01*
X171305324Y-106144999D01*
X171364852Y-106138598D01*
X171364859Y-106138596D01*
X171499566Y-106088354D01*
X171499573Y-106088350D01*
X171614667Y-106002190D01*
X171614670Y-106002187D01*
X171700830Y-105887093D01*
X171700834Y-105887086D01*
X171751076Y-105752379D01*
X171751078Y-105752372D01*
X171757479Y-105692844D01*
X171757480Y-105692827D01*
X171757480Y-104395000D01*
X169757480Y-104395000D01*
X169757480Y-105692844D01*
X169763881Y-105752372D01*
X169763883Y-105752379D01*
X169814125Y-105887086D01*
X169814129Y-105887093D01*
X169900289Y-106002187D01*
X169900292Y-106002190D01*
X169999025Y-106076102D01*
X170040896Y-106132035D01*
X170045880Y-106201727D01*
X170012394Y-106263050D01*
X169990687Y-106280361D01*
X169847740Y-106370182D01*
X169847737Y-106370184D01*
X169720184Y-106497737D01*
X169624211Y-106650476D01*
X169564631Y-106820745D01*
X169564630Y-106820750D01*
X169544435Y-106999996D01*
X169544435Y-107000003D01*
X168722114Y-107000003D01*
X168730565Y-106925003D01*
X168730565Y-106924996D01*
X168710369Y-106745750D01*
X168710368Y-106745745D01*
X168684124Y-106670745D01*
X168650789Y-106575478D01*
X168639858Y-106558082D01*
X168554815Y-106422737D01*
X168488759Y-106356681D01*
X168455274Y-106295358D01*
X168460258Y-106225666D01*
X168502130Y-106169733D01*
X168567594Y-106145316D01*
X168576440Y-106145000D01*
X168765306Y-106145000D01*
X168765322Y-106144999D01*
X168824850Y-106138598D01*
X168824857Y-106138596D01*
X168959564Y-106088354D01*
X168959571Y-106088350D01*
X169074665Y-106002190D01*
X169074668Y-106002187D01*
X169160828Y-105887093D01*
X169160832Y-105887086D01*
X169211074Y-105752379D01*
X169211076Y-105752372D01*
X169217477Y-105692844D01*
X169217478Y-105692827D01*
X169217478Y-104395000D01*
X167217478Y-104395000D01*
X167217478Y-105692844D01*
X167223879Y-105752372D01*
X167223881Y-105752379D01*
X167274123Y-105887086D01*
X167274127Y-105887093D01*
X167360287Y-106002187D01*
X167360290Y-106002190D01*
X167457034Y-106074613D01*
X167498905Y-106130546D01*
X167503889Y-106200238D01*
X167470404Y-106261561D01*
X167448698Y-106278871D01*
X167422739Y-106295182D01*
X167295184Y-106422737D01*
X167199211Y-106575476D01*
X167139631Y-106745745D01*
X167139630Y-106745750D01*
X167119435Y-106924996D01*
X167119435Y-106925003D01*
X166072115Y-106925003D01*
X166080565Y-106850003D01*
X166080565Y-106849996D01*
X166060369Y-106670750D01*
X166060368Y-106670745D01*
X166031311Y-106587706D01*
X166000789Y-106500478D01*
X165999067Y-106497738D01*
X165904818Y-106347741D01*
X165903681Y-106346316D01*
X165903233Y-106345219D01*
X165901111Y-106341842D01*
X165901702Y-106341470D01*
X165877271Y-106281630D01*
X165890025Y-106212934D01*
X165937894Y-106162039D01*
X166000626Y-106145000D01*
X166225307Y-106145000D01*
X166225323Y-106144999D01*
X166284851Y-106138598D01*
X166284858Y-106138596D01*
X166419565Y-106088354D01*
X166419572Y-106088350D01*
X166534666Y-106002190D01*
X166534669Y-106002187D01*
X166620829Y-105887093D01*
X166620833Y-105887086D01*
X166671075Y-105752379D01*
X166671077Y-105752372D01*
X166677478Y-105692844D01*
X166677479Y-105692827D01*
X166677479Y-104395000D01*
X164677479Y-104395000D01*
X164677479Y-105692844D01*
X164683880Y-105752372D01*
X164683882Y-105752379D01*
X164734124Y-105887086D01*
X164734128Y-105887093D01*
X164820288Y-106002187D01*
X164825867Y-106007766D01*
X164859352Y-106069089D01*
X164854368Y-106138781D01*
X164812496Y-106194714D01*
X164804160Y-106200440D01*
X164772736Y-106220185D01*
X164645184Y-106347737D01*
X164549211Y-106500476D01*
X164489631Y-106670745D01*
X164489630Y-106670750D01*
X164469435Y-106849996D01*
X164469435Y-106850003D01*
X164489630Y-107029249D01*
X164489631Y-107029254D01*
X164549211Y-107199523D01*
X164645184Y-107352262D01*
X164667741Y-107374819D01*
X164701226Y-107436142D01*
X164696242Y-107505834D01*
X164667741Y-107550181D01*
X164545184Y-107672737D01*
X164449211Y-107825476D01*
X164389631Y-107995745D01*
X164389630Y-107995750D01*
X164369435Y-108174996D01*
X164369435Y-108175003D01*
X158308876Y-108175003D01*
X158449522Y-108125789D01*
X158602262Y-108029816D01*
X158729816Y-107902262D01*
X158825789Y-107749522D01*
X158885368Y-107579255D01*
X158888201Y-107554116D01*
X158894761Y-107495885D01*
X158896418Y-107481181D01*
X158923484Y-107416767D01*
X158981078Y-107377212D01*
X159050915Y-107375073D01*
X159051409Y-107375203D01*
X159145817Y-107400500D01*
X159145820Y-107400500D01*
X159284181Y-107400500D01*
X159284183Y-107400500D01*
X159417836Y-107364688D01*
X159537665Y-107295505D01*
X159541381Y-107291788D01*
X159602699Y-107258303D01*
X159672390Y-107263284D01*
X159728326Y-107305152D01*
X159743624Y-107332014D01*
X159758811Y-107368677D01*
X159758814Y-107368684D01*
X159868248Y-107532462D01*
X159868251Y-107532466D01*
X160007533Y-107671748D01*
X160007537Y-107671751D01*
X160171315Y-107781185D01*
X160171328Y-107781192D01*
X160353308Y-107856569D01*
X160395000Y-107864862D01*
X160395000Y-107061988D01*
X160404940Y-107079205D01*
X160460795Y-107135060D01*
X160529204Y-107174556D01*
X160605504Y-107195000D01*
X160684496Y-107195000D01*
X160760796Y-107174556D01*
X160829205Y-107135060D01*
X160885060Y-107079205D01*
X160895000Y-107061988D01*
X160895000Y-107864862D01*
X160936690Y-107856569D01*
X160936692Y-107856569D01*
X161118671Y-107781192D01*
X161118684Y-107781185D01*
X161282462Y-107671751D01*
X161282466Y-107671748D01*
X161421748Y-107532466D01*
X161421751Y-107532462D01*
X161531185Y-107368684D01*
X161531192Y-107368671D01*
X161606569Y-107186693D01*
X161606572Y-107186681D01*
X161644999Y-106993495D01*
X161645000Y-106993492D01*
X161645000Y-106595000D01*
X160945000Y-106595000D01*
X160945000Y-106095000D01*
X161645000Y-106095000D01*
X161645000Y-105696508D01*
X161644999Y-105696504D01*
X161606572Y-105503318D01*
X161606569Y-105503306D01*
X161531192Y-105321328D01*
X161531185Y-105321315D01*
X161421751Y-105157537D01*
X161421748Y-105157533D01*
X161282466Y-105018251D01*
X161282462Y-105018248D01*
X161118684Y-104908814D01*
X161118671Y-104908807D01*
X160936691Y-104833429D01*
X160936683Y-104833427D01*
X160895000Y-104825135D01*
X160895000Y-105628011D01*
X160885060Y-105610795D01*
X160829205Y-105554940D01*
X160760796Y-105515444D01*
X160684496Y-105495000D01*
X160605504Y-105495000D01*
X160529204Y-105515444D01*
X160460795Y-105554940D01*
X160404940Y-105610795D01*
X160395000Y-105628011D01*
X160395000Y-104825136D01*
X160394999Y-104825135D01*
X160353316Y-104833427D01*
X160353308Y-104833429D01*
X160296952Y-104856773D01*
X160227483Y-104864242D01*
X160165004Y-104832966D01*
X160129352Y-104772877D01*
X160125500Y-104742212D01*
X160125500Y-104305067D01*
X160144507Y-104239094D01*
X160200788Y-104149524D01*
X160260368Y-103979254D01*
X160260369Y-103979249D01*
X160280565Y-103800003D01*
X160280565Y-103799996D01*
X160260369Y-103620750D01*
X160260368Y-103620745D01*
X160200788Y-103450476D01*
X160104815Y-103297737D01*
X159977262Y-103170184D01*
X159824523Y-103074211D01*
X159654254Y-103014631D01*
X159654249Y-103014630D01*
X159475004Y-102994435D01*
X159474996Y-102994435D01*
X159295750Y-103014630D01*
X159295745Y-103014631D01*
X159125476Y-103074211D01*
X158972737Y-103170184D01*
X158845184Y-103297737D01*
X158749211Y-103450476D01*
X158689631Y-103620745D01*
X158689630Y-103620750D01*
X158669435Y-103799996D01*
X158669435Y-103800003D01*
X158689630Y-103979249D01*
X158689631Y-103979254D01*
X158749211Y-104149524D01*
X158805493Y-104239094D01*
X158824500Y-104305067D01*
X158824500Y-104704192D01*
X158804815Y-104771231D01*
X158788181Y-104791873D01*
X157594722Y-105985331D01*
X157594718Y-105985336D01*
X157566756Y-106027187D01*
X157555232Y-106044435D01*
X157542595Y-106063348D01*
X157523535Y-106091872D01*
X157523533Y-106091875D01*
X157474499Y-106210255D01*
X157474497Y-106210261D01*
X157449500Y-106335928D01*
X157449500Y-106894931D01*
X157430494Y-106960903D01*
X157374211Y-107050477D01*
X157374209Y-107050481D01*
X157314633Y-107220737D01*
X157314630Y-107220750D01*
X157294435Y-107399996D01*
X157294435Y-107400003D01*
X153506038Y-107400003D01*
X153637836Y-107364688D01*
X153757665Y-107295505D01*
X153855505Y-107197665D01*
X153924688Y-107077836D01*
X153960500Y-106944183D01*
X153960500Y-106805817D01*
X153924688Y-106672164D01*
X153868867Y-106575478D01*
X153855507Y-106552338D01*
X153855503Y-106552333D01*
X153757666Y-106454496D01*
X153757661Y-106454492D01*
X153637838Y-106385313D01*
X153637837Y-106385312D01*
X153637836Y-106385312D01*
X153504183Y-106349500D01*
X153365817Y-106349500D01*
X153232164Y-106385312D01*
X153232161Y-106385313D01*
X153112338Y-106454492D01*
X153112333Y-106454496D01*
X153008748Y-106558082D01*
X153006370Y-106555704D01*
X152962509Y-106587706D01*
X152920607Y-106595000D01*
X152305000Y-106595000D01*
X152305000Y-106095000D01*
X153005000Y-106095000D01*
X153005000Y-105696508D01*
X153004999Y-105696504D01*
X152966572Y-105503318D01*
X152966569Y-105503306D01*
X152891192Y-105321328D01*
X152891185Y-105321315D01*
X152781751Y-105157537D01*
X152781748Y-105157533D01*
X152642466Y-105018251D01*
X152642462Y-105018248D01*
X152478684Y-104908814D01*
X152478671Y-104908807D01*
X152296691Y-104833429D01*
X152296683Y-104833427D01*
X152255000Y-104825135D01*
X152255000Y-105628011D01*
X152245060Y-105610795D01*
X152189205Y-105554940D01*
X152120796Y-105515444D01*
X152044496Y-105495000D01*
X151965504Y-105495000D01*
X151889204Y-105515444D01*
X151820795Y-105554940D01*
X151764940Y-105610795D01*
X151755000Y-105628011D01*
X151755000Y-104825136D01*
X151754999Y-104825135D01*
X151713316Y-104833427D01*
X151713308Y-104833429D01*
X151531328Y-104908807D01*
X151531315Y-104908814D01*
X151367537Y-105018248D01*
X151367533Y-105018251D01*
X151228251Y-105157533D01*
X151228248Y-105157537D01*
X151118814Y-105321315D01*
X151118807Y-105321328D01*
X151043430Y-105503306D01*
X151043427Y-105503318D01*
X151005000Y-105696504D01*
X151005000Y-106095000D01*
X151705000Y-106095000D01*
X151705000Y-106595000D01*
X151005000Y-106595000D01*
X151005000Y-106993495D01*
X131662979Y-106993495D01*
X131662979Y-104420000D01*
X138727479Y-104420000D01*
X138727479Y-105717844D01*
X138733880Y-105777372D01*
X138733882Y-105777379D01*
X138784124Y-105912086D01*
X138784128Y-105912093D01*
X138870288Y-106027187D01*
X138870291Y-106027190D01*
X138985385Y-106113350D01*
X138985392Y-106113354D01*
X139120099Y-106163596D01*
X139120106Y-106163598D01*
X139179634Y-106169999D01*
X139179651Y-106170000D01*
X139477479Y-106170000D01*
X139477479Y-104420000D01*
X139977479Y-104420000D01*
X139977479Y-106170000D01*
X140275307Y-106170000D01*
X140275323Y-106169999D01*
X140334851Y-106163598D01*
X140334858Y-106163596D01*
X140469565Y-106113354D01*
X140469572Y-106113350D01*
X140584666Y-106027190D01*
X140584669Y-106027187D01*
X140670829Y-105912093D01*
X140670833Y-105912086D01*
X140721075Y-105777379D01*
X140721077Y-105777372D01*
X140727478Y-105717844D01*
X140727479Y-105717827D01*
X140727479Y-104420000D01*
X141267478Y-104420000D01*
X141267478Y-105717844D01*
X141273879Y-105777372D01*
X141273881Y-105777379D01*
X141324123Y-105912086D01*
X141324127Y-105912093D01*
X141410287Y-106027187D01*
X141410290Y-106027190D01*
X141525384Y-106113350D01*
X141525391Y-106113354D01*
X141660098Y-106163596D01*
X141660105Y-106163598D01*
X141719633Y-106169999D01*
X141719650Y-106170000D01*
X142017478Y-106170000D01*
X142017478Y-104420000D01*
X142517478Y-104420000D01*
X142517478Y-106170000D01*
X142815306Y-106170000D01*
X142815322Y-106169999D01*
X142874850Y-106163598D01*
X142874857Y-106163596D01*
X143009564Y-106113354D01*
X143009571Y-106113350D01*
X143124665Y-106027190D01*
X143124668Y-106027187D01*
X143210828Y-105912093D01*
X143210832Y-105912086D01*
X143261074Y-105777379D01*
X143261076Y-105777372D01*
X143267477Y-105717844D01*
X143267478Y-105717827D01*
X143267478Y-104420000D01*
X143807480Y-104420000D01*
X143807480Y-105717844D01*
X143813881Y-105777372D01*
X143813883Y-105777379D01*
X143864125Y-105912086D01*
X143864129Y-105912093D01*
X143950289Y-106027187D01*
X143950292Y-106027190D01*
X144065386Y-106113350D01*
X144065393Y-106113354D01*
X144200100Y-106163596D01*
X144200107Y-106163598D01*
X144259635Y-106169999D01*
X144259652Y-106170000D01*
X144557480Y-106170000D01*
X144557480Y-104420000D01*
X145057480Y-104420000D01*
X145057480Y-106170000D01*
X145355308Y-106170000D01*
X145355324Y-106169999D01*
X145414852Y-106163598D01*
X145414859Y-106163596D01*
X145549566Y-106113354D01*
X145549573Y-106113350D01*
X145664667Y-106027190D01*
X145664670Y-106027187D01*
X145750830Y-105912093D01*
X145750834Y-105912086D01*
X145801076Y-105777379D01*
X145801078Y-105777372D01*
X145807479Y-105717844D01*
X145807480Y-105717827D01*
X145807480Y-104420000D01*
X146347479Y-104420000D01*
X146347479Y-105717844D01*
X146353880Y-105777372D01*
X146353882Y-105777379D01*
X146404124Y-105912086D01*
X146404128Y-105912093D01*
X146490288Y-106027187D01*
X146490291Y-106027190D01*
X146605385Y-106113350D01*
X146605392Y-106113354D01*
X146740099Y-106163596D01*
X146740106Y-106163598D01*
X146799634Y-106169999D01*
X146799651Y-106170000D01*
X147097479Y-106170000D01*
X147097479Y-104420000D01*
X147597479Y-104420000D01*
X147597479Y-106170000D01*
X147895307Y-106170000D01*
X147895323Y-106169999D01*
X147954851Y-106163598D01*
X147954858Y-106163596D01*
X148089565Y-106113354D01*
X148089572Y-106113350D01*
X148204666Y-106027190D01*
X148204669Y-106027187D01*
X148290829Y-105912093D01*
X148290833Y-105912086D01*
X148341075Y-105777379D01*
X148341077Y-105777372D01*
X148347478Y-105717844D01*
X148347479Y-105717827D01*
X148347479Y-104420000D01*
X147597479Y-104420000D01*
X147097479Y-104420000D01*
X146347479Y-104420000D01*
X145807480Y-104420000D01*
X145057480Y-104420000D01*
X144557480Y-104420000D01*
X143807480Y-104420000D01*
X143267478Y-104420000D01*
X142517478Y-104420000D01*
X142017478Y-104420000D01*
X141267478Y-104420000D01*
X140727479Y-104420000D01*
X139977479Y-104420000D01*
X139477479Y-104420000D01*
X138727479Y-104420000D01*
X131662979Y-104420000D01*
X131662979Y-103920000D01*
X138727479Y-103920000D01*
X139477479Y-103920000D01*
X139477479Y-102170000D01*
X139977479Y-102170000D01*
X139977479Y-103920000D01*
X140727479Y-103920000D01*
X141267478Y-103920000D01*
X142017478Y-103920000D01*
X142017478Y-102170000D01*
X142517478Y-102170000D01*
X142517478Y-103920000D01*
X143267478Y-103920000D01*
X143807480Y-103920000D01*
X144557480Y-103920000D01*
X144557480Y-102170000D01*
X145057480Y-102170000D01*
X145057480Y-103920000D01*
X145807480Y-103920000D01*
X146347479Y-103920000D01*
X147097479Y-103920000D01*
X147097479Y-102170000D01*
X146799634Y-102170000D01*
X146740106Y-102176401D01*
X146740099Y-102176403D01*
X146605392Y-102226645D01*
X146605385Y-102226649D01*
X146490291Y-102312809D01*
X146490288Y-102312812D01*
X146404128Y-102427906D01*
X146404124Y-102427913D01*
X146353882Y-102562620D01*
X146353880Y-102562627D01*
X146347479Y-102622155D01*
X146347479Y-103920000D01*
X145807480Y-103920000D01*
X145807480Y-102622172D01*
X145807479Y-102622155D01*
X145801078Y-102562627D01*
X145801076Y-102562620D01*
X145750834Y-102427913D01*
X145750830Y-102427906D01*
X145664670Y-102312812D01*
X145664667Y-102312809D01*
X145549573Y-102226649D01*
X145549566Y-102226645D01*
X145414859Y-102176403D01*
X145414852Y-102176401D01*
X145355324Y-102170000D01*
X145057480Y-102170000D01*
X144557480Y-102170000D01*
X144259635Y-102170000D01*
X144200107Y-102176401D01*
X144200100Y-102176403D01*
X144065393Y-102226645D01*
X144065386Y-102226649D01*
X143950292Y-102312809D01*
X143950289Y-102312812D01*
X143864129Y-102427906D01*
X143864125Y-102427913D01*
X143813883Y-102562620D01*
X143813881Y-102562627D01*
X143807480Y-102622155D01*
X143807480Y-103920000D01*
X143267478Y-103920000D01*
X143267478Y-102622172D01*
X143267477Y-102622155D01*
X143261076Y-102562627D01*
X143261074Y-102562620D01*
X143210832Y-102427913D01*
X143210828Y-102427906D01*
X143124668Y-102312812D01*
X143124665Y-102312809D01*
X143009571Y-102226649D01*
X143009564Y-102226645D01*
X142874857Y-102176403D01*
X142874850Y-102176401D01*
X142815322Y-102170000D01*
X142517478Y-102170000D01*
X142017478Y-102170000D01*
X141719633Y-102170000D01*
X141660105Y-102176401D01*
X141660098Y-102176403D01*
X141525391Y-102226645D01*
X141525384Y-102226649D01*
X141410290Y-102312809D01*
X141410287Y-102312812D01*
X141324127Y-102427906D01*
X141324123Y-102427913D01*
X141273881Y-102562620D01*
X141273879Y-102562627D01*
X141267478Y-102622155D01*
X141267478Y-103920000D01*
X140727479Y-103920000D01*
X140727479Y-102622172D01*
X140727478Y-102622155D01*
X140721077Y-102562627D01*
X140721075Y-102562620D01*
X140670833Y-102427913D01*
X140670829Y-102427906D01*
X140584669Y-102312812D01*
X140584666Y-102312809D01*
X140469572Y-102226649D01*
X140469565Y-102226645D01*
X140334858Y-102176403D01*
X140334851Y-102176401D01*
X140275323Y-102170000D01*
X139977479Y-102170000D01*
X139477479Y-102170000D01*
X139179634Y-102170000D01*
X139120106Y-102176401D01*
X139120099Y-102176403D01*
X138985392Y-102226645D01*
X138985385Y-102226649D01*
X138870291Y-102312809D01*
X138870288Y-102312812D01*
X138784128Y-102427906D01*
X138784124Y-102427913D01*
X138733882Y-102562620D01*
X138733880Y-102562627D01*
X138727479Y-102622155D01*
X138727479Y-103920000D01*
X131662979Y-103920000D01*
X131662979Y-103293708D01*
X131682664Y-103226669D01*
X131735468Y-103180914D01*
X131799581Y-103170350D01*
X131849991Y-103175500D01*
X134150008Y-103175499D01*
X134252797Y-103164999D01*
X134419334Y-103109814D01*
X134568656Y-103017712D01*
X134692712Y-102893656D01*
X134784814Y-102744334D01*
X134839999Y-102577797D01*
X134850500Y-102475009D01*
X134850499Y-101874992D01*
X134839999Y-101772203D01*
X134784814Y-101605666D01*
X134692712Y-101456344D01*
X134568656Y-101332288D01*
X134419334Y-101240186D01*
X134252797Y-101185001D01*
X134252795Y-101185000D01*
X134150010Y-101174500D01*
X131849998Y-101174500D01*
X131849978Y-101174502D01*
X131799579Y-101179650D01*
X131730887Y-101166880D01*
X131680003Y-101118998D01*
X131662979Y-101056292D01*
X131662979Y-100575001D01*
X134852704Y-100575001D01*
X134852899Y-100577486D01*
X134898718Y-100735198D01*
X134982314Y-100876552D01*
X134982321Y-100876561D01*
X135098438Y-100992678D01*
X135098447Y-100992685D01*
X135239803Y-101076282D01*
X135239806Y-101076283D01*
X135397504Y-101122099D01*
X135397510Y-101122100D01*
X135434350Y-101124999D01*
X135434366Y-101125000D01*
X135950000Y-101125000D01*
X135950000Y-100575000D01*
X136450000Y-100575000D01*
X136450000Y-101125000D01*
X136965634Y-101125000D01*
X136965649Y-101124999D01*
X137002489Y-101122100D01*
X137002495Y-101122099D01*
X137160193Y-101076283D01*
X137160196Y-101076282D01*
X137301552Y-100992685D01*
X137301561Y-100992678D01*
X137417678Y-100876561D01*
X137417685Y-100876552D01*
X137501281Y-100735198D01*
X137547100Y-100577486D01*
X137547295Y-100575001D01*
X137547295Y-100575000D01*
X136450000Y-100575000D01*
X135950000Y-100575000D01*
X134852705Y-100575000D01*
X134852704Y-100575001D01*
X131662979Y-100575001D01*
X131662979Y-95843708D01*
X131682664Y-95776669D01*
X131735468Y-95730914D01*
X131799581Y-95720350D01*
X131849991Y-95725500D01*
X133931442Y-95725499D01*
X133998481Y-95745184D01*
X134044236Y-95797987D01*
X134054180Y-95867146D01*
X134025155Y-95930702D01*
X133972397Y-95966540D01*
X133950480Y-95974208D01*
X133797737Y-96070184D01*
X133670184Y-96197737D01*
X133574211Y-96350476D01*
X133514631Y-96520745D01*
X133514630Y-96520750D01*
X133494435Y-96699996D01*
X133494435Y-96700003D01*
X133514630Y-96879249D01*
X133514631Y-96879254D01*
X133574211Y-97049523D01*
X133646609Y-97164743D01*
X133670184Y-97202262D01*
X133797738Y-97329816D01*
X133852630Y-97364307D01*
X133948426Y-97424500D01*
X133950478Y-97425789D01*
X134120745Y-97485368D01*
X134120750Y-97485369D01*
X134299996Y-97505565D01*
X134300000Y-97505565D01*
X134300004Y-97505565D01*
X134479249Y-97485369D01*
X134479252Y-97485368D01*
X134479255Y-97485368D01*
X134649522Y-97425789D01*
X134673840Y-97410508D01*
X134741076Y-97391507D01*
X134807911Y-97411873D01*
X134853127Y-97465140D01*
X134862366Y-97534396D01*
X134858891Y-97550094D01*
X134852402Y-97572429D01*
X134852401Y-97572432D01*
X134849500Y-97609298D01*
X134849500Y-98040701D01*
X134852401Y-98077567D01*
X134852402Y-98077573D01*
X134898254Y-98235393D01*
X134898255Y-98235396D01*
X134985890Y-98383580D01*
X134983919Y-98384745D01*
X135005232Y-98439058D01*
X134991540Y-98507573D01*
X134985864Y-98516404D01*
X134985890Y-98516420D01*
X134898255Y-98664603D01*
X134898254Y-98664606D01*
X134852402Y-98822426D01*
X134852401Y-98822432D01*
X134849500Y-98859298D01*
X134849500Y-99290701D01*
X134852401Y-99327567D01*
X134852402Y-99327573D01*
X134898254Y-99485393D01*
X134898255Y-99485396D01*
X134985890Y-99633580D01*
X134984045Y-99634670D01*
X135005551Y-99689463D01*
X134991862Y-99757979D01*
X134986252Y-99766707D01*
X134986288Y-99766729D01*
X134898718Y-99914801D01*
X134852899Y-100072513D01*
X134852704Y-100074998D01*
X134852705Y-100075000D01*
X137547295Y-100075000D01*
X137547295Y-100074998D01*
X137547100Y-100072513D01*
X137501281Y-99914801D01*
X137413712Y-99766729D01*
X137415715Y-99765544D01*
X137394448Y-99711359D01*
X137408136Y-99642843D01*
X137414323Y-99633219D01*
X137418081Y-99626865D01*
X137501744Y-99485398D01*
X137527183Y-99397837D01*
X137540855Y-99350780D01*
X137572248Y-99297696D01*
X138515300Y-98354644D01*
X138576621Y-98321161D01*
X138646313Y-98326145D01*
X138702246Y-98368017D01*
X138726663Y-98433481D01*
X138726979Y-98442327D01*
X138726979Y-100677870D01*
X138726980Y-100677876D01*
X138733387Y-100737483D01*
X138783681Y-100872328D01*
X138783685Y-100872335D01*
X138869931Y-100987544D01*
X138869934Y-100987547D01*
X138985143Y-101073793D01*
X138985150Y-101073797D01*
X139119996Y-101124091D01*
X139119995Y-101124091D01*
X139126923Y-101124835D01*
X139179606Y-101130500D01*
X140275351Y-101130499D01*
X140334962Y-101124091D01*
X140469810Y-101073796D01*
X140585025Y-100987546D01*
X140671275Y-100872331D01*
X140721570Y-100737483D01*
X140727979Y-100677873D01*
X140727978Y-98893327D01*
X140747663Y-98826289D01*
X140764292Y-98805652D01*
X141055299Y-98514645D01*
X141116620Y-98481162D01*
X141186312Y-98486146D01*
X141242245Y-98528018D01*
X141266662Y-98593482D01*
X141266978Y-98602328D01*
X141266978Y-100677870D01*
X141266979Y-100677876D01*
X141273386Y-100737483D01*
X141323680Y-100872328D01*
X141323684Y-100872335D01*
X141409930Y-100987544D01*
X141409933Y-100987547D01*
X141525142Y-101073793D01*
X141525149Y-101073797D01*
X141659995Y-101124091D01*
X141659994Y-101124091D01*
X141666922Y-101124835D01*
X141719605Y-101130500D01*
X142815350Y-101130499D01*
X142874961Y-101124091D01*
X143009809Y-101073796D01*
X143125024Y-100987546D01*
X143211274Y-100872331D01*
X143261569Y-100737483D01*
X143267978Y-100677873D01*
X143267977Y-98203328D01*
X143287662Y-98136290D01*
X143304291Y-98115653D01*
X143595301Y-97824643D01*
X143656622Y-97791160D01*
X143726314Y-97796144D01*
X143782247Y-97838016D01*
X143806664Y-97903480D01*
X143806980Y-97912326D01*
X143806980Y-100677870D01*
X143806981Y-100677876D01*
X143813388Y-100737483D01*
X143863682Y-100872328D01*
X143863686Y-100872335D01*
X143949932Y-100987544D01*
X143949935Y-100987547D01*
X144065144Y-101073793D01*
X144065151Y-101073797D01*
X144199997Y-101124091D01*
X144199996Y-101124091D01*
X144206924Y-101124835D01*
X144259607Y-101130500D01*
X145355352Y-101130499D01*
X145414963Y-101124091D01*
X145549811Y-101073796D01*
X145665026Y-100987546D01*
X145751276Y-100872331D01*
X145801571Y-100737483D01*
X145807980Y-100677873D01*
X145807979Y-97582128D01*
X145801571Y-97522517D01*
X145795810Y-97507072D01*
X145751277Y-97387671D01*
X145751273Y-97387664D01*
X145665027Y-97272455D01*
X145655178Y-97265082D01*
X145613308Y-97209148D01*
X145608324Y-97139456D01*
X145641807Y-97078137D01*
X146501419Y-96218525D01*
X146562740Y-96185042D01*
X146632432Y-96190026D01*
X146688365Y-96231898D01*
X146712782Y-96297362D01*
X146705040Y-96350178D01*
X146664861Y-96456122D01*
X146664859Y-96456130D01*
X146644355Y-96625000D01*
X146664859Y-96793869D01*
X146664860Y-96793874D01*
X146725182Y-96952931D01*
X146738236Y-96971842D01*
X146760119Y-97038196D01*
X146742654Y-97105848D01*
X146691386Y-97153318D01*
X146679520Y-97158463D01*
X146605154Y-97186200D01*
X146605143Y-97186206D01*
X146489934Y-97272452D01*
X146489931Y-97272455D01*
X146403685Y-97387664D01*
X146403681Y-97387671D01*
X146353387Y-97522517D01*
X146348021Y-97572431D01*
X146346980Y-97582123D01*
X146346979Y-97582135D01*
X146346979Y-100677870D01*
X146346980Y-100677876D01*
X146353387Y-100737483D01*
X146403681Y-100872328D01*
X146403685Y-100872335D01*
X146489931Y-100987544D01*
X146489934Y-100987547D01*
X146605143Y-101073793D01*
X146605150Y-101073797D01*
X146739995Y-101124091D01*
X146800242Y-101130569D01*
X146864792Y-101157307D01*
X146904640Y-101214700D01*
X146910205Y-101239973D01*
X146914630Y-101279249D01*
X146974210Y-101449521D01*
X147024654Y-101529802D01*
X147070184Y-101602262D01*
X147197738Y-101729816D01*
X147350478Y-101825789D01*
X147491109Y-101874998D01*
X147499726Y-101878013D01*
X147556502Y-101918735D01*
X147570161Y-101943750D01*
X147571193Y-101943254D01*
X147574212Y-101949524D01*
X147615656Y-102015482D01*
X147634656Y-102082719D01*
X147614288Y-102149554D01*
X147598344Y-102169134D01*
X147597479Y-102169999D01*
X147597479Y-103920000D01*
X148347479Y-103920000D01*
X148347479Y-102622172D01*
X148347478Y-102622155D01*
X148341077Y-102562627D01*
X148341076Y-102562623D01*
X148338693Y-102556233D01*
X148333709Y-102486542D01*
X148367193Y-102425218D01*
X148428516Y-102391733D01*
X148440975Y-102389680D01*
X148479255Y-102385368D01*
X148649522Y-102325789D01*
X148802262Y-102229816D01*
X148929816Y-102102262D01*
X149025789Y-101949522D01*
X149085368Y-101779255D01*
X149086163Y-101772200D01*
X149105565Y-101600003D01*
X149105565Y-101599996D01*
X149085369Y-101420750D01*
X149085368Y-101420745D01*
X149054416Y-101332289D01*
X149025789Y-101250478D01*
X149019321Y-101240185D01*
X148953097Y-101134790D01*
X148929816Y-101097738D01*
X148802262Y-100970184D01*
X148758883Y-100942927D01*
X148649523Y-100874211D01*
X148500274Y-100821987D01*
X148443498Y-100781265D01*
X148429846Y-100756262D01*
X148428815Y-100756760D01*
X148425791Y-100750483D01*
X148425790Y-100750482D01*
X148425789Y-100750478D01*
X148366983Y-100656891D01*
X148347978Y-100590920D01*
X148347978Y-97748329D01*
X148367663Y-97681290D01*
X148384292Y-97660652D01*
X148655277Y-97389669D01*
X148726465Y-97283127D01*
X148775501Y-97164744D01*
X148776436Y-97160044D01*
X148787217Y-97105848D01*
X148800500Y-97039071D01*
X148800500Y-95960929D01*
X148782948Y-95872695D01*
X148781393Y-95856915D01*
X148781345Y-95856921D01*
X148760369Y-95670750D01*
X148760368Y-95670745D01*
X148751600Y-95645687D01*
X148700789Y-95500478D01*
X148681188Y-95469284D01*
X148604815Y-95347737D01*
X148526851Y-95269773D01*
X148493366Y-95208450D01*
X148498350Y-95138758D01*
X148524916Y-95100056D01*
X148523209Y-95098544D01*
X148528181Y-95092931D01*
X148528181Y-95092930D01*
X148528183Y-95092929D01*
X148624818Y-94952930D01*
X148685140Y-94793872D01*
X148705645Y-94625000D01*
X148696095Y-94546351D01*
X148707555Y-94477430D01*
X148754459Y-94425643D01*
X148821914Y-94407436D01*
X148888505Y-94428588D01*
X148906872Y-94443725D01*
X149743754Y-95280607D01*
X149777239Y-95341930D01*
X149772255Y-95411622D01*
X149772017Y-95412255D01*
X149764860Y-95431127D01*
X149764859Y-95431130D01*
X149744355Y-95600000D01*
X149764859Y-95768869D01*
X149764860Y-95768874D01*
X149825182Y-95927931D01*
X149859948Y-95978297D01*
X149921817Y-96067929D01*
X150007814Y-96144115D01*
X150049150Y-96180736D01*
X150175539Y-96247070D01*
X150199775Y-96259790D01*
X150364944Y-96300500D01*
X150535056Y-96300500D01*
X150700225Y-96259790D01*
X150779692Y-96218081D01*
X150850849Y-96180736D01*
X150850850Y-96180734D01*
X150850852Y-96180734D01*
X150978183Y-96067929D01*
X151051256Y-95962065D01*
X151105538Y-95918076D01*
X151174987Y-95910416D01*
X151217229Y-95927777D01*
X151217507Y-95927249D01*
X151223151Y-95930211D01*
X151223744Y-95930455D01*
X151224151Y-95930736D01*
X151339138Y-95991086D01*
X151374775Y-96009790D01*
X151539944Y-96050500D01*
X151710056Y-96050500D01*
X151875225Y-96009790D01*
X151997926Y-95945391D01*
X152025849Y-95930736D01*
X152025850Y-95930734D01*
X152025852Y-95930734D01*
X152153183Y-95817929D01*
X152249818Y-95677930D01*
X152310140Y-95518872D01*
X152330645Y-95350000D01*
X152310140Y-95181128D01*
X152309281Y-95178864D01*
X152250935Y-95025016D01*
X152249818Y-95022070D01*
X152225700Y-94987129D01*
X152203817Y-94920775D01*
X152203750Y-94916689D01*
X152203750Y-90450003D01*
X155269435Y-90450003D01*
X155289630Y-90629249D01*
X155289631Y-90629254D01*
X155349211Y-90799523D01*
X155398199Y-90877486D01*
X155445184Y-90952262D01*
X155572738Y-91079816D01*
X155604861Y-91100000D01*
X155696342Y-91157482D01*
X155725478Y-91175789D01*
X155835762Y-91214379D01*
X155895745Y-91235368D01*
X155895750Y-91235369D01*
X156074996Y-91255565D01*
X156075000Y-91255565D01*
X156075004Y-91255565D01*
X156254249Y-91235369D01*
X156254252Y-91235368D01*
X156254255Y-91235368D01*
X156424522Y-91175789D01*
X156577262Y-91079816D01*
X156704816Y-90952262D01*
X156800789Y-90799522D01*
X156860368Y-90629255D01*
X156860369Y-90629249D01*
X156880565Y-90450003D01*
X156880565Y-90449996D01*
X156860369Y-90270750D01*
X156860366Y-90270739D01*
X156858815Y-90266305D01*
X156855251Y-90196526D01*
X156889978Y-90135898D01*
X156951971Y-90103669D01*
X157021546Y-90110072D01*
X157041829Y-90120354D01*
X157050478Y-90125789D01*
X157191944Y-90175290D01*
X157220745Y-90185368D01*
X157220750Y-90185369D01*
X157399996Y-90205565D01*
X157400000Y-90205565D01*
X157400004Y-90205565D01*
X157579249Y-90185369D01*
X157579252Y-90185368D01*
X157579255Y-90185368D01*
X157749522Y-90125789D01*
X157902262Y-90029816D01*
X158029816Y-89902262D01*
X158125789Y-89749522D01*
X158185368Y-89579255D01*
X158185375Y-89579198D01*
X158199067Y-89457667D01*
X158226133Y-89393253D01*
X158234596Y-89383878D01*
X159388116Y-88230361D01*
X159464309Y-88098389D01*
X159480789Y-88036885D01*
X159503750Y-87951194D01*
X159503750Y-74775003D01*
X159794435Y-74775003D01*
X159814630Y-74954249D01*
X159814631Y-74954254D01*
X159874211Y-75124523D01*
X159948982Y-75243519D01*
X159970184Y-75277262D01*
X160097738Y-75404816D01*
X160170407Y-75450477D01*
X160249979Y-75500476D01*
X160250478Y-75500789D01*
X160392475Y-75550476D01*
X160420745Y-75560368D01*
X160420750Y-75560369D01*
X160599996Y-75580565D01*
X160600000Y-75580565D01*
X160600004Y-75580565D01*
X160779249Y-75560369D01*
X160779252Y-75560368D01*
X160779255Y-75560368D01*
X160949522Y-75500789D01*
X161102262Y-75404816D01*
X161229816Y-75277262D01*
X161325789Y-75124522D01*
X161385368Y-74954255D01*
X161394350Y-74874538D01*
X161405565Y-74775003D01*
X161405565Y-74774996D01*
X161385369Y-74595750D01*
X161385368Y-74595745D01*
X161325788Y-74425476D01*
X161262955Y-74325478D01*
X161229816Y-74272738D01*
X161102262Y-74145184D01*
X160949523Y-74049211D01*
X160779254Y-73989631D01*
X160779249Y-73989630D01*
X160600004Y-73969435D01*
X160599996Y-73969435D01*
X160420750Y-73989630D01*
X160420745Y-73989631D01*
X160250476Y-74049211D01*
X160097737Y-74145184D01*
X159970184Y-74272737D01*
X159874211Y-74425476D01*
X159814631Y-74595745D01*
X159814630Y-74595750D01*
X159794435Y-74774996D01*
X159794435Y-74775003D01*
X159503750Y-74775003D01*
X159503750Y-72919999D01*
X164702479Y-72919999D01*
X165452479Y-72919999D01*
X165452479Y-71169999D01*
X165952479Y-71169999D01*
X165952479Y-72919999D01*
X166702479Y-72919999D01*
X167242478Y-72919999D01*
X167992478Y-72919999D01*
X167992478Y-71169999D01*
X168492478Y-71169999D01*
X168492478Y-72919999D01*
X169242478Y-72919999D01*
X169782480Y-72919999D01*
X170532480Y-72919999D01*
X170532480Y-71169999D01*
X171032480Y-71169999D01*
X171032480Y-72919999D01*
X171782480Y-72919999D01*
X172322479Y-72919999D01*
X173072479Y-72919999D01*
X173072479Y-71169999D01*
X173572479Y-71169999D01*
X173572479Y-72919999D01*
X174322479Y-72919999D01*
X174322479Y-71622171D01*
X174322478Y-71622154D01*
X174316077Y-71562626D01*
X174316075Y-71562619D01*
X174265833Y-71427912D01*
X174265829Y-71427905D01*
X174179669Y-71312811D01*
X174179666Y-71312808D01*
X174064572Y-71226648D01*
X174064565Y-71226644D01*
X173929858Y-71176402D01*
X173929851Y-71176400D01*
X173870323Y-71169999D01*
X173572479Y-71169999D01*
X173072479Y-71169999D01*
X172774634Y-71169999D01*
X172715106Y-71176400D01*
X172715099Y-71176402D01*
X172580392Y-71226644D01*
X172580385Y-71226648D01*
X172465291Y-71312808D01*
X172465288Y-71312811D01*
X172379128Y-71427905D01*
X172379124Y-71427912D01*
X172328882Y-71562619D01*
X172328880Y-71562626D01*
X172322479Y-71622154D01*
X172322479Y-72919999D01*
X171782480Y-72919999D01*
X171782480Y-71622171D01*
X171782479Y-71622154D01*
X171776078Y-71562626D01*
X171776076Y-71562619D01*
X171725834Y-71427912D01*
X171725830Y-71427905D01*
X171639670Y-71312811D01*
X171639667Y-71312808D01*
X171524573Y-71226648D01*
X171524566Y-71226644D01*
X171389859Y-71176402D01*
X171389852Y-71176400D01*
X171330324Y-71169999D01*
X171032480Y-71169999D01*
X170532480Y-71169999D01*
X170234635Y-71169999D01*
X170175107Y-71176400D01*
X170175100Y-71176402D01*
X170040393Y-71226644D01*
X170040386Y-71226648D01*
X169925292Y-71312808D01*
X169925289Y-71312811D01*
X169839129Y-71427905D01*
X169839125Y-71427912D01*
X169788883Y-71562619D01*
X169788881Y-71562626D01*
X169782480Y-71622154D01*
X169782480Y-72919999D01*
X169242478Y-72919999D01*
X169242478Y-71622171D01*
X169242477Y-71622154D01*
X169236076Y-71562626D01*
X169236074Y-71562619D01*
X169185832Y-71427912D01*
X169185828Y-71427905D01*
X169099668Y-71312811D01*
X169099665Y-71312808D01*
X168984571Y-71226648D01*
X168984564Y-71226644D01*
X168849857Y-71176402D01*
X168849850Y-71176400D01*
X168790322Y-71169999D01*
X168492478Y-71169999D01*
X167992478Y-71169999D01*
X167694633Y-71169999D01*
X167635105Y-71176400D01*
X167635098Y-71176402D01*
X167500391Y-71226644D01*
X167500384Y-71226648D01*
X167385290Y-71312808D01*
X167385287Y-71312811D01*
X167299127Y-71427905D01*
X167299123Y-71427912D01*
X167248881Y-71562619D01*
X167248879Y-71562626D01*
X167242478Y-71622154D01*
X167242478Y-72919999D01*
X166702479Y-72919999D01*
X166702479Y-71622171D01*
X166702478Y-71622154D01*
X166696077Y-71562626D01*
X166696075Y-71562619D01*
X166645833Y-71427912D01*
X166645829Y-71427905D01*
X166559669Y-71312811D01*
X166559666Y-71312808D01*
X166444572Y-71226648D01*
X166444565Y-71226644D01*
X166309858Y-71176402D01*
X166309851Y-71176400D01*
X166250323Y-71169999D01*
X165952479Y-71169999D01*
X165452479Y-71169999D01*
X165154634Y-71169999D01*
X165095106Y-71176400D01*
X165095099Y-71176402D01*
X164960392Y-71226644D01*
X164960385Y-71226648D01*
X164845291Y-71312808D01*
X164845288Y-71312811D01*
X164759128Y-71427905D01*
X164759124Y-71427912D01*
X164708882Y-71562619D01*
X164708880Y-71562626D01*
X164702479Y-71622154D01*
X164702479Y-72919999D01*
X159503750Y-72919999D01*
X159503750Y-72479690D01*
X159523435Y-72412651D01*
X159540069Y-72392009D01*
X159554816Y-72377262D01*
X159650789Y-72224522D01*
X159710368Y-72054255D01*
X159730565Y-71875000D01*
X159725410Y-71829249D01*
X159710369Y-71695750D01*
X159710368Y-71695745D01*
X159681281Y-71612619D01*
X159650789Y-71525478D01*
X159554816Y-71372738D01*
X159427262Y-71245184D01*
X159397371Y-71226402D01*
X159274523Y-71149211D01*
X159104254Y-71089631D01*
X159104249Y-71089630D01*
X158925004Y-71069435D01*
X158924996Y-71069435D01*
X158745750Y-71089630D01*
X158745737Y-71089633D01*
X158575478Y-71149210D01*
X158575476Y-71149211D01*
X158539738Y-71171666D01*
X158472501Y-71190665D01*
X158405667Y-71170296D01*
X158385500Y-71151901D01*
X158384740Y-71152662D01*
X158252262Y-71020184D01*
X158099523Y-70924211D01*
X157929254Y-70864631D01*
X157929249Y-70864630D01*
X157750004Y-70844435D01*
X157749996Y-70844435D01*
X157570750Y-70864630D01*
X157570745Y-70864631D01*
X157400476Y-70924211D01*
X157247737Y-71020184D01*
X157120184Y-71147737D01*
X157024211Y-71300476D01*
X156964631Y-71470745D01*
X156964630Y-71470750D01*
X156944435Y-71649996D01*
X156944435Y-71650003D01*
X156964630Y-71829249D01*
X156964631Y-71829254D01*
X157024212Y-71999525D01*
X157033992Y-72015089D01*
X157053000Y-72081063D01*
X157053000Y-75105466D01*
X157033315Y-75172505D01*
X156980511Y-75218260D01*
X156942884Y-75228686D01*
X156845749Y-75239630D01*
X156845745Y-75239631D01*
X156675476Y-75299211D01*
X156522737Y-75395184D01*
X156395184Y-75522737D01*
X156299211Y-75675476D01*
X156239631Y-75845745D01*
X156239630Y-75845750D01*
X156219435Y-76024996D01*
X156219435Y-76025003D01*
X156239630Y-76204249D01*
X156239631Y-76204254D01*
X156299211Y-76374523D01*
X156347950Y-76452090D01*
X156395184Y-76527262D01*
X156522738Y-76654816D01*
X156613080Y-76711582D01*
X156674979Y-76750476D01*
X156675478Y-76750789D01*
X156845745Y-76810368D01*
X156845750Y-76810369D01*
X156942883Y-76821313D01*
X157007297Y-76848379D01*
X157046852Y-76905974D01*
X157053000Y-76944533D01*
X157053000Y-87002161D01*
X157033315Y-87069200D01*
X157016681Y-87089842D01*
X155669639Y-88436885D01*
X155561886Y-88544637D01*
X155485692Y-88676608D01*
X155485691Y-88676609D01*
X155475825Y-88713431D01*
X155446250Y-88823806D01*
X155446250Y-88823808D01*
X155446250Y-89910317D01*
X155427244Y-89976289D01*
X155349211Y-90100476D01*
X155289631Y-90270745D01*
X155289630Y-90270750D01*
X155269435Y-90449996D01*
X155269435Y-90450003D01*
X152203750Y-90450003D01*
X152203750Y-89899192D01*
X152223435Y-89832153D01*
X152247220Y-89804900D01*
X152265149Y-89789586D01*
X152309779Y-89744956D01*
X152232778Y-89667955D01*
X152200685Y-89612368D01*
X152164309Y-89476611D01*
X152088115Y-89344639D01*
X151980361Y-89236885D01*
X151781326Y-89037850D01*
X152309780Y-89037850D01*
X152663332Y-89391403D01*
X152663333Y-89391403D01*
X152707971Y-89346765D01*
X152731041Y-89319753D01*
X152731047Y-89319744D01*
X152807118Y-89181371D01*
X152807121Y-89181363D01*
X152846391Y-89028420D01*
X152846392Y-89028415D01*
X152846392Y-88870508D01*
X152846391Y-88870502D01*
X152807120Y-88717556D01*
X152744314Y-88603313D01*
X152309780Y-89037849D01*
X152309780Y-89037850D01*
X151781326Y-89037850D01*
X151779681Y-89036205D01*
X151746196Y-88974882D01*
X151751180Y-88905190D01*
X151779681Y-88860843D01*
X151956227Y-88684297D01*
X152390762Y-88249761D01*
X152390761Y-88249760D01*
X152276525Y-88186958D01*
X152276518Y-88186956D01*
X152131426Y-88149701D01*
X152071389Y-88113962D01*
X152040204Y-88051438D01*
X152047772Y-87981979D01*
X152074579Y-87941921D01*
X152188115Y-87828386D01*
X152264309Y-87696414D01*
X152303750Y-87549219D01*
X152303750Y-87396832D01*
X152303750Y-85573806D01*
X152303750Y-84448806D01*
X152264309Y-84301611D01*
X152188115Y-84169639D01*
X152080361Y-84061885D01*
X149795308Y-81776832D01*
X149761823Y-81715509D01*
X149760450Y-81707387D01*
X149760139Y-81706125D01*
X149699817Y-81547068D01*
X149631321Y-81447836D01*
X149603183Y-81407071D01*
X149482328Y-81300003D01*
X149475849Y-81294263D01*
X149325226Y-81215210D01*
X149160056Y-81174500D01*
X148989944Y-81174500D01*
X148824773Y-81215210D01*
X148674150Y-81294263D01*
X148546816Y-81407072D01*
X148450182Y-81547068D01*
X148389860Y-81706125D01*
X148389859Y-81706130D01*
X148369355Y-81875000D01*
X148389859Y-82043869D01*
X148389860Y-82043874D01*
X148450182Y-82202931D01*
X148511976Y-82292454D01*
X148546817Y-82342929D01*
X148647455Y-82432086D01*
X148674150Y-82455736D01*
X148824774Y-82534790D01*
X148856125Y-82542517D01*
X148912693Y-82556459D01*
X148970699Y-82589175D01*
X151109931Y-84728407D01*
X151143416Y-84789730D01*
X151146250Y-84816088D01*
X151146250Y-86693582D01*
X151126565Y-86760621D01*
X151073761Y-86806376D01*
X151004603Y-86816320D01*
X150941047Y-86787295D01*
X150927959Y-86774113D01*
X150912302Y-86755781D01*
X150912291Y-86755769D01*
X150646214Y-86489693D01*
X150646190Y-86489671D01*
X150619151Y-86466575D01*
X150619146Y-86466572D01*
X150480657Y-86390437D01*
X150480654Y-86390436D01*
X150480652Y-86390435D01*
X150327586Y-86351134D01*
X150327584Y-86351134D01*
X150276815Y-86351134D01*
X150209776Y-86331449D01*
X150164021Y-86278645D01*
X150152815Y-86227134D01*
X150152815Y-86176368D01*
X150152814Y-86176362D01*
X150145741Y-86148816D01*
X150113512Y-86023292D01*
X150100445Y-85999523D01*
X150037379Y-85884805D01*
X150014276Y-85857754D01*
X150014265Y-85857743D01*
X149748188Y-85591667D01*
X149748164Y-85591645D01*
X149721125Y-85568549D01*
X149721120Y-85568546D01*
X149582631Y-85492411D01*
X149582628Y-85492410D01*
X149582626Y-85492409D01*
X149429560Y-85453108D01*
X149429558Y-85453108D01*
X149271519Y-85453108D01*
X149263775Y-85454086D01*
X149263484Y-85451783D01*
X149205288Y-85449782D01*
X149156610Y-85419757D01*
X148938905Y-85202052D01*
X148905420Y-85140729D01*
X148906190Y-85084694D01*
X148911612Y-85062697D01*
X148919739Y-85029726D01*
X148919739Y-84859614D01*
X148879029Y-84694445D01*
X148799973Y-84543818D01*
X148754601Y-84489375D01*
X148285625Y-84020399D01*
X148231182Y-83975027D01*
X148155868Y-83935499D01*
X148080554Y-83895970D01*
X147915386Y-83855261D01*
X147745274Y-83855261D01*
X147580105Y-83895970D01*
X147429476Y-83975028D01*
X147375039Y-84020395D01*
X147375024Y-84020409D01*
X147012135Y-84383298D01*
X147012121Y-84383313D01*
X146966754Y-84437750D01*
X146887696Y-84588379D01*
X146846987Y-84753548D01*
X146846987Y-84897987D01*
X146827302Y-84965026D01*
X146774498Y-85010781D01*
X146722987Y-85021987D01*
X146578548Y-85021987D01*
X146413379Y-85062696D01*
X146262750Y-85141754D01*
X146208313Y-85187121D01*
X146085662Y-85309772D01*
X146024339Y-85343256D01*
X145954647Y-85338272D01*
X145898714Y-85296400D01*
X145892992Y-85288070D01*
X145804816Y-85147738D01*
X145677262Y-85020184D01*
X145566361Y-84950500D01*
X145524523Y-84924211D01*
X145354254Y-84864631D01*
X145354249Y-84864630D01*
X145175004Y-84844435D01*
X145174996Y-84844435D01*
X144995750Y-84864630D01*
X144995745Y-84864631D01*
X144825476Y-84924211D01*
X144672737Y-85020184D01*
X144637681Y-85055241D01*
X144576358Y-85088726D01*
X144506666Y-85083742D01*
X144462319Y-85055241D01*
X144427262Y-85020184D01*
X144274523Y-84924211D01*
X144104254Y-84864631D01*
X144104249Y-84864630D01*
X143925004Y-84844435D01*
X143924996Y-84844435D01*
X143745750Y-84864630D01*
X143745745Y-84864631D01*
X143575476Y-84924211D01*
X143422737Y-85020184D01*
X143295184Y-85147737D01*
X143199211Y-85300476D01*
X143139631Y-85470745D01*
X143139630Y-85470750D01*
X143119435Y-85649996D01*
X143119435Y-85650003D01*
X143139630Y-85829249D01*
X143139631Y-85829254D01*
X143199211Y-85999523D01*
X143276957Y-86123254D01*
X143295184Y-86152262D01*
X143422738Y-86279816D01*
X143439280Y-86290210D01*
X143565096Y-86369266D01*
X143575478Y-86375789D01*
X143617340Y-86390437D01*
X143745745Y-86435368D01*
X143745750Y-86435369D01*
X143924996Y-86455565D01*
X143925000Y-86455565D01*
X143925004Y-86455565D01*
X144104249Y-86435369D01*
X144104252Y-86435368D01*
X144104255Y-86435368D01*
X144274522Y-86375789D01*
X144427262Y-86279816D01*
X144462319Y-86244759D01*
X144523642Y-86211274D01*
X144593334Y-86216258D01*
X144637681Y-86244759D01*
X144672738Y-86279816D01*
X144689280Y-86290210D01*
X144815096Y-86369266D01*
X144825478Y-86375789D01*
X144995745Y-86435368D01*
X145002974Y-86436182D01*
X145067388Y-86463246D01*
X145076766Y-86471712D01*
X145168693Y-86563639D01*
X145168694Y-86563640D01*
X145275234Y-86634827D01*
X145275233Y-86634827D01*
X145309907Y-86649189D01*
X145393619Y-86683864D01*
X145393623Y-86683864D01*
X145393624Y-86683865D01*
X145519291Y-86708863D01*
X145519294Y-86708863D01*
X146042275Y-86708863D01*
X146109314Y-86728548D01*
X146129956Y-86745182D01*
X146314375Y-86929601D01*
X146368818Y-86974973D01*
X146519445Y-87054029D01*
X146684614Y-87094739D01*
X146854726Y-87094739D01*
X147019895Y-87054029D01*
X147170522Y-86974973D01*
X147224965Y-86929601D01*
X147587875Y-86566691D01*
X147633247Y-86512248D01*
X147712303Y-86361621D01*
X147753013Y-86196452D01*
X147753013Y-86052013D01*
X147772698Y-85984974D01*
X147825502Y-85939219D01*
X147877013Y-85928013D01*
X147976552Y-85928013D01*
X148043591Y-85947698D01*
X148064233Y-85964332D01*
X148338134Y-86238233D01*
X148371619Y-86299556D01*
X148370773Y-86345184D01*
X148372463Y-86345398D01*
X148371485Y-86353141D01*
X148371485Y-86511183D01*
X148410786Y-86664249D01*
X148410789Y-86664257D01*
X148486920Y-86802740D01*
X148510027Y-86829794D01*
X148510041Y-86829809D01*
X148552201Y-86871968D01*
X148585687Y-86933291D01*
X148587617Y-86974596D01*
X148569355Y-87124999D01*
X148589859Y-87293869D01*
X148589860Y-87293874D01*
X148650182Y-87452931D01*
X148696995Y-87520750D01*
X148746817Y-87592929D01*
X148820508Y-87658213D01*
X148874150Y-87705736D01*
X149024773Y-87784789D01*
X149024775Y-87784790D01*
X149189944Y-87825500D01*
X149360057Y-87825500D01*
X149360060Y-87825499D01*
X149409022Y-87813431D01*
X149478824Y-87816499D01*
X149526379Y-87846146D01*
X149545107Y-87864874D01*
X149578592Y-87926197D01*
X149581426Y-87952555D01*
X149581426Y-88158982D01*
X149581426Y-88311370D01*
X149611006Y-88421766D01*
X149620867Y-88458566D01*
X149620868Y-88458567D01*
X149696545Y-88589644D01*
X149697062Y-88590538D01*
X151009931Y-89903407D01*
X151043416Y-89964730D01*
X151046250Y-89991088D01*
X151046250Y-93628412D01*
X151026565Y-93695451D01*
X150973761Y-93741206D01*
X150904603Y-93751150D01*
X150841047Y-93722125D01*
X150834569Y-93716093D01*
X147715538Y-90597062D01*
X147715537Y-90597061D01*
X147583567Y-90520868D01*
X147583566Y-90520867D01*
X147546766Y-90511006D01*
X147436370Y-90481426D01*
X147436367Y-90481426D01*
X147052555Y-90481426D01*
X146985516Y-90461741D01*
X146964874Y-90445107D01*
X146827837Y-90308070D01*
X146827813Y-90308048D01*
X146800774Y-90284952D01*
X146800769Y-90284949D01*
X146662280Y-90208814D01*
X146662277Y-90208813D01*
X146662275Y-90208812D01*
X146509209Y-90169511D01*
X146509207Y-90169511D01*
X146458438Y-90169511D01*
X146391399Y-90149826D01*
X146345644Y-90097022D01*
X146334438Y-90045511D01*
X146334438Y-89994745D01*
X146334437Y-89994739D01*
X146333082Y-89989463D01*
X146295135Y-89841669D01*
X146274921Y-89804900D01*
X146219002Y-89703182D01*
X146195899Y-89676131D01*
X146195888Y-89676120D01*
X145929811Y-89410044D01*
X145929792Y-89410027D01*
X145929787Y-89410022D01*
X145902748Y-89386926D01*
X145902743Y-89386923D01*
X145764254Y-89310788D01*
X145764251Y-89310787D01*
X145764249Y-89310786D01*
X145611183Y-89271485D01*
X145611181Y-89271485D01*
X145453142Y-89271485D01*
X145453139Y-89271485D01*
X145300073Y-89310786D01*
X145300065Y-89310789D01*
X145161584Y-89386918D01*
X145161578Y-89386923D01*
X145134532Y-89410023D01*
X145028142Y-89516413D01*
X144966819Y-89549897D01*
X144897127Y-89544913D01*
X144852780Y-89516412D01*
X144674674Y-89338306D01*
X144641189Y-89276983D01*
X144646173Y-89207291D01*
X144688045Y-89151358D01*
X144733759Y-89129967D01*
X144865342Y-89098781D01*
X145016786Y-89022723D01*
X145016793Y-89022718D01*
X145094171Y-88959685D01*
X145094184Y-88959673D01*
X145110660Y-88943197D01*
X144244455Y-88076992D01*
X144951561Y-88076992D01*
X145464212Y-88589644D01*
X145480696Y-88573160D01*
X145480710Y-88573144D01*
X145543734Y-88495777D01*
X145543739Y-88495770D01*
X145619797Y-88344326D01*
X145658884Y-88179408D01*
X145658884Y-88009930D01*
X145619797Y-87845012D01*
X145543739Y-87693568D01*
X145543734Y-87693561D01*
X145480702Y-87616184D01*
X145480690Y-87616170D01*
X145446535Y-87582017D01*
X145446534Y-87582017D01*
X144951561Y-88076991D01*
X144951561Y-88076992D01*
X144244455Y-88076992D01*
X143731802Y-87564339D01*
X143731801Y-87564339D01*
X143715326Y-87580816D01*
X143715315Y-87580828D01*
X143652277Y-87658211D01*
X143652276Y-87658213D01*
X143576216Y-87809660D01*
X143547326Y-87931556D01*
X143512712Y-87992249D01*
X143450779Y-88024593D01*
X143381192Y-88018318D01*
X143326043Y-87975419D01*
X143321675Y-87968931D01*
X143316498Y-87960692D01*
X143229816Y-87822738D01*
X143114158Y-87707080D01*
X143080674Y-87645757D01*
X143078744Y-87634346D01*
X143076870Y-87618913D01*
X143060140Y-87481128D01*
X143057406Y-87473920D01*
X143028171Y-87396832D01*
X142999818Y-87322070D01*
X142928532Y-87218795D01*
X142925891Y-87210786D01*
X144085354Y-87210786D01*
X144598006Y-87723438D01*
X144598007Y-87723438D01*
X145092982Y-87228464D01*
X145058821Y-87194303D01*
X145058805Y-87194289D01*
X144981438Y-87131265D01*
X144981431Y-87131260D01*
X144829987Y-87055202D01*
X144665069Y-87016116D01*
X144495592Y-87016116D01*
X144330673Y-87055202D01*
X144179229Y-87131260D01*
X144179222Y-87131265D01*
X144101852Y-87194291D01*
X144101845Y-87194297D01*
X144085354Y-87210786D01*
X142925891Y-87210786D01*
X142906650Y-87152443D01*
X142909386Y-87126336D01*
X142909236Y-87126318D01*
X142918478Y-87050203D01*
X142930645Y-86950000D01*
X142910140Y-86781128D01*
X142849818Y-86622070D01*
X142753183Y-86482071D01*
X142625852Y-86369266D01*
X142625849Y-86369263D01*
X142475226Y-86290210D01*
X142310056Y-86249500D01*
X142139944Y-86249500D01*
X141974773Y-86290210D01*
X141824150Y-86369263D01*
X141696816Y-86482072D01*
X141600182Y-86622068D01*
X141539860Y-86781125D01*
X141539859Y-86781130D01*
X141519355Y-86950000D01*
X141539859Y-87118869D01*
X141539860Y-87118874D01*
X141600182Y-87277931D01*
X141671466Y-87381202D01*
X141693349Y-87447556D01*
X141690615Y-87473664D01*
X141690764Y-87473683D01*
X141669355Y-87650000D01*
X141689859Y-87818869D01*
X141689860Y-87818874D01*
X141750182Y-87977931D01*
X141796426Y-88044926D01*
X141818309Y-88111280D01*
X141815269Y-88142951D01*
X141814631Y-88145746D01*
X141794435Y-88324996D01*
X141794435Y-88325003D01*
X141814630Y-88504249D01*
X141814631Y-88504254D01*
X141874211Y-88674523D01*
X141967591Y-88823135D01*
X141970184Y-88827262D01*
X142097738Y-88954816D01*
X142250478Y-89050789D01*
X142250483Y-89050792D01*
X142256753Y-89053812D01*
X142255868Y-89055648D01*
X142291938Y-89078306D01*
X142356149Y-89142517D01*
X142411666Y-89198033D01*
X142444642Y-89257118D01*
X142465889Y-89346765D01*
X142479729Y-89405158D01*
X142555840Y-89556708D01*
X142555843Y-89556713D01*
X142616460Y-89631125D01*
X142618925Y-89634151D01*
X142618931Y-89634157D01*
X142842154Y-89857379D01*
X142875639Y-89918702D01*
X142870655Y-89988393D01*
X142828784Y-90044327D01*
X142763319Y-90068744D01*
X142724799Y-90065457D01*
X142660057Y-90049500D01*
X142660056Y-90049500D01*
X142489944Y-90049500D01*
X142324774Y-90090209D01*
X142257643Y-90125443D01*
X142189135Y-90139167D01*
X142124082Y-90113675D01*
X142083138Y-90057059D01*
X142079303Y-89987294D01*
X142084080Y-89971666D01*
X142085139Y-89968874D01*
X142085140Y-89968872D01*
X142105645Y-89800000D01*
X142085140Y-89631128D01*
X142024818Y-89472070D01*
X142014876Y-89457667D01*
X141990476Y-89422318D01*
X141928183Y-89332071D01*
X141809563Y-89226983D01*
X141800849Y-89219263D01*
X141650226Y-89140210D01*
X141485056Y-89099500D01*
X141314944Y-89099500D01*
X141149773Y-89140210D01*
X140999150Y-89219263D01*
X140871816Y-89332072D01*
X140775182Y-89472068D01*
X140714860Y-89631125D01*
X140714859Y-89631130D01*
X140694355Y-89800000D01*
X140714859Y-89968869D01*
X140714860Y-89968874D01*
X140775182Y-90127931D01*
X140835330Y-90215069D01*
X140871817Y-90267929D01*
X140977505Y-90361560D01*
X140999150Y-90380736D01*
X141149773Y-90459789D01*
X141149775Y-90459790D01*
X141314944Y-90500500D01*
X141485056Y-90500500D01*
X141650225Y-90459790D01*
X141717355Y-90424556D01*
X141785862Y-90410831D01*
X141850916Y-90436323D01*
X141891861Y-90492938D01*
X141895697Y-90562703D01*
X141890925Y-90578319D01*
X141889861Y-90581123D01*
X141889859Y-90581130D01*
X141869355Y-90750000D01*
X141889859Y-90918869D01*
X141889860Y-90918874D01*
X141950182Y-91077931D01*
X142032418Y-91197068D01*
X142046817Y-91217929D01*
X142046819Y-91217931D01*
X142046821Y-91217933D01*
X142074688Y-91242621D01*
X142111815Y-91301810D01*
X142115557Y-91350382D01*
X142094355Y-91524999D01*
X142114859Y-91693869D01*
X142114860Y-91693874D01*
X142175182Y-91852931D01*
X142221404Y-91919894D01*
X142271817Y-91992929D01*
X142359402Y-92070522D01*
X142399150Y-92105736D01*
X142531118Y-92174998D01*
X142549775Y-92184790D01*
X142714944Y-92225500D01*
X142885056Y-92225500D01*
X143050225Y-92184790D01*
X143164211Y-92124965D01*
X143200849Y-92105736D01*
X143200850Y-92105734D01*
X143200852Y-92105734D01*
X143328183Y-91992929D01*
X143424818Y-91852930D01*
X143485140Y-91693872D01*
X143505645Y-91525000D01*
X143485140Y-91356128D01*
X143424818Y-91197070D01*
X143410655Y-91176552D01*
X143356347Y-91097873D01*
X143328183Y-91057071D01*
X143328180Y-91057068D01*
X143328178Y-91057066D01*
X143300311Y-91032378D01*
X143263184Y-90973189D01*
X143259442Y-90924616D01*
X143260139Y-90918874D01*
X143260140Y-90918872D01*
X143280645Y-90750000D01*
X143260140Y-90581128D01*
X143199818Y-90422070D01*
X143182212Y-90396564D01*
X143160329Y-90330211D01*
X143177794Y-90262559D01*
X143229061Y-90215089D01*
X143297854Y-90202871D01*
X143312853Y-90205465D01*
X143417883Y-90230357D01*
X143476967Y-90263334D01*
X144086522Y-90872889D01*
X144120007Y-90934212D01*
X144115023Y-91003904D01*
X144086524Y-91048249D01*
X144036910Y-91097864D01*
X143920395Y-91214379D01*
X143875028Y-91268816D01*
X143795970Y-91419445D01*
X143766211Y-91540186D01*
X143755261Y-91584614D01*
X143755261Y-91754726D01*
X143761281Y-91779149D01*
X143795970Y-91919894D01*
X143795971Y-91919895D01*
X143875027Y-92070522D01*
X143920399Y-92124965D01*
X143920409Y-92124975D01*
X144050797Y-92255363D01*
X144084282Y-92316686D01*
X144079298Y-92386378D01*
X144050797Y-92430725D01*
X143945699Y-92535823D01*
X143887694Y-92568538D01*
X143799778Y-92590208D01*
X143799774Y-92590209D01*
X143649150Y-92669263D01*
X143532638Y-92772484D01*
X143529781Y-92775016D01*
X143521816Y-92782072D01*
X143425182Y-92922068D01*
X143364860Y-93081125D01*
X143364859Y-93081130D01*
X143344355Y-93250000D01*
X143364859Y-93418869D01*
X143364860Y-93418874D01*
X143425182Y-93577931D01*
X143478107Y-93654604D01*
X143521817Y-93717929D01*
X143603379Y-93790186D01*
X143649150Y-93830736D01*
X143696784Y-93855736D01*
X143746997Y-93904320D01*
X143762971Y-93972339D01*
X143739636Y-94038197D01*
X143726839Y-94053213D01*
X141890934Y-95889119D01*
X141829611Y-95922604D01*
X141759919Y-95917620D01*
X141703986Y-95875748D01*
X141679569Y-95810284D01*
X141679253Y-95801438D01*
X141679253Y-95797216D01*
X141667992Y-95704476D01*
X141658748Y-95628344D01*
X141598426Y-95469286D01*
X141580735Y-95443657D01*
X141545142Y-95392092D01*
X141501791Y-95329287D01*
X141377158Y-95218872D01*
X141374457Y-95216479D01*
X141223834Y-95137426D01*
X141058664Y-95096716D01*
X140888552Y-95096716D01*
X140723382Y-95137425D01*
X140716375Y-95140084D01*
X140715660Y-95138201D01*
X140669815Y-95149500D01*
X139852581Y-95149500D01*
X139785542Y-95129815D01*
X139739787Y-95077011D01*
X139729485Y-95040447D01*
X139727611Y-95025016D01*
X139710140Y-94881128D01*
X139657933Y-94743470D01*
X139652567Y-94673807D01*
X139685715Y-94612301D01*
X139746853Y-94578480D01*
X139773876Y-94575500D01*
X139810056Y-94575500D01*
X139975225Y-94534790D01*
X140070045Y-94485024D01*
X140125849Y-94455736D01*
X140125850Y-94455734D01*
X140125852Y-94455734D01*
X140253183Y-94342929D01*
X140349818Y-94202930D01*
X140410140Y-94043872D01*
X140430645Y-93875000D01*
X140410140Y-93706128D01*
X140349818Y-93547070D01*
X140348903Y-93545745D01*
X140300415Y-93475498D01*
X140253183Y-93407071D01*
X140125852Y-93294266D01*
X140125849Y-93294263D01*
X139975226Y-93215210D01*
X139810056Y-93174500D01*
X139639944Y-93174500D01*
X139474773Y-93215210D01*
X139324150Y-93294263D01*
X139196816Y-93407072D01*
X139100182Y-93547068D01*
X139039860Y-93706125D01*
X139039859Y-93706130D01*
X139019355Y-93875000D01*
X139039859Y-94043869D01*
X139039860Y-94043874D01*
X139092066Y-94181529D01*
X139097433Y-94251193D01*
X139064285Y-94312699D01*
X139003147Y-94346520D01*
X138976124Y-94349500D01*
X138939944Y-94349500D01*
X138774773Y-94390210D01*
X138624150Y-94469263D01*
X138496816Y-94582072D01*
X138400182Y-94722068D01*
X138339860Y-94881125D01*
X138339859Y-94881130D01*
X138319355Y-95050000D01*
X138335002Y-95178864D01*
X138323542Y-95247788D01*
X138276638Y-95299574D01*
X138209182Y-95317781D01*
X138142591Y-95296629D01*
X138102108Y-95251433D01*
X138099819Y-95247071D01*
X138068812Y-95202150D01*
X138003183Y-95107071D01*
X137875852Y-94994266D01*
X137875849Y-94994263D01*
X137725226Y-94915210D01*
X137560056Y-94874500D01*
X137389944Y-94874500D01*
X137224773Y-94915210D01*
X137074150Y-94994263D01*
X136946816Y-95107072D01*
X136850182Y-95247068D01*
X136789860Y-95406125D01*
X136789859Y-95406130D01*
X136774344Y-95533912D01*
X136769355Y-95575000D01*
X136776170Y-95631130D01*
X136776708Y-95635553D01*
X136765248Y-95704476D01*
X136718344Y-95756263D01*
X136653612Y-95774500D01*
X135434298Y-95774500D01*
X135397432Y-95777401D01*
X135397426Y-95777402D01*
X135239606Y-95823254D01*
X135239603Y-95823255D01*
X135097605Y-95907232D01*
X135034484Y-95924500D01*
X134528523Y-95924500D01*
X134487569Y-95917541D01*
X134482400Y-95915732D01*
X134479253Y-95914631D01*
X134479247Y-95914630D01*
X134421999Y-95908180D01*
X134357585Y-95881113D01*
X134318030Y-95823518D01*
X134315893Y-95753681D01*
X134351851Y-95693775D01*
X134396877Y-95667255D01*
X134419334Y-95659814D01*
X134568656Y-95567712D01*
X134692712Y-95443656D01*
X134784814Y-95294334D01*
X134839999Y-95127797D01*
X134850500Y-95025009D01*
X134850499Y-94424992D01*
X134848222Y-94402706D01*
X134839999Y-94322203D01*
X134839998Y-94322200D01*
X134831670Y-94297068D01*
X134784814Y-94155666D01*
X134692712Y-94006344D01*
X134568656Y-93882288D01*
X134458536Y-93814366D01*
X134419336Y-93790187D01*
X134419331Y-93790185D01*
X134385664Y-93779029D01*
X134252797Y-93735001D01*
X134252795Y-93735000D01*
X134154934Y-93725003D01*
X135994435Y-93725003D01*
X136014630Y-93904249D01*
X136014631Y-93904254D01*
X136074211Y-94074523D01*
X136141448Y-94181529D01*
X136170184Y-94227262D01*
X136297738Y-94354816D01*
X136381482Y-94407436D01*
X136439235Y-94443725D01*
X136450478Y-94450789D01*
X136526614Y-94477430D01*
X136620745Y-94510368D01*
X136620750Y-94510369D01*
X136799996Y-94530565D01*
X136800000Y-94530565D01*
X136800004Y-94530565D01*
X136979249Y-94510369D01*
X136979252Y-94510368D01*
X136979255Y-94510368D01*
X137149522Y-94450789D01*
X137302262Y-94354816D01*
X137429816Y-94227262D01*
X137525789Y-94074522D01*
X137585368Y-93904255D01*
X137585552Y-93902626D01*
X137605565Y-93725003D01*
X137605565Y-93724996D01*
X137585369Y-93545750D01*
X137585368Y-93545745D01*
X137560788Y-93475499D01*
X137525789Y-93375478D01*
X137521044Y-93367927D01*
X137434263Y-93229816D01*
X137429816Y-93222738D01*
X137302262Y-93095184D01*
X137279887Y-93081125D01*
X137149523Y-92999211D01*
X136979254Y-92939631D01*
X136979249Y-92939630D01*
X136800004Y-92919435D01*
X136799996Y-92919435D01*
X136620750Y-92939630D01*
X136620745Y-92939631D01*
X136450476Y-92999211D01*
X136297737Y-93095184D01*
X136170184Y-93222737D01*
X136074211Y-93375476D01*
X136014631Y-93545745D01*
X136014630Y-93545750D01*
X135994435Y-93724996D01*
X135994435Y-93725003D01*
X134154934Y-93725003D01*
X134150010Y-93724500D01*
X131849998Y-93724500D01*
X131849978Y-93724502D01*
X131799579Y-93729650D01*
X131730887Y-93716880D01*
X131680003Y-93668998D01*
X131662979Y-93606292D01*
X131662979Y-93598816D01*
X131682664Y-93531777D01*
X131735468Y-93486022D01*
X131796804Y-93475918D01*
X131796834Y-93475339D01*
X131799498Y-93475474D01*
X131799591Y-93475459D01*
X131799991Y-93475500D01*
X134100008Y-93475499D01*
X134101575Y-93475339D01*
X134117895Y-93473671D01*
X134202797Y-93464999D01*
X134369334Y-93409814D01*
X134518656Y-93317712D01*
X134642712Y-93193656D01*
X134734814Y-93044334D01*
X134789999Y-92877797D01*
X134800500Y-92775009D01*
X134800499Y-92174992D01*
X134793424Y-92105736D01*
X134789999Y-92072203D01*
X134789998Y-92072200D01*
X134789442Y-92070522D01*
X134734814Y-91905666D01*
X134642712Y-91756344D01*
X134518656Y-91632288D01*
X134369334Y-91540186D01*
X134202797Y-91485001D01*
X134202795Y-91485000D01*
X134100010Y-91474500D01*
X131799998Y-91474500D01*
X131799967Y-91474502D01*
X131799551Y-91474545D01*
X131799461Y-91474528D01*
X131796836Y-91474662D01*
X131796804Y-91474033D01*
X131730861Y-91461759D01*
X131679989Y-91413866D01*
X131662979Y-91351184D01*
X131662979Y-90875001D01*
X134802704Y-90875001D01*
X134802899Y-90877486D01*
X134848718Y-91035198D01*
X134932314Y-91176552D01*
X134932321Y-91176561D01*
X135048438Y-91292678D01*
X135048447Y-91292685D01*
X135189803Y-91376282D01*
X135189806Y-91376283D01*
X135347504Y-91422099D01*
X135347510Y-91422100D01*
X135384350Y-91424999D01*
X135384366Y-91425000D01*
X135900000Y-91425000D01*
X135900000Y-90875000D01*
X136400000Y-90875000D01*
X136400000Y-91425000D01*
X136915634Y-91425000D01*
X136915649Y-91424999D01*
X136952489Y-91422100D01*
X136952495Y-91422099D01*
X137110193Y-91376283D01*
X137110196Y-91376282D01*
X137251552Y-91292685D01*
X137251561Y-91292678D01*
X137367678Y-91176561D01*
X137367685Y-91176552D01*
X137451281Y-91035198D01*
X137497100Y-90877486D01*
X137497295Y-90875001D01*
X137497295Y-90875000D01*
X136400000Y-90875000D01*
X135900000Y-90875000D01*
X134802705Y-90875000D01*
X134802704Y-90875001D01*
X131662979Y-90875001D01*
X131662979Y-86148816D01*
X131682664Y-86081777D01*
X131735468Y-86036022D01*
X131796804Y-86025918D01*
X131796834Y-86025339D01*
X131799498Y-86025474D01*
X131799591Y-86025459D01*
X131799991Y-86025500D01*
X133586312Y-86025499D01*
X133653351Y-86045184D01*
X133699106Y-86097987D01*
X133709050Y-86167146D01*
X133680025Y-86230702D01*
X133652284Y-86254493D01*
X133547737Y-86320184D01*
X133420184Y-86447737D01*
X133324211Y-86600476D01*
X133264631Y-86770745D01*
X133264630Y-86770750D01*
X133244435Y-86949996D01*
X133244435Y-86950003D01*
X133264630Y-87129249D01*
X133264631Y-87129254D01*
X133324211Y-87299523D01*
X133368146Y-87369444D01*
X133420184Y-87452262D01*
X133547738Y-87579816D01*
X133614103Y-87621516D01*
X133657224Y-87648611D01*
X133700478Y-87675789D01*
X133769678Y-87700003D01*
X133870745Y-87735368D01*
X133870750Y-87735369D01*
X134049996Y-87755565D01*
X134050000Y-87755565D01*
X134050004Y-87755565D01*
X134229249Y-87735369D01*
X134229252Y-87735368D01*
X134229255Y-87735368D01*
X134399522Y-87675789D01*
X134552262Y-87579816D01*
X134570259Y-87561819D01*
X134631582Y-87528334D01*
X134657940Y-87525500D01*
X134742696Y-87525500D01*
X134809735Y-87545185D01*
X134855490Y-87597989D01*
X134865434Y-87667147D01*
X134851262Y-87707407D01*
X134851353Y-87707446D01*
X134850797Y-87708730D01*
X134849427Y-87712620D01*
X134848564Y-87714080D01*
X134848254Y-87714605D01*
X134848254Y-87714606D01*
X134802402Y-87872426D01*
X134802401Y-87872432D01*
X134799500Y-87909298D01*
X134799500Y-88340701D01*
X134802401Y-88377567D01*
X134802402Y-88377573D01*
X134848254Y-88535393D01*
X134848255Y-88535396D01*
X134935890Y-88683580D01*
X134933919Y-88684745D01*
X134955232Y-88739058D01*
X134941540Y-88807573D01*
X134935864Y-88816404D01*
X134935890Y-88816420D01*
X134848255Y-88964603D01*
X134848254Y-88964606D01*
X134802402Y-89122426D01*
X134802401Y-89122432D01*
X134799500Y-89159298D01*
X134799500Y-89590701D01*
X134802401Y-89627567D01*
X134802402Y-89627573D01*
X134848254Y-89785393D01*
X134848255Y-89785396D01*
X134848256Y-89785398D01*
X134875907Y-89832153D01*
X134935890Y-89933580D01*
X134934045Y-89934670D01*
X134955551Y-89989463D01*
X134941862Y-90057979D01*
X134936252Y-90066707D01*
X134936288Y-90066729D01*
X134848718Y-90214801D01*
X134802899Y-90372513D01*
X134802704Y-90374998D01*
X134802705Y-90375000D01*
X137497295Y-90375000D01*
X137497295Y-90374998D01*
X137497100Y-90372513D01*
X137451282Y-90214803D01*
X137438893Y-90193855D01*
X137421710Y-90126131D01*
X137443870Y-90059868D01*
X137498335Y-90016104D01*
X137521425Y-90009117D01*
X137564744Y-90000501D01*
X137683127Y-89951465D01*
X137725146Y-89923389D01*
X137725146Y-89923388D01*
X137725148Y-89923388D01*
X137761360Y-89899192D01*
X137789669Y-89880277D01*
X137998225Y-89671719D01*
X138059544Y-89638237D01*
X138072019Y-89636183D01*
X138079255Y-89635368D01*
X138249522Y-89575789D01*
X138402262Y-89479816D01*
X138529816Y-89352262D01*
X138625789Y-89199522D01*
X138685368Y-89029255D01*
X138685463Y-89028415D01*
X138705565Y-88850003D01*
X138705565Y-88849996D01*
X138685369Y-88670750D01*
X138685368Y-88670745D01*
X138665733Y-88614632D01*
X138625789Y-88500478D01*
X138529816Y-88347738D01*
X138402262Y-88220184D01*
X138402260Y-88220182D01*
X138251383Y-88125379D01*
X138205093Y-88073045D01*
X138194445Y-88003991D01*
X138200315Y-87979431D01*
X138235366Y-87879262D01*
X138235369Y-87879249D01*
X138255565Y-87700003D01*
X138255565Y-87699996D01*
X138235369Y-87520750D01*
X138235368Y-87520745D01*
X138218983Y-87473920D01*
X138175789Y-87350478D01*
X138170745Y-87342451D01*
X138093049Y-87218798D01*
X138079816Y-87197738D01*
X137952262Y-87070184D01*
X137928418Y-87055202D01*
X137799521Y-86974210D01*
X137629249Y-86914630D01*
X137610615Y-86912531D01*
X137546202Y-86885464D01*
X137506647Y-86827869D01*
X137500500Y-86789311D01*
X137500500Y-86659313D01*
X137500499Y-86659298D01*
X137498573Y-86634828D01*
X137497598Y-86622431D01*
X137497493Y-86622070D01*
X137459027Y-86489671D01*
X137451744Y-86464602D01*
X137368081Y-86323135D01*
X137368079Y-86323133D01*
X137368076Y-86323129D01*
X137251870Y-86206923D01*
X137251862Y-86206917D01*
X137110396Y-86123255D01*
X137110393Y-86123254D01*
X136952573Y-86077402D01*
X136952567Y-86077401D01*
X136915701Y-86074500D01*
X136915694Y-86074500D01*
X135384306Y-86074500D01*
X135384298Y-86074500D01*
X135347432Y-86077401D01*
X135347426Y-86077402D01*
X135189606Y-86123254D01*
X135189603Y-86123255D01*
X135047605Y-86207232D01*
X134984484Y-86224500D01*
X134421416Y-86224500D01*
X134380461Y-86217541D01*
X134340369Y-86203512D01*
X134283593Y-86162790D01*
X134257846Y-86097838D01*
X134271302Y-86029276D01*
X134319690Y-85978873D01*
X134342315Y-85968767D01*
X134369334Y-85959814D01*
X134518656Y-85867712D01*
X134642712Y-85743656D01*
X134734814Y-85594334D01*
X134789999Y-85427797D01*
X134800500Y-85325009D01*
X134800499Y-84724992D01*
X134799485Y-84715069D01*
X134789999Y-84622203D01*
X134789998Y-84622200D01*
X134768553Y-84557483D01*
X134734814Y-84455666D01*
X134642712Y-84306344D01*
X134518656Y-84182288D01*
X134425888Y-84125069D01*
X134369336Y-84090187D01*
X134369331Y-84090185D01*
X134367862Y-84089698D01*
X134202797Y-84035001D01*
X134202795Y-84035000D01*
X134100010Y-84024500D01*
X131799998Y-84024500D01*
X131799967Y-84024502D01*
X131799551Y-84024545D01*
X131799461Y-84024528D01*
X131796836Y-84024662D01*
X131796804Y-84024033D01*
X131730861Y-84011759D01*
X131718374Y-84000003D01*
X135294435Y-84000003D01*
X135314630Y-84179249D01*
X135314631Y-84179254D01*
X135374211Y-84349523D01*
X135440904Y-84455663D01*
X135470184Y-84502262D01*
X135597738Y-84629816D01*
X135675616Y-84678750D01*
X135749209Y-84724992D01*
X135750478Y-84725789D01*
X135823210Y-84751239D01*
X135920745Y-84785368D01*
X135920750Y-84785369D01*
X136099996Y-84805565D01*
X136100000Y-84805565D01*
X136100004Y-84805565D01*
X136279249Y-84785369D01*
X136279252Y-84785368D01*
X136279255Y-84785368D01*
X136449522Y-84725789D01*
X136602262Y-84629816D01*
X136729816Y-84502262D01*
X136825789Y-84349522D01*
X136853553Y-84270174D01*
X136894274Y-84213398D01*
X136956711Y-84187907D01*
X136979255Y-84185368D01*
X137149522Y-84125789D01*
X137302262Y-84029816D01*
X137429816Y-83902262D01*
X137525789Y-83749522D01*
X137585368Y-83579255D01*
X137594553Y-83497737D01*
X137605565Y-83400003D01*
X137605565Y-83399996D01*
X137585369Y-83220750D01*
X137585368Y-83220745D01*
X137582340Y-83212091D01*
X137525789Y-83050478D01*
X137429816Y-82897738D01*
X137302262Y-82770184D01*
X137219511Y-82718188D01*
X137149523Y-82674211D01*
X136979254Y-82614631D01*
X136979249Y-82614630D01*
X136800004Y-82594435D01*
X136799996Y-82594435D01*
X136620750Y-82614630D01*
X136620745Y-82614631D01*
X136450476Y-82674211D01*
X136297737Y-82770184D01*
X136170184Y-82897737D01*
X136074212Y-83050475D01*
X136074211Y-83050476D01*
X136046445Y-83129827D01*
X136005723Y-83186602D01*
X135943289Y-83212091D01*
X135920750Y-83214630D01*
X135750478Y-83274210D01*
X135597737Y-83370184D01*
X135470184Y-83497737D01*
X135374211Y-83650476D01*
X135314631Y-83820745D01*
X135314630Y-83820750D01*
X135294435Y-83999996D01*
X135294435Y-84000003D01*
X131718374Y-84000003D01*
X131679989Y-83963866D01*
X131662979Y-83901184D01*
X131662979Y-81300003D01*
X139594435Y-81300003D01*
X139614630Y-81479249D01*
X139614631Y-81479254D01*
X139674211Y-81649523D01*
X139754205Y-81776832D01*
X139770184Y-81802262D01*
X139897738Y-81929816D01*
X140050478Y-82025789D01*
X140174728Y-82069266D01*
X140220745Y-82085368D01*
X140220750Y-82085369D01*
X140399996Y-82105565D01*
X140400000Y-82105565D01*
X140400004Y-82105565D01*
X140579249Y-82085369D01*
X140579252Y-82085368D01*
X140579255Y-82085368D01*
X140749522Y-82025789D01*
X140902262Y-81929816D01*
X141029816Y-81802262D01*
X141125789Y-81649522D01*
X141185368Y-81479255D01*
X141186133Y-81472466D01*
X141205565Y-81300003D01*
X141205565Y-81299996D01*
X141185369Y-81120750D01*
X141185368Y-81120745D01*
X141169787Y-81076217D01*
X141125789Y-80950478D01*
X141029816Y-80797738D01*
X140902262Y-80670184D01*
X140831608Y-80625789D01*
X140749523Y-80574211D01*
X140579254Y-80514631D01*
X140579249Y-80514630D01*
X140400004Y-80494435D01*
X140400003Y-80494435D01*
X140400001Y-80494435D01*
X140400000Y-80494435D01*
X140385170Y-80496105D01*
X140329732Y-80486394D01*
X140303155Y-80503475D01*
X140282103Y-80507718D01*
X140220750Y-80514630D01*
X140220745Y-80514631D01*
X140050476Y-80574211D01*
X139897737Y-80670184D01*
X139770184Y-80797737D01*
X139674211Y-80950476D01*
X139614631Y-81120745D01*
X139614630Y-81120750D01*
X139594435Y-81299996D01*
X139594435Y-81300003D01*
X131662979Y-81300003D01*
X131662979Y-79900003D01*
X131994435Y-79900003D01*
X132014630Y-80079249D01*
X132014631Y-80079254D01*
X132074211Y-80249523D01*
X132144892Y-80362010D01*
X132170184Y-80402262D01*
X132297738Y-80529816D01*
X132450478Y-80625789D01*
X132577352Y-80670184D01*
X132620745Y-80685368D01*
X132620750Y-80685369D01*
X132799996Y-80705565D01*
X132800000Y-80705565D01*
X132800004Y-80705565D01*
X132979249Y-80685369D01*
X132979252Y-80685368D01*
X132979255Y-80685368D01*
X133149522Y-80625789D01*
X133302262Y-80529816D01*
X133429816Y-80402262D01*
X133525709Y-80249648D01*
X133578043Y-80203359D01*
X133616814Y-80192402D01*
X133679255Y-80185368D01*
X133849522Y-80125789D01*
X134002262Y-80029816D01*
X134129816Y-79902262D01*
X134189127Y-79807869D01*
X138726979Y-79807869D01*
X138726980Y-79807875D01*
X138733387Y-79867482D01*
X138783681Y-80002327D01*
X138783685Y-80002334D01*
X138869931Y-80117543D01*
X138869934Y-80117546D01*
X138985143Y-80203792D01*
X138985150Y-80203796D01*
X139119996Y-80254090D01*
X139119995Y-80254090D01*
X139126923Y-80254834D01*
X139179606Y-80260499D01*
X140268220Y-80260498D01*
X140306925Y-80271863D01*
X140323254Y-80258567D01*
X140327956Y-80256703D01*
X140334962Y-80254090D01*
X140469810Y-80203795D01*
X140585025Y-80117545D01*
X140671275Y-80002330D01*
X140721570Y-79867482D01*
X140727979Y-79807872D01*
X140727979Y-79134499D01*
X140747664Y-79067460D01*
X140800468Y-79021705D01*
X140851979Y-79010499D01*
X141142979Y-79010499D01*
X141210018Y-79030184D01*
X141255773Y-79082988D01*
X141266979Y-79134499D01*
X141266979Y-79807875D01*
X141273386Y-79867482D01*
X141323680Y-80002327D01*
X141323684Y-80002334D01*
X141409930Y-80117543D01*
X141409933Y-80117546D01*
X141525142Y-80203792D01*
X141525149Y-80203796D01*
X141659995Y-80254090D01*
X141659994Y-80254090D01*
X141666922Y-80254834D01*
X141719605Y-80260499D01*
X142815350Y-80260498D01*
X142874961Y-80254090D01*
X143009809Y-80203795D01*
X143125024Y-80117545D01*
X143211274Y-80002330D01*
X143261569Y-79867482D01*
X143267978Y-79807872D01*
X143267978Y-79134499D01*
X143287663Y-79067460D01*
X143340467Y-79021705D01*
X143391978Y-79010499D01*
X143682981Y-79010499D01*
X143750020Y-79030184D01*
X143795775Y-79082988D01*
X143806981Y-79134499D01*
X143806981Y-79807875D01*
X143813388Y-79867482D01*
X143863682Y-80002327D01*
X143863686Y-80002334D01*
X143949932Y-80117543D01*
X143949935Y-80117546D01*
X144065144Y-80203792D01*
X144065151Y-80203796D01*
X144199997Y-80254090D01*
X144199996Y-80254090D01*
X144206924Y-80254834D01*
X144259607Y-80260499D01*
X145355352Y-80260498D01*
X145414963Y-80254090D01*
X145549811Y-80203795D01*
X145665026Y-80117545D01*
X145751276Y-80002330D01*
X145801571Y-79867482D01*
X145807980Y-79807872D01*
X145807980Y-79134499D01*
X145827665Y-79067460D01*
X145880469Y-79021705D01*
X145931980Y-79010499D01*
X146222980Y-79010499D01*
X146290019Y-79030184D01*
X146335774Y-79082988D01*
X146346980Y-79134499D01*
X146346980Y-79807875D01*
X146353387Y-79867482D01*
X146403681Y-80002327D01*
X146403685Y-80002334D01*
X146489931Y-80117543D01*
X146489934Y-80117546D01*
X146605143Y-80203792D01*
X146605150Y-80203796D01*
X146739996Y-80254090D01*
X146739995Y-80254090D01*
X146746923Y-80254834D01*
X146799606Y-80260499D01*
X147895351Y-80260498D01*
X147954962Y-80254090D01*
X148089810Y-80203795D01*
X148205025Y-80117545D01*
X148291275Y-80002330D01*
X148341570Y-79867482D01*
X148347979Y-79807872D01*
X148347978Y-76712127D01*
X148341570Y-76652516D01*
X148324058Y-76605565D01*
X148291276Y-76517670D01*
X148291274Y-76517667D01*
X148269474Y-76488546D01*
X148245056Y-76423082D01*
X148259907Y-76354809D01*
X148263747Y-76348261D01*
X148325788Y-76249524D01*
X148335006Y-76223180D01*
X148385368Y-76079255D01*
X148385369Y-76079249D01*
X148405565Y-75900003D01*
X148405565Y-75899996D01*
X148385369Y-75720750D01*
X148385368Y-75720745D01*
X148385274Y-75720475D01*
X148325789Y-75550478D01*
X148325188Y-75549522D01*
X148262954Y-75450477D01*
X148229816Y-75397738D01*
X148136920Y-75304842D01*
X148103435Y-75243519D01*
X148106547Y-75200003D01*
X151694435Y-75200003D01*
X151714630Y-75379249D01*
X151714631Y-75379254D01*
X151774211Y-75549523D01*
X151850384Y-75670750D01*
X151870184Y-75702262D01*
X151997738Y-75829816D01*
X152150478Y-75925789D01*
X152320745Y-75985368D01*
X152343286Y-75987907D01*
X152407699Y-76014973D01*
X152446444Y-76070173D01*
X152474209Y-76149519D01*
X152474211Y-76149522D01*
X152570184Y-76302262D01*
X152697738Y-76429816D01*
X152733187Y-76452090D01*
X152837556Y-76517670D01*
X152850478Y-76525789D01*
X152854688Y-76527262D01*
X153020745Y-76585368D01*
X153020750Y-76585369D01*
X153199996Y-76605565D01*
X153200000Y-76605565D01*
X153200004Y-76605565D01*
X153379249Y-76585369D01*
X153379252Y-76585368D01*
X153379255Y-76585368D01*
X153549522Y-76525789D01*
X153702262Y-76429816D01*
X153829816Y-76302262D01*
X153925789Y-76149522D01*
X153985368Y-75979255D01*
X153991392Y-75925789D01*
X154005565Y-75800003D01*
X154005565Y-75799996D01*
X153985369Y-75620750D01*
X153985368Y-75620745D01*
X153967018Y-75568303D01*
X153925789Y-75450478D01*
X153864877Y-75353538D01*
X153845878Y-75286303D01*
X153866246Y-75219467D01*
X153882183Y-75199894D01*
X153904816Y-75177262D01*
X154000789Y-75024522D01*
X154060368Y-74854255D01*
X154061099Y-74847769D01*
X154080565Y-74675003D01*
X154080565Y-74674996D01*
X154060369Y-74495750D01*
X154060368Y-74495745D01*
X154052833Y-74474211D01*
X154000789Y-74325478D01*
X153904816Y-74172738D01*
X153777262Y-74045184D01*
X153688852Y-73989632D01*
X153624523Y-73949211D01*
X153454254Y-73889631D01*
X153454249Y-73889630D01*
X153275004Y-73869435D01*
X153274996Y-73869435D01*
X153095750Y-73889630D01*
X153095745Y-73889631D01*
X152925476Y-73949211D01*
X152772737Y-74045184D01*
X152645184Y-74172737D01*
X152549210Y-74325478D01*
X152546657Y-74330781D01*
X152499835Y-74382642D01*
X152448819Y-74400201D01*
X152320750Y-74414630D01*
X152320745Y-74414631D01*
X152150476Y-74474211D01*
X151997737Y-74570184D01*
X151870184Y-74697737D01*
X151774211Y-74850476D01*
X151714631Y-75020745D01*
X151714630Y-75020750D01*
X151694435Y-75199996D01*
X151694435Y-75200003D01*
X148106547Y-75200003D01*
X148108419Y-75173827D01*
X148150291Y-75117894D01*
X148204668Y-75077187D01*
X148204669Y-75077186D01*
X148290829Y-74962092D01*
X148290833Y-74962085D01*
X148341075Y-74827378D01*
X148341077Y-74827371D01*
X148347478Y-74767843D01*
X148347479Y-74767826D01*
X148347479Y-73469999D01*
X146347479Y-73469999D01*
X146347479Y-74767843D01*
X146353880Y-74827371D01*
X146353882Y-74827378D01*
X146404124Y-74962085D01*
X146404128Y-74962092D01*
X146490288Y-75077186D01*
X146490291Y-75077189D01*
X146605385Y-75163349D01*
X146605392Y-75163353D01*
X146740099Y-75213595D01*
X146740106Y-75213597D01*
X146799634Y-75219998D01*
X146799651Y-75219999D01*
X146857504Y-75219999D01*
X146924543Y-75239684D01*
X146970298Y-75292488D01*
X146980242Y-75361646D01*
X146962498Y-75409969D01*
X146937046Y-75450477D01*
X146874212Y-75550475D01*
X146871191Y-75556750D01*
X146869361Y-75555869D01*
X146846695Y-75591935D01*
X146764530Y-75674101D01*
X146764526Y-75674105D01*
X146718371Y-75743181D01*
X146718372Y-75743182D01*
X146682393Y-75797029D01*
X146625822Y-75933603D01*
X146625819Y-75933613D01*
X146596979Y-76078600D01*
X146596979Y-76260248D01*
X146577294Y-76327287D01*
X146547291Y-76359514D01*
X146489936Y-76402450D01*
X146489930Y-76402456D01*
X146403685Y-76517663D01*
X146403681Y-76517670D01*
X146353387Y-76652516D01*
X146346980Y-76712115D01*
X146346980Y-76712122D01*
X146346979Y-76712134D01*
X146346979Y-77385499D01*
X146327294Y-77452538D01*
X146274490Y-77498293D01*
X146222979Y-77509499D01*
X145931979Y-77509499D01*
X145864940Y-77489814D01*
X145819185Y-77437010D01*
X145807979Y-77385499D01*
X145807979Y-76712128D01*
X145807978Y-76712122D01*
X145807977Y-76712115D01*
X145801571Y-76652516D01*
X145784059Y-76605565D01*
X145751277Y-76517670D01*
X145751273Y-76517664D01*
X145734140Y-76494776D01*
X145709723Y-76429312D01*
X145724575Y-76361039D01*
X145728413Y-76354494D01*
X145729814Y-76352263D01*
X145729816Y-76352262D01*
X145825789Y-76199522D01*
X145885368Y-76029255D01*
X145885847Y-76025003D01*
X145905565Y-75850003D01*
X145905565Y-75849996D01*
X145885369Y-75670750D01*
X145885368Y-75670745D01*
X145857791Y-75591935D01*
X145825789Y-75500478D01*
X145807106Y-75470745D01*
X145779241Y-75426397D01*
X145729816Y-75347738D01*
X145648390Y-75266312D01*
X145614905Y-75204989D01*
X145619889Y-75135297D01*
X145658568Y-75083629D01*
X145658398Y-75083459D01*
X145659581Y-75082275D01*
X145661761Y-75079364D01*
X145661766Y-75079360D01*
X145664671Y-75077185D01*
X145750830Y-74962092D01*
X145750834Y-74962085D01*
X145801076Y-74827378D01*
X145801078Y-74827371D01*
X145807479Y-74767843D01*
X145807480Y-74767826D01*
X145807480Y-73469999D01*
X143807480Y-73469999D01*
X143807480Y-74767843D01*
X143813881Y-74827371D01*
X143813883Y-74827378D01*
X143864125Y-74962085D01*
X143864129Y-74962092D01*
X143950289Y-75077186D01*
X143950292Y-75077189D01*
X144065386Y-75163349D01*
X144065393Y-75163353D01*
X144200100Y-75213595D01*
X144200107Y-75213597D01*
X144259635Y-75219998D01*
X144259652Y-75219999D01*
X144326087Y-75219999D01*
X144393126Y-75239684D01*
X144438881Y-75292488D01*
X144448825Y-75361646D01*
X144431081Y-75409968D01*
X144374212Y-75500476D01*
X144374211Y-75500478D01*
X144371188Y-75506756D01*
X144369366Y-75505878D01*
X144346694Y-75541935D01*
X144224528Y-75664103D01*
X144216928Y-75675478D01*
X144186862Y-75720477D01*
X144142399Y-75787019D01*
X144142392Y-75787031D01*
X144085823Y-75923602D01*
X144085820Y-75923612D01*
X144056980Y-76068599D01*
X144056980Y-76260248D01*
X144037295Y-76327287D01*
X144007292Y-76359514D01*
X143949937Y-76402450D01*
X143949931Y-76402456D01*
X143863686Y-76517663D01*
X143863682Y-76517670D01*
X143813388Y-76652516D01*
X143806981Y-76712115D01*
X143806981Y-76712122D01*
X143806980Y-76712134D01*
X143806980Y-77385499D01*
X143787295Y-77452538D01*
X143734491Y-77498293D01*
X143682980Y-77509499D01*
X143391977Y-77509499D01*
X143324938Y-77489814D01*
X143279183Y-77437010D01*
X143267977Y-77385499D01*
X143267977Y-76712128D01*
X143267976Y-76712122D01*
X143267975Y-76712115D01*
X143261569Y-76652516D01*
X143261569Y-76652515D01*
X143212809Y-76521782D01*
X143207825Y-76452090D01*
X143241310Y-76390768D01*
X143283817Y-76348261D01*
X143329816Y-76302262D01*
X143425789Y-76149522D01*
X143485368Y-75979255D01*
X143491392Y-75925789D01*
X143505565Y-75800003D01*
X143505565Y-75799996D01*
X143485369Y-75620750D01*
X143485368Y-75620745D01*
X143467018Y-75568303D01*
X143425789Y-75450478D01*
X143413977Y-75431680D01*
X143355537Y-75338673D01*
X143329816Y-75297738D01*
X143202262Y-75170184D01*
X143197338Y-75165260D01*
X143198677Y-75163920D01*
X143163965Y-75114465D01*
X143161116Y-75044653D01*
X143182153Y-75000396D01*
X143210830Y-74962088D01*
X143210832Y-74962085D01*
X143261074Y-74827378D01*
X143261076Y-74827371D01*
X143267477Y-74767843D01*
X143267478Y-74767826D01*
X143267478Y-73469999D01*
X141267478Y-73469999D01*
X141267478Y-74724549D01*
X141247793Y-74791588D01*
X141194989Y-74837343D01*
X141129595Y-74847769D01*
X141100004Y-74844435D01*
X141099996Y-74844435D01*
X140920750Y-74864630D01*
X140920739Y-74864633D01*
X140892432Y-74874538D01*
X140822653Y-74878099D01*
X140762026Y-74843369D01*
X140729800Y-74781376D01*
X140727479Y-74757496D01*
X140727479Y-73469999D01*
X139977479Y-73469999D01*
X139977479Y-75219999D01*
X140169270Y-75219999D01*
X140236309Y-75239684D01*
X140282064Y-75292488D01*
X140292008Y-75361646D01*
X140262983Y-75425202D01*
X140256951Y-75431680D01*
X139465450Y-76223180D01*
X139404127Y-76256665D01*
X139377770Y-76259499D01*
X139179609Y-76259499D01*
X139179602Y-76259500D01*
X139119995Y-76265907D01*
X138985150Y-76316201D01*
X138985143Y-76316205D01*
X138869934Y-76402451D01*
X138869931Y-76402454D01*
X138783685Y-76517663D01*
X138783681Y-76517670D01*
X138733387Y-76652516D01*
X138726980Y-76712115D01*
X138726980Y-76712122D01*
X138726979Y-76712134D01*
X138726979Y-79807869D01*
X134189127Y-79807869D01*
X134225789Y-79749522D01*
X134285368Y-79579255D01*
X134285369Y-79579249D01*
X134305565Y-79400003D01*
X134305565Y-79399996D01*
X134285369Y-79220750D01*
X134285368Y-79220745D01*
X134241941Y-79096639D01*
X134225789Y-79050478D01*
X134225707Y-79050348D01*
X134129815Y-78897737D01*
X134002262Y-78770184D01*
X133849523Y-78674211D01*
X133679254Y-78614631D01*
X133679249Y-78614630D01*
X133500004Y-78594435D01*
X133499996Y-78594435D01*
X133320750Y-78614630D01*
X133320745Y-78614631D01*
X133150476Y-78674211D01*
X132997737Y-78770184D01*
X132870184Y-78897737D01*
X132806346Y-78999334D01*
X132799332Y-79010499D01*
X132774293Y-79050348D01*
X132721958Y-79096639D01*
X132683183Y-79107596D01*
X132620750Y-79114630D01*
X132450478Y-79174210D01*
X132297737Y-79270184D01*
X132170184Y-79397737D01*
X132074211Y-79550476D01*
X132014631Y-79720745D01*
X132014630Y-79720750D01*
X131994435Y-79899996D01*
X131994435Y-79900003D01*
X131662979Y-79900003D01*
X131662979Y-77100003D01*
X133594435Y-77100003D01*
X133614630Y-77279249D01*
X133614631Y-77279254D01*
X133674211Y-77449523D01*
X133720245Y-77522785D01*
X133770184Y-77602262D01*
X133897738Y-77729816D01*
X133969648Y-77775000D01*
X134050478Y-77825789D01*
X134199726Y-77878013D01*
X134256502Y-77918735D01*
X134270161Y-77943750D01*
X134271193Y-77943254D01*
X134274212Y-77949524D01*
X134284814Y-77966397D01*
X134370184Y-78102262D01*
X134497738Y-78229816D01*
X134650478Y-78325789D01*
X134713708Y-78347914D01*
X134820745Y-78385368D01*
X134820750Y-78385369D01*
X134999996Y-78405565D01*
X135000000Y-78405565D01*
X135000004Y-78405565D01*
X135179249Y-78385369D01*
X135179252Y-78385368D01*
X135179255Y-78385368D01*
X135349522Y-78325789D01*
X135502262Y-78229816D01*
X135629816Y-78102262D01*
X135725789Y-77949522D01*
X135785368Y-77779255D01*
X135785369Y-77779249D01*
X135805565Y-77600003D01*
X135805565Y-77599996D01*
X135785369Y-77420750D01*
X135785368Y-77420745D01*
X135772354Y-77383553D01*
X135725789Y-77250478D01*
X135629816Y-77097738D01*
X135502262Y-76970184D01*
X135461439Y-76944533D01*
X135349521Y-76874210D01*
X135200274Y-76821987D01*
X135143498Y-76781265D01*
X135129845Y-76756252D01*
X135128810Y-76756751D01*
X135125789Y-76750477D01*
X135029815Y-76597737D01*
X134902262Y-76470184D01*
X134749523Y-76374211D01*
X134579254Y-76314631D01*
X134579249Y-76314630D01*
X134400004Y-76294435D01*
X134399996Y-76294435D01*
X134220750Y-76314630D01*
X134220745Y-76314631D01*
X134050476Y-76374211D01*
X133897737Y-76470184D01*
X133770184Y-76597737D01*
X133674211Y-76750476D01*
X133614631Y-76920745D01*
X133614630Y-76920750D01*
X133594435Y-77099996D01*
X133594435Y-77100003D01*
X131662979Y-77100003D01*
X131662979Y-73469999D01*
X138727479Y-73469999D01*
X138727479Y-74767843D01*
X138733880Y-74827371D01*
X138733882Y-74827378D01*
X138784124Y-74962085D01*
X138784128Y-74962092D01*
X138870288Y-75077186D01*
X138870291Y-75077189D01*
X138985385Y-75163349D01*
X138985392Y-75163353D01*
X139120099Y-75213595D01*
X139120106Y-75213597D01*
X139179634Y-75219998D01*
X139179651Y-75219999D01*
X139477479Y-75219999D01*
X139477479Y-73469999D01*
X138727479Y-73469999D01*
X131662979Y-73469999D01*
X131662979Y-72969999D01*
X138727479Y-72969999D01*
X139477479Y-72969999D01*
X139477479Y-71219999D01*
X139977479Y-71219999D01*
X139977479Y-72969999D01*
X140727479Y-72969999D01*
X141267478Y-72969999D01*
X142017478Y-72969999D01*
X142017478Y-71219999D01*
X142517478Y-71219999D01*
X142517478Y-72969999D01*
X143267478Y-72969999D01*
X143807480Y-72969999D01*
X144557480Y-72969999D01*
X144557480Y-71219999D01*
X145057480Y-71219999D01*
X145057480Y-72969999D01*
X145807480Y-72969999D01*
X146347479Y-72969999D01*
X147097479Y-72969999D01*
X147097479Y-71219999D01*
X147597479Y-71219999D01*
X147597479Y-72969999D01*
X148347479Y-72969999D01*
X148347479Y-71672171D01*
X148347478Y-71672154D01*
X148341077Y-71612626D01*
X148341075Y-71612619D01*
X148290833Y-71477912D01*
X148290829Y-71477905D01*
X148204669Y-71362811D01*
X148204666Y-71362808D01*
X148089572Y-71276648D01*
X148089565Y-71276644D01*
X147954858Y-71226402D01*
X147954851Y-71226400D01*
X147895323Y-71219999D01*
X147597479Y-71219999D01*
X147097479Y-71219999D01*
X146799634Y-71219999D01*
X146740106Y-71226400D01*
X146740099Y-71226402D01*
X146605392Y-71276644D01*
X146605385Y-71276648D01*
X146490291Y-71362808D01*
X146490288Y-71362811D01*
X146404128Y-71477905D01*
X146404124Y-71477912D01*
X146353882Y-71612619D01*
X146353880Y-71612626D01*
X146347479Y-71672154D01*
X146347479Y-72969999D01*
X145807480Y-72969999D01*
X145807480Y-71672171D01*
X145807479Y-71672154D01*
X145801078Y-71612626D01*
X145801076Y-71612619D01*
X145750834Y-71477912D01*
X145750830Y-71477905D01*
X145664670Y-71362811D01*
X145664667Y-71362808D01*
X145549573Y-71276648D01*
X145549566Y-71276644D01*
X145414859Y-71226402D01*
X145414852Y-71226400D01*
X145355324Y-71219999D01*
X145057480Y-71219999D01*
X144557480Y-71219999D01*
X144259635Y-71219999D01*
X144200107Y-71226400D01*
X144200100Y-71226402D01*
X144065393Y-71276644D01*
X144065386Y-71276648D01*
X143950292Y-71362808D01*
X143950289Y-71362811D01*
X143864129Y-71477905D01*
X143864125Y-71477912D01*
X143813883Y-71612619D01*
X143813881Y-71612626D01*
X143807480Y-71672154D01*
X143807480Y-72969999D01*
X143267478Y-72969999D01*
X143267478Y-71672171D01*
X143267477Y-71672154D01*
X143261076Y-71612626D01*
X143261074Y-71612619D01*
X143210832Y-71477912D01*
X143210828Y-71477905D01*
X143124668Y-71362811D01*
X143124665Y-71362808D01*
X143009571Y-71276648D01*
X143009564Y-71276644D01*
X142874857Y-71226402D01*
X142874850Y-71226400D01*
X142815322Y-71219999D01*
X142517478Y-71219999D01*
X142017478Y-71219999D01*
X141719633Y-71219999D01*
X141660105Y-71226400D01*
X141660098Y-71226402D01*
X141525391Y-71276644D01*
X141525384Y-71276648D01*
X141410290Y-71362808D01*
X141410287Y-71362811D01*
X141324127Y-71477905D01*
X141324123Y-71477912D01*
X141273881Y-71612619D01*
X141273879Y-71612626D01*
X141267478Y-71672154D01*
X141267478Y-72969999D01*
X140727479Y-72969999D01*
X140727479Y-71672171D01*
X140727478Y-71672154D01*
X140721077Y-71612626D01*
X140721075Y-71612619D01*
X140670833Y-71477912D01*
X140670829Y-71477905D01*
X140584669Y-71362811D01*
X140584666Y-71362808D01*
X140469572Y-71276648D01*
X140469565Y-71276644D01*
X140334858Y-71226402D01*
X140334851Y-71226400D01*
X140275323Y-71219999D01*
X139977479Y-71219999D01*
X139477479Y-71219999D01*
X139179634Y-71219999D01*
X139120106Y-71226400D01*
X139120099Y-71226402D01*
X138985392Y-71276644D01*
X138985385Y-71276648D01*
X138870291Y-71362808D01*
X138870288Y-71362811D01*
X138784128Y-71477905D01*
X138784124Y-71477912D01*
X138733882Y-71612619D01*
X138733880Y-71612626D01*
X138727479Y-71672154D01*
X138727479Y-72969999D01*
X131662979Y-72969999D01*
X131662979Y-68777351D01*
X135186979Y-68777351D01*
X135219001Y-68979534D01*
X135282260Y-69174223D01*
X135375194Y-69356613D01*
X135495507Y-69522213D01*
X135640265Y-69666971D01*
X135795228Y-69779556D01*
X135805869Y-69787287D01*
X135922086Y-69846503D01*
X135988255Y-69880218D01*
X135988257Y-69880218D01*
X135988260Y-69880220D01*
X136092616Y-69914127D01*
X136182944Y-69943477D01*
X136284036Y-69959488D01*
X136385127Y-69975500D01*
X136385128Y-69975500D01*
X136589830Y-69975500D01*
X136589831Y-69975500D01*
X136792013Y-69943477D01*
X136986698Y-69880220D01*
X137169089Y-69787287D01*
X137262069Y-69719732D01*
X137334692Y-69666971D01*
X137334694Y-69666968D01*
X137334698Y-69666966D01*
X137479445Y-69522219D01*
X137479447Y-69522215D01*
X137479450Y-69522213D01*
X137532211Y-69449590D01*
X137599766Y-69356610D01*
X137692699Y-69174219D01*
X137755956Y-68979534D01*
X137787979Y-68777352D01*
X137787979Y-68777351D01*
X175186979Y-68777351D01*
X175219001Y-68979534D01*
X175282260Y-69174223D01*
X175375194Y-69356613D01*
X175495507Y-69522213D01*
X175640265Y-69666971D01*
X175795228Y-69779556D01*
X175805869Y-69787287D01*
X175922086Y-69846503D01*
X175988255Y-69880218D01*
X175988257Y-69880218D01*
X175988260Y-69880220D01*
X176092616Y-69914127D01*
X176182944Y-69943477D01*
X176284036Y-69959488D01*
X176385127Y-69975500D01*
X176385128Y-69975500D01*
X176589830Y-69975500D01*
X176589831Y-69975500D01*
X176792013Y-69943477D01*
X176986698Y-69880220D01*
X177169089Y-69787287D01*
X177262069Y-69719732D01*
X177334692Y-69666971D01*
X177334694Y-69666968D01*
X177334698Y-69666966D01*
X177479445Y-69522219D01*
X177479447Y-69522215D01*
X177479450Y-69522213D01*
X177532211Y-69449590D01*
X177599766Y-69356610D01*
X177692699Y-69174219D01*
X177755956Y-68979534D01*
X177787979Y-68777352D01*
X177787979Y-68572648D01*
X177755956Y-68370466D01*
X177742991Y-68330565D01*
X177726606Y-68280137D01*
X177692699Y-68175781D01*
X177692697Y-68175778D01*
X177692697Y-68175776D01*
X177658982Y-68109607D01*
X177599766Y-67993390D01*
X177547861Y-67921948D01*
X177479450Y-67827786D01*
X177334692Y-67683028D01*
X177169092Y-67562715D01*
X177169091Y-67562714D01*
X177169089Y-67562713D01*
X177095073Y-67525000D01*
X176986702Y-67469781D01*
X176792013Y-67406522D01*
X176617474Y-67378878D01*
X176589831Y-67374500D01*
X176385127Y-67374500D01*
X176360808Y-67378351D01*
X176182944Y-67406522D01*
X175988255Y-67469781D01*
X175805865Y-67562715D01*
X175640265Y-67683028D01*
X175495507Y-67827786D01*
X175375194Y-67993386D01*
X175282260Y-68175776D01*
X175219001Y-68370465D01*
X175186979Y-68572648D01*
X175186979Y-68777351D01*
X137787979Y-68777351D01*
X137787979Y-68572648D01*
X137755956Y-68370466D01*
X137742991Y-68330565D01*
X137726606Y-68280137D01*
X137692699Y-68175781D01*
X137692697Y-68175778D01*
X137692697Y-68175776D01*
X137658982Y-68109607D01*
X137599766Y-67993390D01*
X137547861Y-67921948D01*
X137479450Y-67827786D01*
X137334692Y-67683028D01*
X137169092Y-67562715D01*
X137169091Y-67562714D01*
X137169089Y-67562713D01*
X137095073Y-67525000D01*
X136986702Y-67469781D01*
X136792013Y-67406522D01*
X136617474Y-67378878D01*
X136589831Y-67374500D01*
X136385127Y-67374500D01*
X136360808Y-67378351D01*
X136182944Y-67406522D01*
X135988255Y-67469781D01*
X135805865Y-67562715D01*
X135640265Y-67683028D01*
X135495507Y-67827786D01*
X135375194Y-67993386D01*
X135282260Y-68175776D01*
X135219001Y-68370465D01*
X135186979Y-68572648D01*
X135186979Y-68777351D01*
X131662979Y-68777351D01*
X131662979Y-68752706D01*
X131663097Y-68747297D01*
X131664720Y-68710118D01*
X131681007Y-68337079D01*
X131681947Y-68326346D01*
X131735188Y-67921936D01*
X131737061Y-67911306D01*
X131825349Y-67513066D01*
X131828147Y-67502628D01*
X131838504Y-67469780D01*
X131950801Y-67113618D01*
X131954488Y-67103486D01*
X132110589Y-66726623D01*
X132115147Y-66716849D01*
X132203072Y-66547947D01*
X154604500Y-66547947D01*
X154607390Y-66584673D01*
X154607391Y-66584679D01*
X154653066Y-66741892D01*
X154653068Y-66741895D01*
X154736408Y-66882817D01*
X154736412Y-66882822D01*
X154738175Y-66884585D01*
X154739116Y-66886308D01*
X154741193Y-66888986D01*
X154740761Y-66889320D01*
X154771664Y-66945906D01*
X154774500Y-66972272D01*
X154774500Y-67059719D01*
X154755494Y-67125690D01*
X154724209Y-67175479D01*
X154664633Y-67345737D01*
X154664630Y-67345750D01*
X154644435Y-67524996D01*
X154644435Y-67525003D01*
X154664630Y-67704249D01*
X154664631Y-67704254D01*
X154724211Y-67874523D01*
X154798898Y-67993386D01*
X154820184Y-68027262D01*
X154947738Y-68154816D01*
X155100478Y-68250789D01*
X155199299Y-68285368D01*
X155270745Y-68310368D01*
X155270750Y-68310369D01*
X155449996Y-68330565D01*
X155450000Y-68330565D01*
X155450004Y-68330565D01*
X155629249Y-68310369D01*
X155629252Y-68310368D01*
X155629255Y-68310368D01*
X155799522Y-68250789D01*
X155952262Y-68154816D01*
X155953822Y-68153255D01*
X155955078Y-68152569D01*
X155957705Y-68150475D01*
X155958071Y-68150934D01*
X156015141Y-68119767D01*
X156084833Y-68124746D01*
X156107477Y-68135935D01*
X156250478Y-68225789D01*
X156420745Y-68285368D01*
X156420750Y-68285369D01*
X156599996Y-68305565D01*
X156600000Y-68305565D01*
X156600004Y-68305565D01*
X156779249Y-68285369D01*
X156779252Y-68285368D01*
X156779255Y-68285368D01*
X156949522Y-68225789D01*
X157102262Y-68129816D01*
X157112319Y-68119759D01*
X157173642Y-68086274D01*
X157243334Y-68091258D01*
X157287681Y-68119759D01*
X157322738Y-68154816D01*
X157475478Y-68250789D01*
X157574299Y-68285368D01*
X157645745Y-68310368D01*
X157645750Y-68310369D01*
X157824996Y-68330565D01*
X157825000Y-68330565D01*
X157825004Y-68330565D01*
X158004249Y-68310369D01*
X158004252Y-68310368D01*
X158004255Y-68310368D01*
X158174522Y-68250789D01*
X158327262Y-68154816D01*
X158387319Y-68094759D01*
X158448642Y-68061274D01*
X158518334Y-68066258D01*
X158562681Y-68094759D01*
X158597738Y-68129816D01*
X158750478Y-68225789D01*
X158821924Y-68250789D01*
X158920745Y-68285368D01*
X158920750Y-68285369D01*
X159099996Y-68305565D01*
X159100000Y-68305565D01*
X159100004Y-68305565D01*
X159279249Y-68285369D01*
X159279252Y-68285368D01*
X159279255Y-68285368D01*
X159449522Y-68225789D01*
X159602262Y-68129816D01*
X159729816Y-68002262D01*
X159820754Y-67857535D01*
X159873088Y-67811245D01*
X159942141Y-67800597D01*
X159966702Y-67806466D01*
X160120745Y-67860368D01*
X160120750Y-67860369D01*
X160299996Y-67880565D01*
X160300000Y-67880565D01*
X160300004Y-67880565D01*
X160479249Y-67860369D01*
X160479252Y-67860368D01*
X160479255Y-67860368D01*
X160649522Y-67800789D01*
X160802262Y-67704816D01*
X160929816Y-67577262D01*
X161025789Y-67424522D01*
X161085368Y-67254255D01*
X161101212Y-67113635D01*
X161105565Y-67075003D01*
X161105565Y-67074996D01*
X161085369Y-66895750D01*
X161085368Y-66895745D01*
X161031534Y-66741897D01*
X161025789Y-66725478D01*
X161023377Y-66721640D01*
X160937319Y-66584679D01*
X160929816Y-66572738D01*
X160802262Y-66445184D01*
X160649523Y-66349211D01*
X160479254Y-66289631D01*
X160479249Y-66289630D01*
X160300004Y-66269435D01*
X160299996Y-66269435D01*
X160120750Y-66289630D01*
X160120739Y-66289633D01*
X160085453Y-66301980D01*
X160015674Y-66305541D01*
X159955048Y-66270811D01*
X159922821Y-66208818D01*
X159920500Y-66184938D01*
X159920500Y-66147067D01*
X159920499Y-66147052D01*
X159918532Y-66122060D01*
X159917609Y-66110325D01*
X159910444Y-66085662D01*
X159871933Y-65953107D01*
X159871931Y-65953104D01*
X159871931Y-65953103D01*
X159862779Y-65937628D01*
X159845597Y-65869906D01*
X159862781Y-65811386D01*
X159871470Y-65796693D01*
X159871471Y-65796692D01*
X159916994Y-65640001D01*
X159916993Y-65640000D01*
X159746308Y-65640000D01*
X159679269Y-65620315D01*
X159658626Y-65603681D01*
X159655277Y-65600332D01*
X159655276Y-65600330D01*
X159539669Y-65484723D01*
X159433127Y-65413535D01*
X159433128Y-65413535D01*
X159433123Y-65413532D01*
X159348693Y-65378561D01*
X159301035Y-65340156D01*
X159271116Y-65351316D01*
X159238079Y-65349249D01*
X159189073Y-65339501D01*
X159189069Y-65339501D01*
X159060931Y-65339501D01*
X159060926Y-65339501D01*
X158949505Y-65361664D01*
X158927473Y-65359692D01*
X158901307Y-65378561D01*
X158816876Y-65413532D01*
X158710326Y-65484726D01*
X158619728Y-65575324D01*
X158619723Y-65575330D01*
X158619723Y-65575331D01*
X158613334Y-65584891D01*
X158559726Y-65629695D01*
X158510234Y-65640000D01*
X158311357Y-65640000D01*
X158248236Y-65622732D01*
X158231895Y-65613068D01*
X158231892Y-65613066D01*
X158074679Y-65567391D01*
X158074673Y-65567390D01*
X158037947Y-65564500D01*
X158037940Y-65564500D01*
X157562060Y-65564500D01*
X157562052Y-65564500D01*
X157525326Y-65567390D01*
X157525320Y-65567391D01*
X157368107Y-65613066D01*
X157368104Y-65613068D01*
X157351764Y-65622732D01*
X157288643Y-65640000D01*
X157040948Y-65640000D01*
X156977827Y-65622732D01*
X156973740Y-65620315D01*
X156931897Y-65595569D01*
X156931896Y-65595568D01*
X156931895Y-65595568D01*
X156931892Y-65595566D01*
X156774679Y-65549891D01*
X156774673Y-65549890D01*
X156737947Y-65547000D01*
X156737940Y-65547000D01*
X156262060Y-65547000D01*
X156262052Y-65547000D01*
X156225326Y-65549890D01*
X156225320Y-65549891D01*
X156068105Y-65595567D01*
X156060052Y-65600330D01*
X156051764Y-65605232D01*
X156051762Y-65605233D01*
X155988642Y-65622500D01*
X155949039Y-65622500D01*
X155885918Y-65605232D01*
X155883295Y-65603681D01*
X155856897Y-65588069D01*
X155856896Y-65588068D01*
X155856895Y-65588068D01*
X155856892Y-65588066D01*
X155699679Y-65542391D01*
X155699673Y-65542390D01*
X155662947Y-65539500D01*
X155662940Y-65539500D01*
X155187060Y-65539500D01*
X155187052Y-65539500D01*
X155150326Y-65542390D01*
X155150320Y-65542391D01*
X154993107Y-65588066D01*
X154993104Y-65588068D01*
X154982403Y-65594396D01*
X154980425Y-65595567D01*
X154976764Y-65597732D01*
X154913643Y-65615000D01*
X154608007Y-65615000D01*
X154608005Y-65615001D01*
X154653529Y-65771691D01*
X154653534Y-65771704D01*
X154662220Y-65786392D01*
X154679400Y-65854116D01*
X154662221Y-65912625D01*
X154653068Y-65928102D01*
X154653068Y-65928103D01*
X154607391Y-66085320D01*
X154607390Y-66085326D01*
X154604500Y-66122052D01*
X154604500Y-66547947D01*
X132203072Y-66547947D01*
X132303493Y-66355040D01*
X132308888Y-66345695D01*
X132528058Y-66001664D01*
X132534248Y-65992825D01*
X132782552Y-65669229D01*
X132789502Y-65660946D01*
X132789514Y-65660933D01*
X133065083Y-65360200D01*
X133072699Y-65352585D01*
X133331979Y-65114998D01*
X154608005Y-65114998D01*
X154608007Y-65115000D01*
X155175000Y-65115000D01*
X155175000Y-64570954D01*
X155150402Y-64572889D01*
X154993307Y-64618529D01*
X154993302Y-64618531D01*
X154852491Y-64701806D01*
X154852483Y-64701812D01*
X154736812Y-64817483D01*
X154736806Y-64817491D01*
X154653530Y-64958304D01*
X154653528Y-64958307D01*
X154608005Y-65114998D01*
X133331979Y-65114998D01*
X133373436Y-65077010D01*
X133381688Y-65070085D01*
X133705323Y-64821749D01*
X133714162Y-64815562D01*
X134058172Y-64596402D01*
X134067513Y-64591008D01*
X134106040Y-64570952D01*
X155675000Y-64570952D01*
X155675000Y-65115000D01*
X156250000Y-65115000D01*
X156250000Y-64578454D01*
X156225402Y-64580389D01*
X156068307Y-64626029D01*
X156068303Y-64626031D01*
X156031959Y-64647524D01*
X155964234Y-64664704D01*
X155905720Y-64647523D01*
X155856695Y-64618530D01*
X155856692Y-64618529D01*
X155718747Y-64578452D01*
X156750000Y-64578452D01*
X156750000Y-65122500D01*
X157294138Y-65122500D01*
X157353736Y-65140000D01*
X157550000Y-65140000D01*
X157550000Y-64595954D01*
X157525402Y-64597889D01*
X157368307Y-64643529D01*
X157368304Y-64643530D01*
X157223889Y-64728936D01*
X157156165Y-64746118D01*
X157089903Y-64723957D01*
X157073088Y-64709884D01*
X157072516Y-64709312D01*
X157072508Y-64709306D01*
X156931697Y-64626031D01*
X156931692Y-64626029D01*
X156828167Y-64595952D01*
X158050000Y-64595952D01*
X158050000Y-65140000D01*
X158849999Y-65140000D01*
X158850000Y-65139999D01*
X158850000Y-64595954D01*
X158825402Y-64597889D01*
X158668307Y-64643529D01*
X158668302Y-64643531D01*
X158527487Y-64726808D01*
X158525998Y-64727964D01*
X158524617Y-64728506D01*
X158520774Y-64730779D01*
X158520407Y-64730158D01*
X158460961Y-64753498D01*
X158392444Y-64739816D01*
X158374002Y-64727964D01*
X158372512Y-64726808D01*
X158231697Y-64643531D01*
X158231692Y-64643529D01*
X158074603Y-64597890D01*
X158074591Y-64597888D01*
X158050000Y-64595952D01*
X159350000Y-64595952D01*
X159350000Y-65140040D01*
X159355253Y-65149662D01*
X159396145Y-65140000D01*
X159916993Y-65140000D01*
X159916994Y-65139998D01*
X159871471Y-64983307D01*
X159871469Y-64983304D01*
X159788193Y-64842491D01*
X159788187Y-64842483D01*
X159672516Y-64726812D01*
X159672508Y-64726806D01*
X159531697Y-64643531D01*
X159531692Y-64643529D01*
X159374603Y-64597890D01*
X159374591Y-64597888D01*
X159350000Y-64595952D01*
X158050000Y-64595952D01*
X156828167Y-64595952D01*
X156774603Y-64580390D01*
X156774591Y-64580388D01*
X156750000Y-64578452D01*
X155718747Y-64578452D01*
X155699603Y-64572890D01*
X155699591Y-64572888D01*
X155675000Y-64570952D01*
X134106040Y-64570952D01*
X134429323Y-64402661D01*
X134439114Y-64398094D01*
X134815962Y-64241997D01*
X134826098Y-64238308D01*
X135215128Y-64115646D01*
X135225542Y-64112855D01*
X135623790Y-64024564D01*
X135634409Y-64022692D01*
X136038825Y-63969448D01*
X136049563Y-63968508D01*
X136459297Y-63950618D01*
X136464706Y-63950500D01*
X136502362Y-63950500D01*
X176422598Y-63950500D01*
X176459775Y-63950500D01*
X176465182Y-63950617D01*
G37*
G04 #@! TD.AperFunction*
G04 #@! TA.AperFunction,Conductor*
G36*
X181183368Y-82375981D02*
G01*
X181238550Y-82418839D01*
X181261801Y-82484726D01*
X181261979Y-82491375D01*
X181261979Y-93868623D01*
X181242294Y-93935662D01*
X181189490Y-93981417D01*
X181120332Y-93991361D01*
X181056776Y-93962336D01*
X181022731Y-93909360D01*
X181021309Y-93909891D01*
X180968354Y-93767912D01*
X180968350Y-93767905D01*
X180882190Y-93652811D01*
X180882187Y-93652808D01*
X180767093Y-93566648D01*
X180767086Y-93566644D01*
X180632379Y-93516402D01*
X180632372Y-93516400D01*
X180572844Y-93509999D01*
X179860000Y-93509999D01*
X179860000Y-94705999D01*
X179840315Y-94773038D01*
X179787511Y-94818793D01*
X179736000Y-94829999D01*
X178195000Y-94829999D01*
X178195000Y-95197843D01*
X178201401Y-95257371D01*
X178201403Y-95257378D01*
X178251645Y-95392085D01*
X178251649Y-95392092D01*
X178337809Y-95507186D01*
X178381097Y-95539592D01*
X178422967Y-95595526D01*
X178427951Y-95665218D01*
X178394465Y-95726540D01*
X178333142Y-95760025D01*
X178306088Y-95762855D01*
X177223153Y-95756769D01*
X170469232Y-95718808D01*
X170402304Y-95698747D01*
X170356847Y-95645687D01*
X170347292Y-95576473D01*
X170376674Y-95513082D01*
X170382177Y-95507204D01*
X170468350Y-95392093D01*
X170468354Y-95392086D01*
X170518596Y-95257379D01*
X170518598Y-95257372D01*
X170524999Y-95197844D01*
X170525000Y-95197827D01*
X170525000Y-95050000D01*
X166195000Y-95050000D01*
X166195000Y-95197844D01*
X166201401Y-95257372D01*
X166201403Y-95257379D01*
X166251645Y-95392086D01*
X166251646Y-95392088D01*
X166329939Y-95496673D01*
X166354356Y-95562137D01*
X166339505Y-95630410D01*
X166290100Y-95679816D01*
X166229975Y-95694981D01*
X164330373Y-95684305D01*
X164330372Y-95684305D01*
X164330367Y-95684305D01*
X164266696Y-95691026D01*
X164219221Y-95696037D01*
X164219216Y-95696037D01*
X164219216Y-95696038D01*
X164165987Y-95707714D01*
X164165984Y-95707715D01*
X164060129Y-95743586D01*
X164060127Y-95743587D01*
X163939805Y-95822471D01*
X163939803Y-95822473D01*
X163887419Y-95868706D01*
X163887414Y-95868711D01*
X163794191Y-95978295D01*
X163794190Y-95978297D01*
X163735618Y-96109702D01*
X163735614Y-96109714D01*
X163717310Y-96174218D01*
X163716740Y-96176066D01*
X163716542Y-96176919D01*
X163699922Y-96300500D01*
X163697363Y-96319524D01*
X163704920Y-97149372D01*
X163685848Y-97216587D01*
X163633463Y-97262821D01*
X163580926Y-97274500D01*
X163439944Y-97274500D01*
X163274773Y-97315210D01*
X163124150Y-97394263D01*
X162996816Y-97507072D01*
X162900182Y-97647068D01*
X162900182Y-97647069D01*
X162839861Y-97806122D01*
X162838067Y-97813405D01*
X162835909Y-97812873D01*
X162812639Y-97866919D01*
X162804858Y-97875461D01*
X162496238Y-98184082D01*
X162434917Y-98217566D01*
X162408559Y-98220400D01*
X161252083Y-98220400D01*
X161185044Y-98200715D01*
X161139289Y-98147911D01*
X161128987Y-98111347D01*
X161124886Y-98077569D01*
X161110140Y-97956128D01*
X161090173Y-97903480D01*
X161068073Y-97845206D01*
X161049818Y-97797070D01*
X160953183Y-97657071D01*
X160953181Y-97657069D01*
X160911977Y-97620565D01*
X160874850Y-97561376D01*
X160875618Y-97491510D01*
X160914036Y-97433151D01*
X160977906Y-97404826D01*
X160994204Y-97403750D01*
X161601191Y-97403750D01*
X161601194Y-97403750D01*
X161748389Y-97364309D01*
X161880361Y-97288115D01*
X162988116Y-96180360D01*
X163064309Y-96048389D01*
X163074652Y-96009789D01*
X163080770Y-95986959D01*
X163095834Y-95930736D01*
X163103750Y-95901194D01*
X163103750Y-94550000D01*
X166195000Y-94550000D01*
X168110000Y-94550000D01*
X168110000Y-93950000D01*
X168610000Y-93950000D01*
X168610000Y-94550000D01*
X170525000Y-94550000D01*
X170525000Y-94402172D01*
X170524999Y-94402155D01*
X170518598Y-94342627D01*
X170518596Y-94342620D01*
X170513889Y-94329999D01*
X178195000Y-94329999D01*
X179360000Y-94329999D01*
X179360000Y-93509999D01*
X178647155Y-93509999D01*
X178587627Y-93516400D01*
X178587620Y-93516402D01*
X178452913Y-93566644D01*
X178452906Y-93566648D01*
X178337812Y-93652808D01*
X178337809Y-93652811D01*
X178251649Y-93767905D01*
X178251645Y-93767912D01*
X178201403Y-93902619D01*
X178201401Y-93902626D01*
X178195000Y-93962154D01*
X178195000Y-94329999D01*
X170513889Y-94329999D01*
X170468354Y-94207913D01*
X170468350Y-94207906D01*
X170382190Y-94092812D01*
X170382187Y-94092809D01*
X170267093Y-94006649D01*
X170267086Y-94006645D01*
X170132379Y-93956403D01*
X170132372Y-93956401D01*
X170072844Y-93950000D01*
X168610000Y-93950000D01*
X168110000Y-93950000D01*
X166647155Y-93950000D01*
X166587627Y-93956401D01*
X166587620Y-93956403D01*
X166452913Y-94006645D01*
X166452906Y-94006649D01*
X166337812Y-94092809D01*
X166337809Y-94092812D01*
X166251649Y-94207906D01*
X166251645Y-94207913D01*
X166201403Y-94342620D01*
X166201401Y-94342627D01*
X166195000Y-94402155D01*
X166195000Y-94550000D01*
X163103750Y-94550000D01*
X163103750Y-93991088D01*
X163123435Y-93924049D01*
X163140069Y-93903407D01*
X163533477Y-93509999D01*
X163940681Y-93102794D01*
X164002002Y-93069311D01*
X164071693Y-93074295D01*
X164127627Y-93116167D01*
X164144302Y-93146506D01*
X164175182Y-93227930D01*
X164175182Y-93227931D01*
X164220971Y-93294266D01*
X164271817Y-93367929D01*
X164375506Y-93459789D01*
X164399150Y-93480736D01*
X164525539Y-93547070D01*
X164549775Y-93559790D01*
X164714944Y-93600500D01*
X164885056Y-93600500D01*
X165050225Y-93559790D01*
X165200852Y-93480734D01*
X165281443Y-93409336D01*
X165344673Y-93379616D01*
X165413937Y-93388799D01*
X165421276Y-93392348D01*
X165549775Y-93459790D01*
X165714944Y-93500500D01*
X165885056Y-93500500D01*
X166050225Y-93459790D01*
X166162456Y-93400886D01*
X166200845Y-93380738D01*
X166200847Y-93380736D01*
X166200852Y-93380734D01*
X166239050Y-93346893D01*
X166302281Y-93317172D01*
X166371545Y-93326354D01*
X166395588Y-93340441D01*
X166452911Y-93383352D01*
X166452913Y-93383354D01*
X166587620Y-93433596D01*
X166587627Y-93433598D01*
X166647155Y-93439999D01*
X166647172Y-93440000D01*
X166910000Y-93440000D01*
X166910000Y-92740000D01*
X167410000Y-92740000D01*
X167410000Y-93440000D01*
X167672828Y-93440000D01*
X167672844Y-93439999D01*
X167732372Y-93433598D01*
X167732379Y-93433596D01*
X167867086Y-93383354D01*
X167867093Y-93383350D01*
X167982187Y-93297190D01*
X167982190Y-93297187D01*
X168068350Y-93182093D01*
X168068354Y-93182086D01*
X168118596Y-93047379D01*
X168118598Y-93047372D01*
X168124999Y-92987844D01*
X168125000Y-92987827D01*
X168125000Y-92740000D01*
X167410000Y-92740000D01*
X166910000Y-92740000D01*
X166910000Y-92364000D01*
X166929685Y-92296961D01*
X166982489Y-92251206D01*
X167034000Y-92240000D01*
X168125000Y-92240000D01*
X168125000Y-92002750D01*
X168144685Y-91935711D01*
X168197489Y-91889956D01*
X168249000Y-91878750D01*
X179101192Y-91878750D01*
X179101195Y-91878750D01*
X179248390Y-91839309D01*
X179380362Y-91763115D01*
X179556658Y-91586817D01*
X179617981Y-91553333D01*
X179644339Y-91550499D01*
X180222872Y-91550499D01*
X180222873Y-91550499D01*
X180282484Y-91544091D01*
X180417332Y-91493796D01*
X180532547Y-91407546D01*
X180618797Y-91292331D01*
X180669092Y-91157483D01*
X180675501Y-91097873D01*
X180675500Y-90302128D01*
X180669092Y-90242517D01*
X180650745Y-90193329D01*
X180645762Y-90123640D01*
X180650743Y-90106672D01*
X180669091Y-90057483D01*
X180675500Y-89997873D01*
X180675499Y-89202128D01*
X180669091Y-89142517D01*
X180661600Y-89122432D01*
X180650747Y-89093334D01*
X180645762Y-89023643D01*
X180650747Y-89006665D01*
X180669091Y-88957483D01*
X180675500Y-88897873D01*
X180675499Y-88102128D01*
X180669091Y-88042517D01*
X180666991Y-88036886D01*
X180650747Y-87993334D01*
X180645762Y-87923643D01*
X180650747Y-87906665D01*
X180663516Y-87872431D01*
X180669091Y-87857483D01*
X180675500Y-87797873D01*
X180675499Y-87002128D01*
X180669091Y-86942517D01*
X180664274Y-86929601D01*
X180650747Y-86893334D01*
X180645762Y-86823643D01*
X180650747Y-86806665D01*
X180664143Y-86770750D01*
X180669091Y-86757483D01*
X180675500Y-86697873D01*
X180675499Y-85902128D01*
X180669091Y-85842517D01*
X180666990Y-85836885D01*
X180650480Y-85792618D01*
X180645495Y-85722927D01*
X180650480Y-85705949D01*
X180668597Y-85657375D01*
X180668598Y-85657372D01*
X180674999Y-85597844D01*
X180675000Y-85597827D01*
X180675000Y-85450000D01*
X180234167Y-85450000D01*
X180226188Y-85449572D01*
X180226183Y-85449678D01*
X180222879Y-85449500D01*
X180222873Y-85449500D01*
X180222866Y-85449500D01*
X179027129Y-85449500D01*
X179023805Y-85449679D01*
X179023799Y-85449573D01*
X179015837Y-85450000D01*
X178575000Y-85450000D01*
X178575000Y-85597250D01*
X178555315Y-85664289D01*
X178502511Y-85710044D01*
X178451000Y-85721250D01*
X176823806Y-85721250D01*
X176697457Y-85755105D01*
X176697456Y-85755104D01*
X176676611Y-85760690D01*
X176572525Y-85820784D01*
X176557857Y-85829254D01*
X176544636Y-85836887D01*
X173096593Y-89284931D01*
X173035270Y-89318416D01*
X173008912Y-89321250D01*
X172596588Y-89321250D01*
X172529549Y-89301565D01*
X172483794Y-89248761D01*
X172473850Y-89179603D01*
X172502875Y-89116047D01*
X172508907Y-89109569D01*
X176903407Y-84715069D01*
X176964730Y-84681584D01*
X176991088Y-84678750D01*
X178451000Y-84678750D01*
X178518039Y-84698435D01*
X178563794Y-84751239D01*
X178575000Y-84802750D01*
X178575000Y-84950000D01*
X179015833Y-84950000D01*
X179023811Y-84950427D01*
X179023817Y-84950322D01*
X179027102Y-84950497D01*
X179027127Y-84950500D01*
X180222872Y-84950499D01*
X180222873Y-84950498D01*
X180226195Y-84950321D01*
X180226200Y-84950426D01*
X180234163Y-84950000D01*
X180675000Y-84950000D01*
X180675000Y-84802172D01*
X180674999Y-84802155D01*
X180668598Y-84742627D01*
X180650479Y-84694048D01*
X180645495Y-84624356D01*
X180650476Y-84607391D01*
X180669091Y-84557483D01*
X180675500Y-84497873D01*
X180675499Y-83702128D01*
X180669091Y-83642517D01*
X180650747Y-83593335D01*
X180645761Y-83523644D01*
X180650744Y-83506674D01*
X180669092Y-83457483D01*
X180675501Y-83397873D01*
X180675500Y-82913606D01*
X180695184Y-82846569D01*
X180747988Y-82800814D01*
X180756171Y-82797425D01*
X180767089Y-82793353D01*
X180767091Y-82793351D01*
X180882187Y-82707190D01*
X180882190Y-82707187D01*
X180968350Y-82592093D01*
X180968354Y-82592086D01*
X181021309Y-82450108D01*
X181023995Y-82451109D01*
X181051868Y-82402151D01*
X181113776Y-82369760D01*
X181183368Y-82375981D01*
G37*
G04 #@! TD.AperFunction*
G04 #@! TA.AperFunction,Conductor*
G36*
X161015433Y-92505555D02*
G01*
X161071366Y-92547427D01*
X161095319Y-92607853D01*
X161114630Y-92779250D01*
X161114631Y-92779254D01*
X161174211Y-92949523D01*
X161249204Y-93068872D01*
X161270184Y-93102262D01*
X161397738Y-93229816D01*
X161488080Y-93286582D01*
X161537623Y-93317712D01*
X161550478Y-93325789D01*
X161670907Y-93367929D01*
X161720745Y-93385368D01*
X161720750Y-93385369D01*
X161838436Y-93398628D01*
X161858473Y-93400886D01*
X161922887Y-93427952D01*
X161962442Y-93485547D01*
X161964580Y-93555384D01*
X161964365Y-93556199D01*
X161946250Y-93623806D01*
X161946250Y-95533912D01*
X161926565Y-95600951D01*
X161909931Y-95621593D01*
X161321593Y-96209931D01*
X161260270Y-96243416D01*
X161233912Y-96246250D01*
X157471588Y-96246250D01*
X157404549Y-96226565D01*
X157358794Y-96173761D01*
X157348850Y-96104603D01*
X157377875Y-96041047D01*
X157383907Y-96034569D01*
X158250758Y-95167718D01*
X160884420Y-92534054D01*
X160945741Y-92500571D01*
X161015433Y-92505555D01*
G37*
G04 #@! TD.AperFunction*
G04 #@! TA.AperFunction,Conductor*
G36*
X147172520Y-92946494D02*
G01*
X147228454Y-92988365D01*
X147249291Y-93031838D01*
X147286486Y-93176703D01*
X147286489Y-93176711D01*
X147362620Y-93315194D01*
X147385723Y-93342245D01*
X147385734Y-93342256D01*
X147651811Y-93608332D01*
X147651822Y-93608342D01*
X147651829Y-93608349D01*
X147651835Y-93608354D01*
X147678874Y-93631450D01*
X147678877Y-93631452D01*
X147678880Y-93631454D01*
X147817369Y-93707589D01*
X147818843Y-93707967D01*
X147819871Y-93708579D01*
X147824624Y-93710461D01*
X147824320Y-93711227D01*
X147878882Y-93743699D01*
X147910073Y-93806220D01*
X147902511Y-93875680D01*
X147858597Y-93930024D01*
X147817690Y-93948470D01*
X147749772Y-93965210D01*
X147599150Y-94044263D01*
X147471816Y-94157072D01*
X147375182Y-94297068D01*
X147314860Y-94456125D01*
X147314859Y-94456130D01*
X147294355Y-94625000D01*
X147297654Y-94652172D01*
X147286193Y-94721096D01*
X147239289Y-94772881D01*
X147171833Y-94791088D01*
X147105242Y-94769935D01*
X147086877Y-94754799D01*
X147002262Y-94670184D01*
X146849521Y-94574210D01*
X146679249Y-94514630D01*
X146656711Y-94512091D01*
X146592297Y-94485024D01*
X146553553Y-94429825D01*
X146553120Y-94428588D01*
X146525789Y-94350478D01*
X146525174Y-94349500D01*
X146429815Y-94197737D01*
X146302260Y-94070182D01*
X146165472Y-93984232D01*
X146119182Y-93931898D01*
X146108534Y-93862844D01*
X146136909Y-93798996D01*
X146173819Y-93769443D01*
X146176736Y-93767912D01*
X146306182Y-93699973D01*
X146360625Y-93654601D01*
X146758796Y-93256428D01*
X146769162Y-93247339D01*
X147041506Y-92974995D01*
X147102829Y-92941510D01*
X147172520Y-92946494D01*
G37*
G04 #@! TD.AperFunction*
G04 #@! TA.AperFunction,Conductor*
G36*
X180091709Y-96278400D02*
G01*
X180158635Y-96298461D01*
X180204092Y-96351521D01*
X180215007Y-96401556D01*
X180250842Y-101678268D01*
X180231613Y-101745440D01*
X180179121Y-101791552D01*
X180125876Y-101803106D01*
X164373612Y-101680041D01*
X164306729Y-101659834D01*
X164261388Y-101606674D01*
X164250586Y-101557177D01*
X164230530Y-99355000D01*
X164677479Y-99355000D01*
X164677479Y-100652844D01*
X164683880Y-100712372D01*
X164683882Y-100712379D01*
X164734124Y-100847086D01*
X164734128Y-100847093D01*
X164820288Y-100962187D01*
X164820291Y-100962190D01*
X164935385Y-101048350D01*
X164935392Y-101048354D01*
X165070099Y-101098596D01*
X165070106Y-101098598D01*
X165129634Y-101104999D01*
X165129651Y-101105000D01*
X165427479Y-101105000D01*
X165427479Y-99355000D01*
X165927479Y-99355000D01*
X165927479Y-101105000D01*
X166225307Y-101105000D01*
X166225323Y-101104999D01*
X166284851Y-101098598D01*
X166284858Y-101098596D01*
X166419565Y-101048354D01*
X166419572Y-101048350D01*
X166534666Y-100962190D01*
X166534669Y-100962187D01*
X166620829Y-100847093D01*
X166620833Y-100847086D01*
X166671075Y-100712379D01*
X166671077Y-100712372D01*
X166677478Y-100652844D01*
X166677479Y-100652827D01*
X166677479Y-99355000D01*
X167217478Y-99355000D01*
X167217478Y-100652844D01*
X167223879Y-100712372D01*
X167223881Y-100712379D01*
X167274123Y-100847086D01*
X167274127Y-100847093D01*
X167360287Y-100962187D01*
X167360290Y-100962190D01*
X167475384Y-101048350D01*
X167475391Y-101048354D01*
X167610098Y-101098596D01*
X167610105Y-101098598D01*
X167669633Y-101104999D01*
X167669650Y-101105000D01*
X167967478Y-101105000D01*
X167967478Y-99355000D01*
X168467478Y-99355000D01*
X168467478Y-101105000D01*
X168765306Y-101105000D01*
X168765322Y-101104999D01*
X168824850Y-101098598D01*
X168824857Y-101098596D01*
X168959564Y-101048354D01*
X168959571Y-101048350D01*
X169074665Y-100962190D01*
X169074668Y-100962187D01*
X169160828Y-100847093D01*
X169160832Y-100847086D01*
X169211074Y-100712379D01*
X169211076Y-100712372D01*
X169217477Y-100652844D01*
X169217478Y-100652827D01*
X169217478Y-99355000D01*
X169757480Y-99355000D01*
X169757480Y-100652844D01*
X169763881Y-100712372D01*
X169763883Y-100712379D01*
X169814125Y-100847086D01*
X169814129Y-100847093D01*
X169900289Y-100962187D01*
X169900292Y-100962190D01*
X170015386Y-101048350D01*
X170015393Y-101048354D01*
X170150100Y-101098596D01*
X170150107Y-101098598D01*
X170209635Y-101104999D01*
X170209652Y-101105000D01*
X170507480Y-101105000D01*
X170507480Y-99355000D01*
X171007480Y-99355000D01*
X171007480Y-101105000D01*
X171305308Y-101105000D01*
X171305324Y-101104999D01*
X171364852Y-101098598D01*
X171364859Y-101098596D01*
X171499566Y-101048354D01*
X171499573Y-101048350D01*
X171614667Y-100962190D01*
X171614670Y-100962187D01*
X171700830Y-100847093D01*
X171700834Y-100847086D01*
X171751076Y-100712379D01*
X171751078Y-100712372D01*
X171757479Y-100652844D01*
X171757480Y-100652827D01*
X171757480Y-99355000D01*
X172297479Y-99355000D01*
X172297479Y-100652844D01*
X172303880Y-100712372D01*
X172303882Y-100712379D01*
X172354124Y-100847086D01*
X172354128Y-100847093D01*
X172440288Y-100962187D01*
X172440291Y-100962190D01*
X172555385Y-101048350D01*
X172555392Y-101048354D01*
X172690099Y-101098596D01*
X172690106Y-101098598D01*
X172749634Y-101104999D01*
X172749651Y-101105000D01*
X173047479Y-101105000D01*
X173047479Y-99355000D01*
X173547479Y-99355000D01*
X173547479Y-101105000D01*
X173845307Y-101105000D01*
X173845323Y-101104999D01*
X173904851Y-101098598D01*
X173904858Y-101098596D01*
X174039565Y-101048354D01*
X174039572Y-101048350D01*
X174154666Y-100962190D01*
X174154669Y-100962187D01*
X174240829Y-100847093D01*
X174240833Y-100847086D01*
X174291075Y-100712379D01*
X174291077Y-100712372D01*
X174297478Y-100652844D01*
X174297479Y-100652827D01*
X174297479Y-99355000D01*
X173547479Y-99355000D01*
X173047479Y-99355000D01*
X172297479Y-99355000D01*
X171757480Y-99355000D01*
X171007480Y-99355000D01*
X170507480Y-99355000D01*
X169757480Y-99355000D01*
X169217478Y-99355000D01*
X168467478Y-99355000D01*
X167967478Y-99355000D01*
X167217478Y-99355000D01*
X166677479Y-99355000D01*
X165927479Y-99355000D01*
X165427479Y-99355000D01*
X164677479Y-99355000D01*
X164230530Y-99355000D01*
X164225976Y-98855000D01*
X164677479Y-98855000D01*
X165427479Y-98855000D01*
X165427479Y-97105000D01*
X165927479Y-97105000D01*
X165927479Y-98855000D01*
X166677479Y-98855000D01*
X167217478Y-98855000D01*
X167967478Y-98855000D01*
X167967478Y-97105000D01*
X168467478Y-97105000D01*
X168467478Y-98855000D01*
X169217478Y-98855000D01*
X169757480Y-98855000D01*
X170507480Y-98855000D01*
X170507480Y-97105000D01*
X171007480Y-97105000D01*
X171007480Y-98855000D01*
X171757480Y-98855000D01*
X172297479Y-98855000D01*
X173047479Y-98855000D01*
X173047479Y-97105000D01*
X173547479Y-97105000D01*
X173547479Y-98855000D01*
X174297479Y-98855000D01*
X174297479Y-97557172D01*
X174297478Y-97557155D01*
X174291077Y-97497627D01*
X174291075Y-97497620D01*
X174240833Y-97362913D01*
X174240829Y-97362906D01*
X174154669Y-97247812D01*
X174154666Y-97247809D01*
X174039572Y-97161649D01*
X174039565Y-97161645D01*
X173904858Y-97111403D01*
X173904851Y-97111401D01*
X173845323Y-97105000D01*
X173547479Y-97105000D01*
X173047479Y-97105000D01*
X172749634Y-97105000D01*
X172690106Y-97111401D01*
X172690099Y-97111403D01*
X172555392Y-97161645D01*
X172555385Y-97161649D01*
X172440291Y-97247809D01*
X172440288Y-97247812D01*
X172354128Y-97362906D01*
X172354124Y-97362913D01*
X172303882Y-97497620D01*
X172303880Y-97497627D01*
X172297479Y-97557155D01*
X172297479Y-98855000D01*
X171757480Y-98855000D01*
X171757480Y-97557172D01*
X171757479Y-97557155D01*
X171751078Y-97497627D01*
X171751076Y-97497620D01*
X171700834Y-97362913D01*
X171700830Y-97362906D01*
X171614670Y-97247812D01*
X171614667Y-97247809D01*
X171499573Y-97161649D01*
X171499566Y-97161645D01*
X171364859Y-97111403D01*
X171364852Y-97111401D01*
X171305324Y-97105000D01*
X171007480Y-97105000D01*
X170507480Y-97105000D01*
X170209635Y-97105000D01*
X170150107Y-97111401D01*
X170150100Y-97111403D01*
X170015393Y-97161645D01*
X170015386Y-97161649D01*
X169900292Y-97247809D01*
X169900289Y-97247812D01*
X169814129Y-97362906D01*
X169814125Y-97362913D01*
X169763883Y-97497620D01*
X169763881Y-97497627D01*
X169757480Y-97557155D01*
X169757480Y-98855000D01*
X169217478Y-98855000D01*
X169217478Y-97557172D01*
X169217477Y-97557155D01*
X169211076Y-97497627D01*
X169211074Y-97497620D01*
X169160832Y-97362913D01*
X169160828Y-97362906D01*
X169074668Y-97247812D01*
X169074665Y-97247809D01*
X168959571Y-97161649D01*
X168959564Y-97161645D01*
X168824857Y-97111403D01*
X168824850Y-97111401D01*
X168765322Y-97105000D01*
X168467478Y-97105000D01*
X167967478Y-97105000D01*
X167669633Y-97105000D01*
X167610105Y-97111401D01*
X167610098Y-97111403D01*
X167475391Y-97161645D01*
X167475384Y-97161649D01*
X167360290Y-97247809D01*
X167360287Y-97247812D01*
X167274127Y-97362906D01*
X167274123Y-97362913D01*
X167223881Y-97497620D01*
X167223879Y-97497627D01*
X167217478Y-97557155D01*
X167217478Y-98855000D01*
X166677479Y-98855000D01*
X166677479Y-97557172D01*
X166677478Y-97557155D01*
X166671077Y-97497627D01*
X166671075Y-97497620D01*
X166620833Y-97362913D01*
X166620829Y-97362906D01*
X166534669Y-97247812D01*
X166534666Y-97247809D01*
X166419572Y-97161649D01*
X166419565Y-97161645D01*
X166284858Y-97111403D01*
X166284851Y-97111401D01*
X166225323Y-97105000D01*
X165927479Y-97105000D01*
X165427479Y-97105000D01*
X165129634Y-97105000D01*
X165070106Y-97111401D01*
X165070099Y-97111403D01*
X164935392Y-97161645D01*
X164935385Y-97161649D01*
X164820291Y-97247809D01*
X164820288Y-97247812D01*
X164734128Y-97362906D01*
X164734124Y-97362913D01*
X164683882Y-97497620D01*
X164683880Y-97497627D01*
X164677479Y-97557155D01*
X164677479Y-98855000D01*
X164225976Y-98855000D01*
X164218920Y-98080222D01*
X164219818Y-98064163D01*
X164230645Y-97975000D01*
X164217766Y-97868935D01*
X164216870Y-97855170D01*
X164202842Y-96314920D01*
X164221915Y-96247708D01*
X164274300Y-96201474D01*
X164327532Y-96189797D01*
X180091709Y-96278400D01*
G37*
G04 #@! TD.AperFunction*
M02*
