G04 #@! TF.GenerationSoftware,KiCad,Pcbnew,8.0.1*
G04 #@! TF.CreationDate,2025-02-17T15:06:08+05:00*
G04 #@! TF.ProjectId,brain_board,62726169-6e5f-4626-9f61-72642e6b6963,rev?*
G04 #@! TF.SameCoordinates,Original*
G04 #@! TF.FileFunction,Copper,L2,Inr*
G04 #@! TF.FilePolarity,Positive*
%FSLAX46Y46*%
G04 Gerber Fmt 4.6, Leading zero omitted, Abs format (unit mm)*
G04 Created by KiCad (PCBNEW 8.0.1) date 2025-02-17 15:06:08*
%MOMM*%
%LPD*%
G01*
G04 APERTURE LIST*
G04 #@! TA.AperFunction,ComponentPad*
%ADD10O,1.000000X1.600000*%
G04 #@! TD*
G04 #@! TA.AperFunction,ComponentPad*
%ADD11O,1.000000X2.100000*%
G04 #@! TD*
G04 #@! TA.AperFunction,ViaPad*
%ADD12C,0.400000*%
G04 #@! TD*
G04 #@! TA.AperFunction,ViaPad*
%ADD13C,0.600000*%
G04 #@! TD*
G04 APERTURE END LIST*
D10*
X160645000Y-110525000D03*
D11*
X160645000Y-106345000D03*
D10*
X152005000Y-110525000D03*
D11*
X152005000Y-106345000D03*
D12*
X178935000Y-108255000D03*
X178935000Y-105715000D03*
X178935000Y-103175000D03*
X178935000Y-93015000D03*
X178935000Y-72695000D03*
X178935000Y-70155000D03*
X178935000Y-67615000D03*
X176395000Y-110795000D03*
X176395000Y-93015000D03*
X176395000Y-72695000D03*
X176395000Y-65075000D03*
X173855000Y-110795000D03*
X173855000Y-108255000D03*
X173855000Y-93015000D03*
X173855000Y-82855000D03*
X173855000Y-70155000D03*
X173855000Y-67615000D03*
X173855000Y-65075000D03*
X171315000Y-110795000D03*
X171315000Y-93015000D03*
X171315000Y-85395000D03*
X171315000Y-70155000D03*
X171315000Y-67615000D03*
X171315000Y-65075000D03*
X168775000Y-110795000D03*
X168775000Y-93015000D03*
X168775000Y-87935000D03*
X168775000Y-85395000D03*
X168775000Y-70155000D03*
X168775000Y-67615000D03*
X168775000Y-65075000D03*
X166235000Y-110795000D03*
X166235000Y-70155000D03*
X166235000Y-67615000D03*
X166235000Y-65075000D03*
X163695000Y-110795000D03*
X163695000Y-108255000D03*
X163695000Y-105715000D03*
X163695000Y-103175000D03*
X163695000Y-85395000D03*
X163695000Y-80315000D03*
X163695000Y-77775000D03*
X163695000Y-75235000D03*
X163695000Y-72695000D03*
X163695000Y-67615000D03*
X163695000Y-65075000D03*
X161155000Y-80315000D03*
X161155000Y-77775000D03*
X158615000Y-110795000D03*
X156075000Y-110795000D03*
X153535000Y-110795000D03*
X153535000Y-93015000D03*
X153535000Y-90475000D03*
X153535000Y-72695000D03*
X153535000Y-65075000D03*
X150995000Y-103175000D03*
X150995000Y-75235000D03*
X150995000Y-72695000D03*
X150995000Y-70155000D03*
X150995000Y-67615000D03*
X150995000Y-65075000D03*
X148455000Y-70155000D03*
X148455000Y-67615000D03*
X148455000Y-65075000D03*
X145915000Y-70155000D03*
X145915000Y-67615000D03*
X145915000Y-65075000D03*
X143375000Y-70155000D03*
X143375000Y-67615000D03*
X143375000Y-65075000D03*
X140835000Y-110795000D03*
X140835000Y-108255000D03*
X140835000Y-70155000D03*
X140835000Y-67615000D03*
X140835000Y-65075000D03*
X138295000Y-110795000D03*
X138295000Y-108255000D03*
X138295000Y-72695000D03*
X138295000Y-70155000D03*
X138295000Y-67615000D03*
X138295000Y-65075000D03*
X135755000Y-110795000D03*
X135755000Y-105715000D03*
X135755000Y-103175000D03*
X135755000Y-72695000D03*
X135755000Y-65075000D03*
X133215000Y-108255000D03*
X133215000Y-105715000D03*
X133215000Y-98095000D03*
X133215000Y-82855000D03*
X133215000Y-75235000D03*
X133215000Y-72695000D03*
X133215000Y-70155000D03*
X133215000Y-67615000D03*
D13*
X160800000Y-100100000D03*
D12*
X142900000Y-87375000D03*
X151125000Y-95100000D03*
X148550000Y-94575000D03*
X141750000Y-90350000D03*
D13*
X151950000Y-104500000D03*
X148750000Y-89600000D03*
X160800000Y-93600000D03*
X156500000Y-103700000D03*
X154200000Y-76700000D03*
X145700000Y-93900000D03*
D12*
X143600000Y-92800000D03*
X155375000Y-90350000D03*
D13*
X154675000Y-67025000D03*
X150550000Y-89825000D03*
X157300000Y-107500000D03*
X140700000Y-84100000D03*
X153650000Y-67000000D03*
X155800000Y-76900000D03*
X161900000Y-71275000D03*
X146600000Y-94450000D03*
X143800000Y-107600000D03*
X134600000Y-83700000D03*
D12*
X143225000Y-91900000D03*
X165100000Y-87900000D03*
D13*
X160475000Y-104575000D03*
D12*
X143500000Y-86225000D03*
D13*
X139500000Y-82800000D03*
X134150000Y-90250000D03*
X141600000Y-80200000D03*
X159900000Y-100100000D03*
X161800000Y-100100000D03*
X162600000Y-100100000D03*
X149500000Y-112100000D03*
D12*
X164400000Y-93300000D03*
D13*
X160700000Y-95800000D03*
X145900000Y-87300000D03*
D12*
X178600000Y-85400000D03*
D13*
X149150000Y-91100000D03*
X147950000Y-88025000D03*
X148750000Y-95850000D03*
D12*
X139975000Y-94375000D03*
D13*
X157125000Y-75125000D03*
X162875000Y-71225000D03*
D12*
X162300000Y-90300000D03*
X166275000Y-85000000D03*
D13*
X138900000Y-82100000D03*
D12*
X164700000Y-81550000D03*
D13*
X152750000Y-88200000D03*
X154700000Y-77600000D03*
X161400000Y-95200000D03*
X142900000Y-107600000D03*
X148900000Y-109700000D03*
X147325000Y-95175000D03*
D12*
X163000000Y-91600000D03*
D13*
X135900000Y-78500000D03*
D12*
X149750000Y-86775000D03*
X162700000Y-92900000D03*
X138500000Y-95400000D03*
D13*
X161700000Y-74800000D03*
D12*
X166300000Y-83125000D03*
D13*
X140100000Y-83500000D03*
X135300000Y-84100000D03*
D12*
X150925000Y-93875000D03*
X140900000Y-95200000D03*
X136800000Y-95250000D03*
X165900000Y-82075000D03*
X150300000Y-96175000D03*
D13*
X134200000Y-100050000D03*
X144800000Y-101600000D03*
D12*
X163000000Y-90600000D03*
D13*
X145175000Y-86700000D03*
X161300000Y-93100000D03*
X150400000Y-112100000D03*
D12*
X158025000Y-89625000D03*
D13*
X152950000Y-103800000D03*
X146800000Y-89350000D03*
X143100000Y-101700000D03*
D12*
X140600000Y-97200000D03*
X142600000Y-90250000D03*
D13*
X179200000Y-100525000D03*
X175600000Y-76200000D03*
X153275000Y-74675000D03*
X177675000Y-97025000D03*
X178200000Y-76300000D03*
X158100000Y-79200000D03*
X153200000Y-75800000D03*
X134400000Y-77100000D03*
X145175000Y-85650000D03*
X160300000Y-67075000D03*
X168250000Y-101325000D03*
X177800000Y-80300000D03*
X165175000Y-108175000D03*
X176700000Y-78000000D03*
X175800000Y-77300000D03*
X177000000Y-79100000D03*
X142600000Y-88325000D03*
X142700000Y-75800000D03*
X177675000Y-98725000D03*
X177700000Y-100625000D03*
X170350000Y-107000000D03*
X165275000Y-106850000D03*
X134300000Y-96700000D03*
X152500000Y-75200000D03*
X165625000Y-101275000D03*
X176900000Y-76300000D03*
X167950000Y-108150000D03*
X147600000Y-75900000D03*
X160600000Y-74775000D03*
D12*
X165800000Y-92800000D03*
D13*
X136800000Y-83400000D03*
X179400000Y-76400000D03*
X179500000Y-77600000D03*
X175000000Y-79800000D03*
X136800000Y-93725000D03*
X177900000Y-77800000D03*
X133500000Y-79400000D03*
X141100000Y-75650000D03*
X172525000Y-106900000D03*
X179500000Y-78900000D03*
X135000000Y-77600000D03*
X142200000Y-110900000D03*
X170775000Y-101275000D03*
X175700000Y-79000000D03*
X179500000Y-80300000D03*
X176300000Y-80300000D03*
X179225000Y-96975000D03*
X173300000Y-101250000D03*
X142300000Y-109900000D03*
X178300000Y-78900000D03*
X170400000Y-108150000D03*
X161900000Y-92600000D03*
D12*
X178700000Y-87400000D03*
D13*
X132800000Y-79900000D03*
X147700000Y-101100000D03*
X148300000Y-101600000D03*
X134050000Y-86950000D03*
X179225000Y-98700000D03*
X140400000Y-81300000D03*
X145100000Y-75850000D03*
X167925000Y-106925000D03*
X136100000Y-84000000D03*
X172350000Y-108150000D03*
X156600000Y-67500000D03*
X157025000Y-76025000D03*
X143925000Y-85650000D03*
X157750000Y-71650000D03*
X156075000Y-90450000D03*
X157825000Y-67525000D03*
X159100000Y-67500000D03*
X157400000Y-89400000D03*
X158925000Y-71875000D03*
D12*
X156400000Y-95100000D03*
X156400000Y-95800000D03*
X162800000Y-90100000D03*
X163600000Y-90500000D03*
X163100000Y-91100000D03*
X150450000Y-95600000D03*
X149075000Y-81875000D03*
X150750000Y-94450000D03*
X149275000Y-87125000D03*
X148000000Y-94625000D03*
X147350000Y-96625000D03*
X151625000Y-95350000D03*
D13*
X147975000Y-95850000D03*
X146500000Y-95300000D03*
X144900000Y-94100000D03*
X145800000Y-94700000D03*
D12*
X144050000Y-93250000D03*
D13*
X159475000Y-103800000D03*
X158100000Y-107400000D03*
D12*
X165850000Y-83525000D03*
X142800000Y-91525000D03*
X165950000Y-84475000D03*
X139725000Y-93875000D03*
D13*
X137900000Y-88850000D03*
D12*
X165725000Y-82650000D03*
X142575000Y-90750000D03*
D13*
X155450000Y-67525000D03*
D12*
X142375000Y-87650000D03*
X139025000Y-95050000D03*
X154250000Y-98350000D03*
X160425000Y-98125000D03*
X153150000Y-99400000D03*
X157500000Y-98675000D03*
D13*
X137450000Y-87700000D03*
D12*
X151775000Y-99825000D03*
X163525000Y-97975000D03*
X142225000Y-86950000D03*
X137475000Y-95575000D03*
X164800000Y-92900000D03*
X165400000Y-88400000D03*
X156375000Y-96575000D03*
X162500000Y-92300000D03*
X151750000Y-100475000D03*
X158725000Y-99675000D03*
X141400000Y-89800000D03*
X165125000Y-82000000D03*
X154050000Y-97650000D03*
X157800000Y-97525000D03*
X140500000Y-96640000D03*
X140973608Y-95797216D03*
G04 #@! TA.AperFunction,Conductor*
G36*
X176465182Y-63950617D02*
G01*
X176875397Y-63968526D01*
X176886135Y-63969466D01*
X177290552Y-64022707D01*
X177301171Y-64024579D01*
X177699414Y-64112866D01*
X177709840Y-64115660D01*
X178098865Y-64238317D01*
X178109000Y-64242006D01*
X178485847Y-64398100D01*
X178495627Y-64402660D01*
X178857430Y-64591001D01*
X178857434Y-64591003D01*
X178866799Y-64596409D01*
X179152124Y-64778181D01*
X179210807Y-64815566D01*
X179219668Y-64821771D01*
X179543258Y-65070068D01*
X179551545Y-65077022D01*
X179852260Y-65352576D01*
X179859899Y-65360214D01*
X180135471Y-65660946D01*
X180142411Y-65669216D01*
X180185615Y-65725521D01*
X180390727Y-65992827D01*
X180396931Y-66001689D01*
X180580370Y-66289630D01*
X180616075Y-66345674D01*
X180621484Y-66355042D01*
X180809820Y-66716833D01*
X180814392Y-66726637D01*
X180888373Y-66905241D01*
X180958690Y-67075003D01*
X180970480Y-67103465D01*
X180974180Y-67113630D01*
X181096831Y-67502629D01*
X181099631Y-67513079D01*
X181187913Y-67911294D01*
X181189791Y-67921947D01*
X181243029Y-68326325D01*
X181243972Y-68337101D01*
X181261861Y-68746816D01*
X181261979Y-68752225D01*
X181261979Y-108747293D01*
X181261861Y-108752702D01*
X181243951Y-109162896D01*
X181243008Y-109173672D01*
X181189771Y-109578048D01*
X181187893Y-109588702D01*
X181099611Y-109986916D01*
X181096811Y-109997365D01*
X180974160Y-110386362D01*
X180970460Y-110396527D01*
X180814373Y-110773354D01*
X180809801Y-110783158D01*
X180621469Y-111144937D01*
X180616061Y-111154305D01*
X180396909Y-111498305D01*
X180390704Y-111507167D01*
X180142397Y-111830765D01*
X180135443Y-111839051D01*
X179859900Y-112139753D01*
X179852251Y-112147403D01*
X179551524Y-112422966D01*
X179543237Y-112429919D01*
X179219656Y-112678211D01*
X179210795Y-112684416D01*
X178866793Y-112903568D01*
X178857425Y-112908976D01*
X178495631Y-113097313D01*
X178485826Y-113101885D01*
X178109008Y-113257967D01*
X178098843Y-113261667D01*
X177709845Y-113384316D01*
X177699396Y-113387116D01*
X177301184Y-113475396D01*
X177290531Y-113477274D01*
X176886152Y-113530510D01*
X176875375Y-113531453D01*
X176464693Y-113549382D01*
X176459285Y-113549500D01*
X136465187Y-113549500D01*
X136459778Y-113549382D01*
X136049584Y-113531471D01*
X136038807Y-113530528D01*
X135634430Y-113477289D01*
X135623777Y-113475411D01*
X135225566Y-113387128D01*
X135215117Y-113384328D01*
X134826121Y-113261676D01*
X134815956Y-113257976D01*
X134439129Y-113101888D01*
X134429325Y-113097316D01*
X134067537Y-112908980D01*
X134058175Y-112903575D01*
X133714178Y-112684423D01*
X133705325Y-112678224D01*
X133381719Y-112429912D01*
X133373432Y-112422958D01*
X133072731Y-112147415D01*
X133065087Y-112139772D01*
X132937514Y-112000550D01*
X132789518Y-111839039D01*
X132782565Y-111830752D01*
X132534273Y-111507172D01*
X132528068Y-111498311D01*
X132466878Y-111402262D01*
X132308912Y-111154303D01*
X132303505Y-111144936D01*
X132269313Y-111079254D01*
X132176001Y-110900003D01*
X141394435Y-110900003D01*
X141414630Y-111079249D01*
X141414631Y-111079254D01*
X141474211Y-111249523D01*
X141570184Y-111402262D01*
X141697738Y-111529816D01*
X141850478Y-111625789D01*
X142020745Y-111685368D01*
X142020750Y-111685369D01*
X142199996Y-111705565D01*
X142200000Y-111705565D01*
X142200004Y-111705565D01*
X142379249Y-111685369D01*
X142379252Y-111685368D01*
X142379255Y-111685368D01*
X142549522Y-111625789D01*
X142702262Y-111529816D01*
X142829816Y-111402262D01*
X142925789Y-111249522D01*
X142985368Y-111079255D01*
X143005565Y-110900000D01*
X142992400Y-110783158D01*
X142985369Y-110720750D01*
X142985368Y-110720745D01*
X142957826Y-110642035D01*
X142925789Y-110550478D01*
X142922286Y-110544903D01*
X142903284Y-110477666D01*
X142923650Y-110410831D01*
X142929512Y-110402745D01*
X142929814Y-110402263D01*
X142929816Y-110402262D01*
X143025789Y-110249522D01*
X143085368Y-110079255D01*
X143095772Y-109986916D01*
X143105565Y-109900003D01*
X143105565Y-109899996D01*
X143085369Y-109720750D01*
X143085368Y-109720745D01*
X143037317Y-109583423D01*
X143025789Y-109550478D01*
X142929816Y-109397738D01*
X142802262Y-109270184D01*
X142649523Y-109174211D01*
X142479254Y-109114631D01*
X142479249Y-109114630D01*
X142300004Y-109094435D01*
X142299996Y-109094435D01*
X142120750Y-109114630D01*
X142120745Y-109114631D01*
X141950476Y-109174211D01*
X141797737Y-109270184D01*
X141670184Y-109397737D01*
X141574211Y-109550476D01*
X141514631Y-109720745D01*
X141514630Y-109720750D01*
X141494435Y-109899996D01*
X141494435Y-109900003D01*
X141514630Y-110079249D01*
X141514631Y-110079254D01*
X141574211Y-110249523D01*
X141577715Y-110255099D01*
X141596715Y-110322335D01*
X141576347Y-110389171D01*
X141570491Y-110397249D01*
X141474211Y-110550476D01*
X141414631Y-110720745D01*
X141414630Y-110720750D01*
X141394435Y-110899996D01*
X141394435Y-110900003D01*
X132176001Y-110900003D01*
X132115169Y-110783147D01*
X132110600Y-110773347D01*
X131954518Y-110396528D01*
X131950818Y-110386364D01*
X131907672Y-110249523D01*
X131828159Y-109997343D01*
X131825370Y-109986931D01*
X131737082Y-109588690D01*
X131735209Y-109578062D01*
X131681967Y-109173652D01*
X131681027Y-109162915D01*
X131664194Y-108777351D01*
X135186979Y-108777351D01*
X135219001Y-108979534D01*
X135282260Y-109174223D01*
X135375194Y-109356613D01*
X135495507Y-109522213D01*
X135640265Y-109666971D01*
X135795228Y-109779556D01*
X135805869Y-109787287D01*
X135866408Y-109818133D01*
X135988255Y-109880218D01*
X135988257Y-109880218D01*
X135988260Y-109880220D01*
X136049137Y-109900000D01*
X136182944Y-109943477D01*
X136284036Y-109959488D01*
X136385127Y-109975500D01*
X136385128Y-109975500D01*
X136589830Y-109975500D01*
X136589831Y-109975500D01*
X136792013Y-109943477D01*
X136986698Y-109880220D01*
X137169089Y-109787287D01*
X137262069Y-109719732D01*
X137334692Y-109666971D01*
X137334694Y-109666968D01*
X137334698Y-109666966D01*
X137479445Y-109522219D01*
X137479447Y-109522215D01*
X137479450Y-109522213D01*
X137569885Y-109397738D01*
X137599766Y-109356610D01*
X137692699Y-109174219D01*
X137755956Y-108979534D01*
X137787979Y-108777352D01*
X137787979Y-108572648D01*
X137780357Y-108524523D01*
X137755956Y-108370465D01*
X137692697Y-108175776D01*
X137658982Y-108109607D01*
X137599766Y-107993390D01*
X137583314Y-107970745D01*
X137479450Y-107827786D01*
X137334692Y-107683028D01*
X137169092Y-107562715D01*
X137169091Y-107562714D01*
X137169089Y-107562713D01*
X137092408Y-107523642D01*
X136986702Y-107469781D01*
X136792013Y-107406522D01*
X136617474Y-107378878D01*
X136589831Y-107374500D01*
X136385127Y-107374500D01*
X136360808Y-107378351D01*
X136182944Y-107406522D01*
X135988255Y-107469781D01*
X135805865Y-107562715D01*
X135640265Y-107683028D01*
X135495507Y-107827786D01*
X135375194Y-107993386D01*
X135282260Y-108175776D01*
X135219001Y-108370465D01*
X135186979Y-108572648D01*
X135186979Y-108777351D01*
X131664194Y-108777351D01*
X131663096Y-108752213D01*
X131662979Y-108746822D01*
X131662979Y-106944183D01*
X152909500Y-106944183D01*
X152937982Y-107050478D01*
X152945312Y-107077835D01*
X152945313Y-107077838D01*
X153014492Y-107197661D01*
X153014494Y-107197664D01*
X153014495Y-107197665D01*
X153112335Y-107295505D01*
X153232164Y-107364688D01*
X153365817Y-107400500D01*
X153365819Y-107400500D01*
X153504181Y-107400500D01*
X153504183Y-107400500D01*
X153506038Y-107400003D01*
X157294435Y-107400003D01*
X157314630Y-107579249D01*
X157314631Y-107579254D01*
X157374211Y-107749523D01*
X157470184Y-107902262D01*
X157597738Y-108029816D01*
X157750478Y-108125789D01*
X157819678Y-108150003D01*
X157920745Y-108185368D01*
X157920750Y-108185369D01*
X158099996Y-108205565D01*
X158100000Y-108205565D01*
X158100004Y-108205565D01*
X158279249Y-108185369D01*
X158279252Y-108185368D01*
X158279255Y-108185368D01*
X158308876Y-108175003D01*
X164369435Y-108175003D01*
X164389630Y-108354249D01*
X164389631Y-108354254D01*
X164449211Y-108524523D01*
X164529475Y-108652262D01*
X164545184Y-108677262D01*
X164672738Y-108804816D01*
X164825478Y-108900789D01*
X164924299Y-108935368D01*
X164995745Y-108960368D01*
X164995750Y-108960369D01*
X165174996Y-108980565D01*
X165175000Y-108980565D01*
X165175004Y-108980565D01*
X165354249Y-108960369D01*
X165354252Y-108960368D01*
X165354255Y-108960368D01*
X165524522Y-108900789D01*
X165677262Y-108804816D01*
X165804816Y-108677262D01*
X165900789Y-108524522D01*
X165960368Y-108354255D01*
X165963185Y-108329254D01*
X165980565Y-108175003D01*
X165980565Y-108174996D01*
X165960369Y-107995750D01*
X165960368Y-107995745D01*
X165927657Y-107902262D01*
X165900789Y-107825478D01*
X165885080Y-107800478D01*
X165811285Y-107683034D01*
X165804816Y-107672738D01*
X165782259Y-107650181D01*
X165748774Y-107588858D01*
X165753758Y-107519166D01*
X165782259Y-107474819D01*
X165840311Y-107416767D01*
X165904816Y-107352262D01*
X166000789Y-107199522D01*
X166060368Y-107029255D01*
X166063664Y-107000003D01*
X166072115Y-106925003D01*
X167119435Y-106925003D01*
X167139630Y-107104249D01*
X167139631Y-107104254D01*
X167199211Y-107274523D01*
X167295184Y-107427262D01*
X167330241Y-107462319D01*
X167363726Y-107523642D01*
X167358742Y-107593334D01*
X167330241Y-107637681D01*
X167320184Y-107647737D01*
X167224211Y-107800476D01*
X167164631Y-107970745D01*
X167164630Y-107970750D01*
X167144435Y-108149996D01*
X167144435Y-108150003D01*
X167164630Y-108329249D01*
X167164631Y-108329254D01*
X167224211Y-108499523D01*
X167239920Y-108524523D01*
X167320184Y-108652262D01*
X167447738Y-108779816D01*
X167600478Y-108875789D01*
X167671924Y-108900789D01*
X167770745Y-108935368D01*
X167770750Y-108935369D01*
X167949996Y-108955565D01*
X167950000Y-108955565D01*
X167950004Y-108955565D01*
X168129249Y-108935369D01*
X168129252Y-108935368D01*
X168129255Y-108935368D01*
X168299522Y-108875789D01*
X168452262Y-108779816D01*
X168579816Y-108652262D01*
X168675789Y-108499522D01*
X168735368Y-108329255D01*
X168735369Y-108329249D01*
X168755565Y-108150003D01*
X168755565Y-108149996D01*
X168735369Y-107970750D01*
X168735368Y-107970745D01*
X168685344Y-107827786D01*
X168675789Y-107800478D01*
X168579816Y-107647738D01*
X168544759Y-107612681D01*
X168511274Y-107551358D01*
X168516258Y-107481666D01*
X168544759Y-107437319D01*
X168545936Y-107436142D01*
X168554816Y-107427262D01*
X168650789Y-107274522D01*
X168710368Y-107104255D01*
X168713185Y-107079254D01*
X168722114Y-107000003D01*
X169544435Y-107000003D01*
X169564630Y-107179249D01*
X169564631Y-107179254D01*
X169624211Y-107349523D01*
X169720184Y-107502262D01*
X169737102Y-107519180D01*
X169770587Y-107580503D01*
X169765603Y-107650195D01*
X169754415Y-107672833D01*
X169674211Y-107800476D01*
X169614631Y-107970745D01*
X169614630Y-107970750D01*
X169594435Y-108149996D01*
X169594435Y-108150003D01*
X169614630Y-108329249D01*
X169614631Y-108329254D01*
X169674211Y-108499523D01*
X169689920Y-108524523D01*
X169770184Y-108652262D01*
X169897738Y-108779816D01*
X170050478Y-108875789D01*
X170121924Y-108900789D01*
X170220745Y-108935368D01*
X170220750Y-108935369D01*
X170399996Y-108955565D01*
X170400000Y-108955565D01*
X170400004Y-108955565D01*
X170579249Y-108935369D01*
X170579252Y-108935368D01*
X170579255Y-108935368D01*
X170749522Y-108875789D01*
X170902262Y-108779816D01*
X171029816Y-108652262D01*
X171125789Y-108499522D01*
X171185368Y-108329255D01*
X171185369Y-108329249D01*
X171205565Y-108150003D01*
X171544435Y-108150003D01*
X171564630Y-108329249D01*
X171564631Y-108329254D01*
X171624211Y-108499523D01*
X171639920Y-108524523D01*
X171720184Y-108652262D01*
X171847738Y-108779816D01*
X172000478Y-108875789D01*
X172071924Y-108900789D01*
X172170745Y-108935368D01*
X172170750Y-108935369D01*
X172349996Y-108955565D01*
X172350000Y-108955565D01*
X172350004Y-108955565D01*
X172529249Y-108935369D01*
X172529252Y-108935368D01*
X172529255Y-108935368D01*
X172699522Y-108875789D01*
X172852262Y-108779816D01*
X172854727Y-108777351D01*
X175186979Y-108777351D01*
X175219001Y-108979534D01*
X175282260Y-109174223D01*
X175375194Y-109356613D01*
X175495507Y-109522213D01*
X175640265Y-109666971D01*
X175795228Y-109779556D01*
X175805869Y-109787287D01*
X175866408Y-109818133D01*
X175988255Y-109880218D01*
X175988257Y-109880218D01*
X175988260Y-109880220D01*
X176049137Y-109900000D01*
X176182944Y-109943477D01*
X176284036Y-109959488D01*
X176385127Y-109975500D01*
X176385128Y-109975500D01*
X176589830Y-109975500D01*
X176589831Y-109975500D01*
X176792013Y-109943477D01*
X176986698Y-109880220D01*
X177169089Y-109787287D01*
X177262069Y-109719732D01*
X177334692Y-109666971D01*
X177334694Y-109666968D01*
X177334698Y-109666966D01*
X177479445Y-109522219D01*
X177479447Y-109522215D01*
X177479450Y-109522213D01*
X177569885Y-109397738D01*
X177599766Y-109356610D01*
X177692699Y-109174219D01*
X177755956Y-108979534D01*
X177787979Y-108777352D01*
X177787979Y-108572648D01*
X177780357Y-108524523D01*
X177755956Y-108370465D01*
X177692697Y-108175776D01*
X177658982Y-108109607D01*
X177599766Y-107993390D01*
X177583314Y-107970745D01*
X177479450Y-107827786D01*
X177334692Y-107683028D01*
X177169092Y-107562715D01*
X177169091Y-107562714D01*
X177169089Y-107562713D01*
X177092408Y-107523642D01*
X176986702Y-107469781D01*
X176792013Y-107406522D01*
X176617474Y-107378878D01*
X176589831Y-107374500D01*
X176385127Y-107374500D01*
X176360808Y-107378351D01*
X176182944Y-107406522D01*
X175988255Y-107469781D01*
X175805865Y-107562715D01*
X175640265Y-107683028D01*
X175495507Y-107827786D01*
X175375194Y-107993386D01*
X175282260Y-108175776D01*
X175219001Y-108370465D01*
X175186979Y-108572648D01*
X175186979Y-108777351D01*
X172854727Y-108777351D01*
X172979816Y-108652262D01*
X173075789Y-108499522D01*
X173135368Y-108329255D01*
X173135369Y-108329249D01*
X173155565Y-108150003D01*
X173155565Y-108149996D01*
X173135369Y-107970750D01*
X173135368Y-107970745D01*
X173075788Y-107800475D01*
X173005232Y-107688188D01*
X172986231Y-107620951D01*
X173006598Y-107554116D01*
X173022544Y-107534534D01*
X173087298Y-107469780D01*
X173154816Y-107402262D01*
X173250789Y-107249522D01*
X173310368Y-107079255D01*
X173310528Y-107077835D01*
X173330565Y-106900003D01*
X173330565Y-106899996D01*
X173310369Y-106720750D01*
X173310368Y-106720745D01*
X173292872Y-106670745D01*
X173250789Y-106550478D01*
X173154816Y-106397738D01*
X173027262Y-106270184D01*
X172938852Y-106214632D01*
X172874523Y-106174211D01*
X172704254Y-106114631D01*
X172704249Y-106114630D01*
X172525004Y-106094435D01*
X172524996Y-106094435D01*
X172345750Y-106114630D01*
X172345745Y-106114631D01*
X172175476Y-106174211D01*
X172022737Y-106270184D01*
X171895184Y-106397737D01*
X171799211Y-106550476D01*
X171739631Y-106720745D01*
X171739630Y-106720750D01*
X171719435Y-106899996D01*
X171719435Y-106900003D01*
X171739630Y-107079249D01*
X171739631Y-107079254D01*
X171799211Y-107249523D01*
X171869768Y-107361813D01*
X171888768Y-107429050D01*
X171868400Y-107495885D01*
X171852456Y-107515466D01*
X171720183Y-107647739D01*
X171624211Y-107800476D01*
X171564631Y-107970745D01*
X171564630Y-107970750D01*
X171544435Y-108149996D01*
X171544435Y-108150003D01*
X171205565Y-108150003D01*
X171205565Y-108149996D01*
X171185369Y-107970750D01*
X171185368Y-107970745D01*
X171135344Y-107827786D01*
X171125789Y-107800478D01*
X171029816Y-107647738D01*
X171012897Y-107630819D01*
X170979412Y-107569496D01*
X170984396Y-107499804D01*
X170995583Y-107477168D01*
X171068066Y-107361813D01*
X171075788Y-107349524D01*
X171075789Y-107349522D01*
X171135368Y-107179255D01*
X171135369Y-107179249D01*
X171155565Y-107000003D01*
X171155565Y-106999996D01*
X171135369Y-106820750D01*
X171135368Y-106820745D01*
X171085453Y-106678097D01*
X171075789Y-106650478D01*
X171053265Y-106614632D01*
X171014123Y-106552338D01*
X170979816Y-106497738D01*
X170852262Y-106370184D01*
X170819344Y-106349500D01*
X170699523Y-106274211D01*
X170529254Y-106214631D01*
X170529249Y-106214630D01*
X170350004Y-106194435D01*
X170349996Y-106194435D01*
X170170750Y-106214630D01*
X170170745Y-106214631D01*
X170000476Y-106274211D01*
X169847737Y-106370184D01*
X169720184Y-106497737D01*
X169624211Y-106650476D01*
X169564631Y-106820745D01*
X169564630Y-106820750D01*
X169544435Y-106999996D01*
X169544435Y-107000003D01*
X168722114Y-107000003D01*
X168730565Y-106925003D01*
X168730565Y-106924996D01*
X168710369Y-106745750D01*
X168710368Y-106745745D01*
X168684124Y-106670745D01*
X168650789Y-106575478D01*
X168635080Y-106550478D01*
X168554815Y-106422737D01*
X168427262Y-106295184D01*
X168274523Y-106199211D01*
X168104254Y-106139631D01*
X168104249Y-106139630D01*
X167925004Y-106119435D01*
X167924996Y-106119435D01*
X167745750Y-106139630D01*
X167745745Y-106139631D01*
X167575476Y-106199211D01*
X167422737Y-106295184D01*
X167295184Y-106422737D01*
X167199211Y-106575476D01*
X167139631Y-106745745D01*
X167139630Y-106745750D01*
X167119435Y-106924996D01*
X167119435Y-106925003D01*
X166072115Y-106925003D01*
X166080565Y-106850003D01*
X166080565Y-106849996D01*
X166060369Y-106670750D01*
X166060368Y-106670745D01*
X166040733Y-106614631D01*
X166000789Y-106500478D01*
X165999067Y-106497738D01*
X165928425Y-106385312D01*
X165904816Y-106347738D01*
X165777262Y-106220184D01*
X165768426Y-106214632D01*
X165624523Y-106124211D01*
X165454254Y-106064631D01*
X165454249Y-106064630D01*
X165275004Y-106044435D01*
X165274996Y-106044435D01*
X165095750Y-106064630D01*
X165095745Y-106064631D01*
X164925476Y-106124211D01*
X164772737Y-106220184D01*
X164645184Y-106347737D01*
X164549211Y-106500476D01*
X164489631Y-106670745D01*
X164489630Y-106670750D01*
X164469435Y-106849996D01*
X164469435Y-106850003D01*
X164489630Y-107029249D01*
X164489631Y-107029254D01*
X164549211Y-107199523D01*
X164645184Y-107352262D01*
X164667741Y-107374819D01*
X164701226Y-107436142D01*
X164696242Y-107505834D01*
X164667741Y-107550181D01*
X164545184Y-107672737D01*
X164449211Y-107825476D01*
X164389631Y-107995745D01*
X164389630Y-107995750D01*
X164369435Y-108174996D01*
X164369435Y-108175003D01*
X158308876Y-108175003D01*
X158449522Y-108125789D01*
X158602262Y-108029816D01*
X158729816Y-107902262D01*
X158825789Y-107749522D01*
X158885368Y-107579255D01*
X158888201Y-107554116D01*
X158894761Y-107495885D01*
X158896418Y-107481181D01*
X158923484Y-107416767D01*
X158981078Y-107377212D01*
X159050915Y-107375073D01*
X159051409Y-107375203D01*
X159145817Y-107400500D01*
X159145820Y-107400500D01*
X159284181Y-107400500D01*
X159284183Y-107400500D01*
X159417836Y-107364688D01*
X159537665Y-107295505D01*
X159635505Y-107197665D01*
X159704688Y-107077836D01*
X159740500Y-106944183D01*
X159740500Y-106805817D01*
X159704688Y-106672164D01*
X159648867Y-106575478D01*
X159635507Y-106552338D01*
X159635503Y-106552333D01*
X159537666Y-106454496D01*
X159537661Y-106454492D01*
X159417838Y-106385313D01*
X159417837Y-106385312D01*
X159417836Y-106385312D01*
X159284183Y-106349500D01*
X159145817Y-106349500D01*
X159012164Y-106385312D01*
X159012161Y-106385313D01*
X158892338Y-106454492D01*
X158892333Y-106454496D01*
X158794496Y-106552333D01*
X158794492Y-106552338D01*
X158725312Y-106672162D01*
X158723878Y-106675626D01*
X158721886Y-106678097D01*
X158721248Y-106679203D01*
X158721075Y-106679103D01*
X158680035Y-106730028D01*
X158613741Y-106752091D01*
X158546042Y-106734810D01*
X158543346Y-106733164D01*
X158449523Y-106674211D01*
X158279254Y-106614631D01*
X158279249Y-106614630D01*
X158100004Y-106594435D01*
X158099996Y-106594435D01*
X157920750Y-106614630D01*
X157920745Y-106614631D01*
X157750476Y-106674211D01*
X157597737Y-106770184D01*
X157470184Y-106897737D01*
X157374211Y-107050476D01*
X157314631Y-107220745D01*
X157314630Y-107220750D01*
X157294435Y-107399996D01*
X157294435Y-107400003D01*
X153506038Y-107400003D01*
X153637836Y-107364688D01*
X153757665Y-107295505D01*
X153855505Y-107197665D01*
X153924688Y-107077836D01*
X153960500Y-106944183D01*
X153960500Y-106805817D01*
X153924688Y-106672164D01*
X153868867Y-106575478D01*
X153855507Y-106552338D01*
X153855503Y-106552333D01*
X153757666Y-106454496D01*
X153757661Y-106454492D01*
X153637838Y-106385313D01*
X153637837Y-106385312D01*
X153637836Y-106385312D01*
X153504183Y-106349500D01*
X153365817Y-106349500D01*
X153232164Y-106385312D01*
X153232161Y-106385313D01*
X153112338Y-106454492D01*
X153112333Y-106454496D01*
X153014496Y-106552333D01*
X153014492Y-106552338D01*
X152945313Y-106672161D01*
X152945313Y-106672162D01*
X152945312Y-106672164D01*
X152909500Y-106805817D01*
X152909500Y-106944183D01*
X131662979Y-106944183D01*
X131662979Y-103800003D01*
X158669435Y-103800003D01*
X158689630Y-103979249D01*
X158689631Y-103979254D01*
X158749211Y-104149523D01*
X158845184Y-104302262D01*
X158972738Y-104429816D01*
X159125478Y-104525789D01*
X159295745Y-104585368D01*
X159295750Y-104585369D01*
X159474996Y-104605565D01*
X159475000Y-104605565D01*
X159475004Y-104605565D01*
X159654249Y-104585369D01*
X159654252Y-104585368D01*
X159654255Y-104585368D01*
X159824522Y-104525789D01*
X159977262Y-104429816D01*
X160104816Y-104302262D01*
X160200789Y-104149522D01*
X160260368Y-103979255D01*
X160280565Y-103800000D01*
X160260368Y-103620745D01*
X160200789Y-103450478D01*
X160104816Y-103297738D01*
X159977262Y-103170184D01*
X159824523Y-103074211D01*
X159654254Y-103014631D01*
X159654249Y-103014630D01*
X159475004Y-102994435D01*
X159474996Y-102994435D01*
X159295750Y-103014630D01*
X159295745Y-103014631D01*
X159125476Y-103074211D01*
X158972737Y-103170184D01*
X158845184Y-103297737D01*
X158749211Y-103450476D01*
X158689631Y-103620745D01*
X158689630Y-103620750D01*
X158669435Y-103799996D01*
X158669435Y-103800003D01*
X131662979Y-103800003D01*
X131662979Y-101100003D01*
X146894435Y-101100003D01*
X146914630Y-101279249D01*
X146914631Y-101279254D01*
X146974211Y-101449523D01*
X147008598Y-101504249D01*
X147070184Y-101602262D01*
X147197738Y-101729816D01*
X147233461Y-101752262D01*
X147350478Y-101825789D01*
X147499726Y-101878013D01*
X147556502Y-101918735D01*
X147570161Y-101943750D01*
X147571193Y-101943254D01*
X147574212Y-101949524D01*
X147606424Y-102000789D01*
X147670184Y-102102262D01*
X147797738Y-102229816D01*
X147950478Y-102325789D01*
X148120745Y-102385368D01*
X148120750Y-102385369D01*
X148299996Y-102405565D01*
X148300000Y-102405565D01*
X148300004Y-102405565D01*
X148479249Y-102385369D01*
X148479252Y-102385368D01*
X148479255Y-102385368D01*
X148649522Y-102325789D01*
X148802262Y-102229816D01*
X148929816Y-102102262D01*
X149025789Y-101949522D01*
X149085368Y-101779255D01*
X149085593Y-101777262D01*
X149105565Y-101600003D01*
X149105565Y-101599996D01*
X149085369Y-101420750D01*
X149085368Y-101420745D01*
X149060889Y-101350788D01*
X149034371Y-101275003D01*
X164819435Y-101275003D01*
X164839630Y-101454249D01*
X164839631Y-101454254D01*
X164899211Y-101624523D01*
X164979475Y-101752262D01*
X164995184Y-101777262D01*
X165122738Y-101904816D01*
X165275478Y-102000789D01*
X165374299Y-102035368D01*
X165445745Y-102060368D01*
X165445750Y-102060369D01*
X165624996Y-102080565D01*
X165625000Y-102080565D01*
X165625004Y-102080565D01*
X165804249Y-102060369D01*
X165804252Y-102060368D01*
X165804255Y-102060368D01*
X165974522Y-102000789D01*
X166127262Y-101904816D01*
X166254816Y-101777262D01*
X166350789Y-101624522D01*
X166410368Y-101454255D01*
X166410901Y-101449523D01*
X166424931Y-101325003D01*
X167444435Y-101325003D01*
X167464630Y-101504249D01*
X167464631Y-101504254D01*
X167524211Y-101674523D01*
X167590019Y-101779255D01*
X167620184Y-101827262D01*
X167747738Y-101954816D01*
X167820902Y-102000788D01*
X167875935Y-102035368D01*
X167900478Y-102050789D01*
X167985573Y-102080565D01*
X168070745Y-102110368D01*
X168070750Y-102110369D01*
X168249996Y-102130565D01*
X168250000Y-102130565D01*
X168250004Y-102130565D01*
X168429249Y-102110369D01*
X168429252Y-102110368D01*
X168429255Y-102110368D01*
X168599522Y-102050789D01*
X168752262Y-101954816D01*
X168879816Y-101827262D01*
X168975789Y-101674522D01*
X169035368Y-101504255D01*
X169041002Y-101454254D01*
X169055565Y-101325003D01*
X169055565Y-101324996D01*
X169049932Y-101275003D01*
X169969435Y-101275003D01*
X169989630Y-101454249D01*
X169989631Y-101454254D01*
X170049211Y-101624523D01*
X170129475Y-101752262D01*
X170145184Y-101777262D01*
X170272738Y-101904816D01*
X170425478Y-102000789D01*
X170524299Y-102035368D01*
X170595745Y-102060368D01*
X170595750Y-102060369D01*
X170774996Y-102080565D01*
X170775000Y-102080565D01*
X170775004Y-102080565D01*
X170954249Y-102060369D01*
X170954252Y-102060368D01*
X170954255Y-102060368D01*
X171124522Y-102000789D01*
X171277262Y-101904816D01*
X171404816Y-101777262D01*
X171500789Y-101624522D01*
X171560368Y-101454255D01*
X171560901Y-101449523D01*
X171580565Y-101275003D01*
X171580565Y-101274996D01*
X171577749Y-101250003D01*
X172494435Y-101250003D01*
X172514630Y-101429249D01*
X172514631Y-101429254D01*
X172574211Y-101599523D01*
X172621337Y-101674523D01*
X172670184Y-101752262D01*
X172797738Y-101879816D01*
X172859677Y-101918735D01*
X172908677Y-101949524D01*
X172950478Y-101975789D01*
X173021924Y-102000789D01*
X173120745Y-102035368D01*
X173120750Y-102035369D01*
X173299996Y-102055565D01*
X173300000Y-102055565D01*
X173300004Y-102055565D01*
X173479249Y-102035369D01*
X173479252Y-102035368D01*
X173479255Y-102035368D01*
X173649522Y-101975789D01*
X173802262Y-101879816D01*
X173929816Y-101752262D01*
X174025789Y-101599522D01*
X174085368Y-101429255D01*
X174085369Y-101429249D01*
X174105565Y-101250003D01*
X174105565Y-101249996D01*
X174085369Y-101070750D01*
X174085368Y-101070745D01*
X174058147Y-100992952D01*
X174025789Y-100900478D01*
X174009480Y-100874523D01*
X173950882Y-100781265D01*
X173929816Y-100747738D01*
X173802262Y-100620184D01*
X173768884Y-100599211D01*
X173649523Y-100524211D01*
X173479254Y-100464631D01*
X173479249Y-100464630D01*
X173300004Y-100444435D01*
X173299996Y-100444435D01*
X173120750Y-100464630D01*
X173120745Y-100464631D01*
X172950476Y-100524211D01*
X172797737Y-100620184D01*
X172670184Y-100747737D01*
X172574211Y-100900476D01*
X172514631Y-101070745D01*
X172514630Y-101070750D01*
X172494435Y-101249996D01*
X172494435Y-101250003D01*
X171577749Y-101250003D01*
X171560369Y-101095750D01*
X171560368Y-101095745D01*
X171546368Y-101055736D01*
X171500789Y-100925478D01*
X171485080Y-100900478D01*
X171424619Y-100804254D01*
X171404816Y-100772738D01*
X171277262Y-100645184D01*
X171245144Y-100625003D01*
X171124523Y-100549211D01*
X170954254Y-100489631D01*
X170954249Y-100489630D01*
X170775004Y-100469435D01*
X170774996Y-100469435D01*
X170595750Y-100489630D01*
X170595745Y-100489631D01*
X170425476Y-100549211D01*
X170272737Y-100645184D01*
X170145184Y-100772737D01*
X170049211Y-100925476D01*
X169989631Y-101095745D01*
X169989630Y-101095750D01*
X169969435Y-101274996D01*
X169969435Y-101275003D01*
X169049932Y-101275003D01*
X169035369Y-101145750D01*
X169035368Y-101145745D01*
X169031534Y-101134789D01*
X168975789Y-100975478D01*
X168975188Y-100974522D01*
X168879815Y-100822737D01*
X168752262Y-100695184D01*
X168599523Y-100599211D01*
X168429254Y-100539631D01*
X168429249Y-100539630D01*
X168250004Y-100519435D01*
X168249996Y-100519435D01*
X168070750Y-100539630D01*
X168070745Y-100539631D01*
X167900476Y-100599211D01*
X167747737Y-100695184D01*
X167620184Y-100822737D01*
X167524211Y-100975476D01*
X167464631Y-101145745D01*
X167464630Y-101145750D01*
X167444435Y-101324996D01*
X167444435Y-101325003D01*
X166424931Y-101325003D01*
X166430565Y-101275003D01*
X166430565Y-101274996D01*
X166410369Y-101095750D01*
X166410368Y-101095745D01*
X166396368Y-101055736D01*
X166350789Y-100925478D01*
X166335080Y-100900478D01*
X166274619Y-100804254D01*
X166254816Y-100772738D01*
X166127262Y-100645184D01*
X166095144Y-100625003D01*
X165974523Y-100549211D01*
X165804254Y-100489631D01*
X165804249Y-100489630D01*
X165625004Y-100469435D01*
X165624996Y-100469435D01*
X165445750Y-100489630D01*
X165445745Y-100489631D01*
X165275476Y-100549211D01*
X165122737Y-100645184D01*
X164995184Y-100772737D01*
X164899211Y-100925476D01*
X164839631Y-101095745D01*
X164839630Y-101095750D01*
X164819435Y-101274996D01*
X164819435Y-101275003D01*
X149034371Y-101275003D01*
X149025789Y-101250478D01*
X148929816Y-101097738D01*
X148802262Y-100970184D01*
X148731110Y-100925476D01*
X148649521Y-100874210D01*
X148525750Y-100830901D01*
X148500273Y-100821986D01*
X148443498Y-100781265D01*
X148429845Y-100756252D01*
X148428810Y-100756751D01*
X148425789Y-100750477D01*
X148343920Y-100620184D01*
X148329816Y-100597738D01*
X148207078Y-100475000D01*
X151044355Y-100475000D01*
X151064859Y-100643869D01*
X151064860Y-100643874D01*
X151125182Y-100802931D01*
X151161351Y-100855330D01*
X151221817Y-100942929D01*
X151317010Y-101027262D01*
X151349150Y-101055736D01*
X151499773Y-101134789D01*
X151499775Y-101134790D01*
X151664944Y-101175500D01*
X151835056Y-101175500D01*
X152000225Y-101134790D01*
X152122242Y-101070750D01*
X152150849Y-101055736D01*
X152150850Y-101055734D01*
X152150852Y-101055734D01*
X152278183Y-100942929D01*
X152374818Y-100802930D01*
X152435140Y-100643872D01*
X152455645Y-100475000D01*
X152435140Y-100306128D01*
X152435139Y-100306126D01*
X152435139Y-100306124D01*
X152405105Y-100226931D01*
X152399738Y-100157268D01*
X152405105Y-100138989D01*
X152409018Y-100128671D01*
X152460140Y-99993872D01*
X152461171Y-99985380D01*
X152488791Y-99921203D01*
X152546724Y-99882145D01*
X152616577Y-99880608D01*
X152666494Y-99907509D01*
X152749150Y-99980736D01*
X152899773Y-100059789D01*
X152899775Y-100059790D01*
X153064944Y-100100500D01*
X153235056Y-100100500D01*
X153400225Y-100059790D01*
X153508562Y-100002930D01*
X153550849Y-99980736D01*
X153550850Y-99980734D01*
X153550852Y-99980734D01*
X153678183Y-99867929D01*
X153774818Y-99727930D01*
X153835140Y-99568872D01*
X153855645Y-99400000D01*
X153835140Y-99231128D01*
X153805364Y-99152616D01*
X153799998Y-99082955D01*
X153833145Y-99021449D01*
X153894284Y-98987627D01*
X153964002Y-98992229D01*
X153978932Y-98998850D01*
X153999775Y-99009790D01*
X154164944Y-99050500D01*
X154335056Y-99050500D01*
X154500225Y-99009790D01*
X154648305Y-98932071D01*
X154650849Y-98930736D01*
X154650850Y-98930734D01*
X154650852Y-98930734D01*
X154778183Y-98817929D01*
X154874818Y-98677930D01*
X154875929Y-98675000D01*
X156794355Y-98675000D01*
X156814859Y-98843869D01*
X156814860Y-98843874D01*
X156875182Y-99002931D01*
X156907342Y-99049522D01*
X156971817Y-99142929D01*
X157077505Y-99236560D01*
X157099150Y-99255736D01*
X157226835Y-99322750D01*
X157249775Y-99334790D01*
X157414944Y-99375500D01*
X157585056Y-99375500D01*
X157750225Y-99334790D01*
X157881037Y-99266134D01*
X157903455Y-99254368D01*
X157971963Y-99240642D01*
X158037016Y-99266134D01*
X158077961Y-99322750D01*
X158081797Y-99392514D01*
X158077023Y-99408134D01*
X158039861Y-99506122D01*
X158039859Y-99506130D01*
X158019355Y-99675000D01*
X158039859Y-99843869D01*
X158039860Y-99843874D01*
X158100182Y-100002931D01*
X158139429Y-100059789D01*
X158196817Y-100142929D01*
X158291636Y-100226931D01*
X158324150Y-100255736D01*
X158474773Y-100334789D01*
X158474775Y-100334790D01*
X158639944Y-100375500D01*
X158810056Y-100375500D01*
X158975225Y-100334790D01*
X159054692Y-100293081D01*
X159125849Y-100255736D01*
X159125850Y-100255734D01*
X159125852Y-100255734D01*
X159253183Y-100142929D01*
X159349818Y-100002930D01*
X159410140Y-99843872D01*
X159430645Y-99675000D01*
X159410140Y-99506128D01*
X159409926Y-99505565D01*
X159353611Y-99357071D01*
X159349818Y-99347070D01*
X159337908Y-99329816D01*
X159315476Y-99297318D01*
X159253183Y-99207071D01*
X159125852Y-99094266D01*
X159125849Y-99094263D01*
X158975226Y-99015210D01*
X158810056Y-98974500D01*
X158639944Y-98974500D01*
X158474776Y-99015209D01*
X158321544Y-99095632D01*
X158253035Y-99109357D01*
X158187982Y-99083864D01*
X158147038Y-99027248D01*
X158143203Y-98957484D01*
X158147971Y-98941877D01*
X158185140Y-98843872D01*
X158205645Y-98675000D01*
X158185140Y-98506128D01*
X158124818Y-98347070D01*
X158124817Y-98347068D01*
X158124816Y-98347066D01*
X158102266Y-98314398D01*
X158080382Y-98248044D01*
X158097847Y-98180392D01*
X158146688Y-98134161D01*
X158164143Y-98125000D01*
X159719355Y-98125000D01*
X159739859Y-98293869D01*
X159739860Y-98293874D01*
X159800182Y-98452931D01*
X159846995Y-98520750D01*
X159896817Y-98592929D01*
X159990021Y-98675500D01*
X160024150Y-98705736D01*
X160174773Y-98784789D01*
X160174775Y-98784790D01*
X160339944Y-98825500D01*
X160510056Y-98825500D01*
X160675225Y-98784790D01*
X160760166Y-98740209D01*
X160789139Y-98725003D01*
X176869435Y-98725003D01*
X176889630Y-98904249D01*
X176889631Y-98904254D01*
X176949211Y-99074523D01*
X176998282Y-99152618D01*
X177045184Y-99227262D01*
X177172738Y-99354816D01*
X177325478Y-99450789D01*
X177495745Y-99510368D01*
X177495750Y-99510369D01*
X177674996Y-99530565D01*
X177675000Y-99530565D01*
X177675004Y-99530565D01*
X177854249Y-99510369D01*
X177854252Y-99510368D01*
X177854255Y-99510368D01*
X178024522Y-99450789D01*
X178177262Y-99354816D01*
X178304816Y-99227262D01*
X178352860Y-99150799D01*
X178405194Y-99104508D01*
X178474248Y-99093859D01*
X178538096Y-99122234D01*
X178562846Y-99150797D01*
X178595184Y-99202262D01*
X178722738Y-99329816D01*
X178875478Y-99425789D01*
X179045745Y-99485368D01*
X179067959Y-99487870D01*
X179132372Y-99514936D01*
X179171928Y-99572530D01*
X179174067Y-99642367D01*
X179138110Y-99702274D01*
X179075473Y-99733231D01*
X179067961Y-99734311D01*
X179020749Y-99739630D01*
X179020745Y-99739631D01*
X178850476Y-99799211D01*
X178697737Y-99895184D01*
X178570184Y-100022737D01*
X178570182Y-100022740D01*
X178521568Y-100100108D01*
X178469233Y-100146399D01*
X178400180Y-100157046D01*
X178336331Y-100128671D01*
X178328894Y-100121816D01*
X178202262Y-99995184D01*
X178049523Y-99899211D01*
X177879254Y-99839631D01*
X177879249Y-99839630D01*
X177700004Y-99819435D01*
X177699996Y-99819435D01*
X177520750Y-99839630D01*
X177520745Y-99839631D01*
X177350476Y-99899211D01*
X177197737Y-99995184D01*
X177070184Y-100122737D01*
X176974211Y-100275476D01*
X176914631Y-100445745D01*
X176914630Y-100445750D01*
X176894435Y-100624996D01*
X176894435Y-100625003D01*
X176914630Y-100804249D01*
X176914631Y-100804254D01*
X176974211Y-100974523D01*
X177050384Y-101095750D01*
X177070184Y-101127262D01*
X177197738Y-101254816D01*
X177350478Y-101350789D01*
X177520745Y-101410368D01*
X177520750Y-101410369D01*
X177699996Y-101430565D01*
X177700000Y-101430565D01*
X177700004Y-101430565D01*
X177879249Y-101410369D01*
X177879252Y-101410368D01*
X177879255Y-101410368D01*
X178049522Y-101350789D01*
X178202262Y-101254816D01*
X178329816Y-101127262D01*
X178378431Y-101049890D01*
X178430764Y-101003601D01*
X178499818Y-100992952D01*
X178563666Y-101021327D01*
X178571105Y-101028183D01*
X178697738Y-101154816D01*
X178788080Y-101211582D01*
X178849979Y-101250476D01*
X178850478Y-101250789D01*
X179020745Y-101310368D01*
X179020750Y-101310369D01*
X179199996Y-101330565D01*
X179200000Y-101330565D01*
X179200004Y-101330565D01*
X179379249Y-101310369D01*
X179379252Y-101310368D01*
X179379255Y-101310368D01*
X179549522Y-101250789D01*
X179702262Y-101154816D01*
X179829816Y-101027262D01*
X179925789Y-100874522D01*
X179985368Y-100704255D01*
X179992024Y-100645184D01*
X180005565Y-100525003D01*
X180005565Y-100524996D01*
X179985369Y-100345750D01*
X179985368Y-100345745D01*
X179967414Y-100294435D01*
X179925789Y-100175478D01*
X179914207Y-100157046D01*
X179853097Y-100059790D01*
X179829816Y-100022738D01*
X179702262Y-99895184D01*
X179681511Y-99882145D01*
X179549523Y-99799211D01*
X179379252Y-99739631D01*
X179357038Y-99737128D01*
X179292625Y-99710061D01*
X179253070Y-99652466D01*
X179250933Y-99582629D01*
X179286892Y-99522723D01*
X179349530Y-99491767D01*
X179357041Y-99490688D01*
X179404249Y-99485369D01*
X179404252Y-99485368D01*
X179404255Y-99485368D01*
X179574522Y-99425789D01*
X179727262Y-99329816D01*
X179854816Y-99202262D01*
X179950789Y-99049522D01*
X180010368Y-98879255D01*
X180010369Y-98879249D01*
X180030565Y-98700003D01*
X180030565Y-98699996D01*
X180010369Y-98520750D01*
X180010368Y-98520745D01*
X179986639Y-98452931D01*
X179950789Y-98350478D01*
X179948646Y-98347068D01*
X179886425Y-98248044D01*
X179854816Y-98197738D01*
X179727262Y-98070184D01*
X179646771Y-98019608D01*
X179574521Y-97974210D01*
X179518312Y-97954542D01*
X179461535Y-97913820D01*
X179435788Y-97848867D01*
X179449244Y-97780306D01*
X179497631Y-97729903D01*
X179518312Y-97720458D01*
X179542811Y-97711884D01*
X179574522Y-97700789D01*
X179727262Y-97604816D01*
X179854816Y-97477262D01*
X179950789Y-97324522D01*
X180010368Y-97154255D01*
X180019944Y-97069266D01*
X180030565Y-96975003D01*
X180030565Y-96974996D01*
X180010369Y-96795750D01*
X180010368Y-96795745D01*
X180008748Y-96791114D01*
X179950789Y-96625478D01*
X179854816Y-96472738D01*
X179727262Y-96345184D01*
X179574523Y-96249211D01*
X179404254Y-96189631D01*
X179404249Y-96189630D01*
X179225004Y-96169435D01*
X179224996Y-96169435D01*
X179045750Y-96189630D01*
X179045745Y-96189631D01*
X178875476Y-96249211D01*
X178722737Y-96345184D01*
X178595182Y-96472739D01*
X178539284Y-96561701D01*
X178486950Y-96607991D01*
X178417896Y-96618639D01*
X178354048Y-96590264D01*
X178329297Y-96561700D01*
X178304815Y-96522737D01*
X178177262Y-96395184D01*
X178024523Y-96299211D01*
X177854254Y-96239631D01*
X177854249Y-96239630D01*
X177675004Y-96219435D01*
X177674996Y-96219435D01*
X177495750Y-96239630D01*
X177495745Y-96239631D01*
X177325476Y-96299211D01*
X177172737Y-96395184D01*
X177045184Y-96522737D01*
X176949211Y-96675476D01*
X176889631Y-96845745D01*
X176889630Y-96845750D01*
X176869435Y-97024996D01*
X176869435Y-97025003D01*
X176889630Y-97204249D01*
X176889631Y-97204254D01*
X176949211Y-97374523D01*
X176989285Y-97438300D01*
X177045184Y-97527262D01*
X177172738Y-97654816D01*
X177234895Y-97693872D01*
X177325479Y-97750790D01*
X177345966Y-97757959D01*
X177402741Y-97798681D01*
X177428488Y-97863634D01*
X177415031Y-97932196D01*
X177366643Y-97982598D01*
X177345966Y-97992041D01*
X177325479Y-97999209D01*
X177172737Y-98095184D01*
X177045184Y-98222737D01*
X176949211Y-98375476D01*
X176889631Y-98545745D01*
X176889630Y-98545750D01*
X176869435Y-98724996D01*
X176869435Y-98725003D01*
X160789139Y-98725003D01*
X160825849Y-98705736D01*
X160825850Y-98705734D01*
X160825852Y-98705734D01*
X160953183Y-98592929D01*
X161049818Y-98452930D01*
X161110140Y-98293872D01*
X161130645Y-98125000D01*
X161112432Y-97975000D01*
X162819355Y-97975000D01*
X162839859Y-98143869D01*
X162839860Y-98143874D01*
X162900182Y-98302931D01*
X162962475Y-98393177D01*
X162996817Y-98442929D01*
X163084659Y-98520750D01*
X163124150Y-98555736D01*
X163274773Y-98634789D01*
X163274775Y-98634790D01*
X163439944Y-98675500D01*
X163610056Y-98675500D01*
X163775225Y-98634790D01*
X163854987Y-98592927D01*
X163925849Y-98555736D01*
X163925850Y-98555734D01*
X163925852Y-98555734D01*
X164053183Y-98442929D01*
X164149818Y-98302930D01*
X164210140Y-98143872D01*
X164230645Y-97975000D01*
X164210140Y-97806128D01*
X164149818Y-97647070D01*
X164053183Y-97507071D01*
X163925852Y-97394266D01*
X163925849Y-97394263D01*
X163775226Y-97315210D01*
X163610056Y-97274500D01*
X163439944Y-97274500D01*
X163274773Y-97315210D01*
X163124150Y-97394263D01*
X162996816Y-97507072D01*
X162900182Y-97647068D01*
X162839860Y-97806125D01*
X162839859Y-97806130D01*
X162819355Y-97975000D01*
X161112432Y-97975000D01*
X161110140Y-97956128D01*
X161049818Y-97797070D01*
X161038425Y-97780565D01*
X160983360Y-97700790D01*
X160953183Y-97657071D01*
X160825852Y-97544266D01*
X160825849Y-97544263D01*
X160675226Y-97465210D01*
X160510056Y-97424500D01*
X160339944Y-97424500D01*
X160174773Y-97465210D01*
X160024150Y-97544263D01*
X159896816Y-97657072D01*
X159800182Y-97797068D01*
X159739860Y-97956125D01*
X159739859Y-97956130D01*
X159719355Y-98125000D01*
X158164143Y-98125000D01*
X158200852Y-98105734D01*
X158328183Y-97992929D01*
X158424818Y-97852930D01*
X158485140Y-97693872D01*
X158505645Y-97525000D01*
X158485140Y-97356128D01*
X158473524Y-97325500D01*
X158429299Y-97208885D01*
X158424818Y-97197070D01*
X158328183Y-97057071D01*
X158200852Y-96944266D01*
X158200849Y-96944263D01*
X158050226Y-96865210D01*
X157885056Y-96824500D01*
X157714944Y-96824500D01*
X157549773Y-96865210D01*
X157399150Y-96944263D01*
X157271816Y-97057072D01*
X157175182Y-97197068D01*
X157114860Y-97356125D01*
X157114859Y-97356130D01*
X157094355Y-97525000D01*
X157114859Y-97693869D01*
X157114860Y-97693874D01*
X157175182Y-97852931D01*
X157197734Y-97885602D01*
X157219617Y-97951956D01*
X157202152Y-98019608D01*
X157153311Y-98065838D01*
X157099149Y-98094265D01*
X157099148Y-98094266D01*
X156986697Y-98193889D01*
X156971816Y-98207072D01*
X156875182Y-98347068D01*
X156814860Y-98506125D01*
X156814859Y-98506130D01*
X156794355Y-98675000D01*
X154875929Y-98675000D01*
X154935140Y-98518872D01*
X154955645Y-98350000D01*
X154935140Y-98181128D01*
X154874818Y-98022070D01*
X154859039Y-97999211D01*
X154778181Y-97882068D01*
X154773209Y-97876456D01*
X154774976Y-97874890D01*
X154743978Y-97825467D01*
X154740236Y-97776900D01*
X154755645Y-97650000D01*
X154735140Y-97481128D01*
X154674818Y-97322070D01*
X154659438Y-97299789D01*
X154640476Y-97272318D01*
X154578183Y-97182071D01*
X154450852Y-97069266D01*
X154450849Y-97069263D01*
X154300226Y-96990210D01*
X154135056Y-96949500D01*
X153964944Y-96949500D01*
X153799773Y-96990210D01*
X153649150Y-97069263D01*
X153521816Y-97182072D01*
X153425182Y-97322068D01*
X153364860Y-97481125D01*
X153364859Y-97481130D01*
X153344355Y-97650000D01*
X153364859Y-97818869D01*
X153364860Y-97818874D01*
X153425182Y-97977931D01*
X153521818Y-98117931D01*
X153526791Y-98123544D01*
X153525023Y-98125110D01*
X153556021Y-98174529D01*
X153559763Y-98223101D01*
X153544355Y-98349999D01*
X153564859Y-98518869D01*
X153564861Y-98518877D01*
X153594634Y-98597382D01*
X153600001Y-98667045D01*
X153566853Y-98728551D01*
X153505714Y-98762372D01*
X153435996Y-98757770D01*
X153421065Y-98751148D01*
X153400224Y-98740209D01*
X153235056Y-98699500D01*
X153064944Y-98699500D01*
X152899773Y-98740210D01*
X152749150Y-98819263D01*
X152621816Y-98932072D01*
X152525182Y-99072068D01*
X152464860Y-99231125D01*
X152464858Y-99231136D01*
X152463827Y-99239626D01*
X152436202Y-99303803D01*
X152378266Y-99342857D01*
X152308413Y-99344388D01*
X152258505Y-99317490D01*
X152175852Y-99244266D01*
X152175850Y-99244265D01*
X152175849Y-99244264D01*
X152025226Y-99165210D01*
X151860056Y-99124500D01*
X151689944Y-99124500D01*
X151524773Y-99165210D01*
X151374150Y-99244263D01*
X151246816Y-99357072D01*
X151150182Y-99497068D01*
X151089860Y-99656125D01*
X151089859Y-99656130D01*
X151069355Y-99825000D01*
X151089859Y-99993869D01*
X151089859Y-99993870D01*
X151100807Y-100022737D01*
X151114858Y-100059789D01*
X151119895Y-100073069D01*
X151125261Y-100142733D01*
X151119895Y-100161009D01*
X151064859Y-100306129D01*
X151064859Y-100306130D01*
X151044355Y-100475000D01*
X148207078Y-100475000D01*
X148202262Y-100470184D01*
X148193426Y-100464632D01*
X148049523Y-100374211D01*
X147879254Y-100314631D01*
X147879249Y-100314630D01*
X147700004Y-100294435D01*
X147699996Y-100294435D01*
X147520750Y-100314630D01*
X147520745Y-100314631D01*
X147350476Y-100374211D01*
X147197737Y-100470184D01*
X147070184Y-100597737D01*
X146974211Y-100750476D01*
X146914631Y-100920745D01*
X146914630Y-100920750D01*
X146894435Y-101099996D01*
X146894435Y-101100003D01*
X131662979Y-101100003D01*
X131662979Y-96700003D01*
X133494435Y-96700003D01*
X133514630Y-96879249D01*
X133514631Y-96879254D01*
X133574211Y-97049523D01*
X133640019Y-97154255D01*
X133670184Y-97202262D01*
X133797738Y-97329816D01*
X133868887Y-97374522D01*
X133948426Y-97424500D01*
X133950478Y-97425789D01*
X134120745Y-97485368D01*
X134120750Y-97485369D01*
X134299996Y-97505565D01*
X134300000Y-97505565D01*
X134300004Y-97505565D01*
X134479249Y-97485369D01*
X134479252Y-97485368D01*
X134479255Y-97485368D01*
X134649522Y-97425789D01*
X134802262Y-97329816D01*
X134929816Y-97202262D01*
X135025789Y-97049522D01*
X135085368Y-96879255D01*
X135085369Y-96879249D01*
X135105565Y-96700003D01*
X135105565Y-96699996D01*
X135098805Y-96640000D01*
X139794355Y-96640000D01*
X139814859Y-96808869D01*
X139814860Y-96808874D01*
X139875182Y-96967931D01*
X139914572Y-97024996D01*
X139971817Y-97107929D01*
X140072435Y-97197068D01*
X140099150Y-97220736D01*
X140221193Y-97284789D01*
X140249775Y-97299790D01*
X140414944Y-97340500D01*
X140585056Y-97340500D01*
X140750225Y-97299790D01*
X140874073Y-97234789D01*
X140900849Y-97220736D01*
X140900850Y-97220734D01*
X140900852Y-97220734D01*
X141028183Y-97107929D01*
X141124818Y-96967930D01*
X141185140Y-96808872D01*
X141205645Y-96640000D01*
X141196162Y-96561906D01*
X141207622Y-96492988D01*
X141254525Y-96441201D01*
X141261600Y-96437183D01*
X141374460Y-96377950D01*
X141501791Y-96265145D01*
X141598426Y-96125146D01*
X141658748Y-95966088D01*
X141679253Y-95797216D01*
X141658748Y-95628344D01*
X141598426Y-95469286D01*
X141501791Y-95329287D01*
X141377158Y-95218872D01*
X141374457Y-95216479D01*
X141223834Y-95137426D01*
X141058664Y-95096716D01*
X140888552Y-95096716D01*
X140723381Y-95137426D01*
X140572758Y-95216479D01*
X140445424Y-95329288D01*
X140348790Y-95469284D01*
X140288468Y-95628341D01*
X140288467Y-95628346D01*
X140267963Y-95797215D01*
X140277445Y-95875305D01*
X140265985Y-95944229D01*
X140219081Y-95996015D01*
X140211976Y-96000048D01*
X140099149Y-96059265D01*
X140089369Y-96067929D01*
X139974793Y-96169435D01*
X139971816Y-96172072D01*
X139875182Y-96312068D01*
X139814860Y-96471125D01*
X139814859Y-96471130D01*
X139794355Y-96640000D01*
X135098805Y-96640000D01*
X135085369Y-96520750D01*
X135085368Y-96520745D01*
X135062758Y-96456130D01*
X135025789Y-96350478D01*
X134992230Y-96297070D01*
X134956139Y-96239631D01*
X134929816Y-96197738D01*
X134802262Y-96070184D01*
X134737124Y-96029255D01*
X134649523Y-95974211D01*
X134479254Y-95914631D01*
X134479249Y-95914630D01*
X134300004Y-95894435D01*
X134299996Y-95894435D01*
X134120750Y-95914630D01*
X134120745Y-95914631D01*
X133950476Y-95974211D01*
X133797737Y-96070184D01*
X133670184Y-96197737D01*
X133574211Y-96350476D01*
X133514631Y-96520745D01*
X133514630Y-96520750D01*
X133494435Y-96699996D01*
X133494435Y-96700003D01*
X131662979Y-96700003D01*
X131662979Y-95575000D01*
X136769355Y-95575000D01*
X136789859Y-95743869D01*
X136789860Y-95743874D01*
X136850182Y-95902931D01*
X136895697Y-95968869D01*
X136946817Y-96042929D01*
X137016266Y-96104455D01*
X137074150Y-96155736D01*
X137224773Y-96234789D01*
X137224775Y-96234790D01*
X137389944Y-96275500D01*
X137560056Y-96275500D01*
X137725225Y-96234790D01*
X137810071Y-96190259D01*
X137875849Y-96155736D01*
X137875850Y-96155734D01*
X137875852Y-96155734D01*
X138003183Y-96042929D01*
X138099818Y-95902930D01*
X138160140Y-95743872D01*
X138180645Y-95575000D01*
X138164997Y-95446132D01*
X138176457Y-95377212D01*
X138223361Y-95325425D01*
X138290816Y-95307218D01*
X138357407Y-95328370D01*
X138397889Y-95373562D01*
X138400180Y-95377927D01*
X138400181Y-95377929D01*
X138400182Y-95377930D01*
X138496817Y-95517929D01*
X138602505Y-95611560D01*
X138624150Y-95630736D01*
X138714071Y-95677930D01*
X138774775Y-95709790D01*
X138939944Y-95750500D01*
X139110056Y-95750500D01*
X139275225Y-95709790D01*
X139390061Y-95649519D01*
X139425849Y-95630736D01*
X139425850Y-95630734D01*
X139425852Y-95630734D01*
X139553183Y-95517929D01*
X139649818Y-95377930D01*
X139710140Y-95218872D01*
X139730645Y-95050000D01*
X139710140Y-94881128D01*
X139657933Y-94743470D01*
X139652567Y-94673807D01*
X139685715Y-94612301D01*
X139746853Y-94578480D01*
X139773876Y-94575500D01*
X139810056Y-94575500D01*
X139975225Y-94534790D01*
X140070045Y-94485024D01*
X140125849Y-94455736D01*
X140125850Y-94455734D01*
X140125852Y-94455734D01*
X140253183Y-94342929D01*
X140349818Y-94202930D01*
X140410140Y-94043872D01*
X140430645Y-93875000D01*
X140410140Y-93706128D01*
X140349818Y-93547070D01*
X140348903Y-93545745D01*
X140296747Y-93470184D01*
X140253183Y-93407071D01*
X140148841Y-93314632D01*
X140125849Y-93294263D01*
X140041513Y-93250000D01*
X143344355Y-93250000D01*
X143364859Y-93418869D01*
X143364860Y-93418874D01*
X143425182Y-93577931D01*
X143440761Y-93600500D01*
X143521817Y-93717929D01*
X143603406Y-93790210D01*
X143649150Y-93830736D01*
X143789227Y-93904254D01*
X143799775Y-93909790D01*
X143964944Y-93950500D01*
X143972524Y-93950500D01*
X144039563Y-93970185D01*
X144085318Y-94022989D01*
X144095744Y-94088386D01*
X144094435Y-94100001D01*
X144094435Y-94100003D01*
X144114630Y-94279249D01*
X144114631Y-94279254D01*
X144174211Y-94449523D01*
X144227788Y-94534789D01*
X144270184Y-94602262D01*
X144397738Y-94729816D01*
X144550478Y-94825789D01*
X144711323Y-94882071D01*
X144720745Y-94885368D01*
X144720750Y-94885369D01*
X144899996Y-94905565D01*
X144900000Y-94905565D01*
X144900001Y-94905565D01*
X144913682Y-94904023D01*
X144920874Y-94903213D01*
X144989696Y-94915267D01*
X145041076Y-94962616D01*
X145051801Y-94985478D01*
X145074211Y-95049522D01*
X145170184Y-95202262D01*
X145297738Y-95329816D01*
X145450478Y-95425789D01*
X145620745Y-95485368D01*
X145643286Y-95487907D01*
X145707699Y-95514973D01*
X145746444Y-95570173D01*
X145774209Y-95649519D01*
X145812079Y-95709789D01*
X145870184Y-95802262D01*
X145997738Y-95929816D01*
X146150478Y-96025789D01*
X146270907Y-96067929D01*
X146320745Y-96085368D01*
X146320750Y-96085369D01*
X146499996Y-96105565D01*
X146500000Y-96105565D01*
X146500004Y-96105565D01*
X146616848Y-96092400D01*
X146685669Y-96104455D01*
X146737049Y-96151804D01*
X146754673Y-96219414D01*
X146732946Y-96285820D01*
X146732783Y-96286058D01*
X146725182Y-96297069D01*
X146664860Y-96456125D01*
X146664859Y-96456130D01*
X146644355Y-96625000D01*
X146664859Y-96793869D01*
X146664860Y-96793874D01*
X146725182Y-96952931D01*
X146774926Y-97024996D01*
X146821817Y-97092929D01*
X146892712Y-97155736D01*
X146949150Y-97205736D01*
X147099773Y-97284789D01*
X147099775Y-97284790D01*
X147264944Y-97325500D01*
X147435056Y-97325500D01*
X147600225Y-97284790D01*
X147695493Y-97234789D01*
X147750849Y-97205736D01*
X147750850Y-97205734D01*
X147750852Y-97205734D01*
X147878183Y-97092929D01*
X147974818Y-96952930D01*
X148035140Y-96793872D01*
X148041186Y-96744077D01*
X148068807Y-96679899D01*
X148126741Y-96640842D01*
X148150396Y-96635802D01*
X148154255Y-96635368D01*
X148324522Y-96575789D01*
X148325778Y-96575000D01*
X155669355Y-96575000D01*
X155689859Y-96743869D01*
X155689860Y-96743874D01*
X155750182Y-96902931D01*
X155795049Y-96967931D01*
X155846817Y-97042929D01*
X155903256Y-97092929D01*
X155974150Y-97155736D01*
X156124773Y-97234789D01*
X156124775Y-97234790D01*
X156289944Y-97275500D01*
X156460056Y-97275500D01*
X156625225Y-97234790D01*
X156725672Y-97182071D01*
X156775849Y-97155736D01*
X156775850Y-97155734D01*
X156775852Y-97155734D01*
X156903183Y-97042929D01*
X156999818Y-96902930D01*
X157060140Y-96743872D01*
X157080645Y-96575000D01*
X157060140Y-96406128D01*
X157002598Y-96254402D01*
X156997232Y-96184739D01*
X157016492Y-96139991D01*
X157024818Y-96127930D01*
X157085140Y-95968872D01*
X157105645Y-95800000D01*
X157085140Y-95631128D01*
X157033122Y-95493968D01*
X157027756Y-95424308D01*
X157033123Y-95406030D01*
X157085140Y-95268872D01*
X157105645Y-95100000D01*
X157085140Y-94931128D01*
X157066178Y-94881130D01*
X157027040Y-94777930D01*
X157024818Y-94772070D01*
X157023344Y-94769935D01*
X156989633Y-94721096D01*
X156928183Y-94632071D01*
X156800852Y-94519266D01*
X156800849Y-94519263D01*
X156650226Y-94440210D01*
X156485056Y-94399500D01*
X156314944Y-94399500D01*
X156149773Y-94440210D01*
X155999150Y-94519263D01*
X155871816Y-94632072D01*
X155775182Y-94772068D01*
X155714860Y-94931125D01*
X155714859Y-94931130D01*
X155694355Y-95100000D01*
X155714859Y-95268869D01*
X155714859Y-95268870D01*
X155766876Y-95406030D01*
X155772242Y-95475694D01*
X155766876Y-95493970D01*
X155714859Y-95631129D01*
X155714859Y-95631130D01*
X155694355Y-95800000D01*
X155714859Y-95968869D01*
X155714861Y-95968877D01*
X155772400Y-96120596D01*
X155777767Y-96190259D01*
X155758511Y-96235002D01*
X155750183Y-96247067D01*
X155750182Y-96247068D01*
X155689860Y-96406125D01*
X155689859Y-96406130D01*
X155669355Y-96575000D01*
X148325778Y-96575000D01*
X148477262Y-96479816D01*
X148604816Y-96352262D01*
X148700789Y-96199522D01*
X148760368Y-96029255D01*
X148762561Y-96009790D01*
X148780565Y-95850003D01*
X148780565Y-95849996D01*
X148760369Y-95670750D01*
X148760368Y-95670745D01*
X148746368Y-95630736D01*
X148735613Y-95600000D01*
X149744355Y-95600000D01*
X149764859Y-95768869D01*
X149764860Y-95768874D01*
X149825182Y-95927931D01*
X149872178Y-95996015D01*
X149921817Y-96067929D01*
X150003155Y-96139988D01*
X150049150Y-96180736D01*
X150189511Y-96254403D01*
X150199775Y-96259790D01*
X150364944Y-96300500D01*
X150535056Y-96300500D01*
X150700225Y-96259790D01*
X150832704Y-96190259D01*
X150850849Y-96180736D01*
X150850850Y-96180734D01*
X150850852Y-96180734D01*
X150978183Y-96067929D01*
X151051256Y-95962065D01*
X151105538Y-95918076D01*
X151174987Y-95910416D01*
X151217229Y-95927777D01*
X151217507Y-95927249D01*
X151223151Y-95930211D01*
X151223744Y-95930455D01*
X151224151Y-95930736D01*
X151348529Y-95996015D01*
X151374775Y-96009790D01*
X151539944Y-96050500D01*
X151710056Y-96050500D01*
X151875225Y-96009790D01*
X151954692Y-95968081D01*
X152025849Y-95930736D01*
X152025850Y-95930734D01*
X152025852Y-95930734D01*
X152153183Y-95817929D01*
X152249818Y-95677930D01*
X152310140Y-95518872D01*
X152330645Y-95350000D01*
X152310140Y-95181128D01*
X152309281Y-95178864D01*
X152249817Y-95022068D01*
X152196349Y-94944608D01*
X152153183Y-94882071D01*
X152029015Y-94772068D01*
X152025849Y-94769263D01*
X151875226Y-94690210D01*
X151710056Y-94649500D01*
X151571388Y-94649500D01*
X151504349Y-94629815D01*
X151458594Y-94577011D01*
X151448292Y-94510553D01*
X151455645Y-94450000D01*
X151435140Y-94281128D01*
X151434427Y-94279249D01*
X151403514Y-94197737D01*
X151374818Y-94122070D01*
X151351567Y-94088386D01*
X151320839Y-94043869D01*
X151278183Y-93982071D01*
X151168307Y-93884730D01*
X151150849Y-93869263D01*
X151000226Y-93790210D01*
X150835056Y-93749500D01*
X150664944Y-93749500D01*
X150499773Y-93790210D01*
X150349150Y-93869263D01*
X150221816Y-93982072D01*
X150125182Y-94122068D01*
X150064860Y-94281125D01*
X150064859Y-94281130D01*
X150044355Y-94450000D01*
X150064859Y-94618869D01*
X150064860Y-94618874D01*
X150125182Y-94777931D01*
X150147734Y-94810602D01*
X150169617Y-94876956D01*
X150152152Y-94944608D01*
X150103311Y-94990838D01*
X150049149Y-95019265D01*
X150049148Y-95019266D01*
X149934602Y-95120745D01*
X149921816Y-95132072D01*
X149825182Y-95272068D01*
X149764860Y-95431125D01*
X149764859Y-95431130D01*
X149744355Y-95600000D01*
X148735613Y-95600000D01*
X148700789Y-95500478D01*
X148696700Y-95493971D01*
X148641443Y-95406029D01*
X148604816Y-95347738D01*
X148526851Y-95269773D01*
X148493366Y-95208450D01*
X148498350Y-95138758D01*
X148524916Y-95100056D01*
X148523209Y-95098544D01*
X148528181Y-95092931D01*
X148528181Y-95092930D01*
X148528183Y-95092929D01*
X148624818Y-94952930D01*
X148685140Y-94793872D01*
X148705645Y-94625000D01*
X148685140Y-94456128D01*
X148624818Y-94297070D01*
X148613815Y-94281130D01*
X148559837Y-94202930D01*
X148528183Y-94157071D01*
X148433316Y-94073026D01*
X148400849Y-94044263D01*
X148250226Y-93965210D01*
X148085056Y-93924500D01*
X147914944Y-93924500D01*
X147749773Y-93965210D01*
X147599150Y-94044263D01*
X147471816Y-94157072D01*
X147375182Y-94297068D01*
X147314860Y-94456125D01*
X147314859Y-94456130D01*
X147294355Y-94625000D01*
X147297654Y-94652172D01*
X147286193Y-94721096D01*
X147239289Y-94772881D01*
X147171833Y-94791088D01*
X147105242Y-94769935D01*
X147086877Y-94754799D01*
X147002262Y-94670184D01*
X146849521Y-94574210D01*
X146679249Y-94514630D01*
X146656711Y-94512091D01*
X146592297Y-94485024D01*
X146553553Y-94429825D01*
X146539691Y-94390210D01*
X146525789Y-94350478D01*
X146525174Y-94349500D01*
X146429815Y-94197737D01*
X146302262Y-94070184D01*
X146149523Y-93974211D01*
X145979254Y-93914631D01*
X145979249Y-93914630D01*
X145800004Y-93894435D01*
X145800000Y-93894435D01*
X145779119Y-93896787D01*
X145710298Y-93884730D01*
X145658920Y-93837379D01*
X145648198Y-93814520D01*
X145625788Y-93750476D01*
X145529815Y-93597737D01*
X145402262Y-93470184D01*
X145249523Y-93374211D01*
X145079254Y-93314631D01*
X145079249Y-93314630D01*
X144900004Y-93294435D01*
X144899996Y-93294435D01*
X144885075Y-93296116D01*
X144816254Y-93284061D01*
X144764875Y-93236711D01*
X144748097Y-93187844D01*
X144735140Y-93081128D01*
X144674818Y-92922070D01*
X144672999Y-92919435D01*
X144640476Y-92872318D01*
X144578183Y-92782071D01*
X144450852Y-92669266D01*
X144450849Y-92669263D01*
X144318885Y-92600003D01*
X161094435Y-92600003D01*
X161114630Y-92779249D01*
X161114631Y-92779254D01*
X161174211Y-92949523D01*
X161231311Y-93040396D01*
X161270184Y-93102262D01*
X161397738Y-93229816D01*
X161484068Y-93284061D01*
X161532721Y-93314632D01*
X161550478Y-93325789D01*
X161670907Y-93367929D01*
X161720745Y-93385368D01*
X161720750Y-93385369D01*
X161899996Y-93405565D01*
X161900000Y-93405565D01*
X161900004Y-93405565D01*
X162079249Y-93385369D01*
X162079252Y-93385368D01*
X162079255Y-93385368D01*
X162249522Y-93325789D01*
X162402262Y-93229816D01*
X162529816Y-93102262D01*
X162568690Y-93040393D01*
X162621020Y-92994104D01*
X162644003Y-92985970D01*
X162750225Y-92959790D01*
X162864144Y-92900000D01*
X164094355Y-92900000D01*
X164114859Y-93068869D01*
X164114860Y-93068874D01*
X164175182Y-93227931D01*
X164220971Y-93294266D01*
X164271817Y-93367929D01*
X164375506Y-93459789D01*
X164399150Y-93480736D01*
X164525539Y-93547070D01*
X164549775Y-93559790D01*
X164714944Y-93600500D01*
X164885056Y-93600500D01*
X165050225Y-93559790D01*
X165200852Y-93480734D01*
X165281443Y-93409336D01*
X165344673Y-93379616D01*
X165413937Y-93388799D01*
X165421276Y-93392348D01*
X165549775Y-93459790D01*
X165714944Y-93500500D01*
X165885056Y-93500500D01*
X166050225Y-93459790D01*
X166153541Y-93405565D01*
X166200849Y-93380736D01*
X166200850Y-93380734D01*
X166200852Y-93380734D01*
X166328183Y-93267929D01*
X166424818Y-93127930D01*
X166485140Y-92968872D01*
X166505645Y-92800000D01*
X166485140Y-92631128D01*
X166424818Y-92472070D01*
X166422608Y-92468869D01*
X166349626Y-92363137D01*
X166328183Y-92332071D01*
X166200852Y-92219266D01*
X166200849Y-92219263D01*
X166050226Y-92140210D01*
X165885056Y-92099500D01*
X165714944Y-92099500D01*
X165549773Y-92140210D01*
X165399150Y-92219264D01*
X165318558Y-92290662D01*
X165255324Y-92320383D01*
X165186061Y-92311199D01*
X165178705Y-92307642D01*
X165050226Y-92240210D01*
X164885056Y-92199500D01*
X164714944Y-92199500D01*
X164549773Y-92240210D01*
X164399150Y-92319263D01*
X164271816Y-92432072D01*
X164175182Y-92572068D01*
X164114860Y-92731125D01*
X164114859Y-92731130D01*
X164094355Y-92900000D01*
X162864144Y-92900000D01*
X162900852Y-92880734D01*
X163028183Y-92767929D01*
X163124818Y-92627930D01*
X163185140Y-92468872D01*
X163205645Y-92300000D01*
X163185140Y-92131128D01*
X163175509Y-92105734D01*
X163167449Y-92084482D01*
X163124818Y-91972070D01*
X163124817Y-91972068D01*
X163122158Y-91965057D01*
X163123738Y-91964457D01*
X163111813Y-91904938D01*
X163137304Y-91839884D01*
X163193919Y-91798939D01*
X163205653Y-91795423D01*
X163350225Y-91759790D01*
X163500849Y-91680736D01*
X163500850Y-91680734D01*
X163500852Y-91680734D01*
X163628183Y-91567929D01*
X163724818Y-91427930D01*
X163785140Y-91268872D01*
X163787011Y-91253455D01*
X163814629Y-91189281D01*
X163852477Y-91158608D01*
X164000852Y-91080734D01*
X164128183Y-90967929D01*
X164224818Y-90827930D01*
X164285140Y-90668872D01*
X164305645Y-90500000D01*
X164285140Y-90331128D01*
X164224818Y-90172070D01*
X164222880Y-90169263D01*
X164189121Y-90120355D01*
X164128183Y-90032071D01*
X164014244Y-89931130D01*
X164000849Y-89919263D01*
X163850226Y-89840210D01*
X163685056Y-89799500D01*
X163514944Y-89799500D01*
X163508832Y-89799500D01*
X163441793Y-89779815D01*
X163406782Y-89745941D01*
X163402629Y-89739924D01*
X163328183Y-89632071D01*
X163200852Y-89519266D01*
X163200849Y-89519263D01*
X163050226Y-89440210D01*
X162885056Y-89399500D01*
X162714944Y-89399500D01*
X162549773Y-89440210D01*
X162399150Y-89519263D01*
X162282638Y-89622484D01*
X162272882Y-89631128D01*
X162271816Y-89632072D01*
X162175182Y-89772068D01*
X162114860Y-89931125D01*
X162114859Y-89931130D01*
X162094355Y-90100000D01*
X162114859Y-90268869D01*
X162114860Y-90268874D01*
X162175182Y-90427931D01*
X162220054Y-90492938D01*
X162271817Y-90567929D01*
X162399148Y-90680734D01*
X162399149Y-90680734D01*
X162399152Y-90680737D01*
X162405322Y-90684996D01*
X162403702Y-90687341D01*
X162444390Y-90726710D01*
X162460365Y-90794729D01*
X162452494Y-90831892D01*
X162414861Y-90931122D01*
X162414859Y-90931130D01*
X162394355Y-91100000D01*
X162414859Y-91268869D01*
X162414860Y-91268874D01*
X162477842Y-91434943D01*
X162476261Y-91435542D01*
X162488185Y-91495070D01*
X162462690Y-91560122D01*
X162406072Y-91601063D01*
X162394339Y-91604578D01*
X162249773Y-91640210D01*
X162099151Y-91719263D01*
X162099144Y-91719268D01*
X162042693Y-91769279D01*
X161979460Y-91799000D01*
X161946584Y-91799683D01*
X161900003Y-91794435D01*
X161899996Y-91794435D01*
X161720750Y-91814630D01*
X161720745Y-91814631D01*
X161550476Y-91874211D01*
X161397737Y-91970184D01*
X161270184Y-92097737D01*
X161174211Y-92250476D01*
X161114631Y-92420745D01*
X161114630Y-92420750D01*
X161094435Y-92599996D01*
X161094435Y-92600003D01*
X144318885Y-92600003D01*
X144300226Y-92590210D01*
X144135056Y-92549500D01*
X143964944Y-92549500D01*
X143799773Y-92590210D01*
X143649150Y-92669263D01*
X143521816Y-92782072D01*
X143425182Y-92922068D01*
X143364860Y-93081125D01*
X143364859Y-93081130D01*
X143344355Y-93250000D01*
X140041513Y-93250000D01*
X139975226Y-93215210D01*
X139810056Y-93174500D01*
X139639944Y-93174500D01*
X139474773Y-93215210D01*
X139324150Y-93294263D01*
X139196816Y-93407072D01*
X139100182Y-93547068D01*
X139039860Y-93706125D01*
X139039859Y-93706130D01*
X139019355Y-93875000D01*
X139039859Y-94043869D01*
X139039860Y-94043874D01*
X139092066Y-94181529D01*
X139097433Y-94251193D01*
X139064285Y-94312699D01*
X139003147Y-94346520D01*
X138976124Y-94349500D01*
X138939944Y-94349500D01*
X138774773Y-94390210D01*
X138624150Y-94469263D01*
X138496816Y-94582072D01*
X138400182Y-94722068D01*
X138339860Y-94881125D01*
X138339859Y-94881130D01*
X138319355Y-95050000D01*
X138335002Y-95178864D01*
X138323542Y-95247788D01*
X138276638Y-95299574D01*
X138209182Y-95317781D01*
X138142591Y-95296629D01*
X138102108Y-95251433D01*
X138099819Y-95247071D01*
X138057732Y-95186098D01*
X138003183Y-95107071D01*
X137875852Y-94994266D01*
X137875849Y-94994263D01*
X137725226Y-94915210D01*
X137560056Y-94874500D01*
X137389944Y-94874500D01*
X137224773Y-94915210D01*
X137074150Y-94994263D01*
X136946816Y-95107072D01*
X136850182Y-95247068D01*
X136789860Y-95406125D01*
X136789859Y-95406130D01*
X136769355Y-95575000D01*
X131662979Y-95575000D01*
X131662979Y-93725003D01*
X135994435Y-93725003D01*
X136014630Y-93904249D01*
X136014631Y-93904254D01*
X136074211Y-94074523D01*
X136141448Y-94181529D01*
X136170184Y-94227262D01*
X136297738Y-94354816D01*
X136354067Y-94390210D01*
X136449220Y-94449999D01*
X136450478Y-94450789D01*
X136548316Y-94485024D01*
X136620745Y-94510368D01*
X136620750Y-94510369D01*
X136799996Y-94530565D01*
X136800000Y-94530565D01*
X136800004Y-94530565D01*
X136979249Y-94510369D01*
X136979252Y-94510368D01*
X136979255Y-94510368D01*
X137149522Y-94450789D01*
X137302262Y-94354816D01*
X137429816Y-94227262D01*
X137525789Y-94074522D01*
X137585368Y-93904255D01*
X137585369Y-93904249D01*
X137605565Y-93725003D01*
X137605565Y-93724996D01*
X137585369Y-93545750D01*
X137585368Y-93545745D01*
X137529250Y-93385369D01*
X137525789Y-93375478D01*
X137521044Y-93367927D01*
X137434263Y-93229816D01*
X137429816Y-93222738D01*
X137302262Y-93095184D01*
X137260382Y-93068869D01*
X137149523Y-92999211D01*
X136979254Y-92939631D01*
X136979249Y-92939630D01*
X136800004Y-92919435D01*
X136799996Y-92919435D01*
X136620750Y-92939630D01*
X136620745Y-92939631D01*
X136450476Y-92999211D01*
X136297737Y-93095184D01*
X136170184Y-93222737D01*
X136074211Y-93375476D01*
X136014631Y-93545745D01*
X136014630Y-93545750D01*
X135994435Y-93724996D01*
X135994435Y-93725003D01*
X131662979Y-93725003D01*
X131662979Y-89800000D01*
X140694355Y-89800000D01*
X140714859Y-89968869D01*
X140714860Y-89968874D01*
X140775182Y-90127931D01*
X140822531Y-90196526D01*
X140871817Y-90267929D01*
X140977505Y-90361560D01*
X140999150Y-90380736D01*
X141149773Y-90459789D01*
X141149775Y-90459790D01*
X141314944Y-90500500D01*
X141485056Y-90500500D01*
X141650225Y-90459790D01*
X141717355Y-90424556D01*
X141785862Y-90410831D01*
X141850916Y-90436323D01*
X141891861Y-90492938D01*
X141895697Y-90562703D01*
X141890925Y-90578319D01*
X141889861Y-90581123D01*
X141889859Y-90581130D01*
X141869355Y-90750000D01*
X141889859Y-90918869D01*
X141889860Y-90918874D01*
X141950182Y-91077931D01*
X142032418Y-91197068D01*
X142046817Y-91217929D01*
X142046819Y-91217931D01*
X142046821Y-91217933D01*
X142074688Y-91242621D01*
X142111815Y-91301810D01*
X142115557Y-91350382D01*
X142094355Y-91524999D01*
X142114859Y-91693869D01*
X142114860Y-91693874D01*
X142175182Y-91852931D01*
X142237475Y-91943177D01*
X142271817Y-91992929D01*
X142377505Y-92086560D01*
X142399150Y-92105736D01*
X142549773Y-92184789D01*
X142549775Y-92184790D01*
X142714944Y-92225500D01*
X142885056Y-92225500D01*
X143050225Y-92184790D01*
X143135164Y-92140210D01*
X143200849Y-92105736D01*
X143200850Y-92105734D01*
X143200852Y-92105734D01*
X143328183Y-91992929D01*
X143424818Y-91852930D01*
X143485140Y-91693872D01*
X143505645Y-91525000D01*
X143485140Y-91356128D01*
X143424818Y-91197070D01*
X143328183Y-91057071D01*
X143328180Y-91057068D01*
X143328178Y-91057066D01*
X143300311Y-91032378D01*
X143263184Y-90973189D01*
X143259442Y-90924616D01*
X143260139Y-90918874D01*
X143260140Y-90918872D01*
X143280645Y-90750000D01*
X143260140Y-90581128D01*
X143210411Y-90450003D01*
X155269435Y-90450003D01*
X155289630Y-90629249D01*
X155289631Y-90629254D01*
X155349211Y-90799523D01*
X155369550Y-90831892D01*
X155445184Y-90952262D01*
X155572738Y-91079816D01*
X155725478Y-91175789D01*
X155786290Y-91197068D01*
X155895745Y-91235368D01*
X155895750Y-91235369D01*
X156074996Y-91255565D01*
X156075000Y-91255565D01*
X156075004Y-91255565D01*
X156254249Y-91235369D01*
X156254252Y-91235368D01*
X156254255Y-91235368D01*
X156424522Y-91175789D01*
X156577262Y-91079816D01*
X156704816Y-90952262D01*
X156800789Y-90799522D01*
X156860368Y-90629255D01*
X156860369Y-90629249D01*
X156880565Y-90450003D01*
X156880565Y-90449996D01*
X156860369Y-90270750D01*
X156860366Y-90270739D01*
X156858815Y-90266305D01*
X156855251Y-90196526D01*
X156889978Y-90135898D01*
X156951971Y-90103669D01*
X157021546Y-90110072D01*
X157041829Y-90120354D01*
X157050478Y-90125789D01*
X157220745Y-90185368D01*
X157220750Y-90185369D01*
X157399996Y-90205565D01*
X157400000Y-90205565D01*
X157400004Y-90205565D01*
X157579249Y-90185369D01*
X157579252Y-90185368D01*
X157579255Y-90185368D01*
X157749522Y-90125789D01*
X157902262Y-90029816D01*
X158029816Y-89902262D01*
X158125789Y-89749522D01*
X158185368Y-89579255D01*
X158192127Y-89519266D01*
X158205565Y-89400003D01*
X158205565Y-89399996D01*
X158185369Y-89220750D01*
X158185368Y-89220745D01*
X158177942Y-89199522D01*
X158125789Y-89050478D01*
X158029816Y-88897738D01*
X157902262Y-88770184D01*
X157835017Y-88727931D01*
X157749523Y-88674211D01*
X157579254Y-88614631D01*
X157579249Y-88614630D01*
X157400004Y-88594435D01*
X157399996Y-88594435D01*
X157220750Y-88614630D01*
X157220745Y-88614631D01*
X157050476Y-88674211D01*
X156897737Y-88770184D01*
X156770184Y-88897737D01*
X156674211Y-89050476D01*
X156614631Y-89220745D01*
X156614630Y-89220750D01*
X156594435Y-89399996D01*
X156594435Y-89400003D01*
X156614630Y-89579249D01*
X156614632Y-89579256D01*
X156616187Y-89583700D01*
X156619747Y-89653479D01*
X156585016Y-89714106D01*
X156523022Y-89746331D01*
X156453447Y-89739924D01*
X156433171Y-89729645D01*
X156424524Y-89724211D01*
X156254254Y-89664631D01*
X156254249Y-89664630D01*
X156075004Y-89644435D01*
X156074996Y-89644435D01*
X155895750Y-89664630D01*
X155895745Y-89664631D01*
X155725476Y-89724211D01*
X155572737Y-89820184D01*
X155445184Y-89947737D01*
X155349211Y-90100476D01*
X155289631Y-90270745D01*
X155289630Y-90270750D01*
X155269435Y-90449996D01*
X155269435Y-90450003D01*
X143210411Y-90450003D01*
X143199818Y-90422070D01*
X143192060Y-90410831D01*
X143137045Y-90331128D01*
X143103183Y-90282071D01*
X142994029Y-90185369D01*
X142975849Y-90169263D01*
X142825226Y-90090210D01*
X142660056Y-90049500D01*
X142489944Y-90049500D01*
X142324774Y-90090209D01*
X142257643Y-90125443D01*
X142189135Y-90139167D01*
X142124082Y-90113675D01*
X142083138Y-90057059D01*
X142079303Y-89987294D01*
X142084080Y-89971666D01*
X142085139Y-89968874D01*
X142085140Y-89968872D01*
X142105645Y-89800000D01*
X142085140Y-89631128D01*
X142024818Y-89472070D01*
X142002826Y-89440210D01*
X141975071Y-89400000D01*
X141928183Y-89332071D01*
X141802527Y-89220750D01*
X141800849Y-89219263D01*
X141650226Y-89140210D01*
X141485056Y-89099500D01*
X141314944Y-89099500D01*
X141149773Y-89140210D01*
X140999150Y-89219263D01*
X140871816Y-89332072D01*
X140775182Y-89472068D01*
X140714860Y-89631125D01*
X140714859Y-89631130D01*
X140694355Y-89800000D01*
X131662979Y-89800000D01*
X131662979Y-86950003D01*
X133244435Y-86950003D01*
X133264630Y-87129249D01*
X133264631Y-87129254D01*
X133324211Y-87299523D01*
X133398611Y-87417929D01*
X133420184Y-87452262D01*
X133547738Y-87579816D01*
X133700478Y-87675789D01*
X133849491Y-87727931D01*
X133870745Y-87735368D01*
X133870750Y-87735369D01*
X134049996Y-87755565D01*
X134050000Y-87755565D01*
X134050004Y-87755565D01*
X134229249Y-87735369D01*
X134229252Y-87735368D01*
X134229255Y-87735368D01*
X134330322Y-87700003D01*
X136644435Y-87700003D01*
X136664630Y-87879249D01*
X136664631Y-87879254D01*
X136724211Y-88049523D01*
X136784675Y-88145750D01*
X136820184Y-88202262D01*
X136947738Y-88329816D01*
X137098615Y-88424618D01*
X137144906Y-88476953D01*
X137155554Y-88546006D01*
X137149685Y-88570566D01*
X137114632Y-88670742D01*
X137114630Y-88670750D01*
X137094435Y-88849996D01*
X137094435Y-88850003D01*
X137114630Y-89029249D01*
X137114631Y-89029254D01*
X137174211Y-89199523D01*
X137187546Y-89220745D01*
X137270184Y-89352262D01*
X137397738Y-89479816D01*
X137550478Y-89575789D01*
X137711320Y-89632070D01*
X137720745Y-89635368D01*
X137720750Y-89635369D01*
X137899996Y-89655565D01*
X137900000Y-89655565D01*
X137900004Y-89655565D01*
X138079249Y-89635369D01*
X138079252Y-89635368D01*
X138079255Y-89635368D01*
X138249522Y-89575789D01*
X138402262Y-89479816D01*
X138529816Y-89352262D01*
X138625789Y-89199522D01*
X138685368Y-89029255D01*
X138690835Y-88980734D01*
X138705565Y-88850003D01*
X138705565Y-88849996D01*
X138685369Y-88670750D01*
X138685368Y-88670745D01*
X138665733Y-88614631D01*
X138625789Y-88500478D01*
X138529816Y-88347738D01*
X138402262Y-88220184D01*
X138402260Y-88220182D01*
X138251383Y-88125379D01*
X138205093Y-88073045D01*
X138194445Y-88003991D01*
X138200315Y-87979431D01*
X138235366Y-87879262D01*
X138235369Y-87879249D01*
X138255565Y-87700003D01*
X138255565Y-87699996D01*
X138235369Y-87520750D01*
X138235368Y-87520745D01*
X138211639Y-87452931D01*
X138175789Y-87350478D01*
X138079816Y-87197738D01*
X137952262Y-87070184D01*
X137799523Y-86974211D01*
X137730332Y-86950000D01*
X141519355Y-86950000D01*
X141539859Y-87118869D01*
X141539860Y-87118874D01*
X141600182Y-87277931D01*
X141671466Y-87381202D01*
X141693349Y-87447556D01*
X141690615Y-87473664D01*
X141690764Y-87473683D01*
X141669355Y-87650000D01*
X141689859Y-87818869D01*
X141689860Y-87818874D01*
X141750182Y-87977931D01*
X141796426Y-88044926D01*
X141818309Y-88111280D01*
X141815269Y-88142951D01*
X141814631Y-88145746D01*
X141794435Y-88324996D01*
X141794435Y-88325003D01*
X141814630Y-88504249D01*
X141814631Y-88504254D01*
X141874211Y-88674523D01*
X141907770Y-88727931D01*
X141970184Y-88827262D01*
X142097738Y-88954816D01*
X142188080Y-89011582D01*
X142249979Y-89050476D01*
X142250478Y-89050789D01*
X142389686Y-89099500D01*
X142420745Y-89110368D01*
X142420750Y-89110369D01*
X142599996Y-89130565D01*
X142600000Y-89130565D01*
X142600004Y-89130565D01*
X142779249Y-89110369D01*
X142779252Y-89110368D01*
X142779255Y-89110368D01*
X142949522Y-89050789D01*
X143102262Y-88954816D01*
X143229816Y-88827262D01*
X143325789Y-88674522D01*
X143385368Y-88504255D01*
X143388444Y-88476953D01*
X143397115Y-88400000D01*
X164694355Y-88400000D01*
X164714859Y-88568869D01*
X164714860Y-88568874D01*
X164775182Y-88727931D01*
X164804348Y-88770184D01*
X164871817Y-88867929D01*
X164905465Y-88897738D01*
X164999150Y-88980736D01*
X165132623Y-89050788D01*
X165149775Y-89059790D01*
X165314944Y-89100500D01*
X165485056Y-89100500D01*
X165650225Y-89059790D01*
X165729692Y-89018081D01*
X165800849Y-88980736D01*
X165800850Y-88980734D01*
X165800852Y-88980734D01*
X165928183Y-88867929D01*
X166024818Y-88727930D01*
X166085140Y-88568872D01*
X166105645Y-88400000D01*
X166085140Y-88231128D01*
X166024818Y-88072070D01*
X165928183Y-87932071D01*
X165807889Y-87825500D01*
X165800849Y-87819263D01*
X165650226Y-87740210D01*
X165485056Y-87699500D01*
X165314944Y-87699500D01*
X165149773Y-87740210D01*
X164999150Y-87819263D01*
X164871816Y-87932072D01*
X164775182Y-88072068D01*
X164714860Y-88231125D01*
X164714859Y-88231130D01*
X164694355Y-88400000D01*
X143397115Y-88400000D01*
X143405565Y-88325003D01*
X143405565Y-88324996D01*
X143385369Y-88145750D01*
X143385368Y-88145745D01*
X143325788Y-87975476D01*
X143231551Y-87825500D01*
X143229816Y-87822738D01*
X143114158Y-87707080D01*
X143080674Y-87645757D01*
X143078744Y-87634346D01*
X143060140Y-87481130D01*
X143060139Y-87481125D01*
X143036172Y-87417929D01*
X142999818Y-87322070D01*
X142928532Y-87218795D01*
X142906650Y-87152443D01*
X142909386Y-87126336D01*
X142909236Y-87126318D01*
X142909396Y-87125000D01*
X148569355Y-87125000D01*
X148589859Y-87293869D01*
X148589860Y-87293874D01*
X148650182Y-87452931D01*
X148696995Y-87520750D01*
X148746817Y-87592929D01*
X148840346Y-87675788D01*
X148874150Y-87705736D01*
X149024773Y-87784789D01*
X149024775Y-87784790D01*
X149189944Y-87825500D01*
X149360056Y-87825500D01*
X149525225Y-87784790D01*
X149633562Y-87727930D01*
X149675849Y-87705736D01*
X149675850Y-87705734D01*
X149675852Y-87705734D01*
X149803183Y-87592929D01*
X149899818Y-87452930D01*
X149919891Y-87400000D01*
X177994355Y-87400000D01*
X178014859Y-87568869D01*
X178014860Y-87568874D01*
X178075182Y-87727931D01*
X178083658Y-87740210D01*
X178171817Y-87867929D01*
X178244219Y-87932071D01*
X178299150Y-87980736D01*
X178421454Y-88044926D01*
X178449775Y-88059790D01*
X178614944Y-88100500D01*
X178785056Y-88100500D01*
X178950225Y-88059790D01*
X179056540Y-88003991D01*
X179100849Y-87980736D01*
X179100850Y-87980734D01*
X179100852Y-87980734D01*
X179228183Y-87867929D01*
X179324818Y-87727930D01*
X179385140Y-87568872D01*
X179405645Y-87400000D01*
X179385140Y-87231128D01*
X179324818Y-87072070D01*
X179323516Y-87070184D01*
X179257270Y-86974211D01*
X179228183Y-86932071D01*
X179100852Y-86819266D01*
X179100849Y-86819263D01*
X178950226Y-86740210D01*
X178785056Y-86699500D01*
X178614944Y-86699500D01*
X178449773Y-86740210D01*
X178299150Y-86819263D01*
X178171816Y-86932072D01*
X178075182Y-87072068D01*
X178014860Y-87231125D01*
X178014859Y-87231130D01*
X177994355Y-87400000D01*
X149919891Y-87400000D01*
X149960140Y-87293872D01*
X149980645Y-87125000D01*
X149960140Y-86956128D01*
X149957814Y-86949996D01*
X149908236Y-86819266D01*
X149899818Y-86797070D01*
X149888815Y-86781130D01*
X149860570Y-86740210D01*
X149803183Y-86657071D01*
X149675852Y-86544266D01*
X149675849Y-86544263D01*
X149525226Y-86465210D01*
X149360056Y-86424500D01*
X149189944Y-86424500D01*
X149024773Y-86465210D01*
X148874150Y-86544263D01*
X148746816Y-86657072D01*
X148650182Y-86797068D01*
X148589860Y-86956125D01*
X148589859Y-86956130D01*
X148569355Y-87125000D01*
X142909396Y-87125000D01*
X142916052Y-87070184D01*
X142930645Y-86950000D01*
X142910140Y-86781128D01*
X142849818Y-86622070D01*
X142753183Y-86482071D01*
X142625852Y-86369266D01*
X142625849Y-86369263D01*
X142475226Y-86290210D01*
X142310056Y-86249500D01*
X142139944Y-86249500D01*
X141974773Y-86290210D01*
X141824150Y-86369263D01*
X141696816Y-86482072D01*
X141600182Y-86622068D01*
X141539860Y-86781125D01*
X141539859Y-86781130D01*
X141519355Y-86950000D01*
X137730332Y-86950000D01*
X137629254Y-86914631D01*
X137629249Y-86914630D01*
X137450004Y-86894435D01*
X137449996Y-86894435D01*
X137270750Y-86914630D01*
X137270745Y-86914631D01*
X137100476Y-86974211D01*
X136947737Y-87070184D01*
X136820184Y-87197737D01*
X136724211Y-87350476D01*
X136664631Y-87520745D01*
X136664630Y-87520750D01*
X136644435Y-87699996D01*
X136644435Y-87700003D01*
X134330322Y-87700003D01*
X134399522Y-87675789D01*
X134552262Y-87579816D01*
X134679816Y-87452262D01*
X134775789Y-87299522D01*
X134835368Y-87129255D01*
X134835699Y-87126318D01*
X134855565Y-86950003D01*
X134855565Y-86949996D01*
X134835369Y-86770750D01*
X134835368Y-86770745D01*
X134783344Y-86622070D01*
X134775789Y-86600478D01*
X134679816Y-86447738D01*
X134552262Y-86320184D01*
X134488017Y-86279816D01*
X134399523Y-86224211D01*
X134229254Y-86164631D01*
X134229249Y-86164630D01*
X134050004Y-86144435D01*
X134049996Y-86144435D01*
X133870750Y-86164630D01*
X133870745Y-86164631D01*
X133700476Y-86224211D01*
X133547737Y-86320184D01*
X133420184Y-86447737D01*
X133324211Y-86600476D01*
X133264631Y-86770745D01*
X133264630Y-86770750D01*
X133244435Y-86949996D01*
X133244435Y-86950003D01*
X131662979Y-86950003D01*
X131662979Y-85650003D01*
X143119435Y-85650003D01*
X143139630Y-85829249D01*
X143139631Y-85829254D01*
X143199211Y-85999523D01*
X143290266Y-86144435D01*
X143295184Y-86152262D01*
X143422738Y-86279816D01*
X143439280Y-86290210D01*
X143565096Y-86369266D01*
X143575478Y-86375789D01*
X143714686Y-86424500D01*
X143745745Y-86435368D01*
X143745750Y-86435369D01*
X143924996Y-86455565D01*
X143925000Y-86455565D01*
X143925004Y-86455565D01*
X144104249Y-86435369D01*
X144104252Y-86435368D01*
X144104255Y-86435368D01*
X144274522Y-86375789D01*
X144427262Y-86279816D01*
X144462319Y-86244759D01*
X144523642Y-86211274D01*
X144593334Y-86216258D01*
X144637681Y-86244759D01*
X144672738Y-86279816D01*
X144689280Y-86290210D01*
X144815096Y-86369266D01*
X144825478Y-86375789D01*
X144964686Y-86424500D01*
X144995745Y-86435368D01*
X144995750Y-86435369D01*
X145174996Y-86455565D01*
X145175000Y-86455565D01*
X145175004Y-86455565D01*
X145354249Y-86435369D01*
X145354252Y-86435368D01*
X145354255Y-86435368D01*
X145524522Y-86375789D01*
X145677262Y-86279816D01*
X145804816Y-86152262D01*
X145900789Y-85999522D01*
X145960368Y-85829255D01*
X145980565Y-85650000D01*
X145960368Y-85470745D01*
X145900789Y-85300478D01*
X145804816Y-85147738D01*
X145677262Y-85020184D01*
X145524523Y-84924211D01*
X145354254Y-84864631D01*
X145354249Y-84864630D01*
X145175004Y-84844435D01*
X145174996Y-84844435D01*
X144995750Y-84864630D01*
X144995745Y-84864631D01*
X144825476Y-84924211D01*
X144672737Y-85020184D01*
X144637681Y-85055241D01*
X144576358Y-85088726D01*
X144506666Y-85083742D01*
X144462319Y-85055241D01*
X144427262Y-85020184D01*
X144274523Y-84924211D01*
X144104254Y-84864631D01*
X144104249Y-84864630D01*
X143925004Y-84844435D01*
X143924996Y-84844435D01*
X143745750Y-84864630D01*
X143745745Y-84864631D01*
X143575476Y-84924211D01*
X143422737Y-85020184D01*
X143295184Y-85147737D01*
X143199211Y-85300476D01*
X143139631Y-85470745D01*
X143139630Y-85470750D01*
X143119435Y-85649996D01*
X143119435Y-85650003D01*
X131662979Y-85650003D01*
X131662979Y-84000003D01*
X135294435Y-84000003D01*
X135314630Y-84179249D01*
X135314631Y-84179254D01*
X135374211Y-84349523D01*
X135453054Y-84475000D01*
X135470184Y-84502262D01*
X135597738Y-84629816D01*
X135750478Y-84725789D01*
X135920745Y-84785368D01*
X135920750Y-84785369D01*
X136099996Y-84805565D01*
X136100000Y-84805565D01*
X136100004Y-84805565D01*
X136279249Y-84785369D01*
X136279252Y-84785368D01*
X136279255Y-84785368D01*
X136449522Y-84725789D01*
X136602262Y-84629816D01*
X136729816Y-84502262D01*
X136825789Y-84349522D01*
X136853553Y-84270174D01*
X136894274Y-84213398D01*
X136956711Y-84187907D01*
X136979255Y-84185368D01*
X137149522Y-84125789D01*
X137302262Y-84029816D01*
X137429816Y-83902262D01*
X137525789Y-83749522D01*
X137585368Y-83579255D01*
X137605565Y-83400000D01*
X137600622Y-83356130D01*
X137585369Y-83220750D01*
X137585368Y-83220745D01*
X137582340Y-83212091D01*
X137525789Y-83050478D01*
X137429816Y-82897738D01*
X137302262Y-82770184D01*
X137149523Y-82674211D01*
X136979254Y-82614631D01*
X136979249Y-82614630D01*
X136800004Y-82594435D01*
X136799996Y-82594435D01*
X136620750Y-82614630D01*
X136620745Y-82614631D01*
X136450476Y-82674211D01*
X136297737Y-82770184D01*
X136170184Y-82897737D01*
X136074212Y-83050475D01*
X136074211Y-83050476D01*
X136046445Y-83129827D01*
X136005723Y-83186602D01*
X135943289Y-83212091D01*
X135920750Y-83214630D01*
X135750478Y-83274210D01*
X135597737Y-83370184D01*
X135470184Y-83497737D01*
X135374211Y-83650476D01*
X135314631Y-83820745D01*
X135314630Y-83820750D01*
X135294435Y-83999996D01*
X135294435Y-84000003D01*
X131662979Y-84000003D01*
X131662979Y-81300003D01*
X139594435Y-81300003D01*
X139614630Y-81479249D01*
X139614631Y-81479254D01*
X139674211Y-81649523D01*
X139709777Y-81706125D01*
X139770184Y-81802262D01*
X139897738Y-81929816D01*
X140050478Y-82025789D01*
X140174720Y-82069263D01*
X140220745Y-82085368D01*
X140220750Y-82085369D01*
X140399996Y-82105565D01*
X140400000Y-82105565D01*
X140400004Y-82105565D01*
X140579249Y-82085369D01*
X140579252Y-82085368D01*
X140579255Y-82085368D01*
X140749522Y-82025789D01*
X140902262Y-81929816D01*
X140957078Y-81875000D01*
X148369355Y-81875000D01*
X148389859Y-82043869D01*
X148389860Y-82043874D01*
X148450182Y-82202931D01*
X148512475Y-82293177D01*
X148546817Y-82342929D01*
X148652505Y-82436560D01*
X148674150Y-82455736D01*
X148824773Y-82534789D01*
X148824775Y-82534790D01*
X148989944Y-82575500D01*
X149160056Y-82575500D01*
X149325225Y-82534790D01*
X149404692Y-82493081D01*
X149475849Y-82455736D01*
X149475850Y-82455734D01*
X149475852Y-82455734D01*
X149603183Y-82342929D01*
X149699818Y-82202930D01*
X149760140Y-82043872D01*
X149765467Y-82000000D01*
X164419355Y-82000000D01*
X164439859Y-82168869D01*
X164439860Y-82168874D01*
X164500182Y-82327931D01*
X164510535Y-82342929D01*
X164596817Y-82467929D01*
X164724148Y-82580734D01*
X164724150Y-82580735D01*
X164874775Y-82659790D01*
X164874774Y-82659790D01*
X164941935Y-82676343D01*
X165002316Y-82711499D01*
X165034105Y-82773718D01*
X165035357Y-82781792D01*
X165039859Y-82818870D01*
X165039860Y-82818875D01*
X165100182Y-82977930D01*
X165100183Y-82977931D01*
X165197524Y-83118954D01*
X165219407Y-83185308D01*
X165211417Y-83233364D01*
X165164859Y-83356129D01*
X165164859Y-83356130D01*
X165144355Y-83525000D01*
X165164859Y-83693869D01*
X165164860Y-83693874D01*
X165225182Y-83852931D01*
X165326078Y-83999102D01*
X165324084Y-84000478D01*
X165348810Y-84053078D01*
X165339629Y-84122342D01*
X165328327Y-84142513D01*
X165325183Y-84147067D01*
X165325182Y-84147068D01*
X165264860Y-84306125D01*
X165264859Y-84306130D01*
X165244355Y-84475000D01*
X165264859Y-84643869D01*
X165264860Y-84643874D01*
X165325182Y-84802931D01*
X165353831Y-84844435D01*
X165421817Y-84942929D01*
X165509020Y-85020184D01*
X165549150Y-85055736D01*
X165699773Y-85134789D01*
X165699775Y-85134790D01*
X165864944Y-85175500D01*
X166035056Y-85175500D01*
X166200225Y-85134790D01*
X166297488Y-85083742D01*
X166350849Y-85055736D01*
X166350850Y-85055734D01*
X166350852Y-85055734D01*
X166478183Y-84942929D01*
X166574818Y-84802930D01*
X166635140Y-84643872D01*
X166655645Y-84475000D01*
X166635140Y-84306128D01*
X166574818Y-84147070D01*
X166557749Y-84122342D01*
X166473922Y-84000898D01*
X166475916Y-83999521D01*
X166451190Y-83946924D01*
X166460368Y-83877660D01*
X166471672Y-83857487D01*
X166474818Y-83852930D01*
X166535140Y-83693872D01*
X166555645Y-83525000D01*
X166535140Y-83356128D01*
X166474818Y-83197070D01*
X166474817Y-83197068D01*
X166474816Y-83197066D01*
X166377475Y-83056046D01*
X166355591Y-82989691D01*
X166363581Y-82941639D01*
X166410140Y-82818872D01*
X166430645Y-82650000D01*
X166410140Y-82481128D01*
X166400509Y-82455734D01*
X166388231Y-82423358D01*
X166349818Y-82322070D01*
X166253183Y-82182071D01*
X166144029Y-82085369D01*
X166125849Y-82069263D01*
X165975226Y-81990210D01*
X165908063Y-81973656D01*
X165847682Y-81938500D01*
X165815894Y-81876280D01*
X165814642Y-81868205D01*
X165810140Y-81831131D01*
X165810139Y-81831125D01*
X165749817Y-81672068D01*
X165663536Y-81547070D01*
X165653183Y-81532071D01*
X165525852Y-81419266D01*
X165525849Y-81419263D01*
X165375226Y-81340210D01*
X165210056Y-81299500D01*
X165039944Y-81299500D01*
X164874773Y-81340210D01*
X164724150Y-81419263D01*
X164596816Y-81532072D01*
X164500182Y-81672068D01*
X164439860Y-81831125D01*
X164439859Y-81831130D01*
X164419355Y-82000000D01*
X149765467Y-82000000D01*
X149780645Y-81875000D01*
X149760140Y-81706128D01*
X149699818Y-81547070D01*
X149603183Y-81407071D01*
X149482328Y-81300003D01*
X149475849Y-81294263D01*
X149325226Y-81215210D01*
X149160056Y-81174500D01*
X148989944Y-81174500D01*
X148824773Y-81215210D01*
X148674150Y-81294263D01*
X148546816Y-81407072D01*
X148450182Y-81547068D01*
X148389860Y-81706125D01*
X148389859Y-81706130D01*
X148369355Y-81875000D01*
X140957078Y-81875000D01*
X141029816Y-81802262D01*
X141125789Y-81649522D01*
X141185368Y-81479255D01*
X141192127Y-81419266D01*
X141205565Y-81300003D01*
X141205565Y-81299996D01*
X141185369Y-81120750D01*
X141185368Y-81120745D01*
X141125788Y-80950476D01*
X141032660Y-80802264D01*
X141029816Y-80797738D01*
X140902262Y-80670184D01*
X140831608Y-80625789D01*
X140749523Y-80574211D01*
X140579254Y-80514631D01*
X140579249Y-80514630D01*
X140400004Y-80494435D01*
X140399996Y-80494435D01*
X140220750Y-80514630D01*
X140220745Y-80514631D01*
X140050476Y-80574211D01*
X139897737Y-80670184D01*
X139770184Y-80797737D01*
X139674211Y-80950476D01*
X139614631Y-81120745D01*
X139614630Y-81120750D01*
X139594435Y-81299996D01*
X139594435Y-81300003D01*
X131662979Y-81300003D01*
X131662979Y-79900003D01*
X131994435Y-79900003D01*
X132014630Y-80079249D01*
X132014631Y-80079254D01*
X132074211Y-80249523D01*
X132170184Y-80402262D01*
X132297738Y-80529816D01*
X132450478Y-80625789D01*
X132518306Y-80649523D01*
X132620745Y-80685368D01*
X132620750Y-80685369D01*
X132799996Y-80705565D01*
X132800000Y-80705565D01*
X132800004Y-80705565D01*
X132979249Y-80685369D01*
X132979252Y-80685368D01*
X132979255Y-80685368D01*
X133149522Y-80625789D01*
X133302262Y-80529816D01*
X133429816Y-80402262D01*
X133525709Y-80249648D01*
X133578043Y-80203359D01*
X133616814Y-80192402D01*
X133679255Y-80185368D01*
X133849522Y-80125789D01*
X134002262Y-80029816D01*
X134129816Y-79902262D01*
X134225789Y-79749522D01*
X134285368Y-79579255D01*
X134287913Y-79556666D01*
X134305565Y-79400003D01*
X134305565Y-79399996D01*
X134285369Y-79220750D01*
X134285368Y-79220745D01*
X134278110Y-79200003D01*
X157294435Y-79200003D01*
X157314630Y-79379249D01*
X157314631Y-79379254D01*
X157374211Y-79549523D01*
X157451279Y-79672175D01*
X157470184Y-79702262D01*
X157597738Y-79829816D01*
X157750478Y-79925789D01*
X157903258Y-79979249D01*
X157920745Y-79985368D01*
X157920750Y-79985369D01*
X158099996Y-80005565D01*
X158100000Y-80005565D01*
X158100004Y-80005565D01*
X158279249Y-79985369D01*
X158279252Y-79985368D01*
X158279255Y-79985368D01*
X158449522Y-79925789D01*
X158602262Y-79829816D01*
X158632075Y-79800003D01*
X174194435Y-79800003D01*
X174214630Y-79979249D01*
X174214631Y-79979254D01*
X174274211Y-80149523D01*
X174368760Y-80299996D01*
X174370184Y-80302262D01*
X174497738Y-80429816D01*
X174576410Y-80479249D01*
X174635608Y-80516446D01*
X174650478Y-80525789D01*
X174748153Y-80559967D01*
X174820745Y-80585368D01*
X174820750Y-80585369D01*
X174999996Y-80605565D01*
X175000000Y-80605565D01*
X175000004Y-80605565D01*
X175179249Y-80585369D01*
X175179252Y-80585368D01*
X175179255Y-80585368D01*
X175349522Y-80525789D01*
X175366559Y-80515083D01*
X175433794Y-80496081D01*
X175500630Y-80516446D01*
X175545846Y-80569712D01*
X175549575Y-80579120D01*
X175574209Y-80649519D01*
X175596735Y-80685369D01*
X175670184Y-80802262D01*
X175797738Y-80929816D01*
X175950478Y-81025789D01*
X176120745Y-81085368D01*
X176120750Y-81085369D01*
X176299996Y-81105565D01*
X176300000Y-81105565D01*
X176300004Y-81105565D01*
X176479249Y-81085369D01*
X176479252Y-81085368D01*
X176479255Y-81085368D01*
X176649522Y-81025789D01*
X176802262Y-80929816D01*
X176929816Y-80802262D01*
X176945007Y-80778084D01*
X176997339Y-80731796D01*
X177066393Y-80721146D01*
X177130242Y-80749521D01*
X177154990Y-80778082D01*
X177170184Y-80802262D01*
X177297738Y-80929816D01*
X177450478Y-81025789D01*
X177620745Y-81085368D01*
X177620750Y-81085369D01*
X177799996Y-81105565D01*
X177800000Y-81105565D01*
X177800004Y-81105565D01*
X177979249Y-81085369D01*
X177979252Y-81085368D01*
X177979255Y-81085368D01*
X178149522Y-81025789D01*
X178302262Y-80929816D01*
X178429816Y-80802262D01*
X178525789Y-80649522D01*
X178532958Y-80629035D01*
X178573680Y-80572258D01*
X178638633Y-80546511D01*
X178707194Y-80559967D01*
X178757597Y-80608354D01*
X178767042Y-80629035D01*
X178774210Y-80649521D01*
X178854994Y-80778087D01*
X178870184Y-80802262D01*
X178997738Y-80929816D01*
X179150478Y-81025789D01*
X179320745Y-81085368D01*
X179320750Y-81085369D01*
X179499996Y-81105565D01*
X179500000Y-81105565D01*
X179500004Y-81105565D01*
X179679249Y-81085369D01*
X179679252Y-81085368D01*
X179679255Y-81085368D01*
X179849522Y-81025789D01*
X180002262Y-80929816D01*
X180129816Y-80802262D01*
X180225789Y-80649522D01*
X180285368Y-80479255D01*
X180285369Y-80479249D01*
X180305565Y-80300003D01*
X180305565Y-80299996D01*
X180285369Y-80120750D01*
X180285368Y-80120745D01*
X180257125Y-80040031D01*
X180225789Y-79950478D01*
X180129816Y-79797738D01*
X180019759Y-79687681D01*
X179986274Y-79626358D01*
X179991258Y-79556666D01*
X180019759Y-79512319D01*
X180033832Y-79498246D01*
X180129816Y-79402262D01*
X180225789Y-79249522D01*
X180285368Y-79079255D01*
X180285369Y-79079249D01*
X180305565Y-78900003D01*
X180305565Y-78899996D01*
X180285369Y-78720750D01*
X180285368Y-78720745D01*
X180225789Y-78550478D01*
X180129816Y-78397738D01*
X180069759Y-78337681D01*
X180036274Y-78276358D01*
X180041258Y-78206666D01*
X180069759Y-78162319D01*
X180084805Y-78147273D01*
X180129816Y-78102262D01*
X180225789Y-77949522D01*
X180285368Y-77779255D01*
X180285369Y-77779249D01*
X180305565Y-77600003D01*
X180305565Y-77599996D01*
X180285369Y-77420750D01*
X180285368Y-77420745D01*
X180267676Y-77370184D01*
X180225789Y-77250478D01*
X180203265Y-77214632D01*
X180131237Y-77100000D01*
X180129816Y-77097738D01*
X180062897Y-77030819D01*
X180029412Y-76969496D01*
X180034396Y-76899804D01*
X180045583Y-76877168D01*
X180105844Y-76781265D01*
X180125788Y-76749524D01*
X180169085Y-76625788D01*
X180185368Y-76579255D01*
X180188718Y-76549522D01*
X180205565Y-76400003D01*
X180205565Y-76399996D01*
X180185369Y-76220750D01*
X180185368Y-76220745D01*
X180139937Y-76090911D01*
X180125789Y-76050478D01*
X180107106Y-76020745D01*
X180081033Y-75979249D01*
X180029816Y-75897738D01*
X179902262Y-75770184D01*
X179874989Y-75753047D01*
X179749523Y-75674211D01*
X179579254Y-75614631D01*
X179579249Y-75614630D01*
X179400004Y-75594435D01*
X179399996Y-75594435D01*
X179220750Y-75614630D01*
X179220745Y-75614631D01*
X179050476Y-75674211D01*
X178922833Y-75754415D01*
X178855596Y-75773415D01*
X178788761Y-75753047D01*
X178769180Y-75737102D01*
X178702262Y-75670184D01*
X178549523Y-75574211D01*
X178379254Y-75514631D01*
X178379249Y-75514630D01*
X178200004Y-75494435D01*
X178199996Y-75494435D01*
X178020750Y-75514630D01*
X178020745Y-75514631D01*
X177850476Y-75574211D01*
X177697737Y-75670184D01*
X177637681Y-75730241D01*
X177576358Y-75763726D01*
X177506666Y-75758742D01*
X177462319Y-75730241D01*
X177402262Y-75670184D01*
X177249523Y-75574211D01*
X177079254Y-75514631D01*
X177079249Y-75514630D01*
X176900004Y-75494435D01*
X176899996Y-75494435D01*
X176720750Y-75514630D01*
X176720745Y-75514631D01*
X176550476Y-75574211D01*
X176397734Y-75670186D01*
X176397732Y-75670187D01*
X176387677Y-75680243D01*
X176326353Y-75713726D01*
X176256662Y-75708739D01*
X176212318Y-75680240D01*
X176102262Y-75570184D01*
X175949523Y-75474211D01*
X175779254Y-75414631D01*
X175779249Y-75414630D01*
X175600004Y-75394435D01*
X175599996Y-75394435D01*
X175420750Y-75414630D01*
X175420745Y-75414631D01*
X175250476Y-75474211D01*
X175097737Y-75570184D01*
X174970184Y-75697737D01*
X174874211Y-75850476D01*
X174814631Y-76020745D01*
X174814630Y-76020750D01*
X174794435Y-76199996D01*
X174794435Y-76200003D01*
X174814630Y-76379249D01*
X174814631Y-76379254D01*
X174874211Y-76549523D01*
X174970184Y-76702262D01*
X175059926Y-76792004D01*
X175093411Y-76853327D01*
X175088427Y-76923019D01*
X175077246Y-76945646D01*
X175074210Y-76950478D01*
X175014633Y-77120737D01*
X175014630Y-77120750D01*
X174994435Y-77299996D01*
X174994435Y-77300003D01*
X175014630Y-77479249D01*
X175014631Y-77479254D01*
X175074211Y-77649523D01*
X175124662Y-77729815D01*
X175170184Y-77802262D01*
X175297738Y-77929816D01*
X175376420Y-77979255D01*
X175450629Y-78025884D01*
X175496920Y-78078219D01*
X175507568Y-78147273D01*
X175479193Y-78211121D01*
X175425612Y-78247919D01*
X175350480Y-78274209D01*
X175197737Y-78370184D01*
X175070184Y-78497737D01*
X174974211Y-78650476D01*
X174914631Y-78820745D01*
X174914630Y-78820749D01*
X174904466Y-78910965D01*
X174877399Y-78975379D01*
X174822200Y-79014123D01*
X174650478Y-79074210D01*
X174497737Y-79170184D01*
X174370184Y-79297737D01*
X174274211Y-79450476D01*
X174214631Y-79620745D01*
X174214630Y-79620750D01*
X174194435Y-79799996D01*
X174194435Y-79800003D01*
X158632075Y-79800003D01*
X158729816Y-79702262D01*
X158825789Y-79549522D01*
X158885368Y-79379255D01*
X158894553Y-79297737D01*
X158905565Y-79200003D01*
X158905565Y-79199996D01*
X158885369Y-79020750D01*
X158885368Y-79020745D01*
X158846954Y-78910965D01*
X158825789Y-78850478D01*
X158807106Y-78820745D01*
X158729815Y-78697737D01*
X158602262Y-78570184D01*
X158449523Y-78474211D01*
X158279254Y-78414631D01*
X158279249Y-78414630D01*
X158100004Y-78394435D01*
X158099996Y-78394435D01*
X157920750Y-78414630D01*
X157920745Y-78414631D01*
X157750476Y-78474211D01*
X157597737Y-78570184D01*
X157470184Y-78697737D01*
X157374211Y-78850476D01*
X157314631Y-79020745D01*
X157314630Y-79020750D01*
X157294435Y-79199996D01*
X157294435Y-79200003D01*
X134278110Y-79200003D01*
X134241941Y-79096639D01*
X134225789Y-79050478D01*
X134225707Y-79050348D01*
X134131237Y-78900000D01*
X134129816Y-78897738D01*
X134002262Y-78770184D01*
X133849523Y-78674211D01*
X133679254Y-78614631D01*
X133679249Y-78614630D01*
X133500004Y-78594435D01*
X133499996Y-78594435D01*
X133320750Y-78614630D01*
X133320745Y-78614631D01*
X133150476Y-78674211D01*
X132997737Y-78770184D01*
X132870184Y-78897737D01*
X132774293Y-79050348D01*
X132721958Y-79096639D01*
X132683183Y-79107596D01*
X132620750Y-79114630D01*
X132450478Y-79174210D01*
X132297737Y-79270184D01*
X132170184Y-79397737D01*
X132074211Y-79550476D01*
X132014631Y-79720745D01*
X132014630Y-79720750D01*
X131994435Y-79899996D01*
X131994435Y-79900003D01*
X131662979Y-79900003D01*
X131662979Y-77100003D01*
X133594435Y-77100003D01*
X133614630Y-77279249D01*
X133614631Y-77279254D01*
X133674211Y-77449523D01*
X133768760Y-77599996D01*
X133770184Y-77602262D01*
X133897738Y-77729816D01*
X133976410Y-77779249D01*
X134050478Y-77825789D01*
X134199726Y-77878013D01*
X134256502Y-77918735D01*
X134270161Y-77943750D01*
X134271193Y-77943254D01*
X134274212Y-77949524D01*
X134322133Y-78025789D01*
X134370184Y-78102262D01*
X134497738Y-78229816D01*
X134650478Y-78325789D01*
X134770887Y-78367922D01*
X134820745Y-78385368D01*
X134820750Y-78385369D01*
X134999996Y-78405565D01*
X135000000Y-78405565D01*
X135000004Y-78405565D01*
X135179249Y-78385369D01*
X135179252Y-78385368D01*
X135179255Y-78385368D01*
X135349522Y-78325789D01*
X135502262Y-78229816D01*
X135629816Y-78102262D01*
X135725789Y-77949522D01*
X135785368Y-77779255D01*
X135785369Y-77779249D01*
X135805565Y-77600003D01*
X135805565Y-77599996D01*
X135785369Y-77420750D01*
X135785368Y-77420745D01*
X135767676Y-77370184D01*
X135725789Y-77250478D01*
X135703265Y-77214632D01*
X135631237Y-77100000D01*
X135629816Y-77097738D01*
X135502262Y-76970184D01*
X135438017Y-76929816D01*
X135349521Y-76874210D01*
X135200274Y-76821987D01*
X135143498Y-76781265D01*
X135129845Y-76756252D01*
X135128810Y-76756751D01*
X135125789Y-76750477D01*
X135053461Y-76635369D01*
X135029816Y-76597738D01*
X134902262Y-76470184D01*
X134878996Y-76455565D01*
X134749523Y-76374211D01*
X134579254Y-76314631D01*
X134579249Y-76314630D01*
X134400004Y-76294435D01*
X134399996Y-76294435D01*
X134220750Y-76314630D01*
X134220745Y-76314631D01*
X134050476Y-76374211D01*
X133897737Y-76470184D01*
X133770184Y-76597737D01*
X133674211Y-76750476D01*
X133614631Y-76920745D01*
X133614630Y-76920750D01*
X133594435Y-77099996D01*
X133594435Y-77100003D01*
X131662979Y-77100003D01*
X131662979Y-75650003D01*
X140294435Y-75650003D01*
X140314630Y-75829249D01*
X140314631Y-75829254D01*
X140374211Y-75999523D01*
X140449585Y-76119479D01*
X140470184Y-76152262D01*
X140597738Y-76279816D01*
X140688080Y-76336582D01*
X140748461Y-76374522D01*
X140750478Y-76375789D01*
X140904878Y-76429816D01*
X140920745Y-76435368D01*
X140920750Y-76435369D01*
X141099996Y-76455565D01*
X141100000Y-76455565D01*
X141100004Y-76455565D01*
X141279249Y-76435369D01*
X141279252Y-76435368D01*
X141279255Y-76435368D01*
X141449522Y-76375789D01*
X141602262Y-76279816D01*
X141729816Y-76152262D01*
X141750416Y-76119477D01*
X141802748Y-76073187D01*
X141871801Y-76062537D01*
X141935650Y-76090911D01*
X141972449Y-76144489D01*
X141974209Y-76149520D01*
X142056080Y-76279816D01*
X142070184Y-76302262D01*
X142197738Y-76429816D01*
X142350478Y-76525789D01*
X142418306Y-76549523D01*
X142520745Y-76585368D01*
X142520750Y-76585369D01*
X142699996Y-76605565D01*
X142700000Y-76605565D01*
X142700004Y-76605565D01*
X142879249Y-76585369D01*
X142879252Y-76585368D01*
X142879255Y-76585368D01*
X143049522Y-76525789D01*
X143202262Y-76429816D01*
X143329816Y-76302262D01*
X143425789Y-76149522D01*
X143485368Y-75979255D01*
X143491392Y-75925789D01*
X143499931Y-75850003D01*
X144294435Y-75850003D01*
X144314630Y-76029249D01*
X144314631Y-76029254D01*
X144374211Y-76199523D01*
X144424662Y-76279815D01*
X144470184Y-76352262D01*
X144597738Y-76479816D01*
X144750478Y-76575789D01*
X144813202Y-76597737D01*
X144920745Y-76635368D01*
X144920750Y-76635369D01*
X145099996Y-76655565D01*
X145100000Y-76655565D01*
X145100004Y-76655565D01*
X145279249Y-76635369D01*
X145279252Y-76635368D01*
X145279255Y-76635368D01*
X145449522Y-76575789D01*
X145602262Y-76479816D01*
X145729816Y-76352262D01*
X145825789Y-76199522D01*
X145885368Y-76029255D01*
X145885847Y-76025003D01*
X145899931Y-75900003D01*
X146794435Y-75900003D01*
X146814630Y-76079249D01*
X146814631Y-76079254D01*
X146874211Y-76249523D01*
X146915122Y-76314632D01*
X146970184Y-76402262D01*
X147097738Y-76529816D01*
X147170902Y-76575788D01*
X147205833Y-76597737D01*
X147250478Y-76625789D01*
X147335573Y-76655565D01*
X147420745Y-76685368D01*
X147420750Y-76685369D01*
X147599996Y-76705565D01*
X147600000Y-76705565D01*
X147600004Y-76705565D01*
X147779249Y-76685369D01*
X147779252Y-76685368D01*
X147779255Y-76685368D01*
X147949522Y-76625789D01*
X148102262Y-76529816D01*
X148229816Y-76402262D01*
X148325789Y-76249522D01*
X148385368Y-76079255D01*
X148386052Y-76073187D01*
X148405565Y-75900003D01*
X148405565Y-75899996D01*
X148385369Y-75720750D01*
X148385368Y-75720745D01*
X148381167Y-75708739D01*
X148325789Y-75550478D01*
X148325188Y-75549522D01*
X148277867Y-75474211D01*
X148229816Y-75397738D01*
X148102262Y-75270184D01*
X148053639Y-75239632D01*
X147990570Y-75200003D01*
X151694435Y-75200003D01*
X151714630Y-75379249D01*
X151714631Y-75379254D01*
X151774211Y-75549523D01*
X151867341Y-75697737D01*
X151870184Y-75702262D01*
X151997738Y-75829816D01*
X152088080Y-75886582D01*
X152105833Y-75897737D01*
X152150478Y-75925789D01*
X152320745Y-75985368D01*
X152343286Y-75987907D01*
X152407699Y-76014973D01*
X152446444Y-76070173D01*
X152474209Y-76149519D01*
X152474210Y-76149520D01*
X152474211Y-76149522D01*
X152570184Y-76302262D01*
X152697738Y-76429816D01*
X152850478Y-76525789D01*
X152918306Y-76549523D01*
X153020745Y-76585368D01*
X153020750Y-76585369D01*
X153199996Y-76605565D01*
X153200000Y-76605565D01*
X153200004Y-76605565D01*
X153379249Y-76585369D01*
X153379252Y-76585368D01*
X153379255Y-76585368D01*
X153549522Y-76525789D01*
X153702262Y-76429816D01*
X153829816Y-76302262D01*
X153925789Y-76149522D01*
X153969360Y-76025003D01*
X156219435Y-76025003D01*
X156239630Y-76204249D01*
X156239631Y-76204254D01*
X156299211Y-76374523D01*
X156394258Y-76525788D01*
X156395184Y-76527262D01*
X156522738Y-76654816D01*
X156613080Y-76711582D01*
X156674979Y-76750476D01*
X156675478Y-76750789D01*
X156793264Y-76792004D01*
X156845745Y-76810368D01*
X156845750Y-76810369D01*
X157024996Y-76830565D01*
X157025000Y-76830565D01*
X157025004Y-76830565D01*
X157204249Y-76810369D01*
X157204252Y-76810368D01*
X157204255Y-76810368D01*
X157374522Y-76750789D01*
X157527262Y-76654816D01*
X157654816Y-76527262D01*
X157750789Y-76374522D01*
X157810368Y-76204255D01*
X157810847Y-76200003D01*
X157830565Y-76025003D01*
X157830565Y-76024996D01*
X157810369Y-75845750D01*
X157810368Y-75845745D01*
X157778410Y-75754415D01*
X157750789Y-75675478D01*
X157747464Y-75670187D01*
X157678461Y-75560369D01*
X157654816Y-75522738D01*
X157527262Y-75395184D01*
X157501902Y-75379249D01*
X157374523Y-75299211D01*
X157204254Y-75239631D01*
X157204249Y-75239630D01*
X157025004Y-75219435D01*
X157024996Y-75219435D01*
X156845750Y-75239630D01*
X156845745Y-75239631D01*
X156675476Y-75299211D01*
X156522737Y-75395184D01*
X156395184Y-75522737D01*
X156299211Y-75675476D01*
X156239631Y-75845745D01*
X156239630Y-75845750D01*
X156219435Y-76024996D01*
X156219435Y-76025003D01*
X153969360Y-76025003D01*
X153985368Y-75979255D01*
X153991392Y-75925789D01*
X154005565Y-75800003D01*
X154005565Y-75799996D01*
X153985369Y-75620750D01*
X153985368Y-75620745D01*
X153967676Y-75570184D01*
X153925789Y-75450478D01*
X153864877Y-75353538D01*
X153845878Y-75286303D01*
X153866246Y-75219467D01*
X153882183Y-75199894D01*
X153904816Y-75177262D01*
X154000789Y-75024522D01*
X154060368Y-74854255D01*
X154060794Y-74850476D01*
X154069298Y-74775003D01*
X159794435Y-74775003D01*
X159814630Y-74954249D01*
X159814631Y-74954254D01*
X159874211Y-75124523D01*
X159921637Y-75200000D01*
X159970184Y-75277262D01*
X160097738Y-75404816D01*
X160170407Y-75450477D01*
X160249979Y-75500476D01*
X160250478Y-75500789D01*
X160313202Y-75522737D01*
X160420745Y-75560368D01*
X160420750Y-75560369D01*
X160599996Y-75580565D01*
X160600000Y-75580565D01*
X160600004Y-75580565D01*
X160779249Y-75560369D01*
X160779252Y-75560368D01*
X160779255Y-75560368D01*
X160949522Y-75500789D01*
X161102262Y-75404816D01*
X161229816Y-75277262D01*
X161325789Y-75124522D01*
X161385368Y-74954255D01*
X161395466Y-74864631D01*
X161405565Y-74775003D01*
X161405565Y-74774996D01*
X161385369Y-74595750D01*
X161385368Y-74595745D01*
X161325788Y-74425476D01*
X161262955Y-74325478D01*
X161229816Y-74272738D01*
X161102262Y-74145184D01*
X160949523Y-74049211D01*
X160779254Y-73989631D01*
X160779249Y-73989630D01*
X160600004Y-73969435D01*
X160599996Y-73969435D01*
X160420750Y-73989630D01*
X160420745Y-73989631D01*
X160250476Y-74049211D01*
X160097737Y-74145184D01*
X159970184Y-74272737D01*
X159874211Y-74425476D01*
X159814631Y-74595745D01*
X159814630Y-74595750D01*
X159794435Y-74774996D01*
X159794435Y-74775003D01*
X154069298Y-74775003D01*
X154080565Y-74675003D01*
X154080565Y-74674996D01*
X154060369Y-74495750D01*
X154060368Y-74495745D01*
X154052833Y-74474211D01*
X154000789Y-74325478D01*
X153904816Y-74172738D01*
X153777262Y-74045184D01*
X153688852Y-73989632D01*
X153624523Y-73949211D01*
X153454254Y-73889631D01*
X153454249Y-73889630D01*
X153275004Y-73869435D01*
X153274996Y-73869435D01*
X153095750Y-73889630D01*
X153095745Y-73889631D01*
X152925476Y-73949211D01*
X152772737Y-74045184D01*
X152645184Y-74172737D01*
X152549210Y-74325478D01*
X152546657Y-74330781D01*
X152499835Y-74382642D01*
X152448819Y-74400201D01*
X152320750Y-74414630D01*
X152320745Y-74414631D01*
X152150476Y-74474211D01*
X151997737Y-74570184D01*
X151870184Y-74697737D01*
X151774211Y-74850476D01*
X151714631Y-75020745D01*
X151714630Y-75020750D01*
X151694435Y-75199996D01*
X151694435Y-75200003D01*
X147990570Y-75200003D01*
X147949523Y-75174211D01*
X147779254Y-75114631D01*
X147779249Y-75114630D01*
X147600004Y-75094435D01*
X147599996Y-75094435D01*
X147420750Y-75114630D01*
X147420745Y-75114631D01*
X147250476Y-75174211D01*
X147097737Y-75270184D01*
X146970184Y-75397737D01*
X146874211Y-75550476D01*
X146814631Y-75720745D01*
X146814630Y-75720750D01*
X146794435Y-75899996D01*
X146794435Y-75900003D01*
X145899931Y-75900003D01*
X145905565Y-75850003D01*
X145905565Y-75849996D01*
X145885369Y-75670750D01*
X145885368Y-75670745D01*
X145865733Y-75614631D01*
X145825789Y-75500478D01*
X145807106Y-75470745D01*
X145771847Y-75414630D01*
X145729816Y-75347738D01*
X145602262Y-75220184D01*
X145570144Y-75200003D01*
X145449523Y-75124211D01*
X145279254Y-75064631D01*
X145279249Y-75064630D01*
X145100004Y-75044435D01*
X145099996Y-75044435D01*
X144920750Y-75064630D01*
X144920745Y-75064631D01*
X144750476Y-75124211D01*
X144597737Y-75220184D01*
X144470184Y-75347737D01*
X144374211Y-75500476D01*
X144314631Y-75670745D01*
X144314630Y-75670750D01*
X144294435Y-75849996D01*
X144294435Y-75850003D01*
X143499931Y-75850003D01*
X143505565Y-75800003D01*
X143505565Y-75799996D01*
X143485369Y-75620750D01*
X143485368Y-75620745D01*
X143467676Y-75570184D01*
X143425789Y-75450478D01*
X143403265Y-75414632D01*
X143350416Y-75330523D01*
X143329816Y-75297738D01*
X143202262Y-75170184D01*
X143049523Y-75074211D01*
X142879254Y-75014631D01*
X142879249Y-75014630D01*
X142700004Y-74994435D01*
X142699996Y-74994435D01*
X142520750Y-75014630D01*
X142520745Y-75014631D01*
X142350476Y-75074211D01*
X142197737Y-75170184D01*
X142070184Y-75297737D01*
X142070182Y-75297740D01*
X142049583Y-75330523D01*
X141997248Y-75376814D01*
X141928194Y-75387461D01*
X141864346Y-75359085D01*
X141827548Y-75305504D01*
X141825789Y-75300478D01*
X141787556Y-75239631D01*
X141729816Y-75147738D01*
X141602262Y-75020184D01*
X141593426Y-75014632D01*
X141449523Y-74924211D01*
X141279254Y-74864631D01*
X141279249Y-74864630D01*
X141100004Y-74844435D01*
X141099996Y-74844435D01*
X140920750Y-74864630D01*
X140920745Y-74864631D01*
X140750476Y-74924211D01*
X140597737Y-75020184D01*
X140470184Y-75147737D01*
X140374211Y-75300476D01*
X140314631Y-75470745D01*
X140314630Y-75470750D01*
X140294435Y-75649996D01*
X140294435Y-75650003D01*
X131662979Y-75650003D01*
X131662979Y-71650003D01*
X156944435Y-71650003D01*
X156964630Y-71829249D01*
X156964631Y-71829254D01*
X157024211Y-71999523D01*
X157058598Y-72054249D01*
X157120184Y-72152262D01*
X157247738Y-72279816D01*
X157334503Y-72334334D01*
X157396193Y-72373097D01*
X157400478Y-72375789D01*
X157404688Y-72377262D01*
X157570745Y-72435368D01*
X157570750Y-72435369D01*
X157749996Y-72455565D01*
X157750000Y-72455565D01*
X157750004Y-72455565D01*
X157929249Y-72435369D01*
X157929252Y-72435368D01*
X157929255Y-72435368D01*
X158099522Y-72375789D01*
X158135257Y-72353334D01*
X158202493Y-72334334D01*
X158269328Y-72354701D01*
X158289500Y-72373097D01*
X158290260Y-72372338D01*
X158295184Y-72377262D01*
X158422738Y-72504816D01*
X158575478Y-72600789D01*
X158745745Y-72660368D01*
X158745750Y-72660369D01*
X158924996Y-72680565D01*
X158925000Y-72680565D01*
X158925004Y-72680565D01*
X159104249Y-72660369D01*
X159104252Y-72660368D01*
X159104255Y-72660368D01*
X159274522Y-72600789D01*
X159427262Y-72504816D01*
X159554816Y-72377262D01*
X159650789Y-72224522D01*
X159710368Y-72054255D01*
X159730565Y-71875000D01*
X159725410Y-71829249D01*
X159710369Y-71695750D01*
X159710368Y-71695745D01*
X159650788Y-71525476D01*
X159554815Y-71372737D01*
X159427262Y-71245184D01*
X159274523Y-71149211D01*
X159104254Y-71089631D01*
X159104249Y-71089630D01*
X158925004Y-71069435D01*
X158924996Y-71069435D01*
X158745750Y-71089630D01*
X158745737Y-71089633D01*
X158575478Y-71149210D01*
X158575476Y-71149211D01*
X158539738Y-71171666D01*
X158472501Y-71190665D01*
X158405667Y-71170296D01*
X158385500Y-71151901D01*
X158384740Y-71152662D01*
X158252262Y-71020184D01*
X158099523Y-70924211D01*
X157929254Y-70864631D01*
X157929249Y-70864630D01*
X157750004Y-70844435D01*
X157749996Y-70844435D01*
X157570750Y-70864630D01*
X157570745Y-70864631D01*
X157400476Y-70924211D01*
X157247737Y-71020184D01*
X157120184Y-71147737D01*
X157024211Y-71300476D01*
X156964631Y-71470745D01*
X156964630Y-71470750D01*
X156944435Y-71649996D01*
X156944435Y-71650003D01*
X131662979Y-71650003D01*
X131662979Y-68777351D01*
X135186979Y-68777351D01*
X135219001Y-68979534D01*
X135282260Y-69174223D01*
X135375194Y-69356613D01*
X135495507Y-69522213D01*
X135640265Y-69666971D01*
X135795228Y-69779556D01*
X135805869Y-69787287D01*
X135922086Y-69846503D01*
X135988255Y-69880218D01*
X135988257Y-69880218D01*
X135988260Y-69880220D01*
X136092616Y-69914127D01*
X136182944Y-69943477D01*
X136284036Y-69959488D01*
X136385127Y-69975500D01*
X136385128Y-69975500D01*
X136589830Y-69975500D01*
X136589831Y-69975500D01*
X136792013Y-69943477D01*
X136986698Y-69880220D01*
X137169089Y-69787287D01*
X137262069Y-69719732D01*
X137334692Y-69666971D01*
X137334694Y-69666968D01*
X137334698Y-69666966D01*
X137479445Y-69522219D01*
X137479447Y-69522215D01*
X137479450Y-69522213D01*
X137532211Y-69449590D01*
X137599766Y-69356610D01*
X137692699Y-69174219D01*
X137755956Y-68979534D01*
X137787979Y-68777352D01*
X137787979Y-68777351D01*
X175186979Y-68777351D01*
X175219001Y-68979534D01*
X175282260Y-69174223D01*
X175375194Y-69356613D01*
X175495507Y-69522213D01*
X175640265Y-69666971D01*
X175795228Y-69779556D01*
X175805869Y-69787287D01*
X175922086Y-69846503D01*
X175988255Y-69880218D01*
X175988257Y-69880218D01*
X175988260Y-69880220D01*
X176092616Y-69914127D01*
X176182944Y-69943477D01*
X176284036Y-69959488D01*
X176385127Y-69975500D01*
X176385128Y-69975500D01*
X176589830Y-69975500D01*
X176589831Y-69975500D01*
X176792013Y-69943477D01*
X176986698Y-69880220D01*
X177169089Y-69787287D01*
X177262069Y-69719732D01*
X177334692Y-69666971D01*
X177334694Y-69666968D01*
X177334698Y-69666966D01*
X177479445Y-69522219D01*
X177479447Y-69522215D01*
X177479450Y-69522213D01*
X177532211Y-69449590D01*
X177599766Y-69356610D01*
X177692699Y-69174219D01*
X177755956Y-68979534D01*
X177787979Y-68777352D01*
X177787979Y-68572648D01*
X177755956Y-68370466D01*
X177742991Y-68330565D01*
X177726606Y-68280137D01*
X177692699Y-68175781D01*
X177692697Y-68175778D01*
X177692697Y-68175776D01*
X177658982Y-68109607D01*
X177599766Y-67993390D01*
X177547861Y-67921948D01*
X177479450Y-67827786D01*
X177334692Y-67683028D01*
X177169092Y-67562715D01*
X177169091Y-67562714D01*
X177169089Y-67562713D01*
X177095073Y-67525000D01*
X176986702Y-67469781D01*
X176792013Y-67406522D01*
X176617474Y-67378878D01*
X176589831Y-67374500D01*
X176385127Y-67374500D01*
X176360808Y-67378351D01*
X176182944Y-67406522D01*
X175988255Y-67469781D01*
X175805865Y-67562715D01*
X175640265Y-67683028D01*
X175495507Y-67827786D01*
X175375194Y-67993386D01*
X175282260Y-68175776D01*
X175219001Y-68370465D01*
X175186979Y-68572648D01*
X175186979Y-68777351D01*
X137787979Y-68777351D01*
X137787979Y-68572648D01*
X137755956Y-68370466D01*
X137742991Y-68330565D01*
X137726606Y-68280137D01*
X137692699Y-68175781D01*
X137692697Y-68175778D01*
X137692697Y-68175776D01*
X137658982Y-68109607D01*
X137599766Y-67993390D01*
X137547861Y-67921948D01*
X137479450Y-67827786D01*
X137334692Y-67683028D01*
X137169092Y-67562715D01*
X137169091Y-67562714D01*
X137169089Y-67562713D01*
X137095079Y-67525003D01*
X154644435Y-67525003D01*
X154664630Y-67704249D01*
X154664631Y-67704254D01*
X154724211Y-67874523D01*
X154798898Y-67993386D01*
X154820184Y-68027262D01*
X154947738Y-68154816D01*
X155100478Y-68250789D01*
X155199299Y-68285368D01*
X155270745Y-68310368D01*
X155270750Y-68310369D01*
X155449996Y-68330565D01*
X155450000Y-68330565D01*
X155450004Y-68330565D01*
X155629249Y-68310369D01*
X155629252Y-68310368D01*
X155629255Y-68310368D01*
X155799522Y-68250789D01*
X155952262Y-68154816D01*
X155953822Y-68153255D01*
X155955078Y-68152569D01*
X155957705Y-68150475D01*
X155958071Y-68150934D01*
X156015141Y-68119767D01*
X156084833Y-68124746D01*
X156107477Y-68135935D01*
X156250478Y-68225789D01*
X156420745Y-68285368D01*
X156420750Y-68285369D01*
X156599996Y-68305565D01*
X156600000Y-68305565D01*
X156600004Y-68305565D01*
X156779249Y-68285369D01*
X156779252Y-68285368D01*
X156779255Y-68285368D01*
X156949522Y-68225789D01*
X157102262Y-68129816D01*
X157112319Y-68119759D01*
X157173642Y-68086274D01*
X157243334Y-68091258D01*
X157287681Y-68119759D01*
X157322738Y-68154816D01*
X157475478Y-68250789D01*
X157574299Y-68285368D01*
X157645745Y-68310368D01*
X157645750Y-68310369D01*
X157824996Y-68330565D01*
X157825000Y-68330565D01*
X157825004Y-68330565D01*
X158004249Y-68310369D01*
X158004252Y-68310368D01*
X158004255Y-68310368D01*
X158174522Y-68250789D01*
X158327262Y-68154816D01*
X158387319Y-68094759D01*
X158448642Y-68061274D01*
X158518334Y-68066258D01*
X158562681Y-68094759D01*
X158597738Y-68129816D01*
X158750478Y-68225789D01*
X158821924Y-68250789D01*
X158920745Y-68285368D01*
X158920750Y-68285369D01*
X159099996Y-68305565D01*
X159100000Y-68305565D01*
X159100004Y-68305565D01*
X159279249Y-68285369D01*
X159279252Y-68285368D01*
X159279255Y-68285368D01*
X159449522Y-68225789D01*
X159602262Y-68129816D01*
X159729816Y-68002262D01*
X159820754Y-67857535D01*
X159873088Y-67811245D01*
X159942141Y-67800597D01*
X159966702Y-67806466D01*
X160120745Y-67860368D01*
X160120750Y-67860369D01*
X160299996Y-67880565D01*
X160300000Y-67880565D01*
X160300004Y-67880565D01*
X160479249Y-67860369D01*
X160479252Y-67860368D01*
X160479255Y-67860368D01*
X160649522Y-67800789D01*
X160802262Y-67704816D01*
X160929816Y-67577262D01*
X161025789Y-67424522D01*
X161085368Y-67254255D01*
X161094244Y-67175478D01*
X161105565Y-67075003D01*
X161105565Y-67074996D01*
X161085369Y-66895750D01*
X161085368Y-66895745D01*
X161051589Y-66799211D01*
X161025789Y-66725478D01*
X161023377Y-66721640D01*
X160929815Y-66572737D01*
X160802262Y-66445184D01*
X160649523Y-66349211D01*
X160479254Y-66289631D01*
X160479249Y-66289630D01*
X160300004Y-66269435D01*
X160299996Y-66269435D01*
X160120750Y-66289630D01*
X160120745Y-66289631D01*
X159950476Y-66349211D01*
X159797737Y-66445184D01*
X159670184Y-66572737D01*
X159579246Y-66717464D01*
X159526911Y-66763755D01*
X159457857Y-66774403D01*
X159433297Y-66768533D01*
X159279262Y-66714633D01*
X159279249Y-66714630D01*
X159100004Y-66694435D01*
X159099996Y-66694435D01*
X158920750Y-66714630D01*
X158920745Y-66714631D01*
X158750476Y-66774211D01*
X158597737Y-66870184D01*
X158537681Y-66930241D01*
X158476358Y-66963726D01*
X158406666Y-66958742D01*
X158362319Y-66930241D01*
X158327262Y-66895184D01*
X158174523Y-66799211D01*
X158004254Y-66739631D01*
X158004249Y-66739630D01*
X157825004Y-66719435D01*
X157824996Y-66719435D01*
X157645750Y-66739630D01*
X157645745Y-66739631D01*
X157475476Y-66799211D01*
X157322737Y-66895184D01*
X157312681Y-66905241D01*
X157251358Y-66938726D01*
X157181666Y-66933742D01*
X157137319Y-66905241D01*
X157102262Y-66870184D01*
X156949523Y-66774211D01*
X156779254Y-66714631D01*
X156779249Y-66714630D01*
X156600004Y-66694435D01*
X156599996Y-66694435D01*
X156420750Y-66714630D01*
X156420745Y-66714631D01*
X156250476Y-66774211D01*
X156097737Y-66870184D01*
X156097733Y-66870187D01*
X156096165Y-66871756D01*
X156094903Y-66872444D01*
X156092295Y-66874525D01*
X156091930Y-66874067D01*
X156034840Y-66905236D01*
X155965148Y-66900246D01*
X155942519Y-66889062D01*
X155799523Y-66799211D01*
X155629254Y-66739631D01*
X155629249Y-66739630D01*
X155450004Y-66719435D01*
X155449996Y-66719435D01*
X155270750Y-66739630D01*
X155270745Y-66739631D01*
X155100476Y-66799211D01*
X154947737Y-66895184D01*
X154820184Y-67022737D01*
X154724211Y-67175476D01*
X154664631Y-67345745D01*
X154664630Y-67345750D01*
X154644435Y-67524996D01*
X154644435Y-67525003D01*
X137095079Y-67525003D01*
X137095073Y-67525000D01*
X136986702Y-67469781D01*
X136792013Y-67406522D01*
X136617474Y-67378878D01*
X136589831Y-67374500D01*
X136385127Y-67374500D01*
X136360808Y-67378351D01*
X136182944Y-67406522D01*
X135988255Y-67469781D01*
X135805865Y-67562715D01*
X135640265Y-67683028D01*
X135495507Y-67827786D01*
X135375194Y-67993386D01*
X135282260Y-68175776D01*
X135219001Y-68370465D01*
X135186979Y-68572648D01*
X135186979Y-68777351D01*
X131662979Y-68777351D01*
X131662979Y-68752706D01*
X131663097Y-68747297D01*
X131664720Y-68710118D01*
X131681007Y-68337079D01*
X131681947Y-68326346D01*
X131735188Y-67921936D01*
X131737061Y-67911306D01*
X131825349Y-67513066D01*
X131828147Y-67502628D01*
X131838504Y-67469780D01*
X131950801Y-67113618D01*
X131954488Y-67103486D01*
X132110589Y-66726623D01*
X132115147Y-66716849D01*
X132303493Y-66355040D01*
X132308888Y-66345695D01*
X132528058Y-66001664D01*
X132534248Y-65992825D01*
X132782552Y-65669229D01*
X132789502Y-65660946D01*
X132789514Y-65660933D01*
X133065083Y-65360200D01*
X133072699Y-65352585D01*
X133373436Y-65077010D01*
X133381688Y-65070085D01*
X133705323Y-64821749D01*
X133714162Y-64815562D01*
X134058172Y-64596402D01*
X134067513Y-64591008D01*
X134429323Y-64402661D01*
X134439114Y-64398094D01*
X134815962Y-64241997D01*
X134826098Y-64238308D01*
X135215128Y-64115646D01*
X135225542Y-64112855D01*
X135623790Y-64024564D01*
X135634409Y-64022692D01*
X136038825Y-63969448D01*
X136049563Y-63968508D01*
X136459297Y-63950618D01*
X136464706Y-63950500D01*
X136502362Y-63950500D01*
X176422598Y-63950500D01*
X176459775Y-63950500D01*
X176465182Y-63950617D01*
G37*
G04 #@! TD.AperFunction*
M02*
