G04 #@! TF.GenerationSoftware,KiCad,Pcbnew,8.0.1*
G04 #@! TF.CreationDate,2025-02-17T15:06:08+05:00*
G04 #@! TF.ProjectId,brain_board,62726169-6e5f-4626-9f61-72642e6b6963,rev?*
G04 #@! TF.SameCoordinates,Original*
G04 #@! TF.FileFunction,Legend,Bot*
G04 #@! TF.FilePolarity,Positive*
%FSLAX46Y46*%
G04 Gerber Fmt 4.6, Leading zero omitted, Abs format (unit mm)*
G04 Created by KiCad (PCBNEW 8.0.1) date 2025-02-17 15:06:08*
%MOMM*%
%LPD*%
G01*
G04 APERTURE LIST*
G04 Aperture macros list*
%AMRoundRect*
0 Rectangle with rounded corners*
0 $1 Rounding radius*
0 $2 $3 $4 $5 $6 $7 $8 $9 X,Y pos of 4 corners*
0 Add a 4 corners polygon primitive as box body*
4,1,4,$2,$3,$4,$5,$6,$7,$8,$9,$2,$3,0*
0 Add four circle primitives for the rounded corners*
1,1,$1+$1,$2,$3*
1,1,$1+$1,$4,$5*
1,1,$1+$1,$6,$7*
1,1,$1+$1,$8,$9*
0 Add four rect primitives between the rounded corners*
20,1,$1+$1,$2,$3,$4,$5,0*
20,1,$1+$1,$4,$5,$6,$7,0*
20,1,$1+$1,$6,$7,$8,$9,0*
20,1,$1+$1,$8,$9,$2,$3,0*%
%AMRotRect*
0 Rectangle, with rotation*
0 The origin of the aperture is its center*
0 $1 length*
0 $2 width*
0 $3 Rotation angle, in degrees counterclockwise*
0 Add horizontal line*
21,1,$1,$2,0,0,$3*%
G04 Aperture macros list end*
%ADD10C,0.100000*%
%ADD11C,0.125000*%
%ADD12C,0.150000*%
%ADD13C,0.120000*%
%ADD14C,0.200000*%
%ADD15C,0.127000*%
%ADD16C,2.200000*%
%ADD17O,1.000000X1.600000*%
%ADD18O,1.000000X2.100000*%
%ADD19C,0.650000*%
%ADD20R,1.000000X3.000000*%
%ADD21RoundRect,0.147500X0.172500X-0.147500X0.172500X0.147500X-0.172500X0.147500X-0.172500X-0.147500X0*%
%ADD22RotRect,3.400000X4.300000X225.000000*%
%ADD23RoundRect,0.125000X0.088388X0.265165X-0.265165X-0.088388X-0.088388X-0.265165X0.265165X0.088388X0*%
%ADD24RoundRect,0.250000X1.100000X-0.250000X1.100000X0.250000X-1.100000X0.250000X-1.100000X-0.250000X0*%
%ADD25RoundRect,0.150000X0.700000X-0.150000X0.700000X0.150000X-0.700000X0.150000X-0.700000X-0.150000X0*%
%ADD26R,0.300000X2.800000*%
%ADD27R,0.450000X0.200000*%
%ADD28RoundRect,0.225000X0.017678X-0.335876X0.335876X-0.017678X-0.017678X0.335876X-0.335876X0.017678X0*%
%ADD29RoundRect,0.076200X1.665000X-0.350000X1.665000X0.350000X-1.665000X0.350000X-1.665000X-0.350000X0*%
%ADD30RoundRect,0.076200X1.400000X-0.430000X1.400000X0.430000X-1.400000X0.430000X-1.400000X-0.430000X0*%
%ADD31RoundRect,0.076200X0.915000X-0.570000X0.915000X0.570000X-0.915000X0.570000X-0.915000X-0.570000X0*%
%ADD32RoundRect,0.076200X0.390000X-0.525000X0.390000X0.525000X-0.390000X0.525000X-0.390000X-0.525000X0*%
%ADD33RoundRect,0.076200X0.465000X-0.450000X0.465000X0.450000X-0.465000X0.450000X-0.465000X-0.450000X0*%
%ADD34RoundRect,0.076200X0.550000X-0.350000X0.550000X0.350000X-0.550000X0.350000X-0.550000X-0.350000X0*%
%ADD35RoundRect,0.200000X0.335876X0.053033X0.053033X0.335876X-0.335876X-0.053033X-0.053033X-0.335876X0*%
%ADD36RoundRect,0.200000X-0.053033X0.335876X-0.335876X0.053033X0.053033X-0.335876X0.335876X-0.053033X0*%
G04 APERTURE END LIST*
D10*
X138612782Y-96133609D02*
X138303258Y-96133609D01*
X138303258Y-96133609D02*
X138469925Y-96324085D01*
X138469925Y-96324085D02*
X138398496Y-96324085D01*
X138398496Y-96324085D02*
X138350877Y-96347895D01*
X138350877Y-96347895D02*
X138327068Y-96371704D01*
X138327068Y-96371704D02*
X138303258Y-96419323D01*
X138303258Y-96419323D02*
X138303258Y-96538371D01*
X138303258Y-96538371D02*
X138327068Y-96585990D01*
X138327068Y-96585990D02*
X138350877Y-96609800D01*
X138350877Y-96609800D02*
X138398496Y-96633609D01*
X138398496Y-96633609D02*
X138541353Y-96633609D01*
X138541353Y-96633609D02*
X138588972Y-96609800D01*
X138588972Y-96609800D02*
X138612782Y-96585990D01*
X138136592Y-96300276D02*
X138017544Y-96633609D01*
X138017544Y-96633609D02*
X137898497Y-96300276D01*
X137755640Y-96133609D02*
X137446116Y-96133609D01*
X137446116Y-96133609D02*
X137612783Y-96324085D01*
X137612783Y-96324085D02*
X137541354Y-96324085D01*
X137541354Y-96324085D02*
X137493735Y-96347895D01*
X137493735Y-96347895D02*
X137469926Y-96371704D01*
X137469926Y-96371704D02*
X137446116Y-96419323D01*
X137446116Y-96419323D02*
X137446116Y-96538371D01*
X137446116Y-96538371D02*
X137469926Y-96585990D01*
X137469926Y-96585990D02*
X137493735Y-96609800D01*
X137493735Y-96609800D02*
X137541354Y-96633609D01*
X137541354Y-96633609D02*
X137684211Y-96633609D01*
X137684211Y-96633609D02*
X137731830Y-96609800D01*
X137731830Y-96609800D02*
X137755640Y-96585990D01*
X138786591Y-87683609D02*
X138500877Y-87683609D01*
X138643734Y-88183609D02*
X138643734Y-87683609D01*
X138381830Y-87683609D02*
X138048497Y-88183609D01*
X138048497Y-87683609D02*
X138381830Y-88183609D01*
X138562782Y-86583609D02*
X138253258Y-86583609D01*
X138253258Y-86583609D02*
X138419925Y-86774085D01*
X138419925Y-86774085D02*
X138348496Y-86774085D01*
X138348496Y-86774085D02*
X138300877Y-86797895D01*
X138300877Y-86797895D02*
X138277068Y-86821704D01*
X138277068Y-86821704D02*
X138253258Y-86869323D01*
X138253258Y-86869323D02*
X138253258Y-86988371D01*
X138253258Y-86988371D02*
X138277068Y-87035990D01*
X138277068Y-87035990D02*
X138300877Y-87059800D01*
X138300877Y-87059800D02*
X138348496Y-87083609D01*
X138348496Y-87083609D02*
X138491353Y-87083609D01*
X138491353Y-87083609D02*
X138538972Y-87059800D01*
X138538972Y-87059800D02*
X138562782Y-87035990D01*
X138086592Y-86750276D02*
X137967544Y-87083609D01*
X137967544Y-87083609D02*
X137848497Y-86750276D01*
X137705640Y-86583609D02*
X137396116Y-86583609D01*
X137396116Y-86583609D02*
X137562783Y-86774085D01*
X137562783Y-86774085D02*
X137491354Y-86774085D01*
X137491354Y-86774085D02*
X137443735Y-86797895D01*
X137443735Y-86797895D02*
X137419926Y-86821704D01*
X137419926Y-86821704D02*
X137396116Y-86869323D01*
X137396116Y-86869323D02*
X137396116Y-86988371D01*
X137396116Y-86988371D02*
X137419926Y-87035990D01*
X137419926Y-87035990D02*
X137443735Y-87059800D01*
X137443735Y-87059800D02*
X137491354Y-87083609D01*
X137491354Y-87083609D02*
X137634211Y-87083609D01*
X137634211Y-87083609D02*
X137681830Y-87059800D01*
X137681830Y-87059800D02*
X137705640Y-87035990D01*
X138703258Y-90357419D02*
X138750877Y-90333609D01*
X138750877Y-90333609D02*
X138822306Y-90333609D01*
X138822306Y-90333609D02*
X138893734Y-90357419D01*
X138893734Y-90357419D02*
X138941353Y-90405038D01*
X138941353Y-90405038D02*
X138965163Y-90452657D01*
X138965163Y-90452657D02*
X138988972Y-90547895D01*
X138988972Y-90547895D02*
X138988972Y-90619323D01*
X138988972Y-90619323D02*
X138965163Y-90714561D01*
X138965163Y-90714561D02*
X138941353Y-90762180D01*
X138941353Y-90762180D02*
X138893734Y-90809800D01*
X138893734Y-90809800D02*
X138822306Y-90833609D01*
X138822306Y-90833609D02*
X138774687Y-90833609D01*
X138774687Y-90833609D02*
X138703258Y-90809800D01*
X138703258Y-90809800D02*
X138679449Y-90785990D01*
X138679449Y-90785990D02*
X138679449Y-90619323D01*
X138679449Y-90619323D02*
X138774687Y-90619323D01*
X138465163Y-90833609D02*
X138465163Y-90333609D01*
X138465163Y-90333609D02*
X138179449Y-90833609D01*
X138179449Y-90833609D02*
X138179449Y-90333609D01*
X137941353Y-90833609D02*
X137941353Y-90333609D01*
X137941353Y-90333609D02*
X137822305Y-90333609D01*
X137822305Y-90333609D02*
X137750877Y-90357419D01*
X137750877Y-90357419D02*
X137703258Y-90405038D01*
X137703258Y-90405038D02*
X137679448Y-90452657D01*
X137679448Y-90452657D02*
X137655639Y-90547895D01*
X137655639Y-90547895D02*
X137655639Y-90619323D01*
X137655639Y-90619323D02*
X137679448Y-90714561D01*
X137679448Y-90714561D02*
X137703258Y-90762180D01*
X137703258Y-90762180D02*
X137750877Y-90809800D01*
X137750877Y-90809800D02*
X137822305Y-90833609D01*
X137822305Y-90833609D02*
X137941353Y-90833609D01*
X137983609Y-97520550D02*
X137745514Y-97353884D01*
X137983609Y-97234836D02*
X137483609Y-97234836D01*
X137483609Y-97234836D02*
X137483609Y-97425312D01*
X137483609Y-97425312D02*
X137507419Y-97472931D01*
X137507419Y-97472931D02*
X137531228Y-97496741D01*
X137531228Y-97496741D02*
X137578847Y-97520550D01*
X137578847Y-97520550D02*
X137650276Y-97520550D01*
X137650276Y-97520550D02*
X137697895Y-97496741D01*
X137697895Y-97496741D02*
X137721704Y-97472931D01*
X137721704Y-97472931D02*
X137745514Y-97425312D01*
X137745514Y-97425312D02*
X137745514Y-97234836D01*
X137483609Y-97687217D02*
X137983609Y-98020550D01*
X137483609Y-98020550D02*
X137983609Y-97687217D01*
X137457419Y-100946741D02*
X137433609Y-100899122D01*
X137433609Y-100899122D02*
X137433609Y-100827693D01*
X137433609Y-100827693D02*
X137457419Y-100756265D01*
X137457419Y-100756265D02*
X137505038Y-100708646D01*
X137505038Y-100708646D02*
X137552657Y-100684836D01*
X137552657Y-100684836D02*
X137647895Y-100661027D01*
X137647895Y-100661027D02*
X137719323Y-100661027D01*
X137719323Y-100661027D02*
X137814561Y-100684836D01*
X137814561Y-100684836D02*
X137862180Y-100708646D01*
X137862180Y-100708646D02*
X137909800Y-100756265D01*
X137909800Y-100756265D02*
X137933609Y-100827693D01*
X137933609Y-100827693D02*
X137933609Y-100875312D01*
X137933609Y-100875312D02*
X137909800Y-100946741D01*
X137909800Y-100946741D02*
X137885990Y-100970550D01*
X137885990Y-100970550D02*
X137719323Y-100970550D01*
X137719323Y-100970550D02*
X137719323Y-100875312D01*
X137933609Y-101184836D02*
X137433609Y-101184836D01*
X137433609Y-101184836D02*
X137933609Y-101470550D01*
X137933609Y-101470550D02*
X137433609Y-101470550D01*
X137933609Y-101708646D02*
X137433609Y-101708646D01*
X137433609Y-101708646D02*
X137433609Y-101827694D01*
X137433609Y-101827694D02*
X137457419Y-101899122D01*
X137457419Y-101899122D02*
X137505038Y-101946741D01*
X137505038Y-101946741D02*
X137552657Y-101970551D01*
X137552657Y-101970551D02*
X137647895Y-101994360D01*
X137647895Y-101994360D02*
X137719323Y-101994360D01*
X137719323Y-101994360D02*
X137814561Y-101970551D01*
X137814561Y-101970551D02*
X137862180Y-101946741D01*
X137862180Y-101946741D02*
X137909800Y-101899122D01*
X137909800Y-101899122D02*
X137933609Y-101827694D01*
X137933609Y-101827694D02*
X137933609Y-101708646D01*
X138579449Y-89733609D02*
X138746115Y-89495514D01*
X138865163Y-89733609D02*
X138865163Y-89233609D01*
X138865163Y-89233609D02*
X138674687Y-89233609D01*
X138674687Y-89233609D02*
X138627068Y-89257419D01*
X138627068Y-89257419D02*
X138603258Y-89281228D01*
X138603258Y-89281228D02*
X138579449Y-89328847D01*
X138579449Y-89328847D02*
X138579449Y-89400276D01*
X138579449Y-89400276D02*
X138603258Y-89447895D01*
X138603258Y-89447895D02*
X138627068Y-89471704D01*
X138627068Y-89471704D02*
X138674687Y-89495514D01*
X138674687Y-89495514D02*
X138865163Y-89495514D01*
X138412782Y-89233609D02*
X138079449Y-89733609D01*
X138079449Y-89233609D02*
X138412782Y-89733609D01*
X137483609Y-98613408D02*
X137483609Y-98899122D01*
X137983609Y-98756265D02*
X137483609Y-98756265D01*
X137483609Y-99018169D02*
X137983609Y-99351502D01*
X137483609Y-99351502D02*
X137983609Y-99018169D01*
D11*
X154542857Y-64674809D02*
X154542857Y-64174809D01*
X154542857Y-64174809D02*
X154661905Y-64174809D01*
X154661905Y-64174809D02*
X154733333Y-64198619D01*
X154733333Y-64198619D02*
X154780952Y-64246238D01*
X154780952Y-64246238D02*
X154804762Y-64293857D01*
X154804762Y-64293857D02*
X154828571Y-64389095D01*
X154828571Y-64389095D02*
X154828571Y-64460523D01*
X154828571Y-64460523D02*
X154804762Y-64555761D01*
X154804762Y-64555761D02*
X154780952Y-64603380D01*
X154780952Y-64603380D02*
X154733333Y-64651000D01*
X154733333Y-64651000D02*
X154661905Y-64674809D01*
X154661905Y-64674809D02*
X154542857Y-64674809D01*
X155304762Y-64674809D02*
X155019048Y-64674809D01*
X155161905Y-64674809D02*
X155161905Y-64174809D01*
X155161905Y-64174809D02*
X155114286Y-64246238D01*
X155114286Y-64246238D02*
X155066667Y-64293857D01*
X155066667Y-64293857D02*
X155019048Y-64317666D01*
X155495238Y-64222428D02*
X155519047Y-64198619D01*
X155519047Y-64198619D02*
X155566666Y-64174809D01*
X155566666Y-64174809D02*
X155685714Y-64174809D01*
X155685714Y-64174809D02*
X155733333Y-64198619D01*
X155733333Y-64198619D02*
X155757142Y-64222428D01*
X155757142Y-64222428D02*
X155780952Y-64270047D01*
X155780952Y-64270047D02*
X155780952Y-64317666D01*
X155780952Y-64317666D02*
X155757142Y-64389095D01*
X155757142Y-64389095D02*
X155471428Y-64674809D01*
X155471428Y-64674809D02*
X155780952Y-64674809D01*
X157542857Y-64724809D02*
X157542857Y-64224809D01*
X157542857Y-64224809D02*
X157661905Y-64224809D01*
X157661905Y-64224809D02*
X157733333Y-64248619D01*
X157733333Y-64248619D02*
X157780952Y-64296238D01*
X157780952Y-64296238D02*
X157804762Y-64343857D01*
X157804762Y-64343857D02*
X157828571Y-64439095D01*
X157828571Y-64439095D02*
X157828571Y-64510523D01*
X157828571Y-64510523D02*
X157804762Y-64605761D01*
X157804762Y-64605761D02*
X157780952Y-64653380D01*
X157780952Y-64653380D02*
X157733333Y-64701000D01*
X157733333Y-64701000D02*
X157661905Y-64724809D01*
X157661905Y-64724809D02*
X157542857Y-64724809D01*
X158304762Y-64724809D02*
X158019048Y-64724809D01*
X158161905Y-64724809D02*
X158161905Y-64224809D01*
X158161905Y-64224809D02*
X158114286Y-64296238D01*
X158114286Y-64296238D02*
X158066667Y-64343857D01*
X158066667Y-64343857D02*
X158019048Y-64367666D01*
X158614285Y-64224809D02*
X158661904Y-64224809D01*
X158661904Y-64224809D02*
X158709523Y-64248619D01*
X158709523Y-64248619D02*
X158733333Y-64272428D01*
X158733333Y-64272428D02*
X158757142Y-64320047D01*
X158757142Y-64320047D02*
X158780952Y-64415285D01*
X158780952Y-64415285D02*
X158780952Y-64534333D01*
X158780952Y-64534333D02*
X158757142Y-64629571D01*
X158757142Y-64629571D02*
X158733333Y-64677190D01*
X158733333Y-64677190D02*
X158709523Y-64701000D01*
X158709523Y-64701000D02*
X158661904Y-64724809D01*
X158661904Y-64724809D02*
X158614285Y-64724809D01*
X158614285Y-64724809D02*
X158566666Y-64701000D01*
X158566666Y-64701000D02*
X158542857Y-64677190D01*
X158542857Y-64677190D02*
X158519047Y-64629571D01*
X158519047Y-64629571D02*
X158495238Y-64534333D01*
X158495238Y-64534333D02*
X158495238Y-64415285D01*
X158495238Y-64415285D02*
X158519047Y-64320047D01*
X158519047Y-64320047D02*
X158542857Y-64272428D01*
X158542857Y-64272428D02*
X158566666Y-64248619D01*
X158566666Y-64248619D02*
X158614285Y-64224809D01*
X159130952Y-64724809D02*
X159130952Y-64224809D01*
X159130952Y-64224809D02*
X159250000Y-64224809D01*
X159250000Y-64224809D02*
X159321428Y-64248619D01*
X159321428Y-64248619D02*
X159369047Y-64296238D01*
X159369047Y-64296238D02*
X159392857Y-64343857D01*
X159392857Y-64343857D02*
X159416666Y-64439095D01*
X159416666Y-64439095D02*
X159416666Y-64510523D01*
X159416666Y-64510523D02*
X159392857Y-64605761D01*
X159392857Y-64605761D02*
X159369047Y-64653380D01*
X159369047Y-64653380D02*
X159321428Y-64701000D01*
X159321428Y-64701000D02*
X159250000Y-64724809D01*
X159250000Y-64724809D02*
X159130952Y-64724809D01*
X159892857Y-64724809D02*
X159607143Y-64724809D01*
X159750000Y-64724809D02*
X159750000Y-64224809D01*
X159750000Y-64224809D02*
X159702381Y-64296238D01*
X159702381Y-64296238D02*
X159654762Y-64343857D01*
X159654762Y-64343857D02*
X159607143Y-64367666D01*
X156067857Y-64699809D02*
X156067857Y-64199809D01*
X156067857Y-64199809D02*
X156186905Y-64199809D01*
X156186905Y-64199809D02*
X156258333Y-64223619D01*
X156258333Y-64223619D02*
X156305952Y-64271238D01*
X156305952Y-64271238D02*
X156329762Y-64318857D01*
X156329762Y-64318857D02*
X156353571Y-64414095D01*
X156353571Y-64414095D02*
X156353571Y-64485523D01*
X156353571Y-64485523D02*
X156329762Y-64580761D01*
X156329762Y-64580761D02*
X156305952Y-64628380D01*
X156305952Y-64628380D02*
X156258333Y-64676000D01*
X156258333Y-64676000D02*
X156186905Y-64699809D01*
X156186905Y-64699809D02*
X156067857Y-64699809D01*
X156829762Y-64699809D02*
X156544048Y-64699809D01*
X156686905Y-64699809D02*
X156686905Y-64199809D01*
X156686905Y-64199809D02*
X156639286Y-64271238D01*
X156639286Y-64271238D02*
X156591667Y-64318857D01*
X156591667Y-64318857D02*
X156544048Y-64342666D01*
X157305952Y-64699809D02*
X157020238Y-64699809D01*
X157163095Y-64699809D02*
X157163095Y-64199809D01*
X157163095Y-64199809D02*
X157115476Y-64271238D01*
X157115476Y-64271238D02*
X157067857Y-64318857D01*
X157067857Y-64318857D02*
X157020238Y-64342666D01*
X143934217Y-87466367D02*
X143967889Y-87466367D01*
X143967889Y-87466367D02*
X144035233Y-87432695D01*
X144035233Y-87432695D02*
X144068904Y-87399023D01*
X144068904Y-87399023D02*
X144102576Y-87331680D01*
X144102576Y-87331680D02*
X144102576Y-87264336D01*
X144102576Y-87264336D02*
X144085740Y-87213829D01*
X144085740Y-87213829D02*
X144035233Y-87129649D01*
X144035233Y-87129649D02*
X143984725Y-87079142D01*
X143984725Y-87079142D02*
X143900546Y-87028634D01*
X143900546Y-87028634D02*
X143850038Y-87011798D01*
X143850038Y-87011798D02*
X143782695Y-87011798D01*
X143782695Y-87011798D02*
X143715351Y-87045470D01*
X143715351Y-87045470D02*
X143681679Y-87079142D01*
X143681679Y-87079142D02*
X143648008Y-87146485D01*
X143648008Y-87146485D02*
X143648008Y-87180157D01*
X143513321Y-87314844D02*
X143479649Y-87314844D01*
X143479649Y-87314844D02*
X143429141Y-87331680D01*
X143429141Y-87331680D02*
X143344962Y-87415859D01*
X143344962Y-87415859D02*
X143328126Y-87466367D01*
X143328126Y-87466367D02*
X143328126Y-87500038D01*
X143328126Y-87500038D02*
X143344962Y-87550546D01*
X143344962Y-87550546D02*
X143378634Y-87584218D01*
X143378634Y-87584218D02*
X143445977Y-87617890D01*
X143445977Y-87617890D02*
X143850038Y-87617890D01*
X143850038Y-87617890D02*
X143631172Y-87836756D01*
X146286124Y-91406726D02*
X146572333Y-91356219D01*
X146488154Y-91608757D02*
X146841707Y-91255203D01*
X146841707Y-91255203D02*
X146707020Y-91120516D01*
X146707020Y-91120516D02*
X146656513Y-91103680D01*
X146656513Y-91103680D02*
X146622841Y-91103680D01*
X146622841Y-91103680D02*
X146572333Y-91120516D01*
X146572333Y-91120516D02*
X146521826Y-91171024D01*
X146521826Y-91171024D02*
X146504990Y-91221532D01*
X146504990Y-91221532D02*
X146504990Y-91255203D01*
X146504990Y-91255203D02*
X146521826Y-91305711D01*
X146521826Y-91305711D02*
X146656513Y-91440398D01*
X146286124Y-91002665D02*
X146336631Y-91019501D01*
X146336631Y-91019501D02*
X146370303Y-91019501D01*
X146370303Y-91019501D02*
X146420811Y-91002665D01*
X146420811Y-91002665D02*
X146437646Y-90985829D01*
X146437646Y-90985829D02*
X146454482Y-90935322D01*
X146454482Y-90935322D02*
X146454482Y-90901650D01*
X146454482Y-90901650D02*
X146437646Y-90851142D01*
X146437646Y-90851142D02*
X146370303Y-90783799D01*
X146370303Y-90783799D02*
X146319795Y-90766963D01*
X146319795Y-90766963D02*
X146286124Y-90766963D01*
X146286124Y-90766963D02*
X146235616Y-90783799D01*
X146235616Y-90783799D02*
X146218780Y-90800635D01*
X146218780Y-90800635D02*
X146201944Y-90851142D01*
X146201944Y-90851142D02*
X146201944Y-90884814D01*
X146201944Y-90884814D02*
X146218780Y-90935322D01*
X146218780Y-90935322D02*
X146286124Y-91002665D01*
X146286124Y-91002665D02*
X146302959Y-91053173D01*
X146302959Y-91053173D02*
X146302959Y-91086845D01*
X146302959Y-91086845D02*
X146286124Y-91137352D01*
X146286124Y-91137352D02*
X146218780Y-91204696D01*
X146218780Y-91204696D02*
X146168272Y-91221532D01*
X146168272Y-91221532D02*
X146134601Y-91221532D01*
X146134601Y-91221532D02*
X146084093Y-91204696D01*
X146084093Y-91204696D02*
X146016750Y-91137352D01*
X146016750Y-91137352D02*
X145999914Y-91086845D01*
X145999914Y-91086845D02*
X145999914Y-91053173D01*
X145999914Y-91053173D02*
X146016750Y-91002665D01*
X146016750Y-91002665D02*
X146084093Y-90935322D01*
X146084093Y-90935322D02*
X146134601Y-90918486D01*
X146134601Y-90918486D02*
X146168272Y-90918486D01*
X146168272Y-90918486D02*
X146218780Y-90935322D01*
D12*
X146728293Y-84667591D02*
X146627278Y-84095172D01*
X147132354Y-84263530D02*
X146425247Y-83556424D01*
X146425247Y-83556424D02*
X146155873Y-83825798D01*
X146155873Y-83825798D02*
X146122201Y-83926813D01*
X146122201Y-83926813D02*
X146122201Y-83994156D01*
X146122201Y-83994156D02*
X146155873Y-84095172D01*
X146155873Y-84095172D02*
X146256888Y-84196187D01*
X146256888Y-84196187D02*
X146357904Y-84229859D01*
X146357904Y-84229859D02*
X146425247Y-84229859D01*
X146425247Y-84229859D02*
X146526262Y-84196187D01*
X146526262Y-84196187D02*
X146795636Y-83926813D01*
X146391575Y-85004309D02*
X146256888Y-85138996D01*
X146256888Y-85138996D02*
X146155873Y-85172668D01*
X146155873Y-85172668D02*
X146088530Y-85172668D01*
X146088530Y-85172668D02*
X145920171Y-85138996D01*
X145920171Y-85138996D02*
X145751812Y-85037981D01*
X145751812Y-85037981D02*
X145482438Y-84768607D01*
X145482438Y-84768607D02*
X145448766Y-84667591D01*
X145448766Y-84667591D02*
X145448766Y-84600248D01*
X145448766Y-84600248D02*
X145482438Y-84499233D01*
X145482438Y-84499233D02*
X145617125Y-84364546D01*
X145617125Y-84364546D02*
X145718140Y-84330874D01*
X145718140Y-84330874D02*
X145785484Y-84330874D01*
X145785484Y-84330874D02*
X145886499Y-84364546D01*
X145886499Y-84364546D02*
X146054858Y-84532904D01*
X146054858Y-84532904D02*
X146088530Y-84633920D01*
X146088530Y-84633920D02*
X146088530Y-84701263D01*
X146088530Y-84701263D02*
X146054858Y-84802278D01*
X146054858Y-84802278D02*
X145920171Y-84936965D01*
X145920171Y-84936965D02*
X145819156Y-84970637D01*
X145819156Y-84970637D02*
X145751812Y-84970637D01*
X145751812Y-84970637D02*
X145650797Y-84936965D01*
D13*
X148677478Y-78339999D02*
X148677478Y-73139999D01*
X148677478Y-78339999D02*
X148107479Y-78340000D01*
X148677478Y-73139999D02*
X148107479Y-73139998D01*
X146587479Y-78339999D02*
X145567479Y-78339999D01*
X146587479Y-73139999D02*
X145567479Y-73139999D01*
X144047479Y-78339999D02*
X143027479Y-78339999D01*
X144047479Y-73139999D02*
X143027479Y-73139999D01*
X141507479Y-78339999D02*
X140487479Y-78339999D01*
X141507479Y-73139999D02*
X140487479Y-73139999D01*
X138967479Y-79699999D02*
X138967479Y-78340000D01*
X138967479Y-78340000D02*
X138397480Y-78339999D01*
X138967479Y-73139998D02*
X138397480Y-73139999D01*
X138397480Y-78339999D02*
X138397480Y-73139999D01*
D10*
X155474999Y-66939999D02*
G75*
G02*
X155375001Y-66939999I-49999J0D01*
G01*
X155375001Y-66939999D02*
G75*
G02*
X155474999Y-66939999I49999J0D01*
G01*
D13*
X149350538Y-85682628D02*
X149011127Y-85343217D01*
X149689949Y-85343217D01*
X149350538Y-85682628D01*
G36*
X149350538Y-85682628D02*
G01*
X149011127Y-85343217D01*
X149689949Y-85343217D01*
X149350538Y-85682628D01*
G37*
X148424228Y-93566869D02*
X152666869Y-89324228D01*
X144733131Y-89875772D02*
X148968701Y-85640202D01*
D10*
X157849999Y-66964999D02*
G75*
G02*
X157750001Y-66964999I-49999J0D01*
G01*
X157750001Y-66964999D02*
G75*
G02*
X157849999Y-66964999I49999J0D01*
G01*
X159149999Y-66964999D02*
G75*
G02*
X159050001Y-66964999I-49999J0D01*
G01*
X159050001Y-66964999D02*
G75*
G02*
X159149999Y-66964999I49999J0D01*
G01*
D13*
X174652478Y-78289999D02*
X174652478Y-73089999D01*
X174652478Y-78289999D02*
X174082479Y-78290000D01*
X174652478Y-73089999D02*
X174082479Y-73089998D01*
X172562479Y-78289999D02*
X171542479Y-78289999D01*
X172562479Y-73089999D02*
X171542479Y-73089999D01*
X170022479Y-78289999D02*
X169002479Y-78289999D01*
X170022479Y-73089999D02*
X169002479Y-73089999D01*
X167482479Y-78289999D02*
X166462479Y-78289999D01*
X167482479Y-73089999D02*
X166462479Y-73089999D01*
X164942479Y-79649999D02*
X164942479Y-78290000D01*
X164942479Y-78290000D02*
X164372480Y-78289999D01*
X164942479Y-73089998D02*
X164372480Y-73089999D01*
X164372480Y-78289999D02*
X164372480Y-73089999D01*
X137050000Y-100885000D02*
X136060000Y-100885000D01*
X136060000Y-102685000D02*
X134610000Y-102685000D01*
X136060000Y-100885000D02*
X136060000Y-102685000D01*
X136060000Y-96015000D02*
X136060000Y-94215000D01*
X136060000Y-94215000D02*
X134610000Y-94215000D01*
X131790000Y-95485000D02*
X131790000Y-101415000D01*
D14*
X164000000Y-92199999D02*
G75*
G02*
X164000000Y-91999999I-1J100000D01*
G01*
X164000000Y-91999999D02*
G75*
G02*
X164000000Y-92199999I-1J-100000D01*
G01*
D10*
X164500000Y-92449999D02*
X165700000Y-92449998D01*
X164500000Y-88949999D02*
X165700000Y-88950000D01*
X156549999Y-66947499D02*
G75*
G02*
X156450001Y-66947499I-49999J0D01*
G01*
X156450001Y-66947499D02*
G75*
G02*
X156549999Y-66947499I49999J0D01*
G01*
D13*
X174627478Y-99025000D02*
X174627478Y-104225000D01*
X174057479Y-104225001D02*
X174627478Y-104225000D01*
X174057479Y-99024999D02*
X174627478Y-99025000D01*
X174057479Y-97665000D02*
X174057479Y-99024999D01*
X171517479Y-104225000D02*
X172537479Y-104225000D01*
X171517479Y-99025000D02*
X172537479Y-99025000D01*
X168977479Y-104225000D02*
X169997479Y-104225000D01*
X168977479Y-99025000D02*
X169997479Y-99025000D01*
X166437479Y-104225000D02*
X167457479Y-104225000D01*
X166437479Y-99025000D02*
X167457479Y-99025000D01*
X164347480Y-104225000D02*
X164917479Y-104225001D01*
X164347480Y-99025000D02*
X164917479Y-99024999D01*
X164347480Y-99025000D02*
X164347480Y-104225000D01*
X137000000Y-91185000D02*
X136010000Y-91185000D01*
X136010000Y-92985000D02*
X134560000Y-92985000D01*
X136010000Y-91185000D02*
X136010000Y-92985000D01*
X136010000Y-86315000D02*
X136010000Y-84515000D01*
X136010000Y-84515000D02*
X134560000Y-84515000D01*
X131740000Y-85785000D02*
X131740000Y-91715000D01*
X144510030Y-88886219D02*
X144311219Y-89085030D01*
X143788781Y-88164970D02*
X143589970Y-88363781D01*
X148677478Y-99050000D02*
X148677478Y-104250000D01*
X148107479Y-104250001D02*
X148677478Y-104250000D01*
X148107479Y-99049999D02*
X148677478Y-99050000D01*
X148107479Y-97690000D02*
X148107479Y-99049999D01*
X145567479Y-104250000D02*
X146587479Y-104250000D01*
X145567479Y-99050000D02*
X146587479Y-99050000D01*
X143027479Y-104250000D02*
X144047479Y-104250000D01*
X143027479Y-99050000D02*
X144047479Y-99050000D01*
X140487479Y-104250000D02*
X141507479Y-104250000D01*
X140487479Y-99050000D02*
X141507479Y-99050000D01*
X138397480Y-104250000D02*
X138967479Y-104250001D01*
X138397480Y-99050000D02*
X138967479Y-99049999D01*
X138397480Y-99050000D02*
X138397480Y-104250000D01*
D15*
X181025001Y-81770000D02*
X181025001Y-94870000D01*
X175425000Y-94870000D02*
X178325000Y-94870000D01*
X170325000Y-94870000D02*
X172425000Y-94870000D01*
X166974999Y-93194000D02*
X166974999Y-94196000D01*
X166974999Y-82444000D02*
X166975000Y-87446000D01*
D13*
X145576697Y-91662770D02*
X145912230Y-91998303D01*
X144837770Y-92401697D02*
X145173303Y-92737230D01*
X147501697Y-86012230D02*
X147837230Y-85676697D01*
X146762770Y-85273303D02*
X147098303Y-84937770D01*
%LPC*%
D16*
X176487479Y-68675000D03*
D17*
X160645000Y-110525000D03*
D18*
X160645000Y-106345000D03*
D17*
X152005000Y-110525000D03*
D18*
X152005000Y-106345000D03*
D19*
X159215000Y-106875000D03*
X153435000Y-106875000D03*
D16*
X136487479Y-68675000D03*
X136487479Y-108675000D03*
X176487479Y-108675000D03*
D20*
X147347479Y-73219999D03*
X147347479Y-78259999D03*
X144807480Y-73219999D03*
X144807480Y-78259999D03*
X142267478Y-73219999D03*
X142267478Y-78259999D03*
X139727479Y-73219999D03*
X139727479Y-78259999D03*
D21*
X155425000Y-65365000D03*
X155425000Y-66335000D03*
D22*
X148700000Y-89600000D03*
D23*
X145443773Y-90162150D03*
X146341799Y-91060176D03*
X147239824Y-91958201D03*
X148137850Y-92856227D03*
X151956227Y-89037850D03*
X151058201Y-88139824D03*
X150160176Y-87241799D03*
X149262150Y-86343773D03*
D21*
X157800000Y-65390000D03*
X157800000Y-66360000D03*
X159100000Y-65390000D03*
X159100000Y-66360000D03*
D20*
X173322479Y-73169999D03*
X173322479Y-78209999D03*
X170782480Y-73169999D03*
X170782480Y-78209999D03*
X168242478Y-73169999D03*
X168242478Y-78209999D03*
X165702479Y-73169999D03*
X165702479Y-78209999D03*
D24*
X133000000Y-94725000D03*
X133000000Y-102175000D03*
D25*
X136200000Y-96575000D03*
X136200000Y-97825000D03*
X136200000Y-99075000D03*
X136200000Y-100325000D03*
D26*
X165099999Y-90699999D03*
D27*
X165675000Y-92099999D03*
X165675000Y-91699999D03*
X165675000Y-91299999D03*
X165675000Y-90899999D03*
X165675000Y-90499999D03*
X165675000Y-90099999D03*
X165675000Y-89699999D03*
X165675000Y-89299999D03*
X164524999Y-89299999D03*
X164525000Y-89699999D03*
X164525000Y-90099999D03*
X164525000Y-90500000D03*
X164525000Y-90899998D03*
X164525000Y-91299999D03*
X164525000Y-91699999D03*
X164524999Y-92099999D03*
D21*
X156500000Y-65372500D03*
X156500000Y-66342500D03*
D20*
X165677479Y-104145000D03*
X165677479Y-99105000D03*
X168217478Y-104145000D03*
X168217478Y-99105000D03*
X170757480Y-104145000D03*
X170757480Y-99105000D03*
X173297479Y-104145000D03*
X173297479Y-99105000D03*
D24*
X132950000Y-85025000D03*
X132950000Y-92475000D03*
D25*
X136150000Y-86875000D03*
X136150000Y-88125000D03*
X136150000Y-89375000D03*
X136150000Y-90625000D03*
D28*
X144598008Y-88076992D03*
X143501992Y-89173008D03*
D20*
X139727479Y-104170000D03*
X139727479Y-99130000D03*
X142267478Y-104170000D03*
X142267478Y-99130000D03*
X144807480Y-104170000D03*
X144807480Y-99130000D03*
X147347479Y-104170000D03*
X147347479Y-99130000D03*
D29*
X168360000Y-81840000D03*
X168360000Y-94800000D03*
D30*
X179125000Y-81920000D03*
D31*
X179610000Y-94579999D03*
D32*
X167085000Y-88224999D03*
D33*
X167160000Y-92490000D03*
D34*
X179625001Y-83000000D03*
X179625000Y-84100000D03*
X179625000Y-85200000D03*
X179625000Y-86300000D03*
X179625000Y-87400000D03*
X179625000Y-88500000D03*
X179625000Y-89600000D03*
X179625001Y-90700000D03*
D35*
X144791637Y-91616637D03*
X145958363Y-92783363D03*
D36*
X146716637Y-86058363D03*
X147883363Y-84891637D03*
%LPD*%
M02*
