%TF.GenerationSoftware,KiCad,Pcbnew,8.0.1*%
%TF.CreationDate,2025-02-17T15:06:25+05:00*%
%TF.ProjectId,brain_board,62726169-6e5f-4626-9f61-72642e6b6963,rev?*%
%TF.SameCoordinates,Original*%
%TF.FileFunction,Drillmap*%
%TF.FilePolarity,Positive*%
%FSLAX45Y45*%
G04 Gerber Fmt 4.5, Leading zero omitted, Abs format (unit mm)*
G04 Created by KiCad (PCBNEW 8.0.1) date 2025-02-17 15:06:25*
%MOMM*%
%LPD*%
G01*
G04 APERTURE LIST*
%ADD10C,0.050000*%
%ADD11C,0.200000*%
%ADD12C,0.100000*%
G04 APERTURE END LIST*
D10*
X13646248Y-6375000D02*
X17646248Y-6375000D01*
X18146248Y-10875000D02*
G75*
G02*
X17646248Y-11374998I-499998J0D01*
G01*
X13646248Y-11375000D02*
G75*
G02*
X13146250Y-10875000I2J500000D01*
G01*
X18146248Y-6875000D02*
X18146248Y-10875000D01*
X17646248Y-6375000D02*
G75*
G02*
X18146250Y-6875000I2J-500000D01*
G01*
X13146248Y-6875000D02*
G75*
G02*
X13646248Y-6374998I500002J0D01*
G01*
X13146248Y-10875000D02*
X13146248Y-6875000D01*
X17646248Y-11375000D02*
X13646248Y-11375000D01*
D11*
D12*
X13311500Y-6751500D02*
X13331500Y-6771500D01*
X13331500Y-6751500D02*
X13311500Y-6771500D01*
X13311500Y-7005500D02*
X13331500Y-7025500D01*
X13331500Y-7005500D02*
X13311500Y-7025500D01*
X13311500Y-7259500D02*
X13331500Y-7279500D01*
X13331500Y-7259500D02*
X13311500Y-7279500D01*
X13311500Y-7513500D02*
X13331500Y-7533500D01*
X13331500Y-7513500D02*
X13311500Y-7533500D01*
X13311500Y-8275500D02*
X13331500Y-8295500D01*
X13331500Y-8275500D02*
X13311500Y-8295500D01*
X13311500Y-9799500D02*
X13331500Y-9819500D01*
X13331500Y-9799500D02*
X13311500Y-9819500D01*
X13311500Y-10561500D02*
X13331500Y-10581500D01*
X13331500Y-10561500D02*
X13311500Y-10581500D01*
X13311500Y-10815500D02*
X13331500Y-10835500D01*
X13331500Y-10815500D02*
X13311500Y-10835500D01*
X13565500Y-6497500D02*
X13585500Y-6517500D01*
X13585500Y-6497500D02*
X13565500Y-6517500D01*
X13565500Y-7259500D02*
X13585500Y-7279500D01*
X13585500Y-7259500D02*
X13565500Y-7279500D01*
X13565500Y-10307500D02*
X13585500Y-10327500D01*
X13585500Y-10307500D02*
X13565500Y-10327500D01*
X13565500Y-10561500D02*
X13585500Y-10581500D01*
X13585500Y-10561500D02*
X13565500Y-10581500D01*
X13565500Y-11069500D02*
X13585500Y-11089500D01*
X13585500Y-11069500D02*
X13565500Y-11089500D01*
X13670000Y-9515000D02*
X13690000Y-9535000D01*
X13690000Y-9515000D02*
X13670000Y-9535000D01*
X13737500Y-9547500D02*
X13757500Y-9567500D01*
X13757500Y-9547500D02*
X13737500Y-9567500D01*
X13819500Y-6497500D02*
X13839500Y-6517500D01*
X13839500Y-6497500D02*
X13819500Y-6517500D01*
X13819500Y-6751500D02*
X13839500Y-6771500D01*
X13839500Y-6751500D02*
X13819500Y-6771500D01*
X13819500Y-7005500D02*
X13839500Y-7025500D01*
X13839500Y-7005500D02*
X13819500Y-7025500D01*
X13819500Y-7259500D02*
X13839500Y-7279500D01*
X13839500Y-7259500D02*
X13819500Y-7279500D01*
X13819500Y-10815500D02*
X13839500Y-10835500D01*
X13839500Y-10815500D02*
X13819500Y-10835500D01*
X13819500Y-11069500D02*
X13839500Y-11089500D01*
X13839500Y-11069500D02*
X13819500Y-11089500D01*
X13840000Y-9530000D02*
X13860000Y-9550000D01*
X13860000Y-9530000D02*
X13840000Y-9550000D01*
X13892500Y-9495000D02*
X13912500Y-9515000D01*
X13912500Y-9495000D02*
X13892500Y-9515000D01*
X13962500Y-9377500D02*
X13982500Y-9397500D01*
X13982500Y-9377500D02*
X13962500Y-9397500D01*
X13987500Y-9427500D02*
X14007500Y-9447500D01*
X14007500Y-9427500D02*
X13987500Y-9447500D01*
X14040000Y-9654000D02*
X14060000Y-9674000D01*
X14060000Y-9654000D02*
X14040000Y-9674000D01*
X14050000Y-9710000D02*
X14070000Y-9730000D01*
X14070000Y-9710000D02*
X14050000Y-9730000D01*
X14073500Y-6497500D02*
X14093500Y-6517500D01*
X14093500Y-6497500D02*
X14073500Y-6517500D01*
X14073500Y-6751500D02*
X14093500Y-6771500D01*
X14093500Y-6751500D02*
X14073500Y-6771500D01*
X14073500Y-7005500D02*
X14093500Y-7025500D01*
X14093500Y-7005500D02*
X14073500Y-7025500D01*
X14073500Y-10815500D02*
X14093500Y-10835500D01*
X14093500Y-10815500D02*
X14073500Y-10835500D01*
X14073500Y-11069500D02*
X14093500Y-11089500D01*
X14093500Y-11069500D02*
X14073500Y-11089500D01*
X14080000Y-9510000D02*
X14100000Y-9530000D01*
X14100000Y-9510000D02*
X14080000Y-9530000D01*
X14087361Y-9569722D02*
X14107361Y-9589722D01*
X14107361Y-9569722D02*
X14087361Y-9589722D01*
X14130000Y-8970000D02*
X14150000Y-8990000D01*
X14150000Y-8970000D02*
X14130000Y-8990000D01*
X14165000Y-9025000D02*
X14185000Y-9045000D01*
X14185000Y-9025000D02*
X14165000Y-9045000D01*
X14212500Y-8685000D02*
X14232500Y-8705000D01*
X14232500Y-8685000D02*
X14212500Y-8705000D01*
X14227500Y-8755000D02*
X14247500Y-8775000D01*
X14247500Y-8755000D02*
X14227500Y-8775000D01*
X14247500Y-9065000D02*
X14267500Y-9085000D01*
X14267500Y-9065000D02*
X14247500Y-9085000D01*
X14250000Y-9015000D02*
X14270000Y-9035000D01*
X14270000Y-9015000D02*
X14250000Y-9035000D01*
X14270000Y-9142500D02*
X14290000Y-9162500D01*
X14290000Y-9142500D02*
X14270000Y-9162500D01*
X14280000Y-8727500D02*
X14300000Y-8747500D01*
X14300000Y-8727500D02*
X14280000Y-8747500D01*
X14312500Y-9180000D02*
X14332500Y-9200000D01*
X14332500Y-9180000D02*
X14312500Y-9200000D01*
X14327500Y-6497500D02*
X14347500Y-6517500D01*
X14347500Y-6497500D02*
X14327500Y-6517500D01*
X14327500Y-6751500D02*
X14347500Y-6771500D01*
X14347500Y-6751500D02*
X14327500Y-6771500D01*
X14327500Y-7005500D02*
X14347500Y-7025500D01*
X14347500Y-7005500D02*
X14327500Y-7025500D01*
X14340000Y-8612500D02*
X14360000Y-8632500D01*
X14360000Y-8612500D02*
X14340000Y-8632500D01*
X14350000Y-9270000D02*
X14370000Y-9290000D01*
X14370000Y-9270000D02*
X14350000Y-9290000D01*
X14395000Y-9315000D02*
X14415000Y-9335000D01*
X14415000Y-9315000D02*
X14395000Y-9335000D01*
X14581500Y-6497500D02*
X14601500Y-6517500D01*
X14601500Y-6497500D02*
X14581500Y-6517500D01*
X14581500Y-6751500D02*
X14601500Y-6771500D01*
X14601500Y-6751500D02*
X14581500Y-6771500D01*
X14581500Y-7005500D02*
X14601500Y-7025500D01*
X14601500Y-7005500D02*
X14581500Y-7025500D01*
X14725000Y-9652500D02*
X14745000Y-9672500D01*
X14745000Y-9652500D02*
X14725000Y-9672500D01*
X14790000Y-9452500D02*
X14810000Y-9472500D01*
X14810000Y-9452500D02*
X14790000Y-9472500D01*
X14835500Y-6497500D02*
X14855500Y-6517500D01*
X14855500Y-6497500D02*
X14835500Y-6517500D01*
X14835500Y-6751500D02*
X14855500Y-6771500D01*
X14855500Y-6751500D02*
X14835500Y-6771500D01*
X14835500Y-7005500D02*
X14855500Y-7025500D01*
X14855500Y-7005500D02*
X14835500Y-7025500D01*
X14845000Y-9447500D02*
X14865000Y-9467500D01*
X14865000Y-9447500D02*
X14845000Y-9467500D01*
X14897500Y-8177500D02*
X14917500Y-8197500D01*
X14917500Y-8177500D02*
X14897500Y-8197500D01*
X14917500Y-8702500D02*
X14937500Y-8722500D01*
X14937500Y-8702500D02*
X14917500Y-8722500D01*
X14965000Y-8667500D02*
X14985000Y-8687500D01*
X14985000Y-8667500D02*
X14965000Y-8687500D01*
X15020000Y-9607500D02*
X15040000Y-9627500D01*
X15040000Y-9607500D02*
X15020000Y-9627500D01*
X15035000Y-9550000D02*
X15055000Y-9570000D01*
X15055000Y-9550000D02*
X15035000Y-9570000D01*
X15065000Y-9435000D02*
X15085000Y-9455000D01*
X15085000Y-9435000D02*
X15065000Y-9455000D01*
X15082500Y-9377500D02*
X15102500Y-9397500D01*
X15102500Y-9377500D02*
X15082500Y-9397500D01*
X15089500Y-6497500D02*
X15109500Y-6517500D01*
X15109500Y-6497500D02*
X15089500Y-6517500D01*
X15089500Y-6751500D02*
X15109500Y-6771500D01*
X15109500Y-6751500D02*
X15089500Y-6771500D01*
X15089500Y-7005500D02*
X15109500Y-7025500D01*
X15109500Y-7005500D02*
X15089500Y-7025500D01*
X15089500Y-7259500D02*
X15109500Y-7279500D01*
X15109500Y-7259500D02*
X15089500Y-7279500D01*
X15089500Y-7513500D02*
X15109500Y-7533500D01*
X15109500Y-7513500D02*
X15089500Y-7533500D01*
X15089500Y-10307500D02*
X15109500Y-10327500D01*
X15109500Y-10307500D02*
X15089500Y-10327500D01*
X15102500Y-9500000D02*
X15122500Y-9520000D01*
X15122500Y-9500000D02*
X15102500Y-9520000D01*
X15152500Y-9525000D02*
X15172500Y-9545000D01*
X15172500Y-9525000D02*
X15152500Y-9545000D01*
X15165000Y-10037500D02*
X15185000Y-10057500D01*
X15185000Y-10037500D02*
X15165000Y-10057500D01*
X15167500Y-9972500D02*
X15187500Y-9992500D01*
X15187500Y-9972500D02*
X15167500Y-9992500D01*
X15305000Y-9930000D02*
X15325000Y-9950000D01*
X15325000Y-9930000D02*
X15305000Y-9950000D01*
X15343500Y-6497500D02*
X15363500Y-6517500D01*
X15363500Y-6497500D02*
X15343500Y-6517500D01*
X15343500Y-7259500D02*
X15363500Y-7279500D01*
X15363500Y-7259500D02*
X15343500Y-7279500D01*
X15343500Y-9037500D02*
X15363500Y-9057500D01*
X15363500Y-9037500D02*
X15343500Y-9057500D01*
X15343500Y-9291500D02*
X15363500Y-9311500D01*
X15363500Y-9291500D02*
X15343500Y-9311500D01*
X15343500Y-11069500D02*
X15363500Y-11089500D01*
X15363500Y-11069500D02*
X15343500Y-11089500D01*
X15395000Y-9755000D02*
X15415000Y-9775000D01*
X15415000Y-9755000D02*
X15395000Y-9775000D01*
X15415000Y-9825000D02*
X15435000Y-9845000D01*
X15435000Y-9825000D02*
X15415000Y-9845000D01*
X15527500Y-9025000D02*
X15547500Y-9045000D01*
X15547500Y-9025000D02*
X15527500Y-9045000D01*
X15597500Y-11069500D02*
X15617500Y-11089500D01*
X15617500Y-11069500D02*
X15597500Y-11089500D01*
X15627500Y-9647500D02*
X15647500Y-9667500D01*
X15647500Y-9647500D02*
X15627500Y-9667500D01*
X15630000Y-9500000D02*
X15650000Y-9520000D01*
X15650000Y-9500000D02*
X15630000Y-9520000D01*
X15630000Y-9570000D02*
X15650000Y-9590000D01*
X15650000Y-9570000D02*
X15630000Y-9590000D01*
X15740000Y-9857500D02*
X15760000Y-9877500D01*
X15760000Y-9857500D02*
X15740000Y-9877500D01*
X15770000Y-9742500D02*
X15790000Y-9762500D01*
X15790000Y-9742500D02*
X15770000Y-9762500D01*
X15792500Y-8952500D02*
X15812500Y-8972500D01*
X15812500Y-8952500D02*
X15792500Y-8972500D01*
X15851500Y-11069500D02*
X15871500Y-11089500D01*
X15871500Y-11069500D02*
X15851500Y-11089500D01*
X15862500Y-9957500D02*
X15882500Y-9977500D01*
X15882500Y-9957500D02*
X15862500Y-9977500D01*
X16032500Y-9802500D02*
X16052500Y-9822500D01*
X16052500Y-9802500D02*
X16032500Y-9822500D01*
X16105500Y-7767500D02*
X16125500Y-7787500D01*
X16125500Y-7767500D02*
X16105500Y-7787500D01*
X16105500Y-8021500D02*
X16125500Y-8041500D01*
X16125500Y-8021500D02*
X16105500Y-8041500D01*
X16220000Y-9020000D02*
X16240000Y-9040000D01*
X16240000Y-9020000D02*
X16220000Y-9040000D01*
X16240000Y-9220000D02*
X16260000Y-9240000D01*
X16260000Y-9220000D02*
X16240000Y-9240000D01*
X16260000Y-9280000D02*
X16280000Y-9300000D01*
X16280000Y-9280000D02*
X16260000Y-9300000D01*
X16270000Y-9000000D02*
X16290000Y-9020000D01*
X16290000Y-9000000D02*
X16270000Y-9020000D01*
X16290000Y-9050000D02*
X16310000Y-9070000D01*
X16310000Y-9050000D02*
X16290000Y-9070000D01*
X16290000Y-9150000D02*
X16310000Y-9170000D01*
X16310000Y-9150000D02*
X16290000Y-9170000D01*
X16300000Y-9100000D02*
X16320000Y-9120000D01*
X16320000Y-9100000D02*
X16300000Y-9120000D01*
X16342500Y-9787500D02*
X16362500Y-9807500D01*
X16362500Y-9787500D02*
X16342500Y-9807500D01*
X16350000Y-9040000D02*
X16370000Y-9060000D01*
X16370000Y-9040000D02*
X16350000Y-9060000D01*
X16359500Y-6497500D02*
X16379500Y-6517500D01*
X16379500Y-6497500D02*
X16359500Y-6517500D01*
X16359500Y-6751500D02*
X16379500Y-6771500D01*
X16379500Y-6751500D02*
X16359500Y-6771500D01*
X16359500Y-7259500D02*
X16379500Y-7279500D01*
X16379500Y-7259500D02*
X16359500Y-7279500D01*
X16359500Y-7513500D02*
X16379500Y-7533500D01*
X16379500Y-7513500D02*
X16359500Y-7533500D01*
X16359500Y-7767500D02*
X16379500Y-7787500D01*
X16379500Y-7767500D02*
X16359500Y-7787500D01*
X16359500Y-8021500D02*
X16379500Y-8041500D01*
X16379500Y-8021500D02*
X16359500Y-8041500D01*
X16359500Y-8529500D02*
X16379500Y-8549500D01*
X16379500Y-8529500D02*
X16359500Y-8549500D01*
X16359500Y-10307500D02*
X16379500Y-10327500D01*
X16379500Y-10307500D02*
X16359500Y-10327500D01*
X16359500Y-10561500D02*
X16379500Y-10581500D01*
X16379500Y-10561500D02*
X16359500Y-10581500D01*
X16359500Y-10815500D02*
X16379500Y-10835500D01*
X16379500Y-10815500D02*
X16359500Y-10835500D01*
X16359500Y-11069500D02*
X16379500Y-11089500D01*
X16379500Y-11069500D02*
X16359500Y-11089500D01*
X16430000Y-9320000D02*
X16450000Y-9340000D01*
X16450000Y-9320000D02*
X16430000Y-9340000D01*
X16460000Y-8145000D02*
X16480000Y-8165000D01*
X16480000Y-8145000D02*
X16460000Y-8165000D01*
X16470000Y-9280000D02*
X16490000Y-9300000D01*
X16490000Y-9280000D02*
X16470000Y-9300000D01*
X16500000Y-8780000D02*
X16520000Y-8800000D01*
X16520000Y-8780000D02*
X16500000Y-8800000D01*
X16502500Y-8190000D02*
X16522500Y-8210000D01*
X16522500Y-8190000D02*
X16502500Y-8210000D01*
X16530000Y-8830000D02*
X16550000Y-8850000D01*
X16550000Y-8830000D02*
X16530000Y-8850000D01*
X16562500Y-8255000D02*
X16582500Y-8275000D01*
X16582500Y-8255000D02*
X16562500Y-8275000D01*
X16570000Y-9270000D02*
X16590000Y-9290000D01*
X16590000Y-9270000D02*
X16570000Y-9290000D01*
X16575000Y-8342500D02*
X16595000Y-8362500D01*
X16595000Y-8342500D02*
X16575000Y-8362500D01*
X16580000Y-8197500D02*
X16600000Y-8217500D01*
X16600000Y-8197500D02*
X16580000Y-8217500D01*
X16585000Y-8437500D02*
X16605000Y-8457500D01*
X16605000Y-8437500D02*
X16585000Y-8457500D01*
X16613500Y-6497500D02*
X16633500Y-6517500D01*
X16633500Y-6497500D02*
X16613500Y-6517500D01*
X16613500Y-6751500D02*
X16633500Y-6771500D01*
X16633500Y-6751500D02*
X16613500Y-6771500D01*
X16613500Y-7005500D02*
X16633500Y-7025500D01*
X16633500Y-7005500D02*
X16613500Y-7025500D01*
X16613500Y-11069500D02*
X16633500Y-11089500D01*
X16633500Y-11069500D02*
X16613500Y-11089500D01*
X16617500Y-8490000D02*
X16637500Y-8510000D01*
X16637500Y-8490000D02*
X16617500Y-8510000D01*
X16620000Y-8302500D02*
X16640000Y-8322500D01*
X16640000Y-8302500D02*
X16620000Y-8322500D01*
X16867500Y-6497500D02*
X16887500Y-6517500D01*
X16887500Y-6497500D02*
X16867500Y-6517500D01*
X16867500Y-6751500D02*
X16887500Y-6771500D01*
X16887500Y-6751500D02*
X16867500Y-6771500D01*
X16867500Y-7005500D02*
X16887500Y-7025500D01*
X16887500Y-7005500D02*
X16867500Y-7025500D01*
X16867500Y-8529500D02*
X16887500Y-8549500D01*
X16887500Y-8529500D02*
X16867500Y-8549500D01*
X16867500Y-8783500D02*
X16887500Y-8803500D01*
X16887500Y-8783500D02*
X16867500Y-8803500D01*
X16867500Y-9291500D02*
X16887500Y-9311500D01*
X16887500Y-9291500D02*
X16867500Y-9311500D01*
X16867500Y-11069500D02*
X16887500Y-11089500D01*
X16887500Y-11069500D02*
X16867500Y-11089500D01*
X17121500Y-6497500D02*
X17141500Y-6517500D01*
X17141500Y-6497500D02*
X17121500Y-6517500D01*
X17121500Y-6751500D02*
X17141500Y-6771500D01*
X17141500Y-6751500D02*
X17121500Y-6771500D01*
X17121500Y-7005500D02*
X17141500Y-7025500D01*
X17141500Y-7005500D02*
X17121500Y-7025500D01*
X17121500Y-8529500D02*
X17141500Y-8549500D01*
X17141500Y-8529500D02*
X17121500Y-8549500D01*
X17121500Y-9291500D02*
X17141500Y-9311500D01*
X17141500Y-9291500D02*
X17121500Y-9311500D01*
X17121500Y-11069500D02*
X17141500Y-11089500D01*
X17141500Y-11069500D02*
X17121500Y-11089500D01*
X17375500Y-6497500D02*
X17395500Y-6517500D01*
X17395500Y-6497500D02*
X17375500Y-6517500D01*
X17375500Y-6751500D02*
X17395500Y-6771500D01*
X17395500Y-6751500D02*
X17375500Y-6771500D01*
X17375500Y-7005500D02*
X17395500Y-7025500D01*
X17395500Y-7005500D02*
X17375500Y-7025500D01*
X17375500Y-8275500D02*
X17395500Y-8295500D01*
X17395500Y-8275500D02*
X17375500Y-8295500D01*
X17375500Y-9291500D02*
X17395500Y-9311500D01*
X17395500Y-9291500D02*
X17375500Y-9311500D01*
X17375500Y-10815500D02*
X17395500Y-10835500D01*
X17395500Y-10815500D02*
X17375500Y-10835500D01*
X17375500Y-11069500D02*
X17395500Y-11089500D01*
X17395500Y-11069500D02*
X17375500Y-11089500D01*
X17629500Y-6497500D02*
X17649500Y-6517500D01*
X17649500Y-6497500D02*
X17629500Y-6517500D01*
X17629500Y-7259500D02*
X17649500Y-7279500D01*
X17649500Y-7259500D02*
X17629500Y-7279500D01*
X17629500Y-9291500D02*
X17649500Y-9311500D01*
X17649500Y-9291500D02*
X17629500Y-9311500D01*
X17629500Y-11069500D02*
X17649500Y-11089500D01*
X17649500Y-11069500D02*
X17629500Y-11089500D01*
X17850000Y-8530000D02*
X17870000Y-8550000D01*
X17870000Y-8530000D02*
X17850000Y-8550000D01*
X17860000Y-8730000D02*
X17880000Y-8750000D01*
X17880000Y-8730000D02*
X17860000Y-8750000D01*
X17883500Y-6751500D02*
X17903500Y-6771500D01*
X17903500Y-6751500D02*
X17883500Y-6771500D01*
X17883500Y-7005500D02*
X17903500Y-7025500D01*
X17903500Y-7005500D02*
X17883500Y-7025500D01*
X17883500Y-7259500D02*
X17903500Y-7279500D01*
X17903500Y-7259500D02*
X17883500Y-7279500D01*
X17883500Y-9291500D02*
X17903500Y-9311500D01*
X17903500Y-9291500D02*
X17883500Y-9311500D01*
X17883500Y-10307500D02*
X17903500Y-10327500D01*
X17903500Y-10307500D02*
X17883500Y-10327500D01*
X17883500Y-10561500D02*
X17903500Y-10581500D01*
X17903500Y-10561500D02*
X17883500Y-10581500D01*
X17883500Y-10815500D02*
X17903500Y-10835500D01*
X17903500Y-10815500D02*
X17883500Y-10835500D01*
X13295000Y-7990000D02*
G75*
G02*
X13265000Y-7990000I-15000J0D01*
G01*
X13265000Y-7990000D02*
G75*
G02*
X13295000Y-7990000I15000J0D01*
G01*
X13365000Y-7940000D02*
G75*
G02*
X13335000Y-7940000I-15000J0D01*
G01*
X13335000Y-7940000D02*
G75*
G02*
X13365000Y-7940000I15000J0D01*
G01*
X13420000Y-8695000D02*
G75*
G02*
X13390000Y-8695000I-15000J0D01*
G01*
X13390000Y-8695000D02*
G75*
G02*
X13420000Y-8695000I15000J0D01*
G01*
X13430000Y-9025000D02*
G75*
G02*
X13400000Y-9025000I-15000J0D01*
G01*
X13400000Y-9025000D02*
G75*
G02*
X13430000Y-9025000I15000J0D01*
G01*
X13435000Y-10005000D02*
G75*
G02*
X13405000Y-10005000I-15000J0D01*
G01*
X13405000Y-10005000D02*
G75*
G02*
X13435000Y-10005000I15000J0D01*
G01*
X13445000Y-9670000D02*
G75*
G02*
X13415000Y-9670000I-15000J0D01*
G01*
X13415000Y-9670000D02*
G75*
G02*
X13445000Y-9670000I15000J0D01*
G01*
X13455000Y-7710000D02*
G75*
G02*
X13425000Y-7710000I-15000J0D01*
G01*
X13425000Y-7710000D02*
G75*
G02*
X13455000Y-7710000I15000J0D01*
G01*
X13475000Y-8370000D02*
G75*
G02*
X13445000Y-8370000I-15000J0D01*
G01*
X13445000Y-8370000D02*
G75*
G02*
X13475000Y-8370000I15000J0D01*
G01*
X13515000Y-7760000D02*
G75*
G02*
X13485000Y-7760000I-15000J0D01*
G01*
X13485000Y-7760000D02*
G75*
G02*
X13515000Y-7760000I15000J0D01*
G01*
X13545000Y-8410000D02*
G75*
G02*
X13515000Y-8410000I-15000J0D01*
G01*
X13515000Y-8410000D02*
G75*
G02*
X13545000Y-8410000I15000J0D01*
G01*
X13605000Y-7850000D02*
G75*
G02*
X13575000Y-7850000I-15000J0D01*
G01*
X13575000Y-7850000D02*
G75*
G02*
X13605000Y-7850000I15000J0D01*
G01*
X13625000Y-8400000D02*
G75*
G02*
X13595000Y-8400000I-15000J0D01*
G01*
X13595000Y-8400000D02*
G75*
G02*
X13625000Y-8400000I15000J0D01*
G01*
X13695000Y-8340000D02*
G75*
G02*
X13665000Y-8340000I-15000J0D01*
G01*
X13665000Y-8340000D02*
G75*
G02*
X13695000Y-8340000I15000J0D01*
G01*
X13695000Y-9372500D02*
G75*
G02*
X13665000Y-9372500I-15000J0D01*
G01*
X13665000Y-9372500D02*
G75*
G02*
X13695000Y-9372500I15000J0D01*
G01*
X13760000Y-8770000D02*
G75*
G02*
X13730000Y-8770000I-15000J0D01*
G01*
X13730000Y-8770000D02*
G75*
G02*
X13760000Y-8770000I15000J0D01*
G01*
X13805000Y-8885000D02*
G75*
G02*
X13775000Y-8885000I-15000J0D01*
G01*
X13775000Y-8885000D02*
G75*
G02*
X13805000Y-8885000I15000J0D01*
G01*
X13905000Y-8210000D02*
G75*
G02*
X13875000Y-8210000I-15000J0D01*
G01*
X13875000Y-8210000D02*
G75*
G02*
X13905000Y-8210000I15000J0D01*
G01*
X13965000Y-8280000D02*
G75*
G02*
X13935000Y-8280000I-15000J0D01*
G01*
X13935000Y-8280000D02*
G75*
G02*
X13965000Y-8280000I15000J0D01*
G01*
X14025000Y-8350000D02*
G75*
G02*
X13995000Y-8350000I-15000J0D01*
G01*
X13995000Y-8350000D02*
G75*
G02*
X14025000Y-8350000I15000J0D01*
G01*
X14055000Y-8130000D02*
G75*
G02*
X14025000Y-8130000I-15000J0D01*
G01*
X14025000Y-8130000D02*
G75*
G02*
X14055000Y-8130000I15000J0D01*
G01*
X14085000Y-8410000D02*
G75*
G02*
X14055000Y-8410000I-15000J0D01*
G01*
X14055000Y-8410000D02*
G75*
G02*
X14085000Y-8410000I15000J0D01*
G01*
X14125000Y-7565000D02*
G75*
G02*
X14095000Y-7565000I-15000J0D01*
G01*
X14095000Y-7565000D02*
G75*
G02*
X14125000Y-7565000I15000J0D01*
G01*
X14175000Y-8020000D02*
G75*
G02*
X14145000Y-8020000I-15000J0D01*
G01*
X14145000Y-8020000D02*
G75*
G02*
X14175000Y-8020000I15000J0D01*
G01*
X14235000Y-11090000D02*
G75*
G02*
X14205000Y-11090000I-15000J0D01*
G01*
X14205000Y-11090000D02*
G75*
G02*
X14235000Y-11090000I15000J0D01*
G01*
X14245000Y-10990000D02*
G75*
G02*
X14215000Y-10990000I-15000J0D01*
G01*
X14215000Y-10990000D02*
G75*
G02*
X14245000Y-10990000I15000J0D01*
G01*
X14275000Y-8832500D02*
G75*
G02*
X14245000Y-8832500I-15000J0D01*
G01*
X14245000Y-8832500D02*
G75*
G02*
X14275000Y-8832500I15000J0D01*
G01*
X14285000Y-7580000D02*
G75*
G02*
X14255000Y-7580000I-15000J0D01*
G01*
X14255000Y-7580000D02*
G75*
G02*
X14285000Y-7580000I15000J0D01*
G01*
X14305000Y-10760000D02*
G75*
G02*
X14275000Y-10760000I-15000J0D01*
G01*
X14275000Y-10760000D02*
G75*
G02*
X14305000Y-10760000I15000J0D01*
G01*
X14325000Y-10170000D02*
G75*
G02*
X14295000Y-10170000I-15000J0D01*
G01*
X14295000Y-10170000D02*
G75*
G02*
X14325000Y-10170000I15000J0D01*
G01*
X14395000Y-10760000D02*
G75*
G02*
X14365000Y-10760000I-15000J0D01*
G01*
X14365000Y-10760000D02*
G75*
G02*
X14395000Y-10760000I15000J0D01*
G01*
X14407500Y-8565000D02*
G75*
G02*
X14377500Y-8565000I-15000J0D01*
G01*
X14377500Y-8565000D02*
G75*
G02*
X14407500Y-8565000I15000J0D01*
G01*
X14495000Y-10160000D02*
G75*
G02*
X14465000Y-10160000I-15000J0D01*
G01*
X14465000Y-10160000D02*
G75*
G02*
X14495000Y-10160000I15000J0D01*
G01*
X14505000Y-9410000D02*
G75*
G02*
X14475000Y-9410000I-15000J0D01*
G01*
X14475000Y-9410000D02*
G75*
G02*
X14505000Y-9410000I15000J0D01*
G01*
X14525000Y-7585000D02*
G75*
G02*
X14495000Y-7585000I-15000J0D01*
G01*
X14495000Y-7585000D02*
G75*
G02*
X14525000Y-7585000I15000J0D01*
G01*
X14532500Y-8565000D02*
G75*
G02*
X14502500Y-8565000I-15000J0D01*
G01*
X14502500Y-8565000D02*
G75*
G02*
X14532500Y-8565000I15000J0D01*
G01*
X14532500Y-8670000D02*
G75*
G02*
X14502500Y-8670000I-15000J0D01*
G01*
X14502500Y-8670000D02*
G75*
G02*
X14532500Y-8670000I15000J0D01*
G01*
X14585000Y-9390000D02*
G75*
G02*
X14555000Y-9390000I-15000J0D01*
G01*
X14555000Y-9390000D02*
G75*
G02*
X14585000Y-9390000I15000J0D01*
G01*
X14595000Y-9470000D02*
G75*
G02*
X14565000Y-9470000I-15000J0D01*
G01*
X14565000Y-9470000D02*
G75*
G02*
X14595000Y-9470000I15000J0D01*
G01*
X14605000Y-8730000D02*
G75*
G02*
X14575000Y-8730000I-15000J0D01*
G01*
X14575000Y-8730000D02*
G75*
G02*
X14605000Y-8730000I15000J0D01*
G01*
X14665000Y-9530000D02*
G75*
G02*
X14635000Y-9530000I-15000J0D01*
G01*
X14635000Y-9530000D02*
G75*
G02*
X14665000Y-9530000I15000J0D01*
G01*
X14675000Y-9445000D02*
G75*
G02*
X14645000Y-9445000I-15000J0D01*
G01*
X14645000Y-9445000D02*
G75*
G02*
X14675000Y-9445000I15000J0D01*
G01*
X14695000Y-8935000D02*
G75*
G02*
X14665000Y-8935000I-15000J0D01*
G01*
X14665000Y-8935000D02*
G75*
G02*
X14695000Y-8935000I15000J0D01*
G01*
X14747500Y-9517500D02*
G75*
G02*
X14717500Y-9517500I-15000J0D01*
G01*
X14717500Y-9517500D02*
G75*
G02*
X14747500Y-9517500I15000J0D01*
G01*
X14775000Y-7590000D02*
G75*
G02*
X14745000Y-7590000I-15000J0D01*
G01*
X14745000Y-7590000D02*
G75*
G02*
X14775000Y-7590000I15000J0D01*
G01*
X14785000Y-10110000D02*
G75*
G02*
X14755000Y-10110000I-15000J0D01*
G01*
X14755000Y-10110000D02*
G75*
G02*
X14785000Y-10110000I15000J0D01*
G01*
X14810000Y-8802500D02*
G75*
G02*
X14780000Y-8802500I-15000J0D01*
G01*
X14780000Y-8802500D02*
G75*
G02*
X14810000Y-8802500I15000J0D01*
G01*
X14812500Y-9585000D02*
G75*
G02*
X14782500Y-9585000I-15000J0D01*
G01*
X14782500Y-9585000D02*
G75*
G02*
X14812500Y-9585000I15000J0D01*
G01*
X14845000Y-10160000D02*
G75*
G02*
X14815000Y-10160000I-15000J0D01*
G01*
X14815000Y-10160000D02*
G75*
G02*
X14845000Y-10160000I15000J0D01*
G01*
X14890000Y-8960000D02*
G75*
G02*
X14860000Y-8960000I-15000J0D01*
G01*
X14860000Y-8960000D02*
G75*
G02*
X14890000Y-8960000I15000J0D01*
G01*
X14890000Y-9585000D02*
G75*
G02*
X14860000Y-9585000I-15000J0D01*
G01*
X14860000Y-9585000D02*
G75*
G02*
X14890000Y-9585000I15000J0D01*
G01*
X14905000Y-10970000D02*
G75*
G02*
X14875000Y-10970000I-15000J0D01*
G01*
X14875000Y-10970000D02*
G75*
G02*
X14905000Y-10970000I15000J0D01*
G01*
X14930000Y-9110000D02*
G75*
G02*
X14900000Y-9110000I-15000J0D01*
G01*
X14900000Y-9110000D02*
G75*
G02*
X14930000Y-9110000I15000J0D01*
G01*
X14965000Y-11210000D02*
G75*
G02*
X14935000Y-11210000I-15000J0D01*
G01*
X14935000Y-11210000D02*
G75*
G02*
X14965000Y-11210000I15000J0D01*
G01*
X15055000Y-11210000D02*
G75*
G02*
X15025000Y-11210000I-15000J0D01*
G01*
X15025000Y-11210000D02*
G75*
G02*
X15055000Y-11210000I15000J0D01*
G01*
X15070000Y-8982500D02*
G75*
G02*
X15040000Y-8982500I-15000J0D01*
G01*
X15040000Y-8982500D02*
G75*
G02*
X15070000Y-8982500I15000J0D01*
G01*
X15210000Y-10450000D02*
G75*
G02*
X15180000Y-10450000I-15000J0D01*
G01*
X15180000Y-10450000D02*
G75*
G02*
X15210000Y-10450000I15000J0D01*
G01*
X15265000Y-7520000D02*
G75*
G02*
X15235000Y-7520000I-15000J0D01*
G01*
X15235000Y-7520000D02*
G75*
G02*
X15265000Y-7520000I15000J0D01*
G01*
X15290000Y-8820000D02*
G75*
G02*
X15260000Y-8820000I-15000J0D01*
G01*
X15260000Y-8820000D02*
G75*
G02*
X15290000Y-8820000I15000J0D01*
G01*
X15310000Y-10380000D02*
G75*
G02*
X15280000Y-10380000I-15000J0D01*
G01*
X15280000Y-10380000D02*
G75*
G02*
X15310000Y-10380000I15000J0D01*
G01*
X15335000Y-7580000D02*
G75*
G02*
X15305000Y-7580000I-15000J0D01*
G01*
X15305000Y-7580000D02*
G75*
G02*
X15335000Y-7580000I15000J0D01*
G01*
X15342500Y-7467500D02*
G75*
G02*
X15312500Y-7467500I-15000J0D01*
G01*
X15312500Y-7467500D02*
G75*
G02*
X15342500Y-7467500I15000J0D01*
G01*
X15380000Y-6700000D02*
G75*
G02*
X15350000Y-6700000I-15000J0D01*
G01*
X15350000Y-6700000D02*
G75*
G02*
X15380000Y-6700000I15000J0D01*
G01*
X15435000Y-7670000D02*
G75*
G02*
X15405000Y-7670000I-15000J0D01*
G01*
X15405000Y-7670000D02*
G75*
G02*
X15435000Y-7670000I15000J0D01*
G01*
X15482500Y-6702500D02*
G75*
G02*
X15452500Y-6702500I-15000J0D01*
G01*
X15452500Y-6702500D02*
G75*
G02*
X15482500Y-6702500I15000J0D01*
G01*
X15485000Y-7760000D02*
G75*
G02*
X15455000Y-7760000I-15000J0D01*
G01*
X15455000Y-7760000D02*
G75*
G02*
X15485000Y-7760000I15000J0D01*
G01*
X15560000Y-6752500D02*
G75*
G02*
X15530000Y-6752500I-15000J0D01*
G01*
X15530000Y-6752500D02*
G75*
G02*
X15560000Y-6752500I15000J0D01*
G01*
X15595000Y-7690000D02*
G75*
G02*
X15565000Y-7690000I-15000J0D01*
G01*
X15565000Y-7690000D02*
G75*
G02*
X15595000Y-7690000I15000J0D01*
G01*
X15622500Y-9045000D02*
G75*
G02*
X15592500Y-9045000I-15000J0D01*
G01*
X15592500Y-9045000D02*
G75*
G02*
X15622500Y-9045000I15000J0D01*
G01*
X15665000Y-10370000D02*
G75*
G02*
X15635000Y-10370000I-15000J0D01*
G01*
X15635000Y-10370000D02*
G75*
G02*
X15665000Y-10370000I15000J0D01*
G01*
X15675000Y-6750000D02*
G75*
G02*
X15645000Y-6750000I-15000J0D01*
G01*
X15645000Y-6750000D02*
G75*
G02*
X15675000Y-6750000I15000J0D01*
G01*
X15717500Y-7602500D02*
G75*
G02*
X15687500Y-7602500I-15000J0D01*
G01*
X15687500Y-7602500D02*
G75*
G02*
X15717500Y-7602500I15000J0D01*
G01*
X15727500Y-7512500D02*
G75*
G02*
X15697500Y-7512500I-15000J0D01*
G01*
X15697500Y-7512500D02*
G75*
G02*
X15727500Y-7512500I15000J0D01*
G01*
X15745000Y-10750000D02*
G75*
G02*
X15715000Y-10750000I-15000J0D01*
G01*
X15715000Y-10750000D02*
G75*
G02*
X15745000Y-10750000I15000J0D01*
G01*
X15755000Y-8940000D02*
G75*
G02*
X15725000Y-8940000I-15000J0D01*
G01*
X15725000Y-8940000D02*
G75*
G02*
X15755000Y-8940000I15000J0D01*
G01*
X15790000Y-7165000D02*
G75*
G02*
X15760000Y-7165000I-15000J0D01*
G01*
X15760000Y-7165000D02*
G75*
G02*
X15790000Y-7165000I15000J0D01*
G01*
X15797500Y-6752500D02*
G75*
G02*
X15767500Y-6752500I-15000J0D01*
G01*
X15767500Y-6752500D02*
G75*
G02*
X15797500Y-6752500I15000J0D01*
G01*
X15825000Y-7920000D02*
G75*
G02*
X15795000Y-7920000I-15000J0D01*
G01*
X15795000Y-7920000D02*
G75*
G02*
X15825000Y-7920000I15000J0D01*
G01*
X15825000Y-10740000D02*
G75*
G02*
X15795000Y-10740000I-15000J0D01*
G01*
X15795000Y-10740000D02*
G75*
G02*
X15825000Y-10740000I15000J0D01*
G01*
X15907500Y-7187500D02*
G75*
G02*
X15877500Y-7187500I-15000J0D01*
G01*
X15877500Y-7187500D02*
G75*
G02*
X15907500Y-7187500I15000J0D01*
G01*
X15925000Y-6750000D02*
G75*
G02*
X15895000Y-6750000I-15000J0D01*
G01*
X15895000Y-6750000D02*
G75*
G02*
X15925000Y-6750000I15000J0D01*
G01*
X15962500Y-10380000D02*
G75*
G02*
X15932500Y-10380000I-15000J0D01*
G01*
X15932500Y-10380000D02*
G75*
G02*
X15962500Y-10380000I15000J0D01*
G01*
X16005000Y-10010000D02*
G75*
G02*
X15975000Y-10010000I-15000J0D01*
G01*
X15975000Y-10010000D02*
G75*
G02*
X16005000Y-10010000I15000J0D01*
G01*
X16045000Y-6707500D02*
G75*
G02*
X16015000Y-6707500I-15000J0D01*
G01*
X16015000Y-6707500D02*
G75*
G02*
X16045000Y-6707500I15000J0D01*
G01*
X16062500Y-10457500D02*
G75*
G02*
X16032500Y-10457500I-15000J0D01*
G01*
X16032500Y-10457500D02*
G75*
G02*
X16062500Y-10457500I15000J0D01*
G01*
X16075000Y-7477500D02*
G75*
G02*
X16045000Y-7477500I-15000J0D01*
G01*
X16045000Y-7477500D02*
G75*
G02*
X16075000Y-7477500I15000J0D01*
G01*
X16085000Y-9580000D02*
G75*
G02*
X16055000Y-9580000I-15000J0D01*
G01*
X16055000Y-9580000D02*
G75*
G02*
X16085000Y-9580000I15000J0D01*
G01*
X16095000Y-9360000D02*
G75*
G02*
X16065000Y-9360000I-15000J0D01*
G01*
X16065000Y-9360000D02*
G75*
G02*
X16095000Y-9360000I15000J0D01*
G01*
X16095000Y-10010000D02*
G75*
G02*
X16065000Y-10010000I-15000J0D01*
G01*
X16065000Y-10010000D02*
G75*
G02*
X16095000Y-10010000I15000J0D01*
G01*
X16145000Y-9310000D02*
G75*
G02*
X16115000Y-9310000I-15000J0D01*
G01*
X16115000Y-9310000D02*
G75*
G02*
X16145000Y-9310000I15000J0D01*
G01*
X16155000Y-9520000D02*
G75*
G02*
X16125000Y-9520000I-15000J0D01*
G01*
X16125000Y-9520000D02*
G75*
G02*
X16155000Y-9520000I15000J0D01*
G01*
X16185000Y-7480000D02*
G75*
G02*
X16155000Y-7480000I-15000J0D01*
G01*
X16155000Y-7480000D02*
G75*
G02*
X16185000Y-7480000I15000J0D01*
G01*
X16195000Y-10010000D02*
G75*
G02*
X16165000Y-10010000I-15000J0D01*
G01*
X16165000Y-10010000D02*
G75*
G02*
X16195000Y-10010000I15000J0D01*
G01*
X16205000Y-7127500D02*
G75*
G02*
X16175000Y-7127500I-15000J0D01*
G01*
X16175000Y-7127500D02*
G75*
G02*
X16205000Y-7127500I15000J0D01*
G01*
X16205000Y-9260000D02*
G75*
G02*
X16175000Y-9260000I-15000J0D01*
G01*
X16175000Y-9260000D02*
G75*
G02*
X16205000Y-9260000I15000J0D01*
G01*
X16275000Y-10010000D02*
G75*
G02*
X16245000Y-10010000I-15000J0D01*
G01*
X16245000Y-10010000D02*
G75*
G02*
X16275000Y-10010000I15000J0D01*
G01*
X16302500Y-7122500D02*
G75*
G02*
X16272500Y-7122500I-15000J0D01*
G01*
X16272500Y-7122500D02*
G75*
G02*
X16302500Y-7122500I15000J0D01*
G01*
X16532500Y-10817500D02*
G75*
G02*
X16502500Y-10817500I-15000J0D01*
G01*
X16502500Y-10817500D02*
G75*
G02*
X16532500Y-10817500I15000J0D01*
G01*
X16542500Y-10685000D02*
G75*
G02*
X16512500Y-10685000I-15000J0D01*
G01*
X16512500Y-10685000D02*
G75*
G02*
X16542500Y-10685000I15000J0D01*
G01*
X16577500Y-10127500D02*
G75*
G02*
X16547500Y-10127500I-15000J0D01*
G01*
X16547500Y-10127500D02*
G75*
G02*
X16577500Y-10127500I15000J0D01*
G01*
X16807500Y-10692500D02*
G75*
G02*
X16777500Y-10692500I-15000J0D01*
G01*
X16777500Y-10692500D02*
G75*
G02*
X16807500Y-10692500I15000J0D01*
G01*
X16810000Y-10815000D02*
G75*
G02*
X16780000Y-10815000I-15000J0D01*
G01*
X16780000Y-10815000D02*
G75*
G02*
X16810000Y-10815000I15000J0D01*
G01*
X16840000Y-10132500D02*
G75*
G02*
X16810000Y-10132500I-15000J0D01*
G01*
X16810000Y-10132500D02*
G75*
G02*
X16840000Y-10132500I15000J0D01*
G01*
X17050000Y-10700000D02*
G75*
G02*
X17020000Y-10700000I-15000J0D01*
G01*
X17020000Y-10700000D02*
G75*
G02*
X17050000Y-10700000I15000J0D01*
G01*
X17055000Y-10815000D02*
G75*
G02*
X17025000Y-10815000I-15000J0D01*
G01*
X17025000Y-10815000D02*
G75*
G02*
X17055000Y-10815000I15000J0D01*
G01*
X17092500Y-10127500D02*
G75*
G02*
X17062500Y-10127500I-15000J0D01*
G01*
X17062500Y-10127500D02*
G75*
G02*
X17092500Y-10127500I15000J0D01*
G01*
X17250000Y-10815000D02*
G75*
G02*
X17220000Y-10815000I-15000J0D01*
G01*
X17220000Y-10815000D02*
G75*
G02*
X17250000Y-10815000I15000J0D01*
G01*
X17267500Y-10690000D02*
G75*
G02*
X17237500Y-10690000I-15000J0D01*
G01*
X17237500Y-10690000D02*
G75*
G02*
X17267500Y-10690000I15000J0D01*
G01*
X17345000Y-10125000D02*
G75*
G02*
X17315000Y-10125000I-15000J0D01*
G01*
X17315000Y-10125000D02*
G75*
G02*
X17345000Y-10125000I15000J0D01*
G01*
X17515000Y-7980000D02*
G75*
G02*
X17485000Y-7980000I-15000J0D01*
G01*
X17485000Y-7980000D02*
G75*
G02*
X17515000Y-7980000I15000J0D01*
G01*
X17575000Y-7620000D02*
G75*
G02*
X17545000Y-7620000I-15000J0D01*
G01*
X17545000Y-7620000D02*
G75*
G02*
X17575000Y-7620000I15000J0D01*
G01*
X17585000Y-7900000D02*
G75*
G02*
X17555000Y-7900000I-15000J0D01*
G01*
X17555000Y-7900000D02*
G75*
G02*
X17585000Y-7900000I15000J0D01*
G01*
X17595000Y-7730000D02*
G75*
G02*
X17565000Y-7730000I-15000J0D01*
G01*
X17565000Y-7730000D02*
G75*
G02*
X17595000Y-7730000I15000J0D01*
G01*
X17645000Y-8030000D02*
G75*
G02*
X17615000Y-8030000I-15000J0D01*
G01*
X17615000Y-8030000D02*
G75*
G02*
X17645000Y-8030000I15000J0D01*
G01*
X17685000Y-7800000D02*
G75*
G02*
X17655000Y-7800000I-15000J0D01*
G01*
X17655000Y-7800000D02*
G75*
G02*
X17685000Y-7800000I15000J0D01*
G01*
X17705000Y-7630000D02*
G75*
G02*
X17675000Y-7630000I-15000J0D01*
G01*
X17675000Y-7630000D02*
G75*
G02*
X17705000Y-7630000I15000J0D01*
G01*
X17715000Y-7910000D02*
G75*
G02*
X17685000Y-7910000I-15000J0D01*
G01*
X17685000Y-7910000D02*
G75*
G02*
X17715000Y-7910000I15000J0D01*
G01*
X17782500Y-9702500D02*
G75*
G02*
X17752500Y-9702500I-15000J0D01*
G01*
X17752500Y-9702500D02*
G75*
G02*
X17782500Y-9702500I15000J0D01*
G01*
X17782500Y-9872500D02*
G75*
G02*
X17752500Y-9872500I-15000J0D01*
G01*
X17752500Y-9872500D02*
G75*
G02*
X17782500Y-9872500I15000J0D01*
G01*
X17785000Y-10062500D02*
G75*
G02*
X17755000Y-10062500I-15000J0D01*
G01*
X17755000Y-10062500D02*
G75*
G02*
X17785000Y-10062500I15000J0D01*
G01*
X17795000Y-8030000D02*
G75*
G02*
X17765000Y-8030000I-15000J0D01*
G01*
X17765000Y-8030000D02*
G75*
G02*
X17795000Y-8030000I15000J0D01*
G01*
X17805000Y-7780000D02*
G75*
G02*
X17775000Y-7780000I-15000J0D01*
G01*
X17775000Y-7780000D02*
G75*
G02*
X17805000Y-7780000I15000J0D01*
G01*
X17835000Y-7630000D02*
G75*
G02*
X17805000Y-7630000I-15000J0D01*
G01*
X17805000Y-7630000D02*
G75*
G02*
X17835000Y-7630000I15000J0D01*
G01*
X17845000Y-7890000D02*
G75*
G02*
X17815000Y-7890000I-15000J0D01*
G01*
X17815000Y-7890000D02*
G75*
G02*
X17845000Y-7890000I15000J0D01*
G01*
X17935000Y-10052500D02*
G75*
G02*
X17905000Y-10052500I-15000J0D01*
G01*
X17905000Y-10052500D02*
G75*
G02*
X17935000Y-10052500I15000J0D01*
G01*
X17937500Y-9697500D02*
G75*
G02*
X17907500Y-9697500I-15000J0D01*
G01*
X17907500Y-9697500D02*
G75*
G02*
X17937500Y-9697500I15000J0D01*
G01*
X17937500Y-9870000D02*
G75*
G02*
X17907500Y-9870000I-15000J0D01*
G01*
X17907500Y-9870000D02*
G75*
G02*
X17937500Y-9870000I15000J0D01*
G01*
X17955000Y-7640000D02*
G75*
G02*
X17925000Y-7640000I-15000J0D01*
G01*
X17925000Y-7640000D02*
G75*
G02*
X17955000Y-7640000I15000J0D01*
G01*
X17965000Y-7760000D02*
G75*
G02*
X17935000Y-7760000I-15000J0D01*
G01*
X17935000Y-7760000D02*
G75*
G02*
X17965000Y-7760000I15000J0D01*
G01*
X17965000Y-7890000D02*
G75*
G02*
X17935000Y-7890000I-15000J0D01*
G01*
X17935000Y-7890000D02*
G75*
G02*
X17965000Y-7890000I15000J0D01*
G01*
X17965000Y-8030000D02*
G75*
G02*
X17935000Y-8030000I-15000J0D01*
G01*
X17935000Y-8030000D02*
G75*
G02*
X17965000Y-8030000I15000J0D01*
G01*
X15200500Y-10604500D02*
X15200500Y-10664500D01*
X15170500Y-10634500D02*
X15230500Y-10634500D01*
X15170500Y-10579500D02*
X15170500Y-10689500D01*
X15230500Y-10689500D02*
G75*
G02*
X15170500Y-10689500I-30000J0D01*
G01*
X15230500Y-10689500D02*
X15230500Y-10579500D01*
X15230500Y-10579500D02*
G75*
G03*
X15170500Y-10579500I-30000J0D01*
G01*
X15200500Y-11022500D02*
X15200500Y-11082500D01*
X15170500Y-11052500D02*
X15230500Y-11052500D01*
X15170500Y-11022500D02*
X15170500Y-11082500D01*
X15230500Y-11082500D02*
G75*
G02*
X15170500Y-11082500I-30000J0D01*
G01*
X15230500Y-11082500D02*
X15230500Y-11022500D01*
X15230500Y-11022500D02*
G75*
G03*
X15170500Y-11022500I-30000J0D01*
G01*
X16064500Y-10604500D02*
X16064500Y-10664500D01*
X16034500Y-10634500D02*
X16094500Y-10634500D01*
X16034500Y-10579500D02*
X16034500Y-10689500D01*
X16094500Y-10689500D02*
G75*
G02*
X16034500Y-10689500I-30000J0D01*
G01*
X16094500Y-10689500D02*
X16094500Y-10579500D01*
X16094500Y-10579500D02*
G75*
G03*
X16034500Y-10579500I-30000J0D01*
G01*
X16064500Y-11022500D02*
X16064500Y-11082500D01*
X16034500Y-11052500D02*
X16094500Y-11052500D01*
X16034500Y-11022500D02*
X16034500Y-11082500D01*
X16094500Y-11082500D02*
G75*
G02*
X16034500Y-11082500I-30000J0D01*
G01*
X16094500Y-11082500D02*
X16094500Y-11022500D01*
X16094500Y-11022500D02*
G75*
G03*
X16034500Y-11022500I-30000J0D01*
G01*
D11*
X13404525Y-11688984D02*
X13404525Y-11488984D01*
X13404525Y-11488984D02*
X13452144Y-11488984D01*
X13452144Y-11488984D02*
X13480715Y-11498508D01*
X13480715Y-11498508D02*
X13499763Y-11517555D01*
X13499763Y-11517555D02*
X13509287Y-11536603D01*
X13509287Y-11536603D02*
X13518810Y-11574698D01*
X13518810Y-11574698D02*
X13518810Y-11603269D01*
X13518810Y-11603269D02*
X13509287Y-11641365D01*
X13509287Y-11641365D02*
X13499763Y-11660412D01*
X13499763Y-11660412D02*
X13480715Y-11679460D01*
X13480715Y-11679460D02*
X13452144Y-11688984D01*
X13452144Y-11688984D02*
X13404525Y-11688984D01*
X13604525Y-11688984D02*
X13604525Y-11555650D01*
X13604525Y-11593746D02*
X13614048Y-11574698D01*
X13614048Y-11574698D02*
X13623572Y-11565174D01*
X13623572Y-11565174D02*
X13642620Y-11555650D01*
X13642620Y-11555650D02*
X13661668Y-11555650D01*
X13728334Y-11688984D02*
X13728334Y-11555650D01*
X13728334Y-11488984D02*
X13718810Y-11498508D01*
X13718810Y-11498508D02*
X13728334Y-11508031D01*
X13728334Y-11508031D02*
X13737858Y-11498508D01*
X13737858Y-11498508D02*
X13728334Y-11488984D01*
X13728334Y-11488984D02*
X13728334Y-11508031D01*
X13852144Y-11688984D02*
X13833096Y-11679460D01*
X13833096Y-11679460D02*
X13823572Y-11660412D01*
X13823572Y-11660412D02*
X13823572Y-11488984D01*
X13956906Y-11688984D02*
X13937858Y-11679460D01*
X13937858Y-11679460D02*
X13928334Y-11660412D01*
X13928334Y-11660412D02*
X13928334Y-11488984D01*
X14185477Y-11688984D02*
X14185477Y-11488984D01*
X14185477Y-11488984D02*
X14252144Y-11631841D01*
X14252144Y-11631841D02*
X14318810Y-11488984D01*
X14318810Y-11488984D02*
X14318810Y-11688984D01*
X14499763Y-11688984D02*
X14499763Y-11584222D01*
X14499763Y-11584222D02*
X14490239Y-11565174D01*
X14490239Y-11565174D02*
X14471191Y-11555650D01*
X14471191Y-11555650D02*
X14433096Y-11555650D01*
X14433096Y-11555650D02*
X14414048Y-11565174D01*
X14499763Y-11679460D02*
X14480715Y-11688984D01*
X14480715Y-11688984D02*
X14433096Y-11688984D01*
X14433096Y-11688984D02*
X14414048Y-11679460D01*
X14414048Y-11679460D02*
X14404525Y-11660412D01*
X14404525Y-11660412D02*
X14404525Y-11641365D01*
X14404525Y-11641365D02*
X14414048Y-11622317D01*
X14414048Y-11622317D02*
X14433096Y-11612793D01*
X14433096Y-11612793D02*
X14480715Y-11612793D01*
X14480715Y-11612793D02*
X14499763Y-11603269D01*
X14595001Y-11555650D02*
X14595001Y-11755650D01*
X14595001Y-11565174D02*
X14614048Y-11555650D01*
X14614048Y-11555650D02*
X14652144Y-11555650D01*
X14652144Y-11555650D02*
X14671191Y-11565174D01*
X14671191Y-11565174D02*
X14680715Y-11574698D01*
X14680715Y-11574698D02*
X14690239Y-11593746D01*
X14690239Y-11593746D02*
X14690239Y-11650888D01*
X14690239Y-11650888D02*
X14680715Y-11669936D01*
X14680715Y-11669936D02*
X14671191Y-11679460D01*
X14671191Y-11679460D02*
X14652144Y-11688984D01*
X14652144Y-11688984D02*
X14614048Y-11688984D01*
X14614048Y-11688984D02*
X14595001Y-11679460D01*
X14775953Y-11669936D02*
X14785477Y-11679460D01*
X14785477Y-11679460D02*
X14775953Y-11688984D01*
X14775953Y-11688984D02*
X14766429Y-11679460D01*
X14766429Y-11679460D02*
X14775953Y-11669936D01*
X14775953Y-11669936D02*
X14775953Y-11688984D01*
X14775953Y-11565174D02*
X14785477Y-11574698D01*
X14785477Y-11574698D02*
X14775953Y-11584222D01*
X14775953Y-11584222D02*
X14766429Y-11574698D01*
X14766429Y-11574698D02*
X14775953Y-11565174D01*
X14775953Y-11565174D02*
X14775953Y-11584222D01*
D12*
X13123748Y-12007500D02*
X13143748Y-12027500D01*
X13143748Y-12007500D02*
X13123748Y-12027500D01*
D11*
X13442620Y-11908984D02*
X13461668Y-11908984D01*
X13461668Y-11908984D02*
X13480715Y-11918508D01*
X13480715Y-11918508D02*
X13490239Y-11928031D01*
X13490239Y-11928031D02*
X13499763Y-11947079D01*
X13499763Y-11947079D02*
X13509287Y-11985174D01*
X13509287Y-11985174D02*
X13509287Y-12032793D01*
X13509287Y-12032793D02*
X13499763Y-12070888D01*
X13499763Y-12070888D02*
X13490239Y-12089936D01*
X13490239Y-12089936D02*
X13480715Y-12099460D01*
X13480715Y-12099460D02*
X13461668Y-12108984D01*
X13461668Y-12108984D02*
X13442620Y-12108984D01*
X13442620Y-12108984D02*
X13423572Y-12099460D01*
X13423572Y-12099460D02*
X13414048Y-12089936D01*
X13414048Y-12089936D02*
X13404525Y-12070888D01*
X13404525Y-12070888D02*
X13395001Y-12032793D01*
X13395001Y-12032793D02*
X13395001Y-11985174D01*
X13395001Y-11985174D02*
X13404525Y-11947079D01*
X13404525Y-11947079D02*
X13414048Y-11928031D01*
X13414048Y-11928031D02*
X13423572Y-11918508D01*
X13423572Y-11918508D02*
X13442620Y-11908984D01*
X13595001Y-12089936D02*
X13604525Y-12099460D01*
X13604525Y-12099460D02*
X13595001Y-12108984D01*
X13595001Y-12108984D02*
X13585477Y-12099460D01*
X13585477Y-12099460D02*
X13595001Y-12089936D01*
X13595001Y-12089936D02*
X13595001Y-12108984D01*
X13680715Y-11928031D02*
X13690239Y-11918508D01*
X13690239Y-11918508D02*
X13709287Y-11908984D01*
X13709287Y-11908984D02*
X13756906Y-11908984D01*
X13756906Y-11908984D02*
X13775953Y-11918508D01*
X13775953Y-11918508D02*
X13785477Y-11928031D01*
X13785477Y-11928031D02*
X13795001Y-11947079D01*
X13795001Y-11947079D02*
X13795001Y-11966127D01*
X13795001Y-11966127D02*
X13785477Y-11994698D01*
X13785477Y-11994698D02*
X13671191Y-12108984D01*
X13671191Y-12108984D02*
X13795001Y-12108984D01*
X13918810Y-11908984D02*
X13937858Y-11908984D01*
X13937858Y-11908984D02*
X13956906Y-11918508D01*
X13956906Y-11918508D02*
X13966429Y-11928031D01*
X13966429Y-11928031D02*
X13975953Y-11947079D01*
X13975953Y-11947079D02*
X13985477Y-11985174D01*
X13985477Y-11985174D02*
X13985477Y-12032793D01*
X13985477Y-12032793D02*
X13975953Y-12070888D01*
X13975953Y-12070888D02*
X13966429Y-12089936D01*
X13966429Y-12089936D02*
X13956906Y-12099460D01*
X13956906Y-12099460D02*
X13937858Y-12108984D01*
X13937858Y-12108984D02*
X13918810Y-12108984D01*
X13918810Y-12108984D02*
X13899763Y-12099460D01*
X13899763Y-12099460D02*
X13890239Y-12089936D01*
X13890239Y-12089936D02*
X13880715Y-12070888D01*
X13880715Y-12070888D02*
X13871191Y-12032793D01*
X13871191Y-12032793D02*
X13871191Y-11985174D01*
X13871191Y-11985174D02*
X13880715Y-11947079D01*
X13880715Y-11947079D02*
X13890239Y-11928031D01*
X13890239Y-11928031D02*
X13899763Y-11918508D01*
X13899763Y-11918508D02*
X13918810Y-11908984D01*
X14109287Y-11908984D02*
X14128334Y-11908984D01*
X14128334Y-11908984D02*
X14147382Y-11918508D01*
X14147382Y-11918508D02*
X14156906Y-11928031D01*
X14156906Y-11928031D02*
X14166429Y-11947079D01*
X14166429Y-11947079D02*
X14175953Y-11985174D01*
X14175953Y-11985174D02*
X14175953Y-12032793D01*
X14175953Y-12032793D02*
X14166429Y-12070888D01*
X14166429Y-12070888D02*
X14156906Y-12089936D01*
X14156906Y-12089936D02*
X14147382Y-12099460D01*
X14147382Y-12099460D02*
X14128334Y-12108984D01*
X14128334Y-12108984D02*
X14109287Y-12108984D01*
X14109287Y-12108984D02*
X14090239Y-12099460D01*
X14090239Y-12099460D02*
X14080715Y-12089936D01*
X14080715Y-12089936D02*
X14071191Y-12070888D01*
X14071191Y-12070888D02*
X14061668Y-12032793D01*
X14061668Y-12032793D02*
X14061668Y-11985174D01*
X14061668Y-11985174D02*
X14071191Y-11947079D01*
X14071191Y-11947079D02*
X14080715Y-11928031D01*
X14080715Y-11928031D02*
X14090239Y-11918508D01*
X14090239Y-11918508D02*
X14109287Y-11908984D01*
X14261668Y-12108984D02*
X14261668Y-11975650D01*
X14261668Y-11994698D02*
X14271191Y-11985174D01*
X14271191Y-11985174D02*
X14290239Y-11975650D01*
X14290239Y-11975650D02*
X14318810Y-11975650D01*
X14318810Y-11975650D02*
X14337858Y-11985174D01*
X14337858Y-11985174D02*
X14347382Y-12004222D01*
X14347382Y-12004222D02*
X14347382Y-12108984D01*
X14347382Y-12004222D02*
X14356906Y-11985174D01*
X14356906Y-11985174D02*
X14375953Y-11975650D01*
X14375953Y-11975650D02*
X14404525Y-11975650D01*
X14404525Y-11975650D02*
X14423572Y-11985174D01*
X14423572Y-11985174D02*
X14433096Y-12004222D01*
X14433096Y-12004222D02*
X14433096Y-12108984D01*
X14528334Y-12108984D02*
X14528334Y-11975650D01*
X14528334Y-11994698D02*
X14537858Y-11985174D01*
X14537858Y-11985174D02*
X14556906Y-11975650D01*
X14556906Y-11975650D02*
X14585477Y-11975650D01*
X14585477Y-11975650D02*
X14604525Y-11985174D01*
X14604525Y-11985174D02*
X14614049Y-12004222D01*
X14614049Y-12004222D02*
X14614049Y-12108984D01*
X14614049Y-12004222D02*
X14623572Y-11985174D01*
X14623572Y-11985174D02*
X14642620Y-11975650D01*
X14642620Y-11975650D02*
X14671191Y-11975650D01*
X14671191Y-11975650D02*
X14690239Y-11985174D01*
X14690239Y-11985174D02*
X14699763Y-12004222D01*
X14699763Y-12004222D02*
X14699763Y-12108984D01*
X15090239Y-11899460D02*
X14918811Y-12156603D01*
X15347382Y-11908984D02*
X15366430Y-11908984D01*
X15366430Y-11908984D02*
X15385477Y-11918508D01*
X15385477Y-11918508D02*
X15395001Y-11928031D01*
X15395001Y-11928031D02*
X15404525Y-11947079D01*
X15404525Y-11947079D02*
X15414049Y-11985174D01*
X15414049Y-11985174D02*
X15414049Y-12032793D01*
X15414049Y-12032793D02*
X15404525Y-12070888D01*
X15404525Y-12070888D02*
X15395001Y-12089936D01*
X15395001Y-12089936D02*
X15385477Y-12099460D01*
X15385477Y-12099460D02*
X15366430Y-12108984D01*
X15366430Y-12108984D02*
X15347382Y-12108984D01*
X15347382Y-12108984D02*
X15328334Y-12099460D01*
X15328334Y-12099460D02*
X15318811Y-12089936D01*
X15318811Y-12089936D02*
X15309287Y-12070888D01*
X15309287Y-12070888D02*
X15299763Y-12032793D01*
X15299763Y-12032793D02*
X15299763Y-11985174D01*
X15299763Y-11985174D02*
X15309287Y-11947079D01*
X15309287Y-11947079D02*
X15318811Y-11928031D01*
X15318811Y-11928031D02*
X15328334Y-11918508D01*
X15328334Y-11918508D02*
X15347382Y-11908984D01*
X15499763Y-12089936D02*
X15509287Y-12099460D01*
X15509287Y-12099460D02*
X15499763Y-12108984D01*
X15499763Y-12108984D02*
X15490239Y-12099460D01*
X15490239Y-12099460D02*
X15499763Y-12089936D01*
X15499763Y-12089936D02*
X15499763Y-12108984D01*
X15633096Y-11908984D02*
X15652144Y-11908984D01*
X15652144Y-11908984D02*
X15671192Y-11918508D01*
X15671192Y-11918508D02*
X15680715Y-11928031D01*
X15680715Y-11928031D02*
X15690239Y-11947079D01*
X15690239Y-11947079D02*
X15699763Y-11985174D01*
X15699763Y-11985174D02*
X15699763Y-12032793D01*
X15699763Y-12032793D02*
X15690239Y-12070888D01*
X15690239Y-12070888D02*
X15680715Y-12089936D01*
X15680715Y-12089936D02*
X15671192Y-12099460D01*
X15671192Y-12099460D02*
X15652144Y-12108984D01*
X15652144Y-12108984D02*
X15633096Y-12108984D01*
X15633096Y-12108984D02*
X15614049Y-12099460D01*
X15614049Y-12099460D02*
X15604525Y-12089936D01*
X15604525Y-12089936D02*
X15595001Y-12070888D01*
X15595001Y-12070888D02*
X15585477Y-12032793D01*
X15585477Y-12032793D02*
X15585477Y-11985174D01*
X15585477Y-11985174D02*
X15595001Y-11947079D01*
X15595001Y-11947079D02*
X15604525Y-11928031D01*
X15604525Y-11928031D02*
X15614049Y-11918508D01*
X15614049Y-11918508D02*
X15633096Y-11908984D01*
X15823572Y-11908984D02*
X15842620Y-11908984D01*
X15842620Y-11908984D02*
X15861668Y-11918508D01*
X15861668Y-11918508D02*
X15871192Y-11928031D01*
X15871192Y-11928031D02*
X15880715Y-11947079D01*
X15880715Y-11947079D02*
X15890239Y-11985174D01*
X15890239Y-11985174D02*
X15890239Y-12032793D01*
X15890239Y-12032793D02*
X15880715Y-12070888D01*
X15880715Y-12070888D02*
X15871192Y-12089936D01*
X15871192Y-12089936D02*
X15861668Y-12099460D01*
X15861668Y-12099460D02*
X15842620Y-12108984D01*
X15842620Y-12108984D02*
X15823572Y-12108984D01*
X15823572Y-12108984D02*
X15804525Y-12099460D01*
X15804525Y-12099460D02*
X15795001Y-12089936D01*
X15795001Y-12089936D02*
X15785477Y-12070888D01*
X15785477Y-12070888D02*
X15775953Y-12032793D01*
X15775953Y-12032793D02*
X15775953Y-11985174D01*
X15775953Y-11985174D02*
X15785477Y-11947079D01*
X15785477Y-11947079D02*
X15795001Y-11928031D01*
X15795001Y-11928031D02*
X15804525Y-11918508D01*
X15804525Y-11918508D02*
X15823572Y-11908984D01*
X15956906Y-11908984D02*
X16090239Y-11908984D01*
X16090239Y-11908984D02*
X16004525Y-12108984D01*
X16175953Y-12108984D02*
X16214049Y-12108984D01*
X16214049Y-12108984D02*
X16233096Y-12099460D01*
X16233096Y-12099460D02*
X16242620Y-12089936D01*
X16242620Y-12089936D02*
X16261668Y-12061365D01*
X16261668Y-12061365D02*
X16271192Y-12023269D01*
X16271192Y-12023269D02*
X16271192Y-11947079D01*
X16271192Y-11947079D02*
X16261668Y-11928031D01*
X16261668Y-11928031D02*
X16252144Y-11918508D01*
X16252144Y-11918508D02*
X16233096Y-11908984D01*
X16233096Y-11908984D02*
X16195001Y-11908984D01*
X16195001Y-11908984D02*
X16175953Y-11918508D01*
X16175953Y-11918508D02*
X16166430Y-11928031D01*
X16166430Y-11928031D02*
X16156906Y-11947079D01*
X16156906Y-11947079D02*
X16156906Y-11994698D01*
X16156906Y-11994698D02*
X16166430Y-12013746D01*
X16166430Y-12013746D02*
X16175953Y-12023269D01*
X16175953Y-12023269D02*
X16195001Y-12032793D01*
X16195001Y-12032793D02*
X16233096Y-12032793D01*
X16233096Y-12032793D02*
X16252144Y-12023269D01*
X16252144Y-12023269D02*
X16261668Y-12013746D01*
X16261668Y-12013746D02*
X16271192Y-11994698D01*
X16347382Y-11908984D02*
X16347382Y-11947079D01*
X16423573Y-11908984D02*
X16423573Y-11947079D01*
X16718811Y-12185174D02*
X16709287Y-12175650D01*
X16709287Y-12175650D02*
X16690239Y-12147079D01*
X16690239Y-12147079D02*
X16680715Y-12128031D01*
X16680715Y-12128031D02*
X16671192Y-12099460D01*
X16671192Y-12099460D02*
X16661668Y-12051841D01*
X16661668Y-12051841D02*
X16661668Y-12013746D01*
X16661668Y-12013746D02*
X16671192Y-11966127D01*
X16671192Y-11966127D02*
X16680715Y-11937555D01*
X16680715Y-11937555D02*
X16690239Y-11918508D01*
X16690239Y-11918508D02*
X16709287Y-11889936D01*
X16709287Y-11889936D02*
X16718811Y-11880412D01*
X16899763Y-12108984D02*
X16785477Y-12108984D01*
X16842620Y-12108984D02*
X16842620Y-11908984D01*
X16842620Y-11908984D02*
X16823573Y-11937555D01*
X16823573Y-11937555D02*
X16804525Y-11956603D01*
X16804525Y-11956603D02*
X16785477Y-11966127D01*
X17071192Y-11908984D02*
X17033096Y-11908984D01*
X17033096Y-11908984D02*
X17014049Y-11918508D01*
X17014049Y-11918508D02*
X17004525Y-11928031D01*
X17004525Y-11928031D02*
X16985477Y-11956603D01*
X16985477Y-11956603D02*
X16975954Y-11994698D01*
X16975954Y-11994698D02*
X16975954Y-12070888D01*
X16975954Y-12070888D02*
X16985477Y-12089936D01*
X16985477Y-12089936D02*
X16995001Y-12099460D01*
X16995001Y-12099460D02*
X17014049Y-12108984D01*
X17014049Y-12108984D02*
X17052144Y-12108984D01*
X17052144Y-12108984D02*
X17071192Y-12099460D01*
X17071192Y-12099460D02*
X17080716Y-12089936D01*
X17080716Y-12089936D02*
X17090239Y-12070888D01*
X17090239Y-12070888D02*
X17090239Y-12023269D01*
X17090239Y-12023269D02*
X17080716Y-12004222D01*
X17080716Y-12004222D02*
X17071192Y-11994698D01*
X17071192Y-11994698D02*
X17052144Y-11985174D01*
X17052144Y-11985174D02*
X17014049Y-11985174D01*
X17014049Y-11985174D02*
X16995001Y-11994698D01*
X16995001Y-11994698D02*
X16985477Y-12004222D01*
X16985477Y-12004222D02*
X16975954Y-12023269D01*
X17261668Y-11908984D02*
X17223573Y-11908984D01*
X17223573Y-11908984D02*
X17204525Y-11918508D01*
X17204525Y-11918508D02*
X17195001Y-11928031D01*
X17195001Y-11928031D02*
X17175954Y-11956603D01*
X17175954Y-11956603D02*
X17166430Y-11994698D01*
X17166430Y-11994698D02*
X17166430Y-12070888D01*
X17166430Y-12070888D02*
X17175954Y-12089936D01*
X17175954Y-12089936D02*
X17185477Y-12099460D01*
X17185477Y-12099460D02*
X17204525Y-12108984D01*
X17204525Y-12108984D02*
X17242620Y-12108984D01*
X17242620Y-12108984D02*
X17261668Y-12099460D01*
X17261668Y-12099460D02*
X17271192Y-12089936D01*
X17271192Y-12089936D02*
X17280716Y-12070888D01*
X17280716Y-12070888D02*
X17280716Y-12023269D01*
X17280716Y-12023269D02*
X17271192Y-12004222D01*
X17271192Y-12004222D02*
X17261668Y-11994698D01*
X17261668Y-11994698D02*
X17242620Y-11985174D01*
X17242620Y-11985174D02*
X17204525Y-11985174D01*
X17204525Y-11985174D02*
X17185477Y-11994698D01*
X17185477Y-11994698D02*
X17175954Y-12004222D01*
X17175954Y-12004222D02*
X17166430Y-12023269D01*
X17518811Y-12108984D02*
X17518811Y-11908984D01*
X17604525Y-12108984D02*
X17604525Y-12004222D01*
X17604525Y-12004222D02*
X17595001Y-11985174D01*
X17595001Y-11985174D02*
X17575954Y-11975650D01*
X17575954Y-11975650D02*
X17547382Y-11975650D01*
X17547382Y-11975650D02*
X17528335Y-11985174D01*
X17528335Y-11985174D02*
X17518811Y-11994698D01*
X17728335Y-12108984D02*
X17709287Y-12099460D01*
X17709287Y-12099460D02*
X17699763Y-12089936D01*
X17699763Y-12089936D02*
X17690239Y-12070888D01*
X17690239Y-12070888D02*
X17690239Y-12013746D01*
X17690239Y-12013746D02*
X17699763Y-11994698D01*
X17699763Y-11994698D02*
X17709287Y-11985174D01*
X17709287Y-11985174D02*
X17728335Y-11975650D01*
X17728335Y-11975650D02*
X17756906Y-11975650D01*
X17756906Y-11975650D02*
X17775954Y-11985174D01*
X17775954Y-11985174D02*
X17785478Y-11994698D01*
X17785478Y-11994698D02*
X17795001Y-12013746D01*
X17795001Y-12013746D02*
X17795001Y-12070888D01*
X17795001Y-12070888D02*
X17785478Y-12089936D01*
X17785478Y-12089936D02*
X17775954Y-12099460D01*
X17775954Y-12099460D02*
X17756906Y-12108984D01*
X17756906Y-12108984D02*
X17728335Y-12108984D01*
X17909287Y-12108984D02*
X17890239Y-12099460D01*
X17890239Y-12099460D02*
X17880716Y-12080412D01*
X17880716Y-12080412D02*
X17880716Y-11908984D01*
X18061668Y-12099460D02*
X18042620Y-12108984D01*
X18042620Y-12108984D02*
X18004525Y-12108984D01*
X18004525Y-12108984D02*
X17985478Y-12099460D01*
X17985478Y-12099460D02*
X17975954Y-12080412D01*
X17975954Y-12080412D02*
X17975954Y-12004222D01*
X17975954Y-12004222D02*
X17985478Y-11985174D01*
X17985478Y-11985174D02*
X18004525Y-11975650D01*
X18004525Y-11975650D02*
X18042620Y-11975650D01*
X18042620Y-11975650D02*
X18061668Y-11985174D01*
X18061668Y-11985174D02*
X18071192Y-12004222D01*
X18071192Y-12004222D02*
X18071192Y-12023269D01*
X18071192Y-12023269D02*
X17975954Y-12042317D01*
X18147382Y-12099460D02*
X18166430Y-12108984D01*
X18166430Y-12108984D02*
X18204525Y-12108984D01*
X18204525Y-12108984D02*
X18223573Y-12099460D01*
X18223573Y-12099460D02*
X18233097Y-12080412D01*
X18233097Y-12080412D02*
X18233097Y-12070888D01*
X18233097Y-12070888D02*
X18223573Y-12051841D01*
X18223573Y-12051841D02*
X18204525Y-12042317D01*
X18204525Y-12042317D02*
X18175954Y-12042317D01*
X18175954Y-12042317D02*
X18156906Y-12032793D01*
X18156906Y-12032793D02*
X18147382Y-12013746D01*
X18147382Y-12013746D02*
X18147382Y-12004222D01*
X18147382Y-12004222D02*
X18156906Y-11985174D01*
X18156906Y-11985174D02*
X18175954Y-11975650D01*
X18175954Y-11975650D02*
X18204525Y-11975650D01*
X18204525Y-11975650D02*
X18223573Y-11985174D01*
X18299763Y-12185174D02*
X18309287Y-12175650D01*
X18309287Y-12175650D02*
X18328335Y-12147079D01*
X18328335Y-12147079D02*
X18337859Y-12128031D01*
X18337859Y-12128031D02*
X18347382Y-12099460D01*
X18347382Y-12099460D02*
X18356906Y-12051841D01*
X18356906Y-12051841D02*
X18356906Y-12013746D01*
X18356906Y-12013746D02*
X18347382Y-11966127D01*
X18347382Y-11966127D02*
X18337859Y-11937555D01*
X18337859Y-11937555D02*
X18328335Y-11918508D01*
X18328335Y-11918508D02*
X18309287Y-11889936D01*
X18309287Y-11889936D02*
X18299763Y-11880412D01*
D12*
X13143748Y-12281500D02*
G75*
G02*
X13113748Y-12281500I-15000J0D01*
G01*
X13113748Y-12281500D02*
G75*
G02*
X13143748Y-12281500I15000J0D01*
G01*
D11*
X13442620Y-12172984D02*
X13461668Y-12172984D01*
X13461668Y-12172984D02*
X13480715Y-12182508D01*
X13480715Y-12182508D02*
X13490239Y-12192031D01*
X13490239Y-12192031D02*
X13499763Y-12211079D01*
X13499763Y-12211079D02*
X13509287Y-12249174D01*
X13509287Y-12249174D02*
X13509287Y-12296793D01*
X13509287Y-12296793D02*
X13499763Y-12334888D01*
X13499763Y-12334888D02*
X13490239Y-12353936D01*
X13490239Y-12353936D02*
X13480715Y-12363460D01*
X13480715Y-12363460D02*
X13461668Y-12372984D01*
X13461668Y-12372984D02*
X13442620Y-12372984D01*
X13442620Y-12372984D02*
X13423572Y-12363460D01*
X13423572Y-12363460D02*
X13414048Y-12353936D01*
X13414048Y-12353936D02*
X13404525Y-12334888D01*
X13404525Y-12334888D02*
X13395001Y-12296793D01*
X13395001Y-12296793D02*
X13395001Y-12249174D01*
X13395001Y-12249174D02*
X13404525Y-12211079D01*
X13404525Y-12211079D02*
X13414048Y-12192031D01*
X13414048Y-12192031D02*
X13423572Y-12182508D01*
X13423572Y-12182508D02*
X13442620Y-12172984D01*
X13595001Y-12353936D02*
X13604525Y-12363460D01*
X13604525Y-12363460D02*
X13595001Y-12372984D01*
X13595001Y-12372984D02*
X13585477Y-12363460D01*
X13585477Y-12363460D02*
X13595001Y-12353936D01*
X13595001Y-12353936D02*
X13595001Y-12372984D01*
X13671191Y-12172984D02*
X13795001Y-12172984D01*
X13795001Y-12172984D02*
X13728334Y-12249174D01*
X13728334Y-12249174D02*
X13756906Y-12249174D01*
X13756906Y-12249174D02*
X13775953Y-12258698D01*
X13775953Y-12258698D02*
X13785477Y-12268222D01*
X13785477Y-12268222D02*
X13795001Y-12287269D01*
X13795001Y-12287269D02*
X13795001Y-12334888D01*
X13795001Y-12334888D02*
X13785477Y-12353936D01*
X13785477Y-12353936D02*
X13775953Y-12363460D01*
X13775953Y-12363460D02*
X13756906Y-12372984D01*
X13756906Y-12372984D02*
X13699763Y-12372984D01*
X13699763Y-12372984D02*
X13680715Y-12363460D01*
X13680715Y-12363460D02*
X13671191Y-12353936D01*
X13918810Y-12172984D02*
X13937858Y-12172984D01*
X13937858Y-12172984D02*
X13956906Y-12182508D01*
X13956906Y-12182508D02*
X13966429Y-12192031D01*
X13966429Y-12192031D02*
X13975953Y-12211079D01*
X13975953Y-12211079D02*
X13985477Y-12249174D01*
X13985477Y-12249174D02*
X13985477Y-12296793D01*
X13985477Y-12296793D02*
X13975953Y-12334888D01*
X13975953Y-12334888D02*
X13966429Y-12353936D01*
X13966429Y-12353936D02*
X13956906Y-12363460D01*
X13956906Y-12363460D02*
X13937858Y-12372984D01*
X13937858Y-12372984D02*
X13918810Y-12372984D01*
X13918810Y-12372984D02*
X13899763Y-12363460D01*
X13899763Y-12363460D02*
X13890239Y-12353936D01*
X13890239Y-12353936D02*
X13880715Y-12334888D01*
X13880715Y-12334888D02*
X13871191Y-12296793D01*
X13871191Y-12296793D02*
X13871191Y-12249174D01*
X13871191Y-12249174D02*
X13880715Y-12211079D01*
X13880715Y-12211079D02*
X13890239Y-12192031D01*
X13890239Y-12192031D02*
X13899763Y-12182508D01*
X13899763Y-12182508D02*
X13918810Y-12172984D01*
X14109287Y-12172984D02*
X14128334Y-12172984D01*
X14128334Y-12172984D02*
X14147382Y-12182508D01*
X14147382Y-12182508D02*
X14156906Y-12192031D01*
X14156906Y-12192031D02*
X14166429Y-12211079D01*
X14166429Y-12211079D02*
X14175953Y-12249174D01*
X14175953Y-12249174D02*
X14175953Y-12296793D01*
X14175953Y-12296793D02*
X14166429Y-12334888D01*
X14166429Y-12334888D02*
X14156906Y-12353936D01*
X14156906Y-12353936D02*
X14147382Y-12363460D01*
X14147382Y-12363460D02*
X14128334Y-12372984D01*
X14128334Y-12372984D02*
X14109287Y-12372984D01*
X14109287Y-12372984D02*
X14090239Y-12363460D01*
X14090239Y-12363460D02*
X14080715Y-12353936D01*
X14080715Y-12353936D02*
X14071191Y-12334888D01*
X14071191Y-12334888D02*
X14061668Y-12296793D01*
X14061668Y-12296793D02*
X14061668Y-12249174D01*
X14061668Y-12249174D02*
X14071191Y-12211079D01*
X14071191Y-12211079D02*
X14080715Y-12192031D01*
X14080715Y-12192031D02*
X14090239Y-12182508D01*
X14090239Y-12182508D02*
X14109287Y-12172984D01*
X14261668Y-12372984D02*
X14261668Y-12239650D01*
X14261668Y-12258698D02*
X14271191Y-12249174D01*
X14271191Y-12249174D02*
X14290239Y-12239650D01*
X14290239Y-12239650D02*
X14318810Y-12239650D01*
X14318810Y-12239650D02*
X14337858Y-12249174D01*
X14337858Y-12249174D02*
X14347382Y-12268222D01*
X14347382Y-12268222D02*
X14347382Y-12372984D01*
X14347382Y-12268222D02*
X14356906Y-12249174D01*
X14356906Y-12249174D02*
X14375953Y-12239650D01*
X14375953Y-12239650D02*
X14404525Y-12239650D01*
X14404525Y-12239650D02*
X14423572Y-12249174D01*
X14423572Y-12249174D02*
X14433096Y-12268222D01*
X14433096Y-12268222D02*
X14433096Y-12372984D01*
X14528334Y-12372984D02*
X14528334Y-12239650D01*
X14528334Y-12258698D02*
X14537858Y-12249174D01*
X14537858Y-12249174D02*
X14556906Y-12239650D01*
X14556906Y-12239650D02*
X14585477Y-12239650D01*
X14585477Y-12239650D02*
X14604525Y-12249174D01*
X14604525Y-12249174D02*
X14614049Y-12268222D01*
X14614049Y-12268222D02*
X14614049Y-12372984D01*
X14614049Y-12268222D02*
X14623572Y-12249174D01*
X14623572Y-12249174D02*
X14642620Y-12239650D01*
X14642620Y-12239650D02*
X14671191Y-12239650D01*
X14671191Y-12239650D02*
X14690239Y-12249174D01*
X14690239Y-12249174D02*
X14699763Y-12268222D01*
X14699763Y-12268222D02*
X14699763Y-12372984D01*
X15090239Y-12163460D02*
X14918811Y-12420603D01*
X15347382Y-12172984D02*
X15366430Y-12172984D01*
X15366430Y-12172984D02*
X15385477Y-12182508D01*
X15385477Y-12182508D02*
X15395001Y-12192031D01*
X15395001Y-12192031D02*
X15404525Y-12211079D01*
X15404525Y-12211079D02*
X15414049Y-12249174D01*
X15414049Y-12249174D02*
X15414049Y-12296793D01*
X15414049Y-12296793D02*
X15404525Y-12334888D01*
X15404525Y-12334888D02*
X15395001Y-12353936D01*
X15395001Y-12353936D02*
X15385477Y-12363460D01*
X15385477Y-12363460D02*
X15366430Y-12372984D01*
X15366430Y-12372984D02*
X15347382Y-12372984D01*
X15347382Y-12372984D02*
X15328334Y-12363460D01*
X15328334Y-12363460D02*
X15318811Y-12353936D01*
X15318811Y-12353936D02*
X15309287Y-12334888D01*
X15309287Y-12334888D02*
X15299763Y-12296793D01*
X15299763Y-12296793D02*
X15299763Y-12249174D01*
X15299763Y-12249174D02*
X15309287Y-12211079D01*
X15309287Y-12211079D02*
X15318811Y-12192031D01*
X15318811Y-12192031D02*
X15328334Y-12182508D01*
X15328334Y-12182508D02*
X15347382Y-12172984D01*
X15499763Y-12353936D02*
X15509287Y-12363460D01*
X15509287Y-12363460D02*
X15499763Y-12372984D01*
X15499763Y-12372984D02*
X15490239Y-12363460D01*
X15490239Y-12363460D02*
X15499763Y-12353936D01*
X15499763Y-12353936D02*
X15499763Y-12372984D01*
X15633096Y-12172984D02*
X15652144Y-12172984D01*
X15652144Y-12172984D02*
X15671192Y-12182508D01*
X15671192Y-12182508D02*
X15680715Y-12192031D01*
X15680715Y-12192031D02*
X15690239Y-12211079D01*
X15690239Y-12211079D02*
X15699763Y-12249174D01*
X15699763Y-12249174D02*
X15699763Y-12296793D01*
X15699763Y-12296793D02*
X15690239Y-12334888D01*
X15690239Y-12334888D02*
X15680715Y-12353936D01*
X15680715Y-12353936D02*
X15671192Y-12363460D01*
X15671192Y-12363460D02*
X15652144Y-12372984D01*
X15652144Y-12372984D02*
X15633096Y-12372984D01*
X15633096Y-12372984D02*
X15614049Y-12363460D01*
X15614049Y-12363460D02*
X15604525Y-12353936D01*
X15604525Y-12353936D02*
X15595001Y-12334888D01*
X15595001Y-12334888D02*
X15585477Y-12296793D01*
X15585477Y-12296793D02*
X15585477Y-12249174D01*
X15585477Y-12249174D02*
X15595001Y-12211079D01*
X15595001Y-12211079D02*
X15604525Y-12192031D01*
X15604525Y-12192031D02*
X15614049Y-12182508D01*
X15614049Y-12182508D02*
X15633096Y-12172984D01*
X15890239Y-12372984D02*
X15775953Y-12372984D01*
X15833096Y-12372984D02*
X15833096Y-12172984D01*
X15833096Y-12172984D02*
X15814049Y-12201555D01*
X15814049Y-12201555D02*
X15795001Y-12220603D01*
X15795001Y-12220603D02*
X15775953Y-12230127D01*
X16080715Y-12372984D02*
X15966430Y-12372984D01*
X16023572Y-12372984D02*
X16023572Y-12172984D01*
X16023572Y-12172984D02*
X16004525Y-12201555D01*
X16004525Y-12201555D02*
X15985477Y-12220603D01*
X15985477Y-12220603D02*
X15966430Y-12230127D01*
X16195001Y-12258698D02*
X16175953Y-12249174D01*
X16175953Y-12249174D02*
X16166430Y-12239650D01*
X16166430Y-12239650D02*
X16156906Y-12220603D01*
X16156906Y-12220603D02*
X16156906Y-12211079D01*
X16156906Y-12211079D02*
X16166430Y-12192031D01*
X16166430Y-12192031D02*
X16175953Y-12182508D01*
X16175953Y-12182508D02*
X16195001Y-12172984D01*
X16195001Y-12172984D02*
X16233096Y-12172984D01*
X16233096Y-12172984D02*
X16252144Y-12182508D01*
X16252144Y-12182508D02*
X16261668Y-12192031D01*
X16261668Y-12192031D02*
X16271192Y-12211079D01*
X16271192Y-12211079D02*
X16271192Y-12220603D01*
X16271192Y-12220603D02*
X16261668Y-12239650D01*
X16261668Y-12239650D02*
X16252144Y-12249174D01*
X16252144Y-12249174D02*
X16233096Y-12258698D01*
X16233096Y-12258698D02*
X16195001Y-12258698D01*
X16195001Y-12258698D02*
X16175953Y-12268222D01*
X16175953Y-12268222D02*
X16166430Y-12277746D01*
X16166430Y-12277746D02*
X16156906Y-12296793D01*
X16156906Y-12296793D02*
X16156906Y-12334888D01*
X16156906Y-12334888D02*
X16166430Y-12353936D01*
X16166430Y-12353936D02*
X16175953Y-12363460D01*
X16175953Y-12363460D02*
X16195001Y-12372984D01*
X16195001Y-12372984D02*
X16233096Y-12372984D01*
X16233096Y-12372984D02*
X16252144Y-12363460D01*
X16252144Y-12363460D02*
X16261668Y-12353936D01*
X16261668Y-12353936D02*
X16271192Y-12334888D01*
X16271192Y-12334888D02*
X16271192Y-12296793D01*
X16271192Y-12296793D02*
X16261668Y-12277746D01*
X16261668Y-12277746D02*
X16252144Y-12268222D01*
X16252144Y-12268222D02*
X16233096Y-12258698D01*
X16347382Y-12172984D02*
X16347382Y-12211079D01*
X16423573Y-12172984D02*
X16423573Y-12211079D01*
X16718811Y-12449174D02*
X16709287Y-12439650D01*
X16709287Y-12439650D02*
X16690239Y-12411079D01*
X16690239Y-12411079D02*
X16680715Y-12392031D01*
X16680715Y-12392031D02*
X16671192Y-12363460D01*
X16671192Y-12363460D02*
X16661668Y-12315841D01*
X16661668Y-12315841D02*
X16661668Y-12277746D01*
X16661668Y-12277746D02*
X16671192Y-12230127D01*
X16671192Y-12230127D02*
X16680715Y-12201555D01*
X16680715Y-12201555D02*
X16690239Y-12182508D01*
X16690239Y-12182508D02*
X16709287Y-12153936D01*
X16709287Y-12153936D02*
X16718811Y-12144412D01*
X16899763Y-12372984D02*
X16785477Y-12372984D01*
X16842620Y-12372984D02*
X16842620Y-12172984D01*
X16842620Y-12172984D02*
X16823573Y-12201555D01*
X16823573Y-12201555D02*
X16804525Y-12220603D01*
X16804525Y-12220603D02*
X16785477Y-12230127D01*
X16966430Y-12172984D02*
X17090239Y-12172984D01*
X17090239Y-12172984D02*
X17023573Y-12249174D01*
X17023573Y-12249174D02*
X17052144Y-12249174D01*
X17052144Y-12249174D02*
X17071192Y-12258698D01*
X17071192Y-12258698D02*
X17080716Y-12268222D01*
X17080716Y-12268222D02*
X17090239Y-12287269D01*
X17090239Y-12287269D02*
X17090239Y-12334888D01*
X17090239Y-12334888D02*
X17080716Y-12353936D01*
X17080716Y-12353936D02*
X17071192Y-12363460D01*
X17071192Y-12363460D02*
X17052144Y-12372984D01*
X17052144Y-12372984D02*
X16995001Y-12372984D01*
X16995001Y-12372984D02*
X16975954Y-12363460D01*
X16975954Y-12363460D02*
X16966430Y-12353936D01*
X17214049Y-12172984D02*
X17233097Y-12172984D01*
X17233097Y-12172984D02*
X17252144Y-12182508D01*
X17252144Y-12182508D02*
X17261668Y-12192031D01*
X17261668Y-12192031D02*
X17271192Y-12211079D01*
X17271192Y-12211079D02*
X17280716Y-12249174D01*
X17280716Y-12249174D02*
X17280716Y-12296793D01*
X17280716Y-12296793D02*
X17271192Y-12334888D01*
X17271192Y-12334888D02*
X17261668Y-12353936D01*
X17261668Y-12353936D02*
X17252144Y-12363460D01*
X17252144Y-12363460D02*
X17233097Y-12372984D01*
X17233097Y-12372984D02*
X17214049Y-12372984D01*
X17214049Y-12372984D02*
X17195001Y-12363460D01*
X17195001Y-12363460D02*
X17185477Y-12353936D01*
X17185477Y-12353936D02*
X17175954Y-12334888D01*
X17175954Y-12334888D02*
X17166430Y-12296793D01*
X17166430Y-12296793D02*
X17166430Y-12249174D01*
X17166430Y-12249174D02*
X17175954Y-12211079D01*
X17175954Y-12211079D02*
X17185477Y-12192031D01*
X17185477Y-12192031D02*
X17195001Y-12182508D01*
X17195001Y-12182508D02*
X17214049Y-12172984D01*
X17518811Y-12372984D02*
X17518811Y-12172984D01*
X17604525Y-12372984D02*
X17604525Y-12268222D01*
X17604525Y-12268222D02*
X17595001Y-12249174D01*
X17595001Y-12249174D02*
X17575954Y-12239650D01*
X17575954Y-12239650D02*
X17547382Y-12239650D01*
X17547382Y-12239650D02*
X17528335Y-12249174D01*
X17528335Y-12249174D02*
X17518811Y-12258698D01*
X17728335Y-12372984D02*
X17709287Y-12363460D01*
X17709287Y-12363460D02*
X17699763Y-12353936D01*
X17699763Y-12353936D02*
X17690239Y-12334888D01*
X17690239Y-12334888D02*
X17690239Y-12277746D01*
X17690239Y-12277746D02*
X17699763Y-12258698D01*
X17699763Y-12258698D02*
X17709287Y-12249174D01*
X17709287Y-12249174D02*
X17728335Y-12239650D01*
X17728335Y-12239650D02*
X17756906Y-12239650D01*
X17756906Y-12239650D02*
X17775954Y-12249174D01*
X17775954Y-12249174D02*
X17785478Y-12258698D01*
X17785478Y-12258698D02*
X17795001Y-12277746D01*
X17795001Y-12277746D02*
X17795001Y-12334888D01*
X17795001Y-12334888D02*
X17785478Y-12353936D01*
X17785478Y-12353936D02*
X17775954Y-12363460D01*
X17775954Y-12363460D02*
X17756906Y-12372984D01*
X17756906Y-12372984D02*
X17728335Y-12372984D01*
X17909287Y-12372984D02*
X17890239Y-12363460D01*
X17890239Y-12363460D02*
X17880716Y-12344412D01*
X17880716Y-12344412D02*
X17880716Y-12172984D01*
X18061668Y-12363460D02*
X18042620Y-12372984D01*
X18042620Y-12372984D02*
X18004525Y-12372984D01*
X18004525Y-12372984D02*
X17985478Y-12363460D01*
X17985478Y-12363460D02*
X17975954Y-12344412D01*
X17975954Y-12344412D02*
X17975954Y-12268222D01*
X17975954Y-12268222D02*
X17985478Y-12249174D01*
X17985478Y-12249174D02*
X18004525Y-12239650D01*
X18004525Y-12239650D02*
X18042620Y-12239650D01*
X18042620Y-12239650D02*
X18061668Y-12249174D01*
X18061668Y-12249174D02*
X18071192Y-12268222D01*
X18071192Y-12268222D02*
X18071192Y-12287269D01*
X18071192Y-12287269D02*
X17975954Y-12306317D01*
X18147382Y-12363460D02*
X18166430Y-12372984D01*
X18166430Y-12372984D02*
X18204525Y-12372984D01*
X18204525Y-12372984D02*
X18223573Y-12363460D01*
X18223573Y-12363460D02*
X18233097Y-12344412D01*
X18233097Y-12344412D02*
X18233097Y-12334888D01*
X18233097Y-12334888D02*
X18223573Y-12315841D01*
X18223573Y-12315841D02*
X18204525Y-12306317D01*
X18204525Y-12306317D02*
X18175954Y-12306317D01*
X18175954Y-12306317D02*
X18156906Y-12296793D01*
X18156906Y-12296793D02*
X18147382Y-12277746D01*
X18147382Y-12277746D02*
X18147382Y-12268222D01*
X18147382Y-12268222D02*
X18156906Y-12249174D01*
X18156906Y-12249174D02*
X18175954Y-12239650D01*
X18175954Y-12239650D02*
X18204525Y-12239650D01*
X18204525Y-12239650D02*
X18223573Y-12249174D01*
X18299763Y-12449174D02*
X18309287Y-12439650D01*
X18309287Y-12439650D02*
X18328335Y-12411079D01*
X18328335Y-12411079D02*
X18337859Y-12392031D01*
X18337859Y-12392031D02*
X18347382Y-12363460D01*
X18347382Y-12363460D02*
X18356906Y-12315841D01*
X18356906Y-12315841D02*
X18356906Y-12277746D01*
X18356906Y-12277746D02*
X18347382Y-12230127D01*
X18347382Y-12230127D02*
X18337859Y-12201555D01*
X18337859Y-12201555D02*
X18328335Y-12182508D01*
X18328335Y-12182508D02*
X18309287Y-12153936D01*
X18309287Y-12153936D02*
X18299763Y-12144412D01*
D12*
X13113748Y-12515500D02*
X13113748Y-12575500D01*
X13083748Y-12545500D02*
X13143748Y-12545500D01*
D11*
X13442620Y-12436984D02*
X13461668Y-12436984D01*
X13461668Y-12436984D02*
X13480715Y-12446508D01*
X13480715Y-12446508D02*
X13490239Y-12456031D01*
X13490239Y-12456031D02*
X13499763Y-12475079D01*
X13499763Y-12475079D02*
X13509287Y-12513174D01*
X13509287Y-12513174D02*
X13509287Y-12560793D01*
X13509287Y-12560793D02*
X13499763Y-12598888D01*
X13499763Y-12598888D02*
X13490239Y-12617936D01*
X13490239Y-12617936D02*
X13480715Y-12627460D01*
X13480715Y-12627460D02*
X13461668Y-12636984D01*
X13461668Y-12636984D02*
X13442620Y-12636984D01*
X13442620Y-12636984D02*
X13423572Y-12627460D01*
X13423572Y-12627460D02*
X13414048Y-12617936D01*
X13414048Y-12617936D02*
X13404525Y-12598888D01*
X13404525Y-12598888D02*
X13395001Y-12560793D01*
X13395001Y-12560793D02*
X13395001Y-12513174D01*
X13395001Y-12513174D02*
X13404525Y-12475079D01*
X13404525Y-12475079D02*
X13414048Y-12456031D01*
X13414048Y-12456031D02*
X13423572Y-12446508D01*
X13423572Y-12446508D02*
X13442620Y-12436984D01*
X13595001Y-12617936D02*
X13604525Y-12627460D01*
X13604525Y-12627460D02*
X13595001Y-12636984D01*
X13595001Y-12636984D02*
X13585477Y-12627460D01*
X13585477Y-12627460D02*
X13595001Y-12617936D01*
X13595001Y-12617936D02*
X13595001Y-12636984D01*
X13775953Y-12436984D02*
X13737858Y-12436984D01*
X13737858Y-12436984D02*
X13718810Y-12446508D01*
X13718810Y-12446508D02*
X13709287Y-12456031D01*
X13709287Y-12456031D02*
X13690239Y-12484603D01*
X13690239Y-12484603D02*
X13680715Y-12522698D01*
X13680715Y-12522698D02*
X13680715Y-12598888D01*
X13680715Y-12598888D02*
X13690239Y-12617936D01*
X13690239Y-12617936D02*
X13699763Y-12627460D01*
X13699763Y-12627460D02*
X13718810Y-12636984D01*
X13718810Y-12636984D02*
X13756906Y-12636984D01*
X13756906Y-12636984D02*
X13775953Y-12627460D01*
X13775953Y-12627460D02*
X13785477Y-12617936D01*
X13785477Y-12617936D02*
X13795001Y-12598888D01*
X13795001Y-12598888D02*
X13795001Y-12551269D01*
X13795001Y-12551269D02*
X13785477Y-12532222D01*
X13785477Y-12532222D02*
X13775953Y-12522698D01*
X13775953Y-12522698D02*
X13756906Y-12513174D01*
X13756906Y-12513174D02*
X13718810Y-12513174D01*
X13718810Y-12513174D02*
X13699763Y-12522698D01*
X13699763Y-12522698D02*
X13690239Y-12532222D01*
X13690239Y-12532222D02*
X13680715Y-12551269D01*
X13918810Y-12436984D02*
X13937858Y-12436984D01*
X13937858Y-12436984D02*
X13956906Y-12446508D01*
X13956906Y-12446508D02*
X13966429Y-12456031D01*
X13966429Y-12456031D02*
X13975953Y-12475079D01*
X13975953Y-12475079D02*
X13985477Y-12513174D01*
X13985477Y-12513174D02*
X13985477Y-12560793D01*
X13985477Y-12560793D02*
X13975953Y-12598888D01*
X13975953Y-12598888D02*
X13966429Y-12617936D01*
X13966429Y-12617936D02*
X13956906Y-12627460D01*
X13956906Y-12627460D02*
X13937858Y-12636984D01*
X13937858Y-12636984D02*
X13918810Y-12636984D01*
X13918810Y-12636984D02*
X13899763Y-12627460D01*
X13899763Y-12627460D02*
X13890239Y-12617936D01*
X13890239Y-12617936D02*
X13880715Y-12598888D01*
X13880715Y-12598888D02*
X13871191Y-12560793D01*
X13871191Y-12560793D02*
X13871191Y-12513174D01*
X13871191Y-12513174D02*
X13880715Y-12475079D01*
X13880715Y-12475079D02*
X13890239Y-12456031D01*
X13890239Y-12456031D02*
X13899763Y-12446508D01*
X13899763Y-12446508D02*
X13918810Y-12436984D01*
X14109287Y-12436984D02*
X14128334Y-12436984D01*
X14128334Y-12436984D02*
X14147382Y-12446508D01*
X14147382Y-12446508D02*
X14156906Y-12456031D01*
X14156906Y-12456031D02*
X14166429Y-12475079D01*
X14166429Y-12475079D02*
X14175953Y-12513174D01*
X14175953Y-12513174D02*
X14175953Y-12560793D01*
X14175953Y-12560793D02*
X14166429Y-12598888D01*
X14166429Y-12598888D02*
X14156906Y-12617936D01*
X14156906Y-12617936D02*
X14147382Y-12627460D01*
X14147382Y-12627460D02*
X14128334Y-12636984D01*
X14128334Y-12636984D02*
X14109287Y-12636984D01*
X14109287Y-12636984D02*
X14090239Y-12627460D01*
X14090239Y-12627460D02*
X14080715Y-12617936D01*
X14080715Y-12617936D02*
X14071191Y-12598888D01*
X14071191Y-12598888D02*
X14061668Y-12560793D01*
X14061668Y-12560793D02*
X14061668Y-12513174D01*
X14061668Y-12513174D02*
X14071191Y-12475079D01*
X14071191Y-12475079D02*
X14080715Y-12456031D01*
X14080715Y-12456031D02*
X14090239Y-12446508D01*
X14090239Y-12446508D02*
X14109287Y-12436984D01*
X14261668Y-12636984D02*
X14261668Y-12503650D01*
X14261668Y-12522698D02*
X14271191Y-12513174D01*
X14271191Y-12513174D02*
X14290239Y-12503650D01*
X14290239Y-12503650D02*
X14318810Y-12503650D01*
X14318810Y-12503650D02*
X14337858Y-12513174D01*
X14337858Y-12513174D02*
X14347382Y-12532222D01*
X14347382Y-12532222D02*
X14347382Y-12636984D01*
X14347382Y-12532222D02*
X14356906Y-12513174D01*
X14356906Y-12513174D02*
X14375953Y-12503650D01*
X14375953Y-12503650D02*
X14404525Y-12503650D01*
X14404525Y-12503650D02*
X14423572Y-12513174D01*
X14423572Y-12513174D02*
X14433096Y-12532222D01*
X14433096Y-12532222D02*
X14433096Y-12636984D01*
X14528334Y-12636984D02*
X14528334Y-12503650D01*
X14528334Y-12522698D02*
X14537858Y-12513174D01*
X14537858Y-12513174D02*
X14556906Y-12503650D01*
X14556906Y-12503650D02*
X14585477Y-12503650D01*
X14585477Y-12503650D02*
X14604525Y-12513174D01*
X14604525Y-12513174D02*
X14614049Y-12532222D01*
X14614049Y-12532222D02*
X14614049Y-12636984D01*
X14614049Y-12532222D02*
X14623572Y-12513174D01*
X14623572Y-12513174D02*
X14642620Y-12503650D01*
X14642620Y-12503650D02*
X14671191Y-12503650D01*
X14671191Y-12503650D02*
X14690239Y-12513174D01*
X14690239Y-12513174D02*
X14699763Y-12532222D01*
X14699763Y-12532222D02*
X14699763Y-12636984D01*
X15090239Y-12427460D02*
X14918811Y-12684603D01*
X15347382Y-12436984D02*
X15366430Y-12436984D01*
X15366430Y-12436984D02*
X15385477Y-12446508D01*
X15385477Y-12446508D02*
X15395001Y-12456031D01*
X15395001Y-12456031D02*
X15404525Y-12475079D01*
X15404525Y-12475079D02*
X15414049Y-12513174D01*
X15414049Y-12513174D02*
X15414049Y-12560793D01*
X15414049Y-12560793D02*
X15404525Y-12598888D01*
X15404525Y-12598888D02*
X15395001Y-12617936D01*
X15395001Y-12617936D02*
X15385477Y-12627460D01*
X15385477Y-12627460D02*
X15366430Y-12636984D01*
X15366430Y-12636984D02*
X15347382Y-12636984D01*
X15347382Y-12636984D02*
X15328334Y-12627460D01*
X15328334Y-12627460D02*
X15318811Y-12617936D01*
X15318811Y-12617936D02*
X15309287Y-12598888D01*
X15309287Y-12598888D02*
X15299763Y-12560793D01*
X15299763Y-12560793D02*
X15299763Y-12513174D01*
X15299763Y-12513174D02*
X15309287Y-12475079D01*
X15309287Y-12475079D02*
X15318811Y-12456031D01*
X15318811Y-12456031D02*
X15328334Y-12446508D01*
X15328334Y-12446508D02*
X15347382Y-12436984D01*
X15499763Y-12617936D02*
X15509287Y-12627460D01*
X15509287Y-12627460D02*
X15499763Y-12636984D01*
X15499763Y-12636984D02*
X15490239Y-12627460D01*
X15490239Y-12627460D02*
X15499763Y-12617936D01*
X15499763Y-12617936D02*
X15499763Y-12636984D01*
X15633096Y-12436984D02*
X15652144Y-12436984D01*
X15652144Y-12436984D02*
X15671192Y-12446508D01*
X15671192Y-12446508D02*
X15680715Y-12456031D01*
X15680715Y-12456031D02*
X15690239Y-12475079D01*
X15690239Y-12475079D02*
X15699763Y-12513174D01*
X15699763Y-12513174D02*
X15699763Y-12560793D01*
X15699763Y-12560793D02*
X15690239Y-12598888D01*
X15690239Y-12598888D02*
X15680715Y-12617936D01*
X15680715Y-12617936D02*
X15671192Y-12627460D01*
X15671192Y-12627460D02*
X15652144Y-12636984D01*
X15652144Y-12636984D02*
X15633096Y-12636984D01*
X15633096Y-12636984D02*
X15614049Y-12627460D01*
X15614049Y-12627460D02*
X15604525Y-12617936D01*
X15604525Y-12617936D02*
X15595001Y-12598888D01*
X15595001Y-12598888D02*
X15585477Y-12560793D01*
X15585477Y-12560793D02*
X15585477Y-12513174D01*
X15585477Y-12513174D02*
X15595001Y-12475079D01*
X15595001Y-12475079D02*
X15604525Y-12456031D01*
X15604525Y-12456031D02*
X15614049Y-12446508D01*
X15614049Y-12446508D02*
X15633096Y-12436984D01*
X15775953Y-12456031D02*
X15785477Y-12446508D01*
X15785477Y-12446508D02*
X15804525Y-12436984D01*
X15804525Y-12436984D02*
X15852144Y-12436984D01*
X15852144Y-12436984D02*
X15871192Y-12446508D01*
X15871192Y-12446508D02*
X15880715Y-12456031D01*
X15880715Y-12456031D02*
X15890239Y-12475079D01*
X15890239Y-12475079D02*
X15890239Y-12494127D01*
X15890239Y-12494127D02*
X15880715Y-12522698D01*
X15880715Y-12522698D02*
X15766430Y-12636984D01*
X15766430Y-12636984D02*
X15890239Y-12636984D01*
X15956906Y-12436984D02*
X16080715Y-12436984D01*
X16080715Y-12436984D02*
X16014049Y-12513174D01*
X16014049Y-12513174D02*
X16042620Y-12513174D01*
X16042620Y-12513174D02*
X16061668Y-12522698D01*
X16061668Y-12522698D02*
X16071192Y-12532222D01*
X16071192Y-12532222D02*
X16080715Y-12551269D01*
X16080715Y-12551269D02*
X16080715Y-12598888D01*
X16080715Y-12598888D02*
X16071192Y-12617936D01*
X16071192Y-12617936D02*
X16061668Y-12627460D01*
X16061668Y-12627460D02*
X16042620Y-12636984D01*
X16042620Y-12636984D02*
X15985477Y-12636984D01*
X15985477Y-12636984D02*
X15966430Y-12627460D01*
X15966430Y-12627460D02*
X15956906Y-12617936D01*
X16252144Y-12436984D02*
X16214049Y-12436984D01*
X16214049Y-12436984D02*
X16195001Y-12446508D01*
X16195001Y-12446508D02*
X16185477Y-12456031D01*
X16185477Y-12456031D02*
X16166430Y-12484603D01*
X16166430Y-12484603D02*
X16156906Y-12522698D01*
X16156906Y-12522698D02*
X16156906Y-12598888D01*
X16156906Y-12598888D02*
X16166430Y-12617936D01*
X16166430Y-12617936D02*
X16175953Y-12627460D01*
X16175953Y-12627460D02*
X16195001Y-12636984D01*
X16195001Y-12636984D02*
X16233096Y-12636984D01*
X16233096Y-12636984D02*
X16252144Y-12627460D01*
X16252144Y-12627460D02*
X16261668Y-12617936D01*
X16261668Y-12617936D02*
X16271192Y-12598888D01*
X16271192Y-12598888D02*
X16271192Y-12551269D01*
X16271192Y-12551269D02*
X16261668Y-12532222D01*
X16261668Y-12532222D02*
X16252144Y-12522698D01*
X16252144Y-12522698D02*
X16233096Y-12513174D01*
X16233096Y-12513174D02*
X16195001Y-12513174D01*
X16195001Y-12513174D02*
X16175953Y-12522698D01*
X16175953Y-12522698D02*
X16166430Y-12532222D01*
X16166430Y-12532222D02*
X16156906Y-12551269D01*
X16347382Y-12436984D02*
X16347382Y-12475079D01*
X16423573Y-12436984D02*
X16423573Y-12475079D01*
X16718811Y-12713174D02*
X16709287Y-12703650D01*
X16709287Y-12703650D02*
X16690239Y-12675079D01*
X16690239Y-12675079D02*
X16680715Y-12656031D01*
X16680715Y-12656031D02*
X16671192Y-12627460D01*
X16671192Y-12627460D02*
X16661668Y-12579841D01*
X16661668Y-12579841D02*
X16661668Y-12541746D01*
X16661668Y-12541746D02*
X16671192Y-12494127D01*
X16671192Y-12494127D02*
X16680715Y-12465555D01*
X16680715Y-12465555D02*
X16690239Y-12446508D01*
X16690239Y-12446508D02*
X16709287Y-12417936D01*
X16709287Y-12417936D02*
X16718811Y-12408412D01*
X16833096Y-12436984D02*
X16852144Y-12436984D01*
X16852144Y-12436984D02*
X16871192Y-12446508D01*
X16871192Y-12446508D02*
X16880716Y-12456031D01*
X16880716Y-12456031D02*
X16890239Y-12475079D01*
X16890239Y-12475079D02*
X16899763Y-12513174D01*
X16899763Y-12513174D02*
X16899763Y-12560793D01*
X16899763Y-12560793D02*
X16890239Y-12598888D01*
X16890239Y-12598888D02*
X16880716Y-12617936D01*
X16880716Y-12617936D02*
X16871192Y-12627460D01*
X16871192Y-12627460D02*
X16852144Y-12636984D01*
X16852144Y-12636984D02*
X16833096Y-12636984D01*
X16833096Y-12636984D02*
X16814049Y-12627460D01*
X16814049Y-12627460D02*
X16804525Y-12617936D01*
X16804525Y-12617936D02*
X16795001Y-12598888D01*
X16795001Y-12598888D02*
X16785477Y-12560793D01*
X16785477Y-12560793D02*
X16785477Y-12513174D01*
X16785477Y-12513174D02*
X16795001Y-12475079D01*
X16795001Y-12475079D02*
X16804525Y-12456031D01*
X16804525Y-12456031D02*
X16814049Y-12446508D01*
X16814049Y-12446508D02*
X16833096Y-12436984D01*
X17137858Y-12636984D02*
X17137858Y-12436984D01*
X17223573Y-12636984D02*
X17223573Y-12532222D01*
X17223573Y-12532222D02*
X17214049Y-12513174D01*
X17214049Y-12513174D02*
X17195001Y-12503650D01*
X17195001Y-12503650D02*
X17166430Y-12503650D01*
X17166430Y-12503650D02*
X17147382Y-12513174D01*
X17147382Y-12513174D02*
X17137858Y-12522698D01*
X17347382Y-12636984D02*
X17328335Y-12627460D01*
X17328335Y-12627460D02*
X17318811Y-12617936D01*
X17318811Y-12617936D02*
X17309287Y-12598888D01*
X17309287Y-12598888D02*
X17309287Y-12541746D01*
X17309287Y-12541746D02*
X17318811Y-12522698D01*
X17318811Y-12522698D02*
X17328335Y-12513174D01*
X17328335Y-12513174D02*
X17347382Y-12503650D01*
X17347382Y-12503650D02*
X17375954Y-12503650D01*
X17375954Y-12503650D02*
X17395001Y-12513174D01*
X17395001Y-12513174D02*
X17404525Y-12522698D01*
X17404525Y-12522698D02*
X17414049Y-12541746D01*
X17414049Y-12541746D02*
X17414049Y-12598888D01*
X17414049Y-12598888D02*
X17404525Y-12617936D01*
X17404525Y-12617936D02*
X17395001Y-12627460D01*
X17395001Y-12627460D02*
X17375954Y-12636984D01*
X17375954Y-12636984D02*
X17347382Y-12636984D01*
X17528335Y-12636984D02*
X17509287Y-12627460D01*
X17509287Y-12627460D02*
X17499763Y-12608412D01*
X17499763Y-12608412D02*
X17499763Y-12436984D01*
X17680716Y-12627460D02*
X17661668Y-12636984D01*
X17661668Y-12636984D02*
X17623573Y-12636984D01*
X17623573Y-12636984D02*
X17604525Y-12627460D01*
X17604525Y-12627460D02*
X17595001Y-12608412D01*
X17595001Y-12608412D02*
X17595001Y-12532222D01*
X17595001Y-12532222D02*
X17604525Y-12513174D01*
X17604525Y-12513174D02*
X17623573Y-12503650D01*
X17623573Y-12503650D02*
X17661668Y-12503650D01*
X17661668Y-12503650D02*
X17680716Y-12513174D01*
X17680716Y-12513174D02*
X17690239Y-12532222D01*
X17690239Y-12532222D02*
X17690239Y-12551269D01*
X17690239Y-12551269D02*
X17595001Y-12570317D01*
X17766430Y-12627460D02*
X17785478Y-12636984D01*
X17785478Y-12636984D02*
X17823573Y-12636984D01*
X17823573Y-12636984D02*
X17842620Y-12627460D01*
X17842620Y-12627460D02*
X17852144Y-12608412D01*
X17852144Y-12608412D02*
X17852144Y-12598888D01*
X17852144Y-12598888D02*
X17842620Y-12579841D01*
X17842620Y-12579841D02*
X17823573Y-12570317D01*
X17823573Y-12570317D02*
X17795001Y-12570317D01*
X17795001Y-12570317D02*
X17775954Y-12560793D01*
X17775954Y-12560793D02*
X17766430Y-12541746D01*
X17766430Y-12541746D02*
X17766430Y-12532222D01*
X17766430Y-12532222D02*
X17775954Y-12513174D01*
X17775954Y-12513174D02*
X17795001Y-12503650D01*
X17795001Y-12503650D02*
X17823573Y-12503650D01*
X17823573Y-12503650D02*
X17842620Y-12513174D01*
X18090240Y-12560793D02*
X18242621Y-12560793D01*
X18166430Y-12636984D02*
X18166430Y-12484603D01*
X18575954Y-12503650D02*
X18575954Y-12636984D01*
X18528335Y-12427460D02*
X18480716Y-12570317D01*
X18480716Y-12570317D02*
X18604525Y-12570317D01*
X18823573Y-12627460D02*
X18842621Y-12636984D01*
X18842621Y-12636984D02*
X18880716Y-12636984D01*
X18880716Y-12636984D02*
X18899763Y-12627460D01*
X18899763Y-12627460D02*
X18909287Y-12608412D01*
X18909287Y-12608412D02*
X18909287Y-12598888D01*
X18909287Y-12598888D02*
X18899763Y-12579841D01*
X18899763Y-12579841D02*
X18880716Y-12570317D01*
X18880716Y-12570317D02*
X18852144Y-12570317D01*
X18852144Y-12570317D02*
X18833097Y-12560793D01*
X18833097Y-12560793D02*
X18823573Y-12541746D01*
X18823573Y-12541746D02*
X18823573Y-12532222D01*
X18823573Y-12532222D02*
X18833097Y-12513174D01*
X18833097Y-12513174D02*
X18852144Y-12503650D01*
X18852144Y-12503650D02*
X18880716Y-12503650D01*
X18880716Y-12503650D02*
X18899763Y-12513174D01*
X19023573Y-12636984D02*
X19004525Y-12627460D01*
X19004525Y-12627460D02*
X18995002Y-12608412D01*
X18995002Y-12608412D02*
X18995002Y-12436984D01*
X19128335Y-12636984D02*
X19109287Y-12627460D01*
X19109287Y-12627460D02*
X19099763Y-12617936D01*
X19099763Y-12617936D02*
X19090240Y-12598888D01*
X19090240Y-12598888D02*
X19090240Y-12541746D01*
X19090240Y-12541746D02*
X19099763Y-12522698D01*
X19099763Y-12522698D02*
X19109287Y-12513174D01*
X19109287Y-12513174D02*
X19128335Y-12503650D01*
X19128335Y-12503650D02*
X19156906Y-12503650D01*
X19156906Y-12503650D02*
X19175954Y-12513174D01*
X19175954Y-12513174D02*
X19185478Y-12522698D01*
X19185478Y-12522698D02*
X19195002Y-12541746D01*
X19195002Y-12541746D02*
X19195002Y-12598888D01*
X19195002Y-12598888D02*
X19185478Y-12617936D01*
X19185478Y-12617936D02*
X19175954Y-12627460D01*
X19175954Y-12627460D02*
X19156906Y-12636984D01*
X19156906Y-12636984D02*
X19128335Y-12636984D01*
X19252144Y-12503650D02*
X19328335Y-12503650D01*
X19280716Y-12436984D02*
X19280716Y-12608412D01*
X19280716Y-12608412D02*
X19290240Y-12627460D01*
X19290240Y-12627460D02*
X19309287Y-12636984D01*
X19309287Y-12636984D02*
X19328335Y-12636984D01*
X19385478Y-12627460D02*
X19404525Y-12636984D01*
X19404525Y-12636984D02*
X19442621Y-12636984D01*
X19442621Y-12636984D02*
X19461668Y-12627460D01*
X19461668Y-12627460D02*
X19471192Y-12608412D01*
X19471192Y-12608412D02*
X19471192Y-12598888D01*
X19471192Y-12598888D02*
X19461668Y-12579841D01*
X19461668Y-12579841D02*
X19442621Y-12570317D01*
X19442621Y-12570317D02*
X19414049Y-12570317D01*
X19414049Y-12570317D02*
X19395002Y-12560793D01*
X19395002Y-12560793D02*
X19385478Y-12541746D01*
X19385478Y-12541746D02*
X19385478Y-12532222D01*
X19385478Y-12532222D02*
X19395002Y-12513174D01*
X19395002Y-12513174D02*
X19414049Y-12503650D01*
X19414049Y-12503650D02*
X19442621Y-12503650D01*
X19442621Y-12503650D02*
X19461668Y-12513174D01*
X19537859Y-12713174D02*
X19547383Y-12703650D01*
X19547383Y-12703650D02*
X19566430Y-12675079D01*
X19566430Y-12675079D02*
X19575954Y-12656031D01*
X19575954Y-12656031D02*
X19585478Y-12627460D01*
X19585478Y-12627460D02*
X19595002Y-12579841D01*
X19595002Y-12579841D02*
X19595002Y-12541746D01*
X19595002Y-12541746D02*
X19585478Y-12494127D01*
X19585478Y-12494127D02*
X19575954Y-12465555D01*
X19575954Y-12465555D02*
X19566430Y-12446508D01*
X19566430Y-12446508D02*
X19547383Y-12417936D01*
X19547383Y-12417936D02*
X19537859Y-12408412D01*
M02*
