M48
; DRILL file {KiCad 8.0.1} date 2025-02-17T15:06:22+0500
; FORMAT={-:-/ absolute / metric / decimal}
; #@! TF.CreationDate,2025-02-17T15:06:22+05:00
; #@! TF.GenerationSoftware,Kicad,Pcbnew,8.0.1
; #@! TF.FileFunction,Plated,1,6,PTH
FMAT,2
METRIC
; #@! TA.AperFunction,Plated,PTH,ViaDrill
T1C0.200
; #@! TA.AperFunction,Plated,PTH,ViaDrill
T2C0.300
; #@! TA.AperFunction,Plated,PTH,ComponentDrill
T3C0.600
%
G90
G05
T1
X133.215Y-67.615
X133.215Y-70.155
X133.215Y-72.695
X133.215Y-75.235
X133.215Y-82.855
X133.215Y-98.095
X133.215Y-105.715
X133.215Y-108.255
X135.755Y-65.075
X135.755Y-72.695
X135.755Y-103.175
X135.755Y-105.715
X135.755Y-110.795
X136.8Y-95.25
X137.475Y-95.575
X138.295Y-65.075
X138.295Y-67.615
X138.295Y-70.155
X138.295Y-72.695
X138.295Y-108.255
X138.295Y-110.795
X138.5Y-95.4
X139.025Y-95.05
X139.725Y-93.875
X139.975Y-94.375
X140.5Y-96.64
X140.6Y-97.2
X140.835Y-65.075
X140.835Y-67.615
X140.835Y-70.155
X140.835Y-108.255
X140.835Y-110.795
X140.9Y-95.2
X140.974Y-95.797
X141.4Y-89.8
X141.75Y-90.35
X142.225Y-86.95
X142.375Y-87.65
X142.575Y-90.75
X142.6Y-90.25
X142.8Y-91.525
X142.9Y-87.375
X143.225Y-91.9
X143.375Y-65.075
X143.375Y-67.615
X143.375Y-70.155
X143.5Y-86.225
X143.6Y-92.8
X144.05Y-93.25
X145.915Y-65.075
X145.915Y-67.615
X145.915Y-70.155
X147.35Y-96.625
X148.0Y-94.625
X148.455Y-65.075
X148.455Y-67.615
X148.455Y-70.155
X148.55Y-94.575
X149.075Y-81.875
X149.275Y-87.125
X149.75Y-86.775
X150.3Y-96.175
X150.45Y-95.6
X150.75Y-94.45
X150.925Y-93.875
X150.995Y-65.075
X150.995Y-67.615
X150.995Y-70.155
X150.995Y-72.695
X150.995Y-75.235
X150.995Y-103.175
X151.125Y-95.1
X151.625Y-95.35
X151.75Y-100.475
X151.775Y-99.825
X153.15Y-99.4
X153.535Y-65.075
X153.535Y-72.695
X153.535Y-90.475
X153.535Y-93.015
X153.535Y-110.795
X154.05Y-97.65
X154.25Y-98.35
X155.375Y-90.35
X156.075Y-110.795
X156.375Y-96.575
X156.4Y-95.1
X156.4Y-95.8
X157.5Y-98.675
X157.8Y-97.525
X158.025Y-89.625
X158.615Y-110.795
X158.725Y-99.675
X160.425Y-98.125
X161.155Y-77.775
X161.155Y-80.315
X162.3Y-90.3
X162.5Y-92.3
X162.7Y-92.9
X162.8Y-90.1
X163.0Y-90.6
X163.0Y-91.6
X163.1Y-91.1
X163.525Y-97.975
X163.6Y-90.5
X163.695Y-65.075
X163.695Y-67.615
X163.695Y-72.695
X163.695Y-75.235
X163.695Y-77.775
X163.695Y-80.315
X163.695Y-85.395
X163.695Y-103.175
X163.695Y-105.715
X163.695Y-108.255
X163.695Y-110.795
X164.4Y-93.3
X164.7Y-81.55
X164.8Y-92.9
X165.1Y-87.9
X165.125Y-82.0
X165.4Y-88.4
X165.725Y-82.65
X165.8Y-92.8
X165.85Y-83.525
X165.9Y-82.075
X165.95Y-84.475
X166.235Y-65.075
X166.235Y-67.615
X166.235Y-70.155
X166.235Y-110.795
X166.275Y-85.0
X166.3Y-83.125
X168.775Y-65.075
X168.775Y-67.615
X168.775Y-70.155
X168.775Y-85.395
X168.775Y-87.935
X168.775Y-93.015
X168.775Y-110.795
X171.315Y-65.075
X171.315Y-67.615
X171.315Y-70.155
X171.315Y-85.395
X171.315Y-93.015
X171.315Y-110.795
X173.855Y-65.075
X173.855Y-67.615
X173.855Y-70.155
X173.855Y-82.855
X173.855Y-93.015
X173.855Y-108.255
X173.855Y-110.795
X176.395Y-65.075
X176.395Y-72.695
X176.395Y-93.015
X176.395Y-110.795
X178.6Y-85.4
X178.7Y-87.4
X178.935Y-67.615
X178.935Y-70.155
X178.935Y-72.695
X178.935Y-93.015
X178.935Y-103.175
X178.935Y-105.715
X178.935Y-108.255
T2
X132.8Y-79.9
X133.5Y-79.4
X134.05Y-86.95
X134.15Y-90.25
X134.2Y-100.05
X134.3Y-96.7
X134.4Y-77.1
X134.6Y-83.7
X135.0Y-77.6
X135.3Y-84.1
X135.9Y-78.5
X136.1Y-84.0
X136.8Y-83.4
X136.8Y-93.725
X137.45Y-87.7
X137.9Y-88.85
X138.9Y-82.1
X139.5Y-82.8
X140.1Y-83.5
X140.4Y-81.3
X140.7Y-84.1
X141.1Y-75.65
X141.6Y-80.2
X142.2Y-110.9
X142.3Y-109.9
X142.6Y-88.325
X142.7Y-75.8
X142.9Y-107.6
X143.1Y-101.7
X143.8Y-107.6
X143.925Y-85.65
X144.8Y-101.6
X144.9Y-94.1
X145.1Y-75.85
X145.175Y-85.65
X145.175Y-86.7
X145.7Y-93.9
X145.8Y-94.7
X145.9Y-87.3
X146.5Y-95.3
X146.6Y-94.45
X146.8Y-89.35
X147.325Y-95.175
X147.6Y-75.9
X147.7Y-101.1
X147.95Y-88.025
X147.975Y-95.85
X148.3Y-101.6
X148.75Y-89.6
X148.75Y-95.85
X148.9Y-109.7
X149.15Y-91.1
X149.5Y-112.1
X150.4Y-112.1
X150.55Y-89.825
X151.95Y-104.5
X152.5Y-75.2
X152.75Y-88.2
X152.95Y-103.8
X153.2Y-75.8
X153.275Y-74.675
X153.65Y-67.0
X154.2Y-76.7
X154.675Y-67.025
X154.7Y-77.6
X155.45Y-67.525
X155.8Y-76.9
X156.075Y-90.45
X156.5Y-103.7
X156.6Y-67.5
X157.025Y-76.025
X157.125Y-75.125
X157.3Y-107.5
X157.4Y-89.4
X157.75Y-71.65
X157.825Y-67.525
X158.1Y-79.2
X158.1Y-107.4
X158.925Y-71.875
X159.1Y-67.5
X159.475Y-103.8
X159.9Y-100.1
X160.3Y-67.075
X160.475Y-104.575
X160.6Y-74.775
X160.7Y-95.8
X160.8Y-93.6
X160.8Y-100.1
X161.3Y-93.1
X161.4Y-95.2
X161.7Y-74.8
X161.8Y-100.1
X161.9Y-71.275
X161.9Y-92.6
X162.6Y-100.1
X162.875Y-71.225
X165.175Y-108.175
X165.275Y-106.85
X165.625Y-101.275
X167.925Y-106.925
X167.95Y-108.15
X168.25Y-101.325
X170.35Y-107.0
X170.4Y-108.15
X170.775Y-101.275
X172.35Y-108.15
X172.525Y-106.9
X173.3Y-101.25
X175.0Y-79.8
X175.6Y-76.2
X175.7Y-79.0
X175.8Y-77.3
X176.3Y-80.3
X176.7Y-78.0
X176.9Y-76.3
X177.0Y-79.1
X177.675Y-97.025
X177.675Y-98.725
X177.7Y-100.625
X177.8Y-80.3
X177.9Y-77.8
X178.2Y-76.3
X178.3Y-78.9
X179.2Y-100.525
X179.225Y-96.975
X179.225Y-98.7
X179.4Y-76.4
X179.5Y-77.6
X179.5Y-78.9
X179.5Y-80.3
T3
X152.005Y-105.795G85X152.005Y-106.895
G05
X152.005Y-110.225G85X152.005Y-110.825
G05
X160.645Y-105.795G85X160.645Y-106.895
G05
X160.645Y-110.225G85X160.645Y-110.825
G05
M30
