G04 #@! TF.GenerationSoftware,KiCad,Pcbnew,8.0.1*
G04 #@! TF.CreationDate,2025-02-17T15:06:08+05:00*
G04 #@! TF.ProjectId,brain_board,62726169-6e5f-4626-9f61-72642e6b6963,rev?*
G04 #@! TF.SameCoordinates,Original*
G04 #@! TF.FileFunction,Legend,Top*
G04 #@! TF.FilePolarity,Positive*
%FSLAX46Y46*%
G04 Gerber Fmt 4.6, Leading zero omitted, Abs format (unit mm)*
G04 Created by KiCad (PCBNEW 8.0.1) date 2025-02-17 15:06:08*
%MOMM*%
%LPD*%
G01*
G04 APERTURE LIST*
G04 Aperture macros list*
%AMRoundRect*
0 Rectangle with rounded corners*
0 $1 Rounding radius*
0 $2 $3 $4 $5 $6 $7 $8 $9 X,Y pos of 4 corners*
0 Add a 4 corners polygon primitive as box body*
4,1,4,$2,$3,$4,$5,$6,$7,$8,$9,$2,$3,0*
0 Add four circle primitives for the rounded corners*
1,1,$1+$1,$2,$3*
1,1,$1+$1,$4,$5*
1,1,$1+$1,$6,$7*
1,1,$1+$1,$8,$9*
0 Add four rect primitives between the rounded corners*
20,1,$1+$1,$2,$3,$4,$5,0*
20,1,$1+$1,$4,$5,$6,$7,0*
20,1,$1+$1,$6,$7,$8,$9,0*
20,1,$1+$1,$8,$9,$2,$3,0*%
%AMRotRect*
0 Rectangle, with rotation*
0 The origin of the aperture is its center*
0 $1 length*
0 $2 width*
0 $3 Rotation angle, in degrees counterclockwise*
0 Add horizontal line*
21,1,$1,$2,0,0,$3*%
%AMFreePoly0*
4,1,6,0.499999,-0.750000,-0.649999,-0.750000,-0.150000,0.000000,-0.649999,0.750000,0.499999,0.750000,0.499999,-0.750000,0.499999,-0.750000,$1*%
%AMFreePoly1*
4,1,6,1.000000,0.000000,0.499999,-0.750000,-0.499999,-0.750000,-0.499999,0.750000,0.499999,0.750000,1.000000,0.000000,1.000000,0.000000,$1*%
G04 Aperture macros list end*
%ADD10C,0.125000*%
%ADD11C,0.120000*%
%ADD12C,0.100000*%
%ADD13R,1.000000X3.000000*%
%ADD14RoundRect,0.225000X-0.017678X0.335876X-0.335876X0.017678X0.017678X-0.335876X0.335876X-0.017678X0*%
%ADD15RoundRect,0.200000X-0.053033X0.335876X-0.335876X0.053033X0.053033X-0.335876X0.335876X-0.053033X0*%
%ADD16RoundRect,0.225000X0.225000X0.250000X-0.225000X0.250000X-0.225000X-0.250000X0.225000X-0.250000X0*%
%ADD17RotRect,0.500000X0.600000X45.000000*%
%ADD18RoundRect,0.225000X0.335876X0.017678X0.017678X0.335876X-0.335876X-0.017678X-0.017678X-0.335876X0*%
%ADD19RoundRect,0.147500X-0.147500X-0.172500X0.147500X-0.172500X0.147500X0.172500X-0.147500X0.172500X0*%
%ADD20RoundRect,0.200000X0.275000X-0.200000X0.275000X0.200000X-0.275000X0.200000X-0.275000X-0.200000X0*%
%ADD21C,2.200000*%
%ADD22RoundRect,0.225000X0.017678X-0.335876X0.335876X-0.017678X-0.017678X0.335876X-0.335876X0.017678X0*%
%ADD23RoundRect,0.250000X0.250000X1.100000X-0.250000X1.100000X-0.250000X-1.100000X0.250000X-1.100000X0*%
%ADD24RoundRect,0.150000X0.150000X0.700000X-0.150000X0.700000X-0.150000X-0.700000X0.150000X-0.700000X0*%
%ADD25RoundRect,0.225000X-0.335876X-0.017678X-0.017678X-0.335876X0.335876X0.017678X0.017678X0.335876X0*%
%ADD26RoundRect,0.200000X0.053033X-0.335876X0.335876X-0.053033X-0.053033X0.335876X-0.335876X0.053033X0*%
%ADD27C,1.000000*%
%ADD28RoundRect,0.225000X0.250000X-0.225000X0.250000X0.225000X-0.250000X0.225000X-0.250000X-0.225000X0*%
%ADD29RoundRect,0.075000X-0.565685X-0.459619X-0.459619X-0.565685X0.565685X0.459619X0.459619X0.565685X0*%
%ADD30RoundRect,0.075000X-0.565685X0.459619X0.459619X-0.565685X0.565685X-0.459619X-0.459619X0.565685X0*%
%ADD31FreePoly0,225.000000*%
%ADD32FreePoly1,225.000000*%
%ADD33O,1.000000X1.600000*%
%ADD34O,1.000000X2.100000*%
%ADD35R,0.600000X1.450000*%
%ADD36R,0.300000X1.450000*%
%ADD37C,0.650000*%
%ADD38RoundRect,0.237500X-0.237500X0.300000X-0.237500X-0.300000X0.237500X-0.300000X0.237500X0.300000X0*%
%ADD39RoundRect,0.200000X0.335876X0.053033X0.053033X0.335876X-0.335876X-0.053033X-0.053033X-0.335876X0*%
%ADD40RoundRect,0.150000X0.150000X-0.512500X0.150000X0.512500X-0.150000X0.512500X-0.150000X-0.512500X0*%
%ADD41RoundRect,0.200000X-0.200000X-0.800000X0.200000X-0.800000X0.200000X0.800000X-0.200000X0.800000X0*%
%ADD42RoundRect,0.150000X0.512500X0.150000X-0.512500X0.150000X-0.512500X-0.150000X0.512500X-0.150000X0*%
G04 APERTURE END LIST*
D10*
X161862423Y-90709349D02*
X161828751Y-90709349D01*
X161828751Y-90709349D02*
X161761407Y-90675677D01*
X161761407Y-90675677D02*
X161727736Y-90642005D01*
X161727736Y-90642005D02*
X161694064Y-90574662D01*
X161694064Y-90574662D02*
X161694064Y-90507318D01*
X161694064Y-90507318D02*
X161710900Y-90456811D01*
X161710900Y-90456811D02*
X161761407Y-90372631D01*
X161761407Y-90372631D02*
X161811915Y-90322124D01*
X161811915Y-90322124D02*
X161896094Y-90271616D01*
X161896094Y-90271616D02*
X161946602Y-90254780D01*
X161946602Y-90254780D02*
X162013945Y-90254780D01*
X162013945Y-90254780D02*
X162081289Y-90288452D01*
X162081289Y-90288452D02*
X162114961Y-90322124D01*
X162114961Y-90322124D02*
X162148632Y-90389467D01*
X162148632Y-90389467D02*
X162148632Y-90423139D01*
X162300155Y-90507318D02*
X162519022Y-90726185D01*
X162519022Y-90726185D02*
X162266484Y-90743020D01*
X162266484Y-90743020D02*
X162316991Y-90793528D01*
X162316991Y-90793528D02*
X162333827Y-90844036D01*
X162333827Y-90844036D02*
X162333827Y-90877707D01*
X162333827Y-90877707D02*
X162316991Y-90928215D01*
X162316991Y-90928215D02*
X162232812Y-91012394D01*
X162232812Y-91012394D02*
X162182304Y-91029230D01*
X162182304Y-91029230D02*
X162148632Y-91029230D01*
X162148632Y-91029230D02*
X162098125Y-91012394D01*
X162098125Y-91012394D02*
X161997110Y-90911379D01*
X161997110Y-90911379D02*
X161980274Y-90860872D01*
X161980274Y-90860872D02*
X161980274Y-90827200D01*
X156182110Y-77800038D02*
X156232617Y-77513829D01*
X155980079Y-77598008D02*
X156333633Y-77244455D01*
X156333633Y-77244455D02*
X156468320Y-77379142D01*
X156468320Y-77379142D02*
X156485156Y-77429649D01*
X156485156Y-77429649D02*
X156485156Y-77463321D01*
X156485156Y-77463321D02*
X156468320Y-77513829D01*
X156468320Y-77513829D02*
X156417812Y-77564336D01*
X156417812Y-77564336D02*
X156367304Y-77581172D01*
X156367304Y-77581172D02*
X156333633Y-77581172D01*
X156333633Y-77581172D02*
X156283125Y-77564336D01*
X156283125Y-77564336D02*
X156148438Y-77429649D01*
X156653514Y-77564336D02*
X156872381Y-77783203D01*
X156872381Y-77783203D02*
X156619843Y-77800038D01*
X156619843Y-77800038D02*
X156670350Y-77850546D01*
X156670350Y-77850546D02*
X156687186Y-77901054D01*
X156687186Y-77901054D02*
X156687186Y-77934725D01*
X156687186Y-77934725D02*
X156670350Y-77985233D01*
X156670350Y-77985233D02*
X156586171Y-78069412D01*
X156586171Y-78069412D02*
X156535663Y-78086248D01*
X156535663Y-78086248D02*
X156501991Y-78086248D01*
X156501991Y-78086248D02*
X156451484Y-78069412D01*
X156451484Y-78069412D02*
X156350469Y-77968397D01*
X156350469Y-77968397D02*
X156333633Y-77917890D01*
X156333633Y-77917890D02*
X156333633Y-77884218D01*
X154903571Y-76632190D02*
X154879762Y-76656000D01*
X154879762Y-76656000D02*
X154808333Y-76679809D01*
X154808333Y-76679809D02*
X154760714Y-76679809D01*
X154760714Y-76679809D02*
X154689286Y-76656000D01*
X154689286Y-76656000D02*
X154641667Y-76608380D01*
X154641667Y-76608380D02*
X154617857Y-76560761D01*
X154617857Y-76560761D02*
X154594048Y-76465523D01*
X154594048Y-76465523D02*
X154594048Y-76394095D01*
X154594048Y-76394095D02*
X154617857Y-76298857D01*
X154617857Y-76298857D02*
X154641667Y-76251238D01*
X154641667Y-76251238D02*
X154689286Y-76203619D01*
X154689286Y-76203619D02*
X154760714Y-76179809D01*
X154760714Y-76179809D02*
X154808333Y-76179809D01*
X154808333Y-76179809D02*
X154879762Y-76203619D01*
X154879762Y-76203619D02*
X154903571Y-76227428D01*
X155379762Y-76679809D02*
X155094048Y-76679809D01*
X155236905Y-76679809D02*
X155236905Y-76179809D01*
X155236905Y-76179809D02*
X155189286Y-76251238D01*
X155189286Y-76251238D02*
X155141667Y-76298857D01*
X155141667Y-76298857D02*
X155094048Y-76322666D01*
X155808333Y-76179809D02*
X155713095Y-76179809D01*
X155713095Y-76179809D02*
X155665476Y-76203619D01*
X155665476Y-76203619D02*
X155641666Y-76227428D01*
X155641666Y-76227428D02*
X155594047Y-76298857D01*
X155594047Y-76298857D02*
X155570238Y-76394095D01*
X155570238Y-76394095D02*
X155570238Y-76584571D01*
X155570238Y-76584571D02*
X155594047Y-76632190D01*
X155594047Y-76632190D02*
X155617857Y-76656000D01*
X155617857Y-76656000D02*
X155665476Y-76679809D01*
X155665476Y-76679809D02*
X155760714Y-76679809D01*
X155760714Y-76679809D02*
X155808333Y-76656000D01*
X155808333Y-76656000D02*
X155832142Y-76632190D01*
X155832142Y-76632190D02*
X155855952Y-76584571D01*
X155855952Y-76584571D02*
X155855952Y-76465523D01*
X155855952Y-76465523D02*
X155832142Y-76417904D01*
X155832142Y-76417904D02*
X155808333Y-76394095D01*
X155808333Y-76394095D02*
X155760714Y-76370285D01*
X155760714Y-76370285D02*
X155665476Y-76370285D01*
X155665476Y-76370285D02*
X155617857Y-76394095D01*
X155617857Y-76394095D02*
X155594047Y-76417904D01*
X155594047Y-76417904D02*
X155570238Y-76465523D01*
X133708379Y-82419201D02*
X133590528Y-83008457D01*
X133944081Y-82654903D02*
X133354826Y-82772754D01*
X134028260Y-82806426D02*
X134061932Y-82806426D01*
X134061932Y-82806426D02*
X134112440Y-82823262D01*
X134112440Y-82823262D02*
X134196619Y-82907441D01*
X134196619Y-82907441D02*
X134213455Y-82957949D01*
X134213455Y-82957949D02*
X134213455Y-82991620D01*
X134213455Y-82991620D02*
X134196619Y-83042128D01*
X134196619Y-83042128D02*
X134162947Y-83075800D01*
X134162947Y-83075800D02*
X134095604Y-83109471D01*
X134095604Y-83109471D02*
X133691543Y-83109471D01*
X133691543Y-83109471D02*
X133910409Y-83328338D01*
X134698008Y-76052576D02*
X134698008Y-76086248D01*
X134698008Y-76086248D02*
X134664336Y-76153591D01*
X134664336Y-76153591D02*
X134630665Y-76187263D01*
X134630665Y-76187263D02*
X134563321Y-76220935D01*
X134563321Y-76220935D02*
X134495978Y-76220935D01*
X134495978Y-76220935D02*
X134445470Y-76204099D01*
X134445470Y-76204099D02*
X134361291Y-76153591D01*
X134361291Y-76153591D02*
X134310783Y-76103084D01*
X134310783Y-76103084D02*
X134260275Y-76018904D01*
X134260275Y-76018904D02*
X134243439Y-75968397D01*
X134243439Y-75968397D02*
X134243439Y-75901053D01*
X134243439Y-75901053D02*
X134277111Y-75833710D01*
X134277111Y-75833710D02*
X134310783Y-75800038D01*
X134310783Y-75800038D02*
X134378126Y-75766366D01*
X134378126Y-75766366D02*
X134411798Y-75766366D01*
X135068397Y-75749530D02*
X134866367Y-75951561D01*
X134967382Y-75850546D02*
X134613829Y-75496992D01*
X134613829Y-75496992D02*
X134630665Y-75581172D01*
X134630665Y-75581172D02*
X134630665Y-75648515D01*
X134630665Y-75648515D02*
X134613829Y-75699023D01*
X135135741Y-75210783D02*
X135371443Y-75446485D01*
X134916874Y-75160275D02*
X135085233Y-75496993D01*
X135085233Y-75496993D02*
X135304099Y-75278126D01*
X162330952Y-74049809D02*
X162330952Y-73549809D01*
X162330952Y-73549809D02*
X162450000Y-73549809D01*
X162450000Y-73549809D02*
X162521428Y-73573619D01*
X162521428Y-73573619D02*
X162569047Y-73621238D01*
X162569047Y-73621238D02*
X162592857Y-73668857D01*
X162592857Y-73668857D02*
X162616666Y-73764095D01*
X162616666Y-73764095D02*
X162616666Y-73835523D01*
X162616666Y-73835523D02*
X162592857Y-73930761D01*
X162592857Y-73930761D02*
X162569047Y-73978380D01*
X162569047Y-73978380D02*
X162521428Y-74026000D01*
X162521428Y-74026000D02*
X162450000Y-74049809D01*
X162450000Y-74049809D02*
X162330952Y-74049809D01*
X162807143Y-73597428D02*
X162830952Y-73573619D01*
X162830952Y-73573619D02*
X162878571Y-73549809D01*
X162878571Y-73549809D02*
X162997619Y-73549809D01*
X162997619Y-73549809D02*
X163045238Y-73573619D01*
X163045238Y-73573619D02*
X163069047Y-73597428D01*
X163069047Y-73597428D02*
X163092857Y-73645047D01*
X163092857Y-73645047D02*
X163092857Y-73692666D01*
X163092857Y-73692666D02*
X163069047Y-73764095D01*
X163069047Y-73764095D02*
X162783333Y-74049809D01*
X162783333Y-74049809D02*
X163092857Y-74049809D01*
X159524809Y-101721428D02*
X159286714Y-101888094D01*
X159524809Y-102007142D02*
X159024809Y-102007142D01*
X159024809Y-102007142D02*
X159024809Y-101816666D01*
X159024809Y-101816666D02*
X159048619Y-101769047D01*
X159048619Y-101769047D02*
X159072428Y-101745237D01*
X159072428Y-101745237D02*
X159120047Y-101721428D01*
X159120047Y-101721428D02*
X159191476Y-101721428D01*
X159191476Y-101721428D02*
X159239095Y-101745237D01*
X159239095Y-101745237D02*
X159262904Y-101769047D01*
X159262904Y-101769047D02*
X159286714Y-101816666D01*
X159286714Y-101816666D02*
X159286714Y-102007142D01*
X159524809Y-101245237D02*
X159524809Y-101530951D01*
X159524809Y-101388094D02*
X159024809Y-101388094D01*
X159024809Y-101388094D02*
X159096238Y-101435713D01*
X159096238Y-101435713D02*
X159143857Y-101483332D01*
X159143857Y-101483332D02*
X159167666Y-101530951D01*
X159524809Y-100769047D02*
X159524809Y-101054761D01*
X159524809Y-100911904D02*
X159024809Y-100911904D01*
X159024809Y-100911904D02*
X159096238Y-100959523D01*
X159096238Y-100959523D02*
X159143857Y-101007142D01*
X159143857Y-101007142D02*
X159167666Y-101054761D01*
X132247423Y-82798008D02*
X132213751Y-82798008D01*
X132213751Y-82798008D02*
X132146408Y-82764336D01*
X132146408Y-82764336D02*
X132112736Y-82730665D01*
X132112736Y-82730665D02*
X132079064Y-82663321D01*
X132079064Y-82663321D02*
X132079064Y-82595978D01*
X132079064Y-82595978D02*
X132095900Y-82545470D01*
X132095900Y-82545470D02*
X132146408Y-82461291D01*
X132146408Y-82461291D02*
X132196915Y-82410783D01*
X132196915Y-82410783D02*
X132281095Y-82360275D01*
X132281095Y-82360275D02*
X132331602Y-82343439D01*
X132331602Y-82343439D02*
X132398946Y-82343439D01*
X132398946Y-82343439D02*
X132466289Y-82377111D01*
X132466289Y-82377111D02*
X132499961Y-82410783D01*
X132499961Y-82410783D02*
X132533633Y-82478126D01*
X132533633Y-82478126D02*
X132533633Y-82511798D01*
X132550469Y-83168397D02*
X132348438Y-82966367D01*
X132449453Y-83067382D02*
X132803007Y-82713829D01*
X132803007Y-82713829D02*
X132718827Y-82730665D01*
X132718827Y-82730665D02*
X132651484Y-82730665D01*
X132651484Y-82730665D02*
X132600976Y-82713829D01*
X133223903Y-83134725D02*
X133055545Y-82966367D01*
X133055545Y-82966367D02*
X132870350Y-83117889D01*
X132870350Y-83117889D02*
X132904022Y-83117889D01*
X132904022Y-83117889D02*
X132954529Y-83134725D01*
X132954529Y-83134725D02*
X133038709Y-83218905D01*
X133038709Y-83218905D02*
X133055545Y-83269412D01*
X133055545Y-83269412D02*
X133055545Y-83303084D01*
X133055545Y-83303084D02*
X133038709Y-83353592D01*
X133038709Y-83353592D02*
X132954529Y-83437771D01*
X132954529Y-83437771D02*
X132904022Y-83454607D01*
X132904022Y-83454607D02*
X132870350Y-83454607D01*
X132870350Y-83454607D02*
X132819842Y-83437771D01*
X132819842Y-83437771D02*
X132735663Y-83353592D01*
X132735663Y-83353592D02*
X132718827Y-83303084D01*
X132718827Y-83303084D02*
X132718827Y-83269412D01*
X149523409Y-76390437D02*
X149489737Y-76390437D01*
X149489737Y-76390437D02*
X149422393Y-76356765D01*
X149422393Y-76356765D02*
X149388722Y-76323093D01*
X149388722Y-76323093D02*
X149355050Y-76255750D01*
X149355050Y-76255750D02*
X149355050Y-76188406D01*
X149355050Y-76188406D02*
X149371886Y-76137899D01*
X149371886Y-76137899D02*
X149422393Y-76053719D01*
X149422393Y-76053719D02*
X149472901Y-76003212D01*
X149472901Y-76003212D02*
X149557080Y-75952704D01*
X149557080Y-75952704D02*
X149607588Y-75935868D01*
X149607588Y-75935868D02*
X149674931Y-75935868D01*
X149674931Y-75935868D02*
X149742275Y-75969540D01*
X149742275Y-75969540D02*
X149775947Y-76003212D01*
X149775947Y-76003212D02*
X149809618Y-76070555D01*
X149809618Y-76070555D02*
X149809618Y-76104227D01*
X149961141Y-76188406D02*
X150196844Y-76424108D01*
X150196844Y-76424108D02*
X149691767Y-76626139D01*
X163624809Y-101821428D02*
X163386714Y-101988094D01*
X163624809Y-102107142D02*
X163124809Y-102107142D01*
X163124809Y-102107142D02*
X163124809Y-101916666D01*
X163124809Y-101916666D02*
X163148619Y-101869047D01*
X163148619Y-101869047D02*
X163172428Y-101845237D01*
X163172428Y-101845237D02*
X163220047Y-101821428D01*
X163220047Y-101821428D02*
X163291476Y-101821428D01*
X163291476Y-101821428D02*
X163339095Y-101845237D01*
X163339095Y-101845237D02*
X163362904Y-101869047D01*
X163362904Y-101869047D02*
X163386714Y-101916666D01*
X163386714Y-101916666D02*
X163386714Y-102107142D01*
X163624809Y-101345237D02*
X163624809Y-101630951D01*
X163624809Y-101488094D02*
X163124809Y-101488094D01*
X163124809Y-101488094D02*
X163196238Y-101535713D01*
X163196238Y-101535713D02*
X163243857Y-101583332D01*
X163243857Y-101583332D02*
X163267666Y-101630951D01*
X163172428Y-101154761D02*
X163148619Y-101130952D01*
X163148619Y-101130952D02*
X163124809Y-101083333D01*
X163124809Y-101083333D02*
X163124809Y-100964285D01*
X163124809Y-100964285D02*
X163148619Y-100916666D01*
X163148619Y-100916666D02*
X163172428Y-100892857D01*
X163172428Y-100892857D02*
X163220047Y-100869047D01*
X163220047Y-100869047D02*
X163267666Y-100869047D01*
X163267666Y-100869047D02*
X163339095Y-100892857D01*
X163339095Y-100892857D02*
X163624809Y-101178571D01*
X163624809Y-101178571D02*
X163624809Y-100869047D01*
X137248944Y-87088794D02*
X137248944Y-87122466D01*
X137248944Y-87122466D02*
X137215272Y-87189809D01*
X137215272Y-87189809D02*
X137181601Y-87223481D01*
X137181601Y-87223481D02*
X137114257Y-87257153D01*
X137114257Y-87257153D02*
X137046914Y-87257153D01*
X137046914Y-87257153D02*
X136996406Y-87240317D01*
X136996406Y-87240317D02*
X136912227Y-87189809D01*
X136912227Y-87189809D02*
X136861719Y-87139302D01*
X136861719Y-87139302D02*
X136811211Y-87055122D01*
X136811211Y-87055122D02*
X136794375Y-87004615D01*
X136794375Y-87004615D02*
X136794375Y-86937271D01*
X136794375Y-86937271D02*
X136828047Y-86869928D01*
X136828047Y-86869928D02*
X136861719Y-86836256D01*
X136861719Y-86836256D02*
X136929062Y-86802584D01*
X136929062Y-86802584D02*
X136962734Y-86802584D01*
X137619333Y-86785748D02*
X137417303Y-86987779D01*
X137518318Y-86886764D02*
X137164765Y-86533210D01*
X137164765Y-86533210D02*
X137181601Y-86617390D01*
X137181601Y-86617390D02*
X137181601Y-86684733D01*
X137181601Y-86684733D02*
X137164765Y-86735241D01*
X137434138Y-86331180D02*
X137434138Y-86297508D01*
X137434138Y-86297508D02*
X137450974Y-86247001D01*
X137450974Y-86247001D02*
X137535154Y-86162821D01*
X137535154Y-86162821D02*
X137585661Y-86145985D01*
X137585661Y-86145985D02*
X137619333Y-86145985D01*
X137619333Y-86145985D02*
X137669841Y-86162821D01*
X137669841Y-86162821D02*
X137703512Y-86196493D01*
X137703512Y-86196493D02*
X137737184Y-86263836D01*
X137737184Y-86263836D02*
X137737184Y-86667898D01*
X137737184Y-86667898D02*
X137956051Y-86449031D01*
X135500038Y-79917889D02*
X135213829Y-79867382D01*
X135298008Y-80119920D02*
X134944455Y-79766366D01*
X134944455Y-79766366D02*
X135079142Y-79631679D01*
X135079142Y-79631679D02*
X135129649Y-79614843D01*
X135129649Y-79614843D02*
X135163321Y-79614843D01*
X135163321Y-79614843D02*
X135213829Y-79631679D01*
X135213829Y-79631679D02*
X135264336Y-79682187D01*
X135264336Y-79682187D02*
X135281172Y-79732695D01*
X135281172Y-79732695D02*
X135281172Y-79766366D01*
X135281172Y-79766366D02*
X135264336Y-79816874D01*
X135264336Y-79816874D02*
X135129649Y-79951561D01*
X135314844Y-79463321D02*
X135314844Y-79429649D01*
X135314844Y-79429649D02*
X135331680Y-79379141D01*
X135331680Y-79379141D02*
X135415859Y-79294962D01*
X135415859Y-79294962D02*
X135466367Y-79278126D01*
X135466367Y-79278126D02*
X135500038Y-79278126D01*
X135500038Y-79278126D02*
X135550546Y-79294962D01*
X135550546Y-79294962D02*
X135584218Y-79328634D01*
X135584218Y-79328634D02*
X135617890Y-79395977D01*
X135617890Y-79395977D02*
X135617890Y-79800038D01*
X135617890Y-79800038D02*
X135836756Y-79581172D01*
X145365622Y-102609956D02*
X145331950Y-102609956D01*
X145331950Y-102609956D02*
X145264606Y-102576284D01*
X145264606Y-102576284D02*
X145230935Y-102542612D01*
X145230935Y-102542612D02*
X145197263Y-102475269D01*
X145197263Y-102475269D02*
X145197263Y-102407925D01*
X145197263Y-102407925D02*
X145214099Y-102357418D01*
X145214099Y-102357418D02*
X145264606Y-102273238D01*
X145264606Y-102273238D02*
X145315114Y-102222731D01*
X145315114Y-102222731D02*
X145399293Y-102172223D01*
X145399293Y-102172223D02*
X145449801Y-102155387D01*
X145449801Y-102155387D02*
X145517144Y-102155387D01*
X145517144Y-102155387D02*
X145584488Y-102189059D01*
X145584488Y-102189059D02*
X145618160Y-102222731D01*
X145618160Y-102222731D02*
X145651831Y-102290074D01*
X145651831Y-102290074D02*
X145651831Y-102323746D01*
X145870698Y-102710971D02*
X145634996Y-102946673D01*
X145921205Y-102492105D02*
X145584488Y-102660463D01*
X145584488Y-102660463D02*
X145803354Y-102879330D01*
X136046863Y-86028133D02*
X136046863Y-86061805D01*
X136046863Y-86061805D02*
X136013191Y-86129148D01*
X136013191Y-86129148D02*
X135979520Y-86162820D01*
X135979520Y-86162820D02*
X135912176Y-86196492D01*
X135912176Y-86196492D02*
X135844833Y-86196492D01*
X135844833Y-86196492D02*
X135794325Y-86179656D01*
X135794325Y-86179656D02*
X135710146Y-86129148D01*
X135710146Y-86129148D02*
X135659638Y-86078641D01*
X135659638Y-86078641D02*
X135609130Y-85994461D01*
X135609130Y-85994461D02*
X135592294Y-85943954D01*
X135592294Y-85943954D02*
X135592294Y-85876610D01*
X135592294Y-85876610D02*
X135625966Y-85809267D01*
X135625966Y-85809267D02*
X135659638Y-85775595D01*
X135659638Y-85775595D02*
X135726981Y-85741923D01*
X135726981Y-85741923D02*
X135760653Y-85741923D01*
X136417252Y-85725087D02*
X136215222Y-85927118D01*
X136316237Y-85826103D02*
X135962684Y-85472549D01*
X135962684Y-85472549D02*
X135979520Y-85556729D01*
X135979520Y-85556729D02*
X135979520Y-85624072D01*
X135979520Y-85624072D02*
X135962684Y-85674580D01*
X136181550Y-85253683D02*
X136400416Y-85034817D01*
X136400416Y-85034817D02*
X136417252Y-85287355D01*
X136417252Y-85287355D02*
X136467760Y-85236847D01*
X136467760Y-85236847D02*
X136518267Y-85220011D01*
X136518267Y-85220011D02*
X136551939Y-85220011D01*
X136551939Y-85220011D02*
X136602447Y-85236847D01*
X136602447Y-85236847D02*
X136686626Y-85321027D01*
X136686626Y-85321027D02*
X136703462Y-85371534D01*
X136703462Y-85371534D02*
X136703462Y-85405206D01*
X136703462Y-85405206D02*
X136686626Y-85455714D01*
X136686626Y-85455714D02*
X136585611Y-85556729D01*
X136585611Y-85556729D02*
X136535103Y-85573565D01*
X136535103Y-85573565D02*
X136501431Y-85573565D01*
X176877190Y-86416666D02*
X176901000Y-86392857D01*
X176901000Y-86392857D02*
X176924809Y-86321428D01*
X176924809Y-86321428D02*
X176924809Y-86273809D01*
X176924809Y-86273809D02*
X176901000Y-86202381D01*
X176901000Y-86202381D02*
X176853380Y-86154762D01*
X176853380Y-86154762D02*
X176805761Y-86130952D01*
X176805761Y-86130952D02*
X176710523Y-86107143D01*
X176710523Y-86107143D02*
X176639095Y-86107143D01*
X176639095Y-86107143D02*
X176543857Y-86130952D01*
X176543857Y-86130952D02*
X176496238Y-86154762D01*
X176496238Y-86154762D02*
X176448619Y-86202381D01*
X176448619Y-86202381D02*
X176424809Y-86273809D01*
X176424809Y-86273809D02*
X176424809Y-86321428D01*
X176424809Y-86321428D02*
X176448619Y-86392857D01*
X176448619Y-86392857D02*
X176472428Y-86416666D01*
X176924809Y-86892857D02*
X176924809Y-86607143D01*
X176924809Y-86750000D02*
X176424809Y-86750000D01*
X176424809Y-86750000D02*
X176496238Y-86702381D01*
X176496238Y-86702381D02*
X176543857Y-86654762D01*
X176543857Y-86654762D02*
X176567666Y-86607143D01*
X143566367Y-99784218D02*
X143566367Y-99817890D01*
X143566367Y-99817890D02*
X143532695Y-99885234D01*
X143532695Y-99885234D02*
X143499023Y-99918905D01*
X143499023Y-99918905D02*
X143431680Y-99952577D01*
X143431680Y-99952577D02*
X143364336Y-99952577D01*
X143364336Y-99952577D02*
X143313829Y-99935741D01*
X143313829Y-99935741D02*
X143229649Y-99885234D01*
X143229649Y-99885234D02*
X143179142Y-99834726D01*
X143179142Y-99834726D02*
X143128634Y-99750547D01*
X143128634Y-99750547D02*
X143111798Y-99700039D01*
X143111798Y-99700039D02*
X143111798Y-99632696D01*
X143111798Y-99632696D02*
X143145470Y-99565352D01*
X143145470Y-99565352D02*
X143179142Y-99531680D01*
X143179142Y-99531680D02*
X143246485Y-99498009D01*
X143246485Y-99498009D02*
X143280157Y-99498009D01*
X143768397Y-99649531D02*
X143835741Y-99582188D01*
X143835741Y-99582188D02*
X143852577Y-99531680D01*
X143852577Y-99531680D02*
X143852577Y-99498009D01*
X143852577Y-99498009D02*
X143835741Y-99413829D01*
X143835741Y-99413829D02*
X143785233Y-99329650D01*
X143785233Y-99329650D02*
X143650546Y-99194963D01*
X143650546Y-99194963D02*
X143600038Y-99178127D01*
X143600038Y-99178127D02*
X143566367Y-99178127D01*
X143566367Y-99178127D02*
X143515859Y-99194963D01*
X143515859Y-99194963D02*
X143448516Y-99262306D01*
X143448516Y-99262306D02*
X143431680Y-99312814D01*
X143431680Y-99312814D02*
X143431680Y-99346486D01*
X143431680Y-99346486D02*
X143448516Y-99396993D01*
X143448516Y-99396993D02*
X143532695Y-99481173D01*
X143532695Y-99481173D02*
X143583203Y-99498009D01*
X143583203Y-99498009D02*
X143616874Y-99498009D01*
X143616874Y-99498009D02*
X143667382Y-99481173D01*
X143667382Y-99481173D02*
X143734725Y-99413829D01*
X143734725Y-99413829D02*
X143751561Y-99363322D01*
X143751561Y-99363322D02*
X143751561Y-99329650D01*
X143751561Y-99329650D02*
X143734725Y-99279142D01*
X140866367Y-80784217D02*
X140866367Y-80817889D01*
X140866367Y-80817889D02*
X140832695Y-80885233D01*
X140832695Y-80885233D02*
X140799023Y-80918904D01*
X140799023Y-80918904D02*
X140731680Y-80952576D01*
X140731680Y-80952576D02*
X140664336Y-80952576D01*
X140664336Y-80952576D02*
X140613829Y-80935740D01*
X140613829Y-80935740D02*
X140529649Y-80885233D01*
X140529649Y-80885233D02*
X140479142Y-80834725D01*
X140479142Y-80834725D02*
X140428634Y-80750546D01*
X140428634Y-80750546D02*
X140411798Y-80700038D01*
X140411798Y-80700038D02*
X140411798Y-80632695D01*
X140411798Y-80632695D02*
X140445470Y-80565351D01*
X140445470Y-80565351D02*
X140479142Y-80531679D01*
X140479142Y-80531679D02*
X140546485Y-80498008D01*
X140546485Y-80498008D02*
X140580157Y-80498008D01*
X140900038Y-80413828D02*
X140849531Y-80430664D01*
X140849531Y-80430664D02*
X140815859Y-80430664D01*
X140815859Y-80430664D02*
X140765351Y-80413828D01*
X140765351Y-80413828D02*
X140748516Y-80396992D01*
X140748516Y-80396992D02*
X140731680Y-80346485D01*
X140731680Y-80346485D02*
X140731680Y-80312813D01*
X140731680Y-80312813D02*
X140748516Y-80262305D01*
X140748516Y-80262305D02*
X140815859Y-80194962D01*
X140815859Y-80194962D02*
X140866367Y-80178126D01*
X140866367Y-80178126D02*
X140900038Y-80178126D01*
X140900038Y-80178126D02*
X140950546Y-80194962D01*
X140950546Y-80194962D02*
X140967382Y-80211798D01*
X140967382Y-80211798D02*
X140984218Y-80262305D01*
X140984218Y-80262305D02*
X140984218Y-80295977D01*
X140984218Y-80295977D02*
X140967382Y-80346485D01*
X140967382Y-80346485D02*
X140900038Y-80413828D01*
X140900038Y-80413828D02*
X140883203Y-80464336D01*
X140883203Y-80464336D02*
X140883203Y-80498008D01*
X140883203Y-80498008D02*
X140900038Y-80548515D01*
X140900038Y-80548515D02*
X140967382Y-80615859D01*
X140967382Y-80615859D02*
X141017890Y-80632695D01*
X141017890Y-80632695D02*
X141051561Y-80632695D01*
X141051561Y-80632695D02*
X141102069Y-80615859D01*
X141102069Y-80615859D02*
X141169412Y-80548515D01*
X141169412Y-80548515D02*
X141186248Y-80498008D01*
X141186248Y-80498008D02*
X141186248Y-80464336D01*
X141186248Y-80464336D02*
X141169412Y-80413828D01*
X141169412Y-80413828D02*
X141102069Y-80346485D01*
X141102069Y-80346485D02*
X141051561Y-80329649D01*
X141051561Y-80329649D02*
X141017890Y-80329649D01*
X141017890Y-80329649D02*
X140967382Y-80346485D01*
X150557132Y-75161418D02*
X150523460Y-75161418D01*
X150523460Y-75161418D02*
X150456117Y-75127746D01*
X150456117Y-75127746D02*
X150422445Y-75094075D01*
X150422445Y-75094075D02*
X150388773Y-75026731D01*
X150388773Y-75026731D02*
X150388773Y-74959388D01*
X150388773Y-74959388D02*
X150405609Y-74908880D01*
X150405609Y-74908880D02*
X150456117Y-74824701D01*
X150456117Y-74824701D02*
X150506624Y-74774193D01*
X150506624Y-74774193D02*
X150590804Y-74723685D01*
X150590804Y-74723685D02*
X150641311Y-74706849D01*
X150641311Y-74706849D02*
X150708655Y-74706849D01*
X150708655Y-74706849D02*
X150775998Y-74740521D01*
X150775998Y-74740521D02*
X150809670Y-74774193D01*
X150809670Y-74774193D02*
X150843342Y-74841536D01*
X150843342Y-74841536D02*
X150843342Y-74875208D01*
X150860178Y-75531807D02*
X150658147Y-75329777D01*
X150759162Y-75430792D02*
X151112716Y-75077239D01*
X151112716Y-75077239D02*
X151028536Y-75094075D01*
X151028536Y-75094075D02*
X150961193Y-75094075D01*
X150961193Y-75094075D02*
X150910685Y-75077239D01*
X151196895Y-75868525D02*
X150994864Y-75666494D01*
X151095880Y-75767509D02*
X151449433Y-75413956D01*
X151449433Y-75413956D02*
X151365254Y-75430792D01*
X151365254Y-75430792D02*
X151297910Y-75430792D01*
X151297910Y-75430792D02*
X151247402Y-75413956D01*
X135685733Y-74506502D02*
X136274989Y-74624353D01*
X135921435Y-74270800D02*
X136039286Y-74860055D01*
X136594870Y-74304472D02*
X136392839Y-74506502D01*
X136493855Y-74405487D02*
X136140301Y-74051934D01*
X136140301Y-74051934D02*
X136157137Y-74136113D01*
X136157137Y-74136113D02*
X136157137Y-74203457D01*
X136157137Y-74203457D02*
X136140301Y-74253964D01*
X142377190Y-108921428D02*
X142401000Y-108945237D01*
X142401000Y-108945237D02*
X142424809Y-109016666D01*
X142424809Y-109016666D02*
X142424809Y-109064285D01*
X142424809Y-109064285D02*
X142401000Y-109135713D01*
X142401000Y-109135713D02*
X142353380Y-109183332D01*
X142353380Y-109183332D02*
X142305761Y-109207142D01*
X142305761Y-109207142D02*
X142210523Y-109230951D01*
X142210523Y-109230951D02*
X142139095Y-109230951D01*
X142139095Y-109230951D02*
X142043857Y-109207142D01*
X142043857Y-109207142D02*
X141996238Y-109183332D01*
X141996238Y-109183332D02*
X141948619Y-109135713D01*
X141948619Y-109135713D02*
X141924809Y-109064285D01*
X141924809Y-109064285D02*
X141924809Y-109016666D01*
X141924809Y-109016666D02*
X141948619Y-108945237D01*
X141948619Y-108945237D02*
X141972428Y-108921428D01*
X141972428Y-108730951D02*
X141948619Y-108707142D01*
X141948619Y-108707142D02*
X141924809Y-108659523D01*
X141924809Y-108659523D02*
X141924809Y-108540475D01*
X141924809Y-108540475D02*
X141948619Y-108492856D01*
X141948619Y-108492856D02*
X141972428Y-108469047D01*
X141972428Y-108469047D02*
X142020047Y-108445237D01*
X142020047Y-108445237D02*
X142067666Y-108445237D01*
X142067666Y-108445237D02*
X142139095Y-108469047D01*
X142139095Y-108469047D02*
X142424809Y-108754761D01*
X142424809Y-108754761D02*
X142424809Y-108445237D01*
X141972428Y-108254761D02*
X141948619Y-108230952D01*
X141948619Y-108230952D02*
X141924809Y-108183333D01*
X141924809Y-108183333D02*
X141924809Y-108064285D01*
X141924809Y-108064285D02*
X141948619Y-108016666D01*
X141948619Y-108016666D02*
X141972428Y-107992857D01*
X141972428Y-107992857D02*
X142020047Y-107969047D01*
X142020047Y-107969047D02*
X142067666Y-107969047D01*
X142067666Y-107969047D02*
X142139095Y-107992857D01*
X142139095Y-107992857D02*
X142424809Y-108278571D01*
X142424809Y-108278571D02*
X142424809Y-107969047D01*
X158883314Y-95508415D02*
X158849642Y-95508415D01*
X158849642Y-95508415D02*
X158782299Y-95474743D01*
X158782299Y-95474743D02*
X158748627Y-95441072D01*
X158748627Y-95441072D02*
X158714955Y-95373728D01*
X158714955Y-95373728D02*
X158714955Y-95306385D01*
X158714955Y-95306385D02*
X158731791Y-95255877D01*
X158731791Y-95255877D02*
X158782299Y-95171698D01*
X158782299Y-95171698D02*
X158832806Y-95121190D01*
X158832806Y-95121190D02*
X158916986Y-95070682D01*
X158916986Y-95070682D02*
X158967493Y-95053846D01*
X158967493Y-95053846D02*
X159034837Y-95053846D01*
X159034837Y-95053846D02*
X159102180Y-95087518D01*
X159102180Y-95087518D02*
X159135852Y-95121190D01*
X159135852Y-95121190D02*
X159169524Y-95188533D01*
X159169524Y-95188533D02*
X159169524Y-95222205D01*
X159186360Y-95878804D02*
X158984329Y-95676774D01*
X159085344Y-95777789D02*
X159438898Y-95424236D01*
X159438898Y-95424236D02*
X159354718Y-95441072D01*
X159354718Y-95441072D02*
X159287375Y-95441072D01*
X159287375Y-95441072D02*
X159236867Y-95424236D01*
X159758779Y-95744117D02*
X159792451Y-95777789D01*
X159792451Y-95777789D02*
X159809287Y-95828296D01*
X159809287Y-95828296D02*
X159809287Y-95861968D01*
X159809287Y-95861968D02*
X159792451Y-95912476D01*
X159792451Y-95912476D02*
X159741943Y-95996655D01*
X159741943Y-95996655D02*
X159657764Y-96080835D01*
X159657764Y-96080835D02*
X159573584Y-96131342D01*
X159573584Y-96131342D02*
X159523077Y-96148178D01*
X159523077Y-96148178D02*
X159489405Y-96148178D01*
X159489405Y-96148178D02*
X159438897Y-96131342D01*
X159438897Y-96131342D02*
X159405226Y-96097670D01*
X159405226Y-96097670D02*
X159388390Y-96047163D01*
X159388390Y-96047163D02*
X159388390Y-96013491D01*
X159388390Y-96013491D02*
X159405226Y-95962983D01*
X159405226Y-95962983D02*
X159455733Y-95878804D01*
X159455733Y-95878804D02*
X159539913Y-95794625D01*
X159539913Y-95794625D02*
X159624092Y-95744117D01*
X159624092Y-95744117D02*
X159674600Y-95727281D01*
X159674600Y-95727281D02*
X159708272Y-95727281D01*
X159708272Y-95727281D02*
X159758779Y-95744117D01*
X139682110Y-76200038D02*
X139732617Y-75913829D01*
X139480079Y-75998008D02*
X139833633Y-75644455D01*
X139833633Y-75644455D02*
X139968320Y-75779142D01*
X139968320Y-75779142D02*
X139985156Y-75829649D01*
X139985156Y-75829649D02*
X139985156Y-75863321D01*
X139985156Y-75863321D02*
X139968320Y-75913829D01*
X139968320Y-75913829D02*
X139917812Y-75964336D01*
X139917812Y-75964336D02*
X139867304Y-75981172D01*
X139867304Y-75981172D02*
X139833633Y-75981172D01*
X139833633Y-75981172D02*
X139783125Y-75964336D01*
X139783125Y-75964336D02*
X139648438Y-75829649D01*
X140018827Y-76536756D02*
X139816797Y-76334725D01*
X139917812Y-76435741D02*
X140271365Y-76082187D01*
X140271365Y-76082187D02*
X140187186Y-76099023D01*
X140187186Y-76099023D02*
X140119843Y-76099023D01*
X140119843Y-76099023D02*
X140069335Y-76082187D01*
X135819680Y-93134725D02*
X135786008Y-93134725D01*
X135786008Y-93134725D02*
X135718664Y-93101053D01*
X135718664Y-93101053D02*
X135684993Y-93067381D01*
X135684993Y-93067381D02*
X135651321Y-93000038D01*
X135651321Y-93000038D02*
X135651321Y-92932694D01*
X135651321Y-92932694D02*
X135668157Y-92882187D01*
X135668157Y-92882187D02*
X135718664Y-92798007D01*
X135718664Y-92798007D02*
X135769172Y-92747500D01*
X135769172Y-92747500D02*
X135853351Y-92696992D01*
X135853351Y-92696992D02*
X135903859Y-92680156D01*
X135903859Y-92680156D02*
X135971202Y-92680156D01*
X135971202Y-92680156D02*
X136038546Y-92713828D01*
X136038546Y-92713828D02*
X136072218Y-92747500D01*
X136072218Y-92747500D02*
X136105889Y-92814843D01*
X136105889Y-92814843D02*
X136105889Y-92848515D01*
X136459443Y-93134725D02*
X136291084Y-92966366D01*
X136291084Y-92966366D02*
X136105889Y-93117889D01*
X136105889Y-93117889D02*
X136139561Y-93117889D01*
X136139561Y-93117889D02*
X136190069Y-93134725D01*
X136190069Y-93134725D02*
X136274248Y-93218904D01*
X136274248Y-93218904D02*
X136291084Y-93269412D01*
X136291084Y-93269412D02*
X136291084Y-93303083D01*
X136291084Y-93303083D02*
X136274248Y-93353591D01*
X136274248Y-93353591D02*
X136190069Y-93437770D01*
X136190069Y-93437770D02*
X136139561Y-93454606D01*
X136139561Y-93454606D02*
X136105889Y-93454606D01*
X136105889Y-93454606D02*
X136055382Y-93437770D01*
X136055382Y-93437770D02*
X135971202Y-93353591D01*
X135971202Y-93353591D02*
X135954367Y-93303083D01*
X135954367Y-93303083D02*
X135954367Y-93269412D01*
X143459969Y-77398063D02*
X143426297Y-77398063D01*
X143426297Y-77398063D02*
X143358953Y-77364391D01*
X143358953Y-77364391D02*
X143325282Y-77330719D01*
X143325282Y-77330719D02*
X143291610Y-77263376D01*
X143291610Y-77263376D02*
X143291610Y-77196032D01*
X143291610Y-77196032D02*
X143308446Y-77145525D01*
X143308446Y-77145525D02*
X143358953Y-77061345D01*
X143358953Y-77061345D02*
X143409461Y-77010838D01*
X143409461Y-77010838D02*
X143493640Y-76960330D01*
X143493640Y-76960330D02*
X143544148Y-76943494D01*
X143544148Y-76943494D02*
X143611491Y-76943494D01*
X143611491Y-76943494D02*
X143678835Y-76977166D01*
X143678835Y-76977166D02*
X143712507Y-77010838D01*
X143712507Y-77010838D02*
X143746178Y-77078181D01*
X143746178Y-77078181D02*
X143746178Y-77111853D01*
X144082896Y-77381227D02*
X144015552Y-77313883D01*
X144015552Y-77313883D02*
X143965045Y-77297047D01*
X143965045Y-77297047D02*
X143931373Y-77297047D01*
X143931373Y-77297047D02*
X143847194Y-77313883D01*
X143847194Y-77313883D02*
X143763014Y-77364391D01*
X143763014Y-77364391D02*
X143628327Y-77499078D01*
X143628327Y-77499078D02*
X143611491Y-77549586D01*
X143611491Y-77549586D02*
X143611491Y-77583257D01*
X143611491Y-77583257D02*
X143628327Y-77633765D01*
X143628327Y-77633765D02*
X143695671Y-77701108D01*
X143695671Y-77701108D02*
X143746178Y-77717944D01*
X143746178Y-77717944D02*
X143779850Y-77717944D01*
X143779850Y-77717944D02*
X143830358Y-77701108D01*
X143830358Y-77701108D02*
X143914537Y-77616929D01*
X143914537Y-77616929D02*
X143931373Y-77566421D01*
X143931373Y-77566421D02*
X143931373Y-77532750D01*
X143931373Y-77532750D02*
X143914537Y-77482242D01*
X143914537Y-77482242D02*
X143847194Y-77414899D01*
X143847194Y-77414899D02*
X143796686Y-77398063D01*
X143796686Y-77398063D02*
X143763014Y-77398063D01*
X143763014Y-77398063D02*
X143712507Y-77414899D01*
X150277190Y-107821428D02*
X150301000Y-107845237D01*
X150301000Y-107845237D02*
X150324809Y-107916666D01*
X150324809Y-107916666D02*
X150324809Y-107964285D01*
X150324809Y-107964285D02*
X150301000Y-108035713D01*
X150301000Y-108035713D02*
X150253380Y-108083332D01*
X150253380Y-108083332D02*
X150205761Y-108107142D01*
X150205761Y-108107142D02*
X150110523Y-108130951D01*
X150110523Y-108130951D02*
X150039095Y-108130951D01*
X150039095Y-108130951D02*
X149943857Y-108107142D01*
X149943857Y-108107142D02*
X149896238Y-108083332D01*
X149896238Y-108083332D02*
X149848619Y-108035713D01*
X149848619Y-108035713D02*
X149824809Y-107964285D01*
X149824809Y-107964285D02*
X149824809Y-107916666D01*
X149824809Y-107916666D02*
X149848619Y-107845237D01*
X149848619Y-107845237D02*
X149872428Y-107821428D01*
X149872428Y-107630951D02*
X149848619Y-107607142D01*
X149848619Y-107607142D02*
X149824809Y-107559523D01*
X149824809Y-107559523D02*
X149824809Y-107440475D01*
X149824809Y-107440475D02*
X149848619Y-107392856D01*
X149848619Y-107392856D02*
X149872428Y-107369047D01*
X149872428Y-107369047D02*
X149920047Y-107345237D01*
X149920047Y-107345237D02*
X149967666Y-107345237D01*
X149967666Y-107345237D02*
X150039095Y-107369047D01*
X150039095Y-107369047D02*
X150324809Y-107654761D01*
X150324809Y-107654761D02*
X150324809Y-107345237D01*
X150324809Y-106869047D02*
X150324809Y-107154761D01*
X150324809Y-107011904D02*
X149824809Y-107011904D01*
X149824809Y-107011904D02*
X149896238Y-107059523D01*
X149896238Y-107059523D02*
X149943857Y-107107142D01*
X149943857Y-107107142D02*
X149967666Y-107154761D01*
X163577190Y-72746428D02*
X163601000Y-72770237D01*
X163601000Y-72770237D02*
X163624809Y-72841666D01*
X163624809Y-72841666D02*
X163624809Y-72889285D01*
X163624809Y-72889285D02*
X163601000Y-72960713D01*
X163601000Y-72960713D02*
X163553380Y-73008332D01*
X163553380Y-73008332D02*
X163505761Y-73032142D01*
X163505761Y-73032142D02*
X163410523Y-73055951D01*
X163410523Y-73055951D02*
X163339095Y-73055951D01*
X163339095Y-73055951D02*
X163243857Y-73032142D01*
X163243857Y-73032142D02*
X163196238Y-73008332D01*
X163196238Y-73008332D02*
X163148619Y-72960713D01*
X163148619Y-72960713D02*
X163124809Y-72889285D01*
X163124809Y-72889285D02*
X163124809Y-72841666D01*
X163124809Y-72841666D02*
X163148619Y-72770237D01*
X163148619Y-72770237D02*
X163172428Y-72746428D01*
X163624809Y-72270237D02*
X163624809Y-72555951D01*
X163624809Y-72413094D02*
X163124809Y-72413094D01*
X163124809Y-72413094D02*
X163196238Y-72460713D01*
X163196238Y-72460713D02*
X163243857Y-72508332D01*
X163243857Y-72508332D02*
X163267666Y-72555951D01*
X163624809Y-72032142D02*
X163624809Y-71936904D01*
X163624809Y-71936904D02*
X163601000Y-71889285D01*
X163601000Y-71889285D02*
X163577190Y-71865476D01*
X163577190Y-71865476D02*
X163505761Y-71817857D01*
X163505761Y-71817857D02*
X163410523Y-71794047D01*
X163410523Y-71794047D02*
X163220047Y-71794047D01*
X163220047Y-71794047D02*
X163172428Y-71817857D01*
X163172428Y-71817857D02*
X163148619Y-71841666D01*
X163148619Y-71841666D02*
X163124809Y-71889285D01*
X163124809Y-71889285D02*
X163124809Y-71984523D01*
X163124809Y-71984523D02*
X163148619Y-72032142D01*
X163148619Y-72032142D02*
X163172428Y-72055952D01*
X163172428Y-72055952D02*
X163220047Y-72079761D01*
X163220047Y-72079761D02*
X163339095Y-72079761D01*
X163339095Y-72079761D02*
X163386714Y-72055952D01*
X163386714Y-72055952D02*
X163410523Y-72032142D01*
X163410523Y-72032142D02*
X163434333Y-71984523D01*
X163434333Y-71984523D02*
X163434333Y-71889285D01*
X163434333Y-71889285D02*
X163410523Y-71841666D01*
X163410523Y-71841666D02*
X163386714Y-71817857D01*
X163386714Y-71817857D02*
X163339095Y-71794047D01*
D11*
X174652478Y-78289999D02*
X174082479Y-78290000D01*
X174652478Y-73089999D02*
X174652478Y-78289999D01*
X174652478Y-73089999D02*
X174082479Y-73089998D01*
X174082479Y-78290000D02*
X174082479Y-79649999D01*
X172562479Y-78289999D02*
X171542479Y-78289999D01*
X172562479Y-73089999D02*
X171542479Y-73089999D01*
X170022479Y-78289999D02*
X169002479Y-78289999D01*
X170022479Y-73089999D02*
X169002479Y-73089999D01*
X167482479Y-78289999D02*
X166462479Y-78289999D01*
X167482479Y-73089999D02*
X166462479Y-73089999D01*
X164942479Y-78290000D02*
X164372480Y-78289999D01*
X164942479Y-73089998D02*
X164372480Y-73089999D01*
X164372480Y-73089999D02*
X164372480Y-78289999D01*
X161180846Y-92230026D02*
X160982035Y-92428837D01*
X160459597Y-91508777D02*
X160260786Y-91707588D01*
X155548158Y-79283484D02*
X155212625Y-79619017D01*
X154809231Y-78544557D02*
X154473698Y-78880090D01*
X155365581Y-75535000D02*
X155084419Y-75535000D01*
X155365581Y-74515000D02*
X155084419Y-74515000D01*
X134852513Y-81133274D02*
X133827208Y-82158579D01*
X133827208Y-82158579D02*
X135135355Y-83466726D01*
X136644240Y-76752280D02*
X136445429Y-76553469D01*
X135922991Y-77473529D02*
X135724180Y-77274718D01*
D12*
X160060000Y-73825000D02*
G75*
G02*
X159960000Y-73825000I-50000J0D01*
G01*
X159960000Y-73825000D02*
G75*
G02*
X160060000Y-73825000I50000J0D01*
G01*
D11*
X161022500Y-102437258D02*
X161022500Y-101962742D01*
X159977500Y-102437258D02*
X159977500Y-101962742D01*
X133761219Y-81460030D02*
X133960030Y-81261219D01*
X133039970Y-80738781D02*
X133238781Y-80539970D01*
X162685000Y-68810000D02*
X160885000Y-68810000D01*
X162685000Y-67360000D02*
X162685000Y-68810000D01*
X161415000Y-64540001D02*
X152985000Y-64540001D01*
X160885000Y-68810000D02*
X160885000Y-69800000D01*
X151715000Y-68810000D02*
X153515000Y-68810000D01*
X151715000Y-67360000D02*
X151715000Y-68810000D01*
X151754291Y-77614129D02*
X151953102Y-77812940D01*
X151033042Y-78335378D02*
X151231853Y-78534189D01*
X162622500Y-102462258D02*
X162622500Y-101987742D01*
X161577500Y-102462258D02*
X161577500Y-101987742D01*
X139238501Y-85569902D02*
X139437312Y-85371091D01*
X138517252Y-84848653D02*
X138716063Y-84649842D01*
X137022303Y-80520578D02*
X137357836Y-80185045D01*
X136283376Y-79781651D02*
X136618909Y-79446118D01*
X147021033Y-101271207D02*
X146822222Y-101072396D01*
X146299784Y-101992456D02*
X146100973Y-101793645D01*
X138107130Y-84438531D02*
X138305941Y-84239720D01*
X137385881Y-83717282D02*
X137584692Y-83518471D01*
X178410000Y-86540581D02*
X178410000Y-86259419D01*
X177390000Y-86540581D02*
X177390000Y-86259419D01*
X144829002Y-100662274D02*
X144630191Y-100861085D01*
X144107753Y-99941025D02*
X143908942Y-100139836D01*
X148334072Y-79504283D02*
X147761316Y-79596207D01*
X147853240Y-79023450D01*
X148334072Y-79504283D01*
G36*
X148334072Y-79504283D02*
G01*
X147761316Y-79596207D01*
X147853240Y-79023450D01*
X148334072Y-79504283D01*
G37*
X158755058Y-89600000D02*
X158260084Y-90094975D01*
X158260084Y-89105025D02*
X158755058Y-89600000D01*
X149194975Y-80039916D02*
X148700000Y-79544942D01*
X148700000Y-99655058D02*
X149194975Y-99160084D01*
X148700000Y-79544942D02*
X148205025Y-80039916D01*
X148205025Y-99160084D02*
X148700000Y-99655058D01*
X139139916Y-90094975D02*
X138644942Y-89600000D01*
X138644942Y-89600000D02*
X139139916Y-89105025D01*
X142190672Y-82016690D02*
X142389483Y-81817879D01*
X141469423Y-81295441D02*
X141668234Y-81096630D01*
X158192908Y-80283868D02*
X156213009Y-82263767D01*
X156778695Y-78869655D02*
X158192908Y-80283868D01*
X156213009Y-82263767D02*
X154798796Y-80849554D01*
X154798796Y-80849554D02*
X156778695Y-78869655D01*
X140997480Y-104250000D02*
X140997480Y-99050000D01*
X140427480Y-104250000D02*
X140997480Y-104250000D01*
X140427480Y-99050000D02*
X140997480Y-99050000D01*
X137887480Y-104250000D02*
X138907480Y-104250000D01*
X137887480Y-99050000D02*
X138907480Y-99050000D01*
X136367480Y-99050000D02*
X136367480Y-97690000D01*
X135797480Y-104250000D02*
X136367480Y-104250000D01*
X135797480Y-104250000D02*
X135797480Y-99050000D01*
X135797480Y-99050000D02*
X136367480Y-99050000D01*
X152885662Y-76482759D02*
X153084473Y-76681570D01*
X152164413Y-77204008D02*
X152363224Y-77402819D01*
X161025000Y-107575000D02*
X161025000Y-109575000D01*
X161024999Y-111475000D02*
X161024999Y-113375000D01*
X151625001Y-113375000D02*
X161024999Y-113375000D01*
X151625001Y-111475000D02*
X151625001Y-113375000D01*
X151625000Y-107575000D02*
X151625000Y-109575000D01*
X137227193Y-74591659D02*
X136201888Y-75616964D01*
X136201888Y-75616964D02*
X137510035Y-76925111D01*
X144010000Y-109553733D02*
X144010000Y-109846267D01*
X142990000Y-109553733D02*
X142990000Y-109846267D01*
X159886019Y-93665453D02*
X160084830Y-93864264D01*
X159164770Y-94386702D02*
X159363581Y-94585513D01*
X140345362Y-77536587D02*
X140009829Y-77201054D01*
X139606435Y-78275514D02*
X139270902Y-77939981D01*
X154940001Y-102700000D02*
X154610001Y-102940000D01*
X154610001Y-102460000D01*
X154940001Y-102700000D01*
G36*
X154940001Y-102700000D02*
G01*
X154610001Y-102940000D01*
X154610001Y-102460000D01*
X154940001Y-102700000D01*
G37*
X158010002Y-101400000D02*
X158010001Y-102200000D01*
X158010002Y-101400000D02*
X158010001Y-100600000D01*
X154890000Y-101400000D02*
X154890001Y-102200000D01*
X154890000Y-101400000D02*
X154890001Y-100600000D01*
X137475091Y-91795976D02*
X137276280Y-91597165D01*
X136753842Y-92517225D02*
X136555031Y-92318414D01*
X143662275Y-78643790D02*
X143463464Y-78444979D01*
X142941026Y-79365039D02*
X142742215Y-79166228D01*
X156420000Y-74070000D02*
X152280000Y-74070000D01*
X156420000Y-73770000D02*
X156420000Y-74070000D01*
X156420000Y-70930000D02*
X156420000Y-71230000D01*
X152280000Y-74070000D02*
X152280000Y-73770000D01*
X152280000Y-71230000D02*
X152280000Y-70930000D01*
X152280000Y-70930000D02*
X156420000Y-70930000D01*
X150510000Y-109853733D02*
X150510000Y-110146267D01*
X149490000Y-109853733D02*
X149490000Y-110146267D01*
X161615581Y-72985000D02*
X161334419Y-72985000D01*
X161615581Y-71965000D02*
X161334419Y-71965000D01*
X177185000Y-104250000D02*
X177185000Y-99050000D01*
X176615000Y-104250000D02*
X177185000Y-104250000D01*
X176615000Y-99050000D02*
X177185000Y-99050000D01*
X174075000Y-104250000D02*
X175095000Y-104250000D01*
X174075000Y-99050000D02*
X175095000Y-99050000D01*
X171535000Y-104250000D02*
X172555000Y-104250001D01*
X171535000Y-99050000D02*
X172555000Y-99049999D01*
X168995000Y-104250001D02*
X170015000Y-104250000D01*
X168995000Y-99049999D02*
X170015000Y-99050000D01*
X166455000Y-104250000D02*
X167475000Y-104250000D01*
X166455000Y-99050000D02*
X167475000Y-99050000D01*
X164935000Y-99050000D02*
X164935000Y-97690000D01*
X164365000Y-104250000D02*
X164935000Y-104250000D01*
X164365000Y-104250000D02*
X164365000Y-99050000D01*
X164365000Y-99050000D02*
X164935000Y-99050000D01*
X148040000Y-111540000D02*
X147560000Y-111540000D01*
X147800000Y-111210000D01*
X148040000Y-111540000D01*
G36*
X148040000Y-111540000D02*
G01*
X147560000Y-111540000D01*
X147800000Y-111210000D01*
X148040000Y-111540000D01*
G37*
X146500000Y-111260001D02*
X147300000Y-111260000D01*
X146500000Y-111260001D02*
X145700000Y-111260000D01*
X146500000Y-108139999D02*
X147300000Y-108140000D01*
X146500000Y-108139999D02*
X145700000Y-108140000D01*
%LPC*%
D13*
X165702479Y-73169999D03*
X165702479Y-78209999D03*
X168242478Y-73169999D03*
X168242478Y-78209999D03*
X170782480Y-73169999D03*
X170782480Y-78209999D03*
X173322479Y-73169999D03*
X173322479Y-78209999D03*
D14*
X160172808Y-92516815D03*
X161268824Y-91420799D03*
D15*
X154427565Y-79665150D03*
X155594291Y-78498424D03*
D16*
X154450000Y-75025000D03*
X156000000Y-75025000D03*
D17*
X134993934Y-81628249D03*
X135771751Y-82406066D03*
X135206066Y-82971751D03*
X134428249Y-82193934D03*
D18*
X135636202Y-76465491D03*
X136732218Y-77561507D03*
D19*
X161585000Y-73825000D03*
X160615000Y-73825000D03*
D20*
X160500000Y-101375000D03*
X160500000Y-103025000D03*
D21*
X176487479Y-68675000D03*
D22*
X134048008Y-80451992D03*
X132951992Y-81548008D03*
D23*
X152225000Y-65750000D03*
X162175000Y-65750000D03*
D24*
X154075000Y-68950000D03*
X155325000Y-68950000D03*
X156575000Y-68950000D03*
X157825000Y-68950000D03*
X159075000Y-68950000D03*
X160325000Y-68950000D03*
D25*
X152041080Y-78622167D03*
X150945064Y-77526151D03*
D20*
X162100000Y-101400000D03*
X162100000Y-103050000D03*
D22*
X139525290Y-84561864D03*
X138429274Y-85657880D03*
D26*
X137403969Y-79399985D03*
X136237243Y-80566711D03*
D18*
X146012995Y-100984418D03*
X147109011Y-102080434D03*
D22*
X138393919Y-83430493D03*
X137297903Y-84526509D03*
D27*
X178987479Y-66175000D03*
D28*
X177900000Y-85625000D03*
X177900000Y-87175000D03*
D14*
X143820964Y-100949063D03*
X144916980Y-99853047D03*
D27*
X178987479Y-111175000D03*
D29*
X149884404Y-79930315D03*
X150237957Y-80283868D03*
X150591511Y-80637422D03*
X150945064Y-80990975D03*
X151298617Y-81344528D03*
X151652171Y-81698082D03*
X152005724Y-82051635D03*
X152359278Y-82405189D03*
X152712831Y-82758742D03*
X153066384Y-83112295D03*
X153419938Y-83465849D03*
X153773491Y-83819402D03*
X154127045Y-84172955D03*
X154480598Y-84526509D03*
X154834151Y-84880062D03*
X155187705Y-85233616D03*
X155541258Y-85587169D03*
X155894811Y-85940722D03*
X156248365Y-86294276D03*
X156601918Y-86647829D03*
X156955472Y-87001383D03*
X157309025Y-87354936D03*
X157662578Y-87708489D03*
X158016132Y-88062043D03*
X158369685Y-88415596D03*
D30*
X158369685Y-90784404D03*
X158016132Y-91137957D03*
X157662578Y-91491511D03*
X157309025Y-91845064D03*
X156955472Y-92198617D03*
X156601918Y-92552171D03*
X156248365Y-92905724D03*
X155894811Y-93259278D03*
X155541258Y-93612831D03*
X155187705Y-93966384D03*
X154834151Y-94319938D03*
X154480598Y-94673491D03*
X154127045Y-95027045D03*
X153773491Y-95380598D03*
X153419938Y-95734151D03*
X153066384Y-96087705D03*
X152712831Y-96441258D03*
X152359278Y-96794811D03*
X152005724Y-97148365D03*
X151652171Y-97501918D03*
X151298617Y-97855472D03*
X150945064Y-98209025D03*
X150591511Y-98562578D03*
X150237957Y-98916132D03*
X149884404Y-99269685D03*
D29*
X147515596Y-99269685D03*
X147162043Y-98916132D03*
X146808489Y-98562578D03*
X146454936Y-98209025D03*
X146101383Y-97855472D03*
X145747829Y-97501918D03*
X145394276Y-97148365D03*
X145040722Y-96794811D03*
X144687169Y-96441258D03*
X144333616Y-96087705D03*
X143980062Y-95734151D03*
X143626509Y-95380598D03*
X143272955Y-95027045D03*
X142919402Y-94673491D03*
X142565849Y-94319938D03*
X142212295Y-93966384D03*
X141858742Y-93612831D03*
X141505189Y-93259278D03*
X141151635Y-92905724D03*
X140798082Y-92552171D03*
X140444528Y-92198617D03*
X140090975Y-91845064D03*
X139737422Y-91491511D03*
X139383868Y-91137957D03*
X139030315Y-90784404D03*
D30*
X139030315Y-88415596D03*
X139383868Y-88062043D03*
X139737422Y-87708489D03*
X140090975Y-87354936D03*
X140444528Y-87001383D03*
X140798082Y-86647829D03*
X141151635Y-86294276D03*
X141505189Y-85940722D03*
X141858742Y-85587169D03*
X142212295Y-85233616D03*
X142565849Y-84880062D03*
X142919402Y-84526509D03*
X143272955Y-84172955D03*
X143626509Y-83819402D03*
X143980062Y-83465849D03*
X144333616Y-83112295D03*
X144687169Y-82758742D03*
X145040722Y-82405189D03*
X145394276Y-82051635D03*
X145747829Y-81698082D03*
X146101383Y-81344528D03*
X146454936Y-80990975D03*
X146808489Y-80637422D03*
X147162043Y-80283868D03*
X147515596Y-79930315D03*
D22*
X142477461Y-81008652D03*
X141381445Y-82104668D03*
D31*
X155983200Y-81079363D03*
D32*
X157008504Y-80054059D03*
D13*
X139667481Y-104170000D03*
X139667481Y-99130000D03*
X137127479Y-104170000D03*
X137127479Y-99130000D03*
D25*
X153172451Y-77490797D03*
X152076435Y-76394781D03*
D33*
X160645000Y-110525000D03*
D34*
X160645000Y-106345000D03*
D33*
X152005000Y-110525000D03*
D34*
X152005000Y-106345000D03*
D35*
X153075000Y-105430000D03*
X153874999Y-105430000D03*
D36*
X154575000Y-105430000D03*
X155575000Y-105430000D03*
X157075000Y-105430000D03*
X158075000Y-105430000D03*
D35*
X158775001Y-105430000D03*
X159575000Y-105430000D03*
X159575000Y-105430000D03*
X158775001Y-105430000D03*
D36*
X157575000Y-105430001D03*
X156575000Y-105430000D03*
X156075000Y-105430000D03*
X155075000Y-105430001D03*
D35*
X153874999Y-105430000D03*
X153075000Y-105430000D03*
D37*
X159215000Y-106875000D03*
X153435000Y-106875000D03*
D17*
X137368614Y-75086634D03*
X138146431Y-75864451D03*
X137580746Y-76430136D03*
X136802929Y-75652319D03*
D27*
X133987479Y-111175000D03*
D38*
X143500000Y-110562501D03*
X143500000Y-108837499D03*
D21*
X136487479Y-68675000D03*
D25*
X160172808Y-94673491D03*
X159076792Y-93577475D03*
D39*
X139224769Y-77154921D03*
X140391495Y-78321647D03*
D40*
X155500002Y-100262500D03*
X156450001Y-100262500D03*
X157400000Y-100262500D03*
X157400000Y-102537500D03*
X156450001Y-102537500D03*
X155500002Y-102537500D03*
D27*
X133987479Y-66175000D03*
D18*
X136467053Y-91509187D03*
X137563069Y-92605203D03*
D21*
X136487479Y-108675000D03*
D18*
X142654237Y-78357001D03*
X143750253Y-79453017D03*
D41*
X156450000Y-72500000D03*
X152250000Y-72500000D03*
D38*
X150000000Y-110862501D03*
X150000000Y-109137499D03*
D16*
X160700000Y-72475000D03*
X162250000Y-72475000D03*
D13*
X175855000Y-104170001D03*
X175855000Y-99129999D03*
X173315000Y-104170000D03*
X173315000Y-99130000D03*
X170775000Y-104170000D03*
X170775000Y-99130000D03*
X168235000Y-104170000D03*
X168235000Y-99130000D03*
X165695000Y-104170001D03*
X165695000Y-99129999D03*
D42*
X145362500Y-110649999D03*
X145362500Y-108750001D03*
X147637500Y-108750001D03*
X147637500Y-109700000D03*
X147637500Y-110649999D03*
D21*
X176487479Y-108675000D03*
%LPD*%
M02*
