G04 #@! TF.GenerationSoftware,KiCad,Pcbnew,8.0.1*
G04 #@! TF.CreationDate,2025-02-17T15:23:15+05:00*
G04 #@! TF.ProjectId,Sensors,53656e73-6f72-4732-9e6b-696361645f70,rev?*
G04 #@! TF.SameCoordinates,Original*
G04 #@! TF.FileFunction,Legend,Top*
G04 #@! TF.FilePolarity,Positive*
%FSLAX46Y46*%
G04 Gerber Fmt 4.6, Leading zero omitted, Abs format (unit mm)*
G04 Created by KiCad (PCBNEW 8.0.1) date 2025-02-17 15:23:15*
%MOMM*%
%LPD*%
G01*
G04 APERTURE LIST*
G04 Aperture macros list*
%AMRoundRect*
0 Rectangle with rounded corners*
0 $1 Rounding radius*
0 $2 $3 $4 $5 $6 $7 $8 $9 X,Y pos of 4 corners*
0 Add a 4 corners polygon primitive as box body*
4,1,4,$2,$3,$4,$5,$6,$7,$8,$9,$2,$3,0*
0 Add four circle primitives for the rounded corners*
1,1,$1+$1,$2,$3*
1,1,$1+$1,$4,$5*
1,1,$1+$1,$6,$7*
1,1,$1+$1,$8,$9*
0 Add four rect primitives between the rounded corners*
20,1,$1+$1,$2,$3,$4,$5,0*
20,1,$1+$1,$4,$5,$6,$7,0*
20,1,$1+$1,$6,$7,$8,$9,0*
20,1,$1+$1,$8,$9,$2,$3,0*%
G04 Aperture macros list end*
%ADD10C,0.125000*%
%ADD11C,0.150000*%
%ADD12C,0.120000*%
%ADD13C,0.100000*%
%ADD14RoundRect,0.225000X0.250000X-0.225000X0.250000X0.225000X-0.250000X0.225000X-0.250000X-0.225000X0*%
%ADD15RoundRect,0.200000X-0.335876X-0.053033X-0.053033X-0.335876X0.335876X0.053033X0.053033X0.335876X0*%
%ADD16RoundRect,0.225000X0.225000X0.250000X-0.225000X0.250000X-0.225000X-0.250000X0.225000X-0.250000X0*%
%ADD17RoundRect,0.200000X0.335876X0.053033X0.053033X0.335876X-0.335876X-0.053033X-0.053033X-0.335876X0*%
%ADD18R,0.375000X0.350000*%
%ADD19R,0.350000X0.375000*%
%ADD20RoundRect,0.200000X-0.275000X0.200000X-0.275000X-0.200000X0.275000X-0.200000X0.275000X0.200000X0*%
%ADD21R,0.838200X0.609600*%
%ADD22R,0.609600X0.838200*%
%ADD23R,1.066800X1.066800*%
%ADD24C,1.000000*%
%ADD25RoundRect,0.087500X-0.225000X-0.087500X0.225000X-0.087500X0.225000X0.087500X-0.225000X0.087500X0*%
%ADD26RoundRect,0.087500X-0.087500X-0.225000X0.087500X-0.225000X0.087500X0.225000X-0.087500X0.225000X0*%
%ADD27RoundRect,0.225000X-0.250000X0.225000X-0.250000X-0.225000X0.250000X-0.225000X0.250000X0.225000X0*%
%ADD28C,2.200000*%
%ADD29RoundRect,0.200000X0.275000X-0.200000X0.275000X0.200000X-0.275000X0.200000X-0.275000X-0.200000X0*%
G04 APERTURE END LIST*
D10*
X187302190Y-110896428D02*
X187326000Y-110920237D01*
X187326000Y-110920237D02*
X187349809Y-110991666D01*
X187349809Y-110991666D02*
X187349809Y-111039285D01*
X187349809Y-111039285D02*
X187326000Y-111110713D01*
X187326000Y-111110713D02*
X187278380Y-111158332D01*
X187278380Y-111158332D02*
X187230761Y-111182142D01*
X187230761Y-111182142D02*
X187135523Y-111205951D01*
X187135523Y-111205951D02*
X187064095Y-111205951D01*
X187064095Y-111205951D02*
X186968857Y-111182142D01*
X186968857Y-111182142D02*
X186921238Y-111158332D01*
X186921238Y-111158332D02*
X186873619Y-111110713D01*
X186873619Y-111110713D02*
X186849809Y-111039285D01*
X186849809Y-111039285D02*
X186849809Y-110991666D01*
X186849809Y-110991666D02*
X186873619Y-110920237D01*
X186873619Y-110920237D02*
X186897428Y-110896428D01*
X187349809Y-110420237D02*
X187349809Y-110705951D01*
X187349809Y-110563094D02*
X186849809Y-110563094D01*
X186849809Y-110563094D02*
X186921238Y-110610713D01*
X186921238Y-110610713D02*
X186968857Y-110658332D01*
X186968857Y-110658332D02*
X186992666Y-110705951D01*
X187349809Y-109944047D02*
X187349809Y-110229761D01*
X187349809Y-110086904D02*
X186849809Y-110086904D01*
X186849809Y-110086904D02*
X186921238Y-110134523D01*
X186921238Y-110134523D02*
X186968857Y-110182142D01*
X186968857Y-110182142D02*
X186992666Y-110229761D01*
X156857110Y-110950038D02*
X156907617Y-110663829D01*
X156655079Y-110748008D02*
X157008633Y-110394455D01*
X157008633Y-110394455D02*
X157143320Y-110529142D01*
X157143320Y-110529142D02*
X157160156Y-110579649D01*
X157160156Y-110579649D02*
X157160156Y-110613321D01*
X157160156Y-110613321D02*
X157143320Y-110663829D01*
X157143320Y-110663829D02*
X157092812Y-110714336D01*
X157092812Y-110714336D02*
X157042304Y-110731172D01*
X157042304Y-110731172D02*
X157008633Y-110731172D01*
X157008633Y-110731172D02*
X156958125Y-110714336D01*
X156958125Y-110714336D02*
X156823438Y-110579649D01*
X157261171Y-110950038D02*
X157244335Y-110899531D01*
X157244335Y-110899531D02*
X157244335Y-110865859D01*
X157244335Y-110865859D02*
X157261171Y-110815351D01*
X157261171Y-110815351D02*
X157278007Y-110798516D01*
X157278007Y-110798516D02*
X157328514Y-110781680D01*
X157328514Y-110781680D02*
X157362186Y-110781680D01*
X157362186Y-110781680D02*
X157412694Y-110798516D01*
X157412694Y-110798516D02*
X157480037Y-110865859D01*
X157480037Y-110865859D02*
X157496873Y-110916367D01*
X157496873Y-110916367D02*
X157496873Y-110950038D01*
X157496873Y-110950038D02*
X157480037Y-111000546D01*
X157480037Y-111000546D02*
X157463201Y-111017382D01*
X157463201Y-111017382D02*
X157412694Y-111034218D01*
X157412694Y-111034218D02*
X157379022Y-111034218D01*
X157379022Y-111034218D02*
X157328514Y-111017382D01*
X157328514Y-111017382D02*
X157261171Y-110950038D01*
X157261171Y-110950038D02*
X157210663Y-110933203D01*
X157210663Y-110933203D02*
X157176991Y-110933203D01*
X157176991Y-110933203D02*
X157126484Y-110950038D01*
X157126484Y-110950038D02*
X157059140Y-111017382D01*
X157059140Y-111017382D02*
X157042304Y-111067890D01*
X157042304Y-111067890D02*
X157042304Y-111101561D01*
X157042304Y-111101561D02*
X157059140Y-111152069D01*
X157059140Y-111152069D02*
X157126484Y-111219412D01*
X157126484Y-111219412D02*
X157176991Y-111236248D01*
X157176991Y-111236248D02*
X157210663Y-111236248D01*
X157210663Y-111236248D02*
X157261171Y-111219412D01*
X157261171Y-111219412D02*
X157328514Y-111152069D01*
X157328514Y-111152069D02*
X157345350Y-111101561D01*
X157345350Y-111101561D02*
X157345350Y-111067890D01*
X157345350Y-111067890D02*
X157328514Y-111017382D01*
X171966666Y-111157190D02*
X171942857Y-111181000D01*
X171942857Y-111181000D02*
X171871428Y-111204809D01*
X171871428Y-111204809D02*
X171823809Y-111204809D01*
X171823809Y-111204809D02*
X171752381Y-111181000D01*
X171752381Y-111181000D02*
X171704762Y-111133380D01*
X171704762Y-111133380D02*
X171680952Y-111085761D01*
X171680952Y-111085761D02*
X171657143Y-110990523D01*
X171657143Y-110990523D02*
X171657143Y-110919095D01*
X171657143Y-110919095D02*
X171680952Y-110823857D01*
X171680952Y-110823857D02*
X171704762Y-110776238D01*
X171704762Y-110776238D02*
X171752381Y-110728619D01*
X171752381Y-110728619D02*
X171823809Y-110704809D01*
X171823809Y-110704809D02*
X171871428Y-110704809D01*
X171871428Y-110704809D02*
X171942857Y-110728619D01*
X171942857Y-110728619D02*
X171966666Y-110752428D01*
X172442857Y-111204809D02*
X172157143Y-111204809D01*
X172300000Y-111204809D02*
X172300000Y-110704809D01*
X172300000Y-110704809D02*
X172252381Y-110776238D01*
X172252381Y-110776238D02*
X172204762Y-110823857D01*
X172204762Y-110823857D02*
X172157143Y-110847666D01*
X179102190Y-110846428D02*
X179126000Y-110870237D01*
X179126000Y-110870237D02*
X179149809Y-110941666D01*
X179149809Y-110941666D02*
X179149809Y-110989285D01*
X179149809Y-110989285D02*
X179126000Y-111060713D01*
X179126000Y-111060713D02*
X179078380Y-111108332D01*
X179078380Y-111108332D02*
X179030761Y-111132142D01*
X179030761Y-111132142D02*
X178935523Y-111155951D01*
X178935523Y-111155951D02*
X178864095Y-111155951D01*
X178864095Y-111155951D02*
X178768857Y-111132142D01*
X178768857Y-111132142D02*
X178721238Y-111108332D01*
X178721238Y-111108332D02*
X178673619Y-111060713D01*
X178673619Y-111060713D02*
X178649809Y-110989285D01*
X178649809Y-110989285D02*
X178649809Y-110941666D01*
X178649809Y-110941666D02*
X178673619Y-110870237D01*
X178673619Y-110870237D02*
X178697428Y-110846428D01*
X179149809Y-110370237D02*
X179149809Y-110655951D01*
X179149809Y-110513094D02*
X178649809Y-110513094D01*
X178649809Y-110513094D02*
X178721238Y-110560713D01*
X178721238Y-110560713D02*
X178768857Y-110608332D01*
X178768857Y-110608332D02*
X178792666Y-110655951D01*
X178697428Y-110179761D02*
X178673619Y-110155952D01*
X178673619Y-110155952D02*
X178649809Y-110108333D01*
X178649809Y-110108333D02*
X178649809Y-109989285D01*
X178649809Y-109989285D02*
X178673619Y-109941666D01*
X178673619Y-109941666D02*
X178697428Y-109917857D01*
X178697428Y-109917857D02*
X178745047Y-109894047D01*
X178745047Y-109894047D02*
X178792666Y-109894047D01*
X178792666Y-109894047D02*
X178864095Y-109917857D01*
X178864095Y-109917857D02*
X179149809Y-110203571D01*
X179149809Y-110203571D02*
X179149809Y-109894047D01*
X162632110Y-119625038D02*
X162682617Y-119338829D01*
X162430079Y-119423008D02*
X162783633Y-119069455D01*
X162783633Y-119069455D02*
X162918320Y-119204142D01*
X162918320Y-119204142D02*
X162935156Y-119254649D01*
X162935156Y-119254649D02*
X162935156Y-119288321D01*
X162935156Y-119288321D02*
X162918320Y-119338829D01*
X162918320Y-119338829D02*
X162867812Y-119389336D01*
X162867812Y-119389336D02*
X162817304Y-119406172D01*
X162817304Y-119406172D02*
X162783633Y-119406172D01*
X162783633Y-119406172D02*
X162733125Y-119389336D01*
X162733125Y-119389336D02*
X162598438Y-119254649D01*
X162800469Y-119793397D02*
X162867812Y-119860741D01*
X162867812Y-119860741D02*
X162918320Y-119877577D01*
X162918320Y-119877577D02*
X162951991Y-119877577D01*
X162951991Y-119877577D02*
X163036171Y-119860741D01*
X163036171Y-119860741D02*
X163120350Y-119810233D01*
X163120350Y-119810233D02*
X163255037Y-119675546D01*
X163255037Y-119675546D02*
X163271873Y-119625038D01*
X163271873Y-119625038D02*
X163271873Y-119591367D01*
X163271873Y-119591367D02*
X163255037Y-119540859D01*
X163255037Y-119540859D02*
X163187694Y-119473516D01*
X163187694Y-119473516D02*
X163137186Y-119456680D01*
X163137186Y-119456680D02*
X163103514Y-119456680D01*
X163103514Y-119456680D02*
X163053007Y-119473516D01*
X163053007Y-119473516D02*
X162968827Y-119557695D01*
X162968827Y-119557695D02*
X162951991Y-119608203D01*
X162951991Y-119608203D02*
X162951991Y-119641874D01*
X162951991Y-119641874D02*
X162968827Y-119692382D01*
X162968827Y-119692382D02*
X163036171Y-119759725D01*
X163036171Y-119759725D02*
X163086678Y-119776561D01*
X163086678Y-119776561D02*
X163120350Y-119776561D01*
X163120350Y-119776561D02*
X163170858Y-119759725D01*
X174966666Y-111182190D02*
X174942857Y-111206000D01*
X174942857Y-111206000D02*
X174871428Y-111229809D01*
X174871428Y-111229809D02*
X174823809Y-111229809D01*
X174823809Y-111229809D02*
X174752381Y-111206000D01*
X174752381Y-111206000D02*
X174704762Y-111158380D01*
X174704762Y-111158380D02*
X174680952Y-111110761D01*
X174680952Y-111110761D02*
X174657143Y-111015523D01*
X174657143Y-111015523D02*
X174657143Y-110944095D01*
X174657143Y-110944095D02*
X174680952Y-110848857D01*
X174680952Y-110848857D02*
X174704762Y-110801238D01*
X174704762Y-110801238D02*
X174752381Y-110753619D01*
X174752381Y-110753619D02*
X174823809Y-110729809D01*
X174823809Y-110729809D02*
X174871428Y-110729809D01*
X174871428Y-110729809D02*
X174942857Y-110753619D01*
X174942857Y-110753619D02*
X174966666Y-110777428D01*
X175157143Y-110777428D02*
X175180952Y-110753619D01*
X175180952Y-110753619D02*
X175228571Y-110729809D01*
X175228571Y-110729809D02*
X175347619Y-110729809D01*
X175347619Y-110729809D02*
X175395238Y-110753619D01*
X175395238Y-110753619D02*
X175419047Y-110777428D01*
X175419047Y-110777428D02*
X175442857Y-110825047D01*
X175442857Y-110825047D02*
X175442857Y-110872666D01*
X175442857Y-110872666D02*
X175419047Y-110944095D01*
X175419047Y-110944095D02*
X175133333Y-111229809D01*
X175133333Y-111229809D02*
X175442857Y-111229809D01*
X162281547Y-110499808D02*
X162281547Y-110904570D01*
X162281547Y-110904570D02*
X162305357Y-110952189D01*
X162305357Y-110952189D02*
X162329166Y-110975999D01*
X162329166Y-110975999D02*
X162376785Y-110999808D01*
X162376785Y-110999808D02*
X162472023Y-110999808D01*
X162472023Y-110999808D02*
X162519642Y-110975999D01*
X162519642Y-110975999D02*
X162543452Y-110952189D01*
X162543452Y-110952189D02*
X162567261Y-110904570D01*
X162567261Y-110904570D02*
X162567261Y-110499808D01*
X162757738Y-110499808D02*
X163067262Y-110499808D01*
X163067262Y-110499808D02*
X162900595Y-110690284D01*
X162900595Y-110690284D02*
X162972024Y-110690284D01*
X162972024Y-110690284D02*
X163019643Y-110714094D01*
X163019643Y-110714094D02*
X163043452Y-110737903D01*
X163043452Y-110737903D02*
X163067262Y-110785522D01*
X163067262Y-110785522D02*
X163067262Y-110904570D01*
X163067262Y-110904570D02*
X163043452Y-110952189D01*
X163043452Y-110952189D02*
X163019643Y-110975999D01*
X163019643Y-110975999D02*
X162972024Y-110999808D01*
X162972024Y-110999808D02*
X162829167Y-110999808D01*
X162829167Y-110999808D02*
X162781548Y-110975999D01*
X162781548Y-110975999D02*
X162757738Y-110952189D01*
X180499809Y-102283333D02*
X180261714Y-102449999D01*
X180499809Y-102569047D02*
X179999809Y-102569047D01*
X179999809Y-102569047D02*
X179999809Y-102378571D01*
X179999809Y-102378571D02*
X180023619Y-102330952D01*
X180023619Y-102330952D02*
X180047428Y-102307142D01*
X180047428Y-102307142D02*
X180095047Y-102283333D01*
X180095047Y-102283333D02*
X180166476Y-102283333D01*
X180166476Y-102283333D02*
X180214095Y-102307142D01*
X180214095Y-102307142D02*
X180237904Y-102330952D01*
X180237904Y-102330952D02*
X180261714Y-102378571D01*
X180261714Y-102378571D02*
X180261714Y-102569047D01*
X180499809Y-101807142D02*
X180499809Y-102092856D01*
X180499809Y-101949999D02*
X179999809Y-101949999D01*
X179999809Y-101949999D02*
X180071238Y-101997618D01*
X180071238Y-101997618D02*
X180118857Y-102045237D01*
X180118857Y-102045237D02*
X180142666Y-102092856D01*
D11*
X181379819Y-114274998D02*
X181617914Y-114274998D01*
X181522676Y-114513093D02*
X181617914Y-114274998D01*
X181617914Y-114274998D02*
X181522676Y-114036903D01*
X181808390Y-114417855D02*
X181617914Y-114274998D01*
X181617914Y-114274998D02*
X181808390Y-114132141D01*
D10*
X159402190Y-115033333D02*
X159426000Y-115057142D01*
X159426000Y-115057142D02*
X159449809Y-115128571D01*
X159449809Y-115128571D02*
X159449809Y-115176190D01*
X159449809Y-115176190D02*
X159426000Y-115247618D01*
X159426000Y-115247618D02*
X159378380Y-115295237D01*
X159378380Y-115295237D02*
X159330761Y-115319047D01*
X159330761Y-115319047D02*
X159235523Y-115342856D01*
X159235523Y-115342856D02*
X159164095Y-115342856D01*
X159164095Y-115342856D02*
X159068857Y-115319047D01*
X159068857Y-115319047D02*
X159021238Y-115295237D01*
X159021238Y-115295237D02*
X158973619Y-115247618D01*
X158973619Y-115247618D02*
X158949809Y-115176190D01*
X158949809Y-115176190D02*
X158949809Y-115128571D01*
X158949809Y-115128571D02*
X158973619Y-115057142D01*
X158973619Y-115057142D02*
X158997428Y-115033333D01*
X158949809Y-114580952D02*
X158949809Y-114819047D01*
X158949809Y-114819047D02*
X159187904Y-114842856D01*
X159187904Y-114842856D02*
X159164095Y-114819047D01*
X159164095Y-114819047D02*
X159140285Y-114771428D01*
X159140285Y-114771428D02*
X159140285Y-114652380D01*
X159140285Y-114652380D02*
X159164095Y-114604761D01*
X159164095Y-114604761D02*
X159187904Y-114580952D01*
X159187904Y-114580952D02*
X159235523Y-114557142D01*
X159235523Y-114557142D02*
X159354571Y-114557142D01*
X159354571Y-114557142D02*
X159402190Y-114580952D01*
X159402190Y-114580952D02*
X159426000Y-114604761D01*
X159426000Y-114604761D02*
X159449809Y-114652380D01*
X159449809Y-114652380D02*
X159449809Y-114771428D01*
X159449809Y-114771428D02*
X159426000Y-114819047D01*
X159426000Y-114819047D02*
X159402190Y-114842856D01*
X166077190Y-113683333D02*
X166101000Y-113707142D01*
X166101000Y-113707142D02*
X166124809Y-113778571D01*
X166124809Y-113778571D02*
X166124809Y-113826190D01*
X166124809Y-113826190D02*
X166101000Y-113897618D01*
X166101000Y-113897618D02*
X166053380Y-113945237D01*
X166053380Y-113945237D02*
X166005761Y-113969047D01*
X166005761Y-113969047D02*
X165910523Y-113992856D01*
X165910523Y-113992856D02*
X165839095Y-113992856D01*
X165839095Y-113992856D02*
X165743857Y-113969047D01*
X165743857Y-113969047D02*
X165696238Y-113945237D01*
X165696238Y-113945237D02*
X165648619Y-113897618D01*
X165648619Y-113897618D02*
X165624809Y-113826190D01*
X165624809Y-113826190D02*
X165624809Y-113778571D01*
X165624809Y-113778571D02*
X165648619Y-113707142D01*
X165648619Y-113707142D02*
X165672428Y-113683333D01*
X165624809Y-113254761D02*
X165624809Y-113349999D01*
X165624809Y-113349999D02*
X165648619Y-113397618D01*
X165648619Y-113397618D02*
X165672428Y-113421428D01*
X165672428Y-113421428D02*
X165743857Y-113469047D01*
X165743857Y-113469047D02*
X165839095Y-113492856D01*
X165839095Y-113492856D02*
X166029571Y-113492856D01*
X166029571Y-113492856D02*
X166077190Y-113469047D01*
X166077190Y-113469047D02*
X166101000Y-113445237D01*
X166101000Y-113445237D02*
X166124809Y-113397618D01*
X166124809Y-113397618D02*
X166124809Y-113302380D01*
X166124809Y-113302380D02*
X166101000Y-113254761D01*
X166101000Y-113254761D02*
X166077190Y-113230952D01*
X166077190Y-113230952D02*
X166029571Y-113207142D01*
X166029571Y-113207142D02*
X165910523Y-113207142D01*
X165910523Y-113207142D02*
X165862904Y-113230952D01*
X165862904Y-113230952D02*
X165839095Y-113254761D01*
X165839095Y-113254761D02*
X165815285Y-113302380D01*
X165815285Y-113302380D02*
X165815285Y-113397618D01*
X165815285Y-113397618D02*
X165839095Y-113445237D01*
X165839095Y-113445237D02*
X165862904Y-113469047D01*
X165862904Y-113469047D02*
X165910523Y-113492856D01*
X181699809Y-106833333D02*
X181461714Y-106999999D01*
X181699809Y-107119047D02*
X181199809Y-107119047D01*
X181199809Y-107119047D02*
X181199809Y-106928571D01*
X181199809Y-106928571D02*
X181223619Y-106880952D01*
X181223619Y-106880952D02*
X181247428Y-106857142D01*
X181247428Y-106857142D02*
X181295047Y-106833333D01*
X181295047Y-106833333D02*
X181366476Y-106833333D01*
X181366476Y-106833333D02*
X181414095Y-106857142D01*
X181414095Y-106857142D02*
X181437904Y-106880952D01*
X181437904Y-106880952D02*
X181461714Y-106928571D01*
X181461714Y-106928571D02*
X181461714Y-107119047D01*
X181366476Y-106404761D02*
X181699809Y-106404761D01*
X181176000Y-106523809D02*
X181533142Y-106642856D01*
X181533142Y-106642856D02*
X181533142Y-106333333D01*
X159377190Y-112008333D02*
X159401000Y-112032142D01*
X159401000Y-112032142D02*
X159424809Y-112103571D01*
X159424809Y-112103571D02*
X159424809Y-112151190D01*
X159424809Y-112151190D02*
X159401000Y-112222618D01*
X159401000Y-112222618D02*
X159353380Y-112270237D01*
X159353380Y-112270237D02*
X159305761Y-112294047D01*
X159305761Y-112294047D02*
X159210523Y-112317856D01*
X159210523Y-112317856D02*
X159139095Y-112317856D01*
X159139095Y-112317856D02*
X159043857Y-112294047D01*
X159043857Y-112294047D02*
X158996238Y-112270237D01*
X158996238Y-112270237D02*
X158948619Y-112222618D01*
X158948619Y-112222618D02*
X158924809Y-112151190D01*
X158924809Y-112151190D02*
X158924809Y-112103571D01*
X158924809Y-112103571D02*
X158948619Y-112032142D01*
X158948619Y-112032142D02*
X158972428Y-112008333D01*
X158924809Y-111841666D02*
X158924809Y-111508333D01*
X158924809Y-111508333D02*
X159424809Y-111722618D01*
X164582190Y-116833333D02*
X164606000Y-116857142D01*
X164606000Y-116857142D02*
X164629809Y-116928571D01*
X164629809Y-116928571D02*
X164629809Y-116976190D01*
X164629809Y-116976190D02*
X164606000Y-117047618D01*
X164606000Y-117047618D02*
X164558380Y-117095237D01*
X164558380Y-117095237D02*
X164510761Y-117119047D01*
X164510761Y-117119047D02*
X164415523Y-117142856D01*
X164415523Y-117142856D02*
X164344095Y-117142856D01*
X164344095Y-117142856D02*
X164248857Y-117119047D01*
X164248857Y-117119047D02*
X164201238Y-117095237D01*
X164201238Y-117095237D02*
X164153619Y-117047618D01*
X164153619Y-117047618D02*
X164129809Y-116976190D01*
X164129809Y-116976190D02*
X164129809Y-116928571D01*
X164129809Y-116928571D02*
X164153619Y-116857142D01*
X164153619Y-116857142D02*
X164177428Y-116833333D01*
X164344095Y-116547618D02*
X164320285Y-116595237D01*
X164320285Y-116595237D02*
X164296476Y-116619047D01*
X164296476Y-116619047D02*
X164248857Y-116642856D01*
X164248857Y-116642856D02*
X164225047Y-116642856D01*
X164225047Y-116642856D02*
X164177428Y-116619047D01*
X164177428Y-116619047D02*
X164153619Y-116595237D01*
X164153619Y-116595237D02*
X164129809Y-116547618D01*
X164129809Y-116547618D02*
X164129809Y-116452380D01*
X164129809Y-116452380D02*
X164153619Y-116404761D01*
X164153619Y-116404761D02*
X164177428Y-116380952D01*
X164177428Y-116380952D02*
X164225047Y-116357142D01*
X164225047Y-116357142D02*
X164248857Y-116357142D01*
X164248857Y-116357142D02*
X164296476Y-116380952D01*
X164296476Y-116380952D02*
X164320285Y-116404761D01*
X164320285Y-116404761D02*
X164344095Y-116452380D01*
X164344095Y-116452380D02*
X164344095Y-116547618D01*
X164344095Y-116547618D02*
X164367904Y-116595237D01*
X164367904Y-116595237D02*
X164391714Y-116619047D01*
X164391714Y-116619047D02*
X164439333Y-116642856D01*
X164439333Y-116642856D02*
X164534571Y-116642856D01*
X164534571Y-116642856D02*
X164582190Y-116619047D01*
X164582190Y-116619047D02*
X164606000Y-116595237D01*
X164606000Y-116595237D02*
X164629809Y-116547618D01*
X164629809Y-116547618D02*
X164629809Y-116452380D01*
X164629809Y-116452380D02*
X164606000Y-116404761D01*
X164606000Y-116404761D02*
X164582190Y-116380952D01*
X164582190Y-116380952D02*
X164534571Y-116357142D01*
X164534571Y-116357142D02*
X164439333Y-116357142D01*
X164439333Y-116357142D02*
X164391714Y-116380952D01*
X164391714Y-116380952D02*
X164367904Y-116404761D01*
X164367904Y-116404761D02*
X164344095Y-116452380D01*
D12*
X185465000Y-111240581D02*
X185465000Y-110959419D01*
X186485000Y-111240581D02*
X186485000Y-110959419D01*
X156262770Y-112351697D02*
X156598303Y-112687230D01*
X157001697Y-111612770D02*
X157337230Y-111948303D01*
X172190581Y-109040000D02*
X171909419Y-109040000D01*
X172190581Y-110060000D02*
X171909419Y-110060000D01*
X179565000Y-111090581D02*
X179565000Y-110809419D01*
X180585000Y-111090581D02*
X180585000Y-110809419D01*
X161273303Y-120187230D02*
X160937770Y-119851697D01*
X162012230Y-119448303D02*
X161676697Y-119112770D01*
X175190581Y-109065000D02*
X174909419Y-109065000D01*
X175190581Y-110085000D02*
X174909419Y-110085000D01*
X161562500Y-111750000D02*
X161562500Y-111750000D01*
X161562500Y-112249999D02*
X161562500Y-111949999D01*
X161562500Y-113450001D02*
X161562500Y-113450001D01*
X161562500Y-113950000D02*
X161562500Y-113450001D01*
X162062499Y-111750000D02*
X161762499Y-111750000D01*
X162062499Y-113950000D02*
X161562500Y-113950000D01*
X163262501Y-111750000D02*
X163762500Y-111750000D01*
X163262501Y-113950000D02*
X163262501Y-113950000D01*
X163762500Y-111750000D02*
X163762500Y-112249999D01*
X163762500Y-112249999D02*
X163762500Y-112249999D01*
X163762500Y-113450001D02*
X163762500Y-113950000D01*
X163762500Y-113950000D02*
X163262501Y-113950000D01*
X161562500Y-111750000D02*
X161202501Y-111750000D01*
X161562500Y-111390001D01*
X161562500Y-111750000D01*
G36*
X161562500Y-111750000D02*
G01*
X161202501Y-111750000D01*
X161562500Y-111390001D01*
X161562500Y-111750000D01*
G37*
X178752500Y-101312742D02*
X178752500Y-101787258D01*
X179797500Y-101312742D02*
X179797500Y-101787258D01*
D13*
X185025000Y-113775000D02*
X181025000Y-113775000D01*
X181025000Y-109775000D01*
X185025000Y-109775000D01*
X185025000Y-113775000D01*
D12*
X159765000Y-114390581D02*
X159765000Y-114109419D01*
X160785000Y-114390581D02*
X160785000Y-114109419D01*
X171515000Y-108510000D02*
X171515000Y-108335000D01*
X172190000Y-105790000D02*
X171815000Y-105790000D01*
X172190000Y-108510000D02*
X171515000Y-108510000D01*
X174060000Y-105790000D02*
X174735000Y-105790000D01*
X174060000Y-108510000D02*
X174735000Y-108510000D01*
X174735000Y-105790000D02*
X174735000Y-105965000D01*
X174735000Y-108510000D02*
X174735000Y-108335000D01*
X171515000Y-105790000D02*
X171375000Y-105600000D01*
X171655000Y-105600000D01*
X171515000Y-105790000D01*
G36*
X171515000Y-105790000D02*
G01*
X171375000Y-105600000D01*
X171655000Y-105600000D01*
X171515000Y-105790000D01*
G37*
X164340000Y-112784419D02*
X164340000Y-113065581D01*
X165360000Y-112784419D02*
X165360000Y-113065581D01*
X179852500Y-106987258D02*
X179852500Y-106512742D01*
X180897500Y-106987258D02*
X180897500Y-106512742D01*
X159740000Y-111109419D02*
X159740000Y-111390581D01*
X160760000Y-111109419D02*
X160760000Y-111390581D01*
X162465000Y-116609419D02*
X162465000Y-116890581D01*
X163485000Y-116609419D02*
X163485000Y-116890581D01*
%LPC*%
D14*
X185975000Y-111875000D03*
X185975000Y-110325000D03*
D15*
X156216637Y-111566637D03*
X157383363Y-112733363D03*
D16*
X172825000Y-109550000D03*
X171275000Y-109550000D03*
D14*
X180075000Y-111725000D03*
X180075000Y-110175000D03*
D17*
X162058363Y-120233363D03*
X160891637Y-119066637D03*
D16*
X175825000Y-109575000D03*
X174275000Y-109575000D03*
D18*
X161900000Y-112100000D03*
X161900000Y-112600000D03*
X161900000Y-113100000D03*
X161900000Y-113600000D03*
D19*
X162412500Y-113612500D03*
X162912500Y-113612500D03*
D18*
X163425000Y-113600000D03*
X163425000Y-113100000D03*
X163425000Y-112600000D03*
X163425000Y-112100000D03*
D19*
X162912500Y-112087500D03*
X162412500Y-112087500D03*
D20*
X179275000Y-100725000D03*
X179275000Y-102375000D03*
D21*
X181925000Y-112994200D03*
X183025000Y-112994201D03*
X184125000Y-112994200D03*
D22*
X184244201Y-111775000D03*
D21*
X184125000Y-110555800D03*
X183025000Y-110555799D03*
X181925000Y-110555800D03*
D22*
X181805799Y-111775000D03*
D23*
X183025000Y-111775000D03*
D14*
X160275000Y-115025000D03*
X160275000Y-113475000D03*
D24*
X195625000Y-129650000D03*
D25*
X171962500Y-106400000D03*
X171962500Y-106900000D03*
X171962500Y-107400000D03*
X171962500Y-107900000D03*
D26*
X172625000Y-108062500D03*
X173125000Y-108062500D03*
X173625000Y-108062500D03*
D25*
X174287500Y-107900000D03*
X174287500Y-107400000D03*
X174287500Y-106900000D03*
X174287500Y-106400000D03*
D26*
X173625000Y-106237500D03*
X173125000Y-106237500D03*
X172625000Y-106237500D03*
D24*
X150625000Y-129650000D03*
D27*
X164850000Y-112150000D03*
X164850000Y-113700000D03*
D28*
X153100000Y-87225000D03*
X193125000Y-127150000D03*
X153125000Y-127150000D03*
X193125000Y-87150000D03*
D29*
X180375000Y-107575000D03*
X180375000Y-105925000D03*
D27*
X160250000Y-110475000D03*
X160250000Y-112025000D03*
D24*
X150625000Y-84650000D03*
X195625000Y-84650000D03*
D27*
X162975000Y-115975000D03*
X162975000Y-117525000D03*
%LPD*%
M02*
