G04 #@! TF.GenerationSoftware,KiCad,Pcbnew,8.0.1*
G04 #@! TF.CreationDate,2025-02-17T15:23:14+05:00*
G04 #@! TF.ProjectId,Sensors,53656e73-6f72-4732-9e6b-696361645f70,rev?*
G04 #@! TF.SameCoordinates,Original*
G04 #@! TF.FileFunction,Copper,L1,Top*
G04 #@! TF.FilePolarity,Positive*
%FSLAX46Y46*%
G04 Gerber Fmt 4.6, Leading zero omitted, Abs format (unit mm)*
G04 Created by KiCad (PCBNEW 8.0.1) date 2025-02-17 15:23:14*
%MOMM*%
%LPD*%
G01*
G04 APERTURE LIST*
G04 Aperture macros list*
%AMRoundRect*
0 Rectangle with rounded corners*
0 $1 Rounding radius*
0 $2 $3 $4 $5 $6 $7 $8 $9 X,Y pos of 4 corners*
0 Add a 4 corners polygon primitive as box body*
4,1,4,$2,$3,$4,$5,$6,$7,$8,$9,$2,$3,0*
0 Add four circle primitives for the rounded corners*
1,1,$1+$1,$2,$3*
1,1,$1+$1,$4,$5*
1,1,$1+$1,$6,$7*
1,1,$1+$1,$8,$9*
0 Add four rect primitives between the rounded corners*
20,1,$1+$1,$2,$3,$4,$5,0*
20,1,$1+$1,$4,$5,$6,$7,0*
20,1,$1+$1,$6,$7,$8,$9,0*
20,1,$1+$1,$8,$9,$2,$3,0*%
G04 Aperture macros list end*
G04 #@! TA.AperFunction,SMDPad,CuDef*
%ADD10RoundRect,0.225000X0.250000X-0.225000X0.250000X0.225000X-0.250000X0.225000X-0.250000X-0.225000X0*%
G04 #@! TD*
G04 #@! TA.AperFunction,SMDPad,CuDef*
%ADD11RoundRect,0.200000X-0.335876X-0.053033X-0.053033X-0.335876X0.335876X0.053033X0.053033X0.335876X0*%
G04 #@! TD*
G04 #@! TA.AperFunction,SMDPad,CuDef*
%ADD12RoundRect,0.225000X0.225000X0.250000X-0.225000X0.250000X-0.225000X-0.250000X0.225000X-0.250000X0*%
G04 #@! TD*
G04 #@! TA.AperFunction,SMDPad,CuDef*
%ADD13RoundRect,0.200000X0.335876X0.053033X0.053033X0.335876X-0.335876X-0.053033X-0.053033X-0.335876X0*%
G04 #@! TD*
G04 #@! TA.AperFunction,SMDPad,CuDef*
%ADD14R,0.375000X0.350000*%
G04 #@! TD*
G04 #@! TA.AperFunction,SMDPad,CuDef*
%ADD15R,0.350000X0.375000*%
G04 #@! TD*
G04 #@! TA.AperFunction,SMDPad,CuDef*
%ADD16RoundRect,0.200000X-0.275000X0.200000X-0.275000X-0.200000X0.275000X-0.200000X0.275000X0.200000X0*%
G04 #@! TD*
G04 #@! TA.AperFunction,SMDPad,CuDef*
%ADD17R,0.838200X0.609600*%
G04 #@! TD*
G04 #@! TA.AperFunction,SMDPad,CuDef*
%ADD18R,0.609600X0.838200*%
G04 #@! TD*
G04 #@! TA.AperFunction,SMDPad,CuDef*
%ADD19R,1.066800X1.066800*%
G04 #@! TD*
G04 #@! TA.AperFunction,SMDPad,CuDef*
%ADD20C,0.500000*%
G04 #@! TD*
G04 #@! TA.AperFunction,SMDPad,CuDef*
%ADD21RoundRect,0.087500X-0.225000X-0.087500X0.225000X-0.087500X0.225000X0.087500X-0.225000X0.087500X0*%
G04 #@! TD*
G04 #@! TA.AperFunction,SMDPad,CuDef*
%ADD22RoundRect,0.087500X-0.087500X-0.225000X0.087500X-0.225000X0.087500X0.225000X-0.087500X0.225000X0*%
G04 #@! TD*
G04 #@! TA.AperFunction,SMDPad,CuDef*
%ADD23RoundRect,0.225000X-0.250000X0.225000X-0.250000X-0.225000X0.250000X-0.225000X0.250000X0.225000X0*%
G04 #@! TD*
G04 #@! TA.AperFunction,SMDPad,CuDef*
%ADD24RoundRect,0.200000X0.275000X-0.200000X0.275000X0.200000X-0.275000X0.200000X-0.275000X-0.200000X0*%
G04 #@! TD*
G04 #@! TA.AperFunction,ViaPad*
%ADD25C,0.600000*%
G04 #@! TD*
G04 #@! TA.AperFunction,Conductor*
%ADD26C,0.300000*%
G04 #@! TD*
G04 #@! TA.AperFunction,Conductor*
%ADD27C,0.500000*%
G04 #@! TD*
G04 APERTURE END LIST*
D10*
X185975000Y-111875000D03*
X185975000Y-110325000D03*
D11*
X156216637Y-111566637D03*
X157383363Y-112733363D03*
D12*
X172825000Y-109550000D03*
X171275000Y-109550000D03*
D10*
X180075000Y-111725000D03*
X180075000Y-110175000D03*
D13*
X162058363Y-120233363D03*
X160891637Y-119066637D03*
D12*
X175825000Y-109575000D03*
X174275000Y-109575000D03*
D14*
X161900000Y-112100000D03*
X161900000Y-112600000D03*
X161900000Y-113100000D03*
X161900000Y-113600000D03*
D15*
X162412500Y-113612500D03*
X162912500Y-113612500D03*
D14*
X163425000Y-113600000D03*
X163425000Y-113100000D03*
X163425000Y-112600000D03*
X163425000Y-112100000D03*
D15*
X162912500Y-112087500D03*
X162412500Y-112087500D03*
D16*
X179275000Y-100725000D03*
X179275000Y-102375000D03*
D17*
X181925000Y-112994200D03*
X183025000Y-112994201D03*
X184125000Y-112994200D03*
D18*
X184244201Y-111775000D03*
D17*
X184125000Y-110555800D03*
X183025000Y-110555799D03*
X181925000Y-110555800D03*
D18*
X181805799Y-111775000D03*
D19*
X183025000Y-111775000D03*
D10*
X160275000Y-115025000D03*
X160275000Y-113475000D03*
D20*
X195625000Y-129650000D03*
D21*
X171962500Y-106400000D03*
X171962500Y-106900000D03*
X171962500Y-107400000D03*
X171962500Y-107900000D03*
D22*
X172625000Y-108062500D03*
X173125000Y-108062500D03*
X173625000Y-108062500D03*
D21*
X174287500Y-107900000D03*
X174287500Y-107400000D03*
X174287500Y-106900000D03*
X174287500Y-106400000D03*
D22*
X173625000Y-106237500D03*
X173125000Y-106237500D03*
X172625000Y-106237500D03*
D20*
X150625000Y-129650000D03*
D23*
X164850000Y-112150000D03*
X164850000Y-113700000D03*
D24*
X180375000Y-107575000D03*
X180375000Y-105925000D03*
D23*
X160250000Y-110475000D03*
X160250000Y-112025000D03*
D20*
X150625000Y-84650000D03*
X195625000Y-84650000D03*
D23*
X162975000Y-115975000D03*
X162975000Y-117525000D03*
D25*
X196970000Y-126800000D03*
X196970000Y-124260000D03*
X196970000Y-121720000D03*
X196970000Y-119180000D03*
X196970000Y-116640000D03*
X196970000Y-114100000D03*
X196970000Y-111560000D03*
X196970000Y-109020000D03*
X196970000Y-106480000D03*
X196970000Y-103940000D03*
X196970000Y-101400000D03*
X196970000Y-98860000D03*
X196970000Y-96320000D03*
X196970000Y-93780000D03*
X196970000Y-91240000D03*
X196970000Y-88700000D03*
X196970000Y-86160000D03*
X194430000Y-129340000D03*
X194430000Y-124260000D03*
X194430000Y-121720000D03*
X194430000Y-119180000D03*
X194430000Y-116640000D03*
X194430000Y-114100000D03*
X194430000Y-111560000D03*
X194430000Y-109020000D03*
X194430000Y-106480000D03*
X194430000Y-103940000D03*
X194430000Y-101400000D03*
X194430000Y-98860000D03*
X194430000Y-96320000D03*
X194430000Y-93780000D03*
X194430000Y-91240000D03*
X194430000Y-83620000D03*
X191890000Y-129340000D03*
X191890000Y-109020000D03*
X191890000Y-106480000D03*
X191890000Y-103940000D03*
X191890000Y-101400000D03*
X191890000Y-98860000D03*
X191890000Y-96320000D03*
X191890000Y-93780000D03*
X191890000Y-91240000D03*
X191890000Y-83620000D03*
X189350000Y-129340000D03*
X189350000Y-126800000D03*
X189350000Y-106480000D03*
X189350000Y-103940000D03*
X189350000Y-101400000D03*
X189350000Y-88700000D03*
X189350000Y-86160000D03*
X189350000Y-83620000D03*
X186810000Y-129340000D03*
X186810000Y-126800000D03*
X186810000Y-106480000D03*
X186810000Y-103940000D03*
X186810000Y-101400000D03*
X186810000Y-88700000D03*
X186810000Y-86160000D03*
X186810000Y-83620000D03*
X184270000Y-129340000D03*
X184270000Y-126800000D03*
X184270000Y-106480000D03*
X184270000Y-103940000D03*
X184270000Y-101400000D03*
X184270000Y-88700000D03*
X184270000Y-86160000D03*
X184270000Y-83620000D03*
X181730000Y-129340000D03*
X181730000Y-126800000D03*
X181730000Y-106480000D03*
X181730000Y-103940000D03*
X181730000Y-88700000D03*
X181730000Y-86160000D03*
X181730000Y-83620000D03*
X179190000Y-129340000D03*
X179190000Y-126800000D03*
X179190000Y-124260000D03*
X179190000Y-121720000D03*
X179190000Y-98860000D03*
X179190000Y-91240000D03*
X179190000Y-88700000D03*
X179190000Y-86160000D03*
X179190000Y-83620000D03*
X176650000Y-129340000D03*
X176650000Y-126800000D03*
X176650000Y-124260000D03*
X176650000Y-121720000D03*
X176650000Y-119180000D03*
X176650000Y-103940000D03*
X176650000Y-91240000D03*
X176650000Y-88700000D03*
X176650000Y-86160000D03*
X176650000Y-83620000D03*
X174110000Y-129340000D03*
X174110000Y-126800000D03*
X174110000Y-124260000D03*
X174110000Y-121720000D03*
X174110000Y-119180000D03*
X174110000Y-116640000D03*
X174110000Y-114100000D03*
X174110000Y-93780000D03*
X174110000Y-91240000D03*
X174110000Y-88700000D03*
X174110000Y-86160000D03*
X174110000Y-83620000D03*
X171570000Y-129340000D03*
X171570000Y-126800000D03*
X171570000Y-124260000D03*
X171570000Y-121720000D03*
X171570000Y-119180000D03*
X171570000Y-116640000D03*
X171570000Y-114100000D03*
X171570000Y-96320000D03*
X171570000Y-93780000D03*
X171570000Y-91240000D03*
X171570000Y-88700000D03*
X171570000Y-86160000D03*
X171570000Y-83620000D03*
X169030000Y-129340000D03*
X169030000Y-126800000D03*
X169030000Y-124260000D03*
X169030000Y-121720000D03*
X169030000Y-119180000D03*
X169030000Y-116640000D03*
X169030000Y-114100000D03*
X169030000Y-109020000D03*
X169030000Y-103940000D03*
X169030000Y-101400000D03*
X169030000Y-98860000D03*
X169030000Y-96320000D03*
X169030000Y-93780000D03*
X169030000Y-91240000D03*
X169030000Y-88700000D03*
X169030000Y-86160000D03*
X169030000Y-83620000D03*
X166490000Y-129340000D03*
X166490000Y-126800000D03*
X166490000Y-124260000D03*
X166490000Y-121720000D03*
X166490000Y-116640000D03*
X166490000Y-109020000D03*
X166490000Y-106480000D03*
X166490000Y-103940000D03*
X166490000Y-101400000D03*
X166490000Y-98860000D03*
X166490000Y-96320000D03*
X166490000Y-93780000D03*
X166490000Y-91240000D03*
X166490000Y-88700000D03*
X166490000Y-86160000D03*
X166490000Y-83620000D03*
X163950000Y-129340000D03*
X163950000Y-126800000D03*
X163950000Y-124260000D03*
X163950000Y-121720000D03*
X163950000Y-106480000D03*
X163950000Y-103940000D03*
X163950000Y-101400000D03*
X163950000Y-98860000D03*
X163950000Y-96320000D03*
X163950000Y-93780000D03*
X163950000Y-91240000D03*
X163950000Y-88700000D03*
X163950000Y-86160000D03*
X163950000Y-83620000D03*
X161410000Y-129340000D03*
X161410000Y-126800000D03*
X161410000Y-124260000D03*
X161410000Y-121720000D03*
X161410000Y-106480000D03*
X161410000Y-103940000D03*
X161410000Y-101400000D03*
X161410000Y-98860000D03*
X161410000Y-96320000D03*
X161410000Y-93780000D03*
X161410000Y-91240000D03*
X161410000Y-88700000D03*
X161410000Y-86160000D03*
X161410000Y-83620000D03*
X158870000Y-129340000D03*
X158870000Y-126800000D03*
X158870000Y-124260000D03*
X158870000Y-121720000D03*
X158870000Y-106480000D03*
X158870000Y-103940000D03*
X158870000Y-101400000D03*
X158870000Y-98860000D03*
X158870000Y-96320000D03*
X158870000Y-93780000D03*
X158870000Y-91240000D03*
X158870000Y-88700000D03*
X158870000Y-86160000D03*
X158870000Y-83620000D03*
X156330000Y-129340000D03*
X156330000Y-126800000D03*
X156330000Y-106480000D03*
X156330000Y-103940000D03*
X156330000Y-101400000D03*
X156330000Y-98860000D03*
X156330000Y-96320000D03*
X156330000Y-93780000D03*
X156330000Y-91240000D03*
X156330000Y-88700000D03*
X156330000Y-86160000D03*
X156330000Y-83620000D03*
X153790000Y-129340000D03*
X153790000Y-114100000D03*
X153790000Y-111560000D03*
X153790000Y-109020000D03*
X153790000Y-106480000D03*
X153790000Y-103940000D03*
X153790000Y-101400000D03*
X153790000Y-98860000D03*
X153790000Y-96320000D03*
X153790000Y-93780000D03*
X153790000Y-91240000D03*
X153790000Y-83620000D03*
X151250000Y-124260000D03*
X151250000Y-121720000D03*
X151250000Y-119180000D03*
X151250000Y-116640000D03*
X151250000Y-114100000D03*
X151250000Y-111560000D03*
X151250000Y-109020000D03*
X151250000Y-106480000D03*
X151250000Y-103940000D03*
X151250000Y-101400000D03*
X151250000Y-98860000D03*
X151250000Y-96320000D03*
X151250000Y-93780000D03*
X151250000Y-91240000D03*
X151250000Y-88700000D03*
X158725000Y-113750000D03*
X191325000Y-119850000D03*
X155525000Y-110625000D03*
X175850000Y-113025000D03*
X160725000Y-116225000D03*
X160700000Y-109250000D03*
X163575000Y-114875000D03*
X170375000Y-106600000D03*
X183425000Y-109225000D03*
X163475000Y-118575000D03*
X185725000Y-109075000D03*
X162625000Y-118475000D03*
X159875000Y-116150000D03*
X165325000Y-114825000D03*
X172875000Y-110925000D03*
X159875000Y-109225000D03*
X180500000Y-109000000D03*
X173850000Y-110700000D03*
X164525000Y-114750000D03*
X186550000Y-109075000D03*
X182600000Y-109250000D03*
X170525000Y-107900000D03*
X179625000Y-108975000D03*
X187600000Y-114675000D03*
X181200000Y-100550000D03*
X185625000Y-114625000D03*
X182850000Y-114950000D03*
X178050000Y-108700000D03*
X184425000Y-109025000D03*
X154200000Y-120150000D03*
X156600000Y-113800000D03*
X184225000Y-99625000D03*
X187600000Y-94100000D03*
X189050000Y-93800000D03*
D26*
X163425000Y-112600000D02*
X164400000Y-112600000D01*
D27*
X175850000Y-113025000D02*
X172100000Y-113025000D01*
D26*
X184344201Y-111875000D02*
X184244201Y-111775000D01*
D27*
X175825000Y-108350000D02*
X178250000Y-105925000D01*
X166533363Y-120233363D02*
X162058363Y-120233363D01*
X171225000Y-112150000D02*
X171275000Y-112200000D01*
X190050000Y-113700000D02*
X191325000Y-114975000D01*
X164850000Y-108975000D02*
X164850000Y-112150000D01*
X177150000Y-111725000D02*
X175850000Y-113025000D01*
D26*
X181755799Y-111725000D02*
X181805799Y-111775000D01*
D27*
X175850000Y-113025000D02*
X175850000Y-109600000D01*
X179275000Y-105675000D02*
X179025000Y-105925000D01*
X155525000Y-110875000D02*
X156216637Y-111566637D01*
X155525000Y-110625000D02*
X155525000Y-110875000D01*
X171275000Y-112200000D02*
X171275000Y-109550000D01*
D26*
X172625000Y-108425000D02*
X172625000Y-108062500D01*
X175825000Y-108775000D02*
X174950000Y-107900000D01*
D27*
X157950000Y-108200000D02*
X164075000Y-108200000D01*
D26*
X164800000Y-112100000D02*
X164850000Y-112150000D01*
X174950000Y-107900000D02*
X174287500Y-107900000D01*
D27*
X172100000Y-113025000D02*
X171275000Y-112200000D01*
X159000000Y-113475000D02*
X158725000Y-113750000D01*
X155525000Y-110625000D02*
X157950000Y-108200000D01*
X159500000Y-112025000D02*
X158725000Y-112800000D01*
X164850000Y-112150000D02*
X167625000Y-112150000D01*
X158725000Y-112800000D02*
X158725000Y-113750000D01*
X167625000Y-119325000D02*
X166625000Y-120325000D01*
D26*
X160250000Y-112025000D02*
X160825000Y-112600000D01*
D27*
X180075000Y-111725000D02*
X177150000Y-111725000D01*
X167625000Y-112150000D02*
X171225000Y-112150000D01*
D26*
X185975000Y-111875000D02*
X184344201Y-111875000D01*
X160650000Y-113100000D02*
X161900000Y-113100000D01*
D27*
X160250000Y-112025000D02*
X159500000Y-112025000D01*
X166625000Y-120325000D02*
X166533363Y-120233363D01*
D26*
X160825000Y-112600000D02*
X161900000Y-112600000D01*
D27*
X164075000Y-108200000D02*
X164850000Y-108975000D01*
D26*
X164400000Y-112600000D02*
X164850000Y-112150000D01*
D27*
X188225000Y-111875000D02*
X190050000Y-113700000D01*
X160275000Y-113475000D02*
X159000000Y-113475000D01*
X175825000Y-109575000D02*
X175825000Y-108350000D01*
X191325000Y-114975000D02*
X191325000Y-119850000D01*
X179025000Y-105925000D02*
X180375000Y-105925000D01*
X167625000Y-112150000D02*
X167625000Y-119325000D01*
D26*
X160275000Y-113475000D02*
X160650000Y-113100000D01*
X175825000Y-109575000D02*
X175825000Y-108775000D01*
D27*
X179275000Y-102375000D02*
X179275000Y-105675000D01*
D26*
X163425000Y-112100000D02*
X164800000Y-112100000D01*
X171500000Y-109550000D02*
X172625000Y-108425000D01*
D27*
X175850000Y-109600000D02*
X175825000Y-109575000D01*
X178250000Y-105925000D02*
X179025000Y-105925000D01*
X185975000Y-111875000D02*
X188225000Y-111875000D01*
D26*
X180075000Y-111725000D02*
X181755799Y-111725000D01*
X171275000Y-109550000D02*
X171500000Y-109550000D01*
X172825000Y-110875000D02*
X172875000Y-110925000D01*
X174275000Y-109575000D02*
X174275000Y-110275000D01*
X171025000Y-107400000D02*
X170525000Y-107900000D01*
X170675000Y-106900000D02*
X170375000Y-106600000D01*
X183025000Y-110200000D02*
X183025000Y-109625000D01*
X160275000Y-115025000D02*
X160275000Y-115775000D01*
X164850000Y-114350000D02*
X165325000Y-114825000D01*
X162975000Y-118075000D02*
X163475000Y-118575000D01*
X183025000Y-110555799D02*
X183025000Y-110200000D01*
X164850000Y-113700000D02*
X164850000Y-114350000D01*
X173625000Y-108062500D02*
X173625000Y-108925000D01*
X171962500Y-106900000D02*
X170675000Y-106900000D01*
X160250000Y-110475000D02*
X160250000Y-109700000D01*
X183025000Y-109625000D02*
X183425000Y-109225000D01*
X172825000Y-109550000D02*
X173125000Y-109250000D01*
X163575000Y-114875000D02*
X162912500Y-114212500D01*
X164850000Y-113700000D02*
X164250000Y-113100000D01*
X160275000Y-115025000D02*
X160275000Y-115750000D01*
X162912500Y-114212500D02*
X162912500Y-113612500D01*
X173625000Y-108925000D02*
X174275000Y-109575000D01*
X183025000Y-109675000D02*
X182600000Y-109250000D01*
X162975000Y-117525000D02*
X162975000Y-118075000D01*
X180075000Y-110175000D02*
X180075000Y-109425000D01*
X164850000Y-113700000D02*
X164850000Y-114425000D01*
X164850000Y-114425000D02*
X164525000Y-114750000D01*
X180075000Y-109425000D02*
X179625000Y-108975000D01*
X185975000Y-109325000D02*
X185725000Y-109075000D01*
X173125000Y-109250000D02*
X173125000Y-108062500D01*
X160250000Y-109600000D02*
X159875000Y-109225000D01*
X180075000Y-109425000D02*
X180500000Y-109000000D01*
X160250000Y-110475000D02*
X160250000Y-109600000D01*
X174275000Y-110275000D02*
X173850000Y-110700000D01*
X185975000Y-110325000D02*
X185975000Y-109650000D01*
X162975000Y-118125000D02*
X162625000Y-118475000D01*
X162975000Y-117525000D02*
X162975000Y-118125000D01*
X172825000Y-109550000D02*
X172825000Y-110875000D01*
X171962500Y-107400000D02*
X171025000Y-107400000D01*
X160275000Y-115775000D02*
X160725000Y-116225000D01*
X185975000Y-110325000D02*
X185975000Y-109325000D01*
X185975000Y-109650000D02*
X186550000Y-109075000D01*
X160275000Y-115750000D02*
X159875000Y-116150000D01*
X160250000Y-109700000D02*
X160700000Y-109250000D01*
X164250000Y-113100000D02*
X163425000Y-113100000D01*
X183025000Y-110200000D02*
X183025000Y-109675000D01*
X162975000Y-115975000D02*
X162975000Y-115325000D01*
X162450000Y-114600000D02*
X162412500Y-114562500D01*
X162975000Y-115325000D02*
X162450000Y-114800000D01*
X162412500Y-114562500D02*
X162412500Y-113612500D01*
X162450000Y-114800000D02*
X162450000Y-114600000D01*
X187600000Y-114675000D02*
X185919200Y-112994200D01*
X185919200Y-112994200D02*
X184125000Y-112994200D01*
X173625000Y-106237500D02*
X173625000Y-104675000D01*
X173625000Y-104675000D02*
X177750000Y-100550000D01*
X177750000Y-100550000D02*
X181200000Y-100550000D01*
X185625000Y-114625000D02*
X184655799Y-114625000D01*
X184655799Y-114625000D02*
X183025000Y-112994201D01*
X181925000Y-112994200D02*
X181925000Y-114025000D01*
X181925000Y-114025000D02*
X182850000Y-114950000D01*
X181925000Y-108775000D02*
X181925000Y-110555800D01*
X181025000Y-107875000D02*
X181925000Y-108775000D01*
X178875000Y-107875000D02*
X181025000Y-107875000D01*
X177900000Y-108700000D02*
X178050000Y-108700000D01*
X178050000Y-108700000D02*
X178875000Y-107875000D01*
X184425000Y-109025000D02*
X184425000Y-110255800D01*
X184425000Y-110255800D02*
X184125000Y-110555800D01*
X161900000Y-117775000D02*
X160725000Y-118950000D01*
X160725000Y-118950000D02*
X159525000Y-120150000D01*
X161900000Y-113600000D02*
X161900000Y-117775000D01*
X159525000Y-120150000D02*
X154200000Y-120150000D01*
X161075000Y-111275000D02*
X159125000Y-111275000D01*
X161900000Y-112100000D02*
X161075000Y-111275000D01*
X159125000Y-111275000D02*
X156600000Y-113800000D01*
X173125000Y-106237500D02*
X173125000Y-102650000D01*
X173125000Y-102650000D02*
X178300000Y-97475000D01*
X178300000Y-97475000D02*
X182075000Y-97475000D01*
X182075000Y-97475000D02*
X184225000Y-99625000D01*
X179700000Y-94100000D02*
X172600000Y-101200000D01*
X187600000Y-94100000D02*
X179700000Y-94100000D01*
X172600000Y-106212500D02*
X172625000Y-106237500D01*
X172600000Y-101200000D02*
X172600000Y-106212500D01*
X171325000Y-106400000D02*
X171962500Y-106400000D01*
X189050000Y-93800000D02*
X188550000Y-93300000D01*
X171025000Y-106100000D02*
X171325000Y-106400000D01*
X188550000Y-93300000D02*
X177875000Y-93300000D01*
X171025000Y-100150000D02*
X171025000Y-106100000D01*
X177875000Y-93300000D02*
X171025000Y-100150000D01*
G04 #@! TA.AperFunction,Conductor*
G36*
X166817539Y-112920185D02*
G01*
X166863294Y-112972989D01*
X166874500Y-113024500D01*
X166874500Y-118962770D01*
X166854815Y-119029809D01*
X166838181Y-119050451D01*
X166442088Y-119446544D01*
X166380765Y-119480029D01*
X166354407Y-119482863D01*
X162738791Y-119482863D01*
X162671752Y-119463178D01*
X162651110Y-119446544D01*
X162566701Y-119362135D01*
X162566691Y-119362125D01*
X162512248Y-119316753D01*
X162436934Y-119277225D01*
X162361620Y-119237696D01*
X162196452Y-119196987D01*
X162052013Y-119196987D01*
X161984974Y-119177302D01*
X161939219Y-119124498D01*
X161928013Y-119072987D01*
X161928013Y-118928548D01*
X161893018Y-118786566D01*
X161896087Y-118716764D01*
X161925732Y-118669212D01*
X162203005Y-118391940D01*
X162264325Y-118358457D01*
X162334017Y-118363441D01*
X162355781Y-118374085D01*
X162416512Y-118411545D01*
X162577393Y-118464855D01*
X162676683Y-118474999D01*
X162724999Y-118474998D01*
X162725000Y-118474998D01*
X162725000Y-117775000D01*
X163225000Y-117775000D01*
X163225000Y-118474999D01*
X163273308Y-118474999D01*
X163273322Y-118474998D01*
X163372607Y-118464855D01*
X163533481Y-118411547D01*
X163533492Y-118411542D01*
X163677728Y-118322575D01*
X163677732Y-118322572D01*
X163797572Y-118202732D01*
X163797575Y-118202728D01*
X163886542Y-118058492D01*
X163886547Y-118058481D01*
X163939855Y-117897606D01*
X163949999Y-117798322D01*
X163950000Y-117798309D01*
X163950000Y-117775000D01*
X163225000Y-117775000D01*
X162725000Y-117775000D01*
X162725000Y-117399000D01*
X162744685Y-117331961D01*
X162797489Y-117286206D01*
X162849000Y-117275000D01*
X163949999Y-117275000D01*
X163949999Y-117251692D01*
X163949998Y-117251677D01*
X163939855Y-117152392D01*
X163886547Y-116991518D01*
X163886542Y-116991507D01*
X163797575Y-116847271D01*
X163797572Y-116847267D01*
X163788339Y-116838034D01*
X163754854Y-116776711D01*
X163759838Y-116707019D01*
X163788343Y-116662668D01*
X163797968Y-116653044D01*
X163887003Y-116508697D01*
X163940349Y-116347708D01*
X163950500Y-116248345D01*
X163950499Y-115701656D01*
X163940349Y-115602292D01*
X163887003Y-115441303D01*
X163886999Y-115441297D01*
X163886998Y-115441294D01*
X163797970Y-115296959D01*
X163797967Y-115296955D01*
X163678043Y-115177031D01*
X163631254Y-115148171D01*
X163584530Y-115096223D01*
X163581791Y-115090086D01*
X163551466Y-115016875D01*
X163551464Y-115016872D01*
X163523167Y-114974522D01*
X163480277Y-114910331D01*
X163125761Y-114555815D01*
X163092276Y-114494492D01*
X163091852Y-114492463D01*
X163081733Y-114441587D01*
X163087962Y-114372000D01*
X163130825Y-114316823D01*
X163190097Y-114294111D01*
X163194877Y-114293597D01*
X163222435Y-114283318D01*
X163265766Y-114275499D01*
X163660372Y-114275499D01*
X163719983Y-114269091D01*
X163820038Y-114231772D01*
X163889725Y-114226789D01*
X163951049Y-114260273D01*
X163968906Y-114282857D01*
X164027426Y-114377731D01*
X164147267Y-114497572D01*
X164147271Y-114497575D01*
X164291507Y-114586542D01*
X164291518Y-114586547D01*
X164452393Y-114639855D01*
X164551683Y-114649999D01*
X164599999Y-114649998D01*
X164600000Y-114649998D01*
X164600000Y-113950000D01*
X165100000Y-113950000D01*
X165100000Y-114649999D01*
X165148308Y-114649999D01*
X165148322Y-114649998D01*
X165247607Y-114639855D01*
X165408481Y-114586547D01*
X165408492Y-114586542D01*
X165552728Y-114497575D01*
X165552732Y-114497572D01*
X165672572Y-114377732D01*
X165672575Y-114377728D01*
X165761542Y-114233492D01*
X165761547Y-114233481D01*
X165814855Y-114072606D01*
X165824999Y-113973322D01*
X165825000Y-113973309D01*
X165825000Y-113950000D01*
X165100000Y-113950000D01*
X164600000Y-113950000D01*
X164600000Y-113574000D01*
X164619685Y-113506961D01*
X164672489Y-113461206D01*
X164724000Y-113450000D01*
X165824999Y-113450000D01*
X165824999Y-113426692D01*
X165824998Y-113426677D01*
X165814855Y-113327392D01*
X165761547Y-113166518D01*
X165761542Y-113166507D01*
X165714103Y-113089597D01*
X165695662Y-113022205D01*
X165716584Y-112955541D01*
X165770226Y-112910772D01*
X165819641Y-112900500D01*
X166750500Y-112900500D01*
X166817539Y-112920185D01*
G37*
G04 #@! TD.AperFunction*
G04 #@! TA.AperFunction,Conductor*
G36*
X173808677Y-109319685D02*
G01*
X173815273Y-109325000D01*
X174401000Y-109325000D01*
X174468039Y-109344685D01*
X174513794Y-109397489D01*
X174525000Y-109449000D01*
X174525000Y-110549999D01*
X174548308Y-110549999D01*
X174548322Y-110549998D01*
X174647607Y-110539855D01*
X174808481Y-110486547D01*
X174808488Y-110486544D01*
X174910402Y-110423682D01*
X174977794Y-110405241D01*
X175044458Y-110426163D01*
X175089228Y-110479805D01*
X175099500Y-110529220D01*
X175099500Y-112150500D01*
X175079815Y-112217539D01*
X175027011Y-112263294D01*
X174975500Y-112274500D01*
X172462229Y-112274500D01*
X172395190Y-112254815D01*
X172374548Y-112238181D01*
X172061819Y-111925451D01*
X172028334Y-111864128D01*
X172025500Y-111837770D01*
X172025500Y-110519640D01*
X172045185Y-110452601D01*
X172097989Y-110406846D01*
X172167147Y-110396902D01*
X172214598Y-110414102D01*
X172291511Y-110461544D01*
X172291518Y-110461547D01*
X172452393Y-110514855D01*
X172551683Y-110524999D01*
X172575000Y-110524998D01*
X172575000Y-109800000D01*
X173075000Y-109800000D01*
X173075000Y-110524999D01*
X173098308Y-110524999D01*
X173098322Y-110524998D01*
X173197607Y-110514855D01*
X173358481Y-110461547D01*
X173358488Y-110461544D01*
X173464636Y-110396070D01*
X173532028Y-110377629D01*
X173594832Y-110396070D01*
X173741511Y-110486544D01*
X173741518Y-110486547D01*
X173902393Y-110539855D01*
X174001683Y-110549999D01*
X174025000Y-110549998D01*
X174025000Y-109825000D01*
X173358362Y-109825000D01*
X173291323Y-109805315D01*
X173284727Y-109800000D01*
X173075000Y-109800000D01*
X172575000Y-109800000D01*
X172575000Y-109446307D01*
X172594685Y-109379268D01*
X172611319Y-109358626D01*
X172633626Y-109336319D01*
X172694949Y-109302834D01*
X172721307Y-109300000D01*
X173741638Y-109300000D01*
X173808677Y-109319685D01*
G37*
G04 #@! TD.AperFunction*
G04 #@! TA.AperFunction,Conductor*
G36*
X163779809Y-108970185D02*
G01*
X163800451Y-108986819D01*
X164063181Y-109249548D01*
X164096666Y-109310871D01*
X164099500Y-109337229D01*
X164099500Y-111325500D01*
X164079815Y-111392539D01*
X164027011Y-111438294D01*
X163975500Y-111449500D01*
X163792200Y-111449500D01*
X163748867Y-111441682D01*
X163732595Y-111435613D01*
X163719981Y-111430908D01*
X163660383Y-111424501D01*
X163660381Y-111424500D01*
X163660373Y-111424500D01*
X163660365Y-111424500D01*
X163267202Y-111424500D01*
X163223872Y-111416683D01*
X163194983Y-111405909D01*
X163194982Y-111405908D01*
X163135382Y-111399501D01*
X163135373Y-111399500D01*
X163135363Y-111399500D01*
X162689633Y-111399500D01*
X162689621Y-111399501D01*
X162675748Y-111400992D01*
X162649256Y-111400991D01*
X162635389Y-111399501D01*
X162635375Y-111399500D01*
X162635373Y-111399500D01*
X162635370Y-111399500D01*
X162189629Y-111399500D01*
X162189615Y-111399501D01*
X162185240Y-111399972D01*
X162116481Y-111387564D01*
X162084309Y-111364363D01*
X161489674Y-110769727D01*
X161489673Y-110769726D01*
X161489669Y-110769723D01*
X161383127Y-110698535D01*
X161380884Y-110697606D01*
X161264744Y-110649499D01*
X161264738Y-110649497D01*
X161139071Y-110624500D01*
X161139069Y-110624500D01*
X159060931Y-110624500D01*
X159060929Y-110624500D01*
X158935261Y-110649497D01*
X158935255Y-110649499D01*
X158816870Y-110698535D01*
X158710331Y-110769722D01*
X158710324Y-110769728D01*
X157780787Y-111699265D01*
X157719464Y-111732750D01*
X157663431Y-111731981D01*
X157521452Y-111696987D01*
X157377013Y-111696987D01*
X157309974Y-111677302D01*
X157264219Y-111624498D01*
X157253013Y-111572987D01*
X157253013Y-111428548D01*
X157212303Y-111263379D01*
X157195042Y-111230491D01*
X157133247Y-111112752D01*
X157087875Y-111058309D01*
X156724965Y-110695399D01*
X156715274Y-110687322D01*
X156676378Y-110629283D01*
X156675034Y-110559426D01*
X156706978Y-110504388D01*
X156986366Y-110225000D01*
X159275000Y-110225000D01*
X160000000Y-110225000D01*
X160000000Y-109525000D01*
X160500000Y-109525000D01*
X160500000Y-110225000D01*
X161224999Y-110225000D01*
X161224999Y-110201692D01*
X161224998Y-110201677D01*
X161214855Y-110102392D01*
X161161547Y-109941518D01*
X161161542Y-109941507D01*
X161072575Y-109797271D01*
X161072572Y-109797267D01*
X160952732Y-109677427D01*
X160952728Y-109677424D01*
X160808492Y-109588457D01*
X160808481Y-109588452D01*
X160647606Y-109535144D01*
X160548322Y-109525000D01*
X160500000Y-109525000D01*
X160000000Y-109525000D01*
X159999999Y-109524999D01*
X159951693Y-109525000D01*
X159951675Y-109525001D01*
X159852392Y-109535144D01*
X159691518Y-109588452D01*
X159691507Y-109588457D01*
X159547271Y-109677424D01*
X159547267Y-109677427D01*
X159427427Y-109797267D01*
X159427424Y-109797271D01*
X159338457Y-109941507D01*
X159338452Y-109941518D01*
X159285144Y-110102393D01*
X159275000Y-110201677D01*
X159275000Y-110225000D01*
X156986366Y-110225000D01*
X158224549Y-108986819D01*
X158285872Y-108953334D01*
X158312230Y-108950500D01*
X163712770Y-108950500D01*
X163779809Y-108970185D01*
G37*
G04 #@! TD.AperFunction*
G04 #@! TA.AperFunction,Conductor*
G36*
X179576519Y-106695185D02*
G01*
X179622274Y-106747989D01*
X179632218Y-106817147D01*
X179603193Y-106880703D01*
X179597161Y-106887181D01*
X179544531Y-106939810D01*
X179544530Y-106939811D01*
X179456520Y-107085397D01*
X179440319Y-107137390D01*
X179401582Y-107195538D01*
X179337557Y-107223512D01*
X179321934Y-107224500D01*
X178810929Y-107224500D01*
X178709457Y-107244685D01*
X178693777Y-107247804D01*
X178692042Y-107248149D01*
X178685257Y-107249498D01*
X178566875Y-107298533D01*
X178566866Y-107298538D01*
X178460331Y-107369723D01*
X178460327Y-107369726D01*
X177951775Y-107878277D01*
X177890452Y-107911762D01*
X177877988Y-107913815D01*
X177870752Y-107914630D01*
X177870744Y-107914632D01*
X177700478Y-107974210D01*
X177547737Y-108070184D01*
X177420184Y-108197737D01*
X177324210Y-108350478D01*
X177264630Y-108520750D01*
X177255051Y-108605767D01*
X177253450Y-108616067D01*
X177249500Y-108635930D01*
X177249500Y-108648085D01*
X177248720Y-108661968D01*
X177244435Y-108700000D01*
X177247480Y-108727029D01*
X177248720Y-108738029D01*
X177249500Y-108751914D01*
X177249500Y-108764069D01*
X177253450Y-108783929D01*
X177255052Y-108794235D01*
X177264630Y-108879249D01*
X177324210Y-109049521D01*
X177336732Y-109069449D01*
X177420184Y-109202262D01*
X177547738Y-109329816D01*
X177700478Y-109425789D01*
X177852532Y-109478995D01*
X177870745Y-109485368D01*
X177870750Y-109485369D01*
X178049996Y-109505565D01*
X178050000Y-109505565D01*
X178050004Y-109505565D01*
X178229249Y-109485369D01*
X178229252Y-109485368D01*
X178229255Y-109485368D01*
X178399522Y-109425789D01*
X178552262Y-109329816D01*
X178679816Y-109202262D01*
X178775789Y-109049522D01*
X178835368Y-108879255D01*
X178836182Y-108872025D01*
X178863245Y-108807611D01*
X178871712Y-108798232D01*
X179108126Y-108561819D01*
X179169449Y-108528334D01*
X179195807Y-108525500D01*
X180704192Y-108525500D01*
X180771231Y-108545185D01*
X180791873Y-108561819D01*
X181238181Y-109008126D01*
X181271666Y-109069449D01*
X181274500Y-109095807D01*
X181274500Y-109736951D01*
X181254815Y-109803990D01*
X181224818Y-109836212D01*
X181223457Y-109837231D01*
X181157995Y-109861653D01*
X181089721Y-109846807D01*
X181040312Y-109797405D01*
X181031433Y-109776974D01*
X180986547Y-109641518D01*
X180986542Y-109641507D01*
X180897575Y-109497271D01*
X180897572Y-109497267D01*
X180777732Y-109377427D01*
X180777728Y-109377424D01*
X180633492Y-109288457D01*
X180633481Y-109288452D01*
X180472606Y-109235144D01*
X180373322Y-109225000D01*
X180325000Y-109225000D01*
X180325000Y-110301000D01*
X180305315Y-110368039D01*
X180252511Y-110413794D01*
X180201000Y-110425000D01*
X179100001Y-110425000D01*
X179100001Y-110448322D01*
X179110144Y-110547607D01*
X179163452Y-110708481D01*
X179163457Y-110708492D01*
X179210897Y-110785403D01*
X179229338Y-110852795D01*
X179208416Y-110919459D01*
X179154774Y-110964228D01*
X179105359Y-110974500D01*
X177076076Y-110974500D01*
X177047242Y-110980234D01*
X177047243Y-110980235D01*
X176931093Y-111003339D01*
X176931089Y-111003340D01*
X176864427Y-111030953D01*
X176794508Y-111059914D01*
X176794491Y-111059923D01*
X176793383Y-111060664D01*
X176792713Y-111060873D01*
X176789130Y-111062789D01*
X176788766Y-111062109D01*
X176726704Y-111081537D01*
X176659325Y-111063047D01*
X176612639Y-111011065D01*
X176600500Y-110957557D01*
X176600500Y-110349559D01*
X176619615Y-110284461D01*
X176619177Y-110284191D01*
X176620164Y-110282590D01*
X176620185Y-110282520D01*
X176620349Y-110282289D01*
X176622966Y-110278045D01*
X176622968Y-110278044D01*
X176712003Y-110133697D01*
X176765349Y-109972708D01*
X176770223Y-109925000D01*
X179100000Y-109925000D01*
X179825000Y-109925000D01*
X179825000Y-109225000D01*
X179824999Y-109224999D01*
X179776693Y-109225000D01*
X179776675Y-109225001D01*
X179677392Y-109235144D01*
X179516518Y-109288452D01*
X179516507Y-109288457D01*
X179372271Y-109377424D01*
X179372267Y-109377427D01*
X179252427Y-109497267D01*
X179252424Y-109497271D01*
X179163457Y-109641507D01*
X179163452Y-109641518D01*
X179110144Y-109802393D01*
X179100000Y-109901677D01*
X179100000Y-109925000D01*
X176770223Y-109925000D01*
X176775500Y-109873345D01*
X176775499Y-109276656D01*
X176772944Y-109251647D01*
X176765349Y-109177292D01*
X176765348Y-109177289D01*
X176757064Y-109152290D01*
X176712003Y-109016303D01*
X176711999Y-109016297D01*
X176711998Y-109016294D01*
X176622970Y-108871959D01*
X176622967Y-108871955D01*
X176611819Y-108860807D01*
X176578334Y-108799484D01*
X176575500Y-108773126D01*
X176575500Y-108712230D01*
X176595185Y-108645191D01*
X176611819Y-108624549D01*
X178524549Y-106711819D01*
X178585872Y-106678334D01*
X178612230Y-106675500D01*
X178951082Y-106675500D01*
X178951083Y-106675500D01*
X179098917Y-106675500D01*
X179509480Y-106675500D01*
X179576519Y-106695185D01*
G37*
G04 #@! TD.AperFunction*
G04 #@! TA.AperFunction,Conductor*
G36*
X178345097Y-101220185D02*
G01*
X178384174Y-101260349D01*
X178444528Y-101360185D01*
X178444531Y-101360189D01*
X178546661Y-101462319D01*
X178580146Y-101523642D01*
X178575162Y-101593334D01*
X178546661Y-101637681D01*
X178444531Y-101739810D01*
X178444530Y-101739811D01*
X178356522Y-101885393D01*
X178305913Y-102047807D01*
X178299500Y-102118386D01*
X178299500Y-102631613D01*
X178305913Y-102702192D01*
X178305913Y-102702194D01*
X178305914Y-102702196D01*
X178356522Y-102864606D01*
X178389673Y-102919445D01*
X178444530Y-103010188D01*
X178488180Y-103053837D01*
X178521666Y-103115160D01*
X178524500Y-103141519D01*
X178524500Y-105050500D01*
X178504815Y-105117539D01*
X178452011Y-105163294D01*
X178400500Y-105174500D01*
X178176080Y-105174500D01*
X178031092Y-105203340D01*
X178031082Y-105203343D01*
X177894511Y-105259912D01*
X177894498Y-105259919D01*
X177849759Y-105289814D01*
X177849758Y-105289815D01*
X177771579Y-105342051D01*
X177771578Y-105342052D01*
X175629470Y-107484161D01*
X175568147Y-107517646D01*
X175498455Y-107512662D01*
X175454108Y-107484161D01*
X175364673Y-107394726D01*
X175327259Y-107369727D01*
X175258127Y-107323535D01*
X175258124Y-107323533D01*
X175258123Y-107323533D01*
X175194813Y-107297309D01*
X175164452Y-107284733D01*
X175110049Y-107240894D01*
X175088967Y-107186361D01*
X175086310Y-107166179D01*
X175086310Y-107133821D01*
X175100500Y-107026040D01*
X175100500Y-106773960D01*
X175086310Y-106666178D01*
X175086310Y-106633821D01*
X175100500Y-106526040D01*
X175100500Y-106273960D01*
X175085365Y-106159001D01*
X175026117Y-106015963D01*
X174931867Y-105893133D01*
X174809037Y-105798883D01*
X174809036Y-105798882D01*
X174809037Y-105798882D01*
X174666002Y-105739636D01*
X174666000Y-105739635D01*
X174665999Y-105739635D01*
X174640452Y-105736271D01*
X174551047Y-105724500D01*
X174551040Y-105724500D01*
X174399500Y-105724500D01*
X174332461Y-105704815D01*
X174286706Y-105652011D01*
X174275500Y-105600500D01*
X174275500Y-104995808D01*
X174295185Y-104928769D01*
X174311819Y-104908127D01*
X177983127Y-101236819D01*
X178044450Y-101203334D01*
X178070808Y-101200500D01*
X178278058Y-101200500D01*
X178345097Y-101220185D01*
G37*
G04 #@! TD.AperFunction*
G04 #@! TA.AperFunction,Conductor*
G36*
X193102702Y-82425617D02*
G01*
X193512917Y-82443528D01*
X193523654Y-82444468D01*
X193928057Y-82497708D01*
X193938695Y-82499583D01*
X194336925Y-82587869D01*
X194347365Y-82590667D01*
X194736363Y-82713317D01*
X194746524Y-82717015D01*
X195123363Y-82873108D01*
X195133155Y-82877674D01*
X195494965Y-83066020D01*
X195504305Y-83071413D01*
X195789636Y-83253189D01*
X195848309Y-83290568D01*
X195857170Y-83296772D01*
X196180766Y-83545076D01*
X196189053Y-83552030D01*
X196489767Y-83827583D01*
X196497416Y-83835232D01*
X196772969Y-84135946D01*
X196779923Y-84144233D01*
X197028227Y-84467829D01*
X197034431Y-84476690D01*
X197253578Y-84820680D01*
X197258983Y-84830042D01*
X197315706Y-84939005D01*
X197447322Y-85191838D01*
X197451894Y-85201642D01*
X197607983Y-85578473D01*
X197611683Y-85588639D01*
X197734331Y-85977630D01*
X197737131Y-85988078D01*
X197825414Y-86386296D01*
X197827292Y-86396950D01*
X197880529Y-86801326D01*
X197881472Y-86812102D01*
X197899382Y-87222297D01*
X197899500Y-87227706D01*
X197899500Y-127222293D01*
X197899382Y-127227702D01*
X197881472Y-127637897D01*
X197880529Y-127648673D01*
X197827292Y-128053049D01*
X197825414Y-128063703D01*
X197737131Y-128461921D01*
X197734331Y-128472369D01*
X197611683Y-128861360D01*
X197607983Y-128871526D01*
X197451894Y-129248357D01*
X197447322Y-129258161D01*
X197258987Y-129619951D01*
X197253578Y-129629319D01*
X197034431Y-129973309D01*
X197028227Y-129982170D01*
X196779923Y-130305766D01*
X196772969Y-130314053D01*
X196497416Y-130614767D01*
X196489767Y-130622416D01*
X196189053Y-130897969D01*
X196180766Y-130904923D01*
X195857170Y-131153227D01*
X195848309Y-131159431D01*
X195504319Y-131378578D01*
X195494951Y-131383987D01*
X195133161Y-131572322D01*
X195123357Y-131576894D01*
X194746526Y-131732983D01*
X194736360Y-131736683D01*
X194347369Y-131859331D01*
X194336921Y-131862131D01*
X193938703Y-131950414D01*
X193928049Y-131952292D01*
X193523673Y-132005529D01*
X193512897Y-132006472D01*
X193102703Y-132024382D01*
X193097294Y-132024500D01*
X153102706Y-132024500D01*
X153097297Y-132024382D01*
X152687102Y-132006472D01*
X152676326Y-132005529D01*
X152271950Y-131952292D01*
X152261296Y-131950414D01*
X151863078Y-131862131D01*
X151852630Y-131859331D01*
X151463639Y-131736683D01*
X151453473Y-131732983D01*
X151076642Y-131576894D01*
X151066838Y-131572322D01*
X150947126Y-131510004D01*
X150705042Y-131383983D01*
X150695686Y-131378582D01*
X150523685Y-131269004D01*
X150351690Y-131159431D01*
X150342829Y-131153227D01*
X150019233Y-130904923D01*
X150010946Y-130897969D01*
X149710232Y-130622416D01*
X149702583Y-130614767D01*
X149427030Y-130314053D01*
X149420076Y-130305766D01*
X149171772Y-129982170D01*
X149165568Y-129973309D01*
X149050352Y-129792457D01*
X148959597Y-129650000D01*
X150119353Y-129650000D01*
X150139834Y-129792456D01*
X150184078Y-129889334D01*
X150199623Y-129923373D01*
X150293872Y-130032143D01*
X150414947Y-130109953D01*
X150414950Y-130109954D01*
X150414949Y-130109954D01*
X150553036Y-130150499D01*
X150553038Y-130150500D01*
X150553039Y-130150500D01*
X150696962Y-130150500D01*
X150696962Y-130150499D01*
X150835053Y-130109953D01*
X150956128Y-130032143D01*
X151050377Y-129923373D01*
X151110165Y-129792457D01*
X151130647Y-129650000D01*
X195119353Y-129650000D01*
X195139834Y-129792456D01*
X195184078Y-129889334D01*
X195199623Y-129923373D01*
X195293872Y-130032143D01*
X195414947Y-130109953D01*
X195414950Y-130109954D01*
X195414949Y-130109954D01*
X195553036Y-130150499D01*
X195553038Y-130150500D01*
X195553039Y-130150500D01*
X195696962Y-130150500D01*
X195696962Y-130150499D01*
X195835053Y-130109953D01*
X195956128Y-130032143D01*
X196050377Y-129923373D01*
X196110165Y-129792457D01*
X196130647Y-129650000D01*
X196110165Y-129507543D01*
X196050377Y-129376627D01*
X195956128Y-129267857D01*
X195835053Y-129190047D01*
X195835051Y-129190046D01*
X195835049Y-129190045D01*
X195835050Y-129190045D01*
X195696963Y-129149500D01*
X195696961Y-129149500D01*
X195553039Y-129149500D01*
X195553036Y-129149500D01*
X195414949Y-129190045D01*
X195293873Y-129267856D01*
X195199623Y-129376626D01*
X195199622Y-129376628D01*
X195139834Y-129507543D01*
X195119353Y-129650000D01*
X151130647Y-129650000D01*
X151110165Y-129507543D01*
X151050377Y-129376627D01*
X150956128Y-129267857D01*
X150835053Y-129190047D01*
X150835051Y-129190046D01*
X150835049Y-129190045D01*
X150835050Y-129190045D01*
X150696963Y-129149500D01*
X150696961Y-129149500D01*
X150553039Y-129149500D01*
X150553036Y-129149500D01*
X150414949Y-129190045D01*
X150293873Y-129267856D01*
X150199623Y-129376626D01*
X150199622Y-129376628D01*
X150139834Y-129507543D01*
X150119353Y-129650000D01*
X148959597Y-129650000D01*
X148946413Y-129629305D01*
X148941020Y-129619965D01*
X148752674Y-129258155D01*
X148748105Y-129248357D01*
X148723951Y-129190045D01*
X148592015Y-128871524D01*
X148588316Y-128861360D01*
X148465668Y-128472369D01*
X148462868Y-128461921D01*
X148374585Y-128063703D01*
X148372707Y-128053049D01*
X148319468Y-127648654D01*
X148318528Y-127637917D01*
X148301866Y-127256287D01*
X151774500Y-127256287D01*
X151807754Y-127466243D01*
X151867029Y-127648673D01*
X151873444Y-127668414D01*
X151969951Y-127857820D01*
X152094890Y-128029786D01*
X152245213Y-128180109D01*
X152417179Y-128305048D01*
X152417181Y-128305049D01*
X152417184Y-128305051D01*
X152606588Y-128401557D01*
X152808757Y-128467246D01*
X153018713Y-128500500D01*
X153018714Y-128500500D01*
X153231286Y-128500500D01*
X153231287Y-128500500D01*
X153441243Y-128467246D01*
X153643412Y-128401557D01*
X153832816Y-128305051D01*
X153854789Y-128289086D01*
X154004786Y-128180109D01*
X154004788Y-128180106D01*
X154004792Y-128180104D01*
X154155104Y-128029792D01*
X154155106Y-128029788D01*
X154155109Y-128029786D01*
X154280048Y-127857820D01*
X154280047Y-127857820D01*
X154280051Y-127857816D01*
X154376557Y-127668412D01*
X154442246Y-127466243D01*
X154475500Y-127256287D01*
X191774500Y-127256287D01*
X191807754Y-127466243D01*
X191867029Y-127648673D01*
X191873444Y-127668414D01*
X191969951Y-127857820D01*
X192094890Y-128029786D01*
X192245213Y-128180109D01*
X192417179Y-128305048D01*
X192417181Y-128305049D01*
X192417184Y-128305051D01*
X192606588Y-128401557D01*
X192808757Y-128467246D01*
X193018713Y-128500500D01*
X193018714Y-128500500D01*
X193231286Y-128500500D01*
X193231287Y-128500500D01*
X193441243Y-128467246D01*
X193643412Y-128401557D01*
X193832816Y-128305051D01*
X193854789Y-128289086D01*
X194004786Y-128180109D01*
X194004788Y-128180106D01*
X194004792Y-128180104D01*
X194155104Y-128029792D01*
X194155106Y-128029788D01*
X194155109Y-128029786D01*
X194280048Y-127857820D01*
X194280047Y-127857820D01*
X194280051Y-127857816D01*
X194376557Y-127668412D01*
X194442246Y-127466243D01*
X194475500Y-127256287D01*
X194475500Y-127043713D01*
X194442246Y-126833757D01*
X194376557Y-126631588D01*
X194280051Y-126442184D01*
X194280049Y-126442181D01*
X194280048Y-126442179D01*
X194155109Y-126270213D01*
X194004786Y-126119890D01*
X193832820Y-125994951D01*
X193643414Y-125898444D01*
X193643413Y-125898443D01*
X193643412Y-125898443D01*
X193441243Y-125832754D01*
X193441241Y-125832753D01*
X193441240Y-125832753D01*
X193279957Y-125807208D01*
X193231287Y-125799500D01*
X193018713Y-125799500D01*
X192970042Y-125807208D01*
X192808760Y-125832753D01*
X192606585Y-125898444D01*
X192417179Y-125994951D01*
X192245213Y-126119890D01*
X192094890Y-126270213D01*
X191969951Y-126442179D01*
X191873444Y-126631585D01*
X191807753Y-126833760D01*
X191774500Y-127043713D01*
X191774500Y-127256287D01*
X154475500Y-127256287D01*
X154475500Y-127043713D01*
X154442246Y-126833757D01*
X154376557Y-126631588D01*
X154280051Y-126442184D01*
X154280049Y-126442181D01*
X154280048Y-126442179D01*
X154155109Y-126270213D01*
X154004786Y-126119890D01*
X153832820Y-125994951D01*
X153643414Y-125898444D01*
X153643413Y-125898443D01*
X153643412Y-125898443D01*
X153441243Y-125832754D01*
X153441241Y-125832753D01*
X153441240Y-125832753D01*
X153279957Y-125807208D01*
X153231287Y-125799500D01*
X153018713Y-125799500D01*
X152970042Y-125807208D01*
X152808760Y-125832753D01*
X152606585Y-125898444D01*
X152417179Y-125994951D01*
X152245213Y-126119890D01*
X152094890Y-126270213D01*
X151969951Y-126442179D01*
X151873444Y-126631585D01*
X151807753Y-126833760D01*
X151774500Y-127043713D01*
X151774500Y-127256287D01*
X148301866Y-127256287D01*
X148300618Y-127227702D01*
X148300500Y-127222293D01*
X148300500Y-120150003D01*
X153394435Y-120150003D01*
X153414630Y-120329249D01*
X153414631Y-120329254D01*
X153474211Y-120499523D01*
X153559569Y-120635368D01*
X153570184Y-120652262D01*
X153697738Y-120779816D01*
X153850478Y-120875789D01*
X153942395Y-120907952D01*
X154020745Y-120935368D01*
X154020750Y-120935369D01*
X154199996Y-120955565D01*
X154200000Y-120955565D01*
X154200004Y-120955565D01*
X154379249Y-120935369D01*
X154379251Y-120935368D01*
X154379255Y-120935368D01*
X154379258Y-120935366D01*
X154379262Y-120935366D01*
X154469377Y-120903832D01*
X154549522Y-120875789D01*
X154639096Y-120819505D01*
X154705068Y-120800500D01*
X159589071Y-120800500D01*
X159673615Y-120783682D01*
X159714744Y-120775501D01*
X159833127Y-120726465D01*
X159855106Y-120711779D01*
X159939669Y-120655277D01*
X160494212Y-120100732D01*
X160555533Y-120067249D01*
X160611565Y-120068017D01*
X160753548Y-120103013D01*
X160897987Y-120103013D01*
X160965026Y-120122698D01*
X161010781Y-120175502D01*
X161021987Y-120227013D01*
X161021987Y-120371451D01*
X161062696Y-120536620D01*
X161083254Y-120575789D01*
X161141753Y-120687248D01*
X161187125Y-120741691D01*
X161550035Y-121104601D01*
X161604478Y-121149973D01*
X161755105Y-121229029D01*
X161920274Y-121269739D01*
X162090386Y-121269739D01*
X162255555Y-121229029D01*
X162406182Y-121149973D01*
X162460625Y-121104601D01*
X162545044Y-121020182D01*
X162606367Y-120986697D01*
X162632725Y-120983863D01*
X166229821Y-120983863D01*
X166277273Y-120993301D01*
X166406087Y-121046658D01*
X166406091Y-121046658D01*
X166406092Y-121046659D01*
X166551079Y-121075500D01*
X166551082Y-121075500D01*
X166698919Y-121075500D01*
X166796461Y-121056096D01*
X166843912Y-121046658D01*
X166980494Y-120990084D01*
X167103416Y-120907952D01*
X168207952Y-119803415D01*
X168260323Y-119725035D01*
X168290084Y-119680495D01*
X168318987Y-119610717D01*
X168346659Y-119543912D01*
X168370469Y-119424211D01*
X168375500Y-119398918D01*
X168375500Y-113024500D01*
X168395185Y-112957461D01*
X168447989Y-112911706D01*
X168499500Y-112900500D01*
X170862770Y-112900500D01*
X170929809Y-112920185D01*
X170950451Y-112936819D01*
X171621580Y-113607948D01*
X171621584Y-113607951D01*
X171744498Y-113690080D01*
X171744511Y-113690087D01*
X171871763Y-113742796D01*
X171881087Y-113746658D01*
X171881091Y-113746658D01*
X171881092Y-113746659D01*
X172026079Y-113775500D01*
X172026082Y-113775500D01*
X172173917Y-113775500D01*
X175550028Y-113775500D01*
X175590983Y-113782458D01*
X175670745Y-113810368D01*
X175670750Y-113810369D01*
X175849996Y-113830565D01*
X175850000Y-113830565D01*
X175850004Y-113830565D01*
X176029249Y-113810369D01*
X176029252Y-113810368D01*
X176029255Y-113810368D01*
X176199522Y-113750789D01*
X176352262Y-113654816D01*
X176479816Y-113527262D01*
X176575789Y-113374522D01*
X176575792Y-113374510D01*
X176578810Y-113368248D01*
X176580650Y-113369134D01*
X176603305Y-113333061D01*
X177424548Y-112511819D01*
X177485871Y-112478334D01*
X177512229Y-112475500D01*
X179273126Y-112475500D01*
X179340165Y-112495185D01*
X179360807Y-112511819D01*
X179371955Y-112522967D01*
X179371959Y-112522970D01*
X179516294Y-112611998D01*
X179516297Y-112611999D01*
X179516303Y-112612003D01*
X179677292Y-112665349D01*
X179776655Y-112675500D01*
X180373344Y-112675499D01*
X180373352Y-112675498D01*
X180373355Y-112675498D01*
X180427760Y-112669940D01*
X180472708Y-112665349D01*
X180633697Y-112612003D01*
X180778044Y-112522968D01*
X180798528Y-112502483D01*
X180859847Y-112469000D01*
X180929538Y-112473983D01*
X180985473Y-112515854D01*
X181009891Y-112581318D01*
X181009497Y-112603419D01*
X181006819Y-112628334D01*
X181005400Y-112641530D01*
X181005400Y-113346870D01*
X181005401Y-113346876D01*
X181011808Y-113406483D01*
X181062102Y-113541328D01*
X181062106Y-113541335D01*
X181121553Y-113620745D01*
X181148354Y-113656546D01*
X181224812Y-113713782D01*
X181266682Y-113769715D01*
X181274500Y-113813048D01*
X181274500Y-114089069D01*
X181274500Y-114089071D01*
X181274499Y-114089071D01*
X181298620Y-114210328D01*
X181299498Y-114214743D01*
X181348533Y-114333125D01*
X181419726Y-114439673D01*
X181419727Y-114439674D01*
X182028277Y-115048223D01*
X182061762Y-115109546D01*
X182063815Y-115122012D01*
X182064630Y-115129246D01*
X182064632Y-115129255D01*
X182124210Y-115299521D01*
X182156424Y-115350789D01*
X182220184Y-115452262D01*
X182347738Y-115579816D01*
X182500478Y-115675789D01*
X182577477Y-115702732D01*
X182670745Y-115735368D01*
X182670750Y-115735369D01*
X182849996Y-115755565D01*
X182850000Y-115755565D01*
X182850004Y-115755565D01*
X183029249Y-115735369D01*
X183029252Y-115735368D01*
X183029255Y-115735368D01*
X183199522Y-115675789D01*
X183352262Y-115579816D01*
X183479816Y-115452262D01*
X183575789Y-115299522D01*
X183635368Y-115129255D01*
X183639090Y-115096223D01*
X183655565Y-114950003D01*
X183655565Y-114949996D01*
X183643779Y-114845391D01*
X183655834Y-114776570D01*
X183703183Y-114725190D01*
X183770793Y-114707566D01*
X183837199Y-114729293D01*
X183854680Y-114743827D01*
X184241124Y-115130272D01*
X184241131Y-115130278D01*
X184336367Y-115193912D01*
X184347670Y-115201464D01*
X184347671Y-115201464D01*
X184347672Y-115201465D01*
X184466055Y-115250501D01*
X184466059Y-115250501D01*
X184466060Y-115250502D01*
X184591727Y-115275500D01*
X184591730Y-115275500D01*
X185119932Y-115275500D01*
X185185904Y-115294506D01*
X185275477Y-115350789D01*
X185275481Y-115350790D01*
X185445737Y-115410366D01*
X185445743Y-115410367D01*
X185445745Y-115410368D01*
X185445746Y-115410368D01*
X185445750Y-115410369D01*
X185624996Y-115430565D01*
X185625000Y-115430565D01*
X185625004Y-115430565D01*
X185804249Y-115410369D01*
X185804252Y-115410368D01*
X185804255Y-115410368D01*
X185974522Y-115350789D01*
X186127262Y-115254816D01*
X186254816Y-115127262D01*
X186350789Y-114974522D01*
X186410368Y-114804255D01*
X186411447Y-114794685D01*
X186416292Y-114751677D01*
X186421936Y-114701580D01*
X186449002Y-114637168D01*
X186506596Y-114597612D01*
X186576433Y-114595473D01*
X186632837Y-114627783D01*
X186778277Y-114773223D01*
X186811762Y-114834546D01*
X186813815Y-114847012D01*
X186814630Y-114854246D01*
X186814632Y-114854255D01*
X186874210Y-115024521D01*
X186940019Y-115129255D01*
X186970184Y-115177262D01*
X187097738Y-115304816D01*
X187250478Y-115400789D01*
X187366266Y-115441305D01*
X187420745Y-115460368D01*
X187420750Y-115460369D01*
X187599996Y-115480565D01*
X187600000Y-115480565D01*
X187600004Y-115480565D01*
X187779249Y-115460369D01*
X187779252Y-115460368D01*
X187779255Y-115460368D01*
X187949522Y-115400789D01*
X188102262Y-115304816D01*
X188229816Y-115177262D01*
X188325789Y-115024522D01*
X188385368Y-114854255D01*
X188385369Y-114854246D01*
X188405565Y-114675003D01*
X188405565Y-114674996D01*
X188385369Y-114495750D01*
X188385368Y-114495745D01*
X188365748Y-114439674D01*
X188325789Y-114325478D01*
X188311201Y-114302262D01*
X188266910Y-114231773D01*
X188229816Y-114172738D01*
X188102262Y-114045184D01*
X188057934Y-114017331D01*
X187949521Y-113949210D01*
X187779255Y-113889632D01*
X187779246Y-113889630D01*
X187772012Y-113888815D01*
X187707600Y-113861744D01*
X187698223Y-113853277D01*
X186685660Y-112840714D01*
X186652175Y-112779391D01*
X186657159Y-112709699D01*
X186685660Y-112665352D01*
X186689193Y-112661819D01*
X186750516Y-112628334D01*
X186776874Y-112625500D01*
X187862770Y-112625500D01*
X187929809Y-112645185D01*
X187950451Y-112661819D01*
X189467048Y-114178416D01*
X190017925Y-114729293D01*
X190538181Y-115249548D01*
X190571666Y-115310871D01*
X190574500Y-115337229D01*
X190574500Y-119550028D01*
X190567542Y-119590982D01*
X190539631Y-119670747D01*
X190519435Y-119849996D01*
X190519435Y-119850003D01*
X190539630Y-120029249D01*
X190539631Y-120029254D01*
X190599211Y-120199523D01*
X190680724Y-120329249D01*
X190695184Y-120352262D01*
X190822738Y-120479816D01*
X190975478Y-120575789D01*
X191145745Y-120635368D01*
X191145750Y-120635369D01*
X191324996Y-120655565D01*
X191325000Y-120655565D01*
X191325004Y-120655565D01*
X191504249Y-120635369D01*
X191504252Y-120635368D01*
X191504255Y-120635368D01*
X191674522Y-120575789D01*
X191827262Y-120479816D01*
X191954816Y-120352262D01*
X192050789Y-120199522D01*
X192110368Y-120029255D01*
X192116960Y-119970750D01*
X192130565Y-119850003D01*
X192130565Y-119849996D01*
X192116485Y-119725035D01*
X192110368Y-119670745D01*
X192082458Y-119590982D01*
X192075500Y-119550028D01*
X192075500Y-114901079D01*
X192046659Y-114756092D01*
X192046658Y-114756091D01*
X192046658Y-114756087D01*
X192026560Y-114707566D01*
X191990087Y-114619511D01*
X191990080Y-114619498D01*
X191907952Y-114496585D01*
X191857112Y-114445745D01*
X191803416Y-114392049D01*
X190528416Y-113117048D01*
X189628907Y-112217539D01*
X188703421Y-111292052D01*
X188703414Y-111292046D01*
X188622170Y-111237761D01*
X188622071Y-111237696D01*
X188580495Y-111209916D01*
X188580494Y-111209915D01*
X188580492Y-111209914D01*
X188443917Y-111153343D01*
X188443907Y-111153340D01*
X188298920Y-111124500D01*
X188298918Y-111124500D01*
X186944641Y-111124500D01*
X186877602Y-111104815D01*
X186831847Y-111052011D01*
X186821903Y-110982853D01*
X186839103Y-110935403D01*
X186886542Y-110858492D01*
X186886547Y-110858481D01*
X186939855Y-110697606D01*
X186949999Y-110598322D01*
X186950000Y-110598309D01*
X186950000Y-110575000D01*
X185849000Y-110575000D01*
X185781961Y-110555315D01*
X185736206Y-110502511D01*
X185725000Y-110451000D01*
X185725000Y-109375000D01*
X186225000Y-109375000D01*
X186225000Y-110075000D01*
X186949999Y-110075000D01*
X186949999Y-110051692D01*
X186949998Y-110051677D01*
X186939855Y-109952392D01*
X186886547Y-109791518D01*
X186886542Y-109791507D01*
X186797575Y-109647271D01*
X186797572Y-109647267D01*
X186677732Y-109527427D01*
X186677728Y-109527424D01*
X186533492Y-109438457D01*
X186533481Y-109438452D01*
X186372606Y-109385144D01*
X186273322Y-109375000D01*
X186225000Y-109375000D01*
X185725000Y-109375000D01*
X185724999Y-109374999D01*
X185676693Y-109375000D01*
X185676675Y-109375001D01*
X185577392Y-109385144D01*
X185416518Y-109438452D01*
X185416513Y-109438454D01*
X185346762Y-109481478D01*
X185279369Y-109499918D01*
X185212706Y-109478995D01*
X185167936Y-109425353D01*
X185159275Y-109356023D01*
X185164624Y-109334984D01*
X185210366Y-109204262D01*
X185210369Y-109204249D01*
X185230565Y-109025003D01*
X185230565Y-109024996D01*
X185210369Y-108845750D01*
X185210368Y-108845745D01*
X185197024Y-108807611D01*
X185150789Y-108675478D01*
X185131758Y-108645191D01*
X185094098Y-108585255D01*
X185054816Y-108522738D01*
X184927262Y-108395184D01*
X184895160Y-108375013D01*
X184774523Y-108299211D01*
X184604254Y-108239631D01*
X184604249Y-108239630D01*
X184425004Y-108219435D01*
X184424996Y-108219435D01*
X184245750Y-108239630D01*
X184245745Y-108239631D01*
X184075476Y-108299211D01*
X183922737Y-108395184D01*
X183795184Y-108522737D01*
X183699211Y-108675476D01*
X183639631Y-108845745D01*
X183639630Y-108845750D01*
X183619435Y-109024996D01*
X183619435Y-109025003D01*
X183639630Y-109204249D01*
X183639631Y-109204254D01*
X183699211Y-109374524D01*
X183755493Y-109464094D01*
X183774500Y-109530067D01*
X183774500Y-109626726D01*
X183754815Y-109693765D01*
X183702011Y-109739520D01*
X183661264Y-109749534D01*
X183661330Y-109750146D01*
X183658028Y-109750501D01*
X183598417Y-109756909D01*
X183598416Y-109756909D01*
X183590706Y-109757738D01*
X183590515Y-109755966D01*
X183559430Y-109755966D01*
X183559187Y-109758230D01*
X183491944Y-109750999D01*
X183275000Y-109750999D01*
X183275000Y-109953401D01*
X183263206Y-109999614D01*
X183265203Y-110000359D01*
X183211808Y-110143517D01*
X183205556Y-110201677D01*
X183205401Y-110203123D01*
X183205400Y-110203135D01*
X183205400Y-110617100D01*
X183185715Y-110684139D01*
X183132911Y-110729894D01*
X183081400Y-110741100D01*
X182968599Y-110741100D01*
X182901560Y-110721415D01*
X182855805Y-110668611D01*
X182844599Y-110617100D01*
X182844599Y-110203129D01*
X182844598Y-110203123D01*
X182844597Y-110203116D01*
X182838191Y-110143517D01*
X182838191Y-110143516D01*
X182784797Y-110000359D01*
X182786793Y-109999614D01*
X182775000Y-109953401D01*
X182775000Y-109750999D01*
X182699500Y-109750999D01*
X182632461Y-109731314D01*
X182586706Y-109678510D01*
X182575500Y-109626999D01*
X182575500Y-108710928D01*
X182550502Y-108585261D01*
X182550501Y-108585260D01*
X182550501Y-108585256D01*
X182501465Y-108466873D01*
X182501464Y-108466872D01*
X182501461Y-108466866D01*
X182430277Y-108360332D01*
X182395985Y-108326040D01*
X182339669Y-108269724D01*
X182140129Y-108070184D01*
X181439674Y-107369727D01*
X181439671Y-107369724D01*
X181398943Y-107342511D01*
X181354138Y-107288899D01*
X181344342Y-107250624D01*
X181344240Y-107249498D01*
X181344086Y-107247804D01*
X181341540Y-107239635D01*
X181293479Y-107085397D01*
X181293478Y-107085396D01*
X181293478Y-107085394D01*
X181205472Y-106939815D01*
X181205470Y-106939813D01*
X181205469Y-106939811D01*
X181103339Y-106837681D01*
X181069854Y-106776358D01*
X181074838Y-106706666D01*
X181103339Y-106662319D01*
X181205468Y-106560189D01*
X181205469Y-106560188D01*
X181205472Y-106560185D01*
X181293478Y-106414606D01*
X181344086Y-106252196D01*
X181350500Y-106181616D01*
X181350500Y-105668384D01*
X181344086Y-105597804D01*
X181293478Y-105435394D01*
X181205472Y-105289815D01*
X181205470Y-105289813D01*
X181205469Y-105289811D01*
X181085188Y-105169530D01*
X181074872Y-105163294D01*
X180939606Y-105081522D01*
X180777196Y-105030914D01*
X180777194Y-105030913D01*
X180777192Y-105030913D01*
X180727778Y-105026423D01*
X180706616Y-105024500D01*
X180149500Y-105024500D01*
X180082461Y-105004815D01*
X180036706Y-104952011D01*
X180025500Y-104900500D01*
X180025500Y-103141519D01*
X180045185Y-103074480D01*
X180061820Y-103053837D01*
X180105472Y-103010185D01*
X180193478Y-102864606D01*
X180244086Y-102702196D01*
X180250500Y-102631616D01*
X180250500Y-102118384D01*
X180244086Y-102047804D01*
X180193478Y-101885394D01*
X180105472Y-101739815D01*
X180105470Y-101739813D01*
X180105469Y-101739811D01*
X180003339Y-101637681D01*
X179969854Y-101576358D01*
X179974838Y-101506666D01*
X180003339Y-101462319D01*
X180105468Y-101360189D01*
X180105472Y-101360185D01*
X180156491Y-101275790D01*
X180165826Y-101260349D01*
X180217354Y-101213162D01*
X180271942Y-101200500D01*
X180694932Y-101200500D01*
X180760904Y-101219506D01*
X180850477Y-101275789D01*
X180850481Y-101275790D01*
X181020737Y-101335366D01*
X181020743Y-101335367D01*
X181020745Y-101335368D01*
X181020746Y-101335368D01*
X181020750Y-101335369D01*
X181199996Y-101355565D01*
X181200000Y-101355565D01*
X181200004Y-101355565D01*
X181379249Y-101335369D01*
X181379252Y-101335368D01*
X181379255Y-101335368D01*
X181549522Y-101275789D01*
X181702262Y-101179816D01*
X181829816Y-101052262D01*
X181925789Y-100899522D01*
X181985368Y-100729255D01*
X182005565Y-100550000D01*
X181996642Y-100470808D01*
X181985369Y-100370750D01*
X181985368Y-100370745D01*
X181978385Y-100350788D01*
X181925789Y-100200478D01*
X181829816Y-100047738D01*
X181702262Y-99920184D01*
X181669344Y-99899500D01*
X181549523Y-99824211D01*
X181379254Y-99764631D01*
X181379249Y-99764630D01*
X181200004Y-99744435D01*
X181199996Y-99744435D01*
X181020750Y-99764630D01*
X181020737Y-99764633D01*
X180850481Y-99824209D01*
X180850477Y-99824210D01*
X180760904Y-99880494D01*
X180694932Y-99899500D01*
X179903913Y-99899500D01*
X179846892Y-99883605D01*
X179846445Y-99884600D01*
X179839910Y-99881659D01*
X179839767Y-99881619D01*
X179839609Y-99881523D01*
X179836307Y-99880494D01*
X179677196Y-99830914D01*
X179677194Y-99830913D01*
X179677192Y-99830913D01*
X179627778Y-99826423D01*
X179606616Y-99824500D01*
X178943384Y-99824500D01*
X178924145Y-99826248D01*
X178872807Y-99830913D01*
X178710390Y-99881523D01*
X178710233Y-99881619D01*
X178710089Y-99881659D01*
X178703555Y-99884600D01*
X178703107Y-99883605D01*
X178646087Y-99899500D01*
X177685929Y-99899500D01*
X177560261Y-99924497D01*
X177560255Y-99924499D01*
X177441874Y-99973534D01*
X177335326Y-100044726D01*
X177335325Y-100044727D01*
X173987181Y-103392872D01*
X173925858Y-103426357D01*
X173856166Y-103421373D01*
X173800233Y-103379501D01*
X173775816Y-103314037D01*
X173775500Y-103305191D01*
X173775500Y-102970807D01*
X173795185Y-102903768D01*
X173811819Y-102883126D01*
X178533126Y-98161819D01*
X178594449Y-98128334D01*
X178620807Y-98125500D01*
X181754192Y-98125500D01*
X181821231Y-98145185D01*
X181841873Y-98161819D01*
X183403277Y-99723223D01*
X183436762Y-99784546D01*
X183438815Y-99797012D01*
X183439630Y-99804246D01*
X183439632Y-99804255D01*
X183499210Y-99974521D01*
X183543321Y-100044723D01*
X183595184Y-100127262D01*
X183722738Y-100254816D01*
X183875478Y-100350789D01*
X183967895Y-100383127D01*
X184045745Y-100410368D01*
X184045750Y-100410369D01*
X184224996Y-100430565D01*
X184225000Y-100430565D01*
X184225004Y-100430565D01*
X184404249Y-100410369D01*
X184404252Y-100410368D01*
X184404255Y-100410368D01*
X184574522Y-100350789D01*
X184727262Y-100254816D01*
X184854816Y-100127262D01*
X184950789Y-99974522D01*
X185010368Y-99804255D01*
X185012589Y-99784546D01*
X185030565Y-99625003D01*
X185030565Y-99624996D01*
X185010369Y-99445750D01*
X185010368Y-99445745D01*
X184950788Y-99275476D01*
X184854815Y-99122737D01*
X184727262Y-98995184D01*
X184574521Y-98899210D01*
X184404255Y-98839632D01*
X184404246Y-98839630D01*
X184397012Y-98838815D01*
X184332600Y-98811744D01*
X184323223Y-98803277D01*
X182489674Y-96969727D01*
X182489673Y-96969726D01*
X182489669Y-96969723D01*
X182383127Y-96898535D01*
X182264744Y-96849499D01*
X182264738Y-96849497D01*
X182139071Y-96824500D01*
X182139069Y-96824500D01*
X178235931Y-96824500D01*
X178211819Y-96829296D01*
X178142228Y-96823067D01*
X178087051Y-96780204D01*
X178063807Y-96714314D01*
X178079875Y-96646317D01*
X178099944Y-96620001D01*
X179933127Y-94786819D01*
X179994450Y-94753334D01*
X180020808Y-94750500D01*
X187094932Y-94750500D01*
X187160904Y-94769506D01*
X187250477Y-94825789D01*
X187250481Y-94825790D01*
X187420737Y-94885366D01*
X187420743Y-94885367D01*
X187420745Y-94885368D01*
X187420746Y-94885368D01*
X187420750Y-94885369D01*
X187599996Y-94905565D01*
X187600000Y-94905565D01*
X187600004Y-94905565D01*
X187779249Y-94885369D01*
X187779252Y-94885368D01*
X187779255Y-94885368D01*
X187949522Y-94825789D01*
X188102262Y-94729816D01*
X188229816Y-94602262D01*
X188325789Y-94449522D01*
X188325791Y-94449514D01*
X188328508Y-94443875D01*
X188375328Y-94392013D01*
X188442754Y-94373697D01*
X188509379Y-94394741D01*
X188527912Y-94409990D01*
X188547738Y-94429816D01*
X188700478Y-94525789D01*
X188870745Y-94585368D01*
X188870750Y-94585369D01*
X189049996Y-94605565D01*
X189050000Y-94605565D01*
X189050004Y-94605565D01*
X189229249Y-94585369D01*
X189229252Y-94585368D01*
X189229255Y-94585368D01*
X189399522Y-94525789D01*
X189552262Y-94429816D01*
X189679816Y-94302262D01*
X189775789Y-94149522D01*
X189835368Y-93979255D01*
X189855565Y-93800000D01*
X189835368Y-93620745D01*
X189775789Y-93450478D01*
X189679816Y-93297738D01*
X189552262Y-93170184D01*
X189399521Y-93074210D01*
X189229255Y-93014632D01*
X189229246Y-93014630D01*
X189222012Y-93013815D01*
X189157600Y-92986744D01*
X189148223Y-92978277D01*
X188964674Y-92794727D01*
X188964673Y-92794726D01*
X188964669Y-92794723D01*
X188858127Y-92723535D01*
X188739744Y-92674499D01*
X188739738Y-92674497D01*
X188614071Y-92649500D01*
X188614069Y-92649500D01*
X177810931Y-92649500D01*
X177810929Y-92649500D01*
X177685261Y-92674497D01*
X177685255Y-92674499D01*
X177566874Y-92723534D01*
X177460326Y-92794726D01*
X170519726Y-99735326D01*
X170448534Y-99841874D01*
X170399499Y-99960255D01*
X170399497Y-99960261D01*
X170374500Y-100085928D01*
X170374500Y-106164071D01*
X170392030Y-106252196D01*
X170392030Y-106252197D01*
X170399497Y-106289736D01*
X170399499Y-106289744D01*
X170448534Y-106408125D01*
X170519726Y-106514673D01*
X170519727Y-106514674D01*
X170716873Y-106711819D01*
X170910331Y-106905277D01*
X170962022Y-106939815D01*
X171016873Y-106976465D01*
X171084637Y-107004534D01*
X171139040Y-107048375D01*
X171160123Y-107102910D01*
X171164192Y-107133817D01*
X171164192Y-107166188D01*
X171156448Y-107224999D01*
X171156449Y-107225000D01*
X171195699Y-107225000D01*
X171262738Y-107244685D01*
X171308493Y-107297489D01*
X171318437Y-107366647D01*
X171294075Y-107424486D01*
X171218935Y-107522411D01*
X171217156Y-107521046D01*
X171175020Y-107561219D01*
X171166784Y-107563216D01*
X171156449Y-107575001D01*
X171163940Y-107631905D01*
X171163940Y-107664273D01*
X171149501Y-107773949D01*
X171149500Y-107773966D01*
X171149500Y-108026047D01*
X171164635Y-108140997D01*
X171164636Y-108141002D01*
X171223881Y-108284034D01*
X171223882Y-108284036D01*
X171223883Y-108284037D01*
X171293693Y-108375016D01*
X171318886Y-108440183D01*
X171304848Y-108508627D01*
X171256034Y-108558617D01*
X171195317Y-108574500D01*
X171001663Y-108574500D01*
X171001644Y-108574501D01*
X170902292Y-108584650D01*
X170902289Y-108584651D01*
X170741305Y-108637996D01*
X170741294Y-108638001D01*
X170596959Y-108727029D01*
X170596955Y-108727032D01*
X170477032Y-108846955D01*
X170477029Y-108846959D01*
X170388001Y-108991294D01*
X170387996Y-108991305D01*
X170334651Y-109152290D01*
X170324500Y-109251647D01*
X170324500Y-109848337D01*
X170324501Y-109848355D01*
X170334650Y-109947707D01*
X170334651Y-109947710D01*
X170387996Y-110108694D01*
X170388001Y-110108705D01*
X170477029Y-110253040D01*
X170477032Y-110253044D01*
X170488181Y-110264193D01*
X170521666Y-110325516D01*
X170524500Y-110351874D01*
X170524500Y-111275500D01*
X170504815Y-111342539D01*
X170452011Y-111388294D01*
X170400500Y-111399500D01*
X165724500Y-111399500D01*
X165657461Y-111379815D01*
X165611706Y-111327011D01*
X165600500Y-111275500D01*
X165600500Y-108901081D01*
X165600499Y-108901080D01*
X165591004Y-108853342D01*
X165571659Y-108756088D01*
X165533099Y-108662997D01*
X165533099Y-108662996D01*
X165515085Y-108619506D01*
X165515083Y-108619502D01*
X165448413Y-108519723D01*
X165448412Y-108519723D01*
X165432950Y-108496582D01*
X165432949Y-108496581D01*
X164553421Y-107617052D01*
X164553420Y-107617051D01*
X164463881Y-107557224D01*
X164439545Y-107540963D01*
X164430495Y-107534916D01*
X164430493Y-107534915D01*
X164430490Y-107534913D01*
X164293917Y-107478343D01*
X164293907Y-107478340D01*
X164148920Y-107449500D01*
X164148918Y-107449500D01*
X157876082Y-107449500D01*
X157876080Y-107449500D01*
X157731092Y-107478340D01*
X157731082Y-107478343D01*
X157594509Y-107534913D01*
X157561119Y-107557224D01*
X157471582Y-107617049D01*
X157471581Y-107617050D01*
X155216937Y-109871693D01*
X155180876Y-109894362D01*
X155181756Y-109896188D01*
X155175478Y-109899211D01*
X155022737Y-109995184D01*
X154895184Y-110122737D01*
X154799211Y-110275476D01*
X154739631Y-110445745D01*
X154739630Y-110445750D01*
X154719435Y-110624996D01*
X154719435Y-110625003D01*
X154739630Y-110804249D01*
X154739631Y-110804254D01*
X154767542Y-110884017D01*
X154774500Y-110924972D01*
X154774500Y-110948918D01*
X154774500Y-110948920D01*
X154774499Y-110948920D01*
X154803340Y-111093907D01*
X154803343Y-111093917D01*
X154859914Y-111230491D01*
X154859916Y-111230495D01*
X154864771Y-111237761D01*
X154886126Y-111269722D01*
X154923395Y-111325500D01*
X154942048Y-111353416D01*
X155143943Y-111555310D01*
X155177427Y-111616631D01*
X155180261Y-111642990D01*
X155180261Y-111704725D01*
X155220970Y-111869894D01*
X155220971Y-111869895D01*
X155300027Y-112020522D01*
X155345399Y-112074965D01*
X155708309Y-112437875D01*
X155762752Y-112483247D01*
X155913379Y-112562303D01*
X156078548Y-112603013D01*
X156222987Y-112603013D01*
X156290026Y-112622698D01*
X156335781Y-112675502D01*
X156346987Y-112727013D01*
X156346987Y-112871452D01*
X156358348Y-112917548D01*
X156355278Y-112987350D01*
X156314958Y-113044412D01*
X156278907Y-113064263D01*
X156250477Y-113074211D01*
X156250475Y-113074212D01*
X156097737Y-113170184D01*
X155970184Y-113297737D01*
X155874211Y-113450476D01*
X155814631Y-113620745D01*
X155814630Y-113620750D01*
X155794435Y-113799996D01*
X155794435Y-113800003D01*
X155814630Y-113979249D01*
X155814631Y-113979254D01*
X155874211Y-114149523D01*
X155949341Y-114269091D01*
X155970184Y-114302262D01*
X156097738Y-114429816D01*
X156113427Y-114439674D01*
X156203998Y-114496584D01*
X156250478Y-114525789D01*
X156376797Y-114569990D01*
X156420745Y-114585368D01*
X156420750Y-114585369D01*
X156599996Y-114605565D01*
X156600000Y-114605565D01*
X156600004Y-114605565D01*
X156779249Y-114585369D01*
X156779252Y-114585368D01*
X156779255Y-114585368D01*
X156949522Y-114525789D01*
X157102262Y-114429816D01*
X157229816Y-114302262D01*
X157325789Y-114149522D01*
X157385368Y-113979255D01*
X157386182Y-113972025D01*
X157413245Y-113907611D01*
X157421712Y-113898232D01*
X157589018Y-113730926D01*
X157619070Y-113708814D01*
X157654757Y-113690084D01*
X157731182Y-113649973D01*
X157731182Y-113649972D01*
X157736991Y-113646924D01*
X157738291Y-113649401D01*
X157793177Y-113632194D01*
X157860564Y-113650654D01*
X157907273Y-113702616D01*
X157916516Y-113743321D01*
X157918655Y-113743081D01*
X157939630Y-113929249D01*
X157939631Y-113929254D01*
X157999211Y-114099523D01*
X158048783Y-114178416D01*
X158095184Y-114252262D01*
X158222738Y-114379816D01*
X158375478Y-114475789D01*
X158437739Y-114497575D01*
X158545745Y-114535368D01*
X158545750Y-114535369D01*
X158724996Y-114555565D01*
X158725000Y-114555565D01*
X158725004Y-114555565D01*
X158904249Y-114535369D01*
X158904252Y-114535368D01*
X158904255Y-114535368D01*
X159074522Y-114475789D01*
X159153770Y-114425993D01*
X159221007Y-114406993D01*
X159287842Y-114427360D01*
X159333057Y-114480628D01*
X159342295Y-114549884D01*
X159337449Y-114569990D01*
X159310144Y-114652391D01*
X159300000Y-114751677D01*
X159300000Y-114775000D01*
X160401000Y-114775000D01*
X160468039Y-114794685D01*
X160513794Y-114847489D01*
X160525000Y-114899000D01*
X160525000Y-115974999D01*
X160573308Y-115974999D01*
X160573322Y-115974998D01*
X160672607Y-115964855D01*
X160833481Y-115911547D01*
X160833492Y-115911542D01*
X160977728Y-115822575D01*
X160977732Y-115822572D01*
X161037819Y-115762486D01*
X161099142Y-115729001D01*
X161168834Y-115733985D01*
X161224767Y-115775857D01*
X161249184Y-115841321D01*
X161249500Y-115850167D01*
X161249500Y-117454191D01*
X161229815Y-117521230D01*
X161213181Y-117541872D01*
X160685982Y-118069070D01*
X160655928Y-118091185D01*
X160543818Y-118150026D01*
X160489379Y-118195395D01*
X160489364Y-118195409D01*
X160020409Y-118664364D01*
X160020395Y-118664379D01*
X159975026Y-118718818D01*
X159916185Y-118830928D01*
X159894070Y-118860982D01*
X159291873Y-119463181D01*
X159230550Y-119496666D01*
X159204192Y-119499500D01*
X154705068Y-119499500D01*
X154639096Y-119480494D01*
X154549522Y-119424210D01*
X154549518Y-119424209D01*
X154379262Y-119364633D01*
X154379249Y-119364630D01*
X154200004Y-119344435D01*
X154199996Y-119344435D01*
X154020750Y-119364630D01*
X154020745Y-119364631D01*
X153850476Y-119424211D01*
X153697737Y-119520184D01*
X153570184Y-119647737D01*
X153474211Y-119800476D01*
X153414631Y-119970745D01*
X153414630Y-119970750D01*
X153394435Y-120149996D01*
X153394435Y-120150003D01*
X148300500Y-120150003D01*
X148300500Y-115275000D01*
X159300001Y-115275000D01*
X159300001Y-115298322D01*
X159310144Y-115397607D01*
X159363452Y-115558481D01*
X159363457Y-115558492D01*
X159452424Y-115702728D01*
X159452427Y-115702732D01*
X159572267Y-115822572D01*
X159572271Y-115822575D01*
X159716507Y-115911542D01*
X159716518Y-115911547D01*
X159877393Y-115964855D01*
X159976683Y-115974999D01*
X160024999Y-115974998D01*
X160025000Y-115974998D01*
X160025000Y-115275000D01*
X159300001Y-115275000D01*
X148300500Y-115275000D01*
X148300500Y-87331286D01*
X151749500Y-87331286D01*
X151782753Y-87541239D01*
X151848444Y-87743414D01*
X151944951Y-87932820D01*
X152069890Y-88104786D01*
X152220213Y-88255109D01*
X152392179Y-88380048D01*
X152392181Y-88380049D01*
X152392184Y-88380051D01*
X152581588Y-88476557D01*
X152783757Y-88542246D01*
X152993713Y-88575500D01*
X152993714Y-88575500D01*
X153206286Y-88575500D01*
X153206287Y-88575500D01*
X153416243Y-88542246D01*
X153618412Y-88476557D01*
X153807816Y-88380051D01*
X153829789Y-88364086D01*
X153979786Y-88255109D01*
X153979788Y-88255106D01*
X153979792Y-88255104D01*
X154130104Y-88104792D01*
X154130106Y-88104788D01*
X154130109Y-88104786D01*
X154255048Y-87932820D01*
X154255047Y-87932820D01*
X154255051Y-87932816D01*
X154351557Y-87743412D01*
X154417246Y-87541243D01*
X154450500Y-87331287D01*
X154450500Y-87256286D01*
X191774500Y-87256286D01*
X191807753Y-87466239D01*
X191873444Y-87668414D01*
X191969951Y-87857820D01*
X192094890Y-88029786D01*
X192245213Y-88180109D01*
X192417179Y-88305048D01*
X192417181Y-88305049D01*
X192417184Y-88305051D01*
X192606588Y-88401557D01*
X192808757Y-88467246D01*
X193018713Y-88500500D01*
X193018714Y-88500500D01*
X193231286Y-88500500D01*
X193231287Y-88500500D01*
X193441243Y-88467246D01*
X193643412Y-88401557D01*
X193832816Y-88305051D01*
X193901563Y-88255104D01*
X194004786Y-88180109D01*
X194004788Y-88180106D01*
X194004792Y-88180104D01*
X194155104Y-88029792D01*
X194155106Y-88029788D01*
X194155109Y-88029786D01*
X194280048Y-87857820D01*
X194280047Y-87857820D01*
X194280051Y-87857816D01*
X194376557Y-87668412D01*
X194442246Y-87466243D01*
X194475500Y-87256287D01*
X194475500Y-87043713D01*
X194442246Y-86833757D01*
X194376557Y-86631588D01*
X194280051Y-86442184D01*
X194280049Y-86442181D01*
X194280048Y-86442179D01*
X194155109Y-86270213D01*
X194004786Y-86119890D01*
X193832820Y-85994951D01*
X193643414Y-85898444D01*
X193643413Y-85898443D01*
X193643412Y-85898443D01*
X193441243Y-85832754D01*
X193441241Y-85832753D01*
X193441240Y-85832753D01*
X193279957Y-85807208D01*
X193231287Y-85799500D01*
X193018713Y-85799500D01*
X192970042Y-85807208D01*
X192808760Y-85832753D01*
X192606585Y-85898444D01*
X192417179Y-85994951D01*
X192245213Y-86119890D01*
X192094890Y-86270213D01*
X191969951Y-86442179D01*
X191873444Y-86631585D01*
X191807753Y-86833760D01*
X191774500Y-87043713D01*
X191774500Y-87256286D01*
X154450500Y-87256286D01*
X154450500Y-87118713D01*
X154417246Y-86908757D01*
X154351557Y-86706588D01*
X154255051Y-86517184D01*
X154255049Y-86517181D01*
X154255048Y-86517179D01*
X154130109Y-86345213D01*
X153979786Y-86194890D01*
X153807820Y-86069951D01*
X153618414Y-85973444D01*
X153618413Y-85973443D01*
X153618412Y-85973443D01*
X153416243Y-85907754D01*
X153416241Y-85907753D01*
X153416240Y-85907753D01*
X153254957Y-85882208D01*
X153206287Y-85874500D01*
X152993713Y-85874500D01*
X152945042Y-85882208D01*
X152783760Y-85907753D01*
X152581585Y-85973444D01*
X152392179Y-86069951D01*
X152220213Y-86194890D01*
X152069890Y-86345213D01*
X151944951Y-86517179D01*
X151848444Y-86706585D01*
X151782753Y-86908760D01*
X151749500Y-87118713D01*
X151749500Y-87331286D01*
X148300500Y-87331286D01*
X148300500Y-87227706D01*
X148300618Y-87222297D01*
X148302241Y-87185118D01*
X148318528Y-86812080D01*
X148319468Y-86801347D01*
X148372709Y-86396938D01*
X148374582Y-86386308D01*
X148462870Y-85988068D01*
X148465668Y-85977630D01*
X148466988Y-85973444D01*
X148588319Y-85588629D01*
X148592016Y-85578473D01*
X148693711Y-85332961D01*
X148748111Y-85201627D01*
X148752669Y-85191853D01*
X148941025Y-84830024D01*
X148946407Y-84820703D01*
X149055157Y-84650000D01*
X150119353Y-84650000D01*
X150139834Y-84792456D01*
X150152724Y-84820680D01*
X150199623Y-84923373D01*
X150293872Y-85032143D01*
X150414947Y-85109953D01*
X150414950Y-85109954D01*
X150414949Y-85109954D01*
X150553036Y-85150499D01*
X150553038Y-85150500D01*
X150553039Y-85150500D01*
X150696962Y-85150500D01*
X150696962Y-85150499D01*
X150835053Y-85109953D01*
X150956128Y-85032143D01*
X151050377Y-84923373D01*
X151110165Y-84792457D01*
X151130647Y-84650000D01*
X195119353Y-84650000D01*
X195139834Y-84792456D01*
X195152724Y-84820680D01*
X195199623Y-84923373D01*
X195293872Y-85032143D01*
X195414947Y-85109953D01*
X195414950Y-85109954D01*
X195414949Y-85109954D01*
X195553036Y-85150499D01*
X195553038Y-85150500D01*
X195553039Y-85150500D01*
X195696962Y-85150500D01*
X195696962Y-85150499D01*
X195835053Y-85109953D01*
X195956128Y-85032143D01*
X196050377Y-84923373D01*
X196110165Y-84792457D01*
X196130647Y-84650000D01*
X196110165Y-84507543D01*
X196050377Y-84376627D01*
X195956128Y-84267857D01*
X195835053Y-84190047D01*
X195835051Y-84190046D01*
X195835049Y-84190045D01*
X195835050Y-84190045D01*
X195696963Y-84149500D01*
X195696961Y-84149500D01*
X195553039Y-84149500D01*
X195553036Y-84149500D01*
X195414949Y-84190045D01*
X195293873Y-84267856D01*
X195199623Y-84376626D01*
X195199622Y-84376628D01*
X195139834Y-84507543D01*
X195119353Y-84650000D01*
X151130647Y-84650000D01*
X151110165Y-84507543D01*
X151050377Y-84376627D01*
X150956128Y-84267857D01*
X150835053Y-84190047D01*
X150835051Y-84190046D01*
X150835049Y-84190045D01*
X150835050Y-84190045D01*
X150696963Y-84149500D01*
X150696961Y-84149500D01*
X150553039Y-84149500D01*
X150553036Y-84149500D01*
X150414949Y-84190045D01*
X150293873Y-84267856D01*
X150199623Y-84376626D01*
X150199622Y-84376628D01*
X150139834Y-84507543D01*
X150119353Y-84650000D01*
X149055157Y-84650000D01*
X149165574Y-84476680D01*
X149171765Y-84467837D01*
X149420083Y-84144224D01*
X149427021Y-84135955D01*
X149702594Y-83835220D01*
X149710220Y-83827594D01*
X150010955Y-83552021D01*
X150019224Y-83545083D01*
X150342837Y-83296765D01*
X150351680Y-83290574D01*
X150695703Y-83071407D01*
X150705024Y-83066025D01*
X151066853Y-82877669D01*
X151076627Y-82873111D01*
X151453482Y-82717012D01*
X151463629Y-82713319D01*
X151852639Y-82590665D01*
X151863068Y-82587870D01*
X152261308Y-82499582D01*
X152271938Y-82497709D01*
X152676347Y-82444468D01*
X152687080Y-82443528D01*
X153097297Y-82425617D01*
X153102706Y-82425500D01*
X153139882Y-82425500D01*
X193060118Y-82425500D01*
X193097294Y-82425500D01*
X193102702Y-82425617D01*
G37*
G04 #@! TD.AperFunction*
G04 #@! TA.AperFunction,Conductor*
G36*
X184556360Y-111521262D02*
G01*
X184631732Y-111572889D01*
X184848714Y-111721515D01*
X184853602Y-111729017D01*
X184853801Y-111731167D01*
X184853801Y-112016757D01*
X184850374Y-112025030D01*
X184846039Y-112027774D01*
X184556607Y-112131223D01*
X184547663Y-112130781D01*
X184543763Y-112127794D01*
X184456213Y-112025030D01*
X184250812Y-111783934D01*
X184248056Y-111775415D01*
X184252129Y-111767444D01*
X184542191Y-111521983D01*
X184550719Y-111519255D01*
X184556360Y-111521262D01*
G37*
G04 #@! TD.AperFunction*
G04 #@! TA.AperFunction,Conductor*
G36*
X181506610Y-111450210D02*
G01*
X181798831Y-111766379D01*
X181801930Y-111774780D01*
X181798180Y-111782912D01*
X181798152Y-111782938D01*
X181507403Y-112049898D01*
X181498991Y-112052969D01*
X181493521Y-112051343D01*
X181201930Y-111878399D01*
X181196563Y-111871231D01*
X181196199Y-111868336D01*
X181196199Y-111582709D01*
X181199626Y-111574436D01*
X181203280Y-111571959D01*
X181493403Y-111447399D01*
X181502356Y-111447285D01*
X181506610Y-111450210D01*
G37*
G04 #@! TD.AperFunction*
G04 #@! TA.AperFunction,Conductor*
G36*
X184550476Y-112692638D02*
G01*
X184842498Y-112840949D01*
X184848323Y-112847750D01*
X184848900Y-112851380D01*
X184848900Y-113137019D01*
X184845473Y-113145292D01*
X184842498Y-113147451D01*
X184550478Y-113295760D01*
X184541550Y-113296451D01*
X184538309Y-113294798D01*
X184137052Y-113003670D01*
X184132368Y-112996038D01*
X184134453Y-112987329D01*
X184137052Y-112984730D01*
X184335224Y-112840948D01*
X184538310Y-112693600D01*
X184547018Y-112691516D01*
X184550476Y-112692638D01*
G37*
G04 #@! TD.AperFunction*
G04 #@! TA.AperFunction,Conductor*
G36*
X183444924Y-112985654D02*
G01*
X183447397Y-112989029D01*
X183606424Y-113316004D01*
X183607377Y-113318838D01*
X183611231Y-113338213D01*
X183611232Y-113338216D01*
X183632818Y-113370523D01*
X183633611Y-113371905D01*
X183647745Y-113400964D01*
X183648282Y-113409903D01*
X183645497Y-113414355D01*
X183445694Y-113614158D01*
X183437421Y-113617585D01*
X183431439Y-113615940D01*
X182907424Y-113304163D01*
X182902067Y-113296989D01*
X182902584Y-113289664D01*
X183021398Y-113000537D01*
X183027711Y-112994189D01*
X183031905Y-112993290D01*
X183436564Y-112982450D01*
X183444924Y-112985654D01*
G37*
G04 #@! TD.AperFunction*
G04 #@! TA.AperFunction,Conductor*
G36*
X181933260Y-113001487D02*
G01*
X181933287Y-113001514D01*
X182223817Y-113292997D01*
X182227230Y-113301276D01*
X182225962Y-113306555D01*
X182078251Y-113597398D01*
X182071449Y-113603223D01*
X182067819Y-113603800D01*
X181782181Y-113603800D01*
X181773908Y-113600373D01*
X181771749Y-113597398D01*
X181624037Y-113306555D01*
X181623346Y-113297627D01*
X181626179Y-113293000D01*
X181916713Y-113001513D01*
X181924981Y-112998074D01*
X181933260Y-113001487D01*
G37*
G04 #@! TD.AperFunction*
G04 #@! TA.AperFunction,Conductor*
G36*
X182076092Y-109949627D02*
G01*
X182078251Y-109952602D01*
X182225962Y-110243444D01*
X182226653Y-110252372D01*
X182223817Y-110257002D01*
X181933287Y-110548485D01*
X181925019Y-110551925D01*
X181916740Y-110548512D01*
X181916713Y-110548485D01*
X181626182Y-110257002D01*
X181622769Y-110248723D01*
X181624037Y-110243444D01*
X181771749Y-109952602D01*
X181778551Y-109946777D01*
X181782181Y-109946200D01*
X182067819Y-109946200D01*
X182076092Y-109949627D01*
G37*
G04 #@! TD.AperFunction*
G04 #@! TA.AperFunction,Conductor*
G36*
X184570740Y-109949627D02*
G01*
X184574167Y-109957900D01*
X184574139Y-109958704D01*
X184544611Y-110387565D01*
X184540624Y-110395583D01*
X184537153Y-110397676D01*
X184134052Y-110553305D01*
X184125100Y-110553088D01*
X184119891Y-110548550D01*
X183940797Y-110259322D01*
X183939355Y-110250484D01*
X183942924Y-110244461D01*
X184271664Y-109949195D01*
X184279482Y-109946200D01*
X184562467Y-109946200D01*
X184570740Y-109949627D01*
G37*
G04 #@! TD.AperFunction*
M02*
