%TF.GenerationSoftware,KiCad,Pcbnew,8.0.1*%
%TF.CreationDate,2025-02-17T15:23:19+05:00*%
%TF.ProjectId,Sensors,53656e73-6f72-4732-9e6b-696361645f70,rev?*%
%TF.SameCoordinates,Original*%
%TF.FileFunction,Drillmap*%
%TF.FilePolarity,Positive*%
%FSLAX45Y45*%
G04 Gerber Fmt 4.5, Leading zero omitted, Abs format (unit mm)*
G04 Created by KiCad (PCBNEW 8.0.1) date 2025-02-17 15:23:19*
%MOMM*%
%LPD*%
G01*
G04 APERTURE LIST*
%ADD10C,0.050000*%
%ADD11C,0.200000*%
%ADD12C,0.100000*%
G04 APERTURE END LIST*
D10*
X15310000Y-13222500D02*
G75*
G02*
X14810000Y-12722500I0J500000D01*
G01*
X19810000Y-8722500D02*
X19810000Y-12722500D01*
X14810000Y-8722500D02*
G75*
G02*
X15310000Y-8222500I500000J0D01*
G01*
X14810000Y-12722500D02*
X14810000Y-8722500D01*
X19810000Y-12722500D02*
G75*
G02*
X19310000Y-13222500I-500000J0D01*
G01*
X15310000Y-8222500D02*
X19310000Y-8222500D01*
X19310000Y-13222500D02*
X15310000Y-13222500D01*
X19310000Y-8222500D02*
G75*
G02*
X19810000Y-8722500I0J-500000D01*
G01*
D11*
D12*
X15110000Y-8855000D02*
X15140000Y-8885000D01*
X15140000Y-8855000D02*
X15110000Y-8885000D01*
X15110000Y-9109000D02*
X15140000Y-9139000D01*
X15140000Y-9109000D02*
X15110000Y-9139000D01*
X15110000Y-9363000D02*
X15140000Y-9393000D01*
X15140000Y-9363000D02*
X15110000Y-9393000D01*
X15110000Y-9617000D02*
X15140000Y-9647000D01*
X15140000Y-9617000D02*
X15110000Y-9647000D01*
X15110000Y-9871000D02*
X15140000Y-9901000D01*
X15140000Y-9871000D02*
X15110000Y-9901000D01*
X15110000Y-10125000D02*
X15140000Y-10155000D01*
X15140000Y-10125000D02*
X15110000Y-10155000D01*
X15110000Y-10379000D02*
X15140000Y-10409000D01*
X15140000Y-10379000D02*
X15110000Y-10409000D01*
X15110000Y-10633000D02*
X15140000Y-10663000D01*
X15140000Y-10633000D02*
X15110000Y-10663000D01*
X15110000Y-10887000D02*
X15140000Y-10917000D01*
X15140000Y-10887000D02*
X15110000Y-10917000D01*
X15110000Y-11141000D02*
X15140000Y-11171000D01*
X15140000Y-11141000D02*
X15110000Y-11171000D01*
X15110000Y-11395000D02*
X15140000Y-11425000D01*
X15140000Y-11395000D02*
X15110000Y-11425000D01*
X15110000Y-11649000D02*
X15140000Y-11679000D01*
X15140000Y-11649000D02*
X15110000Y-11679000D01*
X15110000Y-11903000D02*
X15140000Y-11933000D01*
X15140000Y-11903000D02*
X15110000Y-11933000D01*
X15110000Y-12157000D02*
X15140000Y-12187000D01*
X15140000Y-12157000D02*
X15110000Y-12187000D01*
X15110000Y-12411000D02*
X15140000Y-12441000D01*
X15140000Y-12411000D02*
X15110000Y-12441000D01*
X15364000Y-8347000D02*
X15394000Y-8377000D01*
X15394000Y-8347000D02*
X15364000Y-8377000D01*
X15364000Y-9109000D02*
X15394000Y-9139000D01*
X15394000Y-9109000D02*
X15364000Y-9139000D01*
X15364000Y-9363000D02*
X15394000Y-9393000D01*
X15394000Y-9363000D02*
X15364000Y-9393000D01*
X15364000Y-9617000D02*
X15394000Y-9647000D01*
X15394000Y-9617000D02*
X15364000Y-9647000D01*
X15364000Y-9871000D02*
X15394000Y-9901000D01*
X15394000Y-9871000D02*
X15364000Y-9901000D01*
X15364000Y-10125000D02*
X15394000Y-10155000D01*
X15394000Y-10125000D02*
X15364000Y-10155000D01*
X15364000Y-10379000D02*
X15394000Y-10409000D01*
X15394000Y-10379000D02*
X15364000Y-10409000D01*
X15364000Y-10633000D02*
X15394000Y-10663000D01*
X15394000Y-10633000D02*
X15364000Y-10663000D01*
X15364000Y-10887000D02*
X15394000Y-10917000D01*
X15394000Y-10887000D02*
X15364000Y-10917000D01*
X15364000Y-11141000D02*
X15394000Y-11171000D01*
X15394000Y-11141000D02*
X15364000Y-11171000D01*
X15364000Y-11395000D02*
X15394000Y-11425000D01*
X15394000Y-11395000D02*
X15364000Y-11425000D01*
X15364000Y-12919000D02*
X15394000Y-12949000D01*
X15394000Y-12919000D02*
X15364000Y-12949000D01*
X15405000Y-12000000D02*
X15435000Y-12030000D01*
X15435000Y-12000000D02*
X15405000Y-12030000D01*
X15537500Y-11047500D02*
X15567500Y-11077500D01*
X15567500Y-11047500D02*
X15537500Y-11077500D01*
X15618000Y-8347000D02*
X15648000Y-8377000D01*
X15648000Y-8347000D02*
X15618000Y-8377000D01*
X15618000Y-8601000D02*
X15648000Y-8631000D01*
X15648000Y-8601000D02*
X15618000Y-8631000D01*
X15618000Y-8855000D02*
X15648000Y-8885000D01*
X15648000Y-8855000D02*
X15618000Y-8885000D01*
X15618000Y-9109000D02*
X15648000Y-9139000D01*
X15648000Y-9109000D02*
X15618000Y-9139000D01*
X15618000Y-9363000D02*
X15648000Y-9393000D01*
X15648000Y-9363000D02*
X15618000Y-9393000D01*
X15618000Y-9617000D02*
X15648000Y-9647000D01*
X15648000Y-9617000D02*
X15618000Y-9647000D01*
X15618000Y-9871000D02*
X15648000Y-9901000D01*
X15648000Y-9871000D02*
X15618000Y-9901000D01*
X15618000Y-10125000D02*
X15648000Y-10155000D01*
X15648000Y-10125000D02*
X15618000Y-10155000D01*
X15618000Y-10379000D02*
X15648000Y-10409000D01*
X15648000Y-10379000D02*
X15618000Y-10409000D01*
X15618000Y-10633000D02*
X15648000Y-10663000D01*
X15648000Y-10633000D02*
X15618000Y-10663000D01*
X15618000Y-12665000D02*
X15648000Y-12695000D01*
X15648000Y-12665000D02*
X15618000Y-12695000D01*
X15618000Y-12919000D02*
X15648000Y-12949000D01*
X15648000Y-12919000D02*
X15618000Y-12949000D01*
X15645000Y-11365000D02*
X15675000Y-11395000D01*
X15675000Y-11365000D02*
X15645000Y-11395000D01*
X15857500Y-11360000D02*
X15887500Y-11390000D01*
X15887500Y-11360000D02*
X15857500Y-11390000D01*
X15872000Y-8347000D02*
X15902000Y-8377000D01*
X15902000Y-8347000D02*
X15872000Y-8377000D01*
X15872000Y-8601000D02*
X15902000Y-8631000D01*
X15902000Y-8601000D02*
X15872000Y-8631000D01*
X15872000Y-8855000D02*
X15902000Y-8885000D01*
X15902000Y-8855000D02*
X15872000Y-8885000D01*
X15872000Y-9109000D02*
X15902000Y-9139000D01*
X15902000Y-9109000D02*
X15872000Y-9139000D01*
X15872000Y-9363000D02*
X15902000Y-9393000D01*
X15902000Y-9363000D02*
X15872000Y-9393000D01*
X15872000Y-9617000D02*
X15902000Y-9647000D01*
X15902000Y-9617000D02*
X15872000Y-9647000D01*
X15872000Y-9871000D02*
X15902000Y-9901000D01*
X15902000Y-9871000D02*
X15872000Y-9901000D01*
X15872000Y-10125000D02*
X15902000Y-10155000D01*
X15902000Y-10125000D02*
X15872000Y-10155000D01*
X15872000Y-10379000D02*
X15902000Y-10409000D01*
X15902000Y-10379000D02*
X15872000Y-10409000D01*
X15872000Y-10633000D02*
X15902000Y-10663000D01*
X15902000Y-10633000D02*
X15872000Y-10663000D01*
X15872000Y-12157000D02*
X15902000Y-12187000D01*
X15902000Y-12157000D02*
X15872000Y-12187000D01*
X15872000Y-12411000D02*
X15902000Y-12441000D01*
X15902000Y-12411000D02*
X15872000Y-12441000D01*
X15872000Y-12665000D02*
X15902000Y-12695000D01*
X15902000Y-12665000D02*
X15872000Y-12695000D01*
X15872000Y-12919000D02*
X15902000Y-12949000D01*
X15902000Y-12919000D02*
X15872000Y-12949000D01*
X15972500Y-10907500D02*
X16002500Y-10937500D01*
X16002500Y-10907500D02*
X15972500Y-10937500D01*
X15972500Y-11600000D02*
X16002500Y-11630000D01*
X16002500Y-11600000D02*
X15972500Y-11630000D01*
X16055000Y-10910000D02*
X16085000Y-10940000D01*
X16085000Y-10910000D02*
X16055000Y-10940000D01*
X16057500Y-11607500D02*
X16087500Y-11637500D01*
X16087500Y-11607500D02*
X16057500Y-11637500D01*
X16126000Y-8347000D02*
X16156000Y-8377000D01*
X16156000Y-8347000D02*
X16126000Y-8377000D01*
X16126000Y-8601000D02*
X16156000Y-8631000D01*
X16156000Y-8601000D02*
X16126000Y-8631000D01*
X16126000Y-8855000D02*
X16156000Y-8885000D01*
X16156000Y-8855000D02*
X16126000Y-8885000D01*
X16126000Y-9109000D02*
X16156000Y-9139000D01*
X16156000Y-9109000D02*
X16126000Y-9139000D01*
X16126000Y-9363000D02*
X16156000Y-9393000D01*
X16156000Y-9363000D02*
X16126000Y-9393000D01*
X16126000Y-9617000D02*
X16156000Y-9647000D01*
X16156000Y-9617000D02*
X16126000Y-9647000D01*
X16126000Y-9871000D02*
X16156000Y-9901000D01*
X16156000Y-9871000D02*
X16126000Y-9901000D01*
X16126000Y-10125000D02*
X16156000Y-10155000D01*
X16156000Y-10125000D02*
X16126000Y-10155000D01*
X16126000Y-10379000D02*
X16156000Y-10409000D01*
X16156000Y-10379000D02*
X16126000Y-10409000D01*
X16126000Y-10633000D02*
X16156000Y-10663000D01*
X16156000Y-10633000D02*
X16126000Y-10663000D01*
X16126000Y-12157000D02*
X16156000Y-12187000D01*
X16156000Y-12157000D02*
X16126000Y-12187000D01*
X16126000Y-12411000D02*
X16156000Y-12441000D01*
X16156000Y-12411000D02*
X16126000Y-12441000D01*
X16126000Y-12665000D02*
X16156000Y-12695000D01*
X16156000Y-12665000D02*
X16126000Y-12695000D01*
X16126000Y-12919000D02*
X16156000Y-12949000D01*
X16156000Y-12919000D02*
X16126000Y-12949000D01*
X16247500Y-11832500D02*
X16277500Y-11862500D01*
X16277500Y-11832500D02*
X16247500Y-11862500D01*
X16332500Y-11842500D02*
X16362500Y-11872500D01*
X16362500Y-11842500D02*
X16332500Y-11872500D01*
X16342500Y-11472500D02*
X16372500Y-11502500D01*
X16372500Y-11472500D02*
X16342500Y-11502500D01*
X16380000Y-8347000D02*
X16410000Y-8377000D01*
X16410000Y-8347000D02*
X16380000Y-8377000D01*
X16380000Y-8601000D02*
X16410000Y-8631000D01*
X16410000Y-8601000D02*
X16380000Y-8631000D01*
X16380000Y-8855000D02*
X16410000Y-8885000D01*
X16410000Y-8855000D02*
X16380000Y-8885000D01*
X16380000Y-9109000D02*
X16410000Y-9139000D01*
X16410000Y-9109000D02*
X16380000Y-9139000D01*
X16380000Y-9363000D02*
X16410000Y-9393000D01*
X16410000Y-9363000D02*
X16380000Y-9393000D01*
X16380000Y-9617000D02*
X16410000Y-9647000D01*
X16410000Y-9617000D02*
X16380000Y-9647000D01*
X16380000Y-9871000D02*
X16410000Y-9901000D01*
X16410000Y-9871000D02*
X16380000Y-9901000D01*
X16380000Y-10125000D02*
X16410000Y-10155000D01*
X16410000Y-10125000D02*
X16380000Y-10155000D01*
X16380000Y-10379000D02*
X16410000Y-10409000D01*
X16410000Y-10379000D02*
X16380000Y-10409000D01*
X16380000Y-10633000D02*
X16410000Y-10663000D01*
X16410000Y-10633000D02*
X16380000Y-10663000D01*
X16380000Y-12157000D02*
X16410000Y-12187000D01*
X16410000Y-12157000D02*
X16380000Y-12187000D01*
X16380000Y-12411000D02*
X16410000Y-12441000D01*
X16410000Y-12411000D02*
X16380000Y-12441000D01*
X16380000Y-12665000D02*
X16410000Y-12695000D01*
X16410000Y-12665000D02*
X16380000Y-12695000D01*
X16380000Y-12919000D02*
X16410000Y-12949000D01*
X16410000Y-12919000D02*
X16380000Y-12949000D01*
X16437500Y-11460000D02*
X16467500Y-11490000D01*
X16467500Y-11460000D02*
X16437500Y-11490000D01*
X16517500Y-11467500D02*
X16547500Y-11497500D01*
X16547500Y-11467500D02*
X16517500Y-11497500D01*
X16634000Y-8347000D02*
X16664000Y-8377000D01*
X16664000Y-8347000D02*
X16634000Y-8377000D01*
X16634000Y-8601000D02*
X16664000Y-8631000D01*
X16664000Y-8601000D02*
X16634000Y-8631000D01*
X16634000Y-8855000D02*
X16664000Y-8885000D01*
X16664000Y-8855000D02*
X16634000Y-8885000D01*
X16634000Y-9109000D02*
X16664000Y-9139000D01*
X16664000Y-9109000D02*
X16634000Y-9139000D01*
X16634000Y-9363000D02*
X16664000Y-9393000D01*
X16664000Y-9363000D02*
X16634000Y-9393000D01*
X16634000Y-9617000D02*
X16664000Y-9647000D01*
X16664000Y-9617000D02*
X16634000Y-9647000D01*
X16634000Y-9871000D02*
X16664000Y-9901000D01*
X16664000Y-9871000D02*
X16634000Y-9901000D01*
X16634000Y-10125000D02*
X16664000Y-10155000D01*
X16664000Y-10125000D02*
X16634000Y-10155000D01*
X16634000Y-10379000D02*
X16664000Y-10409000D01*
X16664000Y-10379000D02*
X16634000Y-10409000D01*
X16634000Y-10633000D02*
X16664000Y-10663000D01*
X16664000Y-10633000D02*
X16634000Y-10663000D01*
X16634000Y-10887000D02*
X16664000Y-10917000D01*
X16664000Y-10887000D02*
X16634000Y-10917000D01*
X16634000Y-11649000D02*
X16664000Y-11679000D01*
X16664000Y-11649000D02*
X16634000Y-11679000D01*
X16634000Y-12157000D02*
X16664000Y-12187000D01*
X16664000Y-12157000D02*
X16634000Y-12187000D01*
X16634000Y-12411000D02*
X16664000Y-12441000D01*
X16664000Y-12411000D02*
X16634000Y-12441000D01*
X16634000Y-12665000D02*
X16664000Y-12695000D01*
X16664000Y-12665000D02*
X16634000Y-12695000D01*
X16634000Y-12919000D02*
X16664000Y-12949000D01*
X16664000Y-12919000D02*
X16634000Y-12949000D01*
X16888000Y-8347000D02*
X16918000Y-8377000D01*
X16918000Y-8347000D02*
X16888000Y-8377000D01*
X16888000Y-8601000D02*
X16918000Y-8631000D01*
X16918000Y-8601000D02*
X16888000Y-8631000D01*
X16888000Y-8855000D02*
X16918000Y-8885000D01*
X16918000Y-8855000D02*
X16888000Y-8885000D01*
X16888000Y-9109000D02*
X16918000Y-9139000D01*
X16918000Y-9109000D02*
X16888000Y-9139000D01*
X16888000Y-9363000D02*
X16918000Y-9393000D01*
X16918000Y-9363000D02*
X16888000Y-9393000D01*
X16888000Y-9617000D02*
X16918000Y-9647000D01*
X16918000Y-9617000D02*
X16888000Y-9647000D01*
X16888000Y-9871000D02*
X16918000Y-9901000D01*
X16918000Y-9871000D02*
X16888000Y-9901000D01*
X16888000Y-10125000D02*
X16918000Y-10155000D01*
X16918000Y-10125000D02*
X16888000Y-10155000D01*
X16888000Y-10379000D02*
X16918000Y-10409000D01*
X16918000Y-10379000D02*
X16888000Y-10409000D01*
X16888000Y-10887000D02*
X16918000Y-10917000D01*
X16918000Y-10887000D02*
X16888000Y-10917000D01*
X16888000Y-11395000D02*
X16918000Y-11425000D01*
X16918000Y-11395000D02*
X16888000Y-11425000D01*
X16888000Y-11649000D02*
X16918000Y-11679000D01*
X16918000Y-11649000D02*
X16888000Y-11679000D01*
X16888000Y-11903000D02*
X16918000Y-11933000D01*
X16918000Y-11903000D02*
X16888000Y-11933000D01*
X16888000Y-12157000D02*
X16918000Y-12187000D01*
X16918000Y-12157000D02*
X16888000Y-12187000D01*
X16888000Y-12411000D02*
X16918000Y-12441000D01*
X16918000Y-12411000D02*
X16888000Y-12441000D01*
X16888000Y-12665000D02*
X16918000Y-12695000D01*
X16918000Y-12665000D02*
X16888000Y-12695000D01*
X16888000Y-12919000D02*
X16918000Y-12949000D01*
X16918000Y-12919000D02*
X16888000Y-12949000D01*
X17022500Y-10645000D02*
X17052500Y-10675000D01*
X17052500Y-10645000D02*
X17022500Y-10675000D01*
X17037500Y-10775000D02*
X17067500Y-10805000D01*
X17067500Y-10775000D02*
X17037500Y-10805000D01*
X17142000Y-8347000D02*
X17172000Y-8377000D01*
X17172000Y-8347000D02*
X17142000Y-8377000D01*
X17142000Y-8601000D02*
X17172000Y-8631000D01*
X17172000Y-8601000D02*
X17142000Y-8631000D01*
X17142000Y-8855000D02*
X17172000Y-8885000D01*
X17172000Y-8855000D02*
X17142000Y-8885000D01*
X17142000Y-9109000D02*
X17172000Y-9139000D01*
X17172000Y-9109000D02*
X17142000Y-9139000D01*
X17142000Y-9363000D02*
X17172000Y-9393000D01*
X17172000Y-9363000D02*
X17142000Y-9393000D01*
X17142000Y-9617000D02*
X17172000Y-9647000D01*
X17172000Y-9617000D02*
X17142000Y-9647000D01*
X17142000Y-11395000D02*
X17172000Y-11425000D01*
X17172000Y-11395000D02*
X17142000Y-11425000D01*
X17142000Y-11649000D02*
X17172000Y-11679000D01*
X17172000Y-11649000D02*
X17142000Y-11679000D01*
X17142000Y-11903000D02*
X17172000Y-11933000D01*
X17172000Y-11903000D02*
X17142000Y-11933000D01*
X17142000Y-12157000D02*
X17172000Y-12187000D01*
X17172000Y-12157000D02*
X17142000Y-12187000D01*
X17142000Y-12411000D02*
X17172000Y-12441000D01*
X17172000Y-12411000D02*
X17142000Y-12441000D01*
X17142000Y-12665000D02*
X17172000Y-12695000D01*
X17172000Y-12665000D02*
X17142000Y-12695000D01*
X17142000Y-12919000D02*
X17172000Y-12949000D01*
X17172000Y-12919000D02*
X17142000Y-12949000D01*
X17272500Y-11077500D02*
X17302500Y-11107500D01*
X17302500Y-11077500D02*
X17272500Y-11107500D01*
X17370000Y-11055000D02*
X17400000Y-11085000D01*
X17400000Y-11055000D02*
X17370000Y-11085000D01*
X17396000Y-8347000D02*
X17426000Y-8377000D01*
X17426000Y-8347000D02*
X17396000Y-8377000D01*
X17396000Y-8601000D02*
X17426000Y-8631000D01*
X17426000Y-8601000D02*
X17396000Y-8631000D01*
X17396000Y-8855000D02*
X17426000Y-8885000D01*
X17426000Y-8855000D02*
X17396000Y-8885000D01*
X17396000Y-9109000D02*
X17426000Y-9139000D01*
X17426000Y-9109000D02*
X17396000Y-9139000D01*
X17396000Y-9363000D02*
X17426000Y-9393000D01*
X17426000Y-9363000D02*
X17396000Y-9393000D01*
X17396000Y-11395000D02*
X17426000Y-11425000D01*
X17426000Y-11395000D02*
X17396000Y-11425000D01*
X17396000Y-11649000D02*
X17426000Y-11679000D01*
X17426000Y-11649000D02*
X17396000Y-11679000D01*
X17396000Y-11903000D02*
X17426000Y-11933000D01*
X17426000Y-11903000D02*
X17396000Y-11933000D01*
X17396000Y-12157000D02*
X17426000Y-12187000D01*
X17426000Y-12157000D02*
X17396000Y-12187000D01*
X17396000Y-12411000D02*
X17426000Y-12441000D01*
X17426000Y-12411000D02*
X17396000Y-12441000D01*
X17396000Y-12665000D02*
X17426000Y-12695000D01*
X17426000Y-12665000D02*
X17396000Y-12695000D01*
X17396000Y-12919000D02*
X17426000Y-12949000D01*
X17426000Y-12919000D02*
X17396000Y-12949000D01*
X17570000Y-11287500D02*
X17600000Y-11317500D01*
X17600000Y-11287500D02*
X17570000Y-11317500D01*
X17650000Y-8347000D02*
X17680000Y-8377000D01*
X17680000Y-8347000D02*
X17650000Y-8377000D01*
X17650000Y-8601000D02*
X17680000Y-8631000D01*
X17680000Y-8601000D02*
X17650000Y-8631000D01*
X17650000Y-8855000D02*
X17680000Y-8885000D01*
X17680000Y-8855000D02*
X17650000Y-8885000D01*
X17650000Y-9109000D02*
X17680000Y-9139000D01*
X17680000Y-9109000D02*
X17650000Y-9139000D01*
X17650000Y-10379000D02*
X17680000Y-10409000D01*
X17680000Y-10379000D02*
X17650000Y-10409000D01*
X17650000Y-11903000D02*
X17680000Y-11933000D01*
X17680000Y-11903000D02*
X17650000Y-11933000D01*
X17650000Y-12157000D02*
X17680000Y-12187000D01*
X17680000Y-12157000D02*
X17650000Y-12187000D01*
X17650000Y-12411000D02*
X17680000Y-12441000D01*
X17680000Y-12411000D02*
X17650000Y-12441000D01*
X17650000Y-12665000D02*
X17680000Y-12695000D01*
X17680000Y-12665000D02*
X17650000Y-12695000D01*
X17650000Y-12919000D02*
X17680000Y-12949000D01*
X17680000Y-12919000D02*
X17650000Y-12949000D01*
X17790000Y-10855000D02*
X17820000Y-10885000D01*
X17820000Y-10855000D02*
X17790000Y-10885000D01*
X17904000Y-8347000D02*
X17934000Y-8377000D01*
X17934000Y-8347000D02*
X17904000Y-8377000D01*
X17904000Y-8601000D02*
X17934000Y-8631000D01*
X17934000Y-8601000D02*
X17904000Y-8631000D01*
X17904000Y-8855000D02*
X17934000Y-8885000D01*
X17934000Y-8855000D02*
X17904000Y-8885000D01*
X17904000Y-9109000D02*
X17934000Y-9139000D01*
X17934000Y-9109000D02*
X17904000Y-9139000D01*
X17904000Y-9871000D02*
X17934000Y-9901000D01*
X17934000Y-9871000D02*
X17904000Y-9901000D01*
X17904000Y-12157000D02*
X17934000Y-12187000D01*
X17934000Y-12157000D02*
X17904000Y-12187000D01*
X17904000Y-12411000D02*
X17934000Y-12441000D01*
X17934000Y-12411000D02*
X17904000Y-12441000D01*
X17904000Y-12665000D02*
X17934000Y-12695000D01*
X17934000Y-12665000D02*
X17904000Y-12695000D01*
X17904000Y-12919000D02*
X17934000Y-12949000D01*
X17934000Y-12919000D02*
X17904000Y-12949000D01*
X17947500Y-10882500D02*
X17977500Y-10912500D01*
X17977500Y-10882500D02*
X17947500Y-10912500D01*
X18035000Y-10885000D02*
X18065000Y-10915000D01*
X18065000Y-10885000D02*
X18035000Y-10915000D01*
X18105000Y-10040000D02*
X18135000Y-10070000D01*
X18135000Y-10040000D02*
X18105000Y-10070000D01*
X18158000Y-8347000D02*
X18188000Y-8377000D01*
X18188000Y-8347000D02*
X18158000Y-8377000D01*
X18158000Y-8601000D02*
X18188000Y-8631000D01*
X18188000Y-8601000D02*
X18158000Y-8631000D01*
X18158000Y-8855000D02*
X18188000Y-8885000D01*
X18188000Y-8855000D02*
X18158000Y-8885000D01*
X18158000Y-10379000D02*
X18188000Y-10409000D01*
X18188000Y-10379000D02*
X18158000Y-10409000D01*
X18158000Y-10633000D02*
X18188000Y-10663000D01*
X18188000Y-10633000D02*
X18158000Y-10663000D01*
X18158000Y-12665000D02*
X18188000Y-12695000D01*
X18188000Y-12665000D02*
X18158000Y-12695000D01*
X18158000Y-12919000D02*
X18188000Y-12949000D01*
X18188000Y-12919000D02*
X18158000Y-12949000D01*
X18245000Y-10910000D02*
X18275000Y-10940000D01*
X18275000Y-10910000D02*
X18245000Y-10940000D01*
X18270000Y-11480000D02*
X18300000Y-11510000D01*
X18300000Y-11480000D02*
X18270000Y-11510000D01*
X18327500Y-10907500D02*
X18357500Y-10937500D01*
X18357500Y-10907500D02*
X18327500Y-10937500D01*
X18407500Y-9947500D02*
X18437500Y-9977500D01*
X18437500Y-9947500D02*
X18407500Y-9977500D01*
X18412000Y-8347000D02*
X18442000Y-8377000D01*
X18442000Y-8347000D02*
X18412000Y-8377000D01*
X18412000Y-8601000D02*
X18442000Y-8631000D01*
X18442000Y-8601000D02*
X18412000Y-8631000D01*
X18412000Y-8855000D02*
X18442000Y-8885000D01*
X18442000Y-8855000D02*
X18412000Y-8885000D01*
X18412000Y-10125000D02*
X18442000Y-10155000D01*
X18442000Y-10125000D02*
X18412000Y-10155000D01*
X18412000Y-10379000D02*
X18442000Y-10409000D01*
X18442000Y-10379000D02*
X18412000Y-10409000D01*
X18412000Y-10633000D02*
X18442000Y-10663000D01*
X18442000Y-10633000D02*
X18412000Y-10663000D01*
X18412000Y-12665000D02*
X18442000Y-12695000D01*
X18442000Y-12665000D02*
X18412000Y-12695000D01*
X18412000Y-12919000D02*
X18442000Y-12949000D01*
X18442000Y-12919000D02*
X18412000Y-12949000D01*
X18427500Y-10887500D02*
X18457500Y-10917500D01*
X18457500Y-10887500D02*
X18427500Y-10917500D01*
X18547500Y-11447500D02*
X18577500Y-11477500D01*
X18577500Y-11447500D02*
X18547500Y-11477500D01*
X18557500Y-10892500D02*
X18587500Y-10922500D01*
X18587500Y-10892500D02*
X18557500Y-10922500D01*
X18640000Y-10892500D02*
X18670000Y-10922500D01*
X18670000Y-10892500D02*
X18640000Y-10922500D01*
X18666000Y-8347000D02*
X18696000Y-8377000D01*
X18696000Y-8347000D02*
X18666000Y-8377000D01*
X18666000Y-8601000D02*
X18696000Y-8631000D01*
X18696000Y-8601000D02*
X18666000Y-8631000D01*
X18666000Y-8855000D02*
X18696000Y-8885000D01*
X18696000Y-8855000D02*
X18666000Y-8885000D01*
X18666000Y-10125000D02*
X18696000Y-10155000D01*
X18696000Y-10125000D02*
X18666000Y-10155000D01*
X18666000Y-10379000D02*
X18696000Y-10409000D01*
X18696000Y-10379000D02*
X18666000Y-10409000D01*
X18666000Y-10633000D02*
X18696000Y-10663000D01*
X18696000Y-10633000D02*
X18666000Y-10663000D01*
X18666000Y-12665000D02*
X18696000Y-12695000D01*
X18696000Y-12665000D02*
X18666000Y-12695000D01*
X18666000Y-12919000D02*
X18696000Y-12949000D01*
X18696000Y-12919000D02*
X18666000Y-12949000D01*
X18745000Y-9395000D02*
X18775000Y-9425000D01*
X18775000Y-9395000D02*
X18745000Y-9425000D01*
X18745000Y-11452500D02*
X18775000Y-11482500D01*
X18775000Y-11452500D02*
X18745000Y-11482500D01*
X18890000Y-9365000D02*
X18920000Y-9395000D01*
X18920000Y-9365000D02*
X18890000Y-9395000D01*
X18920000Y-8347000D02*
X18950000Y-8377000D01*
X18950000Y-8347000D02*
X18920000Y-8377000D01*
X18920000Y-8601000D02*
X18950000Y-8631000D01*
X18950000Y-8601000D02*
X18920000Y-8631000D01*
X18920000Y-8855000D02*
X18950000Y-8885000D01*
X18950000Y-8855000D02*
X18920000Y-8885000D01*
X18920000Y-10125000D02*
X18950000Y-10155000D01*
X18950000Y-10125000D02*
X18920000Y-10155000D01*
X18920000Y-10379000D02*
X18950000Y-10409000D01*
X18950000Y-10379000D02*
X18920000Y-10409000D01*
X18920000Y-10633000D02*
X18950000Y-10663000D01*
X18950000Y-10633000D02*
X18920000Y-10663000D01*
X18920000Y-12665000D02*
X18950000Y-12695000D01*
X18950000Y-12665000D02*
X18920000Y-12695000D01*
X18920000Y-12919000D02*
X18950000Y-12949000D01*
X18950000Y-12919000D02*
X18920000Y-12949000D01*
X19117500Y-11970000D02*
X19147500Y-12000000D01*
X19147500Y-11970000D02*
X19117500Y-12000000D01*
X19174000Y-8347000D02*
X19204000Y-8377000D01*
X19204000Y-8347000D02*
X19174000Y-8377000D01*
X19174000Y-9109000D02*
X19204000Y-9139000D01*
X19204000Y-9109000D02*
X19174000Y-9139000D01*
X19174000Y-9363000D02*
X19204000Y-9393000D01*
X19204000Y-9363000D02*
X19174000Y-9393000D01*
X19174000Y-9617000D02*
X19204000Y-9647000D01*
X19204000Y-9617000D02*
X19174000Y-9647000D01*
X19174000Y-9871000D02*
X19204000Y-9901000D01*
X19204000Y-9871000D02*
X19174000Y-9901000D01*
X19174000Y-10125000D02*
X19204000Y-10155000D01*
X19204000Y-10125000D02*
X19174000Y-10155000D01*
X19174000Y-10379000D02*
X19204000Y-10409000D01*
X19204000Y-10379000D02*
X19174000Y-10409000D01*
X19174000Y-10633000D02*
X19204000Y-10663000D01*
X19204000Y-10633000D02*
X19174000Y-10663000D01*
X19174000Y-10887000D02*
X19204000Y-10917000D01*
X19204000Y-10887000D02*
X19174000Y-10917000D01*
X19174000Y-12919000D02*
X19204000Y-12949000D01*
X19204000Y-12919000D02*
X19174000Y-12949000D01*
X19428000Y-8347000D02*
X19458000Y-8377000D01*
X19458000Y-8347000D02*
X19428000Y-8377000D01*
X19428000Y-9109000D02*
X19458000Y-9139000D01*
X19458000Y-9109000D02*
X19428000Y-9139000D01*
X19428000Y-9363000D02*
X19458000Y-9393000D01*
X19458000Y-9363000D02*
X19428000Y-9393000D01*
X19428000Y-9617000D02*
X19458000Y-9647000D01*
X19458000Y-9617000D02*
X19428000Y-9647000D01*
X19428000Y-9871000D02*
X19458000Y-9901000D01*
X19458000Y-9871000D02*
X19428000Y-9901000D01*
X19428000Y-10125000D02*
X19458000Y-10155000D01*
X19458000Y-10125000D02*
X19428000Y-10155000D01*
X19428000Y-10379000D02*
X19458000Y-10409000D01*
X19458000Y-10379000D02*
X19428000Y-10409000D01*
X19428000Y-10633000D02*
X19458000Y-10663000D01*
X19458000Y-10633000D02*
X19428000Y-10663000D01*
X19428000Y-10887000D02*
X19458000Y-10917000D01*
X19458000Y-10887000D02*
X19428000Y-10917000D01*
X19428000Y-11141000D02*
X19458000Y-11171000D01*
X19458000Y-11141000D02*
X19428000Y-11171000D01*
X19428000Y-11395000D02*
X19458000Y-11425000D01*
X19458000Y-11395000D02*
X19428000Y-11425000D01*
X19428000Y-11649000D02*
X19458000Y-11679000D01*
X19458000Y-11649000D02*
X19428000Y-11679000D01*
X19428000Y-11903000D02*
X19458000Y-11933000D01*
X19458000Y-11903000D02*
X19428000Y-11933000D01*
X19428000Y-12157000D02*
X19458000Y-12187000D01*
X19458000Y-12157000D02*
X19428000Y-12187000D01*
X19428000Y-12411000D02*
X19458000Y-12441000D01*
X19458000Y-12411000D02*
X19428000Y-12441000D01*
X19428000Y-12919000D02*
X19458000Y-12949000D01*
X19458000Y-12919000D02*
X19428000Y-12949000D01*
X19682000Y-8601000D02*
X19712000Y-8631000D01*
X19712000Y-8601000D02*
X19682000Y-8631000D01*
X19682000Y-8855000D02*
X19712000Y-8885000D01*
X19712000Y-8855000D02*
X19682000Y-8885000D01*
X19682000Y-9109000D02*
X19712000Y-9139000D01*
X19712000Y-9109000D02*
X19682000Y-9139000D01*
X19682000Y-9363000D02*
X19712000Y-9393000D01*
X19712000Y-9363000D02*
X19682000Y-9393000D01*
X19682000Y-9617000D02*
X19712000Y-9647000D01*
X19712000Y-9617000D02*
X19682000Y-9647000D01*
X19682000Y-9871000D02*
X19712000Y-9901000D01*
X19712000Y-9871000D02*
X19682000Y-9901000D01*
X19682000Y-10125000D02*
X19712000Y-10155000D01*
X19712000Y-10125000D02*
X19682000Y-10155000D01*
X19682000Y-10379000D02*
X19712000Y-10409000D01*
X19712000Y-10379000D02*
X19682000Y-10409000D01*
X19682000Y-10633000D02*
X19712000Y-10663000D01*
X19712000Y-10633000D02*
X19682000Y-10663000D01*
X19682000Y-10887000D02*
X19712000Y-10917000D01*
X19712000Y-10887000D02*
X19682000Y-10917000D01*
X19682000Y-11141000D02*
X19712000Y-11171000D01*
X19712000Y-11141000D02*
X19682000Y-11171000D01*
X19682000Y-11395000D02*
X19712000Y-11425000D01*
X19712000Y-11395000D02*
X19682000Y-11425000D01*
X19682000Y-11649000D02*
X19712000Y-11679000D01*
X19712000Y-11649000D02*
X19682000Y-11679000D01*
X19682000Y-11903000D02*
X19712000Y-11933000D01*
X19712000Y-11903000D02*
X19682000Y-11933000D01*
X19682000Y-12157000D02*
X19712000Y-12187000D01*
X19712000Y-12157000D02*
X19682000Y-12187000D01*
X19682000Y-12411000D02*
X19712000Y-12441000D01*
X19712000Y-12411000D02*
X19682000Y-12441000D01*
X19682000Y-12665000D02*
X19712000Y-12695000D01*
X19712000Y-12665000D02*
X19682000Y-12695000D01*
D11*
X15068277Y-13536484D02*
X15068277Y-13336484D01*
X15068277Y-13336484D02*
X15115896Y-13336484D01*
X15115896Y-13336484D02*
X15144467Y-13346008D01*
X15144467Y-13346008D02*
X15163515Y-13365055D01*
X15163515Y-13365055D02*
X15173039Y-13384103D01*
X15173039Y-13384103D02*
X15182562Y-13422198D01*
X15182562Y-13422198D02*
X15182562Y-13450769D01*
X15182562Y-13450769D02*
X15173039Y-13488865D01*
X15173039Y-13488865D02*
X15163515Y-13507912D01*
X15163515Y-13507912D02*
X15144467Y-13526960D01*
X15144467Y-13526960D02*
X15115896Y-13536484D01*
X15115896Y-13536484D02*
X15068277Y-13536484D01*
X15268277Y-13536484D02*
X15268277Y-13403150D01*
X15268277Y-13441246D02*
X15277801Y-13422198D01*
X15277801Y-13422198D02*
X15287324Y-13412674D01*
X15287324Y-13412674D02*
X15306372Y-13403150D01*
X15306372Y-13403150D02*
X15325420Y-13403150D01*
X15392086Y-13536484D02*
X15392086Y-13403150D01*
X15392086Y-13336484D02*
X15382562Y-13346008D01*
X15382562Y-13346008D02*
X15392086Y-13355531D01*
X15392086Y-13355531D02*
X15401610Y-13346008D01*
X15401610Y-13346008D02*
X15392086Y-13336484D01*
X15392086Y-13336484D02*
X15392086Y-13355531D01*
X15515896Y-13536484D02*
X15496848Y-13526960D01*
X15496848Y-13526960D02*
X15487324Y-13507912D01*
X15487324Y-13507912D02*
X15487324Y-13336484D01*
X15620658Y-13536484D02*
X15601610Y-13526960D01*
X15601610Y-13526960D02*
X15592086Y-13507912D01*
X15592086Y-13507912D02*
X15592086Y-13336484D01*
X15849229Y-13536484D02*
X15849229Y-13336484D01*
X15849229Y-13336484D02*
X15915896Y-13479341D01*
X15915896Y-13479341D02*
X15982562Y-13336484D01*
X15982562Y-13336484D02*
X15982562Y-13536484D01*
X16163515Y-13536484D02*
X16163515Y-13431722D01*
X16163515Y-13431722D02*
X16153991Y-13412674D01*
X16153991Y-13412674D02*
X16134943Y-13403150D01*
X16134943Y-13403150D02*
X16096848Y-13403150D01*
X16096848Y-13403150D02*
X16077801Y-13412674D01*
X16163515Y-13526960D02*
X16144467Y-13536484D01*
X16144467Y-13536484D02*
X16096848Y-13536484D01*
X16096848Y-13536484D02*
X16077801Y-13526960D01*
X16077801Y-13526960D02*
X16068277Y-13507912D01*
X16068277Y-13507912D02*
X16068277Y-13488865D01*
X16068277Y-13488865D02*
X16077801Y-13469817D01*
X16077801Y-13469817D02*
X16096848Y-13460293D01*
X16096848Y-13460293D02*
X16144467Y-13460293D01*
X16144467Y-13460293D02*
X16163515Y-13450769D01*
X16258753Y-13403150D02*
X16258753Y-13603150D01*
X16258753Y-13412674D02*
X16277801Y-13403150D01*
X16277801Y-13403150D02*
X16315896Y-13403150D01*
X16315896Y-13403150D02*
X16334943Y-13412674D01*
X16334943Y-13412674D02*
X16344467Y-13422198D01*
X16344467Y-13422198D02*
X16353991Y-13441246D01*
X16353991Y-13441246D02*
X16353991Y-13498388D01*
X16353991Y-13498388D02*
X16344467Y-13517436D01*
X16344467Y-13517436D02*
X16334943Y-13526960D01*
X16334943Y-13526960D02*
X16315896Y-13536484D01*
X16315896Y-13536484D02*
X16277801Y-13536484D01*
X16277801Y-13536484D02*
X16258753Y-13526960D01*
X16439705Y-13517436D02*
X16449229Y-13526960D01*
X16449229Y-13526960D02*
X16439705Y-13536484D01*
X16439705Y-13536484D02*
X16430182Y-13526960D01*
X16430182Y-13526960D02*
X16439705Y-13517436D01*
X16439705Y-13517436D02*
X16439705Y-13536484D01*
X16439705Y-13412674D02*
X16449229Y-13422198D01*
X16449229Y-13422198D02*
X16439705Y-13431722D01*
X16439705Y-13431722D02*
X16430182Y-13422198D01*
X16430182Y-13422198D02*
X16439705Y-13412674D01*
X16439705Y-13412674D02*
X16439705Y-13431722D01*
D12*
X14777500Y-13850000D02*
X14807500Y-13880000D01*
X14807500Y-13850000D02*
X14777500Y-13880000D01*
D11*
X15106372Y-13756484D02*
X15125420Y-13756484D01*
X15125420Y-13756484D02*
X15144467Y-13766008D01*
X15144467Y-13766008D02*
X15153991Y-13775531D01*
X15153991Y-13775531D02*
X15163515Y-13794579D01*
X15163515Y-13794579D02*
X15173039Y-13832674D01*
X15173039Y-13832674D02*
X15173039Y-13880293D01*
X15173039Y-13880293D02*
X15163515Y-13918388D01*
X15163515Y-13918388D02*
X15153991Y-13937436D01*
X15153991Y-13937436D02*
X15144467Y-13946960D01*
X15144467Y-13946960D02*
X15125420Y-13956484D01*
X15125420Y-13956484D02*
X15106372Y-13956484D01*
X15106372Y-13956484D02*
X15087324Y-13946960D01*
X15087324Y-13946960D02*
X15077801Y-13937436D01*
X15077801Y-13937436D02*
X15068277Y-13918388D01*
X15068277Y-13918388D02*
X15058753Y-13880293D01*
X15058753Y-13880293D02*
X15058753Y-13832674D01*
X15058753Y-13832674D02*
X15068277Y-13794579D01*
X15068277Y-13794579D02*
X15077801Y-13775531D01*
X15077801Y-13775531D02*
X15087324Y-13766008D01*
X15087324Y-13766008D02*
X15106372Y-13756484D01*
X15258753Y-13937436D02*
X15268277Y-13946960D01*
X15268277Y-13946960D02*
X15258753Y-13956484D01*
X15258753Y-13956484D02*
X15249229Y-13946960D01*
X15249229Y-13946960D02*
X15258753Y-13937436D01*
X15258753Y-13937436D02*
X15258753Y-13956484D01*
X15334943Y-13756484D02*
X15458753Y-13756484D01*
X15458753Y-13756484D02*
X15392086Y-13832674D01*
X15392086Y-13832674D02*
X15420658Y-13832674D01*
X15420658Y-13832674D02*
X15439705Y-13842198D01*
X15439705Y-13842198D02*
X15449229Y-13851722D01*
X15449229Y-13851722D02*
X15458753Y-13870769D01*
X15458753Y-13870769D02*
X15458753Y-13918388D01*
X15458753Y-13918388D02*
X15449229Y-13937436D01*
X15449229Y-13937436D02*
X15439705Y-13946960D01*
X15439705Y-13946960D02*
X15420658Y-13956484D01*
X15420658Y-13956484D02*
X15363515Y-13956484D01*
X15363515Y-13956484D02*
X15344467Y-13946960D01*
X15344467Y-13946960D02*
X15334943Y-13937436D01*
X15582562Y-13756484D02*
X15601610Y-13756484D01*
X15601610Y-13756484D02*
X15620658Y-13766008D01*
X15620658Y-13766008D02*
X15630182Y-13775531D01*
X15630182Y-13775531D02*
X15639705Y-13794579D01*
X15639705Y-13794579D02*
X15649229Y-13832674D01*
X15649229Y-13832674D02*
X15649229Y-13880293D01*
X15649229Y-13880293D02*
X15639705Y-13918388D01*
X15639705Y-13918388D02*
X15630182Y-13937436D01*
X15630182Y-13937436D02*
X15620658Y-13946960D01*
X15620658Y-13946960D02*
X15601610Y-13956484D01*
X15601610Y-13956484D02*
X15582562Y-13956484D01*
X15582562Y-13956484D02*
X15563515Y-13946960D01*
X15563515Y-13946960D02*
X15553991Y-13937436D01*
X15553991Y-13937436D02*
X15544467Y-13918388D01*
X15544467Y-13918388D02*
X15534943Y-13880293D01*
X15534943Y-13880293D02*
X15534943Y-13832674D01*
X15534943Y-13832674D02*
X15544467Y-13794579D01*
X15544467Y-13794579D02*
X15553991Y-13775531D01*
X15553991Y-13775531D02*
X15563515Y-13766008D01*
X15563515Y-13766008D02*
X15582562Y-13756484D01*
X15773039Y-13756484D02*
X15792086Y-13756484D01*
X15792086Y-13756484D02*
X15811134Y-13766008D01*
X15811134Y-13766008D02*
X15820658Y-13775531D01*
X15820658Y-13775531D02*
X15830182Y-13794579D01*
X15830182Y-13794579D02*
X15839705Y-13832674D01*
X15839705Y-13832674D02*
X15839705Y-13880293D01*
X15839705Y-13880293D02*
X15830182Y-13918388D01*
X15830182Y-13918388D02*
X15820658Y-13937436D01*
X15820658Y-13937436D02*
X15811134Y-13946960D01*
X15811134Y-13946960D02*
X15792086Y-13956484D01*
X15792086Y-13956484D02*
X15773039Y-13956484D01*
X15773039Y-13956484D02*
X15753991Y-13946960D01*
X15753991Y-13946960D02*
X15744467Y-13937436D01*
X15744467Y-13937436D02*
X15734943Y-13918388D01*
X15734943Y-13918388D02*
X15725420Y-13880293D01*
X15725420Y-13880293D02*
X15725420Y-13832674D01*
X15725420Y-13832674D02*
X15734943Y-13794579D01*
X15734943Y-13794579D02*
X15744467Y-13775531D01*
X15744467Y-13775531D02*
X15753991Y-13766008D01*
X15753991Y-13766008D02*
X15773039Y-13756484D01*
X15925420Y-13956484D02*
X15925420Y-13823150D01*
X15925420Y-13842198D02*
X15934943Y-13832674D01*
X15934943Y-13832674D02*
X15953991Y-13823150D01*
X15953991Y-13823150D02*
X15982563Y-13823150D01*
X15982563Y-13823150D02*
X16001610Y-13832674D01*
X16001610Y-13832674D02*
X16011134Y-13851722D01*
X16011134Y-13851722D02*
X16011134Y-13956484D01*
X16011134Y-13851722D02*
X16020658Y-13832674D01*
X16020658Y-13832674D02*
X16039705Y-13823150D01*
X16039705Y-13823150D02*
X16068277Y-13823150D01*
X16068277Y-13823150D02*
X16087324Y-13832674D01*
X16087324Y-13832674D02*
X16096848Y-13851722D01*
X16096848Y-13851722D02*
X16096848Y-13956484D01*
X16192086Y-13956484D02*
X16192086Y-13823150D01*
X16192086Y-13842198D02*
X16201610Y-13832674D01*
X16201610Y-13832674D02*
X16220658Y-13823150D01*
X16220658Y-13823150D02*
X16249229Y-13823150D01*
X16249229Y-13823150D02*
X16268277Y-13832674D01*
X16268277Y-13832674D02*
X16277801Y-13851722D01*
X16277801Y-13851722D02*
X16277801Y-13956484D01*
X16277801Y-13851722D02*
X16287324Y-13832674D01*
X16287324Y-13832674D02*
X16306372Y-13823150D01*
X16306372Y-13823150D02*
X16334943Y-13823150D01*
X16334943Y-13823150D02*
X16353991Y-13832674D01*
X16353991Y-13832674D02*
X16363515Y-13851722D01*
X16363515Y-13851722D02*
X16363515Y-13956484D01*
X16753991Y-13746960D02*
X16582563Y-14004103D01*
X17011134Y-13756484D02*
X17030182Y-13756484D01*
X17030182Y-13756484D02*
X17049229Y-13766008D01*
X17049229Y-13766008D02*
X17058753Y-13775531D01*
X17058753Y-13775531D02*
X17068277Y-13794579D01*
X17068277Y-13794579D02*
X17077801Y-13832674D01*
X17077801Y-13832674D02*
X17077801Y-13880293D01*
X17077801Y-13880293D02*
X17068277Y-13918388D01*
X17068277Y-13918388D02*
X17058753Y-13937436D01*
X17058753Y-13937436D02*
X17049229Y-13946960D01*
X17049229Y-13946960D02*
X17030182Y-13956484D01*
X17030182Y-13956484D02*
X17011134Y-13956484D01*
X17011134Y-13956484D02*
X16992087Y-13946960D01*
X16992087Y-13946960D02*
X16982563Y-13937436D01*
X16982563Y-13937436D02*
X16973039Y-13918388D01*
X16973039Y-13918388D02*
X16963515Y-13880293D01*
X16963515Y-13880293D02*
X16963515Y-13832674D01*
X16963515Y-13832674D02*
X16973039Y-13794579D01*
X16973039Y-13794579D02*
X16982563Y-13775531D01*
X16982563Y-13775531D02*
X16992087Y-13766008D01*
X16992087Y-13766008D02*
X17011134Y-13756484D01*
X17163515Y-13937436D02*
X17173039Y-13946960D01*
X17173039Y-13946960D02*
X17163515Y-13956484D01*
X17163515Y-13956484D02*
X17153991Y-13946960D01*
X17153991Y-13946960D02*
X17163515Y-13937436D01*
X17163515Y-13937436D02*
X17163515Y-13956484D01*
X17296848Y-13756484D02*
X17315896Y-13756484D01*
X17315896Y-13756484D02*
X17334944Y-13766008D01*
X17334944Y-13766008D02*
X17344468Y-13775531D01*
X17344468Y-13775531D02*
X17353991Y-13794579D01*
X17353991Y-13794579D02*
X17363515Y-13832674D01*
X17363515Y-13832674D02*
X17363515Y-13880293D01*
X17363515Y-13880293D02*
X17353991Y-13918388D01*
X17353991Y-13918388D02*
X17344468Y-13937436D01*
X17344468Y-13937436D02*
X17334944Y-13946960D01*
X17334944Y-13946960D02*
X17315896Y-13956484D01*
X17315896Y-13956484D02*
X17296848Y-13956484D01*
X17296848Y-13956484D02*
X17277801Y-13946960D01*
X17277801Y-13946960D02*
X17268277Y-13937436D01*
X17268277Y-13937436D02*
X17258753Y-13918388D01*
X17258753Y-13918388D02*
X17249229Y-13880293D01*
X17249229Y-13880293D02*
X17249229Y-13832674D01*
X17249229Y-13832674D02*
X17258753Y-13794579D01*
X17258753Y-13794579D02*
X17268277Y-13775531D01*
X17268277Y-13775531D02*
X17277801Y-13766008D01*
X17277801Y-13766008D02*
X17296848Y-13756484D01*
X17553991Y-13956484D02*
X17439706Y-13956484D01*
X17496848Y-13956484D02*
X17496848Y-13756484D01*
X17496848Y-13756484D02*
X17477801Y-13785055D01*
X17477801Y-13785055D02*
X17458753Y-13804103D01*
X17458753Y-13804103D02*
X17439706Y-13813627D01*
X17744468Y-13956484D02*
X17630182Y-13956484D01*
X17687325Y-13956484D02*
X17687325Y-13756484D01*
X17687325Y-13756484D02*
X17668277Y-13785055D01*
X17668277Y-13785055D02*
X17649229Y-13804103D01*
X17649229Y-13804103D02*
X17630182Y-13813627D01*
X17858753Y-13842198D02*
X17839706Y-13832674D01*
X17839706Y-13832674D02*
X17830182Y-13823150D01*
X17830182Y-13823150D02*
X17820658Y-13804103D01*
X17820658Y-13804103D02*
X17820658Y-13794579D01*
X17820658Y-13794579D02*
X17830182Y-13775531D01*
X17830182Y-13775531D02*
X17839706Y-13766008D01*
X17839706Y-13766008D02*
X17858753Y-13756484D01*
X17858753Y-13756484D02*
X17896849Y-13756484D01*
X17896849Y-13756484D02*
X17915896Y-13766008D01*
X17915896Y-13766008D02*
X17925420Y-13775531D01*
X17925420Y-13775531D02*
X17934944Y-13794579D01*
X17934944Y-13794579D02*
X17934944Y-13804103D01*
X17934944Y-13804103D02*
X17925420Y-13823150D01*
X17925420Y-13823150D02*
X17915896Y-13832674D01*
X17915896Y-13832674D02*
X17896849Y-13842198D01*
X17896849Y-13842198D02*
X17858753Y-13842198D01*
X17858753Y-13842198D02*
X17839706Y-13851722D01*
X17839706Y-13851722D02*
X17830182Y-13861246D01*
X17830182Y-13861246D02*
X17820658Y-13880293D01*
X17820658Y-13880293D02*
X17820658Y-13918388D01*
X17820658Y-13918388D02*
X17830182Y-13937436D01*
X17830182Y-13937436D02*
X17839706Y-13946960D01*
X17839706Y-13946960D02*
X17858753Y-13956484D01*
X17858753Y-13956484D02*
X17896849Y-13956484D01*
X17896849Y-13956484D02*
X17915896Y-13946960D01*
X17915896Y-13946960D02*
X17925420Y-13937436D01*
X17925420Y-13937436D02*
X17934944Y-13918388D01*
X17934944Y-13918388D02*
X17934944Y-13880293D01*
X17934944Y-13880293D02*
X17925420Y-13861246D01*
X17925420Y-13861246D02*
X17915896Y-13851722D01*
X17915896Y-13851722D02*
X17896849Y-13842198D01*
X18011134Y-13756484D02*
X18011134Y-13794579D01*
X18087325Y-13756484D02*
X18087325Y-13794579D01*
X18382563Y-14032674D02*
X18373039Y-14023150D01*
X18373039Y-14023150D02*
X18353991Y-13994579D01*
X18353991Y-13994579D02*
X18344468Y-13975531D01*
X18344468Y-13975531D02*
X18334944Y-13946960D01*
X18334944Y-13946960D02*
X18325420Y-13899341D01*
X18325420Y-13899341D02*
X18325420Y-13861246D01*
X18325420Y-13861246D02*
X18334944Y-13813627D01*
X18334944Y-13813627D02*
X18344468Y-13785055D01*
X18344468Y-13785055D02*
X18353991Y-13766008D01*
X18353991Y-13766008D02*
X18373039Y-13737436D01*
X18373039Y-13737436D02*
X18382563Y-13727912D01*
X18449230Y-13775531D02*
X18458753Y-13766008D01*
X18458753Y-13766008D02*
X18477801Y-13756484D01*
X18477801Y-13756484D02*
X18525420Y-13756484D01*
X18525420Y-13756484D02*
X18544468Y-13766008D01*
X18544468Y-13766008D02*
X18553991Y-13775531D01*
X18553991Y-13775531D02*
X18563515Y-13794579D01*
X18563515Y-13794579D02*
X18563515Y-13813627D01*
X18563515Y-13813627D02*
X18553991Y-13842198D01*
X18553991Y-13842198D02*
X18439706Y-13956484D01*
X18439706Y-13956484D02*
X18563515Y-13956484D01*
X18734944Y-13756484D02*
X18696849Y-13756484D01*
X18696849Y-13756484D02*
X18677801Y-13766008D01*
X18677801Y-13766008D02*
X18668277Y-13775531D01*
X18668277Y-13775531D02*
X18649230Y-13804103D01*
X18649230Y-13804103D02*
X18639706Y-13842198D01*
X18639706Y-13842198D02*
X18639706Y-13918388D01*
X18639706Y-13918388D02*
X18649230Y-13937436D01*
X18649230Y-13937436D02*
X18658753Y-13946960D01*
X18658753Y-13946960D02*
X18677801Y-13956484D01*
X18677801Y-13956484D02*
X18715896Y-13956484D01*
X18715896Y-13956484D02*
X18734944Y-13946960D01*
X18734944Y-13946960D02*
X18744468Y-13937436D01*
X18744468Y-13937436D02*
X18753991Y-13918388D01*
X18753991Y-13918388D02*
X18753991Y-13870769D01*
X18753991Y-13870769D02*
X18744468Y-13851722D01*
X18744468Y-13851722D02*
X18734944Y-13842198D01*
X18734944Y-13842198D02*
X18715896Y-13832674D01*
X18715896Y-13832674D02*
X18677801Y-13832674D01*
X18677801Y-13832674D02*
X18658753Y-13842198D01*
X18658753Y-13842198D02*
X18649230Y-13851722D01*
X18649230Y-13851722D02*
X18639706Y-13870769D01*
X18925420Y-13756484D02*
X18887325Y-13756484D01*
X18887325Y-13756484D02*
X18868277Y-13766008D01*
X18868277Y-13766008D02*
X18858753Y-13775531D01*
X18858753Y-13775531D02*
X18839706Y-13804103D01*
X18839706Y-13804103D02*
X18830182Y-13842198D01*
X18830182Y-13842198D02*
X18830182Y-13918388D01*
X18830182Y-13918388D02*
X18839706Y-13937436D01*
X18839706Y-13937436D02*
X18849230Y-13946960D01*
X18849230Y-13946960D02*
X18868277Y-13956484D01*
X18868277Y-13956484D02*
X18906372Y-13956484D01*
X18906372Y-13956484D02*
X18925420Y-13946960D01*
X18925420Y-13946960D02*
X18934944Y-13937436D01*
X18934944Y-13937436D02*
X18944468Y-13918388D01*
X18944468Y-13918388D02*
X18944468Y-13870769D01*
X18944468Y-13870769D02*
X18934944Y-13851722D01*
X18934944Y-13851722D02*
X18925420Y-13842198D01*
X18925420Y-13842198D02*
X18906372Y-13832674D01*
X18906372Y-13832674D02*
X18868277Y-13832674D01*
X18868277Y-13832674D02*
X18849230Y-13842198D01*
X18849230Y-13842198D02*
X18839706Y-13851722D01*
X18839706Y-13851722D02*
X18830182Y-13870769D01*
X19182563Y-13956484D02*
X19182563Y-13756484D01*
X19268277Y-13956484D02*
X19268277Y-13851722D01*
X19268277Y-13851722D02*
X19258753Y-13832674D01*
X19258753Y-13832674D02*
X19239706Y-13823150D01*
X19239706Y-13823150D02*
X19211134Y-13823150D01*
X19211134Y-13823150D02*
X19192087Y-13832674D01*
X19192087Y-13832674D02*
X19182563Y-13842198D01*
X19392087Y-13956484D02*
X19373039Y-13946960D01*
X19373039Y-13946960D02*
X19363515Y-13937436D01*
X19363515Y-13937436D02*
X19353992Y-13918388D01*
X19353992Y-13918388D02*
X19353992Y-13861246D01*
X19353992Y-13861246D02*
X19363515Y-13842198D01*
X19363515Y-13842198D02*
X19373039Y-13832674D01*
X19373039Y-13832674D02*
X19392087Y-13823150D01*
X19392087Y-13823150D02*
X19420658Y-13823150D01*
X19420658Y-13823150D02*
X19439706Y-13832674D01*
X19439706Y-13832674D02*
X19449230Y-13842198D01*
X19449230Y-13842198D02*
X19458753Y-13861246D01*
X19458753Y-13861246D02*
X19458753Y-13918388D01*
X19458753Y-13918388D02*
X19449230Y-13937436D01*
X19449230Y-13937436D02*
X19439706Y-13946960D01*
X19439706Y-13946960D02*
X19420658Y-13956484D01*
X19420658Y-13956484D02*
X19392087Y-13956484D01*
X19573039Y-13956484D02*
X19553992Y-13946960D01*
X19553992Y-13946960D02*
X19544468Y-13927912D01*
X19544468Y-13927912D02*
X19544468Y-13756484D01*
X19725420Y-13946960D02*
X19706373Y-13956484D01*
X19706373Y-13956484D02*
X19668277Y-13956484D01*
X19668277Y-13956484D02*
X19649230Y-13946960D01*
X19649230Y-13946960D02*
X19639706Y-13927912D01*
X19639706Y-13927912D02*
X19639706Y-13851722D01*
X19639706Y-13851722D02*
X19649230Y-13832674D01*
X19649230Y-13832674D02*
X19668277Y-13823150D01*
X19668277Y-13823150D02*
X19706373Y-13823150D01*
X19706373Y-13823150D02*
X19725420Y-13832674D01*
X19725420Y-13832674D02*
X19734944Y-13851722D01*
X19734944Y-13851722D02*
X19734944Y-13870769D01*
X19734944Y-13870769D02*
X19639706Y-13889817D01*
X19811134Y-13946960D02*
X19830182Y-13956484D01*
X19830182Y-13956484D02*
X19868277Y-13956484D01*
X19868277Y-13956484D02*
X19887325Y-13946960D01*
X19887325Y-13946960D02*
X19896849Y-13927912D01*
X19896849Y-13927912D02*
X19896849Y-13918388D01*
X19896849Y-13918388D02*
X19887325Y-13899341D01*
X19887325Y-13899341D02*
X19868277Y-13889817D01*
X19868277Y-13889817D02*
X19839706Y-13889817D01*
X19839706Y-13889817D02*
X19820658Y-13880293D01*
X19820658Y-13880293D02*
X19811134Y-13861246D01*
X19811134Y-13861246D02*
X19811134Y-13851722D01*
X19811134Y-13851722D02*
X19820658Y-13832674D01*
X19820658Y-13832674D02*
X19839706Y-13823150D01*
X19839706Y-13823150D02*
X19868277Y-13823150D01*
X19868277Y-13823150D02*
X19887325Y-13832674D01*
X19963515Y-14032674D02*
X19973039Y-14023150D01*
X19973039Y-14023150D02*
X19992087Y-13994579D01*
X19992087Y-13994579D02*
X20001611Y-13975531D01*
X20001611Y-13975531D02*
X20011134Y-13946960D01*
X20011134Y-13946960D02*
X20020658Y-13899341D01*
X20020658Y-13899341D02*
X20020658Y-13861246D01*
X20020658Y-13861246D02*
X20011134Y-13813627D01*
X20011134Y-13813627D02*
X20001611Y-13785055D01*
X20001611Y-13785055D02*
X19992087Y-13766008D01*
X19992087Y-13766008D02*
X19973039Y-13737436D01*
X19973039Y-13737436D02*
X19963515Y-13727912D01*
M02*
