M48
; DRILL file {KiCad 8.0.1} date 2025-02-17T15:23:19+0500
; FORMAT={-:-/ absolute / metric / decimal}
; #@! TF.CreationDate,2025-02-17T15:23:19+05:00
; #@! TF.GenerationSoftware,Kicad,Pcbnew,8.0.1
; #@! TF.FileFunction,Plated,1,2,PTH
FMAT,2
METRIC
; #@! TA.AperFunction,Plated,PTH,ViaDrill
T1C0.300
%
G90
G05
T1
X151.25Y-88.7
X151.25Y-91.24
X151.25Y-93.78
X151.25Y-96.32
X151.25Y-98.86
X151.25Y-101.4
X151.25Y-103.94
X151.25Y-106.48
X151.25Y-109.02
X151.25Y-111.56
X151.25Y-114.1
X151.25Y-116.64
X151.25Y-119.18
X151.25Y-121.72
X151.25Y-124.26
X153.79Y-83.62
X153.79Y-91.24
X153.79Y-93.78
X153.79Y-96.32
X153.79Y-98.86
X153.79Y-101.4
X153.79Y-103.94
X153.79Y-106.48
X153.79Y-109.02
X153.79Y-111.56
X153.79Y-114.1
X153.79Y-129.34
X154.2Y-120.15
X155.525Y-110.625
X156.33Y-83.62
X156.33Y-86.16
X156.33Y-88.7
X156.33Y-91.24
X156.33Y-93.78
X156.33Y-96.32
X156.33Y-98.86
X156.33Y-101.4
X156.33Y-103.94
X156.33Y-106.48
X156.33Y-126.8
X156.33Y-129.34
X156.6Y-113.8
X158.725Y-113.75
X158.87Y-83.62
X158.87Y-86.16
X158.87Y-88.7
X158.87Y-91.24
X158.87Y-93.78
X158.87Y-96.32
X158.87Y-98.86
X158.87Y-101.4
X158.87Y-103.94
X158.87Y-106.48
X158.87Y-121.72
X158.87Y-124.26
X158.87Y-126.8
X158.87Y-129.34
X159.875Y-109.225
X159.875Y-116.15
X160.7Y-109.25
X160.725Y-116.225
X161.41Y-83.62
X161.41Y-86.16
X161.41Y-88.7
X161.41Y-91.24
X161.41Y-93.78
X161.41Y-96.32
X161.41Y-98.86
X161.41Y-101.4
X161.41Y-103.94
X161.41Y-106.48
X161.41Y-121.72
X161.41Y-124.26
X161.41Y-126.8
X161.41Y-129.34
X162.625Y-118.475
X163.475Y-118.575
X163.575Y-114.875
X163.95Y-83.62
X163.95Y-86.16
X163.95Y-88.7
X163.95Y-91.24
X163.95Y-93.78
X163.95Y-96.32
X163.95Y-98.86
X163.95Y-101.4
X163.95Y-103.94
X163.95Y-106.48
X163.95Y-121.72
X163.95Y-124.26
X163.95Y-126.8
X163.95Y-129.34
X164.525Y-114.75
X165.325Y-114.825
X166.49Y-83.62
X166.49Y-86.16
X166.49Y-88.7
X166.49Y-91.24
X166.49Y-93.78
X166.49Y-96.32
X166.49Y-98.86
X166.49Y-101.4
X166.49Y-103.94
X166.49Y-106.48
X166.49Y-109.02
X166.49Y-116.64
X166.49Y-121.72
X166.49Y-124.26
X166.49Y-126.8
X166.49Y-129.34
X169.03Y-83.62
X169.03Y-86.16
X169.03Y-88.7
X169.03Y-91.24
X169.03Y-93.78
X169.03Y-96.32
X169.03Y-98.86
X169.03Y-101.4
X169.03Y-103.94
X169.03Y-109.02
X169.03Y-114.1
X169.03Y-116.64
X169.03Y-119.18
X169.03Y-121.72
X169.03Y-124.26
X169.03Y-126.8
X169.03Y-129.34
X170.375Y-106.6
X170.525Y-107.9
X171.57Y-83.62
X171.57Y-86.16
X171.57Y-88.7
X171.57Y-91.24
X171.57Y-93.78
X171.57Y-96.32
X171.57Y-114.1
X171.57Y-116.64
X171.57Y-119.18
X171.57Y-121.72
X171.57Y-124.26
X171.57Y-126.8
X171.57Y-129.34
X172.875Y-110.925
X173.85Y-110.7
X174.11Y-83.62
X174.11Y-86.16
X174.11Y-88.7
X174.11Y-91.24
X174.11Y-93.78
X174.11Y-114.1
X174.11Y-116.64
X174.11Y-119.18
X174.11Y-121.72
X174.11Y-124.26
X174.11Y-126.8
X174.11Y-129.34
X175.85Y-113.025
X176.65Y-83.62
X176.65Y-86.16
X176.65Y-88.7
X176.65Y-91.24
X176.65Y-103.94
X176.65Y-119.18
X176.65Y-121.72
X176.65Y-124.26
X176.65Y-126.8
X176.65Y-129.34
X178.05Y-108.7
X179.19Y-83.62
X179.19Y-86.16
X179.19Y-88.7
X179.19Y-91.24
X179.19Y-98.86
X179.19Y-121.72
X179.19Y-124.26
X179.19Y-126.8
X179.19Y-129.34
X179.625Y-108.975
X180.5Y-109.0
X181.2Y-100.55
X181.73Y-83.62
X181.73Y-86.16
X181.73Y-88.7
X181.73Y-103.94
X181.73Y-106.48
X181.73Y-126.8
X181.73Y-129.34
X182.6Y-109.25
X182.85Y-114.95
X183.425Y-109.225
X184.225Y-99.625
X184.27Y-83.62
X184.27Y-86.16
X184.27Y-88.7
X184.27Y-101.4
X184.27Y-103.94
X184.27Y-106.48
X184.27Y-126.8
X184.27Y-129.34
X184.425Y-109.025
X185.625Y-114.625
X185.725Y-109.075
X186.55Y-109.075
X186.81Y-83.62
X186.81Y-86.16
X186.81Y-88.7
X186.81Y-101.4
X186.81Y-103.94
X186.81Y-106.48
X186.81Y-126.8
X186.81Y-129.34
X187.6Y-94.1
X187.6Y-114.675
X189.05Y-93.8
X189.35Y-83.62
X189.35Y-86.16
X189.35Y-88.7
X189.35Y-101.4
X189.35Y-103.94
X189.35Y-106.48
X189.35Y-126.8
X189.35Y-129.34
X191.325Y-119.85
X191.89Y-83.62
X191.89Y-91.24
X191.89Y-93.78
X191.89Y-96.32
X191.89Y-98.86
X191.89Y-101.4
X191.89Y-103.94
X191.89Y-106.48
X191.89Y-109.02
X191.89Y-129.34
X194.43Y-83.62
X194.43Y-91.24
X194.43Y-93.78
X194.43Y-96.32
X194.43Y-98.86
X194.43Y-101.4
X194.43Y-103.94
X194.43Y-106.48
X194.43Y-109.02
X194.43Y-111.56
X194.43Y-114.1
X194.43Y-116.64
X194.43Y-119.18
X194.43Y-121.72
X194.43Y-124.26
X194.43Y-129.34
X196.97Y-86.16
X196.97Y-88.7
X196.97Y-91.24
X196.97Y-93.78
X196.97Y-96.32
X196.97Y-98.86
X196.97Y-101.4
X196.97Y-103.94
X196.97Y-106.48
X196.97Y-109.02
X196.97Y-111.56
X196.97Y-114.1
X196.97Y-116.64
X196.97Y-119.18
X196.97Y-121.72
X196.97Y-124.26
X196.97Y-126.8
M30
