G04 #@! TF.GenerationSoftware,KiCad,Pcbnew,8.0.1*
G04 #@! TF.CreationDate,2025-02-17T15:23:15+05:00*
G04 #@! TF.ProjectId,Sensors,53656e73-6f72-4732-9e6b-696361645f70,rev?*
G04 #@! TF.SameCoordinates,Original*
G04 #@! TF.FileFunction,Soldermask,Top*
G04 #@! TF.FilePolarity,Negative*
%FSLAX46Y46*%
G04 Gerber Fmt 4.6, Leading zero omitted, Abs format (unit mm)*
G04 Created by KiCad (PCBNEW 8.0.1) date 2025-02-17 15:23:15*
%MOMM*%
%LPD*%
G01*
G04 APERTURE LIST*
G04 Aperture macros list*
%AMRoundRect*
0 Rectangle with rounded corners*
0 $1 Rounding radius*
0 $2 $3 $4 $5 $6 $7 $8 $9 X,Y pos of 4 corners*
0 Add a 4 corners polygon primitive as box body*
4,1,4,$2,$3,$4,$5,$6,$7,$8,$9,$2,$3,0*
0 Add four circle primitives for the rounded corners*
1,1,$1+$1,$2,$3*
1,1,$1+$1,$4,$5*
1,1,$1+$1,$6,$7*
1,1,$1+$1,$8,$9*
0 Add four rect primitives between the rounded corners*
20,1,$1+$1,$2,$3,$4,$5,0*
20,1,$1+$1,$4,$5,$6,$7,0*
20,1,$1+$1,$6,$7,$8,$9,0*
20,1,$1+$1,$8,$9,$2,$3,0*%
G04 Aperture macros list end*
%ADD10RoundRect,0.225000X0.250000X-0.225000X0.250000X0.225000X-0.250000X0.225000X-0.250000X-0.225000X0*%
%ADD11RoundRect,0.200000X-0.335876X-0.053033X-0.053033X-0.335876X0.335876X0.053033X0.053033X0.335876X0*%
%ADD12RoundRect,0.225000X0.225000X0.250000X-0.225000X0.250000X-0.225000X-0.250000X0.225000X-0.250000X0*%
%ADD13RoundRect,0.200000X0.335876X0.053033X0.053033X0.335876X-0.335876X-0.053033X-0.053033X-0.335876X0*%
%ADD14R,0.375000X0.350000*%
%ADD15R,0.350000X0.375000*%
%ADD16RoundRect,0.200000X-0.275000X0.200000X-0.275000X-0.200000X0.275000X-0.200000X0.275000X0.200000X0*%
%ADD17R,0.838200X0.609600*%
%ADD18R,0.609600X0.838200*%
%ADD19R,1.066800X1.066800*%
%ADD20C,1.000000*%
%ADD21RoundRect,0.087500X-0.225000X-0.087500X0.225000X-0.087500X0.225000X0.087500X-0.225000X0.087500X0*%
%ADD22RoundRect,0.087500X-0.087500X-0.225000X0.087500X-0.225000X0.087500X0.225000X-0.087500X0.225000X0*%
%ADD23RoundRect,0.225000X-0.250000X0.225000X-0.250000X-0.225000X0.250000X-0.225000X0.250000X0.225000X0*%
%ADD24C,2.200000*%
%ADD25RoundRect,0.200000X0.275000X-0.200000X0.275000X0.200000X-0.275000X0.200000X-0.275000X-0.200000X0*%
G04 APERTURE END LIST*
D10*
X185975000Y-111875000D03*
X185975000Y-110325000D03*
D11*
X156216637Y-111566637D03*
X157383363Y-112733363D03*
D12*
X172825000Y-109550000D03*
X171275000Y-109550000D03*
D10*
X180075000Y-111725000D03*
X180075000Y-110175000D03*
D13*
X162058363Y-120233363D03*
X160891637Y-119066637D03*
D12*
X175825000Y-109575000D03*
X174275000Y-109575000D03*
D14*
X161900000Y-112100000D03*
X161900000Y-112600000D03*
X161900000Y-113100000D03*
X161900000Y-113600000D03*
D15*
X162412500Y-113612500D03*
X162912500Y-113612500D03*
D14*
X163425000Y-113600000D03*
X163425000Y-113100000D03*
X163425000Y-112600000D03*
X163425000Y-112100000D03*
D15*
X162912500Y-112087500D03*
X162412500Y-112087500D03*
D16*
X179275000Y-100725000D03*
X179275000Y-102375000D03*
D17*
X181925000Y-112994200D03*
X183025000Y-112994201D03*
X184125000Y-112994200D03*
D18*
X184244201Y-111775000D03*
D17*
X184125000Y-110555800D03*
X183025000Y-110555799D03*
X181925000Y-110555800D03*
D18*
X181805799Y-111775000D03*
D19*
X183025000Y-111775000D03*
D10*
X160275000Y-115025000D03*
X160275000Y-113475000D03*
D20*
X195625000Y-129650000D03*
D21*
X171962500Y-106400000D03*
X171962500Y-106900000D03*
X171962500Y-107400000D03*
X171962500Y-107900000D03*
D22*
X172625000Y-108062500D03*
X173125000Y-108062500D03*
X173625000Y-108062500D03*
D21*
X174287500Y-107900000D03*
X174287500Y-107400000D03*
X174287500Y-106900000D03*
X174287500Y-106400000D03*
D22*
X173625000Y-106237500D03*
X173125000Y-106237500D03*
X172625000Y-106237500D03*
D20*
X150625000Y-129650000D03*
D23*
X164850000Y-112150000D03*
X164850000Y-113700000D03*
D24*
X153100000Y-87225000D03*
X193125000Y-127150000D03*
X153125000Y-127150000D03*
X193125000Y-87150000D03*
D25*
X180375000Y-107575000D03*
X180375000Y-105925000D03*
D23*
X160250000Y-110475000D03*
X160250000Y-112025000D03*
D20*
X150625000Y-84650000D03*
X195625000Y-84650000D03*
D23*
X162975000Y-115975000D03*
X162975000Y-117525000D03*
M02*
