%TF.GenerationSoftware,KiCad,Pcbnew,8.0.1*%
%TF.CreationDate,2025-02-17T15:23:19+05:00*%
%TF.ProjectId,Sensors,53656e73-6f72-4732-9e6b-696361645f70,rev?*%
%TF.SameCoordinates,Original*%
%TF.FileFunction,Drillmap*%
%TF.FilePolarity,Positive*%
%FSLAX45Y45*%
G04 Gerber Fmt 4.5, Leading zero omitted, Abs format (unit mm)*
G04 Created by KiCad (PCBNEW 8.0.1) date 2025-02-17 15:23:19*
%MOMM*%
%LPD*%
G01*
G04 APERTURE LIST*
%ADD10C,0.050000*%
%ADD11C,0.200000*%
%ADD12C,0.220000*%
G04 APERTURE END LIST*
D10*
X15310000Y-13222500D02*
G75*
G02*
X14810000Y-12722500I0J500000D01*
G01*
X19810000Y-8722500D02*
X19810000Y-12722500D01*
X14810000Y-8722500D02*
G75*
G02*
X15310000Y-8222500I500000J0D01*
G01*
X14810000Y-12722500D02*
X14810000Y-8722500D01*
X19810000Y-12722500D02*
G75*
G02*
X19310000Y-13222500I-500000J0D01*
G01*
X15310000Y-8222500D02*
X19310000Y-8222500D01*
X19310000Y-13222500D02*
X15310000Y-13222500D01*
X19310000Y-8222500D02*
G75*
G02*
X19810000Y-8722500I0J-500000D01*
G01*
D11*
D12*
X15200000Y-8612500D02*
X15420000Y-8832500D01*
X15420000Y-8612500D02*
X15200000Y-8832500D01*
X15202500Y-12605000D02*
X15422500Y-12825000D01*
X15422500Y-12605000D02*
X15202500Y-12825000D01*
X19202500Y-8605000D02*
X19422500Y-8825000D01*
X19422500Y-8605000D02*
X19202500Y-8825000D01*
X19202500Y-12605000D02*
X19422500Y-12825000D01*
X19422500Y-12605000D02*
X19202500Y-12825000D01*
D11*
X15068277Y-13536484D02*
X15068277Y-13336484D01*
X15068277Y-13336484D02*
X15115896Y-13336484D01*
X15115896Y-13336484D02*
X15144467Y-13346008D01*
X15144467Y-13346008D02*
X15163515Y-13365055D01*
X15163515Y-13365055D02*
X15173039Y-13384103D01*
X15173039Y-13384103D02*
X15182562Y-13422198D01*
X15182562Y-13422198D02*
X15182562Y-13450769D01*
X15182562Y-13450769D02*
X15173039Y-13488865D01*
X15173039Y-13488865D02*
X15163515Y-13507912D01*
X15163515Y-13507912D02*
X15144467Y-13526960D01*
X15144467Y-13526960D02*
X15115896Y-13536484D01*
X15115896Y-13536484D02*
X15068277Y-13536484D01*
X15268277Y-13536484D02*
X15268277Y-13403150D01*
X15268277Y-13441246D02*
X15277801Y-13422198D01*
X15277801Y-13422198D02*
X15287324Y-13412674D01*
X15287324Y-13412674D02*
X15306372Y-13403150D01*
X15306372Y-13403150D02*
X15325420Y-13403150D01*
X15392086Y-13536484D02*
X15392086Y-13403150D01*
X15392086Y-13336484D02*
X15382562Y-13346008D01*
X15382562Y-13346008D02*
X15392086Y-13355531D01*
X15392086Y-13355531D02*
X15401610Y-13346008D01*
X15401610Y-13346008D02*
X15392086Y-13336484D01*
X15392086Y-13336484D02*
X15392086Y-13355531D01*
X15515896Y-13536484D02*
X15496848Y-13526960D01*
X15496848Y-13526960D02*
X15487324Y-13507912D01*
X15487324Y-13507912D02*
X15487324Y-13336484D01*
X15620658Y-13536484D02*
X15601610Y-13526960D01*
X15601610Y-13526960D02*
X15592086Y-13507912D01*
X15592086Y-13507912D02*
X15592086Y-13336484D01*
X15849229Y-13536484D02*
X15849229Y-13336484D01*
X15849229Y-13336484D02*
X15915896Y-13479341D01*
X15915896Y-13479341D02*
X15982562Y-13336484D01*
X15982562Y-13336484D02*
X15982562Y-13536484D01*
X16163515Y-13536484D02*
X16163515Y-13431722D01*
X16163515Y-13431722D02*
X16153991Y-13412674D01*
X16153991Y-13412674D02*
X16134943Y-13403150D01*
X16134943Y-13403150D02*
X16096848Y-13403150D01*
X16096848Y-13403150D02*
X16077801Y-13412674D01*
X16163515Y-13526960D02*
X16144467Y-13536484D01*
X16144467Y-13536484D02*
X16096848Y-13536484D01*
X16096848Y-13536484D02*
X16077801Y-13526960D01*
X16077801Y-13526960D02*
X16068277Y-13507912D01*
X16068277Y-13507912D02*
X16068277Y-13488865D01*
X16068277Y-13488865D02*
X16077801Y-13469817D01*
X16077801Y-13469817D02*
X16096848Y-13460293D01*
X16096848Y-13460293D02*
X16144467Y-13460293D01*
X16144467Y-13460293D02*
X16163515Y-13450769D01*
X16258753Y-13403150D02*
X16258753Y-13603150D01*
X16258753Y-13412674D02*
X16277801Y-13403150D01*
X16277801Y-13403150D02*
X16315896Y-13403150D01*
X16315896Y-13403150D02*
X16334943Y-13412674D01*
X16334943Y-13412674D02*
X16344467Y-13422198D01*
X16344467Y-13422198D02*
X16353991Y-13441246D01*
X16353991Y-13441246D02*
X16353991Y-13498388D01*
X16353991Y-13498388D02*
X16344467Y-13517436D01*
X16344467Y-13517436D02*
X16334943Y-13526960D01*
X16334943Y-13526960D02*
X16315896Y-13536484D01*
X16315896Y-13536484D02*
X16277801Y-13536484D01*
X16277801Y-13536484D02*
X16258753Y-13526960D01*
X16439705Y-13517436D02*
X16449229Y-13526960D01*
X16449229Y-13526960D02*
X16439705Y-13536484D01*
X16439705Y-13536484D02*
X16430182Y-13526960D01*
X16430182Y-13526960D02*
X16439705Y-13517436D01*
X16439705Y-13517436D02*
X16439705Y-13536484D01*
X16439705Y-13412674D02*
X16449229Y-13422198D01*
X16449229Y-13422198D02*
X16439705Y-13431722D01*
X16439705Y-13431722D02*
X16430182Y-13422198D01*
X16430182Y-13422198D02*
X16439705Y-13412674D01*
X16439705Y-13412674D02*
X16439705Y-13431722D01*
X14607500Y-13765000D02*
X14807500Y-13965000D01*
X14807500Y-13765000D02*
X14607500Y-13965000D01*
X15058753Y-13775531D02*
X15068277Y-13766008D01*
X15068277Y-13766008D02*
X15087324Y-13756484D01*
X15087324Y-13756484D02*
X15134943Y-13756484D01*
X15134943Y-13756484D02*
X15153991Y-13766008D01*
X15153991Y-13766008D02*
X15163515Y-13775531D01*
X15163515Y-13775531D02*
X15173039Y-13794579D01*
X15173039Y-13794579D02*
X15173039Y-13813627D01*
X15173039Y-13813627D02*
X15163515Y-13842198D01*
X15163515Y-13842198D02*
X15049229Y-13956484D01*
X15049229Y-13956484D02*
X15173039Y-13956484D01*
X15258753Y-13937436D02*
X15268277Y-13946960D01*
X15268277Y-13946960D02*
X15258753Y-13956484D01*
X15258753Y-13956484D02*
X15249229Y-13946960D01*
X15249229Y-13946960D02*
X15258753Y-13937436D01*
X15258753Y-13937436D02*
X15258753Y-13956484D01*
X15344467Y-13775531D02*
X15353991Y-13766008D01*
X15353991Y-13766008D02*
X15373039Y-13756484D01*
X15373039Y-13756484D02*
X15420658Y-13756484D01*
X15420658Y-13756484D02*
X15439705Y-13766008D01*
X15439705Y-13766008D02*
X15449229Y-13775531D01*
X15449229Y-13775531D02*
X15458753Y-13794579D01*
X15458753Y-13794579D02*
X15458753Y-13813627D01*
X15458753Y-13813627D02*
X15449229Y-13842198D01*
X15449229Y-13842198D02*
X15334943Y-13956484D01*
X15334943Y-13956484D02*
X15458753Y-13956484D01*
X15582562Y-13756484D02*
X15601610Y-13756484D01*
X15601610Y-13756484D02*
X15620658Y-13766008D01*
X15620658Y-13766008D02*
X15630182Y-13775531D01*
X15630182Y-13775531D02*
X15639705Y-13794579D01*
X15639705Y-13794579D02*
X15649229Y-13832674D01*
X15649229Y-13832674D02*
X15649229Y-13880293D01*
X15649229Y-13880293D02*
X15639705Y-13918388D01*
X15639705Y-13918388D02*
X15630182Y-13937436D01*
X15630182Y-13937436D02*
X15620658Y-13946960D01*
X15620658Y-13946960D02*
X15601610Y-13956484D01*
X15601610Y-13956484D02*
X15582562Y-13956484D01*
X15582562Y-13956484D02*
X15563515Y-13946960D01*
X15563515Y-13946960D02*
X15553991Y-13937436D01*
X15553991Y-13937436D02*
X15544467Y-13918388D01*
X15544467Y-13918388D02*
X15534943Y-13880293D01*
X15534943Y-13880293D02*
X15534943Y-13832674D01*
X15534943Y-13832674D02*
X15544467Y-13794579D01*
X15544467Y-13794579D02*
X15553991Y-13775531D01*
X15553991Y-13775531D02*
X15563515Y-13766008D01*
X15563515Y-13766008D02*
X15582562Y-13756484D01*
X15773039Y-13756484D02*
X15792086Y-13756484D01*
X15792086Y-13756484D02*
X15811134Y-13766008D01*
X15811134Y-13766008D02*
X15820658Y-13775531D01*
X15820658Y-13775531D02*
X15830182Y-13794579D01*
X15830182Y-13794579D02*
X15839705Y-13832674D01*
X15839705Y-13832674D02*
X15839705Y-13880293D01*
X15839705Y-13880293D02*
X15830182Y-13918388D01*
X15830182Y-13918388D02*
X15820658Y-13937436D01*
X15820658Y-13937436D02*
X15811134Y-13946960D01*
X15811134Y-13946960D02*
X15792086Y-13956484D01*
X15792086Y-13956484D02*
X15773039Y-13956484D01*
X15773039Y-13956484D02*
X15753991Y-13946960D01*
X15753991Y-13946960D02*
X15744467Y-13937436D01*
X15744467Y-13937436D02*
X15734943Y-13918388D01*
X15734943Y-13918388D02*
X15725420Y-13880293D01*
X15725420Y-13880293D02*
X15725420Y-13832674D01*
X15725420Y-13832674D02*
X15734943Y-13794579D01*
X15734943Y-13794579D02*
X15744467Y-13775531D01*
X15744467Y-13775531D02*
X15753991Y-13766008D01*
X15753991Y-13766008D02*
X15773039Y-13756484D01*
X15925420Y-13956484D02*
X15925420Y-13823150D01*
X15925420Y-13842198D02*
X15934943Y-13832674D01*
X15934943Y-13832674D02*
X15953991Y-13823150D01*
X15953991Y-13823150D02*
X15982563Y-13823150D01*
X15982563Y-13823150D02*
X16001610Y-13832674D01*
X16001610Y-13832674D02*
X16011134Y-13851722D01*
X16011134Y-13851722D02*
X16011134Y-13956484D01*
X16011134Y-13851722D02*
X16020658Y-13832674D01*
X16020658Y-13832674D02*
X16039705Y-13823150D01*
X16039705Y-13823150D02*
X16068277Y-13823150D01*
X16068277Y-13823150D02*
X16087324Y-13832674D01*
X16087324Y-13832674D02*
X16096848Y-13851722D01*
X16096848Y-13851722D02*
X16096848Y-13956484D01*
X16192086Y-13956484D02*
X16192086Y-13823150D01*
X16192086Y-13842198D02*
X16201610Y-13832674D01*
X16201610Y-13832674D02*
X16220658Y-13823150D01*
X16220658Y-13823150D02*
X16249229Y-13823150D01*
X16249229Y-13823150D02*
X16268277Y-13832674D01*
X16268277Y-13832674D02*
X16277801Y-13851722D01*
X16277801Y-13851722D02*
X16277801Y-13956484D01*
X16277801Y-13851722D02*
X16287324Y-13832674D01*
X16287324Y-13832674D02*
X16306372Y-13823150D01*
X16306372Y-13823150D02*
X16334943Y-13823150D01*
X16334943Y-13823150D02*
X16353991Y-13832674D01*
X16353991Y-13832674D02*
X16363515Y-13851722D01*
X16363515Y-13851722D02*
X16363515Y-13956484D01*
X16753991Y-13746960D02*
X16582563Y-14004103D01*
X17011134Y-13756484D02*
X17030182Y-13756484D01*
X17030182Y-13756484D02*
X17049229Y-13766008D01*
X17049229Y-13766008D02*
X17058753Y-13775531D01*
X17058753Y-13775531D02*
X17068277Y-13794579D01*
X17068277Y-13794579D02*
X17077801Y-13832674D01*
X17077801Y-13832674D02*
X17077801Y-13880293D01*
X17077801Y-13880293D02*
X17068277Y-13918388D01*
X17068277Y-13918388D02*
X17058753Y-13937436D01*
X17058753Y-13937436D02*
X17049229Y-13946960D01*
X17049229Y-13946960D02*
X17030182Y-13956484D01*
X17030182Y-13956484D02*
X17011134Y-13956484D01*
X17011134Y-13956484D02*
X16992087Y-13946960D01*
X16992087Y-13946960D02*
X16982563Y-13937436D01*
X16982563Y-13937436D02*
X16973039Y-13918388D01*
X16973039Y-13918388D02*
X16963515Y-13880293D01*
X16963515Y-13880293D02*
X16963515Y-13832674D01*
X16963515Y-13832674D02*
X16973039Y-13794579D01*
X16973039Y-13794579D02*
X16982563Y-13775531D01*
X16982563Y-13775531D02*
X16992087Y-13766008D01*
X16992087Y-13766008D02*
X17011134Y-13756484D01*
X17163515Y-13937436D02*
X17173039Y-13946960D01*
X17173039Y-13946960D02*
X17163515Y-13956484D01*
X17163515Y-13956484D02*
X17153991Y-13946960D01*
X17153991Y-13946960D02*
X17163515Y-13937436D01*
X17163515Y-13937436D02*
X17163515Y-13956484D01*
X17296848Y-13756484D02*
X17315896Y-13756484D01*
X17315896Y-13756484D02*
X17334944Y-13766008D01*
X17334944Y-13766008D02*
X17344468Y-13775531D01*
X17344468Y-13775531D02*
X17353991Y-13794579D01*
X17353991Y-13794579D02*
X17363515Y-13832674D01*
X17363515Y-13832674D02*
X17363515Y-13880293D01*
X17363515Y-13880293D02*
X17353991Y-13918388D01*
X17353991Y-13918388D02*
X17344468Y-13937436D01*
X17344468Y-13937436D02*
X17334944Y-13946960D01*
X17334944Y-13946960D02*
X17315896Y-13956484D01*
X17315896Y-13956484D02*
X17296848Y-13956484D01*
X17296848Y-13956484D02*
X17277801Y-13946960D01*
X17277801Y-13946960D02*
X17268277Y-13937436D01*
X17268277Y-13937436D02*
X17258753Y-13918388D01*
X17258753Y-13918388D02*
X17249229Y-13880293D01*
X17249229Y-13880293D02*
X17249229Y-13832674D01*
X17249229Y-13832674D02*
X17258753Y-13794579D01*
X17258753Y-13794579D02*
X17268277Y-13775531D01*
X17268277Y-13775531D02*
X17277801Y-13766008D01*
X17277801Y-13766008D02*
X17296848Y-13756484D01*
X17477801Y-13842198D02*
X17458753Y-13832674D01*
X17458753Y-13832674D02*
X17449229Y-13823150D01*
X17449229Y-13823150D02*
X17439706Y-13804103D01*
X17439706Y-13804103D02*
X17439706Y-13794579D01*
X17439706Y-13794579D02*
X17449229Y-13775531D01*
X17449229Y-13775531D02*
X17458753Y-13766008D01*
X17458753Y-13766008D02*
X17477801Y-13756484D01*
X17477801Y-13756484D02*
X17515896Y-13756484D01*
X17515896Y-13756484D02*
X17534944Y-13766008D01*
X17534944Y-13766008D02*
X17544468Y-13775531D01*
X17544468Y-13775531D02*
X17553991Y-13794579D01*
X17553991Y-13794579D02*
X17553991Y-13804103D01*
X17553991Y-13804103D02*
X17544468Y-13823150D01*
X17544468Y-13823150D02*
X17534944Y-13832674D01*
X17534944Y-13832674D02*
X17515896Y-13842198D01*
X17515896Y-13842198D02*
X17477801Y-13842198D01*
X17477801Y-13842198D02*
X17458753Y-13851722D01*
X17458753Y-13851722D02*
X17449229Y-13861246D01*
X17449229Y-13861246D02*
X17439706Y-13880293D01*
X17439706Y-13880293D02*
X17439706Y-13918388D01*
X17439706Y-13918388D02*
X17449229Y-13937436D01*
X17449229Y-13937436D02*
X17458753Y-13946960D01*
X17458753Y-13946960D02*
X17477801Y-13956484D01*
X17477801Y-13956484D02*
X17515896Y-13956484D01*
X17515896Y-13956484D02*
X17534944Y-13946960D01*
X17534944Y-13946960D02*
X17544468Y-13937436D01*
X17544468Y-13937436D02*
X17553991Y-13918388D01*
X17553991Y-13918388D02*
X17553991Y-13880293D01*
X17553991Y-13880293D02*
X17544468Y-13861246D01*
X17544468Y-13861246D02*
X17534944Y-13851722D01*
X17534944Y-13851722D02*
X17515896Y-13842198D01*
X17725420Y-13756484D02*
X17687325Y-13756484D01*
X17687325Y-13756484D02*
X17668277Y-13766008D01*
X17668277Y-13766008D02*
X17658753Y-13775531D01*
X17658753Y-13775531D02*
X17639706Y-13804103D01*
X17639706Y-13804103D02*
X17630182Y-13842198D01*
X17630182Y-13842198D02*
X17630182Y-13918388D01*
X17630182Y-13918388D02*
X17639706Y-13937436D01*
X17639706Y-13937436D02*
X17649229Y-13946960D01*
X17649229Y-13946960D02*
X17668277Y-13956484D01*
X17668277Y-13956484D02*
X17706372Y-13956484D01*
X17706372Y-13956484D02*
X17725420Y-13946960D01*
X17725420Y-13946960D02*
X17734944Y-13937436D01*
X17734944Y-13937436D02*
X17744468Y-13918388D01*
X17744468Y-13918388D02*
X17744468Y-13870769D01*
X17744468Y-13870769D02*
X17734944Y-13851722D01*
X17734944Y-13851722D02*
X17725420Y-13842198D01*
X17725420Y-13842198D02*
X17706372Y-13832674D01*
X17706372Y-13832674D02*
X17668277Y-13832674D01*
X17668277Y-13832674D02*
X17649229Y-13842198D01*
X17649229Y-13842198D02*
X17639706Y-13851722D01*
X17639706Y-13851722D02*
X17630182Y-13870769D01*
X17915896Y-13756484D02*
X17877801Y-13756484D01*
X17877801Y-13756484D02*
X17858753Y-13766008D01*
X17858753Y-13766008D02*
X17849229Y-13775531D01*
X17849229Y-13775531D02*
X17830182Y-13804103D01*
X17830182Y-13804103D02*
X17820658Y-13842198D01*
X17820658Y-13842198D02*
X17820658Y-13918388D01*
X17820658Y-13918388D02*
X17830182Y-13937436D01*
X17830182Y-13937436D02*
X17839706Y-13946960D01*
X17839706Y-13946960D02*
X17858753Y-13956484D01*
X17858753Y-13956484D02*
X17896849Y-13956484D01*
X17896849Y-13956484D02*
X17915896Y-13946960D01*
X17915896Y-13946960D02*
X17925420Y-13937436D01*
X17925420Y-13937436D02*
X17934944Y-13918388D01*
X17934944Y-13918388D02*
X17934944Y-13870769D01*
X17934944Y-13870769D02*
X17925420Y-13851722D01*
X17925420Y-13851722D02*
X17915896Y-13842198D01*
X17915896Y-13842198D02*
X17896849Y-13832674D01*
X17896849Y-13832674D02*
X17858753Y-13832674D01*
X17858753Y-13832674D02*
X17839706Y-13842198D01*
X17839706Y-13842198D02*
X17830182Y-13851722D01*
X17830182Y-13851722D02*
X17820658Y-13870769D01*
X18011134Y-13756484D02*
X18011134Y-13794579D01*
X18087325Y-13756484D02*
X18087325Y-13794579D01*
X18382563Y-14032674D02*
X18373039Y-14023150D01*
X18373039Y-14023150D02*
X18353991Y-13994579D01*
X18353991Y-13994579D02*
X18344468Y-13975531D01*
X18344468Y-13975531D02*
X18334944Y-13946960D01*
X18334944Y-13946960D02*
X18325420Y-13899341D01*
X18325420Y-13899341D02*
X18325420Y-13861246D01*
X18325420Y-13861246D02*
X18334944Y-13813627D01*
X18334944Y-13813627D02*
X18344468Y-13785055D01*
X18344468Y-13785055D02*
X18353991Y-13766008D01*
X18353991Y-13766008D02*
X18373039Y-13737436D01*
X18373039Y-13737436D02*
X18382563Y-13727912D01*
X18544468Y-13823150D02*
X18544468Y-13956484D01*
X18496849Y-13746960D02*
X18449230Y-13889817D01*
X18449230Y-13889817D02*
X18573039Y-13889817D01*
X18801611Y-13956484D02*
X18801611Y-13756484D01*
X18887325Y-13956484D02*
X18887325Y-13851722D01*
X18887325Y-13851722D02*
X18877801Y-13832674D01*
X18877801Y-13832674D02*
X18858753Y-13823150D01*
X18858753Y-13823150D02*
X18830182Y-13823150D01*
X18830182Y-13823150D02*
X18811134Y-13832674D01*
X18811134Y-13832674D02*
X18801611Y-13842198D01*
X19011134Y-13956484D02*
X18992087Y-13946960D01*
X18992087Y-13946960D02*
X18982563Y-13937436D01*
X18982563Y-13937436D02*
X18973039Y-13918388D01*
X18973039Y-13918388D02*
X18973039Y-13861246D01*
X18973039Y-13861246D02*
X18982563Y-13842198D01*
X18982563Y-13842198D02*
X18992087Y-13832674D01*
X18992087Y-13832674D02*
X19011134Y-13823150D01*
X19011134Y-13823150D02*
X19039706Y-13823150D01*
X19039706Y-13823150D02*
X19058753Y-13832674D01*
X19058753Y-13832674D02*
X19068277Y-13842198D01*
X19068277Y-13842198D02*
X19077801Y-13861246D01*
X19077801Y-13861246D02*
X19077801Y-13918388D01*
X19077801Y-13918388D02*
X19068277Y-13937436D01*
X19068277Y-13937436D02*
X19058753Y-13946960D01*
X19058753Y-13946960D02*
X19039706Y-13956484D01*
X19039706Y-13956484D02*
X19011134Y-13956484D01*
X19192087Y-13956484D02*
X19173039Y-13946960D01*
X19173039Y-13946960D02*
X19163515Y-13927912D01*
X19163515Y-13927912D02*
X19163515Y-13756484D01*
X19344468Y-13946960D02*
X19325420Y-13956484D01*
X19325420Y-13956484D02*
X19287325Y-13956484D01*
X19287325Y-13956484D02*
X19268277Y-13946960D01*
X19268277Y-13946960D02*
X19258753Y-13927912D01*
X19258753Y-13927912D02*
X19258753Y-13851722D01*
X19258753Y-13851722D02*
X19268277Y-13832674D01*
X19268277Y-13832674D02*
X19287325Y-13823150D01*
X19287325Y-13823150D02*
X19325420Y-13823150D01*
X19325420Y-13823150D02*
X19344468Y-13832674D01*
X19344468Y-13832674D02*
X19353992Y-13851722D01*
X19353992Y-13851722D02*
X19353992Y-13870769D01*
X19353992Y-13870769D02*
X19258753Y-13889817D01*
X19430182Y-13946960D02*
X19449230Y-13956484D01*
X19449230Y-13956484D02*
X19487325Y-13956484D01*
X19487325Y-13956484D02*
X19506373Y-13946960D01*
X19506373Y-13946960D02*
X19515896Y-13927912D01*
X19515896Y-13927912D02*
X19515896Y-13918388D01*
X19515896Y-13918388D02*
X19506373Y-13899341D01*
X19506373Y-13899341D02*
X19487325Y-13889817D01*
X19487325Y-13889817D02*
X19458753Y-13889817D01*
X19458753Y-13889817D02*
X19439706Y-13880293D01*
X19439706Y-13880293D02*
X19430182Y-13861246D01*
X19430182Y-13861246D02*
X19430182Y-13851722D01*
X19430182Y-13851722D02*
X19439706Y-13832674D01*
X19439706Y-13832674D02*
X19458753Y-13823150D01*
X19458753Y-13823150D02*
X19487325Y-13823150D01*
X19487325Y-13823150D02*
X19506373Y-13832674D01*
X19582563Y-14032674D02*
X19592087Y-14023150D01*
X19592087Y-14023150D02*
X19611134Y-13994579D01*
X19611134Y-13994579D02*
X19620658Y-13975531D01*
X19620658Y-13975531D02*
X19630182Y-13946960D01*
X19630182Y-13946960D02*
X19639706Y-13899341D01*
X19639706Y-13899341D02*
X19639706Y-13861246D01*
X19639706Y-13861246D02*
X19630182Y-13813627D01*
X19630182Y-13813627D02*
X19620658Y-13785055D01*
X19620658Y-13785055D02*
X19611134Y-13766008D01*
X19611134Y-13766008D02*
X19592087Y-13737436D01*
X19592087Y-13737436D02*
X19582563Y-13727912D01*
X19944468Y-14032674D02*
X19934944Y-14023150D01*
X19934944Y-14023150D02*
X19915896Y-13994579D01*
X19915896Y-13994579D02*
X19906373Y-13975531D01*
X19906373Y-13975531D02*
X19896849Y-13946960D01*
X19896849Y-13946960D02*
X19887325Y-13899341D01*
X19887325Y-13899341D02*
X19887325Y-13861246D01*
X19887325Y-13861246D02*
X19896849Y-13813627D01*
X19896849Y-13813627D02*
X19906373Y-13785055D01*
X19906373Y-13785055D02*
X19915896Y-13766008D01*
X19915896Y-13766008D02*
X19934944Y-13737436D01*
X19934944Y-13737436D02*
X19944468Y-13727912D01*
X20020658Y-13823150D02*
X20020658Y-13956484D01*
X20020658Y-13842198D02*
X20030182Y-13832674D01*
X20030182Y-13832674D02*
X20049230Y-13823150D01*
X20049230Y-13823150D02*
X20077801Y-13823150D01*
X20077801Y-13823150D02*
X20096849Y-13832674D01*
X20096849Y-13832674D02*
X20106373Y-13851722D01*
X20106373Y-13851722D02*
X20106373Y-13956484D01*
X20230182Y-13956484D02*
X20211134Y-13946960D01*
X20211134Y-13946960D02*
X20201611Y-13937436D01*
X20201611Y-13937436D02*
X20192087Y-13918388D01*
X20192087Y-13918388D02*
X20192087Y-13861246D01*
X20192087Y-13861246D02*
X20201611Y-13842198D01*
X20201611Y-13842198D02*
X20211134Y-13832674D01*
X20211134Y-13832674D02*
X20230182Y-13823150D01*
X20230182Y-13823150D02*
X20258754Y-13823150D01*
X20258754Y-13823150D02*
X20277801Y-13832674D01*
X20277801Y-13832674D02*
X20287325Y-13842198D01*
X20287325Y-13842198D02*
X20296849Y-13861246D01*
X20296849Y-13861246D02*
X20296849Y-13918388D01*
X20296849Y-13918388D02*
X20287325Y-13937436D01*
X20287325Y-13937436D02*
X20277801Y-13946960D01*
X20277801Y-13946960D02*
X20258754Y-13956484D01*
X20258754Y-13956484D02*
X20230182Y-13956484D01*
X20353992Y-13823150D02*
X20430182Y-13823150D01*
X20382563Y-13756484D02*
X20382563Y-13927912D01*
X20382563Y-13927912D02*
X20392087Y-13946960D01*
X20392087Y-13946960D02*
X20411134Y-13956484D01*
X20411134Y-13956484D02*
X20430182Y-13956484D01*
X20649230Y-13823150D02*
X20649230Y-14023150D01*
X20649230Y-13832674D02*
X20668277Y-13823150D01*
X20668277Y-13823150D02*
X20706373Y-13823150D01*
X20706373Y-13823150D02*
X20725420Y-13832674D01*
X20725420Y-13832674D02*
X20734944Y-13842198D01*
X20734944Y-13842198D02*
X20744468Y-13861246D01*
X20744468Y-13861246D02*
X20744468Y-13918388D01*
X20744468Y-13918388D02*
X20734944Y-13937436D01*
X20734944Y-13937436D02*
X20725420Y-13946960D01*
X20725420Y-13946960D02*
X20706373Y-13956484D01*
X20706373Y-13956484D02*
X20668277Y-13956484D01*
X20668277Y-13956484D02*
X20649230Y-13946960D01*
X20858754Y-13956484D02*
X20839706Y-13946960D01*
X20839706Y-13946960D02*
X20830182Y-13927912D01*
X20830182Y-13927912D02*
X20830182Y-13756484D01*
X21020658Y-13956484D02*
X21020658Y-13851722D01*
X21020658Y-13851722D02*
X21011135Y-13832674D01*
X21011135Y-13832674D02*
X20992087Y-13823150D01*
X20992087Y-13823150D02*
X20953992Y-13823150D01*
X20953992Y-13823150D02*
X20934944Y-13832674D01*
X21020658Y-13946960D02*
X21001611Y-13956484D01*
X21001611Y-13956484D02*
X20953992Y-13956484D01*
X20953992Y-13956484D02*
X20934944Y-13946960D01*
X20934944Y-13946960D02*
X20925420Y-13927912D01*
X20925420Y-13927912D02*
X20925420Y-13908865D01*
X20925420Y-13908865D02*
X20934944Y-13889817D01*
X20934944Y-13889817D02*
X20953992Y-13880293D01*
X20953992Y-13880293D02*
X21001611Y-13880293D01*
X21001611Y-13880293D02*
X21020658Y-13870769D01*
X21087325Y-13823150D02*
X21163515Y-13823150D01*
X21115896Y-13756484D02*
X21115896Y-13927912D01*
X21115896Y-13927912D02*
X21125420Y-13946960D01*
X21125420Y-13946960D02*
X21144468Y-13956484D01*
X21144468Y-13956484D02*
X21163515Y-13956484D01*
X21306373Y-13946960D02*
X21287325Y-13956484D01*
X21287325Y-13956484D02*
X21249230Y-13956484D01*
X21249230Y-13956484D02*
X21230182Y-13946960D01*
X21230182Y-13946960D02*
X21220658Y-13927912D01*
X21220658Y-13927912D02*
X21220658Y-13851722D01*
X21220658Y-13851722D02*
X21230182Y-13832674D01*
X21230182Y-13832674D02*
X21249230Y-13823150D01*
X21249230Y-13823150D02*
X21287325Y-13823150D01*
X21287325Y-13823150D02*
X21306373Y-13832674D01*
X21306373Y-13832674D02*
X21315896Y-13851722D01*
X21315896Y-13851722D02*
X21315896Y-13870769D01*
X21315896Y-13870769D02*
X21220658Y-13889817D01*
X21487325Y-13956484D02*
X21487325Y-13756484D01*
X21487325Y-13946960D02*
X21468277Y-13956484D01*
X21468277Y-13956484D02*
X21430182Y-13956484D01*
X21430182Y-13956484D02*
X21411135Y-13946960D01*
X21411135Y-13946960D02*
X21401611Y-13937436D01*
X21401611Y-13937436D02*
X21392087Y-13918388D01*
X21392087Y-13918388D02*
X21392087Y-13861246D01*
X21392087Y-13861246D02*
X21401611Y-13842198D01*
X21401611Y-13842198D02*
X21411135Y-13832674D01*
X21411135Y-13832674D02*
X21430182Y-13823150D01*
X21430182Y-13823150D02*
X21468277Y-13823150D01*
X21468277Y-13823150D02*
X21487325Y-13832674D01*
X21563516Y-14032674D02*
X21573039Y-14023150D01*
X21573039Y-14023150D02*
X21592087Y-13994579D01*
X21592087Y-13994579D02*
X21601611Y-13975531D01*
X21601611Y-13975531D02*
X21611135Y-13946960D01*
X21611135Y-13946960D02*
X21620658Y-13899341D01*
X21620658Y-13899341D02*
X21620658Y-13861246D01*
X21620658Y-13861246D02*
X21611135Y-13813627D01*
X21611135Y-13813627D02*
X21601611Y-13785055D01*
X21601611Y-13785055D02*
X21592087Y-13766008D01*
X21592087Y-13766008D02*
X21573039Y-13737436D01*
X21573039Y-13737436D02*
X21563516Y-13727912D01*
M02*
