G04 #@! TF.GenerationSoftware,KiCad,Pcbnew,8.0.1*
G04 #@! TF.CreationDate,2025-02-17T15:23:15+05:00*
G04 #@! TF.ProjectId,Sensors,53656e73-6f72-4732-9e6b-696361645f70,rev?*
G04 #@! TF.SameCoordinates,Original*
G04 #@! TF.FileFunction,Copper,L2,Bot*
G04 #@! TF.FilePolarity,Positive*
%FSLAX46Y46*%
G04 Gerber Fmt 4.6, Leading zero omitted, Abs format (unit mm)*
G04 Created by KiCad (PCBNEW 8.0.1) date 2025-02-17 15:23:15*
%MOMM*%
%LPD*%
G01*
G04 APERTURE LIST*
G04 #@! TA.AperFunction,SMDPad,CuDef*
%ADD10R,1.000000X3.000000*%
G04 #@! TD*
G04 #@! TA.AperFunction,ViaPad*
%ADD11C,0.600000*%
G04 #@! TD*
G04 #@! TA.AperFunction,Conductor*
%ADD12C,0.500000*%
G04 #@! TD*
G04 #@! TA.AperFunction,Conductor*
%ADD13C,0.300000*%
G04 #@! TD*
G04 APERTURE END LIST*
D10*
X192530000Y-117604999D03*
X192530000Y-122645001D03*
X189990000Y-117605000D03*
X189990000Y-122645000D03*
X187450000Y-117605000D03*
X187450000Y-122645000D03*
X184910000Y-117605000D03*
X184910000Y-122645000D03*
X182370000Y-117604999D03*
X182370000Y-122645001D03*
X156305002Y-117605000D03*
X156305002Y-122645000D03*
X153765000Y-117605000D03*
X153765000Y-122645000D03*
X182315000Y-96670000D03*
X182315000Y-91630000D03*
X184854999Y-96670000D03*
X184854999Y-91630000D03*
X187395001Y-96670000D03*
X187395001Y-91630000D03*
X189935000Y-96670000D03*
X189935000Y-91630000D03*
D11*
X196970000Y-126800000D03*
X196970000Y-124260000D03*
X196970000Y-121720000D03*
X196970000Y-119180000D03*
X196970000Y-116640000D03*
X196970000Y-114100000D03*
X196970000Y-111560000D03*
X196970000Y-109020000D03*
X196970000Y-106480000D03*
X196970000Y-103940000D03*
X196970000Y-101400000D03*
X196970000Y-98860000D03*
X196970000Y-96320000D03*
X196970000Y-93780000D03*
X196970000Y-91240000D03*
X196970000Y-88700000D03*
X196970000Y-86160000D03*
X194430000Y-129340000D03*
X194430000Y-124260000D03*
X194430000Y-121720000D03*
X194430000Y-119180000D03*
X194430000Y-116640000D03*
X194430000Y-114100000D03*
X194430000Y-111560000D03*
X194430000Y-109020000D03*
X194430000Y-106480000D03*
X194430000Y-103940000D03*
X194430000Y-101400000D03*
X194430000Y-98860000D03*
X194430000Y-96320000D03*
X194430000Y-93780000D03*
X194430000Y-91240000D03*
X194430000Y-83620000D03*
X191890000Y-129340000D03*
X191890000Y-109020000D03*
X191890000Y-106480000D03*
X191890000Y-103940000D03*
X191890000Y-101400000D03*
X191890000Y-98860000D03*
X191890000Y-96320000D03*
X191890000Y-93780000D03*
X191890000Y-91240000D03*
X191890000Y-83620000D03*
X189350000Y-129340000D03*
X189350000Y-126800000D03*
X189350000Y-106480000D03*
X189350000Y-103940000D03*
X189350000Y-101400000D03*
X189350000Y-88700000D03*
X189350000Y-86160000D03*
X189350000Y-83620000D03*
X186810000Y-129340000D03*
X186810000Y-126800000D03*
X186810000Y-106480000D03*
X186810000Y-103940000D03*
X186810000Y-101400000D03*
X186810000Y-88700000D03*
X186810000Y-86160000D03*
X186810000Y-83620000D03*
X184270000Y-129340000D03*
X184270000Y-126800000D03*
X184270000Y-106480000D03*
X184270000Y-103940000D03*
X184270000Y-101400000D03*
X184270000Y-88700000D03*
X184270000Y-86160000D03*
X184270000Y-83620000D03*
X181730000Y-129340000D03*
X181730000Y-126800000D03*
X181730000Y-106480000D03*
X181730000Y-103940000D03*
X181730000Y-88700000D03*
X181730000Y-86160000D03*
X181730000Y-83620000D03*
X179190000Y-129340000D03*
X179190000Y-126800000D03*
X179190000Y-124260000D03*
X179190000Y-121720000D03*
X179190000Y-98860000D03*
X179190000Y-91240000D03*
X179190000Y-88700000D03*
X179190000Y-86160000D03*
X179190000Y-83620000D03*
X176650000Y-129340000D03*
X176650000Y-126800000D03*
X176650000Y-124260000D03*
X176650000Y-121720000D03*
X176650000Y-119180000D03*
X176650000Y-103940000D03*
X176650000Y-91240000D03*
X176650000Y-88700000D03*
X176650000Y-86160000D03*
X176650000Y-83620000D03*
X174110000Y-129340000D03*
X174110000Y-126800000D03*
X174110000Y-124260000D03*
X174110000Y-121720000D03*
X174110000Y-119180000D03*
X174110000Y-116640000D03*
X174110000Y-114100000D03*
X174110000Y-93780000D03*
X174110000Y-91240000D03*
X174110000Y-88700000D03*
X174110000Y-86160000D03*
X174110000Y-83620000D03*
X171570000Y-129340000D03*
X171570000Y-126800000D03*
X171570000Y-124260000D03*
X171570000Y-121720000D03*
X171570000Y-119180000D03*
X171570000Y-116640000D03*
X171570000Y-114100000D03*
X171570000Y-96320000D03*
X171570000Y-93780000D03*
X171570000Y-91240000D03*
X171570000Y-88700000D03*
X171570000Y-86160000D03*
X171570000Y-83620000D03*
X169030000Y-129340000D03*
X169030000Y-126800000D03*
X169030000Y-124260000D03*
X169030000Y-121720000D03*
X169030000Y-119180000D03*
X169030000Y-116640000D03*
X169030000Y-114100000D03*
X169030000Y-109020000D03*
X169030000Y-103940000D03*
X169030000Y-101400000D03*
X169030000Y-98860000D03*
X169030000Y-96320000D03*
X169030000Y-93780000D03*
X169030000Y-91240000D03*
X169030000Y-88700000D03*
X169030000Y-86160000D03*
X169030000Y-83620000D03*
X166490000Y-129340000D03*
X166490000Y-126800000D03*
X166490000Y-124260000D03*
X166490000Y-121720000D03*
X166490000Y-116640000D03*
X166490000Y-109020000D03*
X166490000Y-106480000D03*
X166490000Y-103940000D03*
X166490000Y-101400000D03*
X166490000Y-98860000D03*
X166490000Y-96320000D03*
X166490000Y-93780000D03*
X166490000Y-91240000D03*
X166490000Y-88700000D03*
X166490000Y-86160000D03*
X166490000Y-83620000D03*
X163950000Y-129340000D03*
X163950000Y-126800000D03*
X163950000Y-124260000D03*
X163950000Y-121720000D03*
X163950000Y-106480000D03*
X163950000Y-103940000D03*
X163950000Y-101400000D03*
X163950000Y-98860000D03*
X163950000Y-96320000D03*
X163950000Y-93780000D03*
X163950000Y-91240000D03*
X163950000Y-88700000D03*
X163950000Y-86160000D03*
X163950000Y-83620000D03*
X161410000Y-129340000D03*
X161410000Y-126800000D03*
X161410000Y-124260000D03*
X161410000Y-121720000D03*
X161410000Y-106480000D03*
X161410000Y-103940000D03*
X161410000Y-101400000D03*
X161410000Y-98860000D03*
X161410000Y-96320000D03*
X161410000Y-93780000D03*
X161410000Y-91240000D03*
X161410000Y-88700000D03*
X161410000Y-86160000D03*
X161410000Y-83620000D03*
X158870000Y-129340000D03*
X158870000Y-126800000D03*
X158870000Y-124260000D03*
X158870000Y-121720000D03*
X158870000Y-106480000D03*
X158870000Y-103940000D03*
X158870000Y-101400000D03*
X158870000Y-98860000D03*
X158870000Y-96320000D03*
X158870000Y-93780000D03*
X158870000Y-91240000D03*
X158870000Y-88700000D03*
X158870000Y-86160000D03*
X158870000Y-83620000D03*
X156330000Y-129340000D03*
X156330000Y-126800000D03*
X156330000Y-106480000D03*
X156330000Y-103940000D03*
X156330000Y-101400000D03*
X156330000Y-98860000D03*
X156330000Y-96320000D03*
X156330000Y-93780000D03*
X156330000Y-91240000D03*
X156330000Y-88700000D03*
X156330000Y-86160000D03*
X156330000Y-83620000D03*
X153790000Y-129340000D03*
X153790000Y-114100000D03*
X153790000Y-111560000D03*
X153790000Y-109020000D03*
X153790000Y-106480000D03*
X153790000Y-103940000D03*
X153790000Y-101400000D03*
X153790000Y-98860000D03*
X153790000Y-96320000D03*
X153790000Y-93780000D03*
X153790000Y-91240000D03*
X153790000Y-83620000D03*
X151250000Y-124260000D03*
X151250000Y-121720000D03*
X151250000Y-119180000D03*
X151250000Y-116640000D03*
X151250000Y-114100000D03*
X151250000Y-111560000D03*
X151250000Y-109020000D03*
X151250000Y-106480000D03*
X151250000Y-103940000D03*
X151250000Y-101400000D03*
X151250000Y-98860000D03*
X151250000Y-96320000D03*
X151250000Y-93780000D03*
X151250000Y-91240000D03*
X151250000Y-88700000D03*
X158725000Y-113750000D03*
X191325000Y-119850000D03*
X155525000Y-110625000D03*
X175850000Y-113025000D03*
X160725000Y-116225000D03*
X160700000Y-109250000D03*
X163575000Y-114875000D03*
X170375000Y-106600000D03*
X183425000Y-109225000D03*
X163475000Y-118575000D03*
X185725000Y-109075000D03*
X162625000Y-118475000D03*
X159875000Y-116150000D03*
X165325000Y-114825000D03*
X172875000Y-110925000D03*
X159875000Y-109225000D03*
X180500000Y-109000000D03*
X173850000Y-110700000D03*
X164525000Y-114750000D03*
X186550000Y-109075000D03*
X182600000Y-109250000D03*
X170525000Y-107900000D03*
X179625000Y-108975000D03*
X187600000Y-114675000D03*
X181200000Y-100550000D03*
X185625000Y-114625000D03*
X182850000Y-114950000D03*
X178050000Y-108700000D03*
X184425000Y-109025000D03*
X154200000Y-120150000D03*
X156600000Y-113800000D03*
X184225000Y-99625000D03*
X187600000Y-94100000D03*
X189050000Y-93800000D03*
D12*
X191325000Y-119850000D02*
X191725000Y-119850000D01*
X175850000Y-114375000D02*
X175850000Y-113025000D01*
X182275000Y-122550001D02*
X182275000Y-120800000D01*
X182370000Y-122645001D02*
X192530000Y-122645001D01*
X158650000Y-113750000D02*
X155525000Y-110625000D01*
X191725000Y-119850000D02*
X192530000Y-120655000D01*
X158725000Y-113750000D02*
X158650000Y-113750000D01*
X182275000Y-120800000D02*
X175850000Y-114375000D01*
X182370000Y-122645001D02*
X182275000Y-122550001D01*
X192530000Y-120655000D02*
X192530000Y-122645001D01*
D13*
X188825000Y-114925000D02*
X189990000Y-116090000D01*
X187850000Y-114925000D02*
X188825000Y-114925000D01*
X187600000Y-114675000D02*
X187850000Y-114925000D01*
X189990000Y-116090000D02*
X189990000Y-117605000D01*
X181200000Y-100550000D02*
X181200000Y-100450000D01*
X182315000Y-99335000D02*
X182315000Y-96670000D01*
X181200000Y-100450000D02*
X182315000Y-99335000D01*
X186075000Y-114625000D02*
X187450000Y-116000000D01*
X187450000Y-116000000D02*
X187450000Y-117605000D01*
X185625000Y-114625000D02*
X186075000Y-114625000D01*
X184910000Y-116010000D02*
X184910000Y-117605000D01*
X183850000Y-114950000D02*
X184910000Y-116010000D01*
X182850000Y-114950000D02*
X183850000Y-114950000D01*
X177350000Y-112584999D02*
X182370000Y-117604999D01*
X178050000Y-108700000D02*
X177350000Y-109400000D01*
X177350000Y-109400000D02*
X177350000Y-112584999D01*
X192530000Y-113205000D02*
X192530000Y-117604999D01*
X184425000Y-109025000D02*
X185375000Y-108075000D01*
X187400000Y-108075000D02*
X192530000Y-113205000D01*
X185375000Y-108075000D02*
X187400000Y-108075000D01*
X154200000Y-120150000D02*
X153765000Y-119715000D01*
X153765000Y-119715000D02*
X153765000Y-117605000D01*
X156600000Y-113800000D02*
X156305002Y-114094998D01*
X156305002Y-114094998D02*
X156305002Y-117605000D01*
X184854999Y-98995001D02*
X184854999Y-96670000D01*
X184225000Y-99625000D02*
X184854999Y-98995001D01*
X187700000Y-94200000D02*
X187700000Y-96365001D01*
X187600000Y-94100000D02*
X187700000Y-94200000D01*
X187700000Y-96365001D02*
X187395001Y-96670000D01*
X189050000Y-93800000D02*
X189935000Y-94685000D01*
X189935000Y-94685000D02*
X189935000Y-96670000D01*
G04 #@! TA.AperFunction,Conductor*
G36*
X193102702Y-82425617D02*
G01*
X193512917Y-82443528D01*
X193523654Y-82444468D01*
X193928057Y-82497708D01*
X193938695Y-82499583D01*
X194336925Y-82587869D01*
X194347365Y-82590667D01*
X194736363Y-82713317D01*
X194746524Y-82717015D01*
X195123363Y-82873108D01*
X195133155Y-82877674D01*
X195494965Y-83066020D01*
X195504305Y-83071413D01*
X195789636Y-83253189D01*
X195848309Y-83290568D01*
X195857170Y-83296772D01*
X196180766Y-83545076D01*
X196189053Y-83552030D01*
X196489767Y-83827583D01*
X196497416Y-83835232D01*
X196772969Y-84135946D01*
X196779923Y-84144233D01*
X197028227Y-84467829D01*
X197034431Y-84476690D01*
X197253578Y-84820680D01*
X197258987Y-84830048D01*
X197447322Y-85191838D01*
X197451894Y-85201642D01*
X197607983Y-85578473D01*
X197611683Y-85588639D01*
X197734331Y-85977630D01*
X197737131Y-85988078D01*
X197825414Y-86386296D01*
X197827292Y-86396950D01*
X197880529Y-86801326D01*
X197881472Y-86812102D01*
X197899382Y-87222297D01*
X197899500Y-87227706D01*
X197899500Y-127222293D01*
X197899382Y-127227702D01*
X197881472Y-127637897D01*
X197880529Y-127648673D01*
X197827292Y-128053049D01*
X197825414Y-128063703D01*
X197737131Y-128461921D01*
X197734331Y-128472369D01*
X197611683Y-128861360D01*
X197607983Y-128871526D01*
X197451894Y-129248357D01*
X197447322Y-129258161D01*
X197258987Y-129619951D01*
X197253578Y-129629319D01*
X197034431Y-129973309D01*
X197028227Y-129982170D01*
X196779923Y-130305766D01*
X196772969Y-130314053D01*
X196497416Y-130614767D01*
X196489767Y-130622416D01*
X196189053Y-130897969D01*
X196180766Y-130904923D01*
X195857170Y-131153227D01*
X195848309Y-131159431D01*
X195504319Y-131378578D01*
X195494951Y-131383987D01*
X195133161Y-131572322D01*
X195123357Y-131576894D01*
X194746526Y-131732983D01*
X194736360Y-131736683D01*
X194347369Y-131859331D01*
X194336921Y-131862131D01*
X193938703Y-131950414D01*
X193928049Y-131952292D01*
X193523673Y-132005529D01*
X193512897Y-132006472D01*
X193102703Y-132024382D01*
X193097294Y-132024500D01*
X153102706Y-132024500D01*
X153097297Y-132024382D01*
X152687102Y-132006472D01*
X152676326Y-132005529D01*
X152271950Y-131952292D01*
X152261296Y-131950414D01*
X151863078Y-131862131D01*
X151852630Y-131859331D01*
X151463639Y-131736683D01*
X151453473Y-131732983D01*
X151076642Y-131576894D01*
X151066838Y-131572322D01*
X150947126Y-131510004D01*
X150705042Y-131383983D01*
X150695686Y-131378582D01*
X150523685Y-131269004D01*
X150351690Y-131159431D01*
X150342829Y-131153227D01*
X150019233Y-130904923D01*
X150010946Y-130897969D01*
X149710232Y-130622416D01*
X149702583Y-130614767D01*
X149427030Y-130314053D01*
X149420076Y-130305766D01*
X149171772Y-129982170D01*
X149165568Y-129973309D01*
X149112070Y-129889334D01*
X148946413Y-129629305D01*
X148941020Y-129619965D01*
X148752674Y-129258155D01*
X148748105Y-129248357D01*
X148592016Y-128871526D01*
X148588316Y-128861360D01*
X148465668Y-128472369D01*
X148462868Y-128461921D01*
X148374585Y-128063703D01*
X148372707Y-128053049D01*
X148319468Y-127648654D01*
X148318528Y-127637917D01*
X148301866Y-127256287D01*
X151774500Y-127256287D01*
X151807754Y-127466243D01*
X151867029Y-127648673D01*
X151873444Y-127668414D01*
X151969951Y-127857820D01*
X152094890Y-128029786D01*
X152245213Y-128180109D01*
X152417179Y-128305048D01*
X152417181Y-128305049D01*
X152417184Y-128305051D01*
X152606588Y-128401557D01*
X152808757Y-128467246D01*
X153018713Y-128500500D01*
X153018714Y-128500500D01*
X153231286Y-128500500D01*
X153231287Y-128500500D01*
X153441243Y-128467246D01*
X153643412Y-128401557D01*
X153832816Y-128305051D01*
X153854789Y-128289086D01*
X154004786Y-128180109D01*
X154004788Y-128180106D01*
X154004792Y-128180104D01*
X154155104Y-128029792D01*
X154155106Y-128029788D01*
X154155109Y-128029786D01*
X154280048Y-127857820D01*
X154280047Y-127857820D01*
X154280051Y-127857816D01*
X154376557Y-127668412D01*
X154442246Y-127466243D01*
X154475500Y-127256287D01*
X191774500Y-127256287D01*
X191807754Y-127466243D01*
X191867029Y-127648673D01*
X191873444Y-127668414D01*
X191969951Y-127857820D01*
X192094890Y-128029786D01*
X192245213Y-128180109D01*
X192417179Y-128305048D01*
X192417181Y-128305049D01*
X192417184Y-128305051D01*
X192606588Y-128401557D01*
X192808757Y-128467246D01*
X193018713Y-128500500D01*
X193018714Y-128500500D01*
X193231286Y-128500500D01*
X193231287Y-128500500D01*
X193441243Y-128467246D01*
X193643412Y-128401557D01*
X193832816Y-128305051D01*
X193854789Y-128289086D01*
X194004786Y-128180109D01*
X194004788Y-128180106D01*
X194004792Y-128180104D01*
X194155104Y-128029792D01*
X194155106Y-128029788D01*
X194155109Y-128029786D01*
X194280048Y-127857820D01*
X194280047Y-127857820D01*
X194280051Y-127857816D01*
X194376557Y-127668412D01*
X194442246Y-127466243D01*
X194475500Y-127256287D01*
X194475500Y-127043713D01*
X194442246Y-126833757D01*
X194376557Y-126631588D01*
X194280051Y-126442184D01*
X194280049Y-126442181D01*
X194280048Y-126442179D01*
X194155109Y-126270213D01*
X194004786Y-126119890D01*
X193832820Y-125994951D01*
X193643414Y-125898444D01*
X193643413Y-125898443D01*
X193643412Y-125898443D01*
X193441243Y-125832754D01*
X193441241Y-125832753D01*
X193441240Y-125832753D01*
X193279957Y-125807208D01*
X193231287Y-125799500D01*
X193018713Y-125799500D01*
X192970042Y-125807208D01*
X192808760Y-125832753D01*
X192606585Y-125898444D01*
X192417179Y-125994951D01*
X192245213Y-126119890D01*
X192094890Y-126270213D01*
X191969951Y-126442179D01*
X191873444Y-126631585D01*
X191807753Y-126833760D01*
X191774500Y-127043713D01*
X191774500Y-127256287D01*
X154475500Y-127256287D01*
X154475500Y-127043713D01*
X154442246Y-126833757D01*
X154376557Y-126631588D01*
X154280051Y-126442184D01*
X154280049Y-126442181D01*
X154280048Y-126442179D01*
X154155109Y-126270213D01*
X154004786Y-126119890D01*
X153832820Y-125994951D01*
X153643414Y-125898444D01*
X153643413Y-125898443D01*
X153643412Y-125898443D01*
X153441243Y-125832754D01*
X153441241Y-125832753D01*
X153441240Y-125832753D01*
X153279957Y-125807208D01*
X153231287Y-125799500D01*
X153018713Y-125799500D01*
X152970042Y-125807208D01*
X152808760Y-125832753D01*
X152606585Y-125898444D01*
X152417179Y-125994951D01*
X152245213Y-126119890D01*
X152094890Y-126270213D01*
X151969951Y-126442179D01*
X151873444Y-126631585D01*
X151807753Y-126833760D01*
X151774500Y-127043713D01*
X151774500Y-127256287D01*
X148301866Y-127256287D01*
X148300618Y-127227702D01*
X148300500Y-127222293D01*
X148300500Y-119152870D01*
X152764500Y-119152870D01*
X152764501Y-119152876D01*
X152770908Y-119212483D01*
X152821202Y-119347328D01*
X152821206Y-119347335D01*
X152907452Y-119462544D01*
X152907455Y-119462547D01*
X153022665Y-119548794D01*
X153022667Y-119548794D01*
X153022669Y-119548796D01*
X153033830Y-119552958D01*
X153089764Y-119594826D01*
X153114184Y-119660289D01*
X153114500Y-119669141D01*
X153114500Y-119779069D01*
X153114500Y-119779071D01*
X153114499Y-119779071D01*
X153139430Y-119904399D01*
X153139499Y-119904744D01*
X153166839Y-119970750D01*
X153188535Y-120023127D01*
X153192630Y-120029255D01*
X153259726Y-120129673D01*
X153378277Y-120248224D01*
X153411762Y-120309547D01*
X153413815Y-120322012D01*
X153414630Y-120329246D01*
X153414632Y-120329255D01*
X153474210Y-120499521D01*
X153525462Y-120581087D01*
X153570184Y-120652262D01*
X153697738Y-120779816D01*
X153850478Y-120875789D01*
X153999000Y-120927759D01*
X154020745Y-120935368D01*
X154020750Y-120935369D01*
X154199996Y-120955565D01*
X154200000Y-120955565D01*
X154200004Y-120955565D01*
X154379249Y-120935369D01*
X154379252Y-120935368D01*
X154379255Y-120935368D01*
X154549522Y-120875789D01*
X154702262Y-120779816D01*
X154829816Y-120652262D01*
X154925789Y-120499522D01*
X154985368Y-120329255D01*
X154986184Y-120322012D01*
X155005565Y-120150003D01*
X155005565Y-120149996D01*
X154985369Y-119970750D01*
X154985368Y-119970745D01*
X154962188Y-119904500D01*
X154925789Y-119800478D01*
X154829816Y-119647738D01*
X154707974Y-119525896D01*
X154674489Y-119464573D01*
X154679473Y-119394881D01*
X154696387Y-119363907D01*
X154708796Y-119347331D01*
X154759091Y-119212483D01*
X154765500Y-119152873D01*
X154765499Y-116057128D01*
X154760299Y-116008757D01*
X154759091Y-115997516D01*
X154708797Y-115862671D01*
X154708793Y-115862664D01*
X154622547Y-115747455D01*
X154622544Y-115747452D01*
X154507335Y-115661206D01*
X154507328Y-115661202D01*
X154372482Y-115610908D01*
X154372483Y-115610908D01*
X154312883Y-115604501D01*
X154312881Y-115604500D01*
X154312873Y-115604500D01*
X154312864Y-115604500D01*
X153217129Y-115604500D01*
X153217123Y-115604501D01*
X153157516Y-115610908D01*
X153022671Y-115661202D01*
X153022664Y-115661206D01*
X152907455Y-115747452D01*
X152907452Y-115747455D01*
X152821206Y-115862664D01*
X152821202Y-115862671D01*
X152770908Y-115997517D01*
X152766938Y-116034450D01*
X152764501Y-116057123D01*
X152764500Y-116057135D01*
X152764500Y-119152870D01*
X148300500Y-119152870D01*
X148300500Y-110625003D01*
X154719435Y-110625003D01*
X154739630Y-110804249D01*
X154739631Y-110804254D01*
X154799211Y-110974523D01*
X154895184Y-111127262D01*
X155022738Y-111254816D01*
X155175478Y-111350789D01*
X155175483Y-111350792D01*
X155181753Y-111353812D01*
X155180864Y-111355656D01*
X155216937Y-111378305D01*
X156058068Y-112219435D01*
X156627394Y-112788761D01*
X156660879Y-112850084D01*
X156655895Y-112919776D01*
X156614023Y-112975709D01*
X156553597Y-112999662D01*
X156420749Y-113014630D01*
X156420745Y-113014631D01*
X156250476Y-113074211D01*
X156097737Y-113170184D01*
X155970184Y-113297737D01*
X155874210Y-113450478D01*
X155814632Y-113620744D01*
X155814632Y-113620746D01*
X155812954Y-113635636D01*
X155792837Y-113690636D01*
X155728537Y-113786870D01*
X155679501Y-113905253D01*
X155679499Y-113905259D01*
X155654502Y-114030926D01*
X155654502Y-115540858D01*
X155634817Y-115607897D01*
X155582013Y-115653652D01*
X155573849Y-115657034D01*
X155562674Y-115661203D01*
X155562666Y-115661206D01*
X155447457Y-115747452D01*
X155447454Y-115747455D01*
X155361208Y-115862664D01*
X155361204Y-115862671D01*
X155310910Y-115997517D01*
X155306940Y-116034450D01*
X155304503Y-116057123D01*
X155304502Y-116057135D01*
X155304502Y-119152870D01*
X155304503Y-119152876D01*
X155310910Y-119212483D01*
X155361204Y-119347328D01*
X155361208Y-119347335D01*
X155447454Y-119462544D01*
X155447457Y-119462547D01*
X155562666Y-119548793D01*
X155562673Y-119548797D01*
X155697519Y-119599091D01*
X155697518Y-119599091D01*
X155704446Y-119599835D01*
X155757129Y-119605500D01*
X156852874Y-119605499D01*
X156912485Y-119599091D01*
X157047333Y-119548796D01*
X157162548Y-119462546D01*
X157248798Y-119347331D01*
X157299093Y-119212483D01*
X157305502Y-119152873D01*
X157305501Y-116057128D01*
X157300301Y-116008757D01*
X157299093Y-115997516D01*
X157248799Y-115862671D01*
X157248795Y-115862664D01*
X157162549Y-115747455D01*
X157162546Y-115747452D01*
X157047337Y-115661206D01*
X157047334Y-115661205D01*
X157047333Y-115661204D01*
X157036163Y-115657038D01*
X156980233Y-115615166D01*
X156955818Y-115549701D01*
X156955502Y-115540858D01*
X156955502Y-114590563D01*
X156975187Y-114523524D01*
X157013531Y-114485569D01*
X157102259Y-114429818D01*
X157102259Y-114429817D01*
X157102262Y-114429816D01*
X157229816Y-114302262D01*
X157325789Y-114149522D01*
X157385368Y-113979255D01*
X157388046Y-113955494D01*
X157400337Y-113846403D01*
X157427403Y-113781989D01*
X157484998Y-113742434D01*
X157554835Y-113740296D01*
X157611238Y-113772605D01*
X158067048Y-114228415D01*
X158067049Y-114228416D01*
X158171584Y-114332951D01*
X158171587Y-114332953D01*
X158174357Y-114334804D01*
X158193146Y-114350224D01*
X158222738Y-114379816D01*
X158302316Y-114429818D01*
X158330833Y-114447737D01*
X158375478Y-114475789D01*
X158403428Y-114485569D01*
X158545745Y-114535368D01*
X158545750Y-114535369D01*
X158724996Y-114555565D01*
X158725000Y-114555565D01*
X158725004Y-114555565D01*
X158904249Y-114535369D01*
X158904252Y-114535368D01*
X158904255Y-114535368D01*
X159074522Y-114475789D01*
X159227262Y-114379816D01*
X159354816Y-114252262D01*
X159450789Y-114099522D01*
X159510368Y-113929255D01*
X159513072Y-113905259D01*
X159530565Y-113750003D01*
X159530565Y-113749996D01*
X159510369Y-113570750D01*
X159510368Y-113570745D01*
X159485421Y-113499450D01*
X159450789Y-113400478D01*
X159354816Y-113247738D01*
X159227262Y-113120184D01*
X159176202Y-113088101D01*
X159075783Y-113025003D01*
X175044435Y-113025003D01*
X175064630Y-113204249D01*
X175064631Y-113204254D01*
X175092542Y-113284017D01*
X175099500Y-113324972D01*
X175099500Y-114448918D01*
X175099500Y-114448920D01*
X175099499Y-114448920D01*
X175128340Y-114593905D01*
X175128343Y-114593917D01*
X175184912Y-114730488D01*
X175184918Y-114730499D01*
X175194937Y-114745492D01*
X175194939Y-114745497D01*
X175267046Y-114853414D01*
X175267052Y-114853421D01*
X181341392Y-120927759D01*
X181374877Y-120989082D01*
X181374524Y-121029568D01*
X181376738Y-121029806D01*
X181375909Y-121037517D01*
X181375909Y-121037518D01*
X181369501Y-121097124D01*
X181369500Y-121097136D01*
X181369500Y-124192871D01*
X181369501Y-124192877D01*
X181375908Y-124252484D01*
X181426202Y-124387329D01*
X181426206Y-124387336D01*
X181512452Y-124502545D01*
X181512455Y-124502548D01*
X181627664Y-124588794D01*
X181627671Y-124588798D01*
X181762517Y-124639092D01*
X181762516Y-124639092D01*
X181769444Y-124639836D01*
X181822127Y-124645501D01*
X182917872Y-124645500D01*
X182977483Y-124639092D01*
X183112331Y-124588797D01*
X183227546Y-124502547D01*
X183313796Y-124387332D01*
X183364091Y-124252484D01*
X183370500Y-124192874D01*
X183370500Y-123519501D01*
X183390185Y-123452462D01*
X183442989Y-123406707D01*
X183494500Y-123395501D01*
X183785501Y-123395501D01*
X183852540Y-123415186D01*
X183898295Y-123467990D01*
X183909501Y-123519501D01*
X183909501Y-124192876D01*
X183915908Y-124252483D01*
X183966202Y-124387328D01*
X183966206Y-124387335D01*
X184052452Y-124502544D01*
X184052455Y-124502547D01*
X184167664Y-124588793D01*
X184167671Y-124588797D01*
X184302517Y-124639091D01*
X184302516Y-124639091D01*
X184309444Y-124639835D01*
X184362127Y-124645500D01*
X185457872Y-124645499D01*
X185517483Y-124639091D01*
X185652331Y-124588796D01*
X185767546Y-124502546D01*
X185853796Y-124387331D01*
X185904091Y-124252483D01*
X185910500Y-124192873D01*
X185910500Y-123519501D01*
X185930185Y-123452462D01*
X185982989Y-123406707D01*
X186034500Y-123395501D01*
X186325501Y-123395501D01*
X186392540Y-123415186D01*
X186438295Y-123467990D01*
X186449501Y-123519501D01*
X186449501Y-124192876D01*
X186455908Y-124252483D01*
X186506202Y-124387328D01*
X186506206Y-124387335D01*
X186592452Y-124502544D01*
X186592455Y-124502547D01*
X186707664Y-124588793D01*
X186707671Y-124588797D01*
X186842517Y-124639091D01*
X186842516Y-124639091D01*
X186849444Y-124639835D01*
X186902127Y-124645500D01*
X187997872Y-124645499D01*
X188057483Y-124639091D01*
X188192331Y-124588796D01*
X188307546Y-124502546D01*
X188393796Y-124387331D01*
X188444091Y-124252483D01*
X188450500Y-124192873D01*
X188450500Y-123519501D01*
X188470185Y-123452462D01*
X188522989Y-123406707D01*
X188574500Y-123395501D01*
X188865501Y-123395501D01*
X188932540Y-123415186D01*
X188978295Y-123467990D01*
X188989501Y-123519501D01*
X188989501Y-124192876D01*
X188995908Y-124252483D01*
X189046202Y-124387328D01*
X189046206Y-124387335D01*
X189132452Y-124502544D01*
X189132455Y-124502547D01*
X189247664Y-124588793D01*
X189247671Y-124588797D01*
X189382517Y-124639091D01*
X189382516Y-124639091D01*
X189389444Y-124639835D01*
X189442127Y-124645500D01*
X190537872Y-124645499D01*
X190597483Y-124639091D01*
X190732331Y-124588796D01*
X190847546Y-124502546D01*
X190933796Y-124387331D01*
X190984091Y-124252483D01*
X190990500Y-124192873D01*
X190990500Y-123519501D01*
X191010185Y-123452462D01*
X191062989Y-123406707D01*
X191114500Y-123395501D01*
X191405501Y-123395501D01*
X191472540Y-123415186D01*
X191518295Y-123467990D01*
X191529501Y-123519501D01*
X191529501Y-124192877D01*
X191535908Y-124252484D01*
X191586202Y-124387329D01*
X191586206Y-124387336D01*
X191672452Y-124502545D01*
X191672455Y-124502548D01*
X191787664Y-124588794D01*
X191787671Y-124588798D01*
X191922517Y-124639092D01*
X191922516Y-124639092D01*
X191929444Y-124639836D01*
X191982127Y-124645501D01*
X193077872Y-124645500D01*
X193137483Y-124639092D01*
X193272331Y-124588797D01*
X193387546Y-124502547D01*
X193473796Y-124387332D01*
X193524091Y-124252484D01*
X193530500Y-124192874D01*
X193530499Y-121097129D01*
X193524091Y-121037518D01*
X193524090Y-121037516D01*
X193473797Y-120902672D01*
X193473793Y-120902665D01*
X193387548Y-120787458D01*
X193387546Y-120787455D01*
X193377340Y-120779815D01*
X193330188Y-120744516D01*
X193288318Y-120688582D01*
X193280500Y-120645250D01*
X193280500Y-120581079D01*
X193251659Y-120436092D01*
X193251658Y-120436091D01*
X193251658Y-120436087D01*
X193207407Y-120329255D01*
X193195085Y-120299507D01*
X193160819Y-120248224D01*
X193132269Y-120205495D01*
X193112952Y-120176584D01*
X192753547Y-119817179D01*
X192720062Y-119755856D01*
X192725046Y-119686164D01*
X192766918Y-119630231D01*
X192832382Y-119605814D01*
X192841228Y-119605498D01*
X193077871Y-119605498D01*
X193077872Y-119605498D01*
X193137483Y-119599090D01*
X193272331Y-119548795D01*
X193387546Y-119462545D01*
X193473796Y-119347330D01*
X193524091Y-119212482D01*
X193530500Y-119152872D01*
X193530499Y-116057127D01*
X193524091Y-115997516D01*
X193507340Y-115952605D01*
X193473797Y-115862670D01*
X193473793Y-115862663D01*
X193387547Y-115747454D01*
X193387544Y-115747451D01*
X193272335Y-115661205D01*
X193272332Y-115661204D01*
X193272331Y-115661203D01*
X193261161Y-115657037D01*
X193205231Y-115615165D01*
X193180816Y-115549700D01*
X193180500Y-115540857D01*
X193180500Y-113140928D01*
X193155502Y-113015261D01*
X193155501Y-113015260D01*
X193155501Y-113015256D01*
X193141723Y-112981992D01*
X193126166Y-112944434D01*
X193106469Y-112896881D01*
X193106468Y-112896880D01*
X193106466Y-112896874D01*
X193075202Y-112850084D01*
X193035278Y-112790332D01*
X193035272Y-112790325D01*
X187814673Y-107569726D01*
X187814669Y-107569723D01*
X187708127Y-107498535D01*
X187589744Y-107449499D01*
X187589738Y-107449497D01*
X187464071Y-107424500D01*
X187464069Y-107424500D01*
X185310931Y-107424500D01*
X185310929Y-107424500D01*
X185185261Y-107449497D01*
X185185255Y-107449499D01*
X185066874Y-107498534D01*
X184960326Y-107569726D01*
X184326775Y-108203277D01*
X184265452Y-108236762D01*
X184252988Y-108238815D01*
X184245752Y-108239630D01*
X184245744Y-108239632D01*
X184075478Y-108299210D01*
X183922737Y-108395184D01*
X183795184Y-108522737D01*
X183699211Y-108675476D01*
X183639631Y-108845745D01*
X183639630Y-108845750D01*
X183619435Y-109024996D01*
X183619435Y-109025003D01*
X183639630Y-109204249D01*
X183639631Y-109204254D01*
X183699211Y-109374523D01*
X183731424Y-109425789D01*
X183795184Y-109527262D01*
X183922738Y-109654816D01*
X184075478Y-109750789D01*
X184245745Y-109810368D01*
X184245750Y-109810369D01*
X184424996Y-109830565D01*
X184425000Y-109830565D01*
X184425004Y-109830565D01*
X184604249Y-109810369D01*
X184604252Y-109810368D01*
X184604255Y-109810368D01*
X184774522Y-109750789D01*
X184927262Y-109654816D01*
X185054816Y-109527262D01*
X185150789Y-109374522D01*
X185210368Y-109204255D01*
X185211182Y-109197025D01*
X185238245Y-109132611D01*
X185246712Y-109123233D01*
X185608127Y-108761819D01*
X185669450Y-108728334D01*
X185695808Y-108725500D01*
X187079192Y-108725500D01*
X187146231Y-108745185D01*
X187166873Y-108761819D01*
X191843181Y-113438127D01*
X191876666Y-113499450D01*
X191879500Y-113525808D01*
X191879500Y-115540857D01*
X191859815Y-115607896D01*
X191807011Y-115653651D01*
X191798847Y-115657033D01*
X191787672Y-115661202D01*
X191787664Y-115661205D01*
X191672455Y-115747451D01*
X191672452Y-115747454D01*
X191586206Y-115862663D01*
X191586202Y-115862670D01*
X191535908Y-115997516D01*
X191531938Y-116034450D01*
X191529501Y-116057123D01*
X191529500Y-116057134D01*
X191529500Y-118928720D01*
X191509815Y-118995759D01*
X191457011Y-119041514D01*
X191391617Y-119051940D01*
X191325004Y-119044435D01*
X191324996Y-119044435D01*
X191145742Y-119064631D01*
X191142086Y-119065466D01*
X191139658Y-119065317D01*
X191138825Y-119065411D01*
X191138808Y-119065265D01*
X191072347Y-119061190D01*
X191015991Y-119019888D01*
X190990911Y-118954675D01*
X190990499Y-118944574D01*
X190990499Y-116057129D01*
X190990498Y-116057123D01*
X190990497Y-116057116D01*
X190985299Y-116008757D01*
X190984091Y-115997516D01*
X190933797Y-115862671D01*
X190933793Y-115862664D01*
X190847547Y-115747455D01*
X190847544Y-115747452D01*
X190732335Y-115661206D01*
X190732328Y-115661202D01*
X190597482Y-115610908D01*
X190597483Y-115610908D01*
X190537883Y-115604501D01*
X190537881Y-115604500D01*
X190537873Y-115604500D01*
X190537865Y-115604500D01*
X190475808Y-115604500D01*
X190408769Y-115584815D01*
X190388127Y-115568181D01*
X189239674Y-114419727D01*
X189239673Y-114419726D01*
X189179943Y-114379816D01*
X189133127Y-114348535D01*
X189075094Y-114324497D01*
X189014744Y-114299499D01*
X189014738Y-114299497D01*
X188889071Y-114274500D01*
X188889069Y-114274500D01*
X188362290Y-114274500D01*
X188295251Y-114254815D01*
X188257297Y-114216473D01*
X188229817Y-114172739D01*
X188102262Y-114045184D01*
X187949523Y-113949211D01*
X187779254Y-113889631D01*
X187779249Y-113889630D01*
X187600004Y-113869435D01*
X187599996Y-113869435D01*
X187420750Y-113889630D01*
X187420745Y-113889631D01*
X187250476Y-113949211D01*
X187097737Y-114045184D01*
X186970182Y-114172739D01*
X186887946Y-114303617D01*
X186835612Y-114349907D01*
X186766558Y-114360555D01*
X186702710Y-114332180D01*
X186695272Y-114325325D01*
X186489673Y-114119726D01*
X186489669Y-114119723D01*
X186383127Y-114048535D01*
X186340622Y-114030929D01*
X186264744Y-113999499D01*
X186264738Y-113999497D01*
X186139071Y-113974500D01*
X186139069Y-113974500D01*
X186130068Y-113974500D01*
X186064096Y-113955494D01*
X185974522Y-113899210D01*
X185974518Y-113899209D01*
X185804262Y-113839633D01*
X185804249Y-113839630D01*
X185625004Y-113819435D01*
X185624996Y-113819435D01*
X185445750Y-113839630D01*
X185445745Y-113839631D01*
X185275476Y-113899211D01*
X185122737Y-113995184D01*
X184995184Y-114122737D01*
X184899211Y-114275476D01*
X184839631Y-114445745D01*
X184839630Y-114445750D01*
X184819435Y-114624996D01*
X184819435Y-114625003D01*
X184827310Y-114694898D01*
X184815255Y-114763720D01*
X184767906Y-114815099D01*
X184700296Y-114832723D01*
X184633890Y-114810996D01*
X184616409Y-114796462D01*
X184264673Y-114444726D01*
X184264669Y-114444723D01*
X184158127Y-114373535D01*
X184101849Y-114350224D01*
X184039744Y-114324499D01*
X184039738Y-114324497D01*
X183914071Y-114299500D01*
X183914069Y-114299500D01*
X183355068Y-114299500D01*
X183289096Y-114280494D01*
X183199522Y-114224210D01*
X183199518Y-114224209D01*
X183029262Y-114164633D01*
X183029249Y-114164630D01*
X182850004Y-114144435D01*
X182849996Y-114144435D01*
X182670750Y-114164630D01*
X182670745Y-114164631D01*
X182500476Y-114224211D01*
X182347737Y-114320184D01*
X182220184Y-114447737D01*
X182124211Y-114600476D01*
X182064631Y-114770745D01*
X182064630Y-114770750D01*
X182044435Y-114949996D01*
X182044435Y-114950003D01*
X182064630Y-115129249D01*
X182064631Y-115129254D01*
X182124211Y-115299523D01*
X182196473Y-115414527D01*
X182215473Y-115481764D01*
X182195105Y-115548599D01*
X182141837Y-115593813D01*
X182091479Y-115604499D01*
X181822130Y-115604499D01*
X181822123Y-115604500D01*
X181762516Y-115610907D01*
X181627671Y-115661201D01*
X181627668Y-115661203D01*
X181552687Y-115717334D01*
X181487222Y-115741751D01*
X181418949Y-115726899D01*
X181390695Y-115705748D01*
X178036819Y-112351872D01*
X178003334Y-112290549D01*
X178000500Y-112264191D01*
X178000500Y-109720807D01*
X178020185Y-109653768D01*
X178036810Y-109633135D01*
X178148225Y-109521719D01*
X178209544Y-109488237D01*
X178222019Y-109486183D01*
X178229255Y-109485368D01*
X178399522Y-109425789D01*
X178552262Y-109329816D01*
X178679816Y-109202262D01*
X178775789Y-109049522D01*
X178835368Y-108879255D01*
X178855565Y-108700000D01*
X178852802Y-108675478D01*
X178835369Y-108520750D01*
X178835368Y-108520745D01*
X178775788Y-108350476D01*
X178706140Y-108239632D01*
X178679816Y-108197738D01*
X178552262Y-108070184D01*
X178399523Y-107974211D01*
X178229254Y-107914631D01*
X178229249Y-107914630D01*
X178050004Y-107894435D01*
X178049996Y-107894435D01*
X177870750Y-107914630D01*
X177870745Y-107914631D01*
X177700476Y-107974211D01*
X177547737Y-108070184D01*
X177420184Y-108197737D01*
X177324210Y-108350478D01*
X177264632Y-108520744D01*
X177264630Y-108520752D01*
X177263815Y-108527988D01*
X177236743Y-108592400D01*
X177228277Y-108601775D01*
X176844722Y-108985331D01*
X176844718Y-108985336D01*
X176801834Y-109049520D01*
X176801833Y-109049522D01*
X176787684Y-109070697D01*
X176773535Y-109091872D01*
X176773533Y-109091875D01*
X176724499Y-109210255D01*
X176724497Y-109210261D01*
X176699500Y-109335928D01*
X176699500Y-112443841D01*
X176679815Y-112510880D01*
X176627011Y-112556635D01*
X176557853Y-112566579D01*
X176494297Y-112537554D01*
X176484770Y-112527631D01*
X176484740Y-112527662D01*
X176352262Y-112395184D01*
X176199523Y-112299211D01*
X176029254Y-112239631D01*
X176029249Y-112239630D01*
X175850004Y-112219435D01*
X175849996Y-112219435D01*
X175670750Y-112239630D01*
X175670745Y-112239631D01*
X175500476Y-112299211D01*
X175347737Y-112395184D01*
X175220184Y-112522737D01*
X175124211Y-112675476D01*
X175064631Y-112845745D01*
X175064630Y-112845750D01*
X175044435Y-113024996D01*
X175044435Y-113025003D01*
X159075783Y-113025003D01*
X159074524Y-113024212D01*
X159074523Y-113024211D01*
X158964415Y-112985682D01*
X158917690Y-112956322D01*
X156278307Y-110316939D01*
X156255652Y-110280866D01*
X156253812Y-110281753D01*
X156250792Y-110275483D01*
X156154815Y-110122737D01*
X156027262Y-109995184D01*
X155874523Y-109899211D01*
X155704254Y-109839631D01*
X155704249Y-109839630D01*
X155525004Y-109819435D01*
X155524996Y-109819435D01*
X155345750Y-109839630D01*
X155345745Y-109839631D01*
X155175476Y-109899211D01*
X155022737Y-109995184D01*
X154895184Y-110122737D01*
X154799211Y-110275476D01*
X154739631Y-110445745D01*
X154739630Y-110445750D01*
X154719435Y-110624996D01*
X154719435Y-110625003D01*
X148300500Y-110625003D01*
X148300500Y-100550003D01*
X180394435Y-100550003D01*
X180414630Y-100729249D01*
X180414631Y-100729254D01*
X180474211Y-100899523D01*
X180570184Y-101052262D01*
X180697738Y-101179816D01*
X180850478Y-101275789D01*
X181020745Y-101335368D01*
X181020750Y-101335369D01*
X181199996Y-101355565D01*
X181200000Y-101355565D01*
X181200004Y-101355565D01*
X181379249Y-101335369D01*
X181379252Y-101335368D01*
X181379255Y-101335368D01*
X181549522Y-101275789D01*
X181702262Y-101179816D01*
X181829816Y-101052262D01*
X181925789Y-100899522D01*
X181985368Y-100729255D01*
X181998880Y-100609319D01*
X182025945Y-100544909D01*
X182034409Y-100535534D01*
X182820276Y-99749669D01*
X182891465Y-99643127D01*
X182898972Y-99625003D01*
X183419435Y-99625003D01*
X183439630Y-99804249D01*
X183439631Y-99804254D01*
X183499211Y-99974523D01*
X183595184Y-100127262D01*
X183722738Y-100254816D01*
X183875478Y-100350789D01*
X184045745Y-100410368D01*
X184045750Y-100410369D01*
X184224996Y-100430565D01*
X184225000Y-100430565D01*
X184225004Y-100430565D01*
X184404249Y-100410369D01*
X184404252Y-100410368D01*
X184404255Y-100410368D01*
X184574522Y-100350789D01*
X184727262Y-100254816D01*
X184854816Y-100127262D01*
X184950789Y-99974522D01*
X185010368Y-99804255D01*
X185011182Y-99797025D01*
X185038245Y-99732611D01*
X185046703Y-99723241D01*
X185360275Y-99409670D01*
X185431464Y-99303128D01*
X185480500Y-99184745D01*
X185500198Y-99085717D01*
X185505499Y-99059070D01*
X185505499Y-98734141D01*
X185525184Y-98667102D01*
X185577988Y-98621347D01*
X185586148Y-98617966D01*
X185597330Y-98613796D01*
X185712545Y-98527546D01*
X185798795Y-98412331D01*
X185849090Y-98277483D01*
X185855499Y-98217873D01*
X185855499Y-98217870D01*
X186394501Y-98217870D01*
X186394502Y-98217876D01*
X186400909Y-98277483D01*
X186451203Y-98412328D01*
X186451207Y-98412335D01*
X186537453Y-98527544D01*
X186537456Y-98527547D01*
X186652665Y-98613793D01*
X186652672Y-98613797D01*
X186787518Y-98664091D01*
X186787517Y-98664091D01*
X186794445Y-98664835D01*
X186847128Y-98670500D01*
X187942873Y-98670499D01*
X188002484Y-98664091D01*
X188137332Y-98613796D01*
X188252547Y-98527546D01*
X188338797Y-98412331D01*
X188389092Y-98277483D01*
X188395501Y-98217873D01*
X188395500Y-95122128D01*
X188389092Y-95062517D01*
X188358318Y-94980007D01*
X188350500Y-94936674D01*
X188350500Y-94530012D01*
X188370185Y-94462973D01*
X188422989Y-94417218D01*
X188492147Y-94407274D01*
X188540532Y-94428194D01*
X188541842Y-94426111D01*
X188547737Y-94429815D01*
X188547738Y-94429816D01*
X188700478Y-94525789D01*
X188870745Y-94585368D01*
X188877974Y-94586182D01*
X188942388Y-94613246D01*
X188951776Y-94621722D01*
X189029327Y-94699273D01*
X189062812Y-94760596D01*
X189057828Y-94830288D01*
X189040913Y-94861264D01*
X188991206Y-94927664D01*
X188991202Y-94927671D01*
X188940908Y-95062517D01*
X188934501Y-95122116D01*
X188934501Y-95122123D01*
X188934500Y-95122135D01*
X188934500Y-98217870D01*
X188934501Y-98217876D01*
X188940908Y-98277483D01*
X188991202Y-98412328D01*
X188991206Y-98412335D01*
X189077452Y-98527544D01*
X189077455Y-98527547D01*
X189192664Y-98613793D01*
X189192671Y-98613797D01*
X189327517Y-98664091D01*
X189327516Y-98664091D01*
X189334444Y-98664835D01*
X189387127Y-98670500D01*
X190482872Y-98670499D01*
X190542483Y-98664091D01*
X190677331Y-98613796D01*
X190792546Y-98527546D01*
X190878796Y-98412331D01*
X190929091Y-98277483D01*
X190935500Y-98217873D01*
X190935499Y-95122128D01*
X190929091Y-95062517D01*
X190878796Y-94927669D01*
X190878795Y-94927668D01*
X190878793Y-94927664D01*
X190792547Y-94812455D01*
X190792544Y-94812452D01*
X190677335Y-94726206D01*
X190677332Y-94726205D01*
X190677331Y-94726204D01*
X190665246Y-94721696D01*
X190609315Y-94679827D01*
X190588625Y-94626520D01*
X190586689Y-94626906D01*
X190560502Y-94495261D01*
X190560501Y-94495260D01*
X190560501Y-94495256D01*
X190511465Y-94376873D01*
X190440277Y-94270331D01*
X190440275Y-94270329D01*
X190440273Y-94270326D01*
X190440272Y-94270325D01*
X189871722Y-93701776D01*
X189838237Y-93640453D01*
X189836182Y-93627973D01*
X189835368Y-93620745D01*
X189775789Y-93450478D01*
X189679816Y-93297738D01*
X189552262Y-93170184D01*
X189399523Y-93074211D01*
X189229254Y-93014631D01*
X189229249Y-93014630D01*
X189050004Y-92994435D01*
X189049996Y-92994435D01*
X188870750Y-93014630D01*
X188870745Y-93014631D01*
X188700476Y-93074211D01*
X188547737Y-93170184D01*
X188420184Y-93297737D01*
X188324205Y-93450485D01*
X188321485Y-93456135D01*
X188274660Y-93507993D01*
X188207232Y-93526302D01*
X188140609Y-93505251D01*
X188122087Y-93490009D01*
X188102262Y-93470184D01*
X187949523Y-93374211D01*
X187779254Y-93314631D01*
X187779249Y-93314630D01*
X187600004Y-93294435D01*
X187599996Y-93294435D01*
X187420750Y-93314630D01*
X187420745Y-93314631D01*
X187250476Y-93374211D01*
X187097737Y-93470184D01*
X186970184Y-93597737D01*
X186874211Y-93750476D01*
X186814631Y-93920745D01*
X186814630Y-93920750D01*
X186794435Y-94099996D01*
X186794435Y-94100003D01*
X186814630Y-94279249D01*
X186814631Y-94279254D01*
X186874211Y-94449523D01*
X186896381Y-94484806D01*
X186915381Y-94552043D01*
X186895013Y-94618878D01*
X186841745Y-94664092D01*
X186804642Y-94674068D01*
X186787517Y-94675909D01*
X186652672Y-94726202D01*
X186652665Y-94726206D01*
X186537456Y-94812452D01*
X186537453Y-94812455D01*
X186451207Y-94927664D01*
X186451203Y-94927671D01*
X186400909Y-95062517D01*
X186394502Y-95122116D01*
X186394502Y-95122123D01*
X186394501Y-95122135D01*
X186394501Y-98217870D01*
X185855499Y-98217870D01*
X185855498Y-95122128D01*
X185849090Y-95062517D01*
X185798795Y-94927669D01*
X185798794Y-94927668D01*
X185798792Y-94927664D01*
X185712546Y-94812455D01*
X185712543Y-94812452D01*
X185597334Y-94726206D01*
X185597327Y-94726202D01*
X185462481Y-94675908D01*
X185462482Y-94675908D01*
X185402882Y-94669501D01*
X185402880Y-94669500D01*
X185402872Y-94669500D01*
X185402863Y-94669500D01*
X184307128Y-94669500D01*
X184307122Y-94669501D01*
X184247515Y-94675908D01*
X184112670Y-94726202D01*
X184112663Y-94726206D01*
X183997454Y-94812452D01*
X183997451Y-94812455D01*
X183911205Y-94927664D01*
X183911201Y-94927671D01*
X183860907Y-95062517D01*
X183854500Y-95122116D01*
X183854500Y-95122123D01*
X183854499Y-95122135D01*
X183854499Y-98217870D01*
X183854500Y-98217876D01*
X183860907Y-98277483D01*
X183911201Y-98412328D01*
X183911205Y-98412335D01*
X183997451Y-98527544D01*
X183997454Y-98527547D01*
X184114538Y-98615197D01*
X184156409Y-98671131D01*
X184161393Y-98740822D01*
X184127907Y-98802145D01*
X184127870Y-98802183D01*
X184126736Y-98803316D01*
X184065398Y-98836774D01*
X184052988Y-98838815D01*
X184045752Y-98839630D01*
X184045744Y-98839632D01*
X183875478Y-98899210D01*
X183722737Y-98995184D01*
X183595184Y-99122737D01*
X183499211Y-99275476D01*
X183439632Y-99445744D01*
X183439631Y-99445747D01*
X183419435Y-99624996D01*
X183419435Y-99625003D01*
X182898972Y-99625003D01*
X182940501Y-99524744D01*
X182956215Y-99445745D01*
X182965500Y-99399069D01*
X182965500Y-98734141D01*
X182985185Y-98667102D01*
X183037989Y-98621347D01*
X183046149Y-98617966D01*
X183057331Y-98613796D01*
X183172546Y-98527546D01*
X183258796Y-98412331D01*
X183309091Y-98277483D01*
X183315500Y-98217873D01*
X183315499Y-95122128D01*
X183309091Y-95062517D01*
X183258796Y-94927669D01*
X183258795Y-94927668D01*
X183258793Y-94927664D01*
X183172547Y-94812455D01*
X183172544Y-94812452D01*
X183057335Y-94726206D01*
X183057328Y-94726202D01*
X182922482Y-94675908D01*
X182922483Y-94675908D01*
X182862883Y-94669501D01*
X182862881Y-94669500D01*
X182862873Y-94669500D01*
X182862864Y-94669500D01*
X181767129Y-94669500D01*
X181767123Y-94669501D01*
X181707516Y-94675908D01*
X181572671Y-94726202D01*
X181572664Y-94726206D01*
X181457455Y-94812452D01*
X181457452Y-94812455D01*
X181371206Y-94927664D01*
X181371202Y-94927671D01*
X181320908Y-95062517D01*
X181314501Y-95122116D01*
X181314501Y-95122123D01*
X181314500Y-95122135D01*
X181314500Y-98217870D01*
X181314501Y-98217876D01*
X181320908Y-98277483D01*
X181371202Y-98412328D01*
X181371206Y-98412335D01*
X181457452Y-98527544D01*
X181457455Y-98527547D01*
X181572665Y-98613794D01*
X181572667Y-98613794D01*
X181572669Y-98613796D01*
X181583830Y-98617958D01*
X181639764Y-98659826D01*
X181664184Y-98725289D01*
X181664500Y-98734141D01*
X181664500Y-99014192D01*
X181644815Y-99081231D01*
X181628181Y-99101873D01*
X180955656Y-99774397D01*
X180908929Y-99803758D01*
X180850478Y-99824210D01*
X180697737Y-99920184D01*
X180570184Y-100047737D01*
X180474211Y-100200476D01*
X180414631Y-100370745D01*
X180414630Y-100370750D01*
X180394435Y-100549996D01*
X180394435Y-100550003D01*
X148300500Y-100550003D01*
X148300500Y-87331286D01*
X151749500Y-87331286D01*
X151782753Y-87541239D01*
X151848444Y-87743414D01*
X151944951Y-87932820D01*
X152069890Y-88104786D01*
X152220213Y-88255109D01*
X152392179Y-88380048D01*
X152392181Y-88380049D01*
X152392184Y-88380051D01*
X152581588Y-88476557D01*
X152783757Y-88542246D01*
X152993713Y-88575500D01*
X152993714Y-88575500D01*
X153206286Y-88575500D01*
X153206287Y-88575500D01*
X153416243Y-88542246D01*
X153618412Y-88476557D01*
X153807816Y-88380051D01*
X153829789Y-88364086D01*
X153979786Y-88255109D01*
X153979788Y-88255106D01*
X153979792Y-88255104D01*
X154130104Y-88104792D01*
X154130106Y-88104788D01*
X154130109Y-88104786D01*
X154255048Y-87932820D01*
X154255047Y-87932820D01*
X154255051Y-87932816D01*
X154351557Y-87743412D01*
X154417246Y-87541243D01*
X154450500Y-87331287D01*
X154450500Y-87256286D01*
X191774500Y-87256286D01*
X191807753Y-87466239D01*
X191873444Y-87668414D01*
X191969951Y-87857820D01*
X192094890Y-88029786D01*
X192245213Y-88180109D01*
X192417179Y-88305048D01*
X192417181Y-88305049D01*
X192417184Y-88305051D01*
X192606588Y-88401557D01*
X192808757Y-88467246D01*
X193018713Y-88500500D01*
X193018714Y-88500500D01*
X193231286Y-88500500D01*
X193231287Y-88500500D01*
X193441243Y-88467246D01*
X193643412Y-88401557D01*
X193832816Y-88305051D01*
X193901563Y-88255104D01*
X194004786Y-88180109D01*
X194004788Y-88180106D01*
X194004792Y-88180104D01*
X194155104Y-88029792D01*
X194155106Y-88029788D01*
X194155109Y-88029786D01*
X194280048Y-87857820D01*
X194280047Y-87857820D01*
X194280051Y-87857816D01*
X194376557Y-87668412D01*
X194442246Y-87466243D01*
X194475500Y-87256287D01*
X194475500Y-87043713D01*
X194442246Y-86833757D01*
X194376557Y-86631588D01*
X194280051Y-86442184D01*
X194280049Y-86442181D01*
X194280048Y-86442179D01*
X194155109Y-86270213D01*
X194004786Y-86119890D01*
X193832820Y-85994951D01*
X193643414Y-85898444D01*
X193643413Y-85898443D01*
X193643412Y-85898443D01*
X193441243Y-85832754D01*
X193441241Y-85832753D01*
X193441240Y-85832753D01*
X193279957Y-85807208D01*
X193231287Y-85799500D01*
X193018713Y-85799500D01*
X192970042Y-85807208D01*
X192808760Y-85832753D01*
X192606585Y-85898444D01*
X192417179Y-85994951D01*
X192245213Y-86119890D01*
X192094890Y-86270213D01*
X191969951Y-86442179D01*
X191873444Y-86631585D01*
X191807753Y-86833760D01*
X191774500Y-87043713D01*
X191774500Y-87256286D01*
X154450500Y-87256286D01*
X154450500Y-87118713D01*
X154417246Y-86908757D01*
X154351557Y-86706588D01*
X154255051Y-86517184D01*
X154255049Y-86517181D01*
X154255048Y-86517179D01*
X154130109Y-86345213D01*
X153979786Y-86194890D01*
X153807820Y-86069951D01*
X153618414Y-85973444D01*
X153618413Y-85973443D01*
X153618412Y-85973443D01*
X153416243Y-85907754D01*
X153416241Y-85907753D01*
X153416240Y-85907753D01*
X153254957Y-85882208D01*
X153206287Y-85874500D01*
X152993713Y-85874500D01*
X152945042Y-85882208D01*
X152783760Y-85907753D01*
X152581585Y-85973444D01*
X152392179Y-86069951D01*
X152220213Y-86194890D01*
X152069890Y-86345213D01*
X151944951Y-86517179D01*
X151848444Y-86706585D01*
X151782753Y-86908760D01*
X151749500Y-87118713D01*
X151749500Y-87331286D01*
X148300500Y-87331286D01*
X148300500Y-87227706D01*
X148300618Y-87222297D01*
X148302241Y-87185118D01*
X148318528Y-86812080D01*
X148319468Y-86801347D01*
X148372709Y-86396938D01*
X148374582Y-86386308D01*
X148462870Y-85988068D01*
X148465668Y-85977630D01*
X148466988Y-85973444D01*
X148588319Y-85588629D01*
X148592016Y-85578473D01*
X148693711Y-85332961D01*
X148748111Y-85201627D01*
X148752669Y-85191853D01*
X148941025Y-84830024D01*
X148946407Y-84820703D01*
X149165574Y-84476680D01*
X149171765Y-84467837D01*
X149420083Y-84144224D01*
X149427021Y-84135955D01*
X149702594Y-83835220D01*
X149710220Y-83827594D01*
X150010955Y-83552021D01*
X150019224Y-83545083D01*
X150342837Y-83296765D01*
X150351680Y-83290574D01*
X150695703Y-83071407D01*
X150705024Y-83066025D01*
X151066853Y-82877669D01*
X151076627Y-82873111D01*
X151453482Y-82717012D01*
X151463629Y-82713319D01*
X151852639Y-82590665D01*
X151863068Y-82587870D01*
X152261308Y-82499582D01*
X152271938Y-82497709D01*
X152676347Y-82444468D01*
X152687080Y-82443528D01*
X153097297Y-82425617D01*
X153102706Y-82425500D01*
X153139882Y-82425500D01*
X193060118Y-82425500D01*
X193097294Y-82425500D01*
X193102702Y-82425617D01*
G37*
G04 #@! TD.AperFunction*
M02*
