%TF.GenerationSoftware,KiCad,Pcbnew,8.0.1*%
%TF.CreationDate,2025-02-17T13:43:29+05:00*%
%TF.ProjectId,pwm_servo,70776d5f-7365-4727-966f-2e6b69636164,rev?*%
%TF.SameCoordinates,Original*%
%TF.FileFunction,Drillmap*%
%TF.FilePolarity,Positive*%
%FSLAX45Y45*%
G04 Gerber Fmt 4.5, Leading zero omitted, Abs format (unit mm)*
G04 Created by KiCad (PCBNEW 8.0.1) date 2025-02-17 13:43:29*
%MOMM*%
%LPD*%
G01*
G04 APERTURE LIST*
%ADD10C,0.050000*%
%ADD11C,0.200000*%
%ADD12C,0.220000*%
G04 APERTURE END LIST*
D10*
X13757500Y-11405000D02*
X13757500Y-7405000D01*
X18757500Y-11405000D02*
G75*
G02*
X18257500Y-11905000I-500000J0D01*
G01*
X18257500Y-11905000D02*
X14257500Y-11905000D01*
X13757500Y-7405000D02*
G75*
G02*
X14257500Y-6905000I500000J0D01*
G01*
X18757500Y-7405000D02*
X18757500Y-11405000D01*
X18257500Y-6905000D02*
G75*
G02*
X18757500Y-7405000I0J-500000D01*
G01*
X14257500Y-11905000D02*
G75*
G02*
X13757500Y-11405000I0J500000D01*
G01*
X14257500Y-6905000D02*
X18257500Y-6905000D01*
D11*
D12*
X14147500Y-7295000D02*
X14367500Y-7515000D01*
X14367500Y-7295000D02*
X14147500Y-7515000D01*
X14147500Y-11295000D02*
X14367500Y-11515000D01*
X14367500Y-11295000D02*
X14147500Y-11515000D01*
X18147500Y-7295000D02*
X18367500Y-7515000D01*
X18367500Y-7295000D02*
X18147500Y-7515000D01*
X18147500Y-11295000D02*
X18367500Y-11515000D01*
X18367500Y-11295000D02*
X18147500Y-11515000D01*
D11*
X14015777Y-12218984D02*
X14015777Y-12018984D01*
X14015777Y-12018984D02*
X14063396Y-12018984D01*
X14063396Y-12018984D02*
X14091967Y-12028508D01*
X14091967Y-12028508D02*
X14111015Y-12047555D01*
X14111015Y-12047555D02*
X14120539Y-12066603D01*
X14120539Y-12066603D02*
X14130062Y-12104698D01*
X14130062Y-12104698D02*
X14130062Y-12133269D01*
X14130062Y-12133269D02*
X14120539Y-12171365D01*
X14120539Y-12171365D02*
X14111015Y-12190412D01*
X14111015Y-12190412D02*
X14091967Y-12209460D01*
X14091967Y-12209460D02*
X14063396Y-12218984D01*
X14063396Y-12218984D02*
X14015777Y-12218984D01*
X14215777Y-12218984D02*
X14215777Y-12085650D01*
X14215777Y-12123746D02*
X14225301Y-12104698D01*
X14225301Y-12104698D02*
X14234824Y-12095174D01*
X14234824Y-12095174D02*
X14253872Y-12085650D01*
X14253872Y-12085650D02*
X14272920Y-12085650D01*
X14339586Y-12218984D02*
X14339586Y-12085650D01*
X14339586Y-12018984D02*
X14330062Y-12028508D01*
X14330062Y-12028508D02*
X14339586Y-12038031D01*
X14339586Y-12038031D02*
X14349110Y-12028508D01*
X14349110Y-12028508D02*
X14339586Y-12018984D01*
X14339586Y-12018984D02*
X14339586Y-12038031D01*
X14463396Y-12218984D02*
X14444348Y-12209460D01*
X14444348Y-12209460D02*
X14434824Y-12190412D01*
X14434824Y-12190412D02*
X14434824Y-12018984D01*
X14568158Y-12218984D02*
X14549110Y-12209460D01*
X14549110Y-12209460D02*
X14539586Y-12190412D01*
X14539586Y-12190412D02*
X14539586Y-12018984D01*
X14796729Y-12218984D02*
X14796729Y-12018984D01*
X14796729Y-12018984D02*
X14863396Y-12161841D01*
X14863396Y-12161841D02*
X14930062Y-12018984D01*
X14930062Y-12018984D02*
X14930062Y-12218984D01*
X15111015Y-12218984D02*
X15111015Y-12114222D01*
X15111015Y-12114222D02*
X15101491Y-12095174D01*
X15101491Y-12095174D02*
X15082443Y-12085650D01*
X15082443Y-12085650D02*
X15044348Y-12085650D01*
X15044348Y-12085650D02*
X15025301Y-12095174D01*
X15111015Y-12209460D02*
X15091967Y-12218984D01*
X15091967Y-12218984D02*
X15044348Y-12218984D01*
X15044348Y-12218984D02*
X15025301Y-12209460D01*
X15025301Y-12209460D02*
X15015777Y-12190412D01*
X15015777Y-12190412D02*
X15015777Y-12171365D01*
X15015777Y-12171365D02*
X15025301Y-12152317D01*
X15025301Y-12152317D02*
X15044348Y-12142793D01*
X15044348Y-12142793D02*
X15091967Y-12142793D01*
X15091967Y-12142793D02*
X15111015Y-12133269D01*
X15206253Y-12085650D02*
X15206253Y-12285650D01*
X15206253Y-12095174D02*
X15225301Y-12085650D01*
X15225301Y-12085650D02*
X15263396Y-12085650D01*
X15263396Y-12085650D02*
X15282443Y-12095174D01*
X15282443Y-12095174D02*
X15291967Y-12104698D01*
X15291967Y-12104698D02*
X15301491Y-12123746D01*
X15301491Y-12123746D02*
X15301491Y-12180888D01*
X15301491Y-12180888D02*
X15291967Y-12199936D01*
X15291967Y-12199936D02*
X15282443Y-12209460D01*
X15282443Y-12209460D02*
X15263396Y-12218984D01*
X15263396Y-12218984D02*
X15225301Y-12218984D01*
X15225301Y-12218984D02*
X15206253Y-12209460D01*
X15387205Y-12199936D02*
X15396729Y-12209460D01*
X15396729Y-12209460D02*
X15387205Y-12218984D01*
X15387205Y-12218984D02*
X15377682Y-12209460D01*
X15377682Y-12209460D02*
X15387205Y-12199936D01*
X15387205Y-12199936D02*
X15387205Y-12218984D01*
X15387205Y-12095174D02*
X15396729Y-12104698D01*
X15396729Y-12104698D02*
X15387205Y-12114222D01*
X15387205Y-12114222D02*
X15377682Y-12104698D01*
X15377682Y-12104698D02*
X15387205Y-12095174D01*
X15387205Y-12095174D02*
X15387205Y-12114222D01*
X13555000Y-12447500D02*
X13755000Y-12647500D01*
X13755000Y-12447500D02*
X13555000Y-12647500D01*
X14006253Y-12458031D02*
X14015777Y-12448508D01*
X14015777Y-12448508D02*
X14034824Y-12438984D01*
X14034824Y-12438984D02*
X14082443Y-12438984D01*
X14082443Y-12438984D02*
X14101491Y-12448508D01*
X14101491Y-12448508D02*
X14111015Y-12458031D01*
X14111015Y-12458031D02*
X14120539Y-12477079D01*
X14120539Y-12477079D02*
X14120539Y-12496127D01*
X14120539Y-12496127D02*
X14111015Y-12524698D01*
X14111015Y-12524698D02*
X13996729Y-12638984D01*
X13996729Y-12638984D02*
X14120539Y-12638984D01*
X14206253Y-12619936D02*
X14215777Y-12629460D01*
X14215777Y-12629460D02*
X14206253Y-12638984D01*
X14206253Y-12638984D02*
X14196729Y-12629460D01*
X14196729Y-12629460D02*
X14206253Y-12619936D01*
X14206253Y-12619936D02*
X14206253Y-12638984D01*
X14291967Y-12458031D02*
X14301491Y-12448508D01*
X14301491Y-12448508D02*
X14320539Y-12438984D01*
X14320539Y-12438984D02*
X14368158Y-12438984D01*
X14368158Y-12438984D02*
X14387205Y-12448508D01*
X14387205Y-12448508D02*
X14396729Y-12458031D01*
X14396729Y-12458031D02*
X14406253Y-12477079D01*
X14406253Y-12477079D02*
X14406253Y-12496127D01*
X14406253Y-12496127D02*
X14396729Y-12524698D01*
X14396729Y-12524698D02*
X14282443Y-12638984D01*
X14282443Y-12638984D02*
X14406253Y-12638984D01*
X14530062Y-12438984D02*
X14549110Y-12438984D01*
X14549110Y-12438984D02*
X14568158Y-12448508D01*
X14568158Y-12448508D02*
X14577682Y-12458031D01*
X14577682Y-12458031D02*
X14587205Y-12477079D01*
X14587205Y-12477079D02*
X14596729Y-12515174D01*
X14596729Y-12515174D02*
X14596729Y-12562793D01*
X14596729Y-12562793D02*
X14587205Y-12600888D01*
X14587205Y-12600888D02*
X14577682Y-12619936D01*
X14577682Y-12619936D02*
X14568158Y-12629460D01*
X14568158Y-12629460D02*
X14549110Y-12638984D01*
X14549110Y-12638984D02*
X14530062Y-12638984D01*
X14530062Y-12638984D02*
X14511015Y-12629460D01*
X14511015Y-12629460D02*
X14501491Y-12619936D01*
X14501491Y-12619936D02*
X14491967Y-12600888D01*
X14491967Y-12600888D02*
X14482443Y-12562793D01*
X14482443Y-12562793D02*
X14482443Y-12515174D01*
X14482443Y-12515174D02*
X14491967Y-12477079D01*
X14491967Y-12477079D02*
X14501491Y-12458031D01*
X14501491Y-12458031D02*
X14511015Y-12448508D01*
X14511015Y-12448508D02*
X14530062Y-12438984D01*
X14720539Y-12438984D02*
X14739586Y-12438984D01*
X14739586Y-12438984D02*
X14758634Y-12448508D01*
X14758634Y-12448508D02*
X14768158Y-12458031D01*
X14768158Y-12458031D02*
X14777682Y-12477079D01*
X14777682Y-12477079D02*
X14787205Y-12515174D01*
X14787205Y-12515174D02*
X14787205Y-12562793D01*
X14787205Y-12562793D02*
X14777682Y-12600888D01*
X14777682Y-12600888D02*
X14768158Y-12619936D01*
X14768158Y-12619936D02*
X14758634Y-12629460D01*
X14758634Y-12629460D02*
X14739586Y-12638984D01*
X14739586Y-12638984D02*
X14720539Y-12638984D01*
X14720539Y-12638984D02*
X14701491Y-12629460D01*
X14701491Y-12629460D02*
X14691967Y-12619936D01*
X14691967Y-12619936D02*
X14682443Y-12600888D01*
X14682443Y-12600888D02*
X14672920Y-12562793D01*
X14672920Y-12562793D02*
X14672920Y-12515174D01*
X14672920Y-12515174D02*
X14682443Y-12477079D01*
X14682443Y-12477079D02*
X14691967Y-12458031D01*
X14691967Y-12458031D02*
X14701491Y-12448508D01*
X14701491Y-12448508D02*
X14720539Y-12438984D01*
X14872920Y-12638984D02*
X14872920Y-12505650D01*
X14872920Y-12524698D02*
X14882443Y-12515174D01*
X14882443Y-12515174D02*
X14901491Y-12505650D01*
X14901491Y-12505650D02*
X14930063Y-12505650D01*
X14930063Y-12505650D02*
X14949110Y-12515174D01*
X14949110Y-12515174D02*
X14958634Y-12534222D01*
X14958634Y-12534222D02*
X14958634Y-12638984D01*
X14958634Y-12534222D02*
X14968158Y-12515174D01*
X14968158Y-12515174D02*
X14987205Y-12505650D01*
X14987205Y-12505650D02*
X15015777Y-12505650D01*
X15015777Y-12505650D02*
X15034824Y-12515174D01*
X15034824Y-12515174D02*
X15044348Y-12534222D01*
X15044348Y-12534222D02*
X15044348Y-12638984D01*
X15139586Y-12638984D02*
X15139586Y-12505650D01*
X15139586Y-12524698D02*
X15149110Y-12515174D01*
X15149110Y-12515174D02*
X15168158Y-12505650D01*
X15168158Y-12505650D02*
X15196729Y-12505650D01*
X15196729Y-12505650D02*
X15215777Y-12515174D01*
X15215777Y-12515174D02*
X15225301Y-12534222D01*
X15225301Y-12534222D02*
X15225301Y-12638984D01*
X15225301Y-12534222D02*
X15234824Y-12515174D01*
X15234824Y-12515174D02*
X15253872Y-12505650D01*
X15253872Y-12505650D02*
X15282443Y-12505650D01*
X15282443Y-12505650D02*
X15301491Y-12515174D01*
X15301491Y-12515174D02*
X15311015Y-12534222D01*
X15311015Y-12534222D02*
X15311015Y-12638984D01*
X15701491Y-12429460D02*
X15530063Y-12686603D01*
X15958634Y-12438984D02*
X15977682Y-12438984D01*
X15977682Y-12438984D02*
X15996729Y-12448508D01*
X15996729Y-12448508D02*
X16006253Y-12458031D01*
X16006253Y-12458031D02*
X16015777Y-12477079D01*
X16015777Y-12477079D02*
X16025301Y-12515174D01*
X16025301Y-12515174D02*
X16025301Y-12562793D01*
X16025301Y-12562793D02*
X16015777Y-12600888D01*
X16015777Y-12600888D02*
X16006253Y-12619936D01*
X16006253Y-12619936D02*
X15996729Y-12629460D01*
X15996729Y-12629460D02*
X15977682Y-12638984D01*
X15977682Y-12638984D02*
X15958634Y-12638984D01*
X15958634Y-12638984D02*
X15939586Y-12629460D01*
X15939586Y-12629460D02*
X15930063Y-12619936D01*
X15930063Y-12619936D02*
X15920539Y-12600888D01*
X15920539Y-12600888D02*
X15911015Y-12562793D01*
X15911015Y-12562793D02*
X15911015Y-12515174D01*
X15911015Y-12515174D02*
X15920539Y-12477079D01*
X15920539Y-12477079D02*
X15930063Y-12458031D01*
X15930063Y-12458031D02*
X15939586Y-12448508D01*
X15939586Y-12448508D02*
X15958634Y-12438984D01*
X16111015Y-12619936D02*
X16120539Y-12629460D01*
X16120539Y-12629460D02*
X16111015Y-12638984D01*
X16111015Y-12638984D02*
X16101491Y-12629460D01*
X16101491Y-12629460D02*
X16111015Y-12619936D01*
X16111015Y-12619936D02*
X16111015Y-12638984D01*
X16244348Y-12438984D02*
X16263396Y-12438984D01*
X16263396Y-12438984D02*
X16282444Y-12448508D01*
X16282444Y-12448508D02*
X16291967Y-12458031D01*
X16291967Y-12458031D02*
X16301491Y-12477079D01*
X16301491Y-12477079D02*
X16311015Y-12515174D01*
X16311015Y-12515174D02*
X16311015Y-12562793D01*
X16311015Y-12562793D02*
X16301491Y-12600888D01*
X16301491Y-12600888D02*
X16291967Y-12619936D01*
X16291967Y-12619936D02*
X16282444Y-12629460D01*
X16282444Y-12629460D02*
X16263396Y-12638984D01*
X16263396Y-12638984D02*
X16244348Y-12638984D01*
X16244348Y-12638984D02*
X16225301Y-12629460D01*
X16225301Y-12629460D02*
X16215777Y-12619936D01*
X16215777Y-12619936D02*
X16206253Y-12600888D01*
X16206253Y-12600888D02*
X16196729Y-12562793D01*
X16196729Y-12562793D02*
X16196729Y-12515174D01*
X16196729Y-12515174D02*
X16206253Y-12477079D01*
X16206253Y-12477079D02*
X16215777Y-12458031D01*
X16215777Y-12458031D02*
X16225301Y-12448508D01*
X16225301Y-12448508D02*
X16244348Y-12438984D01*
X16425301Y-12524698D02*
X16406253Y-12515174D01*
X16406253Y-12515174D02*
X16396729Y-12505650D01*
X16396729Y-12505650D02*
X16387206Y-12486603D01*
X16387206Y-12486603D02*
X16387206Y-12477079D01*
X16387206Y-12477079D02*
X16396729Y-12458031D01*
X16396729Y-12458031D02*
X16406253Y-12448508D01*
X16406253Y-12448508D02*
X16425301Y-12438984D01*
X16425301Y-12438984D02*
X16463396Y-12438984D01*
X16463396Y-12438984D02*
X16482444Y-12448508D01*
X16482444Y-12448508D02*
X16491967Y-12458031D01*
X16491967Y-12458031D02*
X16501491Y-12477079D01*
X16501491Y-12477079D02*
X16501491Y-12486603D01*
X16501491Y-12486603D02*
X16491967Y-12505650D01*
X16491967Y-12505650D02*
X16482444Y-12515174D01*
X16482444Y-12515174D02*
X16463396Y-12524698D01*
X16463396Y-12524698D02*
X16425301Y-12524698D01*
X16425301Y-12524698D02*
X16406253Y-12534222D01*
X16406253Y-12534222D02*
X16396729Y-12543746D01*
X16396729Y-12543746D02*
X16387206Y-12562793D01*
X16387206Y-12562793D02*
X16387206Y-12600888D01*
X16387206Y-12600888D02*
X16396729Y-12619936D01*
X16396729Y-12619936D02*
X16406253Y-12629460D01*
X16406253Y-12629460D02*
X16425301Y-12638984D01*
X16425301Y-12638984D02*
X16463396Y-12638984D01*
X16463396Y-12638984D02*
X16482444Y-12629460D01*
X16482444Y-12629460D02*
X16491967Y-12619936D01*
X16491967Y-12619936D02*
X16501491Y-12600888D01*
X16501491Y-12600888D02*
X16501491Y-12562793D01*
X16501491Y-12562793D02*
X16491967Y-12543746D01*
X16491967Y-12543746D02*
X16482444Y-12534222D01*
X16482444Y-12534222D02*
X16463396Y-12524698D01*
X16672920Y-12438984D02*
X16634825Y-12438984D01*
X16634825Y-12438984D02*
X16615777Y-12448508D01*
X16615777Y-12448508D02*
X16606253Y-12458031D01*
X16606253Y-12458031D02*
X16587206Y-12486603D01*
X16587206Y-12486603D02*
X16577682Y-12524698D01*
X16577682Y-12524698D02*
X16577682Y-12600888D01*
X16577682Y-12600888D02*
X16587206Y-12619936D01*
X16587206Y-12619936D02*
X16596729Y-12629460D01*
X16596729Y-12629460D02*
X16615777Y-12638984D01*
X16615777Y-12638984D02*
X16653872Y-12638984D01*
X16653872Y-12638984D02*
X16672920Y-12629460D01*
X16672920Y-12629460D02*
X16682444Y-12619936D01*
X16682444Y-12619936D02*
X16691967Y-12600888D01*
X16691967Y-12600888D02*
X16691967Y-12553269D01*
X16691967Y-12553269D02*
X16682444Y-12534222D01*
X16682444Y-12534222D02*
X16672920Y-12524698D01*
X16672920Y-12524698D02*
X16653872Y-12515174D01*
X16653872Y-12515174D02*
X16615777Y-12515174D01*
X16615777Y-12515174D02*
X16596729Y-12524698D01*
X16596729Y-12524698D02*
X16587206Y-12534222D01*
X16587206Y-12534222D02*
X16577682Y-12553269D01*
X16863396Y-12438984D02*
X16825301Y-12438984D01*
X16825301Y-12438984D02*
X16806253Y-12448508D01*
X16806253Y-12448508D02*
X16796729Y-12458031D01*
X16796729Y-12458031D02*
X16777682Y-12486603D01*
X16777682Y-12486603D02*
X16768158Y-12524698D01*
X16768158Y-12524698D02*
X16768158Y-12600888D01*
X16768158Y-12600888D02*
X16777682Y-12619936D01*
X16777682Y-12619936D02*
X16787206Y-12629460D01*
X16787206Y-12629460D02*
X16806253Y-12638984D01*
X16806253Y-12638984D02*
X16844349Y-12638984D01*
X16844349Y-12638984D02*
X16863396Y-12629460D01*
X16863396Y-12629460D02*
X16872920Y-12619936D01*
X16872920Y-12619936D02*
X16882444Y-12600888D01*
X16882444Y-12600888D02*
X16882444Y-12553269D01*
X16882444Y-12553269D02*
X16872920Y-12534222D01*
X16872920Y-12534222D02*
X16863396Y-12524698D01*
X16863396Y-12524698D02*
X16844349Y-12515174D01*
X16844349Y-12515174D02*
X16806253Y-12515174D01*
X16806253Y-12515174D02*
X16787206Y-12524698D01*
X16787206Y-12524698D02*
X16777682Y-12534222D01*
X16777682Y-12534222D02*
X16768158Y-12553269D01*
X16958634Y-12438984D02*
X16958634Y-12477079D01*
X17034825Y-12438984D02*
X17034825Y-12477079D01*
X17330063Y-12715174D02*
X17320539Y-12705650D01*
X17320539Y-12705650D02*
X17301491Y-12677079D01*
X17301491Y-12677079D02*
X17291968Y-12658031D01*
X17291968Y-12658031D02*
X17282444Y-12629460D01*
X17282444Y-12629460D02*
X17272920Y-12581841D01*
X17272920Y-12581841D02*
X17272920Y-12543746D01*
X17272920Y-12543746D02*
X17282444Y-12496127D01*
X17282444Y-12496127D02*
X17291968Y-12467555D01*
X17291968Y-12467555D02*
X17301491Y-12448508D01*
X17301491Y-12448508D02*
X17320539Y-12419936D01*
X17320539Y-12419936D02*
X17330063Y-12410412D01*
X17491968Y-12505650D02*
X17491968Y-12638984D01*
X17444349Y-12429460D02*
X17396730Y-12572317D01*
X17396730Y-12572317D02*
X17520539Y-12572317D01*
X17749111Y-12638984D02*
X17749111Y-12438984D01*
X17834825Y-12638984D02*
X17834825Y-12534222D01*
X17834825Y-12534222D02*
X17825301Y-12515174D01*
X17825301Y-12515174D02*
X17806253Y-12505650D01*
X17806253Y-12505650D02*
X17777682Y-12505650D01*
X17777682Y-12505650D02*
X17758634Y-12515174D01*
X17758634Y-12515174D02*
X17749111Y-12524698D01*
X17958634Y-12638984D02*
X17939587Y-12629460D01*
X17939587Y-12629460D02*
X17930063Y-12619936D01*
X17930063Y-12619936D02*
X17920539Y-12600888D01*
X17920539Y-12600888D02*
X17920539Y-12543746D01*
X17920539Y-12543746D02*
X17930063Y-12524698D01*
X17930063Y-12524698D02*
X17939587Y-12515174D01*
X17939587Y-12515174D02*
X17958634Y-12505650D01*
X17958634Y-12505650D02*
X17987206Y-12505650D01*
X17987206Y-12505650D02*
X18006253Y-12515174D01*
X18006253Y-12515174D02*
X18015777Y-12524698D01*
X18015777Y-12524698D02*
X18025301Y-12543746D01*
X18025301Y-12543746D02*
X18025301Y-12600888D01*
X18025301Y-12600888D02*
X18015777Y-12619936D01*
X18015777Y-12619936D02*
X18006253Y-12629460D01*
X18006253Y-12629460D02*
X17987206Y-12638984D01*
X17987206Y-12638984D02*
X17958634Y-12638984D01*
X18139587Y-12638984D02*
X18120539Y-12629460D01*
X18120539Y-12629460D02*
X18111015Y-12610412D01*
X18111015Y-12610412D02*
X18111015Y-12438984D01*
X18291968Y-12629460D02*
X18272920Y-12638984D01*
X18272920Y-12638984D02*
X18234825Y-12638984D01*
X18234825Y-12638984D02*
X18215777Y-12629460D01*
X18215777Y-12629460D02*
X18206253Y-12610412D01*
X18206253Y-12610412D02*
X18206253Y-12534222D01*
X18206253Y-12534222D02*
X18215777Y-12515174D01*
X18215777Y-12515174D02*
X18234825Y-12505650D01*
X18234825Y-12505650D02*
X18272920Y-12505650D01*
X18272920Y-12505650D02*
X18291968Y-12515174D01*
X18291968Y-12515174D02*
X18301492Y-12534222D01*
X18301492Y-12534222D02*
X18301492Y-12553269D01*
X18301492Y-12553269D02*
X18206253Y-12572317D01*
X18377682Y-12629460D02*
X18396730Y-12638984D01*
X18396730Y-12638984D02*
X18434825Y-12638984D01*
X18434825Y-12638984D02*
X18453873Y-12629460D01*
X18453873Y-12629460D02*
X18463396Y-12610412D01*
X18463396Y-12610412D02*
X18463396Y-12600888D01*
X18463396Y-12600888D02*
X18453873Y-12581841D01*
X18453873Y-12581841D02*
X18434825Y-12572317D01*
X18434825Y-12572317D02*
X18406253Y-12572317D01*
X18406253Y-12572317D02*
X18387206Y-12562793D01*
X18387206Y-12562793D02*
X18377682Y-12543746D01*
X18377682Y-12543746D02*
X18377682Y-12534222D01*
X18377682Y-12534222D02*
X18387206Y-12515174D01*
X18387206Y-12515174D02*
X18406253Y-12505650D01*
X18406253Y-12505650D02*
X18434825Y-12505650D01*
X18434825Y-12505650D02*
X18453873Y-12515174D01*
X18530063Y-12715174D02*
X18539587Y-12705650D01*
X18539587Y-12705650D02*
X18558634Y-12677079D01*
X18558634Y-12677079D02*
X18568158Y-12658031D01*
X18568158Y-12658031D02*
X18577682Y-12629460D01*
X18577682Y-12629460D02*
X18587206Y-12581841D01*
X18587206Y-12581841D02*
X18587206Y-12543746D01*
X18587206Y-12543746D02*
X18577682Y-12496127D01*
X18577682Y-12496127D02*
X18568158Y-12467555D01*
X18568158Y-12467555D02*
X18558634Y-12448508D01*
X18558634Y-12448508D02*
X18539587Y-12419936D01*
X18539587Y-12419936D02*
X18530063Y-12410412D01*
X18891968Y-12715174D02*
X18882444Y-12705650D01*
X18882444Y-12705650D02*
X18863396Y-12677079D01*
X18863396Y-12677079D02*
X18853873Y-12658031D01*
X18853873Y-12658031D02*
X18844349Y-12629460D01*
X18844349Y-12629460D02*
X18834825Y-12581841D01*
X18834825Y-12581841D02*
X18834825Y-12543746D01*
X18834825Y-12543746D02*
X18844349Y-12496127D01*
X18844349Y-12496127D02*
X18853873Y-12467555D01*
X18853873Y-12467555D02*
X18863396Y-12448508D01*
X18863396Y-12448508D02*
X18882444Y-12419936D01*
X18882444Y-12419936D02*
X18891968Y-12410412D01*
X18968158Y-12505650D02*
X18968158Y-12638984D01*
X18968158Y-12524698D02*
X18977682Y-12515174D01*
X18977682Y-12515174D02*
X18996730Y-12505650D01*
X18996730Y-12505650D02*
X19025301Y-12505650D01*
X19025301Y-12505650D02*
X19044349Y-12515174D01*
X19044349Y-12515174D02*
X19053873Y-12534222D01*
X19053873Y-12534222D02*
X19053873Y-12638984D01*
X19177682Y-12638984D02*
X19158634Y-12629460D01*
X19158634Y-12629460D02*
X19149111Y-12619936D01*
X19149111Y-12619936D02*
X19139587Y-12600888D01*
X19139587Y-12600888D02*
X19139587Y-12543746D01*
X19139587Y-12543746D02*
X19149111Y-12524698D01*
X19149111Y-12524698D02*
X19158634Y-12515174D01*
X19158634Y-12515174D02*
X19177682Y-12505650D01*
X19177682Y-12505650D02*
X19206254Y-12505650D01*
X19206254Y-12505650D02*
X19225301Y-12515174D01*
X19225301Y-12515174D02*
X19234825Y-12524698D01*
X19234825Y-12524698D02*
X19244349Y-12543746D01*
X19244349Y-12543746D02*
X19244349Y-12600888D01*
X19244349Y-12600888D02*
X19234825Y-12619936D01*
X19234825Y-12619936D02*
X19225301Y-12629460D01*
X19225301Y-12629460D02*
X19206254Y-12638984D01*
X19206254Y-12638984D02*
X19177682Y-12638984D01*
X19301492Y-12505650D02*
X19377682Y-12505650D01*
X19330063Y-12438984D02*
X19330063Y-12610412D01*
X19330063Y-12610412D02*
X19339587Y-12629460D01*
X19339587Y-12629460D02*
X19358634Y-12638984D01*
X19358634Y-12638984D02*
X19377682Y-12638984D01*
X19596730Y-12505650D02*
X19596730Y-12705650D01*
X19596730Y-12515174D02*
X19615777Y-12505650D01*
X19615777Y-12505650D02*
X19653873Y-12505650D01*
X19653873Y-12505650D02*
X19672920Y-12515174D01*
X19672920Y-12515174D02*
X19682444Y-12524698D01*
X19682444Y-12524698D02*
X19691968Y-12543746D01*
X19691968Y-12543746D02*
X19691968Y-12600888D01*
X19691968Y-12600888D02*
X19682444Y-12619936D01*
X19682444Y-12619936D02*
X19672920Y-12629460D01*
X19672920Y-12629460D02*
X19653873Y-12638984D01*
X19653873Y-12638984D02*
X19615777Y-12638984D01*
X19615777Y-12638984D02*
X19596730Y-12629460D01*
X19806254Y-12638984D02*
X19787206Y-12629460D01*
X19787206Y-12629460D02*
X19777682Y-12610412D01*
X19777682Y-12610412D02*
X19777682Y-12438984D01*
X19968158Y-12638984D02*
X19968158Y-12534222D01*
X19968158Y-12534222D02*
X19958635Y-12515174D01*
X19958635Y-12515174D02*
X19939587Y-12505650D01*
X19939587Y-12505650D02*
X19901492Y-12505650D01*
X19901492Y-12505650D02*
X19882444Y-12515174D01*
X19968158Y-12629460D02*
X19949111Y-12638984D01*
X19949111Y-12638984D02*
X19901492Y-12638984D01*
X19901492Y-12638984D02*
X19882444Y-12629460D01*
X19882444Y-12629460D02*
X19872920Y-12610412D01*
X19872920Y-12610412D02*
X19872920Y-12591365D01*
X19872920Y-12591365D02*
X19882444Y-12572317D01*
X19882444Y-12572317D02*
X19901492Y-12562793D01*
X19901492Y-12562793D02*
X19949111Y-12562793D01*
X19949111Y-12562793D02*
X19968158Y-12553269D01*
X20034825Y-12505650D02*
X20111015Y-12505650D01*
X20063396Y-12438984D02*
X20063396Y-12610412D01*
X20063396Y-12610412D02*
X20072920Y-12629460D01*
X20072920Y-12629460D02*
X20091968Y-12638984D01*
X20091968Y-12638984D02*
X20111015Y-12638984D01*
X20253873Y-12629460D02*
X20234825Y-12638984D01*
X20234825Y-12638984D02*
X20196730Y-12638984D01*
X20196730Y-12638984D02*
X20177682Y-12629460D01*
X20177682Y-12629460D02*
X20168158Y-12610412D01*
X20168158Y-12610412D02*
X20168158Y-12534222D01*
X20168158Y-12534222D02*
X20177682Y-12515174D01*
X20177682Y-12515174D02*
X20196730Y-12505650D01*
X20196730Y-12505650D02*
X20234825Y-12505650D01*
X20234825Y-12505650D02*
X20253873Y-12515174D01*
X20253873Y-12515174D02*
X20263396Y-12534222D01*
X20263396Y-12534222D02*
X20263396Y-12553269D01*
X20263396Y-12553269D02*
X20168158Y-12572317D01*
X20434825Y-12638984D02*
X20434825Y-12438984D01*
X20434825Y-12629460D02*
X20415777Y-12638984D01*
X20415777Y-12638984D02*
X20377682Y-12638984D01*
X20377682Y-12638984D02*
X20358635Y-12629460D01*
X20358635Y-12629460D02*
X20349111Y-12619936D01*
X20349111Y-12619936D02*
X20339587Y-12600888D01*
X20339587Y-12600888D02*
X20339587Y-12543746D01*
X20339587Y-12543746D02*
X20349111Y-12524698D01*
X20349111Y-12524698D02*
X20358635Y-12515174D01*
X20358635Y-12515174D02*
X20377682Y-12505650D01*
X20377682Y-12505650D02*
X20415777Y-12505650D01*
X20415777Y-12505650D02*
X20434825Y-12515174D01*
X20511016Y-12715174D02*
X20520539Y-12705650D01*
X20520539Y-12705650D02*
X20539587Y-12677079D01*
X20539587Y-12677079D02*
X20549111Y-12658031D01*
X20549111Y-12658031D02*
X20558635Y-12629460D01*
X20558635Y-12629460D02*
X20568158Y-12581841D01*
X20568158Y-12581841D02*
X20568158Y-12543746D01*
X20568158Y-12543746D02*
X20558635Y-12496127D01*
X20558635Y-12496127D02*
X20549111Y-12467555D01*
X20549111Y-12467555D02*
X20539587Y-12448508D01*
X20539587Y-12448508D02*
X20520539Y-12419936D01*
X20520539Y-12419936D02*
X20511016Y-12410412D01*
M02*
