G04 #@! TF.GenerationSoftware,KiCad,Pcbnew,8.0.1*
G04 #@! TF.CreationDate,2025-02-17T13:43:14+05:00*
G04 #@! TF.ProjectId,pwm_servo,70776d5f-7365-4727-966f-2e6b69636164,rev?*
G04 #@! TF.SameCoordinates,Original*
G04 #@! TF.FileFunction,Copper,L2,Inr*
G04 #@! TF.FilePolarity,Positive*
%FSLAX46Y46*%
G04 Gerber Fmt 4.6, Leading zero omitted, Abs format (unit mm)*
G04 Created by KiCad (PCBNEW 8.0.1) date 2025-02-17 13:43:14*
%MOMM*%
%LPD*%
G01*
G04 APERTURE LIST*
G04 #@! TA.AperFunction,ViaPad*
%ADD10C,0.600000*%
G04 #@! TD*
G04 APERTURE END LIST*
D10*
X184155000Y-105965000D03*
X156215000Y-100885000D03*
X140975000Y-78025000D03*
X181615000Y-85645000D03*
X146055000Y-75485000D03*
X140975000Y-100885000D03*
X176535000Y-116125000D03*
X140975000Y-108505000D03*
X140975000Y-80565000D03*
X184155000Y-100885000D03*
X151135000Y-70405000D03*
X140975000Y-83105000D03*
X158755000Y-100885000D03*
X140975000Y-88185000D03*
X143515000Y-83105000D03*
X140975000Y-85645000D03*
X163835000Y-70405000D03*
X140975000Y-103425000D03*
X148595000Y-75485000D03*
X140975000Y-105965000D03*
X140975000Y-111045000D03*
X143515000Y-70405000D03*
X143515000Y-78025000D03*
X179075000Y-116125000D03*
X146055000Y-72945000D03*
X143515000Y-80565000D03*
X143515000Y-85645000D03*
X156215000Y-83105000D03*
X143515000Y-100885000D03*
X143515000Y-103425000D03*
X151135000Y-90725000D03*
X143515000Y-105965000D03*
X156215000Y-70405000D03*
X176535000Y-98345000D03*
X143515000Y-108505000D03*
X173995000Y-113585000D03*
X143515000Y-111045000D03*
X181615000Y-83105000D03*
X143515000Y-116125000D03*
X146055000Y-70405000D03*
X156215000Y-103425000D03*
X146055000Y-113585000D03*
X146055000Y-116125000D03*
X148595000Y-70405000D03*
X148595000Y-72945000D03*
X148595000Y-113585000D03*
X148595000Y-116125000D03*
X151135000Y-72945000D03*
X151135000Y-75485000D03*
X151135000Y-95805000D03*
X184155000Y-85645000D03*
X151135000Y-113585000D03*
X151135000Y-116125000D03*
X153675000Y-70405000D03*
X153675000Y-72945000D03*
X153675000Y-75485000D03*
X153675000Y-90725000D03*
X153675000Y-95805000D03*
X153675000Y-113585000D03*
X153675000Y-116125000D03*
X171455000Y-113585000D03*
X156215000Y-72945000D03*
X156215000Y-75485000D03*
X166375000Y-113585000D03*
X156215000Y-85645000D03*
X156215000Y-88185000D03*
X156215000Y-90725000D03*
X156215000Y-108505000D03*
X156215000Y-111045000D03*
X156215000Y-113585000D03*
X156215000Y-116125000D03*
X158755000Y-98345000D03*
X158755000Y-103425000D03*
X158755000Y-108505000D03*
X158755000Y-111045000D03*
X158755000Y-113585000D03*
X161295000Y-70405000D03*
X161295000Y-80565000D03*
X161295000Y-83105000D03*
X161295000Y-85645000D03*
X161295000Y-88185000D03*
X161295000Y-90725000D03*
X161295000Y-93265000D03*
X161295000Y-116125000D03*
X163835000Y-85645000D03*
X168915000Y-83105000D03*
X163835000Y-88185000D03*
X184155000Y-88185000D03*
X163835000Y-90725000D03*
X168915000Y-80565000D03*
X163835000Y-93265000D03*
X168915000Y-90725000D03*
X163835000Y-103425000D03*
X163835000Y-108505000D03*
X163835000Y-116125000D03*
X166375000Y-75485000D03*
X166375000Y-78025000D03*
X166375000Y-80565000D03*
X168915000Y-78025000D03*
X166375000Y-88185000D03*
X166375000Y-90725000D03*
X166375000Y-93265000D03*
X166375000Y-100885000D03*
X166375000Y-103425000D03*
X168915000Y-70405000D03*
X168915000Y-72945000D03*
X168915000Y-75485000D03*
X168915000Y-93265000D03*
X168915000Y-98345000D03*
X168915000Y-100885000D03*
X168915000Y-103425000D03*
X168915000Y-105965000D03*
X168915000Y-108505000D03*
X168915000Y-111045000D03*
X168915000Y-113585000D03*
X168915000Y-116125000D03*
X171455000Y-70405000D03*
X171455000Y-72945000D03*
X171455000Y-75485000D03*
X171455000Y-98345000D03*
X171455000Y-116125000D03*
X173995000Y-70405000D03*
X173995000Y-72945000D03*
X173995000Y-75485000D03*
X173995000Y-93265000D03*
X173995000Y-98345000D03*
X173995000Y-116125000D03*
X176535000Y-70405000D03*
X176535000Y-72945000D03*
X176535000Y-75485000D03*
X176535000Y-113585000D03*
X179075000Y-70405000D03*
X179075000Y-72945000D03*
X179075000Y-75485000D03*
X179075000Y-113585000D03*
X181615000Y-70405000D03*
X181615000Y-78025000D03*
X181615000Y-80565000D03*
X181615000Y-88185000D03*
X181615000Y-100885000D03*
X181615000Y-103425000D03*
X181615000Y-105965000D03*
X181615000Y-108505000D03*
X181615000Y-111045000D03*
X181615000Y-116125000D03*
X184155000Y-78025000D03*
X184155000Y-80565000D03*
X184155000Y-83105000D03*
X184155000Y-103425000D03*
X184155000Y-108505000D03*
X184155000Y-111045000D03*
X175625000Y-95395000D03*
X161700000Y-108525000D03*
X163350000Y-79150000D03*
X156525000Y-95250000D03*
X181925000Y-96450000D03*
X148025000Y-93075000D03*
X173413470Y-102050000D03*
X147775000Y-88450000D03*
X152357683Y-87200000D03*
X179299989Y-87225000D03*
X149150000Y-92730765D03*
X148050000Y-90942306D03*
X175723071Y-87175000D03*
X175126918Y-86050000D03*
X150569224Y-86075000D03*
X151425000Y-99150000D03*
X151165377Y-87200000D03*
X149200000Y-89153847D03*
X173934612Y-86050000D03*
X146992306Y-86025000D03*
X174605776Y-102050000D03*
X174530765Y-87175000D03*
X176394235Y-100950000D03*
X179375000Y-102100000D03*
X147850000Y-95350000D03*
X176915377Y-87200000D03*
X149376918Y-86050000D03*
X148780765Y-87175000D03*
X143125000Y-97575000D03*
X149125000Y-96307683D03*
X149175000Y-90346153D03*
X178107683Y-87200000D03*
X172146153Y-87150000D03*
X177511530Y-86075000D03*
X149175000Y-91538459D03*
X145700000Y-88225000D03*
X157800000Y-76600000D03*
X172742306Y-86025000D03*
X176990388Y-102075000D03*
X144325000Y-87325000D03*
X148184612Y-86050000D03*
X143650000Y-88325000D03*
X148050000Y-92134612D03*
X178703836Y-86100000D03*
X177586541Y-100975000D03*
X171625011Y-100900000D03*
X149973071Y-87175000D03*
X173338459Y-87150000D03*
X175201929Y-100950000D03*
X171550000Y-86025000D03*
X175798082Y-102075000D03*
X148050000Y-96550000D03*
X143125000Y-91750000D03*
X153549989Y-87225000D03*
X176319224Y-86075000D03*
X174009623Y-100925000D03*
X145800000Y-86025000D03*
X151761530Y-86075000D03*
X172817316Y-100925000D03*
X152953836Y-86100000D03*
X178182694Y-102100000D03*
X148075000Y-89750000D03*
X143100000Y-90275000D03*
X167500000Y-105450000D03*
X143100000Y-96300000D03*
X178778847Y-100975000D03*
X172221164Y-102025000D03*
X149000000Y-95350000D03*
X146396153Y-87150000D03*
X147588459Y-87150000D03*
G04 #@! TA.AperFunction,Conductor*
G36*
X182577702Y-69550617D02*
G01*
X182961771Y-69567386D01*
X182972506Y-69568326D01*
X183350971Y-69618152D01*
X183361597Y-69620025D01*
X183734284Y-69702648D01*
X183744710Y-69705442D01*
X184108765Y-69820227D01*
X184118911Y-69823920D01*
X184471578Y-69970000D01*
X184481369Y-69974566D01*
X184819942Y-70150816D01*
X184829310Y-70156224D01*
X185151244Y-70361318D01*
X185160105Y-70367523D01*
X185462930Y-70599889D01*
X185471217Y-70606843D01*
X185752635Y-70864715D01*
X185760284Y-70872364D01*
X186018156Y-71153782D01*
X186025110Y-71162069D01*
X186257476Y-71464894D01*
X186263681Y-71473755D01*
X186468775Y-71795689D01*
X186474183Y-71805057D01*
X186650430Y-72143623D01*
X186655002Y-72153427D01*
X186801075Y-72506078D01*
X186804775Y-72516244D01*
X186919554Y-72880278D01*
X186922354Y-72890727D01*
X187004971Y-73263389D01*
X187006849Y-73274042D01*
X187056671Y-73652473D01*
X187057614Y-73663249D01*
X187074382Y-74047297D01*
X187074500Y-74052706D01*
X187074500Y-114047293D01*
X187074382Y-114052702D01*
X187057614Y-114436750D01*
X187056671Y-114447526D01*
X187006849Y-114825957D01*
X187004971Y-114836610D01*
X186922354Y-115209272D01*
X186919554Y-115219721D01*
X186804775Y-115583755D01*
X186801075Y-115593921D01*
X186655002Y-115946572D01*
X186650430Y-115956376D01*
X186474183Y-116294942D01*
X186468775Y-116304310D01*
X186263681Y-116626244D01*
X186257476Y-116635105D01*
X186025110Y-116937930D01*
X186018156Y-116946217D01*
X185760284Y-117227635D01*
X185752635Y-117235284D01*
X185471217Y-117493156D01*
X185462930Y-117500110D01*
X185160105Y-117732476D01*
X185151244Y-117738681D01*
X184829310Y-117943775D01*
X184819942Y-117949183D01*
X184481376Y-118125430D01*
X184471572Y-118130002D01*
X184118921Y-118276075D01*
X184108755Y-118279775D01*
X183744721Y-118394554D01*
X183734272Y-118397354D01*
X183361610Y-118479971D01*
X183350957Y-118481849D01*
X182972526Y-118531671D01*
X182961750Y-118532614D01*
X182577703Y-118549382D01*
X182572294Y-118549500D01*
X142577706Y-118549500D01*
X142572297Y-118549382D01*
X142188249Y-118532614D01*
X142177473Y-118531671D01*
X141799042Y-118481849D01*
X141788389Y-118479971D01*
X141415727Y-118397354D01*
X141405278Y-118394554D01*
X141041244Y-118279775D01*
X141031078Y-118276075D01*
X140678427Y-118130002D01*
X140668623Y-118125430D01*
X140330057Y-117949183D01*
X140320689Y-117943775D01*
X139998755Y-117738681D01*
X139989894Y-117732476D01*
X139687069Y-117500110D01*
X139678782Y-117493156D01*
X139397364Y-117235284D01*
X139389715Y-117227635D01*
X139131843Y-116946217D01*
X139124889Y-116937930D01*
X138892523Y-116635105D01*
X138886318Y-116626244D01*
X138681224Y-116304310D01*
X138675816Y-116294942D01*
X138499569Y-115956376D01*
X138494997Y-115946572D01*
X138348924Y-115593921D01*
X138345224Y-115583755D01*
X138230442Y-115219710D01*
X138227648Y-115209284D01*
X138145025Y-114836597D01*
X138143152Y-114825971D01*
X138093326Y-114447506D01*
X138092386Y-114436771D01*
X138080140Y-114156287D01*
X141224500Y-114156287D01*
X141257754Y-114366243D01*
X141280663Y-114436750D01*
X141323444Y-114568414D01*
X141419951Y-114757820D01*
X141544890Y-114929786D01*
X141695213Y-115080109D01*
X141867179Y-115205048D01*
X141867181Y-115205049D01*
X141867184Y-115205051D01*
X142056588Y-115301557D01*
X142258757Y-115367246D01*
X142468713Y-115400500D01*
X142468714Y-115400500D01*
X142681286Y-115400500D01*
X142681287Y-115400500D01*
X142891243Y-115367246D01*
X143093412Y-115301557D01*
X143282816Y-115205051D01*
X143317637Y-115179752D01*
X143454786Y-115080109D01*
X143454788Y-115080106D01*
X143454792Y-115080104D01*
X143605104Y-114929792D01*
X143605106Y-114929788D01*
X143605109Y-114929786D01*
X143730048Y-114757820D01*
X143730047Y-114757820D01*
X143730051Y-114757816D01*
X143826557Y-114568412D01*
X143892246Y-114366243D01*
X143925500Y-114156287D01*
X181224500Y-114156287D01*
X181257754Y-114366243D01*
X181280663Y-114436750D01*
X181323444Y-114568414D01*
X181419951Y-114757820D01*
X181544890Y-114929786D01*
X181695213Y-115080109D01*
X181867179Y-115205048D01*
X181867181Y-115205049D01*
X181867184Y-115205051D01*
X182056588Y-115301557D01*
X182258757Y-115367246D01*
X182468713Y-115400500D01*
X182468714Y-115400500D01*
X182681286Y-115400500D01*
X182681287Y-115400500D01*
X182891243Y-115367246D01*
X183093412Y-115301557D01*
X183282816Y-115205051D01*
X183317637Y-115179752D01*
X183454786Y-115080109D01*
X183454788Y-115080106D01*
X183454792Y-115080104D01*
X183605104Y-114929792D01*
X183605106Y-114929788D01*
X183605109Y-114929786D01*
X183730048Y-114757820D01*
X183730047Y-114757820D01*
X183730051Y-114757816D01*
X183826557Y-114568412D01*
X183892246Y-114366243D01*
X183925500Y-114156287D01*
X183925500Y-113943713D01*
X183892246Y-113733757D01*
X183826557Y-113531588D01*
X183730051Y-113342184D01*
X183730049Y-113342181D01*
X183730048Y-113342179D01*
X183605109Y-113170213D01*
X183454786Y-113019890D01*
X183282820Y-112894951D01*
X183093414Y-112798444D01*
X183093413Y-112798443D01*
X183093412Y-112798443D01*
X182891243Y-112732754D01*
X182891241Y-112732753D01*
X182891240Y-112732753D01*
X182729957Y-112707208D01*
X182681287Y-112699500D01*
X182468713Y-112699500D01*
X182420042Y-112707208D01*
X182258760Y-112732753D01*
X182056585Y-112798444D01*
X181867179Y-112894951D01*
X181695213Y-113019890D01*
X181544890Y-113170213D01*
X181419951Y-113342179D01*
X181323444Y-113531585D01*
X181257753Y-113733760D01*
X181224500Y-113943713D01*
X181224500Y-114156287D01*
X143925500Y-114156287D01*
X143925500Y-113943713D01*
X143892246Y-113733757D01*
X143826557Y-113531588D01*
X143730051Y-113342184D01*
X143730049Y-113342181D01*
X143730048Y-113342179D01*
X143605109Y-113170213D01*
X143454786Y-113019890D01*
X143282820Y-112894951D01*
X143093414Y-112798444D01*
X143093413Y-112798443D01*
X143093412Y-112798443D01*
X142891243Y-112732754D01*
X142891241Y-112732753D01*
X142891240Y-112732753D01*
X142729957Y-112707208D01*
X142681287Y-112699500D01*
X142468713Y-112699500D01*
X142420042Y-112707208D01*
X142258760Y-112732753D01*
X142056585Y-112798444D01*
X141867179Y-112894951D01*
X141695213Y-113019890D01*
X141544890Y-113170213D01*
X141419951Y-113342179D01*
X141323444Y-113531585D01*
X141257753Y-113733760D01*
X141224500Y-113943713D01*
X141224500Y-114156287D01*
X138080140Y-114156287D01*
X138075618Y-114052702D01*
X138075500Y-114047293D01*
X138075500Y-108525003D01*
X160894435Y-108525003D01*
X160914630Y-108704249D01*
X160914631Y-108704254D01*
X160974211Y-108874523D01*
X161070184Y-109027262D01*
X161197738Y-109154816D01*
X161350478Y-109250789D01*
X161520745Y-109310368D01*
X161520750Y-109310369D01*
X161699996Y-109330565D01*
X161700000Y-109330565D01*
X161700004Y-109330565D01*
X161879249Y-109310369D01*
X161879252Y-109310368D01*
X161879255Y-109310368D01*
X162049522Y-109250789D01*
X162202262Y-109154816D01*
X162329816Y-109027262D01*
X162425789Y-108874522D01*
X162485368Y-108704255D01*
X162505565Y-108525000D01*
X162485368Y-108345745D01*
X162425789Y-108175478D01*
X162329816Y-108022738D01*
X162202262Y-107895184D01*
X162049523Y-107799211D01*
X161879254Y-107739631D01*
X161879249Y-107739630D01*
X161700004Y-107719435D01*
X161699996Y-107719435D01*
X161520750Y-107739630D01*
X161520745Y-107739631D01*
X161350476Y-107799211D01*
X161197737Y-107895184D01*
X161070184Y-108022737D01*
X160974211Y-108175476D01*
X160914631Y-108345745D01*
X160914630Y-108345750D01*
X160894435Y-108524996D01*
X160894435Y-108525003D01*
X138075500Y-108525003D01*
X138075500Y-105450003D01*
X166694435Y-105450003D01*
X166714630Y-105629249D01*
X166714631Y-105629254D01*
X166774211Y-105799523D01*
X166870184Y-105952262D01*
X166997738Y-106079816D01*
X167150478Y-106175789D01*
X167320745Y-106235368D01*
X167320750Y-106235369D01*
X167499996Y-106255565D01*
X167500000Y-106255565D01*
X167500004Y-106255565D01*
X167679249Y-106235369D01*
X167679252Y-106235368D01*
X167679255Y-106235368D01*
X167849522Y-106175789D01*
X168002262Y-106079816D01*
X168129816Y-105952262D01*
X168225789Y-105799522D01*
X168285368Y-105629255D01*
X168305565Y-105450000D01*
X168285368Y-105270745D01*
X168225789Y-105100478D01*
X168129816Y-104947738D01*
X168002262Y-104820184D01*
X167849523Y-104724211D01*
X167679254Y-104664631D01*
X167679249Y-104664630D01*
X167500004Y-104644435D01*
X167499996Y-104644435D01*
X167320750Y-104664630D01*
X167320745Y-104664631D01*
X167150476Y-104724211D01*
X166997737Y-104820184D01*
X166870184Y-104947737D01*
X166774211Y-105100476D01*
X166714631Y-105270745D01*
X166714630Y-105270750D01*
X166694435Y-105449996D01*
X166694435Y-105450003D01*
X138075500Y-105450003D01*
X138075500Y-100900003D01*
X170819446Y-100900003D01*
X170839641Y-101079249D01*
X170839642Y-101079254D01*
X170899222Y-101249523D01*
X170931238Y-101300475D01*
X170995195Y-101402262D01*
X171122749Y-101529816D01*
X171275489Y-101625789D01*
X171369837Y-101658802D01*
X171426612Y-101699523D01*
X171452360Y-101764476D01*
X171445925Y-101816796D01*
X171435794Y-101845748D01*
X171415599Y-102024996D01*
X171415599Y-102025003D01*
X171435794Y-102204249D01*
X171435795Y-102204254D01*
X171495375Y-102374523D01*
X171542501Y-102449523D01*
X171591348Y-102527262D01*
X171718902Y-102654816D01*
X171798480Y-102704818D01*
X171828380Y-102723606D01*
X171871642Y-102750789D01*
X171943088Y-102775789D01*
X172041909Y-102810368D01*
X172041914Y-102810369D01*
X172221160Y-102830565D01*
X172221164Y-102830565D01*
X172221168Y-102830565D01*
X172400413Y-102810369D01*
X172400416Y-102810368D01*
X172400419Y-102810368D01*
X172570686Y-102750789D01*
X172723426Y-102654816D01*
X172723431Y-102654810D01*
X172727347Y-102651688D01*
X172792033Y-102625278D01*
X172860729Y-102638032D01*
X172892344Y-102660952D01*
X172911208Y-102679816D01*
X173063948Y-102775789D01*
X173135394Y-102800789D01*
X173234215Y-102835368D01*
X173234220Y-102835369D01*
X173413466Y-102855565D01*
X173413470Y-102855565D01*
X173413474Y-102855565D01*
X173592719Y-102835369D01*
X173592722Y-102835368D01*
X173592725Y-102835368D01*
X173762992Y-102775789D01*
X173915732Y-102679816D01*
X173921942Y-102673606D01*
X173983265Y-102640121D01*
X174052957Y-102645105D01*
X174097304Y-102673606D01*
X174103514Y-102679816D01*
X174256254Y-102775789D01*
X174327700Y-102800789D01*
X174426521Y-102835368D01*
X174426526Y-102835369D01*
X174605772Y-102855565D01*
X174605776Y-102855565D01*
X174605780Y-102855565D01*
X174785025Y-102835369D01*
X174785028Y-102835368D01*
X174785031Y-102835368D01*
X174955298Y-102775789D01*
X175108038Y-102679816D01*
X175108043Y-102679810D01*
X175111959Y-102676688D01*
X175176645Y-102650278D01*
X175245341Y-102663032D01*
X175276956Y-102685952D01*
X175295820Y-102704816D01*
X175448560Y-102800789D01*
X175520006Y-102825789D01*
X175618827Y-102860368D01*
X175618832Y-102860369D01*
X175798078Y-102880565D01*
X175798082Y-102880565D01*
X175798086Y-102880565D01*
X175977331Y-102860369D01*
X175977334Y-102860368D01*
X175977337Y-102860368D01*
X176147604Y-102800789D01*
X176300344Y-102704816D01*
X176306554Y-102698606D01*
X176367877Y-102665121D01*
X176437569Y-102670105D01*
X176481916Y-102698606D01*
X176488126Y-102704816D01*
X176640866Y-102800789D01*
X176712312Y-102825789D01*
X176811133Y-102860368D01*
X176811138Y-102860369D01*
X176990384Y-102880565D01*
X176990388Y-102880565D01*
X176990392Y-102880565D01*
X177169637Y-102860369D01*
X177169640Y-102860368D01*
X177169643Y-102860368D01*
X177339910Y-102800789D01*
X177492650Y-102704816D01*
X177492655Y-102704810D01*
X177496571Y-102701688D01*
X177561257Y-102675278D01*
X177629953Y-102688032D01*
X177661568Y-102710952D01*
X177680432Y-102729816D01*
X177753596Y-102775788D01*
X177808629Y-102810368D01*
X177833172Y-102825789D01*
X177918267Y-102855565D01*
X178003439Y-102885368D01*
X178003444Y-102885369D01*
X178182690Y-102905565D01*
X178182694Y-102905565D01*
X178182698Y-102905565D01*
X178361943Y-102885369D01*
X178361946Y-102885368D01*
X178361949Y-102885368D01*
X178532216Y-102825789D01*
X178684956Y-102729816D01*
X178691166Y-102723606D01*
X178752489Y-102690121D01*
X178822181Y-102695105D01*
X178866528Y-102723606D01*
X178872738Y-102729816D01*
X178945902Y-102775788D01*
X179000935Y-102810368D01*
X179025478Y-102825789D01*
X179110573Y-102855565D01*
X179195745Y-102885368D01*
X179195750Y-102885369D01*
X179374996Y-102905565D01*
X179375000Y-102905565D01*
X179375004Y-102905565D01*
X179554249Y-102885369D01*
X179554252Y-102885368D01*
X179554255Y-102885368D01*
X179724522Y-102825789D01*
X179877262Y-102729816D01*
X180004816Y-102602262D01*
X180100789Y-102449522D01*
X180160368Y-102279255D01*
X180160369Y-102279249D01*
X180180565Y-102100003D01*
X180180565Y-102099996D01*
X180160369Y-101920750D01*
X180160368Y-101920745D01*
X180134124Y-101845745D01*
X180100789Y-101750478D01*
X180004816Y-101597738D01*
X179877262Y-101470184D01*
X179769165Y-101402262D01*
X179724521Y-101374210D01*
X179630173Y-101341197D01*
X179573397Y-101300475D01*
X179547649Y-101235523D01*
X179554085Y-101183203D01*
X179564215Y-101154255D01*
X179564216Y-101154248D01*
X179584412Y-100975003D01*
X179584412Y-100974996D01*
X179564216Y-100795750D01*
X179564215Y-100795745D01*
X179504635Y-100625476D01*
X179408662Y-100472737D01*
X179281109Y-100345184D01*
X179128370Y-100249211D01*
X178958101Y-100189631D01*
X178958096Y-100189630D01*
X178778851Y-100169435D01*
X178778843Y-100169435D01*
X178599597Y-100189630D01*
X178599592Y-100189631D01*
X178429323Y-100249211D01*
X178276584Y-100345184D01*
X178270375Y-100351394D01*
X178209052Y-100384879D01*
X178139360Y-100379895D01*
X178095013Y-100351394D01*
X178088803Y-100345184D01*
X177936064Y-100249211D01*
X177765795Y-100189631D01*
X177765790Y-100189630D01*
X177586545Y-100169435D01*
X177586537Y-100169435D01*
X177407291Y-100189630D01*
X177407286Y-100189631D01*
X177237017Y-100249211D01*
X177084273Y-100345187D01*
X177080345Y-100348320D01*
X177015656Y-100374723D01*
X176946962Y-100361961D01*
X176915360Y-100339047D01*
X176896497Y-100320184D01*
X176743758Y-100224211D01*
X176573489Y-100164631D01*
X176573484Y-100164630D01*
X176394239Y-100144435D01*
X176394231Y-100144435D01*
X176214985Y-100164630D01*
X176214980Y-100164631D01*
X176044711Y-100224211D01*
X175891972Y-100320184D01*
X175885763Y-100326394D01*
X175824440Y-100359879D01*
X175754748Y-100354895D01*
X175710401Y-100326394D01*
X175704191Y-100320184D01*
X175551452Y-100224211D01*
X175381183Y-100164631D01*
X175381178Y-100164630D01*
X175201933Y-100144435D01*
X175201925Y-100144435D01*
X175022679Y-100164630D01*
X175022674Y-100164631D01*
X174852405Y-100224211D01*
X174699661Y-100320187D01*
X174695733Y-100323320D01*
X174631044Y-100349723D01*
X174562350Y-100336961D01*
X174530748Y-100314047D01*
X174511885Y-100295184D01*
X174359146Y-100199211D01*
X174188877Y-100139631D01*
X174188872Y-100139630D01*
X174009627Y-100119435D01*
X174009619Y-100119435D01*
X173830373Y-100139630D01*
X173830368Y-100139631D01*
X173660099Y-100199211D01*
X173507357Y-100295186D01*
X173507353Y-100295189D01*
X173501141Y-100301401D01*
X173439815Y-100334881D01*
X173370124Y-100329890D01*
X173325787Y-100301393D01*
X173319578Y-100295184D01*
X173166839Y-100199211D01*
X172996570Y-100139631D01*
X172996565Y-100139630D01*
X172817320Y-100119435D01*
X172817312Y-100119435D01*
X172638066Y-100139630D01*
X172638061Y-100139631D01*
X172467792Y-100199211D01*
X172315046Y-100295189D01*
X172311114Y-100298324D01*
X172246423Y-100324722D01*
X172177730Y-100311956D01*
X172146135Y-100289046D01*
X172127273Y-100270184D01*
X171974534Y-100174211D01*
X171804265Y-100114631D01*
X171804260Y-100114630D01*
X171625015Y-100094435D01*
X171625007Y-100094435D01*
X171445761Y-100114630D01*
X171445756Y-100114631D01*
X171275487Y-100174211D01*
X171122748Y-100270184D01*
X170995195Y-100397737D01*
X170899222Y-100550476D01*
X170839642Y-100720745D01*
X170839641Y-100720750D01*
X170819446Y-100899996D01*
X170819446Y-100900003D01*
X138075500Y-100900003D01*
X138075500Y-99150003D01*
X150619435Y-99150003D01*
X150639630Y-99329249D01*
X150639631Y-99329254D01*
X150699211Y-99499523D01*
X150795184Y-99652262D01*
X150922738Y-99779816D01*
X151075478Y-99875789D01*
X151245745Y-99935368D01*
X151245750Y-99935369D01*
X151424996Y-99955565D01*
X151425000Y-99955565D01*
X151425004Y-99955565D01*
X151604249Y-99935369D01*
X151604252Y-99935368D01*
X151604255Y-99935368D01*
X151774522Y-99875789D01*
X151927262Y-99779816D01*
X152054816Y-99652262D01*
X152150789Y-99499522D01*
X152210368Y-99329255D01*
X152230565Y-99150000D01*
X152210368Y-98970745D01*
X152150789Y-98800478D01*
X152054816Y-98647738D01*
X151927262Y-98520184D01*
X151774523Y-98424211D01*
X151604254Y-98364631D01*
X151604249Y-98364630D01*
X151425004Y-98344435D01*
X151424996Y-98344435D01*
X151245750Y-98364630D01*
X151245745Y-98364631D01*
X151075476Y-98424211D01*
X150922737Y-98520184D01*
X150795184Y-98647737D01*
X150699211Y-98800476D01*
X150639631Y-98970745D01*
X150639630Y-98970750D01*
X150619435Y-99149996D01*
X150619435Y-99150003D01*
X138075500Y-99150003D01*
X138075500Y-96300003D01*
X142294435Y-96300003D01*
X142314630Y-96479249D01*
X142314631Y-96479254D01*
X142374211Y-96649523D01*
X142470184Y-96802262D01*
X142530240Y-96862318D01*
X142563725Y-96923641D01*
X142558741Y-96993333D01*
X142530241Y-97037679D01*
X142495186Y-97072733D01*
X142495186Y-97072734D01*
X142399211Y-97225476D01*
X142339631Y-97395745D01*
X142339630Y-97395750D01*
X142319435Y-97574996D01*
X142319435Y-97575003D01*
X142339630Y-97754249D01*
X142339631Y-97754254D01*
X142399211Y-97924523D01*
X142495184Y-98077262D01*
X142622738Y-98204816D01*
X142775478Y-98300789D01*
X142900211Y-98344435D01*
X142945745Y-98360368D01*
X142945750Y-98360369D01*
X143124996Y-98380565D01*
X143125000Y-98380565D01*
X143125004Y-98380565D01*
X143304249Y-98360369D01*
X143304252Y-98360368D01*
X143304255Y-98360368D01*
X143474522Y-98300789D01*
X143627262Y-98204816D01*
X143754816Y-98077262D01*
X143850789Y-97924522D01*
X143910368Y-97754255D01*
X143930565Y-97575000D01*
X143910368Y-97395745D01*
X143850789Y-97225478D01*
X143754816Y-97072738D01*
X143694758Y-97012680D01*
X143661274Y-96951356D01*
X143666259Y-96881665D01*
X143694758Y-96837319D01*
X143729816Y-96802262D01*
X143825789Y-96649522D01*
X143885368Y-96479255D01*
X143885369Y-96479249D01*
X143905565Y-96300003D01*
X143905565Y-96299996D01*
X143885369Y-96120750D01*
X143885368Y-96120745D01*
X143882170Y-96111607D01*
X143825789Y-95950478D01*
X143729816Y-95797738D01*
X143602262Y-95670184D01*
X143449523Y-95574211D01*
X143279254Y-95514631D01*
X143279249Y-95514630D01*
X143100004Y-95494435D01*
X143099996Y-95494435D01*
X142920750Y-95514630D01*
X142920745Y-95514631D01*
X142750476Y-95574211D01*
X142597737Y-95670184D01*
X142470184Y-95797737D01*
X142374211Y-95950476D01*
X142314631Y-96120745D01*
X142314630Y-96120750D01*
X142294435Y-96299996D01*
X142294435Y-96300003D01*
X138075500Y-96300003D01*
X138075500Y-95350003D01*
X147044435Y-95350003D01*
X147064630Y-95529249D01*
X147064631Y-95529254D01*
X147124211Y-95699523D01*
X147220184Y-95852262D01*
X147348514Y-95980592D01*
X147381999Y-96041915D01*
X147377015Y-96111607D01*
X147365827Y-96134244D01*
X147324212Y-96200474D01*
X147264631Y-96370745D01*
X147264630Y-96370750D01*
X147244435Y-96549996D01*
X147244435Y-96550003D01*
X147264630Y-96729249D01*
X147264631Y-96729254D01*
X147324211Y-96899523D01*
X147356780Y-96951356D01*
X147420184Y-97052262D01*
X147547738Y-97179816D01*
X147700478Y-97275789D01*
X147870745Y-97335368D01*
X147870750Y-97335369D01*
X148049996Y-97355565D01*
X148050000Y-97355565D01*
X148050004Y-97355565D01*
X148229249Y-97335369D01*
X148229252Y-97335368D01*
X148229255Y-97335368D01*
X148399522Y-97275789D01*
X148552262Y-97179816D01*
X148663438Y-97068640D01*
X148724761Y-97035155D01*
X148792074Y-97039280D01*
X148945737Y-97093049D01*
X148945743Y-97093050D01*
X148945745Y-97093051D01*
X148945746Y-97093051D01*
X148945750Y-97093052D01*
X149124996Y-97113248D01*
X149125000Y-97113248D01*
X149125004Y-97113248D01*
X149304249Y-97093052D01*
X149304252Y-97093051D01*
X149304255Y-97093051D01*
X149474522Y-97033472D01*
X149627262Y-96937499D01*
X149754816Y-96809945D01*
X149850789Y-96657205D01*
X149910368Y-96486938D01*
X149911234Y-96479254D01*
X149930565Y-96307686D01*
X149930565Y-96307679D01*
X149910369Y-96128433D01*
X149910368Y-96128428D01*
X149877319Y-96033980D01*
X149850789Y-95958161D01*
X149845961Y-95950478D01*
X149754818Y-95805424D01*
X149751617Y-95801411D01*
X149725207Y-95736725D01*
X149731521Y-95683140D01*
X149785366Y-95529262D01*
X149785369Y-95529249D01*
X149805565Y-95350003D01*
X149805565Y-95349996D01*
X149794299Y-95250003D01*
X155719435Y-95250003D01*
X155739630Y-95429249D01*
X155739631Y-95429254D01*
X155799211Y-95599523D01*
X155862045Y-95699522D01*
X155895184Y-95752262D01*
X156022738Y-95879816D01*
X156113080Y-95936582D01*
X156135192Y-95950476D01*
X156175478Y-95975789D01*
X156315586Y-96024815D01*
X156345745Y-96035368D01*
X156345750Y-96035369D01*
X156524996Y-96055565D01*
X156525000Y-96055565D01*
X156525004Y-96055565D01*
X156704249Y-96035369D01*
X156704252Y-96035368D01*
X156704255Y-96035368D01*
X156874522Y-95975789D01*
X157027262Y-95879816D01*
X157154816Y-95752262D01*
X157250789Y-95599522D01*
X157310368Y-95429255D01*
X157310369Y-95429249D01*
X157314228Y-95395003D01*
X174819435Y-95395003D01*
X174839630Y-95574249D01*
X174839631Y-95574254D01*
X174899211Y-95744523D01*
X174984221Y-95879815D01*
X174995184Y-95897262D01*
X175122738Y-96024816D01*
X175275478Y-96120789D01*
X175445745Y-96180368D01*
X175445750Y-96180369D01*
X175624996Y-96200565D01*
X175625000Y-96200565D01*
X175625004Y-96200565D01*
X175804249Y-96180369D01*
X175804252Y-96180368D01*
X175804255Y-96180368D01*
X175974522Y-96120789D01*
X176127262Y-96024816D01*
X176254816Y-95897262D01*
X176350789Y-95744522D01*
X176410368Y-95574255D01*
X176410373Y-95574211D01*
X176430565Y-95395003D01*
X176430565Y-95394996D01*
X176410369Y-95215750D01*
X176410368Y-95215745D01*
X176350789Y-95045478D01*
X176254816Y-94892738D01*
X176127262Y-94765184D01*
X176099495Y-94747737D01*
X175974523Y-94669211D01*
X175804254Y-94609631D01*
X175804249Y-94609630D01*
X175625004Y-94589435D01*
X175624996Y-94589435D01*
X175445750Y-94609630D01*
X175445745Y-94609631D01*
X175275476Y-94669211D01*
X175122737Y-94765184D01*
X174995184Y-94892737D01*
X174899211Y-95045476D01*
X174839631Y-95215745D01*
X174839630Y-95215750D01*
X174819435Y-95394996D01*
X174819435Y-95395003D01*
X157314228Y-95395003D01*
X157330565Y-95250003D01*
X157330565Y-95249996D01*
X157310369Y-95070750D01*
X157310368Y-95070745D01*
X157301526Y-95045476D01*
X157250789Y-94900478D01*
X157154816Y-94747738D01*
X157027262Y-94620184D01*
X157010467Y-94609631D01*
X156874523Y-94524211D01*
X156704254Y-94464631D01*
X156704249Y-94464630D01*
X156525004Y-94444435D01*
X156524996Y-94444435D01*
X156345750Y-94464630D01*
X156345745Y-94464631D01*
X156175476Y-94524211D01*
X156022737Y-94620184D01*
X155895184Y-94747737D01*
X155799211Y-94900476D01*
X155739631Y-95070745D01*
X155739630Y-95070750D01*
X155719435Y-95249996D01*
X155719435Y-95250003D01*
X149794299Y-95250003D01*
X149785369Y-95170750D01*
X149785368Y-95170745D01*
X149725788Y-95000476D01*
X149662955Y-94900478D01*
X149629816Y-94847738D01*
X149502262Y-94720184D01*
X149349523Y-94624211D01*
X149179254Y-94564631D01*
X149179249Y-94564630D01*
X149000004Y-94544435D01*
X148999996Y-94544435D01*
X148820750Y-94564630D01*
X148820745Y-94564631D01*
X148650476Y-94624211D01*
X148491842Y-94723889D01*
X148490309Y-94721449D01*
X148437557Y-94742951D01*
X148368868Y-94730156D01*
X148358433Y-94723450D01*
X148358158Y-94723889D01*
X148199523Y-94624211D01*
X148029254Y-94564631D01*
X148029249Y-94564630D01*
X147850004Y-94544435D01*
X147849996Y-94544435D01*
X147670750Y-94564630D01*
X147670745Y-94564631D01*
X147500476Y-94624211D01*
X147347737Y-94720184D01*
X147220184Y-94847737D01*
X147124211Y-95000476D01*
X147064631Y-95170745D01*
X147064630Y-95170750D01*
X147044435Y-95349996D01*
X147044435Y-95350003D01*
X138075500Y-95350003D01*
X138075500Y-90275003D01*
X142294435Y-90275003D01*
X142314630Y-90454249D01*
X142314631Y-90454254D01*
X142374211Y-90624523D01*
X142470184Y-90777262D01*
X142597737Y-90904815D01*
X142597740Y-90904817D01*
X142614794Y-90915533D01*
X142661086Y-90967867D01*
X142671735Y-91036920D01*
X142643360Y-91100769D01*
X142626141Y-91117470D01*
X142622737Y-91120184D01*
X142495184Y-91247737D01*
X142399211Y-91400476D01*
X142339631Y-91570745D01*
X142339630Y-91570750D01*
X142319435Y-91749996D01*
X142319435Y-91750003D01*
X142339630Y-91929249D01*
X142339631Y-91929254D01*
X142399211Y-92099523D01*
X142477788Y-92224576D01*
X142495184Y-92252262D01*
X142622738Y-92379816D01*
X142775478Y-92475789D01*
X142945745Y-92535368D01*
X142945750Y-92535369D01*
X143124996Y-92555565D01*
X143125000Y-92555565D01*
X143125004Y-92555565D01*
X143304249Y-92535369D01*
X143304252Y-92535368D01*
X143304255Y-92535368D01*
X143474522Y-92475789D01*
X143627262Y-92379816D01*
X143754816Y-92252262D01*
X143850789Y-92099522D01*
X143910368Y-91929255D01*
X143910369Y-91929249D01*
X143930565Y-91750003D01*
X143930565Y-91749996D01*
X143910369Y-91570750D01*
X143910368Y-91570745D01*
X143899069Y-91538455D01*
X143850789Y-91400478D01*
X143754816Y-91247738D01*
X143627262Y-91120184D01*
X143610203Y-91109465D01*
X143563913Y-91057131D01*
X143553265Y-90988078D01*
X143581640Y-90924229D01*
X143598870Y-90907519D01*
X143602246Y-90904825D01*
X143602262Y-90904816D01*
X143729816Y-90777262D01*
X143825789Y-90624522D01*
X143885368Y-90454255D01*
X143885369Y-90454249D01*
X143905565Y-90275003D01*
X143905565Y-90274996D01*
X143885369Y-90095750D01*
X143885368Y-90095745D01*
X143825789Y-89925478D01*
X143729816Y-89772738D01*
X143602262Y-89645184D01*
X143449523Y-89549211D01*
X143279254Y-89489631D01*
X143279249Y-89489630D01*
X143100004Y-89469435D01*
X143099996Y-89469435D01*
X142920750Y-89489630D01*
X142920745Y-89489631D01*
X142750476Y-89549211D01*
X142597737Y-89645184D01*
X142470184Y-89772737D01*
X142374211Y-89925476D01*
X142314631Y-90095745D01*
X142314630Y-90095750D01*
X142294435Y-90274996D01*
X142294435Y-90275003D01*
X138075500Y-90275003D01*
X138075500Y-88325003D01*
X142844435Y-88325003D01*
X142864630Y-88504249D01*
X142864631Y-88504254D01*
X142924211Y-88674523D01*
X143002754Y-88799522D01*
X143020184Y-88827262D01*
X143147738Y-88954816D01*
X143220367Y-89000452D01*
X143249884Y-89018999D01*
X143300478Y-89050789D01*
X143470745Y-89110368D01*
X143470750Y-89110369D01*
X143649996Y-89130565D01*
X143650000Y-89130565D01*
X143650004Y-89130565D01*
X143829249Y-89110369D01*
X143829252Y-89110368D01*
X143829255Y-89110368D01*
X143999522Y-89050789D01*
X144152262Y-88954816D01*
X144279816Y-88827262D01*
X144375789Y-88674522D01*
X144435368Y-88504255D01*
X144435369Y-88504249D01*
X144455565Y-88325003D01*
X144455565Y-88324997D01*
X144445218Y-88233166D01*
X144457272Y-88164344D01*
X144504621Y-88112964D01*
X144527484Y-88102240D01*
X144589804Y-88080433D01*
X144674522Y-88050789D01*
X144714293Y-88025799D01*
X144781527Y-88006799D01*
X144848362Y-88027166D01*
X144893577Y-88080433D01*
X144903484Y-88144675D01*
X144894435Y-88224994D01*
X144894435Y-88225003D01*
X144914630Y-88404249D01*
X144914631Y-88404254D01*
X144974211Y-88574523D01*
X145008598Y-88629249D01*
X145070184Y-88727262D01*
X145197738Y-88854816D01*
X145350478Y-88950789D01*
X145492407Y-89000452D01*
X145520745Y-89010368D01*
X145520750Y-89010369D01*
X145699996Y-89030565D01*
X145700000Y-89030565D01*
X145700004Y-89030565D01*
X145879249Y-89010369D01*
X145879252Y-89010368D01*
X145879255Y-89010368D01*
X146049522Y-88950789D01*
X146202262Y-88854816D01*
X146329816Y-88727262D01*
X146425789Y-88574522D01*
X146485368Y-88404255D01*
X146489399Y-88368478D01*
X146505565Y-88225003D01*
X146505565Y-88224997D01*
X146491535Y-88100478D01*
X146487890Y-88068130D01*
X146499944Y-87999309D01*
X146547293Y-87947929D01*
X146570156Y-87937205D01*
X146575404Y-87935368D01*
X146575408Y-87935368D01*
X146745675Y-87875789D01*
X146898415Y-87779816D01*
X146904625Y-87773606D01*
X146965948Y-87740121D01*
X147035640Y-87745105D01*
X147079987Y-87773606D01*
X147086197Y-87779816D01*
X147091641Y-87783237D01*
X147099140Y-87787949D01*
X147145431Y-87840284D01*
X147156078Y-87909338D01*
X147138161Y-87958914D01*
X147049211Y-88100476D01*
X146989631Y-88270745D01*
X146989630Y-88270750D01*
X146969435Y-88449996D01*
X146969435Y-88450003D01*
X146989630Y-88629249D01*
X146989631Y-88629254D01*
X147049211Y-88799523D01*
X147105398Y-88888943D01*
X147145184Y-88952262D01*
X147272738Y-89079816D01*
X147367023Y-89139059D01*
X147413314Y-89191394D01*
X147423962Y-89260447D01*
X147406045Y-89310024D01*
X147349212Y-89400474D01*
X147289631Y-89570745D01*
X147289630Y-89570750D01*
X147269435Y-89749996D01*
X147269435Y-89750003D01*
X147289630Y-89929249D01*
X147289631Y-89929254D01*
X147349211Y-90099523D01*
X147445186Y-90252265D01*
X147448316Y-90256190D01*
X147474722Y-90320877D01*
X147461963Y-90389572D01*
X147439049Y-90421178D01*
X147420184Y-90440043D01*
X147324211Y-90592782D01*
X147264631Y-90763051D01*
X147264630Y-90763056D01*
X147244435Y-90942302D01*
X147244435Y-90942309D01*
X147264630Y-91121555D01*
X147264631Y-91121560D01*
X147324211Y-91291829D01*
X147420184Y-91444568D01*
X147426394Y-91450778D01*
X147459879Y-91512101D01*
X147454895Y-91581793D01*
X147426394Y-91626140D01*
X147420184Y-91632349D01*
X147324211Y-91785088D01*
X147264631Y-91955357D01*
X147264630Y-91955362D01*
X147244435Y-92134608D01*
X147244435Y-92134615D01*
X147264630Y-92313861D01*
X147264631Y-92313866D01*
X147324211Y-92484134D01*
X147346081Y-92518940D01*
X147365081Y-92586176D01*
X147346081Y-92650883D01*
X147299209Y-92725479D01*
X147239633Y-92895737D01*
X147239630Y-92895750D01*
X147219435Y-93074996D01*
X147219435Y-93075003D01*
X147239630Y-93254249D01*
X147239631Y-93254254D01*
X147299211Y-93424523D01*
X147369465Y-93536330D01*
X147395184Y-93577262D01*
X147522738Y-93704816D01*
X147675478Y-93800789D01*
X147845745Y-93860368D01*
X147845750Y-93860369D01*
X148024996Y-93880565D01*
X148025000Y-93880565D01*
X148025004Y-93880565D01*
X148204249Y-93860369D01*
X148204252Y-93860368D01*
X148204255Y-93860368D01*
X148374522Y-93800789D01*
X148527262Y-93704816D01*
X148654816Y-93577262D01*
X148690633Y-93520257D01*
X148742966Y-93473967D01*
X148812019Y-93463317D01*
X148836582Y-93469188D01*
X148970737Y-93516131D01*
X148970743Y-93516132D01*
X148970745Y-93516133D01*
X148970746Y-93516133D01*
X148970750Y-93516134D01*
X149149996Y-93536330D01*
X149150000Y-93536330D01*
X149150004Y-93536330D01*
X149329249Y-93516134D01*
X149329252Y-93516133D01*
X149329255Y-93516133D01*
X149499522Y-93456554D01*
X149652262Y-93360581D01*
X149779816Y-93233027D01*
X149875789Y-93080287D01*
X149935368Y-92910020D01*
X149936976Y-92895750D01*
X149955565Y-92730768D01*
X149955565Y-92730761D01*
X149935369Y-92551515D01*
X149935368Y-92551510D01*
X149875788Y-92381241D01*
X149833450Y-92313861D01*
X149779816Y-92228503D01*
X149779812Y-92228499D01*
X149776684Y-92224576D01*
X149750277Y-92159888D01*
X149763035Y-92091193D01*
X149785951Y-92059585D01*
X149804816Y-92040721D01*
X149900789Y-91887981D01*
X149960368Y-91717714D01*
X149969986Y-91632350D01*
X149980565Y-91538462D01*
X149980565Y-91538455D01*
X149960369Y-91359209D01*
X149960368Y-91359204D01*
X149900788Y-91188935D01*
X149845389Y-91100769D01*
X149804816Y-91036197D01*
X149798606Y-91029987D01*
X149765121Y-90968664D01*
X149770105Y-90898972D01*
X149798606Y-90854625D01*
X149804816Y-90848415D01*
X149900789Y-90695675D01*
X149960368Y-90525408D01*
X149969986Y-90440044D01*
X149980565Y-90346156D01*
X149980565Y-90346149D01*
X149960369Y-90166903D01*
X149960368Y-90166898D01*
X149900788Y-89996629D01*
X149858450Y-89929249D01*
X149804816Y-89843891D01*
X149804812Y-89843887D01*
X149801684Y-89839964D01*
X149775277Y-89775276D01*
X149788035Y-89706581D01*
X149810951Y-89674973D01*
X149829816Y-89656109D01*
X149925789Y-89503369D01*
X149985368Y-89333102D01*
X149985369Y-89333096D01*
X150005565Y-89153850D01*
X150005565Y-89153843D01*
X149985369Y-88974597D01*
X149985368Y-88974592D01*
X149955398Y-88888943D01*
X149925789Y-88804325D01*
X149829816Y-88651585D01*
X149702262Y-88524031D01*
X149634624Y-88481531D01*
X149549523Y-88428058D01*
X149379254Y-88368478D01*
X149379249Y-88368477D01*
X149200004Y-88348282D01*
X149199996Y-88348282D01*
X149020750Y-88368477D01*
X149020745Y-88368478D01*
X148850476Y-88428058D01*
X148763198Y-88482899D01*
X148695961Y-88501899D01*
X148629126Y-88481531D01*
X148583912Y-88428263D01*
X148574006Y-88391788D01*
X148560369Y-88270749D01*
X148560366Y-88270737D01*
X148510796Y-88129074D01*
X148507234Y-88059295D01*
X148541962Y-87998668D01*
X148603956Y-87966440D01*
X148641720Y-87964899D01*
X148780761Y-87980565D01*
X148780765Y-87980565D01*
X148780769Y-87980565D01*
X148960014Y-87960369D01*
X148960017Y-87960368D01*
X148960020Y-87960368D01*
X149130287Y-87900789D01*
X149283027Y-87804816D01*
X149289237Y-87798606D01*
X149350560Y-87765121D01*
X149420252Y-87770105D01*
X149464599Y-87798606D01*
X149470809Y-87804816D01*
X149623549Y-87900789D01*
X149766438Y-87950788D01*
X149793816Y-87960368D01*
X149793821Y-87960369D01*
X149973067Y-87980565D01*
X149973071Y-87980565D01*
X149973075Y-87980565D01*
X150152320Y-87960369D01*
X150152323Y-87960368D01*
X150152326Y-87960368D01*
X150322593Y-87900789D01*
X150475333Y-87804816D01*
X150475338Y-87804810D01*
X150479254Y-87801688D01*
X150543940Y-87775278D01*
X150612636Y-87788032D01*
X150644251Y-87810952D01*
X150663115Y-87829816D01*
X150815855Y-87925789D01*
X150900950Y-87955565D01*
X150986122Y-87985368D01*
X150986127Y-87985369D01*
X151165373Y-88005565D01*
X151165377Y-88005565D01*
X151165381Y-88005565D01*
X151344626Y-87985369D01*
X151344629Y-87985368D01*
X151344632Y-87985368D01*
X151514899Y-87925789D01*
X151667639Y-87829816D01*
X151673849Y-87823606D01*
X151735172Y-87790121D01*
X151804864Y-87795105D01*
X151849211Y-87823606D01*
X151855421Y-87829816D01*
X152008161Y-87925789D01*
X152093256Y-87955565D01*
X152178428Y-87985368D01*
X152178433Y-87985369D01*
X152357679Y-88005565D01*
X152357683Y-88005565D01*
X152357687Y-88005565D01*
X152536932Y-87985369D01*
X152536935Y-87985368D01*
X152536938Y-87985368D01*
X152707205Y-87925789D01*
X152859945Y-87829816D01*
X152859950Y-87829810D01*
X152863866Y-87826688D01*
X152928552Y-87800278D01*
X152997248Y-87813032D01*
X153028863Y-87835952D01*
X153047727Y-87854816D01*
X153120891Y-87900788D01*
X153198119Y-87949314D01*
X153200467Y-87950789D01*
X153285562Y-87980565D01*
X153370734Y-88010368D01*
X153370739Y-88010369D01*
X153549985Y-88030565D01*
X153549989Y-88030565D01*
X153549993Y-88030565D01*
X153729238Y-88010369D01*
X153729241Y-88010368D01*
X153729244Y-88010368D01*
X153899511Y-87950789D01*
X154052251Y-87854816D01*
X154179805Y-87727262D01*
X154275778Y-87574522D01*
X154335357Y-87404255D01*
X154335358Y-87404249D01*
X154355554Y-87225003D01*
X154355554Y-87224996D01*
X154335358Y-87045750D01*
X154335357Y-87045745D01*
X154275778Y-86875478D01*
X154179805Y-86722738D01*
X154052251Y-86595184D01*
X153963839Y-86539631D01*
X153899510Y-86499210D01*
X153805162Y-86466197D01*
X153748386Y-86425475D01*
X153722638Y-86360523D01*
X153729074Y-86308203D01*
X153739204Y-86279255D01*
X153739205Y-86279248D01*
X153759401Y-86100003D01*
X153759401Y-86099996D01*
X153750951Y-86025003D01*
X170744435Y-86025003D01*
X170764630Y-86204249D01*
X170764631Y-86204254D01*
X170824211Y-86374523D01*
X170856227Y-86425475D01*
X170920184Y-86527262D01*
X171047738Y-86654816D01*
X171200478Y-86750789D01*
X171294826Y-86783802D01*
X171351601Y-86824523D01*
X171377349Y-86889476D01*
X171370914Y-86941796D01*
X171360783Y-86970748D01*
X171340588Y-87149996D01*
X171340588Y-87150003D01*
X171360783Y-87329249D01*
X171360784Y-87329254D01*
X171420364Y-87499523D01*
X171483003Y-87599211D01*
X171516337Y-87652262D01*
X171643891Y-87779816D01*
X171796631Y-87875789D01*
X171868077Y-87900789D01*
X171966898Y-87935368D01*
X171966903Y-87935369D01*
X172146149Y-87955565D01*
X172146153Y-87955565D01*
X172146157Y-87955565D01*
X172325402Y-87935369D01*
X172325405Y-87935368D01*
X172325408Y-87935368D01*
X172495675Y-87875789D01*
X172648415Y-87779816D01*
X172654625Y-87773606D01*
X172715948Y-87740121D01*
X172785640Y-87745105D01*
X172829987Y-87773606D01*
X172836197Y-87779816D01*
X172988937Y-87875789D01*
X173060383Y-87900789D01*
X173159204Y-87935368D01*
X173159209Y-87935369D01*
X173338455Y-87955565D01*
X173338459Y-87955565D01*
X173338463Y-87955565D01*
X173517708Y-87935369D01*
X173517711Y-87935368D01*
X173517714Y-87935368D01*
X173687981Y-87875789D01*
X173840721Y-87779816D01*
X173840726Y-87779810D01*
X173844642Y-87776688D01*
X173909328Y-87750278D01*
X173978024Y-87763032D01*
X174009639Y-87785952D01*
X174028503Y-87804816D01*
X174181243Y-87900789D01*
X174324132Y-87950788D01*
X174351510Y-87960368D01*
X174351515Y-87960369D01*
X174530761Y-87980565D01*
X174530765Y-87980565D01*
X174530769Y-87980565D01*
X174710014Y-87960369D01*
X174710017Y-87960368D01*
X174710020Y-87960368D01*
X174880287Y-87900789D01*
X175033027Y-87804816D01*
X175039237Y-87798606D01*
X175100560Y-87765121D01*
X175170252Y-87770105D01*
X175214599Y-87798606D01*
X175220809Y-87804816D01*
X175373549Y-87900789D01*
X175516438Y-87950788D01*
X175543816Y-87960368D01*
X175543821Y-87960369D01*
X175723067Y-87980565D01*
X175723071Y-87980565D01*
X175723075Y-87980565D01*
X175902320Y-87960369D01*
X175902323Y-87960368D01*
X175902326Y-87960368D01*
X176072593Y-87900789D01*
X176225333Y-87804816D01*
X176225338Y-87804810D01*
X176229254Y-87801688D01*
X176293940Y-87775278D01*
X176362636Y-87788032D01*
X176394251Y-87810952D01*
X176413115Y-87829816D01*
X176565855Y-87925789D01*
X176650950Y-87955565D01*
X176736122Y-87985368D01*
X176736127Y-87985369D01*
X176915373Y-88005565D01*
X176915377Y-88005565D01*
X176915381Y-88005565D01*
X177094626Y-87985369D01*
X177094629Y-87985368D01*
X177094632Y-87985368D01*
X177264899Y-87925789D01*
X177417639Y-87829816D01*
X177423849Y-87823606D01*
X177485172Y-87790121D01*
X177554864Y-87795105D01*
X177599211Y-87823606D01*
X177605421Y-87829816D01*
X177758161Y-87925789D01*
X177843256Y-87955565D01*
X177928428Y-87985368D01*
X177928433Y-87985369D01*
X178107679Y-88005565D01*
X178107683Y-88005565D01*
X178107687Y-88005565D01*
X178286932Y-87985369D01*
X178286935Y-87985368D01*
X178286938Y-87985368D01*
X178457205Y-87925789D01*
X178609945Y-87829816D01*
X178609950Y-87829810D01*
X178613866Y-87826688D01*
X178678552Y-87800278D01*
X178747248Y-87813032D01*
X178778863Y-87835952D01*
X178797727Y-87854816D01*
X178870891Y-87900788D01*
X178948119Y-87949314D01*
X178950467Y-87950789D01*
X179035562Y-87980565D01*
X179120734Y-88010368D01*
X179120739Y-88010369D01*
X179299985Y-88030565D01*
X179299989Y-88030565D01*
X179299993Y-88030565D01*
X179479238Y-88010369D01*
X179479241Y-88010368D01*
X179479244Y-88010368D01*
X179649511Y-87950789D01*
X179802251Y-87854816D01*
X179929805Y-87727262D01*
X180025778Y-87574522D01*
X180085357Y-87404255D01*
X180085358Y-87404249D01*
X180105554Y-87225003D01*
X180105554Y-87224996D01*
X180085358Y-87045750D01*
X180085357Y-87045745D01*
X180025778Y-86875478D01*
X179929805Y-86722738D01*
X179802251Y-86595184D01*
X179713839Y-86539631D01*
X179649510Y-86499210D01*
X179555162Y-86466197D01*
X179498386Y-86425475D01*
X179472638Y-86360523D01*
X179479074Y-86308203D01*
X179489204Y-86279255D01*
X179489205Y-86279248D01*
X179509401Y-86100003D01*
X179509401Y-86099996D01*
X179489205Y-85920750D01*
X179489204Y-85920745D01*
X179429624Y-85750476D01*
X179333651Y-85597737D01*
X179206098Y-85470184D01*
X179053359Y-85374211D01*
X178883090Y-85314631D01*
X178883085Y-85314630D01*
X178703840Y-85294435D01*
X178703832Y-85294435D01*
X178524586Y-85314630D01*
X178524581Y-85314631D01*
X178354312Y-85374211D01*
X178201568Y-85470187D01*
X178197640Y-85473320D01*
X178132951Y-85499723D01*
X178064257Y-85486961D01*
X178032655Y-85464047D01*
X178013792Y-85445184D01*
X177861053Y-85349211D01*
X177690784Y-85289631D01*
X177690779Y-85289630D01*
X177511534Y-85269435D01*
X177511526Y-85269435D01*
X177332280Y-85289630D01*
X177332275Y-85289631D01*
X177162006Y-85349211D01*
X177009267Y-85445184D01*
X177003058Y-85451394D01*
X176941735Y-85484879D01*
X176872043Y-85479895D01*
X176827696Y-85451394D01*
X176821486Y-85445184D01*
X176668747Y-85349211D01*
X176498478Y-85289631D01*
X176498473Y-85289630D01*
X176319228Y-85269435D01*
X176319220Y-85269435D01*
X176139974Y-85289630D01*
X176139969Y-85289631D01*
X175969700Y-85349211D01*
X175816956Y-85445187D01*
X175813028Y-85448320D01*
X175748339Y-85474723D01*
X175679645Y-85461961D01*
X175648043Y-85439047D01*
X175629180Y-85420184D01*
X175476441Y-85324211D01*
X175306172Y-85264631D01*
X175306167Y-85264630D01*
X175126922Y-85244435D01*
X175126914Y-85244435D01*
X174947668Y-85264630D01*
X174947663Y-85264631D01*
X174777394Y-85324211D01*
X174624655Y-85420184D01*
X174618446Y-85426394D01*
X174557123Y-85459879D01*
X174487431Y-85454895D01*
X174443084Y-85426394D01*
X174436874Y-85420184D01*
X174284135Y-85324211D01*
X174113866Y-85264631D01*
X174113861Y-85264630D01*
X173934616Y-85244435D01*
X173934608Y-85244435D01*
X173755362Y-85264630D01*
X173755357Y-85264631D01*
X173585088Y-85324211D01*
X173432344Y-85420187D01*
X173428416Y-85423320D01*
X173363727Y-85449723D01*
X173295033Y-85436961D01*
X173263431Y-85414047D01*
X173244568Y-85395184D01*
X173091829Y-85299211D01*
X172921560Y-85239631D01*
X172921555Y-85239630D01*
X172742310Y-85219435D01*
X172742302Y-85219435D01*
X172563056Y-85239630D01*
X172563051Y-85239631D01*
X172392782Y-85299211D01*
X172240043Y-85395184D01*
X172233834Y-85401394D01*
X172172511Y-85434879D01*
X172102819Y-85429895D01*
X172058472Y-85401394D01*
X172052262Y-85395184D01*
X171899523Y-85299211D01*
X171729254Y-85239631D01*
X171729249Y-85239630D01*
X171550004Y-85219435D01*
X171549996Y-85219435D01*
X171370750Y-85239630D01*
X171370745Y-85239631D01*
X171200476Y-85299211D01*
X171047737Y-85395184D01*
X170920184Y-85522737D01*
X170824211Y-85675476D01*
X170764631Y-85845745D01*
X170764630Y-85845750D01*
X170744435Y-86024996D01*
X170744435Y-86025003D01*
X153750951Y-86025003D01*
X153739205Y-85920750D01*
X153739204Y-85920745D01*
X153679624Y-85750476D01*
X153583651Y-85597737D01*
X153456098Y-85470184D01*
X153303359Y-85374211D01*
X153133090Y-85314631D01*
X153133085Y-85314630D01*
X152953840Y-85294435D01*
X152953832Y-85294435D01*
X152774586Y-85314630D01*
X152774581Y-85314631D01*
X152604312Y-85374211D01*
X152451568Y-85470187D01*
X152447640Y-85473320D01*
X152382951Y-85499723D01*
X152314257Y-85486961D01*
X152282655Y-85464047D01*
X152263792Y-85445184D01*
X152111053Y-85349211D01*
X151940784Y-85289631D01*
X151940779Y-85289630D01*
X151761534Y-85269435D01*
X151761526Y-85269435D01*
X151582280Y-85289630D01*
X151582275Y-85289631D01*
X151412006Y-85349211D01*
X151259267Y-85445184D01*
X151253058Y-85451394D01*
X151191735Y-85484879D01*
X151122043Y-85479895D01*
X151077696Y-85451394D01*
X151071486Y-85445184D01*
X150918747Y-85349211D01*
X150748478Y-85289631D01*
X150748473Y-85289630D01*
X150569228Y-85269435D01*
X150569220Y-85269435D01*
X150389974Y-85289630D01*
X150389969Y-85289631D01*
X150219700Y-85349211D01*
X150066956Y-85445187D01*
X150063028Y-85448320D01*
X149998339Y-85474723D01*
X149929645Y-85461961D01*
X149898043Y-85439047D01*
X149879180Y-85420184D01*
X149726441Y-85324211D01*
X149556172Y-85264631D01*
X149556167Y-85264630D01*
X149376922Y-85244435D01*
X149376914Y-85244435D01*
X149197668Y-85264630D01*
X149197663Y-85264631D01*
X149027394Y-85324211D01*
X148874655Y-85420184D01*
X148868446Y-85426394D01*
X148807123Y-85459879D01*
X148737431Y-85454895D01*
X148693084Y-85426394D01*
X148686874Y-85420184D01*
X148534135Y-85324211D01*
X148363866Y-85264631D01*
X148363861Y-85264630D01*
X148184616Y-85244435D01*
X148184608Y-85244435D01*
X148005362Y-85264630D01*
X148005357Y-85264631D01*
X147835088Y-85324211D01*
X147682344Y-85420187D01*
X147678416Y-85423320D01*
X147613727Y-85449723D01*
X147545033Y-85436961D01*
X147513431Y-85414047D01*
X147494568Y-85395184D01*
X147341829Y-85299211D01*
X147171560Y-85239631D01*
X147171555Y-85239630D01*
X146992310Y-85219435D01*
X146992302Y-85219435D01*
X146813056Y-85239630D01*
X146813051Y-85239631D01*
X146642782Y-85299211D01*
X146490043Y-85395184D01*
X146483834Y-85401394D01*
X146422511Y-85434879D01*
X146352819Y-85429895D01*
X146308472Y-85401394D01*
X146302262Y-85395184D01*
X146149523Y-85299211D01*
X145979254Y-85239631D01*
X145979249Y-85239630D01*
X145800004Y-85219435D01*
X145799996Y-85219435D01*
X145620750Y-85239630D01*
X145620745Y-85239631D01*
X145450476Y-85299211D01*
X145297737Y-85395184D01*
X145170184Y-85522737D01*
X145074211Y-85675476D01*
X145014631Y-85845745D01*
X145014630Y-85845750D01*
X144994435Y-86024996D01*
X144994435Y-86025003D01*
X145014630Y-86204249D01*
X145014631Y-86204254D01*
X145074211Y-86374523D01*
X145106227Y-86425475D01*
X145170184Y-86527262D01*
X145297738Y-86654816D01*
X145450478Y-86750789D01*
X145544826Y-86783802D01*
X145601601Y-86824523D01*
X145627349Y-86889476D01*
X145620914Y-86941796D01*
X145610783Y-86970748D01*
X145590588Y-87149996D01*
X145590588Y-87150003D01*
X145608262Y-87306870D01*
X145596207Y-87375692D01*
X145548858Y-87427071D01*
X145525996Y-87437795D01*
X145520746Y-87439631D01*
X145520745Y-87439632D01*
X145477186Y-87454873D01*
X145350475Y-87499211D01*
X145310706Y-87524200D01*
X145243469Y-87543200D01*
X145176634Y-87522832D01*
X145131421Y-87469563D01*
X145121515Y-87405322D01*
X145130565Y-87325002D01*
X145130565Y-87324996D01*
X145110369Y-87145750D01*
X145110368Y-87145745D01*
X145050788Y-86975476D01*
X144987955Y-86875478D01*
X144954816Y-86822738D01*
X144827262Y-86695184D01*
X144763017Y-86654816D01*
X144674523Y-86599211D01*
X144504254Y-86539631D01*
X144504249Y-86539630D01*
X144325004Y-86519435D01*
X144324996Y-86519435D01*
X144145750Y-86539630D01*
X144145745Y-86539631D01*
X143975476Y-86599211D01*
X143822737Y-86695184D01*
X143695184Y-86822737D01*
X143599211Y-86975476D01*
X143539631Y-87145745D01*
X143539630Y-87145750D01*
X143519435Y-87324996D01*
X143519435Y-87325005D01*
X143529781Y-87416836D01*
X143517726Y-87485657D01*
X143470377Y-87537036D01*
X143447516Y-87547759D01*
X143300480Y-87599209D01*
X143147737Y-87695184D01*
X143020184Y-87822737D01*
X142924211Y-87975476D01*
X142864631Y-88145745D01*
X142864630Y-88145750D01*
X142844435Y-88324996D01*
X142844435Y-88325003D01*
X138075500Y-88325003D01*
X138075500Y-79150003D01*
X162544435Y-79150003D01*
X162564630Y-79329249D01*
X162564631Y-79329254D01*
X162624211Y-79499523D01*
X162720184Y-79652262D01*
X162847738Y-79779816D01*
X163000478Y-79875789D01*
X163170745Y-79935368D01*
X163170750Y-79935369D01*
X163349996Y-79955565D01*
X163350000Y-79955565D01*
X163350004Y-79955565D01*
X163529249Y-79935369D01*
X163529252Y-79935368D01*
X163529255Y-79935368D01*
X163699522Y-79875789D01*
X163852262Y-79779816D01*
X163979816Y-79652262D01*
X164075789Y-79499522D01*
X164135368Y-79329255D01*
X164155565Y-79150000D01*
X164135368Y-78970745D01*
X164075789Y-78800478D01*
X163979816Y-78647738D01*
X163852262Y-78520184D01*
X163699523Y-78424211D01*
X163529254Y-78364631D01*
X163529249Y-78364630D01*
X163350004Y-78344435D01*
X163349996Y-78344435D01*
X163170750Y-78364630D01*
X163170745Y-78364631D01*
X163000476Y-78424211D01*
X162847737Y-78520184D01*
X162720184Y-78647737D01*
X162624211Y-78800476D01*
X162564631Y-78970745D01*
X162564630Y-78970750D01*
X162544435Y-79149996D01*
X162544435Y-79150003D01*
X138075500Y-79150003D01*
X138075500Y-76600003D01*
X156994435Y-76600003D01*
X157014630Y-76779249D01*
X157014631Y-76779254D01*
X157074211Y-76949523D01*
X157170184Y-77102262D01*
X157297738Y-77229816D01*
X157450478Y-77325789D01*
X157620745Y-77385368D01*
X157620750Y-77385369D01*
X157799996Y-77405565D01*
X157800000Y-77405565D01*
X157800004Y-77405565D01*
X157979249Y-77385369D01*
X157979252Y-77385368D01*
X157979255Y-77385368D01*
X158149522Y-77325789D01*
X158302262Y-77229816D01*
X158429816Y-77102262D01*
X158525789Y-76949522D01*
X158585368Y-76779255D01*
X158605565Y-76600000D01*
X158585368Y-76420745D01*
X158525789Y-76250478D01*
X158429816Y-76097738D01*
X158302262Y-75970184D01*
X158149523Y-75874211D01*
X157979254Y-75814631D01*
X157979249Y-75814630D01*
X157800004Y-75794435D01*
X157799996Y-75794435D01*
X157620750Y-75814630D01*
X157620745Y-75814631D01*
X157450476Y-75874211D01*
X157297737Y-75970184D01*
X157170184Y-76097737D01*
X157074211Y-76250476D01*
X157014631Y-76420745D01*
X157014630Y-76420750D01*
X156994435Y-76599996D01*
X156994435Y-76600003D01*
X138075500Y-76600003D01*
X138075500Y-74156286D01*
X141224500Y-74156286D01*
X141257753Y-74366239D01*
X141323444Y-74568414D01*
X141419951Y-74757820D01*
X141544890Y-74929786D01*
X141695213Y-75080109D01*
X141867179Y-75205048D01*
X141867181Y-75205049D01*
X141867184Y-75205051D01*
X142056588Y-75301557D01*
X142258757Y-75367246D01*
X142468713Y-75400500D01*
X142468714Y-75400500D01*
X142681286Y-75400500D01*
X142681287Y-75400500D01*
X142891243Y-75367246D01*
X143093412Y-75301557D01*
X143282816Y-75205051D01*
X143304789Y-75189086D01*
X143454786Y-75080109D01*
X143454788Y-75080106D01*
X143454792Y-75080104D01*
X143605104Y-74929792D01*
X143605106Y-74929788D01*
X143605109Y-74929786D01*
X143730048Y-74757820D01*
X143730047Y-74757820D01*
X143730051Y-74757816D01*
X143826557Y-74568412D01*
X143892246Y-74366243D01*
X143925500Y-74156287D01*
X143925500Y-74156286D01*
X181224500Y-74156286D01*
X181257753Y-74366239D01*
X181323444Y-74568414D01*
X181419951Y-74757820D01*
X181544890Y-74929786D01*
X181695213Y-75080109D01*
X181867179Y-75205048D01*
X181867181Y-75205049D01*
X181867184Y-75205051D01*
X182056588Y-75301557D01*
X182258757Y-75367246D01*
X182468713Y-75400500D01*
X182468714Y-75400500D01*
X182681286Y-75400500D01*
X182681287Y-75400500D01*
X182891243Y-75367246D01*
X183093412Y-75301557D01*
X183282816Y-75205051D01*
X183304789Y-75189086D01*
X183454786Y-75080109D01*
X183454788Y-75080106D01*
X183454792Y-75080104D01*
X183605104Y-74929792D01*
X183605106Y-74929788D01*
X183605109Y-74929786D01*
X183730048Y-74757820D01*
X183730047Y-74757820D01*
X183730051Y-74757816D01*
X183826557Y-74568412D01*
X183892246Y-74366243D01*
X183925500Y-74156287D01*
X183925500Y-73943713D01*
X183892246Y-73733757D01*
X183826557Y-73531588D01*
X183730051Y-73342184D01*
X183730049Y-73342181D01*
X183730048Y-73342179D01*
X183605109Y-73170213D01*
X183454786Y-73019890D01*
X183282820Y-72894951D01*
X183093414Y-72798444D01*
X183093413Y-72798443D01*
X183093412Y-72798443D01*
X182891243Y-72732754D01*
X182891241Y-72732753D01*
X182891240Y-72732753D01*
X182729957Y-72707208D01*
X182681287Y-72699500D01*
X182468713Y-72699500D01*
X182420042Y-72707208D01*
X182258760Y-72732753D01*
X182056585Y-72798444D01*
X181867179Y-72894951D01*
X181695213Y-73019890D01*
X181544890Y-73170213D01*
X181419951Y-73342179D01*
X181323444Y-73531585D01*
X181257753Y-73733760D01*
X181224500Y-73943713D01*
X181224500Y-74156286D01*
X143925500Y-74156286D01*
X143925500Y-73943713D01*
X143892246Y-73733757D01*
X143826557Y-73531588D01*
X143730051Y-73342184D01*
X143730049Y-73342181D01*
X143730048Y-73342179D01*
X143605109Y-73170213D01*
X143454786Y-73019890D01*
X143282820Y-72894951D01*
X143093414Y-72798444D01*
X143093413Y-72798443D01*
X143093412Y-72798443D01*
X142891243Y-72732754D01*
X142891241Y-72732753D01*
X142891240Y-72732753D01*
X142729957Y-72707208D01*
X142681287Y-72699500D01*
X142468713Y-72699500D01*
X142420042Y-72707208D01*
X142258760Y-72732753D01*
X142056585Y-72798444D01*
X141867179Y-72894951D01*
X141695213Y-73019890D01*
X141544890Y-73170213D01*
X141419951Y-73342179D01*
X141323444Y-73531585D01*
X141257753Y-73733760D01*
X141224500Y-73943713D01*
X141224500Y-74156286D01*
X138075500Y-74156286D01*
X138075500Y-74052706D01*
X138075618Y-74047297D01*
X138078377Y-73984108D01*
X138092386Y-73663226D01*
X138093326Y-73652495D01*
X138143152Y-73274025D01*
X138145025Y-73263405D01*
X138227649Y-72890709D01*
X138230440Y-72880295D01*
X138345230Y-72516227D01*
X138348917Y-72506095D01*
X138495003Y-72153412D01*
X138499561Y-72143638D01*
X138675822Y-71805045D01*
X138681217Y-71795700D01*
X138886325Y-71473744D01*
X138892515Y-71464905D01*
X139124896Y-71162060D01*
X139131834Y-71153791D01*
X139389726Y-70872352D01*
X139397352Y-70864726D01*
X139678791Y-70606834D01*
X139687060Y-70599896D01*
X139989905Y-70367515D01*
X139998744Y-70361325D01*
X140320700Y-70156217D01*
X140330045Y-70150822D01*
X140668638Y-69974561D01*
X140678412Y-69970003D01*
X141031095Y-69823917D01*
X141041227Y-69820230D01*
X141405295Y-69705440D01*
X141415709Y-69702649D01*
X141788405Y-69620025D01*
X141799025Y-69618152D01*
X142177495Y-69568326D01*
X142188226Y-69567386D01*
X142572297Y-69550617D01*
X142577706Y-69550500D01*
X142640892Y-69550500D01*
X182509108Y-69550500D01*
X182572294Y-69550500D01*
X182577702Y-69550617D01*
G37*
G04 #@! TD.AperFunction*
M02*
