%TF.GenerationSoftware,KiCad,Pcbnew,8.0.1*%
%TF.CreationDate,2025-02-17T13:43:29+05:00*%
%TF.ProjectId,pwm_servo,70776d5f-7365-4727-966f-2e6b69636164,rev?*%
%TF.SameCoordinates,Original*%
%TF.FileFunction,Drillmap*%
%TF.FilePolarity,Positive*%
%FSLAX45Y45*%
G04 Gerber Fmt 4.5, Leading zero omitted, Abs format (unit mm)*
G04 Created by KiCad (PCBNEW 8.0.1) date 2025-02-17 13:43:29*
%MOMM*%
%LPD*%
G01*
G04 APERTURE LIST*
%ADD10C,0.050000*%
%ADD11C,0.200000*%
%ADD12C,0.100000*%
G04 APERTURE END LIST*
D10*
X13757500Y-11405000D02*
X13757500Y-7405000D01*
X18757500Y-11405000D02*
G75*
G02*
X18257500Y-11905000I-500000J0D01*
G01*
X18257500Y-11905000D02*
X14257500Y-11905000D01*
X13757500Y-7405000D02*
G75*
G02*
X14257500Y-6905000I500000J0D01*
G01*
X18757500Y-7405000D02*
X18757500Y-11405000D01*
X18257500Y-6905000D02*
G75*
G02*
X18757500Y-7405000I0J-500000D01*
G01*
X14257500Y-11905000D02*
G75*
G02*
X13757500Y-11405000I0J500000D01*
G01*
X14257500Y-6905000D02*
X18257500Y-6905000D01*
D11*
D12*
X14082500Y-7787500D02*
X14112500Y-7817500D01*
X14112500Y-7787500D02*
X14082500Y-7817500D01*
X14082500Y-8041500D02*
X14112500Y-8071500D01*
X14112500Y-8041500D02*
X14082500Y-8071500D01*
X14082500Y-8295500D02*
X14112500Y-8325500D01*
X14112500Y-8295500D02*
X14082500Y-8325500D01*
X14082500Y-8549500D02*
X14112500Y-8579500D01*
X14112500Y-8549500D02*
X14082500Y-8579500D01*
X14082500Y-8803500D02*
X14112500Y-8833500D01*
X14112500Y-8803500D02*
X14082500Y-8833500D01*
X14082500Y-10073500D02*
X14112500Y-10103500D01*
X14112500Y-10073500D02*
X14082500Y-10103500D01*
X14082500Y-10327500D02*
X14112500Y-10357500D01*
X14112500Y-10327500D02*
X14082500Y-10357500D01*
X14082500Y-10581500D02*
X14112500Y-10611500D01*
X14112500Y-10581500D02*
X14082500Y-10611500D01*
X14082500Y-10835500D02*
X14112500Y-10865500D01*
X14112500Y-10835500D02*
X14082500Y-10865500D01*
X14082500Y-11089500D02*
X14112500Y-11119500D01*
X14112500Y-11089500D02*
X14082500Y-11119500D01*
X14295000Y-9012500D02*
X14325000Y-9042500D01*
X14325000Y-9012500D02*
X14295000Y-9042500D01*
X14295000Y-9615000D02*
X14325000Y-9645000D01*
X14325000Y-9615000D02*
X14295000Y-9645000D01*
X14297500Y-9160000D02*
X14327500Y-9190000D01*
X14327500Y-9160000D02*
X14297500Y-9190000D01*
X14297500Y-9742500D02*
X14327500Y-9772500D01*
X14327500Y-9742500D02*
X14297500Y-9772500D01*
X14336500Y-7025500D02*
X14366500Y-7055500D01*
X14366500Y-7025500D02*
X14336500Y-7055500D01*
X14336500Y-7787500D02*
X14366500Y-7817500D01*
X14366500Y-7787500D02*
X14336500Y-7817500D01*
X14336500Y-8041500D02*
X14366500Y-8071500D01*
X14366500Y-8041500D02*
X14336500Y-8071500D01*
X14336500Y-8295500D02*
X14366500Y-8325500D01*
X14366500Y-8295500D02*
X14336500Y-8325500D01*
X14336500Y-8549500D02*
X14366500Y-8579500D01*
X14366500Y-8549500D02*
X14336500Y-8579500D01*
X14336500Y-10073500D02*
X14366500Y-10103500D01*
X14366500Y-10073500D02*
X14336500Y-10103500D01*
X14336500Y-10327500D02*
X14366500Y-10357500D01*
X14366500Y-10327500D02*
X14336500Y-10357500D01*
X14336500Y-10581500D02*
X14366500Y-10611500D01*
X14366500Y-10581500D02*
X14336500Y-10611500D01*
X14336500Y-10835500D02*
X14366500Y-10865500D01*
X14366500Y-10835500D02*
X14336500Y-10865500D01*
X14336500Y-11089500D02*
X14366500Y-11119500D01*
X14366500Y-11089500D02*
X14336500Y-11119500D01*
X14336500Y-11597500D02*
X14366500Y-11627500D01*
X14366500Y-11597500D02*
X14336500Y-11627500D01*
X14350000Y-8817500D02*
X14380000Y-8847500D01*
X14380000Y-8817500D02*
X14350000Y-8847500D01*
X14417500Y-8717500D02*
X14447500Y-8747500D01*
X14447500Y-8717500D02*
X14417500Y-8747500D01*
X14555000Y-8807500D02*
X14585000Y-8837500D01*
X14585000Y-8807500D02*
X14555000Y-8837500D01*
X14565000Y-8587500D02*
X14595000Y-8617500D01*
X14595000Y-8587500D02*
X14565000Y-8617500D01*
X14590500Y-7025500D02*
X14620500Y-7055500D01*
X14620500Y-7025500D02*
X14590500Y-7055500D01*
X14590500Y-7279500D02*
X14620500Y-7309500D01*
X14620500Y-7279500D02*
X14590500Y-7309500D01*
X14590500Y-7533500D02*
X14620500Y-7563500D01*
X14620500Y-7533500D02*
X14590500Y-7563500D01*
X14590500Y-11343500D02*
X14620500Y-11373500D01*
X14620500Y-11343500D02*
X14590500Y-11373500D01*
X14590500Y-11597500D02*
X14620500Y-11627500D01*
X14620500Y-11597500D02*
X14590500Y-11627500D01*
X14624615Y-8700000D02*
X14654615Y-8730000D01*
X14654615Y-8700000D02*
X14624615Y-8730000D01*
X14684231Y-8587500D02*
X14714231Y-8617500D01*
X14714231Y-8587500D02*
X14684231Y-8617500D01*
X14743846Y-8700000D02*
X14773846Y-8730000D01*
X14773846Y-8700000D02*
X14743846Y-8730000D01*
X14762500Y-8830000D02*
X14792500Y-8860000D01*
X14792500Y-8830000D02*
X14762500Y-8860000D01*
X14770000Y-9520000D02*
X14800000Y-9550000D01*
X14800000Y-9520000D02*
X14770000Y-9550000D01*
X14787500Y-9292500D02*
X14817500Y-9322500D01*
X14817500Y-9292500D02*
X14787500Y-9322500D01*
X14790000Y-9079231D02*
X14820000Y-9109231D01*
X14820000Y-9079231D02*
X14790000Y-9109231D01*
X14790000Y-9198461D02*
X14820000Y-9228461D01*
X14820000Y-9198461D02*
X14790000Y-9228461D01*
X14790000Y-9640000D02*
X14820000Y-9670000D01*
X14820000Y-9640000D02*
X14790000Y-9670000D01*
X14792500Y-8960000D02*
X14822500Y-8990000D01*
X14822500Y-8960000D02*
X14792500Y-8990000D01*
X14803461Y-8590000D02*
X14833461Y-8620000D01*
X14833461Y-8590000D02*
X14803461Y-8620000D01*
X14844500Y-7025500D02*
X14874500Y-7055500D01*
X14874500Y-7025500D02*
X14844500Y-7055500D01*
X14844500Y-7279500D02*
X14874500Y-7309500D01*
X14874500Y-7279500D02*
X14844500Y-7309500D01*
X14844500Y-7533500D02*
X14874500Y-7563500D01*
X14874500Y-7533500D02*
X14844500Y-7563500D01*
X14844500Y-11343500D02*
X14874500Y-11373500D01*
X14874500Y-11343500D02*
X14844500Y-11373500D01*
X14844500Y-11597500D02*
X14874500Y-11627500D01*
X14874500Y-11597500D02*
X14844500Y-11627500D01*
X14863076Y-8702500D02*
X14893076Y-8732500D01*
X14893076Y-8702500D02*
X14863076Y-8732500D01*
X14885000Y-9520000D02*
X14915000Y-9550000D01*
X14915000Y-9520000D02*
X14885000Y-9550000D01*
X14897500Y-9615768D02*
X14927500Y-9645768D01*
X14927500Y-9615768D02*
X14897500Y-9645768D01*
X14900000Y-9258077D02*
X14930000Y-9288077D01*
X14930000Y-9258077D02*
X14900000Y-9288077D01*
X14902500Y-9019615D02*
X14932500Y-9049615D01*
X14932500Y-9019615D02*
X14902500Y-9049615D01*
X14902500Y-9138846D02*
X14932500Y-9168846D01*
X14932500Y-9138846D02*
X14902500Y-9168846D01*
X14905000Y-8900385D02*
X14935000Y-8930385D01*
X14935000Y-8900385D02*
X14905000Y-8930385D01*
X14922692Y-8590000D02*
X14952692Y-8620000D01*
X14952692Y-8590000D02*
X14922692Y-8620000D01*
X14982307Y-8702500D02*
X15012307Y-8732500D01*
X15012307Y-8702500D02*
X14982307Y-8732500D01*
X15041922Y-8592500D02*
X15071922Y-8622500D01*
X15071922Y-8592500D02*
X15041922Y-8622500D01*
X15098500Y-7025500D02*
X15128500Y-7055500D01*
X15128500Y-7025500D02*
X15098500Y-7055500D01*
X15098500Y-7279500D02*
X15128500Y-7309500D01*
X15128500Y-7279500D02*
X15098500Y-7309500D01*
X15098500Y-7533500D02*
X15128500Y-7563500D01*
X15128500Y-7533500D02*
X15098500Y-7563500D01*
X15098500Y-9057500D02*
X15128500Y-9087500D01*
X15128500Y-9057500D02*
X15098500Y-9087500D01*
X15098500Y-9565500D02*
X15128500Y-9595500D01*
X15128500Y-9565500D02*
X15098500Y-9595500D01*
X15098500Y-11343500D02*
X15128500Y-11373500D01*
X15128500Y-11343500D02*
X15098500Y-11373500D01*
X15098500Y-11597500D02*
X15128500Y-11627500D01*
X15128500Y-11597500D02*
X15098500Y-11627500D01*
X15101538Y-8705000D02*
X15131538Y-8735000D01*
X15131538Y-8705000D02*
X15101538Y-8735000D01*
X15127500Y-9900000D02*
X15157500Y-9930000D01*
X15157500Y-9900000D02*
X15127500Y-9930000D01*
X15161153Y-8592500D02*
X15191153Y-8622500D01*
X15191153Y-8592500D02*
X15161153Y-8622500D01*
X15220768Y-8705000D02*
X15250768Y-8735000D01*
X15250768Y-8705000D02*
X15220768Y-8735000D01*
X15280384Y-8595000D02*
X15310384Y-8625000D01*
X15310384Y-8595000D02*
X15280384Y-8625000D01*
X15339999Y-8707500D02*
X15369999Y-8737500D01*
X15369999Y-8707500D02*
X15339999Y-8737500D01*
X15352500Y-7025500D02*
X15382500Y-7055500D01*
X15382500Y-7025500D02*
X15352500Y-7055500D01*
X15352500Y-7279500D02*
X15382500Y-7309500D01*
X15382500Y-7279500D02*
X15352500Y-7309500D01*
X15352500Y-7533500D02*
X15382500Y-7563500D01*
X15382500Y-7533500D02*
X15352500Y-7563500D01*
X15352500Y-9057500D02*
X15382500Y-9087500D01*
X15382500Y-9057500D02*
X15352500Y-9087500D01*
X15352500Y-9565500D02*
X15382500Y-9595500D01*
X15382500Y-9565500D02*
X15352500Y-9595500D01*
X15352500Y-11343500D02*
X15382500Y-11373500D01*
X15382500Y-11343500D02*
X15352500Y-11373500D01*
X15352500Y-11597500D02*
X15382500Y-11627500D01*
X15382500Y-11597500D02*
X15352500Y-11627500D01*
X15606500Y-7025500D02*
X15636500Y-7055500D01*
X15636500Y-7025500D02*
X15606500Y-7055500D01*
X15606500Y-7279500D02*
X15636500Y-7309500D01*
X15636500Y-7279500D02*
X15606500Y-7309500D01*
X15606500Y-7533500D02*
X15636500Y-7563500D01*
X15636500Y-7533500D02*
X15606500Y-7563500D01*
X15606500Y-8295500D02*
X15636500Y-8325500D01*
X15636500Y-8295500D02*
X15606500Y-8325500D01*
X15606500Y-8549500D02*
X15636500Y-8579500D01*
X15636500Y-8549500D02*
X15606500Y-8579500D01*
X15606500Y-8803500D02*
X15636500Y-8833500D01*
X15636500Y-8803500D02*
X15606500Y-8833500D01*
X15606500Y-9057500D02*
X15636500Y-9087500D01*
X15636500Y-9057500D02*
X15606500Y-9087500D01*
X15606500Y-10073500D02*
X15636500Y-10103500D01*
X15636500Y-10073500D02*
X15606500Y-10103500D01*
X15606500Y-10327500D02*
X15636500Y-10357500D01*
X15636500Y-10327500D02*
X15606500Y-10357500D01*
X15606500Y-10835500D02*
X15636500Y-10865500D01*
X15636500Y-10835500D02*
X15606500Y-10865500D01*
X15606500Y-11089500D02*
X15636500Y-11119500D01*
X15636500Y-11089500D02*
X15606500Y-11119500D01*
X15606500Y-11343500D02*
X15636500Y-11373500D01*
X15636500Y-11343500D02*
X15606500Y-11373500D01*
X15606500Y-11597500D02*
X15636500Y-11627500D01*
X15636500Y-11597500D02*
X15606500Y-11627500D01*
X15637500Y-9510000D02*
X15667500Y-9540000D01*
X15667500Y-9510000D02*
X15637500Y-9540000D01*
X15765000Y-7645000D02*
X15795000Y-7675000D01*
X15795000Y-7645000D02*
X15765000Y-7675000D01*
X15860500Y-9819500D02*
X15890500Y-9849500D01*
X15890500Y-9819500D02*
X15860500Y-9849500D01*
X15860500Y-10073500D02*
X15890500Y-10103500D01*
X15890500Y-10073500D02*
X15860500Y-10103500D01*
X15860500Y-10327500D02*
X15890500Y-10357500D01*
X15890500Y-10327500D02*
X15860500Y-10357500D01*
X15860500Y-10835500D02*
X15890500Y-10865500D01*
X15890500Y-10835500D02*
X15860500Y-10865500D01*
X15860500Y-11089500D02*
X15890500Y-11119500D01*
X15890500Y-11089500D02*
X15860500Y-11119500D01*
X15860500Y-11343500D02*
X15890500Y-11373500D01*
X15890500Y-11343500D02*
X15860500Y-11373500D01*
X16114500Y-7025500D02*
X16144500Y-7055500D01*
X16144500Y-7025500D02*
X16114500Y-7055500D01*
X16114500Y-8041500D02*
X16144500Y-8071500D01*
X16144500Y-8041500D02*
X16114500Y-8071500D01*
X16114500Y-8295500D02*
X16144500Y-8325500D01*
X16144500Y-8295500D02*
X16114500Y-8325500D01*
X16114500Y-8549500D02*
X16144500Y-8579500D01*
X16144500Y-8549500D02*
X16114500Y-8579500D01*
X16114500Y-8803500D02*
X16144500Y-8833500D01*
X16144500Y-8803500D02*
X16114500Y-8833500D01*
X16114500Y-9057500D02*
X16144500Y-9087500D01*
X16144500Y-9057500D02*
X16114500Y-9087500D01*
X16114500Y-9311500D02*
X16144500Y-9341500D01*
X16144500Y-9311500D02*
X16114500Y-9341500D01*
X16114500Y-11597500D02*
X16144500Y-11627500D01*
X16144500Y-11597500D02*
X16114500Y-11627500D01*
X16155000Y-10837500D02*
X16185000Y-10867500D01*
X16185000Y-10837500D02*
X16155000Y-10867500D01*
X16320000Y-7900000D02*
X16350000Y-7930000D01*
X16350000Y-7900000D02*
X16320000Y-7930000D01*
X16368500Y-7025500D02*
X16398500Y-7055500D01*
X16398500Y-7025500D02*
X16368500Y-7055500D01*
X16368500Y-8549500D02*
X16398500Y-8579500D01*
X16398500Y-8549500D02*
X16368500Y-8579500D01*
X16368500Y-8803500D02*
X16398500Y-8833500D01*
X16398500Y-8803500D02*
X16368500Y-8833500D01*
X16368500Y-9057500D02*
X16398500Y-9087500D01*
X16398500Y-9057500D02*
X16368500Y-9087500D01*
X16368500Y-9311500D02*
X16398500Y-9341500D01*
X16398500Y-9311500D02*
X16368500Y-9341500D01*
X16368500Y-10327500D02*
X16398500Y-10357500D01*
X16398500Y-10327500D02*
X16368500Y-10357500D01*
X16368500Y-10835500D02*
X16398500Y-10865500D01*
X16398500Y-10835500D02*
X16368500Y-10865500D01*
X16368500Y-11597500D02*
X16398500Y-11627500D01*
X16398500Y-11597500D02*
X16368500Y-11627500D01*
X16622500Y-7533500D02*
X16652500Y-7563500D01*
X16652500Y-7533500D02*
X16622500Y-7563500D01*
X16622500Y-7787500D02*
X16652500Y-7817500D01*
X16652500Y-7787500D02*
X16622500Y-7817500D01*
X16622500Y-8041500D02*
X16652500Y-8071500D01*
X16652500Y-8041500D02*
X16622500Y-8071500D01*
X16622500Y-8803500D02*
X16652500Y-8833500D01*
X16652500Y-8803500D02*
X16622500Y-8833500D01*
X16622500Y-9057500D02*
X16652500Y-9087500D01*
X16652500Y-9057500D02*
X16622500Y-9087500D01*
X16622500Y-9311500D02*
X16652500Y-9341500D01*
X16652500Y-9311500D02*
X16622500Y-9341500D01*
X16622500Y-10073500D02*
X16652500Y-10103500D01*
X16652500Y-10073500D02*
X16622500Y-10103500D01*
X16622500Y-10327500D02*
X16652500Y-10357500D01*
X16652500Y-10327500D02*
X16622500Y-10357500D01*
X16622500Y-11343500D02*
X16652500Y-11373500D01*
X16652500Y-11343500D02*
X16622500Y-11373500D01*
X16735000Y-10530000D02*
X16765000Y-10560000D01*
X16765000Y-10530000D02*
X16735000Y-10560000D01*
X16876500Y-7025500D02*
X16906500Y-7055500D01*
X16906500Y-7025500D02*
X16876500Y-7055500D01*
X16876500Y-7279500D02*
X16906500Y-7309500D01*
X16906500Y-7279500D02*
X16876500Y-7309500D01*
X16876500Y-7533500D02*
X16906500Y-7563500D01*
X16906500Y-7533500D02*
X16876500Y-7563500D01*
X16876500Y-7787500D02*
X16906500Y-7817500D01*
X16906500Y-7787500D02*
X16876500Y-7817500D01*
X16876500Y-8041500D02*
X16906500Y-8071500D01*
X16906500Y-8041500D02*
X16876500Y-8071500D01*
X16876500Y-8295500D02*
X16906500Y-8325500D01*
X16906500Y-8295500D02*
X16876500Y-8325500D01*
X16876500Y-9057500D02*
X16906500Y-9087500D01*
X16906500Y-9057500D02*
X16876500Y-9087500D01*
X16876500Y-9311500D02*
X16906500Y-9341500D01*
X16906500Y-9311500D02*
X16876500Y-9341500D01*
X16876500Y-9819500D02*
X16906500Y-9849500D01*
X16906500Y-9819500D02*
X16876500Y-9849500D01*
X16876500Y-10073500D02*
X16906500Y-10103500D01*
X16906500Y-10073500D02*
X16876500Y-10103500D01*
X16876500Y-10327500D02*
X16906500Y-10357500D01*
X16906500Y-10327500D02*
X16876500Y-10357500D01*
X16876500Y-10581500D02*
X16906500Y-10611500D01*
X16906500Y-10581500D02*
X16876500Y-10611500D01*
X16876500Y-10835500D02*
X16906500Y-10865500D01*
X16906500Y-10835500D02*
X16876500Y-10865500D01*
X16876500Y-11089500D02*
X16906500Y-11119500D01*
X16906500Y-11089500D02*
X16876500Y-11119500D01*
X16876500Y-11343500D02*
X16906500Y-11373500D01*
X16906500Y-11343500D02*
X16876500Y-11373500D01*
X16876500Y-11597500D02*
X16906500Y-11627500D01*
X16906500Y-11597500D02*
X16876500Y-11627500D01*
X17130500Y-7025500D02*
X17160500Y-7055500D01*
X17160500Y-7025500D02*
X17130500Y-7055500D01*
X17130500Y-7279500D02*
X17160500Y-7309500D01*
X17160500Y-7279500D02*
X17130500Y-7309500D01*
X17130500Y-7533500D02*
X17160500Y-7563500D01*
X17160500Y-7533500D02*
X17130500Y-7563500D01*
X17130500Y-9819500D02*
X17160500Y-9849500D01*
X17160500Y-9819500D02*
X17130500Y-9849500D01*
X17130500Y-11343500D02*
X17160500Y-11373500D01*
X17160500Y-11343500D02*
X17130500Y-11373500D01*
X17130500Y-11597500D02*
X17160500Y-11627500D01*
X17160500Y-11597500D02*
X17130500Y-11627500D01*
X17140000Y-8587500D02*
X17170000Y-8617500D01*
X17170000Y-8587500D02*
X17140000Y-8617500D01*
X17147501Y-10075000D02*
X17177501Y-10105000D01*
X17177501Y-10075000D02*
X17147501Y-10105000D01*
X17199615Y-8700000D02*
X17229615Y-8730000D01*
X17229615Y-8700000D02*
X17199615Y-8730000D01*
X17207116Y-10187500D02*
X17237116Y-10217500D01*
X17237116Y-10187500D02*
X17207116Y-10217500D01*
X17259231Y-8587500D02*
X17289231Y-8617500D01*
X17289231Y-8587500D02*
X17259231Y-8617500D01*
X17266732Y-10077500D02*
X17296732Y-10107500D01*
X17296732Y-10077500D02*
X17266732Y-10107500D01*
X17318846Y-8700000D02*
X17348846Y-8730000D01*
X17348846Y-8700000D02*
X17318846Y-8730000D01*
X17326347Y-10190000D02*
X17356347Y-10220000D01*
X17356347Y-10190000D02*
X17326347Y-10220000D01*
X17378461Y-8590000D02*
X17408461Y-8620000D01*
X17408461Y-8590000D02*
X17378461Y-8620000D01*
X17384500Y-7025500D02*
X17414500Y-7055500D01*
X17414500Y-7025500D02*
X17384500Y-7055500D01*
X17384500Y-7279500D02*
X17414500Y-7309500D01*
X17414500Y-7279500D02*
X17384500Y-7309500D01*
X17384500Y-7533500D02*
X17414500Y-7563500D01*
X17414500Y-7533500D02*
X17384500Y-7563500D01*
X17384500Y-9311500D02*
X17414500Y-9341500D01*
X17414500Y-9311500D02*
X17384500Y-9341500D01*
X17384500Y-9819500D02*
X17414500Y-9849500D01*
X17414500Y-9819500D02*
X17384500Y-9849500D01*
X17384500Y-11343500D02*
X17414500Y-11373500D01*
X17414500Y-11343500D02*
X17384500Y-11373500D01*
X17384500Y-11597500D02*
X17414500Y-11627500D01*
X17414500Y-11597500D02*
X17384500Y-11627500D01*
X17385962Y-10077500D02*
X17415962Y-10107500D01*
X17415962Y-10077500D02*
X17385962Y-10107500D01*
X17438077Y-8702500D02*
X17468077Y-8732500D01*
X17468077Y-8702500D02*
X17438077Y-8732500D01*
X17445578Y-10190000D02*
X17475578Y-10220000D01*
X17475578Y-10190000D02*
X17445578Y-10220000D01*
X17497692Y-8590000D02*
X17527692Y-8620000D01*
X17527692Y-8590000D02*
X17497692Y-8620000D01*
X17505193Y-10080000D02*
X17535193Y-10110000D01*
X17535193Y-10080000D02*
X17505193Y-10110000D01*
X17547500Y-9524500D02*
X17577500Y-9554500D01*
X17577500Y-9524500D02*
X17547500Y-9554500D01*
X17557307Y-8702500D02*
X17587307Y-8732500D01*
X17587307Y-8702500D02*
X17557307Y-8732500D01*
X17564808Y-10192500D02*
X17594808Y-10222500D01*
X17594808Y-10192500D02*
X17564808Y-10222500D01*
X17616922Y-8592500D02*
X17646922Y-8622500D01*
X17646922Y-8592500D02*
X17616922Y-8622500D01*
X17624424Y-10080000D02*
X17654424Y-10110000D01*
X17654424Y-10080000D02*
X17624424Y-10110000D01*
X17638500Y-7025500D02*
X17668500Y-7055500D01*
X17668500Y-7025500D02*
X17638500Y-7055500D01*
X17638500Y-7279500D02*
X17668500Y-7309500D01*
X17668500Y-7279500D02*
X17638500Y-7309500D01*
X17638500Y-7533500D02*
X17668500Y-7563500D01*
X17668500Y-7533500D02*
X17638500Y-7563500D01*
X17638500Y-9819500D02*
X17668500Y-9849500D01*
X17668500Y-9819500D02*
X17638500Y-9849500D01*
X17638500Y-11343500D02*
X17668500Y-11373500D01*
X17668500Y-11343500D02*
X17638500Y-11373500D01*
X17638500Y-11597500D02*
X17668500Y-11627500D01*
X17668500Y-11597500D02*
X17638500Y-11627500D01*
X17676538Y-8705000D02*
X17706538Y-8735000D01*
X17706538Y-8705000D02*
X17676538Y-8735000D01*
X17684039Y-10192500D02*
X17714039Y-10222500D01*
X17714039Y-10192500D02*
X17684039Y-10222500D01*
X17736153Y-8592500D02*
X17766153Y-8622500D01*
X17766153Y-8592500D02*
X17736153Y-8622500D01*
X17743654Y-10082500D02*
X17773654Y-10112500D01*
X17773654Y-10082500D02*
X17743654Y-10112500D01*
X17795768Y-8705000D02*
X17825768Y-8735000D01*
X17825768Y-8705000D02*
X17795768Y-8735000D01*
X17803269Y-10195000D02*
X17833269Y-10225000D01*
X17833269Y-10195000D02*
X17803269Y-10225000D01*
X17855384Y-8595000D02*
X17885384Y-8625000D01*
X17885384Y-8595000D02*
X17855384Y-8625000D01*
X17862885Y-10082500D02*
X17892885Y-10112500D01*
X17892885Y-10082500D02*
X17862885Y-10112500D01*
X17892500Y-7025500D02*
X17922500Y-7055500D01*
X17922500Y-7025500D02*
X17892500Y-7055500D01*
X17892500Y-7279500D02*
X17922500Y-7309500D01*
X17922500Y-7279500D02*
X17892500Y-7309500D01*
X17892500Y-7533500D02*
X17922500Y-7563500D01*
X17922500Y-7533500D02*
X17892500Y-7563500D01*
X17892500Y-11343500D02*
X17922500Y-11373500D01*
X17922500Y-11343500D02*
X17892500Y-11373500D01*
X17892500Y-11597500D02*
X17922500Y-11627500D01*
X17922500Y-11597500D02*
X17892500Y-11627500D01*
X17914999Y-8707500D02*
X17944999Y-8737500D01*
X17944999Y-8707500D02*
X17914999Y-8737500D01*
X17922500Y-10195000D02*
X17952500Y-10225000D01*
X17952500Y-10195000D02*
X17922500Y-10225000D01*
X18146500Y-7025500D02*
X18176500Y-7055500D01*
X18176500Y-7025500D02*
X18146500Y-7055500D01*
X18146500Y-7787500D02*
X18176500Y-7817500D01*
X18176500Y-7787500D02*
X18146500Y-7817500D01*
X18146500Y-8041500D02*
X18176500Y-8071500D01*
X18176500Y-8041500D02*
X18146500Y-8071500D01*
X18146500Y-8295500D02*
X18176500Y-8325500D01*
X18176500Y-8295500D02*
X18146500Y-8325500D01*
X18146500Y-8549500D02*
X18176500Y-8579500D01*
X18176500Y-8549500D02*
X18146500Y-8579500D01*
X18146500Y-8803500D02*
X18176500Y-8833500D01*
X18176500Y-8803500D02*
X18146500Y-8833500D01*
X18146500Y-10073500D02*
X18176500Y-10103500D01*
X18176500Y-10073500D02*
X18146500Y-10103500D01*
X18146500Y-10327500D02*
X18176500Y-10357500D01*
X18176500Y-10327500D02*
X18146500Y-10357500D01*
X18146500Y-10581500D02*
X18176500Y-10611500D01*
X18176500Y-10581500D02*
X18146500Y-10611500D01*
X18146500Y-10835500D02*
X18176500Y-10865500D01*
X18176500Y-10835500D02*
X18146500Y-10865500D01*
X18146500Y-11089500D02*
X18176500Y-11119500D01*
X18176500Y-11089500D02*
X18146500Y-11119500D01*
X18146500Y-11597500D02*
X18176500Y-11627500D01*
X18176500Y-11597500D02*
X18146500Y-11627500D01*
X18177500Y-9630000D02*
X18207500Y-9660000D01*
X18207500Y-9630000D02*
X18177500Y-9660000D01*
X18400500Y-7787500D02*
X18430500Y-7817500D01*
X18430500Y-7787500D02*
X18400500Y-7817500D01*
X18400500Y-8041500D02*
X18430500Y-8071500D01*
X18430500Y-8041500D02*
X18400500Y-8071500D01*
X18400500Y-8295500D02*
X18430500Y-8325500D01*
X18430500Y-8295500D02*
X18400500Y-8325500D01*
X18400500Y-8549500D02*
X18430500Y-8579500D01*
X18430500Y-8549500D02*
X18400500Y-8579500D01*
X18400500Y-8803500D02*
X18430500Y-8833500D01*
X18430500Y-8803500D02*
X18400500Y-8833500D01*
X18400500Y-10073500D02*
X18430500Y-10103500D01*
X18430500Y-10073500D02*
X18400500Y-10103500D01*
X18400500Y-10327500D02*
X18430500Y-10357500D01*
X18430500Y-10327500D02*
X18400500Y-10357500D01*
X18400500Y-10581500D02*
X18430500Y-10611500D01*
X18430500Y-10581500D02*
X18400500Y-10611500D01*
X18400500Y-10835500D02*
X18430500Y-10865500D01*
X18430500Y-10835500D02*
X18400500Y-10865500D01*
X18400500Y-11089500D02*
X18430500Y-11119500D01*
X18430500Y-11089500D02*
X18400500Y-11119500D01*
D11*
X14015777Y-12218984D02*
X14015777Y-12018984D01*
X14015777Y-12018984D02*
X14063396Y-12018984D01*
X14063396Y-12018984D02*
X14091967Y-12028508D01*
X14091967Y-12028508D02*
X14111015Y-12047555D01*
X14111015Y-12047555D02*
X14120539Y-12066603D01*
X14120539Y-12066603D02*
X14130062Y-12104698D01*
X14130062Y-12104698D02*
X14130062Y-12133269D01*
X14130062Y-12133269D02*
X14120539Y-12171365D01*
X14120539Y-12171365D02*
X14111015Y-12190412D01*
X14111015Y-12190412D02*
X14091967Y-12209460D01*
X14091967Y-12209460D02*
X14063396Y-12218984D01*
X14063396Y-12218984D02*
X14015777Y-12218984D01*
X14215777Y-12218984D02*
X14215777Y-12085650D01*
X14215777Y-12123746D02*
X14225301Y-12104698D01*
X14225301Y-12104698D02*
X14234824Y-12095174D01*
X14234824Y-12095174D02*
X14253872Y-12085650D01*
X14253872Y-12085650D02*
X14272920Y-12085650D01*
X14339586Y-12218984D02*
X14339586Y-12085650D01*
X14339586Y-12018984D02*
X14330062Y-12028508D01*
X14330062Y-12028508D02*
X14339586Y-12038031D01*
X14339586Y-12038031D02*
X14349110Y-12028508D01*
X14349110Y-12028508D02*
X14339586Y-12018984D01*
X14339586Y-12018984D02*
X14339586Y-12038031D01*
X14463396Y-12218984D02*
X14444348Y-12209460D01*
X14444348Y-12209460D02*
X14434824Y-12190412D01*
X14434824Y-12190412D02*
X14434824Y-12018984D01*
X14568158Y-12218984D02*
X14549110Y-12209460D01*
X14549110Y-12209460D02*
X14539586Y-12190412D01*
X14539586Y-12190412D02*
X14539586Y-12018984D01*
X14796729Y-12218984D02*
X14796729Y-12018984D01*
X14796729Y-12018984D02*
X14863396Y-12161841D01*
X14863396Y-12161841D02*
X14930062Y-12018984D01*
X14930062Y-12018984D02*
X14930062Y-12218984D01*
X15111015Y-12218984D02*
X15111015Y-12114222D01*
X15111015Y-12114222D02*
X15101491Y-12095174D01*
X15101491Y-12095174D02*
X15082443Y-12085650D01*
X15082443Y-12085650D02*
X15044348Y-12085650D01*
X15044348Y-12085650D02*
X15025301Y-12095174D01*
X15111015Y-12209460D02*
X15091967Y-12218984D01*
X15091967Y-12218984D02*
X15044348Y-12218984D01*
X15044348Y-12218984D02*
X15025301Y-12209460D01*
X15025301Y-12209460D02*
X15015777Y-12190412D01*
X15015777Y-12190412D02*
X15015777Y-12171365D01*
X15015777Y-12171365D02*
X15025301Y-12152317D01*
X15025301Y-12152317D02*
X15044348Y-12142793D01*
X15044348Y-12142793D02*
X15091967Y-12142793D01*
X15091967Y-12142793D02*
X15111015Y-12133269D01*
X15206253Y-12085650D02*
X15206253Y-12285650D01*
X15206253Y-12095174D02*
X15225301Y-12085650D01*
X15225301Y-12085650D02*
X15263396Y-12085650D01*
X15263396Y-12085650D02*
X15282443Y-12095174D01*
X15282443Y-12095174D02*
X15291967Y-12104698D01*
X15291967Y-12104698D02*
X15301491Y-12123746D01*
X15301491Y-12123746D02*
X15301491Y-12180888D01*
X15301491Y-12180888D02*
X15291967Y-12199936D01*
X15291967Y-12199936D02*
X15282443Y-12209460D01*
X15282443Y-12209460D02*
X15263396Y-12218984D01*
X15263396Y-12218984D02*
X15225301Y-12218984D01*
X15225301Y-12218984D02*
X15206253Y-12209460D01*
X15387205Y-12199936D02*
X15396729Y-12209460D01*
X15396729Y-12209460D02*
X15387205Y-12218984D01*
X15387205Y-12218984D02*
X15377682Y-12209460D01*
X15377682Y-12209460D02*
X15387205Y-12199936D01*
X15387205Y-12199936D02*
X15387205Y-12218984D01*
X15387205Y-12095174D02*
X15396729Y-12104698D01*
X15396729Y-12104698D02*
X15387205Y-12114222D01*
X15387205Y-12114222D02*
X15377682Y-12104698D01*
X15377682Y-12104698D02*
X15387205Y-12095174D01*
X15387205Y-12095174D02*
X15387205Y-12114222D01*
D12*
X13725000Y-12532500D02*
X13755000Y-12562500D01*
X13755000Y-12532500D02*
X13725000Y-12562500D01*
D11*
X14053872Y-12438984D02*
X14072920Y-12438984D01*
X14072920Y-12438984D02*
X14091967Y-12448508D01*
X14091967Y-12448508D02*
X14101491Y-12458031D01*
X14101491Y-12458031D02*
X14111015Y-12477079D01*
X14111015Y-12477079D02*
X14120539Y-12515174D01*
X14120539Y-12515174D02*
X14120539Y-12562793D01*
X14120539Y-12562793D02*
X14111015Y-12600888D01*
X14111015Y-12600888D02*
X14101491Y-12619936D01*
X14101491Y-12619936D02*
X14091967Y-12629460D01*
X14091967Y-12629460D02*
X14072920Y-12638984D01*
X14072920Y-12638984D02*
X14053872Y-12638984D01*
X14053872Y-12638984D02*
X14034824Y-12629460D01*
X14034824Y-12629460D02*
X14025301Y-12619936D01*
X14025301Y-12619936D02*
X14015777Y-12600888D01*
X14015777Y-12600888D02*
X14006253Y-12562793D01*
X14006253Y-12562793D02*
X14006253Y-12515174D01*
X14006253Y-12515174D02*
X14015777Y-12477079D01*
X14015777Y-12477079D02*
X14025301Y-12458031D01*
X14025301Y-12458031D02*
X14034824Y-12448508D01*
X14034824Y-12448508D02*
X14053872Y-12438984D01*
X14206253Y-12619936D02*
X14215777Y-12629460D01*
X14215777Y-12629460D02*
X14206253Y-12638984D01*
X14206253Y-12638984D02*
X14196729Y-12629460D01*
X14196729Y-12629460D02*
X14206253Y-12619936D01*
X14206253Y-12619936D02*
X14206253Y-12638984D01*
X14282443Y-12438984D02*
X14406253Y-12438984D01*
X14406253Y-12438984D02*
X14339586Y-12515174D01*
X14339586Y-12515174D02*
X14368158Y-12515174D01*
X14368158Y-12515174D02*
X14387205Y-12524698D01*
X14387205Y-12524698D02*
X14396729Y-12534222D01*
X14396729Y-12534222D02*
X14406253Y-12553269D01*
X14406253Y-12553269D02*
X14406253Y-12600888D01*
X14406253Y-12600888D02*
X14396729Y-12619936D01*
X14396729Y-12619936D02*
X14387205Y-12629460D01*
X14387205Y-12629460D02*
X14368158Y-12638984D01*
X14368158Y-12638984D02*
X14311015Y-12638984D01*
X14311015Y-12638984D02*
X14291967Y-12629460D01*
X14291967Y-12629460D02*
X14282443Y-12619936D01*
X14530062Y-12438984D02*
X14549110Y-12438984D01*
X14549110Y-12438984D02*
X14568158Y-12448508D01*
X14568158Y-12448508D02*
X14577682Y-12458031D01*
X14577682Y-12458031D02*
X14587205Y-12477079D01*
X14587205Y-12477079D02*
X14596729Y-12515174D01*
X14596729Y-12515174D02*
X14596729Y-12562793D01*
X14596729Y-12562793D02*
X14587205Y-12600888D01*
X14587205Y-12600888D02*
X14577682Y-12619936D01*
X14577682Y-12619936D02*
X14568158Y-12629460D01*
X14568158Y-12629460D02*
X14549110Y-12638984D01*
X14549110Y-12638984D02*
X14530062Y-12638984D01*
X14530062Y-12638984D02*
X14511015Y-12629460D01*
X14511015Y-12629460D02*
X14501491Y-12619936D01*
X14501491Y-12619936D02*
X14491967Y-12600888D01*
X14491967Y-12600888D02*
X14482443Y-12562793D01*
X14482443Y-12562793D02*
X14482443Y-12515174D01*
X14482443Y-12515174D02*
X14491967Y-12477079D01*
X14491967Y-12477079D02*
X14501491Y-12458031D01*
X14501491Y-12458031D02*
X14511015Y-12448508D01*
X14511015Y-12448508D02*
X14530062Y-12438984D01*
X14720539Y-12438984D02*
X14739586Y-12438984D01*
X14739586Y-12438984D02*
X14758634Y-12448508D01*
X14758634Y-12448508D02*
X14768158Y-12458031D01*
X14768158Y-12458031D02*
X14777682Y-12477079D01*
X14777682Y-12477079D02*
X14787205Y-12515174D01*
X14787205Y-12515174D02*
X14787205Y-12562793D01*
X14787205Y-12562793D02*
X14777682Y-12600888D01*
X14777682Y-12600888D02*
X14768158Y-12619936D01*
X14768158Y-12619936D02*
X14758634Y-12629460D01*
X14758634Y-12629460D02*
X14739586Y-12638984D01*
X14739586Y-12638984D02*
X14720539Y-12638984D01*
X14720539Y-12638984D02*
X14701491Y-12629460D01*
X14701491Y-12629460D02*
X14691967Y-12619936D01*
X14691967Y-12619936D02*
X14682443Y-12600888D01*
X14682443Y-12600888D02*
X14672920Y-12562793D01*
X14672920Y-12562793D02*
X14672920Y-12515174D01*
X14672920Y-12515174D02*
X14682443Y-12477079D01*
X14682443Y-12477079D02*
X14691967Y-12458031D01*
X14691967Y-12458031D02*
X14701491Y-12448508D01*
X14701491Y-12448508D02*
X14720539Y-12438984D01*
X14872920Y-12638984D02*
X14872920Y-12505650D01*
X14872920Y-12524698D02*
X14882443Y-12515174D01*
X14882443Y-12515174D02*
X14901491Y-12505650D01*
X14901491Y-12505650D02*
X14930063Y-12505650D01*
X14930063Y-12505650D02*
X14949110Y-12515174D01*
X14949110Y-12515174D02*
X14958634Y-12534222D01*
X14958634Y-12534222D02*
X14958634Y-12638984D01*
X14958634Y-12534222D02*
X14968158Y-12515174D01*
X14968158Y-12515174D02*
X14987205Y-12505650D01*
X14987205Y-12505650D02*
X15015777Y-12505650D01*
X15015777Y-12505650D02*
X15034824Y-12515174D01*
X15034824Y-12515174D02*
X15044348Y-12534222D01*
X15044348Y-12534222D02*
X15044348Y-12638984D01*
X15139586Y-12638984D02*
X15139586Y-12505650D01*
X15139586Y-12524698D02*
X15149110Y-12515174D01*
X15149110Y-12515174D02*
X15168158Y-12505650D01*
X15168158Y-12505650D02*
X15196729Y-12505650D01*
X15196729Y-12505650D02*
X15215777Y-12515174D01*
X15215777Y-12515174D02*
X15225301Y-12534222D01*
X15225301Y-12534222D02*
X15225301Y-12638984D01*
X15225301Y-12534222D02*
X15234824Y-12515174D01*
X15234824Y-12515174D02*
X15253872Y-12505650D01*
X15253872Y-12505650D02*
X15282443Y-12505650D01*
X15282443Y-12505650D02*
X15301491Y-12515174D01*
X15301491Y-12515174D02*
X15311015Y-12534222D01*
X15311015Y-12534222D02*
X15311015Y-12638984D01*
X15701491Y-12429460D02*
X15530063Y-12686603D01*
X15958634Y-12438984D02*
X15977682Y-12438984D01*
X15977682Y-12438984D02*
X15996729Y-12448508D01*
X15996729Y-12448508D02*
X16006253Y-12458031D01*
X16006253Y-12458031D02*
X16015777Y-12477079D01*
X16015777Y-12477079D02*
X16025301Y-12515174D01*
X16025301Y-12515174D02*
X16025301Y-12562793D01*
X16025301Y-12562793D02*
X16015777Y-12600888D01*
X16015777Y-12600888D02*
X16006253Y-12619936D01*
X16006253Y-12619936D02*
X15996729Y-12629460D01*
X15996729Y-12629460D02*
X15977682Y-12638984D01*
X15977682Y-12638984D02*
X15958634Y-12638984D01*
X15958634Y-12638984D02*
X15939586Y-12629460D01*
X15939586Y-12629460D02*
X15930063Y-12619936D01*
X15930063Y-12619936D02*
X15920539Y-12600888D01*
X15920539Y-12600888D02*
X15911015Y-12562793D01*
X15911015Y-12562793D02*
X15911015Y-12515174D01*
X15911015Y-12515174D02*
X15920539Y-12477079D01*
X15920539Y-12477079D02*
X15930063Y-12458031D01*
X15930063Y-12458031D02*
X15939586Y-12448508D01*
X15939586Y-12448508D02*
X15958634Y-12438984D01*
X16111015Y-12619936D02*
X16120539Y-12629460D01*
X16120539Y-12629460D02*
X16111015Y-12638984D01*
X16111015Y-12638984D02*
X16101491Y-12629460D01*
X16101491Y-12629460D02*
X16111015Y-12619936D01*
X16111015Y-12619936D02*
X16111015Y-12638984D01*
X16244348Y-12438984D02*
X16263396Y-12438984D01*
X16263396Y-12438984D02*
X16282444Y-12448508D01*
X16282444Y-12448508D02*
X16291967Y-12458031D01*
X16291967Y-12458031D02*
X16301491Y-12477079D01*
X16301491Y-12477079D02*
X16311015Y-12515174D01*
X16311015Y-12515174D02*
X16311015Y-12562793D01*
X16311015Y-12562793D02*
X16301491Y-12600888D01*
X16301491Y-12600888D02*
X16291967Y-12619936D01*
X16291967Y-12619936D02*
X16282444Y-12629460D01*
X16282444Y-12629460D02*
X16263396Y-12638984D01*
X16263396Y-12638984D02*
X16244348Y-12638984D01*
X16244348Y-12638984D02*
X16225301Y-12629460D01*
X16225301Y-12629460D02*
X16215777Y-12619936D01*
X16215777Y-12619936D02*
X16206253Y-12600888D01*
X16206253Y-12600888D02*
X16196729Y-12562793D01*
X16196729Y-12562793D02*
X16196729Y-12515174D01*
X16196729Y-12515174D02*
X16206253Y-12477079D01*
X16206253Y-12477079D02*
X16215777Y-12458031D01*
X16215777Y-12458031D02*
X16225301Y-12448508D01*
X16225301Y-12448508D02*
X16244348Y-12438984D01*
X16501491Y-12638984D02*
X16387206Y-12638984D01*
X16444348Y-12638984D02*
X16444348Y-12438984D01*
X16444348Y-12438984D02*
X16425301Y-12467555D01*
X16425301Y-12467555D02*
X16406253Y-12486603D01*
X16406253Y-12486603D02*
X16387206Y-12496127D01*
X16691967Y-12638984D02*
X16577682Y-12638984D01*
X16634825Y-12638984D02*
X16634825Y-12438984D01*
X16634825Y-12438984D02*
X16615777Y-12467555D01*
X16615777Y-12467555D02*
X16596729Y-12486603D01*
X16596729Y-12486603D02*
X16577682Y-12496127D01*
X16806253Y-12524698D02*
X16787206Y-12515174D01*
X16787206Y-12515174D02*
X16777682Y-12505650D01*
X16777682Y-12505650D02*
X16768158Y-12486603D01*
X16768158Y-12486603D02*
X16768158Y-12477079D01*
X16768158Y-12477079D02*
X16777682Y-12458031D01*
X16777682Y-12458031D02*
X16787206Y-12448508D01*
X16787206Y-12448508D02*
X16806253Y-12438984D01*
X16806253Y-12438984D02*
X16844349Y-12438984D01*
X16844349Y-12438984D02*
X16863396Y-12448508D01*
X16863396Y-12448508D02*
X16872920Y-12458031D01*
X16872920Y-12458031D02*
X16882444Y-12477079D01*
X16882444Y-12477079D02*
X16882444Y-12486603D01*
X16882444Y-12486603D02*
X16872920Y-12505650D01*
X16872920Y-12505650D02*
X16863396Y-12515174D01*
X16863396Y-12515174D02*
X16844349Y-12524698D01*
X16844349Y-12524698D02*
X16806253Y-12524698D01*
X16806253Y-12524698D02*
X16787206Y-12534222D01*
X16787206Y-12534222D02*
X16777682Y-12543746D01*
X16777682Y-12543746D02*
X16768158Y-12562793D01*
X16768158Y-12562793D02*
X16768158Y-12600888D01*
X16768158Y-12600888D02*
X16777682Y-12619936D01*
X16777682Y-12619936D02*
X16787206Y-12629460D01*
X16787206Y-12629460D02*
X16806253Y-12638984D01*
X16806253Y-12638984D02*
X16844349Y-12638984D01*
X16844349Y-12638984D02*
X16863396Y-12629460D01*
X16863396Y-12629460D02*
X16872920Y-12619936D01*
X16872920Y-12619936D02*
X16882444Y-12600888D01*
X16882444Y-12600888D02*
X16882444Y-12562793D01*
X16882444Y-12562793D02*
X16872920Y-12543746D01*
X16872920Y-12543746D02*
X16863396Y-12534222D01*
X16863396Y-12534222D02*
X16844349Y-12524698D01*
X16958634Y-12438984D02*
X16958634Y-12477079D01*
X17034825Y-12438984D02*
X17034825Y-12477079D01*
X17330063Y-12715174D02*
X17320539Y-12705650D01*
X17320539Y-12705650D02*
X17301491Y-12677079D01*
X17301491Y-12677079D02*
X17291968Y-12658031D01*
X17291968Y-12658031D02*
X17282444Y-12629460D01*
X17282444Y-12629460D02*
X17272920Y-12581841D01*
X17272920Y-12581841D02*
X17272920Y-12543746D01*
X17272920Y-12543746D02*
X17282444Y-12496127D01*
X17282444Y-12496127D02*
X17291968Y-12467555D01*
X17291968Y-12467555D02*
X17301491Y-12448508D01*
X17301491Y-12448508D02*
X17320539Y-12419936D01*
X17320539Y-12419936D02*
X17330063Y-12410412D01*
X17396730Y-12458031D02*
X17406253Y-12448508D01*
X17406253Y-12448508D02*
X17425301Y-12438984D01*
X17425301Y-12438984D02*
X17472920Y-12438984D01*
X17472920Y-12438984D02*
X17491968Y-12448508D01*
X17491968Y-12448508D02*
X17501491Y-12458031D01*
X17501491Y-12458031D02*
X17511015Y-12477079D01*
X17511015Y-12477079D02*
X17511015Y-12496127D01*
X17511015Y-12496127D02*
X17501491Y-12524698D01*
X17501491Y-12524698D02*
X17387206Y-12638984D01*
X17387206Y-12638984D02*
X17511015Y-12638984D01*
X17587206Y-12458031D02*
X17596730Y-12448508D01*
X17596730Y-12448508D02*
X17615777Y-12438984D01*
X17615777Y-12438984D02*
X17663396Y-12438984D01*
X17663396Y-12438984D02*
X17682444Y-12448508D01*
X17682444Y-12448508D02*
X17691968Y-12458031D01*
X17691968Y-12458031D02*
X17701491Y-12477079D01*
X17701491Y-12477079D02*
X17701491Y-12496127D01*
X17701491Y-12496127D02*
X17691968Y-12524698D01*
X17691968Y-12524698D02*
X17577682Y-12638984D01*
X17577682Y-12638984D02*
X17701491Y-12638984D01*
X17891968Y-12638984D02*
X17777682Y-12638984D01*
X17834825Y-12638984D02*
X17834825Y-12438984D01*
X17834825Y-12438984D02*
X17815777Y-12467555D01*
X17815777Y-12467555D02*
X17796730Y-12486603D01*
X17796730Y-12486603D02*
X17777682Y-12496127D01*
X18130063Y-12638984D02*
X18130063Y-12438984D01*
X18215777Y-12638984D02*
X18215777Y-12534222D01*
X18215777Y-12534222D02*
X18206253Y-12515174D01*
X18206253Y-12515174D02*
X18187206Y-12505650D01*
X18187206Y-12505650D02*
X18158634Y-12505650D01*
X18158634Y-12505650D02*
X18139587Y-12515174D01*
X18139587Y-12515174D02*
X18130063Y-12524698D01*
X18339587Y-12638984D02*
X18320539Y-12629460D01*
X18320539Y-12629460D02*
X18311015Y-12619936D01*
X18311015Y-12619936D02*
X18301492Y-12600888D01*
X18301492Y-12600888D02*
X18301492Y-12543746D01*
X18301492Y-12543746D02*
X18311015Y-12524698D01*
X18311015Y-12524698D02*
X18320539Y-12515174D01*
X18320539Y-12515174D02*
X18339587Y-12505650D01*
X18339587Y-12505650D02*
X18368158Y-12505650D01*
X18368158Y-12505650D02*
X18387206Y-12515174D01*
X18387206Y-12515174D02*
X18396730Y-12524698D01*
X18396730Y-12524698D02*
X18406253Y-12543746D01*
X18406253Y-12543746D02*
X18406253Y-12600888D01*
X18406253Y-12600888D02*
X18396730Y-12619936D01*
X18396730Y-12619936D02*
X18387206Y-12629460D01*
X18387206Y-12629460D02*
X18368158Y-12638984D01*
X18368158Y-12638984D02*
X18339587Y-12638984D01*
X18520539Y-12638984D02*
X18501492Y-12629460D01*
X18501492Y-12629460D02*
X18491968Y-12610412D01*
X18491968Y-12610412D02*
X18491968Y-12438984D01*
X18672920Y-12629460D02*
X18653873Y-12638984D01*
X18653873Y-12638984D02*
X18615777Y-12638984D01*
X18615777Y-12638984D02*
X18596730Y-12629460D01*
X18596730Y-12629460D02*
X18587206Y-12610412D01*
X18587206Y-12610412D02*
X18587206Y-12534222D01*
X18587206Y-12534222D02*
X18596730Y-12515174D01*
X18596730Y-12515174D02*
X18615777Y-12505650D01*
X18615777Y-12505650D02*
X18653873Y-12505650D01*
X18653873Y-12505650D02*
X18672920Y-12515174D01*
X18672920Y-12515174D02*
X18682444Y-12534222D01*
X18682444Y-12534222D02*
X18682444Y-12553269D01*
X18682444Y-12553269D02*
X18587206Y-12572317D01*
X18758634Y-12629460D02*
X18777682Y-12638984D01*
X18777682Y-12638984D02*
X18815777Y-12638984D01*
X18815777Y-12638984D02*
X18834825Y-12629460D01*
X18834825Y-12629460D02*
X18844349Y-12610412D01*
X18844349Y-12610412D02*
X18844349Y-12600888D01*
X18844349Y-12600888D02*
X18834825Y-12581841D01*
X18834825Y-12581841D02*
X18815777Y-12572317D01*
X18815777Y-12572317D02*
X18787206Y-12572317D01*
X18787206Y-12572317D02*
X18768158Y-12562793D01*
X18768158Y-12562793D02*
X18758634Y-12543746D01*
X18758634Y-12543746D02*
X18758634Y-12534222D01*
X18758634Y-12534222D02*
X18768158Y-12515174D01*
X18768158Y-12515174D02*
X18787206Y-12505650D01*
X18787206Y-12505650D02*
X18815777Y-12505650D01*
X18815777Y-12505650D02*
X18834825Y-12515174D01*
X18911015Y-12715174D02*
X18920539Y-12705650D01*
X18920539Y-12705650D02*
X18939587Y-12677079D01*
X18939587Y-12677079D02*
X18949111Y-12658031D01*
X18949111Y-12658031D02*
X18958634Y-12629460D01*
X18958634Y-12629460D02*
X18968158Y-12581841D01*
X18968158Y-12581841D02*
X18968158Y-12543746D01*
X18968158Y-12543746D02*
X18958634Y-12496127D01*
X18958634Y-12496127D02*
X18949111Y-12467555D01*
X18949111Y-12467555D02*
X18939587Y-12448508D01*
X18939587Y-12448508D02*
X18920539Y-12419936D01*
X18920539Y-12419936D02*
X18911015Y-12410412D01*
M02*
