M48
; DRILL file {KiCad 8.0.1} date 2025-02-17T13:43:28+0500
; FORMAT={-:-/ absolute / metric / decimal}
; #@! TF.CreationDate,2025-02-17T13:43:28+05:00
; #@! TF.GenerationSoftware,Kicad,Pcbnew,8.0.1
; #@! TF.FileFunction,Plated,1,4,PTH
FMAT,2
METRIC
; #@! TA.AperFunction,Plated,PTH,ViaDrill
T1C0.300
%
G90
G05
T1
X140.975Y-78.025
X140.975Y-80.565
X140.975Y-83.105
X140.975Y-85.645
X140.975Y-88.185
X140.975Y-100.885
X140.975Y-103.425
X140.975Y-105.965
X140.975Y-108.505
X140.975Y-111.045
X143.1Y-90.275
X143.1Y-96.3
X143.125Y-91.75
X143.125Y-97.575
X143.515Y-70.405
X143.515Y-78.025
X143.515Y-80.565
X143.515Y-83.105
X143.515Y-85.645
X143.515Y-100.885
X143.515Y-103.425
X143.515Y-105.965
X143.515Y-108.505
X143.515Y-111.045
X143.515Y-116.125
X143.65Y-88.325
X144.325Y-87.325
X145.7Y-88.225
X145.8Y-86.025
X146.055Y-70.405
X146.055Y-72.945
X146.055Y-75.485
X146.055Y-113.585
X146.055Y-116.125
X146.396Y-87.15
X146.992Y-86.025
X147.588Y-87.15
X147.775Y-88.45
X147.85Y-95.35
X148.025Y-93.075
X148.05Y-90.942
X148.05Y-92.135
X148.05Y-96.55
X148.075Y-89.75
X148.185Y-86.05
X148.595Y-70.405
X148.595Y-72.945
X148.595Y-75.485
X148.595Y-113.585
X148.595Y-116.125
X148.781Y-87.175
X149.0Y-95.35
X149.125Y-96.308
X149.15Y-92.731
X149.175Y-90.346
X149.175Y-91.538
X149.2Y-89.154
X149.377Y-86.05
X149.973Y-87.175
X150.569Y-86.075
X151.135Y-70.405
X151.135Y-72.945
X151.135Y-75.485
X151.135Y-90.725
X151.135Y-95.805
X151.135Y-113.585
X151.135Y-116.125
X151.165Y-87.2
X151.425Y-99.15
X151.762Y-86.075
X152.358Y-87.2
X152.954Y-86.1
X153.55Y-87.225
X153.675Y-70.405
X153.675Y-72.945
X153.675Y-75.485
X153.675Y-90.725
X153.675Y-95.805
X153.675Y-113.585
X153.675Y-116.125
X156.215Y-70.405
X156.215Y-72.945
X156.215Y-75.485
X156.215Y-83.105
X156.215Y-85.645
X156.215Y-88.185
X156.215Y-90.725
X156.215Y-100.885
X156.215Y-103.425
X156.215Y-108.505
X156.215Y-111.045
X156.215Y-113.585
X156.215Y-116.125
X156.525Y-95.25
X157.8Y-76.6
X158.755Y-98.345
X158.755Y-100.885
X158.755Y-103.425
X158.755Y-108.505
X158.755Y-111.045
X158.755Y-113.585
X161.295Y-70.405
X161.295Y-80.565
X161.295Y-83.105
X161.295Y-85.645
X161.295Y-88.185
X161.295Y-90.725
X161.295Y-93.265
X161.295Y-116.125
X161.7Y-108.525
X163.35Y-79.15
X163.835Y-70.405
X163.835Y-85.645
X163.835Y-88.185
X163.835Y-90.725
X163.835Y-93.265
X163.835Y-103.425
X163.835Y-108.505
X163.835Y-116.125
X166.375Y-75.485
X166.375Y-78.025
X166.375Y-80.565
X166.375Y-88.185
X166.375Y-90.725
X166.375Y-93.265
X166.375Y-100.885
X166.375Y-103.425
X166.375Y-113.585
X167.5Y-105.45
X168.915Y-70.405
X168.915Y-72.945
X168.915Y-75.485
X168.915Y-78.025
X168.915Y-80.565
X168.915Y-83.105
X168.915Y-90.725
X168.915Y-93.265
X168.915Y-98.345
X168.915Y-100.885
X168.915Y-103.425
X168.915Y-105.965
X168.915Y-108.505
X168.915Y-111.045
X168.915Y-113.585
X168.915Y-116.125
X171.455Y-70.405
X171.455Y-72.945
X171.455Y-75.485
X171.455Y-98.345
X171.455Y-113.585
X171.455Y-116.125
X171.55Y-86.025
X171.625Y-100.9
X172.146Y-87.15
X172.221Y-102.025
X172.742Y-86.025
X172.817Y-100.925
X173.338Y-87.15
X173.413Y-102.05
X173.935Y-86.05
X173.995Y-70.405
X173.995Y-72.945
X173.995Y-75.485
X173.995Y-93.265
X173.995Y-98.345
X173.995Y-113.585
X173.995Y-116.125
X174.01Y-100.925
X174.531Y-87.175
X174.606Y-102.05
X175.127Y-86.05
X175.202Y-100.95
X175.625Y-95.395
X175.723Y-87.175
X175.798Y-102.075
X176.319Y-86.075
X176.394Y-100.95
X176.535Y-70.405
X176.535Y-72.945
X176.535Y-75.485
X176.535Y-98.345
X176.535Y-113.585
X176.535Y-116.125
X176.915Y-87.2
X176.99Y-102.075
X177.512Y-86.075
X177.587Y-100.975
X178.108Y-87.2
X178.183Y-102.1
X178.704Y-86.1
X178.779Y-100.975
X179.075Y-70.405
X179.075Y-72.945
X179.075Y-75.485
X179.075Y-113.585
X179.075Y-116.125
X179.3Y-87.225
X179.375Y-102.1
X181.615Y-70.405
X181.615Y-78.025
X181.615Y-80.565
X181.615Y-83.105
X181.615Y-85.645
X181.615Y-88.185
X181.615Y-100.885
X181.615Y-103.425
X181.615Y-105.965
X181.615Y-108.505
X181.615Y-111.045
X181.615Y-116.125
X181.925Y-96.45
X184.155Y-78.025
X184.155Y-80.565
X184.155Y-83.105
X184.155Y-85.645
X184.155Y-88.185
X184.155Y-100.885
X184.155Y-103.425
X184.155Y-105.965
X184.155Y-108.505
X184.155Y-111.045
M30
