G04 #@! TF.GenerationSoftware,KiCad,Pcbnew,8.0.1*
G04 #@! TF.CreationDate,2025-02-17T13:43:14+05:00*
G04 #@! TF.ProjectId,pwm_servo,70776d5f-7365-4727-966f-2e6b69636164,rev?*
G04 #@! TF.SameCoordinates,Original*
G04 #@! TF.FileFunction,Copper,L4,Bot*
G04 #@! TF.FilePolarity,Positive*
%FSLAX46Y46*%
G04 Gerber Fmt 4.6, Leading zero omitted, Abs format (unit mm)*
G04 Created by KiCad (PCBNEW 8.0.1) date 2025-02-17 13:43:14*
%MOMM*%
%LPD*%
G01*
G04 APERTURE LIST*
G04 #@! TA.AperFunction,SMDPad,CuDef*
%ADD10R,3.000000X1.000000*%
G04 #@! TD*
G04 #@! TA.AperFunction,ViaPad*
%ADD11C,0.600000*%
G04 #@! TD*
G04 #@! TA.AperFunction,Conductor*
%ADD12C,1.000000*%
G04 #@! TD*
G04 APERTURE END LIST*
D10*
X179430000Y-90315000D03*
X184470000Y-90315000D03*
X179430000Y-92855000D03*
X184470000Y-92855000D03*
X179430000Y-95395000D03*
X184470000Y-95395000D03*
X179430000Y-97935000D03*
X184470000Y-97935000D03*
X145475000Y-97945000D03*
X140435000Y-97945000D03*
X145475000Y-95405001D03*
X140435000Y-95405001D03*
X145475000Y-92864999D03*
X140435000Y-92864999D03*
X145475000Y-90325000D03*
X140435000Y-90325000D03*
D11*
X184155000Y-105965000D03*
X156215000Y-100885000D03*
X140975000Y-78025000D03*
X181615000Y-85645000D03*
X146055000Y-75485000D03*
X140975000Y-100885000D03*
X176535000Y-116125000D03*
X140975000Y-108505000D03*
X140975000Y-80565000D03*
X184155000Y-100885000D03*
X151135000Y-70405000D03*
X140975000Y-83105000D03*
X158755000Y-100885000D03*
X140975000Y-88185000D03*
X143515000Y-83105000D03*
X140975000Y-85645000D03*
X163835000Y-70405000D03*
X140975000Y-103425000D03*
X148595000Y-75485000D03*
X140975000Y-105965000D03*
X140975000Y-111045000D03*
X143515000Y-70405000D03*
X143515000Y-78025000D03*
X179075000Y-116125000D03*
X146055000Y-72945000D03*
X143515000Y-80565000D03*
X143515000Y-85645000D03*
X156215000Y-83105000D03*
X143515000Y-100885000D03*
X143515000Y-103425000D03*
X151135000Y-90725000D03*
X143515000Y-105965000D03*
X156215000Y-70405000D03*
X176535000Y-98345000D03*
X143515000Y-108505000D03*
X173995000Y-113585000D03*
X143515000Y-111045000D03*
X181615000Y-83105000D03*
X143515000Y-116125000D03*
X146055000Y-70405000D03*
X156215000Y-103425000D03*
X146055000Y-113585000D03*
X146055000Y-116125000D03*
X148595000Y-70405000D03*
X148595000Y-72945000D03*
X148595000Y-113585000D03*
X148595000Y-116125000D03*
X151135000Y-72945000D03*
X151135000Y-75485000D03*
X151135000Y-95805000D03*
X184155000Y-85645000D03*
X151135000Y-113585000D03*
X151135000Y-116125000D03*
X153675000Y-70405000D03*
X153675000Y-72945000D03*
X153675000Y-75485000D03*
X153675000Y-90725000D03*
X153675000Y-95805000D03*
X153675000Y-113585000D03*
X153675000Y-116125000D03*
X171455000Y-113585000D03*
X156215000Y-72945000D03*
X156215000Y-75485000D03*
X166375000Y-113585000D03*
X156215000Y-85645000D03*
X156215000Y-88185000D03*
X156215000Y-90725000D03*
X156215000Y-108505000D03*
X156215000Y-111045000D03*
X156215000Y-113585000D03*
X156215000Y-116125000D03*
X158755000Y-98345000D03*
X158755000Y-103425000D03*
X158755000Y-108505000D03*
X158755000Y-111045000D03*
X158755000Y-113585000D03*
X161295000Y-70405000D03*
X161295000Y-80565000D03*
X161295000Y-83105000D03*
X161295000Y-85645000D03*
X161295000Y-88185000D03*
X161295000Y-90725000D03*
X161295000Y-93265000D03*
X161295000Y-116125000D03*
X163835000Y-85645000D03*
X168915000Y-83105000D03*
X163835000Y-88185000D03*
X184155000Y-88185000D03*
X163835000Y-90725000D03*
X168915000Y-80565000D03*
X163835000Y-93265000D03*
X168915000Y-90725000D03*
X163835000Y-103425000D03*
X163835000Y-108505000D03*
X163835000Y-116125000D03*
X166375000Y-75485000D03*
X166375000Y-78025000D03*
X166375000Y-80565000D03*
X168915000Y-78025000D03*
X166375000Y-88185000D03*
X166375000Y-90725000D03*
X166375000Y-93265000D03*
X166375000Y-100885000D03*
X166375000Y-103425000D03*
X168915000Y-70405000D03*
X168915000Y-72945000D03*
X168915000Y-75485000D03*
X168915000Y-93265000D03*
X168915000Y-98345000D03*
X168915000Y-100885000D03*
X168915000Y-103425000D03*
X168915000Y-105965000D03*
X168915000Y-108505000D03*
X168915000Y-111045000D03*
X168915000Y-113585000D03*
X168915000Y-116125000D03*
X171455000Y-70405000D03*
X171455000Y-72945000D03*
X171455000Y-75485000D03*
X171455000Y-98345000D03*
X171455000Y-116125000D03*
X173995000Y-70405000D03*
X173995000Y-72945000D03*
X173995000Y-75485000D03*
X173995000Y-93265000D03*
X173995000Y-98345000D03*
X173995000Y-116125000D03*
X176535000Y-70405000D03*
X176535000Y-72945000D03*
X176535000Y-75485000D03*
X176535000Y-113585000D03*
X179075000Y-70405000D03*
X179075000Y-72945000D03*
X179075000Y-75485000D03*
X179075000Y-113585000D03*
X181615000Y-70405000D03*
X181615000Y-78025000D03*
X181615000Y-80565000D03*
X181615000Y-88185000D03*
X181615000Y-100885000D03*
X181615000Y-103425000D03*
X181615000Y-105965000D03*
X181615000Y-108505000D03*
X181615000Y-111045000D03*
X181615000Y-116125000D03*
X184155000Y-78025000D03*
X184155000Y-80565000D03*
X184155000Y-83105000D03*
X184155000Y-103425000D03*
X184155000Y-108505000D03*
X184155000Y-111045000D03*
X175625000Y-95395000D03*
X161700000Y-108525000D03*
X163350000Y-79150000D03*
X156525000Y-95250000D03*
X181925000Y-96450000D03*
X148025000Y-93075000D03*
X173413470Y-102050000D03*
X147775000Y-88450000D03*
X152357683Y-87200000D03*
X179299989Y-87225000D03*
X149150000Y-92730765D03*
X148050000Y-90942306D03*
X175723071Y-87175000D03*
X175126918Y-86050000D03*
X150569224Y-86075000D03*
X151425000Y-99150000D03*
X151165377Y-87200000D03*
X149200000Y-89153847D03*
X173934612Y-86050000D03*
X146992306Y-86025000D03*
X174605776Y-102050000D03*
X174530765Y-87175000D03*
X176394235Y-100950000D03*
X179375000Y-102100000D03*
X147850000Y-95350000D03*
X176915377Y-87200000D03*
X149376918Y-86050000D03*
X148780765Y-87175000D03*
X143125000Y-97575000D03*
X149125000Y-96307683D03*
X149175000Y-90346153D03*
X178107683Y-87200000D03*
X172146153Y-87150000D03*
X177511530Y-86075000D03*
X149175000Y-91538459D03*
X145700000Y-88225000D03*
X157800000Y-76600000D03*
X172742306Y-86025000D03*
X176990388Y-102075000D03*
X144325000Y-87325000D03*
X148184612Y-86050000D03*
X143650000Y-88325000D03*
X148050000Y-92134612D03*
X178703836Y-86100000D03*
X177586541Y-100975000D03*
X171625011Y-100900000D03*
X149973071Y-87175000D03*
X173338459Y-87150000D03*
X175201929Y-100950000D03*
X171550000Y-86025000D03*
X175798082Y-102075000D03*
X148050000Y-96550000D03*
X143125000Y-91750000D03*
X153549989Y-87225000D03*
X176319224Y-86075000D03*
X174009623Y-100925000D03*
X145800000Y-86025000D03*
X151761530Y-86075000D03*
X172817316Y-100925000D03*
X152953836Y-86100000D03*
X178182694Y-102100000D03*
X148075000Y-89750000D03*
X143100000Y-90275000D03*
X167500000Y-105450000D03*
X143100000Y-96300000D03*
X178778847Y-100975000D03*
X172221164Y-102025000D03*
X149000000Y-95350000D03*
X146396153Y-87150000D03*
X147588459Y-87150000D03*
D12*
X172315000Y-90315000D02*
X164100000Y-82100000D01*
X156525000Y-95250000D02*
X156670000Y-95395000D01*
X163350000Y-81350000D02*
X163350000Y-79150000D01*
X166755000Y-95395000D02*
X162625000Y-99525000D01*
X179430000Y-90315000D02*
X172315000Y-90315000D01*
X156670000Y-95395000D02*
X166755000Y-95395000D01*
X179430000Y-95395000D02*
X166755000Y-95395000D01*
X179430000Y-97935000D02*
X179430000Y-90315000D01*
X162625000Y-99525000D02*
X161700000Y-100450000D01*
X164100000Y-82100000D02*
X163350000Y-81350000D01*
X161700000Y-100450000D02*
X161700000Y-108525000D01*
G04 #@! TA.AperFunction,Conductor*
G36*
X182577702Y-69550617D02*
G01*
X182961771Y-69567386D01*
X182972506Y-69568326D01*
X183350971Y-69618152D01*
X183361597Y-69620025D01*
X183734284Y-69702648D01*
X183744710Y-69705442D01*
X184108765Y-69820227D01*
X184118911Y-69823920D01*
X184471578Y-69970000D01*
X184481369Y-69974566D01*
X184819942Y-70150816D01*
X184829310Y-70156224D01*
X185151244Y-70361318D01*
X185160105Y-70367523D01*
X185462930Y-70599889D01*
X185471217Y-70606843D01*
X185752635Y-70864715D01*
X185760284Y-70872364D01*
X186018156Y-71153782D01*
X186025110Y-71162069D01*
X186257476Y-71464894D01*
X186263681Y-71473755D01*
X186468775Y-71795689D01*
X186474183Y-71805057D01*
X186650430Y-72143623D01*
X186655002Y-72153427D01*
X186801075Y-72506078D01*
X186804775Y-72516244D01*
X186919554Y-72880278D01*
X186922354Y-72890727D01*
X187004971Y-73263389D01*
X187006849Y-73274042D01*
X187056671Y-73652473D01*
X187057614Y-73663249D01*
X187074382Y-74047297D01*
X187074500Y-74052706D01*
X187074500Y-114047293D01*
X187074382Y-114052702D01*
X187057614Y-114436750D01*
X187056671Y-114447526D01*
X187006849Y-114825957D01*
X187004971Y-114836610D01*
X186922354Y-115209272D01*
X186919554Y-115219721D01*
X186804775Y-115583755D01*
X186801075Y-115593921D01*
X186655002Y-115946572D01*
X186650430Y-115956376D01*
X186474183Y-116294942D01*
X186468775Y-116304310D01*
X186263681Y-116626244D01*
X186257476Y-116635105D01*
X186025110Y-116937930D01*
X186018156Y-116946217D01*
X185760284Y-117227635D01*
X185752635Y-117235284D01*
X185471217Y-117493156D01*
X185462930Y-117500110D01*
X185160105Y-117732476D01*
X185151244Y-117738681D01*
X184829310Y-117943775D01*
X184819942Y-117949183D01*
X184481376Y-118125430D01*
X184471572Y-118130002D01*
X184118921Y-118276075D01*
X184108755Y-118279775D01*
X183744721Y-118394554D01*
X183734272Y-118397354D01*
X183361610Y-118479971D01*
X183350957Y-118481849D01*
X182972526Y-118531671D01*
X182961750Y-118532614D01*
X182577703Y-118549382D01*
X182572294Y-118549500D01*
X142577706Y-118549500D01*
X142572297Y-118549382D01*
X142188249Y-118532614D01*
X142177473Y-118531671D01*
X141799042Y-118481849D01*
X141788389Y-118479971D01*
X141415727Y-118397354D01*
X141405278Y-118394554D01*
X141041244Y-118279775D01*
X141031078Y-118276075D01*
X140678427Y-118130002D01*
X140668623Y-118125430D01*
X140330057Y-117949183D01*
X140320689Y-117943775D01*
X139998755Y-117738681D01*
X139989894Y-117732476D01*
X139687069Y-117500110D01*
X139678782Y-117493156D01*
X139397364Y-117235284D01*
X139389715Y-117227635D01*
X139131843Y-116946217D01*
X139124889Y-116937930D01*
X138892523Y-116635105D01*
X138886318Y-116626244D01*
X138681224Y-116304310D01*
X138675816Y-116294942D01*
X138499569Y-115956376D01*
X138494997Y-115946572D01*
X138348924Y-115593921D01*
X138345224Y-115583755D01*
X138230442Y-115219710D01*
X138227648Y-115209284D01*
X138145025Y-114836597D01*
X138143152Y-114825971D01*
X138093326Y-114447506D01*
X138092386Y-114436771D01*
X138080140Y-114156287D01*
X141224500Y-114156287D01*
X141257754Y-114366243D01*
X141280663Y-114436750D01*
X141323444Y-114568414D01*
X141419951Y-114757820D01*
X141544890Y-114929786D01*
X141695213Y-115080109D01*
X141867179Y-115205048D01*
X141867181Y-115205049D01*
X141867184Y-115205051D01*
X142056588Y-115301557D01*
X142258757Y-115367246D01*
X142468713Y-115400500D01*
X142468714Y-115400500D01*
X142681286Y-115400500D01*
X142681287Y-115400500D01*
X142891243Y-115367246D01*
X143093412Y-115301557D01*
X143282816Y-115205051D01*
X143317637Y-115179752D01*
X143454786Y-115080109D01*
X143454788Y-115080106D01*
X143454792Y-115080104D01*
X143605104Y-114929792D01*
X143605106Y-114929788D01*
X143605109Y-114929786D01*
X143730048Y-114757820D01*
X143730047Y-114757820D01*
X143730051Y-114757816D01*
X143826557Y-114568412D01*
X143892246Y-114366243D01*
X143925500Y-114156287D01*
X181224500Y-114156287D01*
X181257754Y-114366243D01*
X181280663Y-114436750D01*
X181323444Y-114568414D01*
X181419951Y-114757820D01*
X181544890Y-114929786D01*
X181695213Y-115080109D01*
X181867179Y-115205048D01*
X181867181Y-115205049D01*
X181867184Y-115205051D01*
X182056588Y-115301557D01*
X182258757Y-115367246D01*
X182468713Y-115400500D01*
X182468714Y-115400500D01*
X182681286Y-115400500D01*
X182681287Y-115400500D01*
X182891243Y-115367246D01*
X183093412Y-115301557D01*
X183282816Y-115205051D01*
X183317637Y-115179752D01*
X183454786Y-115080109D01*
X183454788Y-115080106D01*
X183454792Y-115080104D01*
X183605104Y-114929792D01*
X183605106Y-114929788D01*
X183605109Y-114929786D01*
X183730048Y-114757820D01*
X183730047Y-114757820D01*
X183730051Y-114757816D01*
X183826557Y-114568412D01*
X183892246Y-114366243D01*
X183925500Y-114156287D01*
X183925500Y-113943713D01*
X183892246Y-113733757D01*
X183826557Y-113531588D01*
X183730051Y-113342184D01*
X183730049Y-113342181D01*
X183730048Y-113342179D01*
X183605109Y-113170213D01*
X183454786Y-113019890D01*
X183282820Y-112894951D01*
X183093414Y-112798444D01*
X183093413Y-112798443D01*
X183093412Y-112798443D01*
X182891243Y-112732754D01*
X182891241Y-112732753D01*
X182891240Y-112732753D01*
X182729957Y-112707208D01*
X182681287Y-112699500D01*
X182468713Y-112699500D01*
X182420042Y-112707208D01*
X182258760Y-112732753D01*
X182056585Y-112798444D01*
X181867179Y-112894951D01*
X181695213Y-113019890D01*
X181544890Y-113170213D01*
X181419951Y-113342179D01*
X181323444Y-113531585D01*
X181257753Y-113733760D01*
X181224500Y-113943713D01*
X181224500Y-114156287D01*
X143925500Y-114156287D01*
X143925500Y-113943713D01*
X143892246Y-113733757D01*
X143826557Y-113531588D01*
X143730051Y-113342184D01*
X143730049Y-113342181D01*
X143730048Y-113342179D01*
X143605109Y-113170213D01*
X143454786Y-113019890D01*
X143282820Y-112894951D01*
X143093414Y-112798444D01*
X143093413Y-112798443D01*
X143093412Y-112798443D01*
X142891243Y-112732754D01*
X142891241Y-112732753D01*
X142891240Y-112732753D01*
X142729957Y-112707208D01*
X142681287Y-112699500D01*
X142468713Y-112699500D01*
X142420042Y-112707208D01*
X142258760Y-112732753D01*
X142056585Y-112798444D01*
X141867179Y-112894951D01*
X141695213Y-113019890D01*
X141544890Y-113170213D01*
X141419951Y-113342179D01*
X141323444Y-113531585D01*
X141257753Y-113733760D01*
X141224500Y-113943713D01*
X141224500Y-114156287D01*
X138080140Y-114156287D01*
X138075618Y-114052702D01*
X138075500Y-114047293D01*
X138075500Y-98195000D01*
X138435000Y-98195000D01*
X138435000Y-98492844D01*
X138441401Y-98552372D01*
X138441403Y-98552379D01*
X138491645Y-98687086D01*
X138491649Y-98687093D01*
X138577809Y-98802187D01*
X138577812Y-98802190D01*
X138692906Y-98888350D01*
X138692913Y-98888354D01*
X138827620Y-98938596D01*
X138827627Y-98938598D01*
X138887155Y-98944999D01*
X138887172Y-98945000D01*
X140185000Y-98945000D01*
X140685000Y-98945000D01*
X141819499Y-98945000D01*
X141886538Y-98964685D01*
X141932293Y-99017489D01*
X141943497Y-99068320D01*
X141943829Y-99129051D01*
X141943830Y-99129062D01*
X141955843Y-99235880D01*
X141967209Y-99287059D01*
X141967213Y-99287074D01*
X142001534Y-99388917D01*
X142001536Y-99388922D01*
X142079703Y-99509712D01*
X142079704Y-99509713D01*
X142125619Y-99562366D01*
X142125621Y-99562368D01*
X142125623Y-99562369D01*
X142125625Y-99562372D01*
X142234658Y-99656249D01*
X142234662Y-99656251D01*
X142234660Y-99656251D01*
X142338808Y-99703416D01*
X142365724Y-99715606D01*
X142422076Y-99731959D01*
X142428508Y-99734472D01*
X142432823Y-99735078D01*
X142432825Y-99735079D01*
X142432826Y-99735080D01*
X142575306Y-99755106D01*
X150252307Y-99730889D01*
X150252312Y-99730889D01*
X150360279Y-99718874D01*
X150360278Y-99718874D01*
X150360288Y-99718873D01*
X150412025Y-99707385D01*
X150514958Y-99672565D01*
X150617353Y-99605963D01*
X150684281Y-99585913D01*
X150751427Y-99605229D01*
X150789954Y-99643939D01*
X150795184Y-99652262D01*
X150922738Y-99779816D01*
X151075478Y-99875789D01*
X151245745Y-99935368D01*
X151245750Y-99935369D01*
X151424996Y-99955565D01*
X151425000Y-99955565D01*
X151425004Y-99955565D01*
X151604249Y-99935369D01*
X151604252Y-99935368D01*
X151604255Y-99935368D01*
X151774522Y-99875789D01*
X151927262Y-99779816D01*
X152054816Y-99652262D01*
X152150789Y-99499522D01*
X152210368Y-99329255D01*
X152215121Y-99287074D01*
X152230565Y-99150003D01*
X152230565Y-99149996D01*
X152210369Y-98970750D01*
X152210368Y-98970745D01*
X152198035Y-98935499D01*
X152150789Y-98800478D01*
X152145581Y-98792190D01*
X152073413Y-98677335D01*
X152054816Y-98647738D01*
X151927262Y-98520184D01*
X151867882Y-98482873D01*
X151774523Y-98424211D01*
X151604254Y-98364631D01*
X151604249Y-98364630D01*
X151425004Y-98344435D01*
X151424996Y-98344435D01*
X151245750Y-98364630D01*
X151245745Y-98364631D01*
X151075473Y-98424212D01*
X151065547Y-98430449D01*
X150998310Y-98449444D01*
X150931476Y-98429073D01*
X150886265Y-98375802D01*
X150875584Y-98326133D01*
X150862984Y-96024347D01*
X150855620Y-95941099D01*
X150850042Y-95908799D01*
X150849021Y-95901628D01*
X150839697Y-95818879D01*
X150839697Y-95791115D01*
X150851686Y-95684694D01*
X150852593Y-95678198D01*
X150853695Y-95671596D01*
X150853829Y-95669918D01*
X150854884Y-95660897D01*
X150855000Y-95660150D01*
X150854999Y-95660138D01*
X150855187Y-95656055D01*
X150855837Y-95647840D01*
X150856687Y-95640293D01*
X150856640Y-95634825D01*
X150860582Y-95585624D01*
X150859284Y-95348544D01*
X155524500Y-95348544D01*
X155562947Y-95541828D01*
X155562949Y-95541836D01*
X155638367Y-95723910D01*
X155638372Y-95723920D01*
X155747859Y-95887779D01*
X155747860Y-95887780D01*
X155747861Y-95887781D01*
X155889749Y-96029669D01*
X155889776Y-96029698D01*
X156032214Y-96172136D01*
X156032218Y-96172139D01*
X156196079Y-96281628D01*
X156196092Y-96281635D01*
X156324833Y-96334961D01*
X156357160Y-96348351D01*
X156378164Y-96357051D01*
X156474812Y-96376275D01*
X156523135Y-96385887D01*
X156571458Y-96395500D01*
X156571459Y-96395500D01*
X156571460Y-96395500D01*
X156768540Y-96395500D01*
X164040218Y-96395500D01*
X164107257Y-96415185D01*
X164153012Y-96467989D01*
X164162956Y-96537147D01*
X164133931Y-96600703D01*
X164127900Y-96607179D01*
X161987222Y-98747857D01*
X161987219Y-98747860D01*
X161062220Y-99672859D01*
X161062218Y-99672861D01*
X161019476Y-99715603D01*
X160922859Y-99812219D01*
X160813371Y-99976080D01*
X160813366Y-99976089D01*
X160764347Y-100094434D01*
X160737949Y-100158162D01*
X160737948Y-100158164D01*
X160735708Y-100169431D01*
X160735707Y-100169435D01*
X160699500Y-100351456D01*
X160699500Y-100351459D01*
X160699500Y-108623541D01*
X160699500Y-108623543D01*
X160699499Y-108623543D01*
X160737947Y-108816829D01*
X160737950Y-108816839D01*
X160813364Y-108998907D01*
X160813371Y-108998920D01*
X160922860Y-109162781D01*
X160922863Y-109162785D01*
X161062214Y-109302136D01*
X161062218Y-109302139D01*
X161226079Y-109411628D01*
X161226092Y-109411635D01*
X161408160Y-109487049D01*
X161408165Y-109487051D01*
X161408169Y-109487051D01*
X161408170Y-109487052D01*
X161601456Y-109525500D01*
X161601459Y-109525500D01*
X161798543Y-109525500D01*
X161928582Y-109499632D01*
X161991835Y-109487051D01*
X162173914Y-109411632D01*
X162337782Y-109302139D01*
X162477139Y-109162782D01*
X162586632Y-108998914D01*
X162662051Y-108816835D01*
X162700500Y-108623541D01*
X162700500Y-105450003D01*
X166694435Y-105450003D01*
X166714630Y-105629249D01*
X166714631Y-105629254D01*
X166774211Y-105799523D01*
X166870184Y-105952262D01*
X166997738Y-106079816D01*
X167150478Y-106175789D01*
X167320745Y-106235368D01*
X167320750Y-106235369D01*
X167499996Y-106255565D01*
X167500000Y-106255565D01*
X167500004Y-106255565D01*
X167679249Y-106235369D01*
X167679252Y-106235368D01*
X167679255Y-106235368D01*
X167849522Y-106175789D01*
X168002262Y-106079816D01*
X168129816Y-105952262D01*
X168225789Y-105799522D01*
X168285368Y-105629255D01*
X168305565Y-105450000D01*
X168285368Y-105270745D01*
X168225789Y-105100478D01*
X168129816Y-104947738D01*
X168002262Y-104820184D01*
X167849523Y-104724211D01*
X167679254Y-104664631D01*
X167679249Y-104664630D01*
X167500004Y-104644435D01*
X167499996Y-104644435D01*
X167320750Y-104664630D01*
X167320745Y-104664631D01*
X167150476Y-104724211D01*
X166997737Y-104820184D01*
X166870184Y-104947737D01*
X166774211Y-105100476D01*
X166714631Y-105270745D01*
X166714630Y-105270750D01*
X166694435Y-105449996D01*
X166694435Y-105450003D01*
X162700500Y-105450003D01*
X162700500Y-100915782D01*
X162705133Y-100900003D01*
X170819446Y-100900003D01*
X170839641Y-101079249D01*
X170839642Y-101079254D01*
X170899222Y-101249523D01*
X170931238Y-101300475D01*
X170995195Y-101402262D01*
X171122749Y-101529816D01*
X171275489Y-101625789D01*
X171369837Y-101658802D01*
X171426612Y-101699523D01*
X171452360Y-101764476D01*
X171445925Y-101816796D01*
X171435794Y-101845748D01*
X171415599Y-102024996D01*
X171415599Y-102025003D01*
X171435794Y-102204249D01*
X171435795Y-102204254D01*
X171495375Y-102374523D01*
X171542501Y-102449523D01*
X171591348Y-102527262D01*
X171718902Y-102654816D01*
X171798480Y-102704818D01*
X171828380Y-102723606D01*
X171871642Y-102750789D01*
X171943088Y-102775789D01*
X172041909Y-102810368D01*
X172041914Y-102810369D01*
X172221160Y-102830565D01*
X172221164Y-102830565D01*
X172221168Y-102830565D01*
X172400413Y-102810369D01*
X172400416Y-102810368D01*
X172400419Y-102810368D01*
X172570686Y-102750789D01*
X172723426Y-102654816D01*
X172723431Y-102654810D01*
X172727347Y-102651688D01*
X172792033Y-102625278D01*
X172860729Y-102638032D01*
X172892344Y-102660952D01*
X172911208Y-102679816D01*
X173063948Y-102775789D01*
X173135394Y-102800789D01*
X173234215Y-102835368D01*
X173234220Y-102835369D01*
X173413466Y-102855565D01*
X173413470Y-102855565D01*
X173413474Y-102855565D01*
X173592719Y-102835369D01*
X173592722Y-102835368D01*
X173592725Y-102835368D01*
X173762992Y-102775789D01*
X173915732Y-102679816D01*
X173921942Y-102673606D01*
X173983265Y-102640121D01*
X174052957Y-102645105D01*
X174097304Y-102673606D01*
X174103514Y-102679816D01*
X174256254Y-102775789D01*
X174327700Y-102800789D01*
X174426521Y-102835368D01*
X174426526Y-102835369D01*
X174605772Y-102855565D01*
X174605776Y-102855565D01*
X174605780Y-102855565D01*
X174785025Y-102835369D01*
X174785028Y-102835368D01*
X174785031Y-102835368D01*
X174955298Y-102775789D01*
X175108038Y-102679816D01*
X175108043Y-102679810D01*
X175111959Y-102676688D01*
X175176645Y-102650278D01*
X175245341Y-102663032D01*
X175276956Y-102685952D01*
X175295820Y-102704816D01*
X175448560Y-102800789D01*
X175520006Y-102825789D01*
X175618827Y-102860368D01*
X175618832Y-102860369D01*
X175798078Y-102880565D01*
X175798082Y-102880565D01*
X175798086Y-102880565D01*
X175977331Y-102860369D01*
X175977334Y-102860368D01*
X175977337Y-102860368D01*
X176147604Y-102800789D01*
X176300344Y-102704816D01*
X176306554Y-102698606D01*
X176367877Y-102665121D01*
X176437569Y-102670105D01*
X176481916Y-102698606D01*
X176488126Y-102704816D01*
X176640866Y-102800789D01*
X176712312Y-102825789D01*
X176811133Y-102860368D01*
X176811138Y-102860369D01*
X176990384Y-102880565D01*
X176990388Y-102880565D01*
X176990392Y-102880565D01*
X177169637Y-102860369D01*
X177169640Y-102860368D01*
X177169643Y-102860368D01*
X177339910Y-102800789D01*
X177492650Y-102704816D01*
X177492655Y-102704810D01*
X177496571Y-102701688D01*
X177561257Y-102675278D01*
X177629953Y-102688032D01*
X177661568Y-102710952D01*
X177680432Y-102729816D01*
X177753596Y-102775788D01*
X177808629Y-102810368D01*
X177833172Y-102825789D01*
X177918267Y-102855565D01*
X178003439Y-102885368D01*
X178003444Y-102885369D01*
X178182690Y-102905565D01*
X178182694Y-102905565D01*
X178182698Y-102905565D01*
X178361943Y-102885369D01*
X178361946Y-102885368D01*
X178361949Y-102885368D01*
X178532216Y-102825789D01*
X178684956Y-102729816D01*
X178691166Y-102723606D01*
X178752489Y-102690121D01*
X178822181Y-102695105D01*
X178866528Y-102723606D01*
X178872738Y-102729816D01*
X178945902Y-102775788D01*
X179000935Y-102810368D01*
X179025478Y-102825789D01*
X179110573Y-102855565D01*
X179195745Y-102885368D01*
X179195750Y-102885369D01*
X179374996Y-102905565D01*
X179375000Y-102905565D01*
X179375004Y-102905565D01*
X179554249Y-102885369D01*
X179554252Y-102885368D01*
X179554255Y-102885368D01*
X179724522Y-102825789D01*
X179877262Y-102729816D01*
X180004816Y-102602262D01*
X180100789Y-102449522D01*
X180160368Y-102279255D01*
X180160369Y-102279249D01*
X180180565Y-102100003D01*
X180180565Y-102099996D01*
X180160369Y-101920750D01*
X180160368Y-101920745D01*
X180134124Y-101845745D01*
X180100789Y-101750478D01*
X180004816Y-101597738D01*
X179877262Y-101470184D01*
X179769165Y-101402262D01*
X179724521Y-101374210D01*
X179630173Y-101341197D01*
X179573397Y-101300475D01*
X179547649Y-101235523D01*
X179554085Y-101183203D01*
X179564215Y-101154255D01*
X179564216Y-101154248D01*
X179584412Y-100975003D01*
X179584412Y-100974996D01*
X179564216Y-100795750D01*
X179564215Y-100795745D01*
X179504635Y-100625476D01*
X179408662Y-100472737D01*
X179281109Y-100345184D01*
X179128370Y-100249211D01*
X178958101Y-100189631D01*
X178958096Y-100189630D01*
X178778851Y-100169435D01*
X178778843Y-100169435D01*
X178599597Y-100189630D01*
X178599592Y-100189631D01*
X178429323Y-100249211D01*
X178276584Y-100345184D01*
X178270375Y-100351394D01*
X178209052Y-100384879D01*
X178139360Y-100379895D01*
X178095013Y-100351394D01*
X178088803Y-100345184D01*
X177936064Y-100249211D01*
X177765795Y-100189631D01*
X177765790Y-100189630D01*
X177586545Y-100169435D01*
X177586537Y-100169435D01*
X177407291Y-100189630D01*
X177407286Y-100189631D01*
X177237017Y-100249211D01*
X177084273Y-100345187D01*
X177080345Y-100348320D01*
X177015656Y-100374723D01*
X176946962Y-100361961D01*
X176915360Y-100339047D01*
X176896497Y-100320184D01*
X176743758Y-100224211D01*
X176573489Y-100164631D01*
X176573484Y-100164630D01*
X176394239Y-100144435D01*
X176394231Y-100144435D01*
X176214985Y-100164630D01*
X176214980Y-100164631D01*
X176044711Y-100224211D01*
X175891972Y-100320184D01*
X175885763Y-100326394D01*
X175824440Y-100359879D01*
X175754748Y-100354895D01*
X175710401Y-100326394D01*
X175704191Y-100320184D01*
X175551452Y-100224211D01*
X175381183Y-100164631D01*
X175381178Y-100164630D01*
X175201933Y-100144435D01*
X175201925Y-100144435D01*
X175022679Y-100164630D01*
X175022674Y-100164631D01*
X174852405Y-100224211D01*
X174699661Y-100320187D01*
X174695733Y-100323320D01*
X174631044Y-100349723D01*
X174562350Y-100336961D01*
X174530748Y-100314047D01*
X174511885Y-100295184D01*
X174359146Y-100199211D01*
X174188877Y-100139631D01*
X174188872Y-100139630D01*
X174009627Y-100119435D01*
X174009619Y-100119435D01*
X173830373Y-100139630D01*
X173830368Y-100139631D01*
X173660099Y-100199211D01*
X173507357Y-100295186D01*
X173507353Y-100295189D01*
X173501141Y-100301401D01*
X173439815Y-100334881D01*
X173370124Y-100329890D01*
X173325787Y-100301393D01*
X173319578Y-100295184D01*
X173166839Y-100199211D01*
X172996570Y-100139631D01*
X172996565Y-100139630D01*
X172817320Y-100119435D01*
X172817312Y-100119435D01*
X172638066Y-100139630D01*
X172638061Y-100139631D01*
X172467792Y-100199211D01*
X172315046Y-100295189D01*
X172311114Y-100298324D01*
X172246423Y-100324722D01*
X172177730Y-100311956D01*
X172146135Y-100289046D01*
X172127273Y-100270184D01*
X171974534Y-100174211D01*
X171804265Y-100114631D01*
X171804260Y-100114630D01*
X171625015Y-100094435D01*
X171625007Y-100094435D01*
X171445761Y-100114630D01*
X171445756Y-100114631D01*
X171275487Y-100174211D01*
X171122748Y-100270184D01*
X170995195Y-100397737D01*
X170899222Y-100550476D01*
X170839642Y-100720745D01*
X170839641Y-100720750D01*
X170819446Y-100899996D01*
X170819446Y-100900003D01*
X162705133Y-100900003D01*
X162720185Y-100848743D01*
X162736819Y-100828101D01*
X163014444Y-100550476D01*
X163402140Y-100162781D01*
X163402141Y-100162779D01*
X163409201Y-100155719D01*
X163409206Y-100155712D01*
X167133101Y-96431819D01*
X167194424Y-96398334D01*
X167220782Y-96395500D01*
X177882127Y-96395500D01*
X178305500Y-96395500D01*
X178372539Y-96415185D01*
X178418294Y-96467989D01*
X178429500Y-96519500D01*
X178429500Y-96810500D01*
X178409815Y-96877539D01*
X178357011Y-96923294D01*
X178305500Y-96934500D01*
X177882129Y-96934500D01*
X177882123Y-96934501D01*
X177822516Y-96940908D01*
X177687671Y-96991202D01*
X177687664Y-96991206D01*
X177572455Y-97077452D01*
X177572452Y-97077455D01*
X177486206Y-97192664D01*
X177486202Y-97192671D01*
X177435908Y-97327517D01*
X177429501Y-97387116D01*
X177429501Y-97387123D01*
X177429500Y-97387135D01*
X177429500Y-98482870D01*
X177429501Y-98482876D01*
X177435908Y-98542483D01*
X177486202Y-98677328D01*
X177486206Y-98677335D01*
X177572452Y-98792544D01*
X177572455Y-98792547D01*
X177687664Y-98878793D01*
X177687671Y-98878797D01*
X177822517Y-98929091D01*
X177822516Y-98929091D01*
X177829444Y-98929835D01*
X177882127Y-98935500D01*
X179321456Y-98935499D01*
X179321470Y-98935500D01*
X179331459Y-98935500D01*
X179542975Y-98935500D01*
X179542983Y-98935499D01*
X180977871Y-98935499D01*
X180977872Y-98935499D01*
X181037483Y-98929091D01*
X181172331Y-98878796D01*
X181287546Y-98792546D01*
X181373796Y-98677331D01*
X181424091Y-98542483D01*
X181430500Y-98482873D01*
X181430500Y-98185000D01*
X182470000Y-98185000D01*
X182470000Y-98482844D01*
X182476401Y-98542372D01*
X182476403Y-98542379D01*
X182526645Y-98677086D01*
X182526649Y-98677093D01*
X182612809Y-98792187D01*
X182612812Y-98792190D01*
X182727906Y-98878350D01*
X182727913Y-98878354D01*
X182862620Y-98928596D01*
X182862627Y-98928598D01*
X182922155Y-98934999D01*
X182922172Y-98935000D01*
X184220000Y-98935000D01*
X184220000Y-98185000D01*
X184720000Y-98185000D01*
X184720000Y-98935000D01*
X186017828Y-98935000D01*
X186017844Y-98934999D01*
X186077372Y-98928598D01*
X186077379Y-98928596D01*
X186212086Y-98878354D01*
X186212093Y-98878350D01*
X186327187Y-98792190D01*
X186327190Y-98792187D01*
X186413350Y-98677093D01*
X186413354Y-98677086D01*
X186463596Y-98542379D01*
X186463598Y-98542372D01*
X186469999Y-98482844D01*
X186470000Y-98482827D01*
X186470000Y-98185000D01*
X184720000Y-98185000D01*
X184220000Y-98185000D01*
X182470000Y-98185000D01*
X181430500Y-98185000D01*
X181430499Y-97685000D01*
X182470000Y-97685000D01*
X184220000Y-97685000D01*
X184220000Y-96935000D01*
X184720000Y-96935000D01*
X184720000Y-97685000D01*
X186470000Y-97685000D01*
X186470000Y-97387172D01*
X186469999Y-97387155D01*
X186463598Y-97327627D01*
X186463596Y-97327620D01*
X186413354Y-97192913D01*
X186413350Y-97192906D01*
X186327190Y-97077812D01*
X186327187Y-97077809D01*
X186212093Y-96991649D01*
X186212086Y-96991645D01*
X186077379Y-96941403D01*
X186077372Y-96941401D01*
X186017844Y-96935000D01*
X184720000Y-96935000D01*
X184220000Y-96935000D01*
X182922155Y-96935000D01*
X182862627Y-96941401D01*
X182862620Y-96941403D01*
X182727913Y-96991645D01*
X182727906Y-96991649D01*
X182612812Y-97077809D01*
X182612809Y-97077812D01*
X182526649Y-97192906D01*
X182526645Y-97192913D01*
X182476403Y-97327620D01*
X182476401Y-97327627D01*
X182470000Y-97387155D01*
X182470000Y-97685000D01*
X181430499Y-97685000D01*
X181430499Y-97387128D01*
X181424091Y-97327517D01*
X181373884Y-97192906D01*
X181373797Y-97192671D01*
X181373793Y-97192664D01*
X181287547Y-97077455D01*
X181287544Y-97077452D01*
X181172335Y-96991206D01*
X181172328Y-96991202D01*
X181037482Y-96940908D01*
X181037483Y-96940908D01*
X180977883Y-96934501D01*
X180977881Y-96934500D01*
X180977873Y-96934500D01*
X180977865Y-96934500D01*
X180554500Y-96934500D01*
X180487461Y-96914815D01*
X180441706Y-96862011D01*
X180430500Y-96810500D01*
X180430500Y-96519499D01*
X180450185Y-96452460D01*
X180502989Y-96406705D01*
X180554500Y-96395499D01*
X180977871Y-96395499D01*
X180977872Y-96395499D01*
X181037483Y-96389091D01*
X181172331Y-96338796D01*
X181287546Y-96252546D01*
X181373796Y-96137331D01*
X181424091Y-96002483D01*
X181430500Y-95942873D01*
X181430500Y-95645000D01*
X182470000Y-95645000D01*
X182470000Y-95942844D01*
X182476401Y-96002372D01*
X182476403Y-96002379D01*
X182526645Y-96137086D01*
X182526649Y-96137093D01*
X182612809Y-96252187D01*
X182612812Y-96252190D01*
X182727906Y-96338350D01*
X182727913Y-96338354D01*
X182862620Y-96388596D01*
X182862627Y-96388598D01*
X182922155Y-96394999D01*
X182922172Y-96395000D01*
X184220000Y-96395000D01*
X184220000Y-95645000D01*
X184720000Y-95645000D01*
X184720000Y-96395000D01*
X186017828Y-96395000D01*
X186017844Y-96394999D01*
X186077372Y-96388598D01*
X186077379Y-96388596D01*
X186212086Y-96338354D01*
X186212093Y-96338350D01*
X186327187Y-96252190D01*
X186327190Y-96252187D01*
X186413350Y-96137093D01*
X186413354Y-96137086D01*
X186463596Y-96002379D01*
X186463598Y-96002372D01*
X186469999Y-95942844D01*
X186470000Y-95942827D01*
X186470000Y-95645000D01*
X184720000Y-95645000D01*
X184220000Y-95645000D01*
X182470000Y-95645000D01*
X181430500Y-95645000D01*
X181430499Y-95145000D01*
X182470000Y-95145000D01*
X184220000Y-95145000D01*
X184220000Y-94395000D01*
X184720000Y-94395000D01*
X184720000Y-95145000D01*
X186470000Y-95145000D01*
X186470000Y-94847172D01*
X186469999Y-94847155D01*
X186463598Y-94787627D01*
X186463596Y-94787620D01*
X186413354Y-94652913D01*
X186413350Y-94652906D01*
X186327190Y-94537812D01*
X186327187Y-94537809D01*
X186212093Y-94451649D01*
X186212086Y-94451645D01*
X186077379Y-94401403D01*
X186077372Y-94401401D01*
X186017844Y-94395000D01*
X184720000Y-94395000D01*
X184220000Y-94395000D01*
X182922155Y-94395000D01*
X182862627Y-94401401D01*
X182862620Y-94401403D01*
X182727913Y-94451645D01*
X182727906Y-94451649D01*
X182612812Y-94537809D01*
X182612809Y-94537812D01*
X182526649Y-94652906D01*
X182526645Y-94652913D01*
X182476403Y-94787620D01*
X182476401Y-94787627D01*
X182470000Y-94847155D01*
X182470000Y-95145000D01*
X181430499Y-95145000D01*
X181430499Y-94847128D01*
X181424091Y-94787517D01*
X181373884Y-94652906D01*
X181373797Y-94652671D01*
X181373793Y-94652664D01*
X181287547Y-94537455D01*
X181287544Y-94537452D01*
X181172335Y-94451206D01*
X181172328Y-94451202D01*
X181037482Y-94400908D01*
X181037483Y-94400908D01*
X180977883Y-94394501D01*
X180977881Y-94394500D01*
X180977873Y-94394500D01*
X180977865Y-94394500D01*
X180554500Y-94394500D01*
X180487461Y-94374815D01*
X180441706Y-94322011D01*
X180430500Y-94270500D01*
X180430500Y-93979499D01*
X180450185Y-93912460D01*
X180502989Y-93866705D01*
X180554500Y-93855499D01*
X180977871Y-93855499D01*
X180977872Y-93855499D01*
X181037483Y-93849091D01*
X181172331Y-93798796D01*
X181287546Y-93712546D01*
X181373796Y-93597331D01*
X181424091Y-93462483D01*
X181430500Y-93402873D01*
X181430500Y-93105000D01*
X182470000Y-93105000D01*
X182470000Y-93402844D01*
X182476401Y-93462372D01*
X182476403Y-93462379D01*
X182526645Y-93597086D01*
X182526649Y-93597093D01*
X182612809Y-93712187D01*
X182612812Y-93712190D01*
X182727906Y-93798350D01*
X182727913Y-93798354D01*
X182862620Y-93848596D01*
X182862627Y-93848598D01*
X182922155Y-93854999D01*
X182922172Y-93855000D01*
X184220000Y-93855000D01*
X184220000Y-93105000D01*
X184720000Y-93105000D01*
X184720000Y-93855000D01*
X186017828Y-93855000D01*
X186017844Y-93854999D01*
X186077372Y-93848598D01*
X186077379Y-93848596D01*
X186212086Y-93798354D01*
X186212093Y-93798350D01*
X186327187Y-93712190D01*
X186327190Y-93712187D01*
X186413350Y-93597093D01*
X186413354Y-93597086D01*
X186463596Y-93462379D01*
X186463598Y-93462372D01*
X186469999Y-93402844D01*
X186470000Y-93402827D01*
X186470000Y-93105000D01*
X184720000Y-93105000D01*
X184220000Y-93105000D01*
X182470000Y-93105000D01*
X181430500Y-93105000D01*
X181430499Y-92605000D01*
X182470000Y-92605000D01*
X184220000Y-92605000D01*
X184220000Y-91855000D01*
X184720000Y-91855000D01*
X184720000Y-92605000D01*
X186470000Y-92605000D01*
X186470000Y-92307172D01*
X186469999Y-92307155D01*
X186463598Y-92247627D01*
X186463596Y-92247620D01*
X186413354Y-92112913D01*
X186413350Y-92112906D01*
X186327190Y-91997812D01*
X186327187Y-91997809D01*
X186212093Y-91911649D01*
X186212086Y-91911645D01*
X186077379Y-91861403D01*
X186077372Y-91861401D01*
X186017844Y-91855000D01*
X184720000Y-91855000D01*
X184220000Y-91855000D01*
X182922155Y-91855000D01*
X182862627Y-91861401D01*
X182862620Y-91861403D01*
X182727913Y-91911645D01*
X182727906Y-91911649D01*
X182612812Y-91997809D01*
X182612809Y-91997812D01*
X182526649Y-92112906D01*
X182526645Y-92112913D01*
X182476403Y-92247620D01*
X182476401Y-92247627D01*
X182470000Y-92307155D01*
X182470000Y-92605000D01*
X181430499Y-92605000D01*
X181430499Y-92307128D01*
X181424091Y-92247517D01*
X181377616Y-92122912D01*
X181373797Y-92112671D01*
X181373793Y-92112664D01*
X181287547Y-91997455D01*
X181287544Y-91997452D01*
X181172335Y-91911206D01*
X181172328Y-91911202D01*
X181037482Y-91860908D01*
X181037483Y-91860908D01*
X180977883Y-91854501D01*
X180977881Y-91854500D01*
X180977873Y-91854500D01*
X180977865Y-91854500D01*
X180554500Y-91854500D01*
X180487461Y-91834815D01*
X180441706Y-91782011D01*
X180430500Y-91730500D01*
X180430500Y-91439499D01*
X180450185Y-91372460D01*
X180502989Y-91326705D01*
X180554500Y-91315499D01*
X180977871Y-91315499D01*
X180977872Y-91315499D01*
X181037483Y-91309091D01*
X181172331Y-91258796D01*
X181287546Y-91172546D01*
X181373796Y-91057331D01*
X181424091Y-90922483D01*
X181430500Y-90862873D01*
X181430500Y-90565000D01*
X182470000Y-90565000D01*
X182470000Y-90862844D01*
X182476401Y-90922372D01*
X182476403Y-90922379D01*
X182526645Y-91057086D01*
X182526649Y-91057093D01*
X182612809Y-91172187D01*
X182612812Y-91172190D01*
X182727906Y-91258350D01*
X182727913Y-91258354D01*
X182862620Y-91308596D01*
X182862627Y-91308598D01*
X182922155Y-91314999D01*
X182922172Y-91315000D01*
X184220000Y-91315000D01*
X184220000Y-90565000D01*
X184720000Y-90565000D01*
X184720000Y-91315000D01*
X186017828Y-91315000D01*
X186017844Y-91314999D01*
X186077372Y-91308598D01*
X186077379Y-91308596D01*
X186212086Y-91258354D01*
X186212093Y-91258350D01*
X186327187Y-91172190D01*
X186327190Y-91172187D01*
X186413350Y-91057093D01*
X186413354Y-91057086D01*
X186463596Y-90922379D01*
X186463598Y-90922372D01*
X186469999Y-90862844D01*
X186470000Y-90862827D01*
X186470000Y-90565000D01*
X184720000Y-90565000D01*
X184220000Y-90565000D01*
X182470000Y-90565000D01*
X181430500Y-90565000D01*
X181430499Y-90065000D01*
X182470000Y-90065000D01*
X184220000Y-90065000D01*
X184220000Y-89315000D01*
X184720000Y-89315000D01*
X184720000Y-90065000D01*
X186470000Y-90065000D01*
X186470000Y-89767172D01*
X186469999Y-89767155D01*
X186463598Y-89707627D01*
X186463596Y-89707620D01*
X186413354Y-89572913D01*
X186413350Y-89572906D01*
X186327190Y-89457812D01*
X186327187Y-89457809D01*
X186212093Y-89371649D01*
X186212086Y-89371645D01*
X186077379Y-89321403D01*
X186077372Y-89321401D01*
X186017844Y-89315000D01*
X184720000Y-89315000D01*
X184220000Y-89315000D01*
X182922155Y-89315000D01*
X182862627Y-89321401D01*
X182862620Y-89321403D01*
X182727913Y-89371645D01*
X182727906Y-89371649D01*
X182612812Y-89457809D01*
X182612809Y-89457812D01*
X182526649Y-89572906D01*
X182526645Y-89572913D01*
X182476403Y-89707620D01*
X182476401Y-89707627D01*
X182470000Y-89767155D01*
X182470000Y-90065000D01*
X181430499Y-90065000D01*
X181430499Y-89767128D01*
X181424091Y-89707517D01*
X181373884Y-89572906D01*
X181373797Y-89572671D01*
X181373793Y-89572664D01*
X181287547Y-89457455D01*
X181287544Y-89457452D01*
X181172335Y-89371206D01*
X181172328Y-89371202D01*
X181037482Y-89320908D01*
X181037483Y-89320908D01*
X180977883Y-89314501D01*
X180977881Y-89314500D01*
X180977873Y-89314500D01*
X180977865Y-89314500D01*
X172780783Y-89314500D01*
X172713744Y-89294815D01*
X172693102Y-89278181D01*
X169439924Y-86025003D01*
X170744435Y-86025003D01*
X170764630Y-86204249D01*
X170764631Y-86204254D01*
X170824211Y-86374523D01*
X170856227Y-86425475D01*
X170920184Y-86527262D01*
X171047738Y-86654816D01*
X171200478Y-86750789D01*
X171294826Y-86783802D01*
X171351601Y-86824523D01*
X171377349Y-86889476D01*
X171370914Y-86941796D01*
X171360783Y-86970748D01*
X171340588Y-87149996D01*
X171340588Y-87150003D01*
X171360783Y-87329249D01*
X171360784Y-87329254D01*
X171420364Y-87499523D01*
X171467490Y-87574523D01*
X171516337Y-87652262D01*
X171643891Y-87779816D01*
X171796631Y-87875789D01*
X171868077Y-87900789D01*
X171966898Y-87935368D01*
X171966903Y-87935369D01*
X172146149Y-87955565D01*
X172146153Y-87955565D01*
X172146157Y-87955565D01*
X172325402Y-87935369D01*
X172325405Y-87935368D01*
X172325408Y-87935368D01*
X172495675Y-87875789D01*
X172648415Y-87779816D01*
X172654625Y-87773606D01*
X172715948Y-87740121D01*
X172785640Y-87745105D01*
X172829987Y-87773606D01*
X172836197Y-87779816D01*
X172988937Y-87875789D01*
X173060383Y-87900789D01*
X173159204Y-87935368D01*
X173159209Y-87935369D01*
X173338455Y-87955565D01*
X173338459Y-87955565D01*
X173338463Y-87955565D01*
X173517708Y-87935369D01*
X173517711Y-87935368D01*
X173517714Y-87935368D01*
X173687981Y-87875789D01*
X173840721Y-87779816D01*
X173840726Y-87779810D01*
X173844642Y-87776688D01*
X173909328Y-87750278D01*
X173978024Y-87763032D01*
X174009639Y-87785952D01*
X174028503Y-87804816D01*
X174181243Y-87900789D01*
X174252689Y-87925789D01*
X174351510Y-87960368D01*
X174351515Y-87960369D01*
X174530761Y-87980565D01*
X174530765Y-87980565D01*
X174530769Y-87980565D01*
X174710014Y-87960369D01*
X174710017Y-87960368D01*
X174710020Y-87960368D01*
X174880287Y-87900789D01*
X175033027Y-87804816D01*
X175039237Y-87798606D01*
X175100560Y-87765121D01*
X175170252Y-87770105D01*
X175214599Y-87798606D01*
X175220809Y-87804816D01*
X175373549Y-87900789D01*
X175444995Y-87925789D01*
X175543816Y-87960368D01*
X175543821Y-87960369D01*
X175723067Y-87980565D01*
X175723071Y-87980565D01*
X175723075Y-87980565D01*
X175902320Y-87960369D01*
X175902323Y-87960368D01*
X175902326Y-87960368D01*
X176072593Y-87900789D01*
X176225333Y-87804816D01*
X176225338Y-87804810D01*
X176229254Y-87801688D01*
X176293940Y-87775278D01*
X176362636Y-87788032D01*
X176394251Y-87810952D01*
X176413115Y-87829816D01*
X176565855Y-87925789D01*
X176637301Y-87950789D01*
X176736122Y-87985368D01*
X176736127Y-87985369D01*
X176915373Y-88005565D01*
X176915377Y-88005565D01*
X176915381Y-88005565D01*
X177094626Y-87985369D01*
X177094629Y-87985368D01*
X177094632Y-87985368D01*
X177264899Y-87925789D01*
X177417639Y-87829816D01*
X177423849Y-87823606D01*
X177485172Y-87790121D01*
X177554864Y-87795105D01*
X177599211Y-87823606D01*
X177605421Y-87829816D01*
X177758161Y-87925789D01*
X177829607Y-87950789D01*
X177928428Y-87985368D01*
X177928433Y-87985369D01*
X178107679Y-88005565D01*
X178107683Y-88005565D01*
X178107687Y-88005565D01*
X178286932Y-87985369D01*
X178286935Y-87985368D01*
X178286938Y-87985368D01*
X178457205Y-87925789D01*
X178609945Y-87829816D01*
X178609950Y-87829810D01*
X178613866Y-87826688D01*
X178678552Y-87800278D01*
X178747248Y-87813032D01*
X178778863Y-87835952D01*
X178797727Y-87854816D01*
X178870891Y-87900788D01*
X178925924Y-87935368D01*
X178950467Y-87950789D01*
X179107008Y-88005565D01*
X179120734Y-88010368D01*
X179120739Y-88010369D01*
X179299985Y-88030565D01*
X179299989Y-88030565D01*
X179299993Y-88030565D01*
X179479238Y-88010369D01*
X179479241Y-88010368D01*
X179479244Y-88010368D01*
X179649511Y-87950789D01*
X179802251Y-87854816D01*
X179929805Y-87727262D01*
X180025778Y-87574522D01*
X180085357Y-87404255D01*
X180085358Y-87404249D01*
X180105554Y-87225003D01*
X180105554Y-87224996D01*
X180085358Y-87045750D01*
X180085357Y-87045745D01*
X180059113Y-86970745D01*
X180025778Y-86875478D01*
X179929805Y-86722738D01*
X179802251Y-86595184D01*
X179694154Y-86527262D01*
X179649510Y-86499210D01*
X179555162Y-86466197D01*
X179498386Y-86425475D01*
X179472638Y-86360523D01*
X179479074Y-86308203D01*
X179489204Y-86279255D01*
X179489205Y-86279248D01*
X179509401Y-86100003D01*
X179509401Y-86099996D01*
X179489205Y-85920750D01*
X179489204Y-85920745D01*
X179441927Y-85785636D01*
X179429625Y-85750478D01*
X179333652Y-85597738D01*
X179206098Y-85470184D01*
X179189698Y-85459879D01*
X179053359Y-85374211D01*
X178883090Y-85314631D01*
X178883085Y-85314630D01*
X178703840Y-85294435D01*
X178703832Y-85294435D01*
X178524586Y-85314630D01*
X178524581Y-85314631D01*
X178354312Y-85374211D01*
X178201568Y-85470187D01*
X178197640Y-85473320D01*
X178132951Y-85499723D01*
X178064257Y-85486961D01*
X178032655Y-85464047D01*
X178013792Y-85445184D01*
X177861053Y-85349211D01*
X177690784Y-85289631D01*
X177690779Y-85289630D01*
X177511534Y-85269435D01*
X177511526Y-85269435D01*
X177332280Y-85289630D01*
X177332275Y-85289631D01*
X177162006Y-85349211D01*
X177009267Y-85445184D01*
X177003058Y-85451394D01*
X176941735Y-85484879D01*
X176872043Y-85479895D01*
X176827696Y-85451394D01*
X176821486Y-85445184D01*
X176668747Y-85349211D01*
X176498478Y-85289631D01*
X176498473Y-85289630D01*
X176319228Y-85269435D01*
X176319220Y-85269435D01*
X176139974Y-85289630D01*
X176139969Y-85289631D01*
X175969700Y-85349211D01*
X175816956Y-85445187D01*
X175813028Y-85448320D01*
X175748339Y-85474723D01*
X175679645Y-85461961D01*
X175648043Y-85439047D01*
X175629180Y-85420184D01*
X175476441Y-85324211D01*
X175306172Y-85264631D01*
X175306167Y-85264630D01*
X175126922Y-85244435D01*
X175126914Y-85244435D01*
X174947668Y-85264630D01*
X174947663Y-85264631D01*
X174777394Y-85324211D01*
X174624655Y-85420184D01*
X174618446Y-85426394D01*
X174557123Y-85459879D01*
X174487431Y-85454895D01*
X174443084Y-85426394D01*
X174436874Y-85420184D01*
X174284135Y-85324211D01*
X174113866Y-85264631D01*
X174113861Y-85264630D01*
X173934616Y-85244435D01*
X173934608Y-85244435D01*
X173755362Y-85264630D01*
X173755357Y-85264631D01*
X173585088Y-85324211D01*
X173432344Y-85420187D01*
X173428416Y-85423320D01*
X173363727Y-85449723D01*
X173295033Y-85436961D01*
X173263431Y-85414047D01*
X173244568Y-85395184D01*
X173091829Y-85299211D01*
X172921560Y-85239631D01*
X172921555Y-85239630D01*
X172742310Y-85219435D01*
X172742302Y-85219435D01*
X172563056Y-85239630D01*
X172563051Y-85239631D01*
X172392782Y-85299211D01*
X172240043Y-85395184D01*
X172233834Y-85401394D01*
X172172511Y-85434879D01*
X172102819Y-85429895D01*
X172058472Y-85401394D01*
X172052262Y-85395184D01*
X171899523Y-85299211D01*
X171729254Y-85239631D01*
X171729249Y-85239630D01*
X171550004Y-85219435D01*
X171549996Y-85219435D01*
X171370750Y-85239630D01*
X171370745Y-85239631D01*
X171200476Y-85299211D01*
X171047737Y-85395184D01*
X170920184Y-85522737D01*
X170824211Y-85675476D01*
X170764631Y-85845745D01*
X170764630Y-85845750D01*
X170744435Y-86024996D01*
X170744435Y-86025003D01*
X169439924Y-86025003D01*
X164737781Y-81322861D01*
X164386819Y-80971899D01*
X164353334Y-80910576D01*
X164350500Y-80884218D01*
X164350500Y-79051456D01*
X164312052Y-78858170D01*
X164312051Y-78858169D01*
X164312051Y-78858165D01*
X164312049Y-78858160D01*
X164236635Y-78676092D01*
X164236628Y-78676079D01*
X164127139Y-78512218D01*
X164127136Y-78512214D01*
X163987785Y-78372863D01*
X163987781Y-78372860D01*
X163823920Y-78263371D01*
X163823907Y-78263364D01*
X163641839Y-78187950D01*
X163641829Y-78187947D01*
X163448543Y-78149500D01*
X163448541Y-78149500D01*
X163251459Y-78149500D01*
X163251457Y-78149500D01*
X163058170Y-78187947D01*
X163058160Y-78187950D01*
X162876092Y-78263364D01*
X162876079Y-78263371D01*
X162712218Y-78372860D01*
X162712214Y-78372863D01*
X162572863Y-78512214D01*
X162572860Y-78512218D01*
X162463371Y-78676079D01*
X162463364Y-78676092D01*
X162387950Y-78858160D01*
X162387947Y-78858170D01*
X162349500Y-79051456D01*
X162349500Y-79051459D01*
X162349500Y-81448541D01*
X162349500Y-81448543D01*
X162349499Y-81448543D01*
X162387947Y-81641829D01*
X162387950Y-81641839D01*
X162463364Y-81823907D01*
X162463371Y-81823920D01*
X162572860Y-81987781D01*
X162572863Y-81987785D01*
X162716537Y-82131459D01*
X162716559Y-82131479D01*
X163322861Y-82737781D01*
X171537860Y-90952781D01*
X171537861Y-90952782D01*
X171677218Y-91092139D01*
X171841086Y-91201632D01*
X171947745Y-91245811D01*
X172023164Y-91277051D01*
X172181761Y-91308598D01*
X172216454Y-91315499D01*
X172216457Y-91315500D01*
X172216459Y-91315500D01*
X177882127Y-91315500D01*
X178305500Y-91315500D01*
X178372539Y-91335185D01*
X178418294Y-91387989D01*
X178429500Y-91439500D01*
X178429500Y-91730500D01*
X178409815Y-91797539D01*
X178357011Y-91843294D01*
X178305500Y-91854500D01*
X177882129Y-91854500D01*
X177882123Y-91854501D01*
X177822516Y-91860908D01*
X177687671Y-91911202D01*
X177687664Y-91911206D01*
X177572455Y-91997452D01*
X177572452Y-91997455D01*
X177486206Y-92112664D01*
X177486202Y-92112671D01*
X177435908Y-92247517D01*
X177429501Y-92307116D01*
X177429501Y-92307123D01*
X177429500Y-92307135D01*
X177429500Y-93402870D01*
X177429501Y-93402876D01*
X177435908Y-93462483D01*
X177486202Y-93597328D01*
X177486206Y-93597335D01*
X177572452Y-93712544D01*
X177572455Y-93712547D01*
X177687664Y-93798793D01*
X177687671Y-93798797D01*
X177732618Y-93815561D01*
X177822517Y-93849091D01*
X177882127Y-93855500D01*
X178305500Y-93855499D01*
X178372539Y-93875183D01*
X178418294Y-93927987D01*
X178429500Y-93979499D01*
X178429500Y-94270500D01*
X178409815Y-94337539D01*
X178357011Y-94383294D01*
X178305500Y-94394500D01*
X157083120Y-94394500D01*
X157016081Y-94374815D01*
X157014227Y-94373601D01*
X156998916Y-94363370D01*
X156998910Y-94363367D01*
X156816836Y-94287949D01*
X156816828Y-94287947D01*
X156623543Y-94249500D01*
X156623540Y-94249500D01*
X156426460Y-94249500D01*
X156426457Y-94249500D01*
X156233171Y-94287947D01*
X156233163Y-94287949D01*
X156051089Y-94363367D01*
X156051079Y-94363372D01*
X155887219Y-94472860D01*
X155887215Y-94472863D01*
X155747863Y-94612215D01*
X155747860Y-94612219D01*
X155638372Y-94776079D01*
X155638367Y-94776089D01*
X155562949Y-94958163D01*
X155562947Y-94958171D01*
X155524500Y-95151455D01*
X155524500Y-95348544D01*
X150859284Y-95348544D01*
X150853953Y-94374815D01*
X150841998Y-92190996D01*
X150819616Y-88102543D01*
X150838933Y-88035398D01*
X150891486Y-87989354D01*
X150960589Y-87979032D01*
X150984566Y-87984823D01*
X150986122Y-87985368D01*
X150986129Y-87985368D01*
X150986130Y-87985369D01*
X151165373Y-88005565D01*
X151165377Y-88005565D01*
X151165381Y-88005565D01*
X151344626Y-87985369D01*
X151344629Y-87985368D01*
X151344632Y-87985368D01*
X151514899Y-87925789D01*
X151667639Y-87829816D01*
X151673849Y-87823606D01*
X151735172Y-87790121D01*
X151804864Y-87795105D01*
X151849211Y-87823606D01*
X151855421Y-87829816D01*
X152008161Y-87925789D01*
X152079607Y-87950789D01*
X152178428Y-87985368D01*
X152178433Y-87985369D01*
X152357679Y-88005565D01*
X152357683Y-88005565D01*
X152357687Y-88005565D01*
X152536932Y-87985369D01*
X152536935Y-87985368D01*
X152536938Y-87985368D01*
X152707205Y-87925789D01*
X152859945Y-87829816D01*
X152859950Y-87829810D01*
X152863866Y-87826688D01*
X152928552Y-87800278D01*
X152997248Y-87813032D01*
X153028863Y-87835952D01*
X153047727Y-87854816D01*
X153120891Y-87900788D01*
X153175924Y-87935368D01*
X153200467Y-87950789D01*
X153357008Y-88005565D01*
X153370734Y-88010368D01*
X153370739Y-88010369D01*
X153549985Y-88030565D01*
X153549989Y-88030565D01*
X153549993Y-88030565D01*
X153729238Y-88010369D01*
X153729241Y-88010368D01*
X153729244Y-88010368D01*
X153899511Y-87950789D01*
X154052251Y-87854816D01*
X154179805Y-87727262D01*
X154275778Y-87574522D01*
X154335357Y-87404255D01*
X154335358Y-87404249D01*
X154355554Y-87225003D01*
X154355554Y-87224996D01*
X154335358Y-87045750D01*
X154335357Y-87045745D01*
X154309113Y-86970745D01*
X154275778Y-86875478D01*
X154179805Y-86722738D01*
X154052251Y-86595184D01*
X153944154Y-86527262D01*
X153899510Y-86499210D01*
X153805162Y-86466197D01*
X153748386Y-86425475D01*
X153722638Y-86360523D01*
X153729074Y-86308203D01*
X153739204Y-86279255D01*
X153739205Y-86279248D01*
X153759401Y-86100003D01*
X153759401Y-86099996D01*
X153739205Y-85920750D01*
X153739204Y-85920745D01*
X153691927Y-85785636D01*
X153679625Y-85750478D01*
X153583652Y-85597738D01*
X153456098Y-85470184D01*
X153439698Y-85459879D01*
X153303359Y-85374211D01*
X153133090Y-85314631D01*
X153133085Y-85314630D01*
X152953840Y-85294435D01*
X152953832Y-85294435D01*
X152774586Y-85314630D01*
X152774581Y-85314631D01*
X152604312Y-85374211D01*
X152451568Y-85470187D01*
X152447640Y-85473320D01*
X152382951Y-85499723D01*
X152314257Y-85486961D01*
X152282655Y-85464047D01*
X152263792Y-85445184D01*
X152111053Y-85349211D01*
X151940784Y-85289631D01*
X151940779Y-85289630D01*
X151761534Y-85269435D01*
X151761526Y-85269435D01*
X151582280Y-85289630D01*
X151582275Y-85289631D01*
X151412006Y-85349211D01*
X151259267Y-85445184D01*
X151253058Y-85451394D01*
X151191735Y-85484879D01*
X151122043Y-85479895D01*
X151077696Y-85451394D01*
X151071486Y-85445184D01*
X150918745Y-85349210D01*
X150775854Y-85299211D01*
X150748479Y-85289632D01*
X150733212Y-85287911D01*
X150668799Y-85260844D01*
X150653642Y-85246190D01*
X150647923Y-85239632D01*
X150624374Y-85212627D01*
X150515341Y-85118750D01*
X150515337Y-85118748D01*
X150515336Y-85118747D01*
X150515338Y-85118747D01*
X150384275Y-85059393D01*
X150327925Y-85043039D01*
X150321494Y-85040526D01*
X150174689Y-85019892D01*
X144440824Y-85037980D01*
X144440821Y-85037980D01*
X144362050Y-85044407D01*
X144323891Y-85050552D01*
X144323868Y-85050557D01*
X144247071Y-85069183D01*
X144118083Y-85132929D01*
X144118074Y-85132934D01*
X144060488Y-85172483D01*
X144060486Y-85172485D01*
X144060475Y-85172494D01*
X143954680Y-85269993D01*
X143954678Y-85269994D01*
X143880634Y-85393354D01*
X143880632Y-85393358D01*
X143874083Y-85408942D01*
X143853565Y-85457772D01*
X143817276Y-85596987D01*
X143817274Y-85596999D01*
X143805986Y-85697176D01*
X143799808Y-85724244D01*
X143787081Y-85760617D01*
X143775032Y-85785636D01*
X143754529Y-85818266D01*
X143737217Y-85839975D01*
X143709975Y-85867217D01*
X143688267Y-85884529D01*
X143655634Y-85905034D01*
X143630616Y-85917082D01*
X143594245Y-85929809D01*
X143567175Y-85935988D01*
X143533429Y-85939790D01*
X143528885Y-85940302D01*
X143501123Y-85940302D01*
X143462824Y-85935986D01*
X143435758Y-85929809D01*
X143399379Y-85917080D01*
X143374360Y-85905032D01*
X143341733Y-85884531D01*
X143320024Y-85867218D01*
X143292781Y-85839975D01*
X143275469Y-85818267D01*
X143254964Y-85785634D01*
X143242917Y-85760619D01*
X143230188Y-85724241D01*
X143224011Y-85697183D01*
X143213384Y-85602849D01*
X143197995Y-85523700D01*
X143189452Y-85493055D01*
X143187406Y-85485715D01*
X143159627Y-85410018D01*
X143159625Y-85410016D01*
X143154045Y-85401394D01*
X143081458Y-85289225D01*
X143043930Y-85246190D01*
X143035542Y-85236571D01*
X143035540Y-85236569D01*
X143035537Y-85236566D01*
X142926507Y-85142691D01*
X142873644Y-85118750D01*
X142795442Y-85083333D01*
X142778797Y-85078502D01*
X142730657Y-85064532D01*
X142728988Y-85064011D01*
X142728331Y-85063857D01*
X142585854Y-85043831D01*
X142497702Y-85044109D01*
X142497687Y-85044110D01*
X142389704Y-85056126D01*
X142389695Y-85056128D01*
X142337961Y-85067616D01*
X142235035Y-85102436D01*
X142114440Y-85180875D01*
X142114427Y-85180885D01*
X142078197Y-85212628D01*
X142061877Y-85226927D01*
X142050991Y-85239630D01*
X141968253Y-85336177D01*
X141909199Y-85467383D01*
X141890601Y-85532031D01*
X141890056Y-85533788D01*
X141889886Y-85534516D01*
X141889885Y-85534520D01*
X141889885Y-85534522D01*
X141889884Y-85534525D01*
X141880443Y-85602845D01*
X141870188Y-85677050D01*
X141889475Y-89200321D01*
X141870158Y-89267467D01*
X141817605Y-89313511D01*
X141765477Y-89325000D01*
X140685000Y-89325000D01*
X140685000Y-91325000D01*
X141777784Y-91325000D01*
X141844823Y-91344685D01*
X141890578Y-91397489D01*
X141901782Y-91448321D01*
X141903380Y-91740320D01*
X141884063Y-91807467D01*
X141831510Y-91853510D01*
X141779382Y-91864999D01*
X140685000Y-91864999D01*
X140685000Y-93864999D01*
X141791689Y-93864999D01*
X141858728Y-93884684D01*
X141904483Y-93937488D01*
X141915687Y-93988320D01*
X141917286Y-94280322D01*
X141897969Y-94347468D01*
X141845416Y-94393512D01*
X141793288Y-94405001D01*
X140685000Y-94405001D01*
X140685000Y-96405001D01*
X141805595Y-96405001D01*
X141872634Y-96424686D01*
X141918389Y-96477490D01*
X141929593Y-96528322D01*
X141931191Y-96820321D01*
X141911874Y-96887468D01*
X141859321Y-96933511D01*
X141807193Y-96945000D01*
X140685000Y-96945000D01*
X140685000Y-98945000D01*
X140185000Y-98945000D01*
X140185000Y-98195000D01*
X138435000Y-98195000D01*
X138075500Y-98195000D01*
X138075500Y-97695000D01*
X138435000Y-97695000D01*
X140185000Y-97695000D01*
X140185000Y-96945000D01*
X138887155Y-96945000D01*
X138827627Y-96951401D01*
X138827620Y-96951403D01*
X138692913Y-97001645D01*
X138692906Y-97001649D01*
X138577812Y-97087809D01*
X138577809Y-97087812D01*
X138491649Y-97202906D01*
X138491645Y-97202913D01*
X138441403Y-97337620D01*
X138441401Y-97337627D01*
X138435000Y-97397155D01*
X138435000Y-97695000D01*
X138075500Y-97695000D01*
X138075500Y-95655001D01*
X138435000Y-95655001D01*
X138435000Y-95952845D01*
X138441401Y-96012373D01*
X138441403Y-96012380D01*
X138491645Y-96147087D01*
X138491649Y-96147094D01*
X138577809Y-96262188D01*
X138577812Y-96262191D01*
X138692906Y-96348351D01*
X138692913Y-96348355D01*
X138827620Y-96398597D01*
X138827627Y-96398599D01*
X138887155Y-96405000D01*
X138887172Y-96405001D01*
X140185000Y-96405001D01*
X140185000Y-95655001D01*
X138435000Y-95655001D01*
X138075500Y-95655001D01*
X138075500Y-95155001D01*
X138435000Y-95155001D01*
X140185000Y-95155001D01*
X140185000Y-94405001D01*
X138887155Y-94405001D01*
X138827627Y-94411402D01*
X138827620Y-94411404D01*
X138692913Y-94461646D01*
X138692906Y-94461650D01*
X138577812Y-94547810D01*
X138577809Y-94547813D01*
X138491649Y-94662907D01*
X138491645Y-94662914D01*
X138441403Y-94797621D01*
X138441401Y-94797628D01*
X138435000Y-94857156D01*
X138435000Y-95155001D01*
X138075500Y-95155001D01*
X138075500Y-93114999D01*
X138435000Y-93114999D01*
X138435000Y-93412843D01*
X138441401Y-93472371D01*
X138441403Y-93472378D01*
X138491645Y-93607085D01*
X138491649Y-93607092D01*
X138577809Y-93722186D01*
X138577812Y-93722189D01*
X138692906Y-93808349D01*
X138692913Y-93808353D01*
X138827620Y-93858595D01*
X138827627Y-93858597D01*
X138887155Y-93864998D01*
X138887172Y-93864999D01*
X140185000Y-93864999D01*
X140185000Y-93114999D01*
X138435000Y-93114999D01*
X138075500Y-93114999D01*
X138075500Y-92614999D01*
X138435000Y-92614999D01*
X140185000Y-92614999D01*
X140185000Y-91864999D01*
X138887155Y-91864999D01*
X138827627Y-91871400D01*
X138827620Y-91871402D01*
X138692913Y-91921644D01*
X138692906Y-91921648D01*
X138577812Y-92007808D01*
X138577809Y-92007811D01*
X138491649Y-92122905D01*
X138491645Y-92122912D01*
X138441403Y-92257619D01*
X138441401Y-92257626D01*
X138435000Y-92317154D01*
X138435000Y-92614999D01*
X138075500Y-92614999D01*
X138075500Y-90575000D01*
X138435000Y-90575000D01*
X138435000Y-90872844D01*
X138441401Y-90932372D01*
X138441403Y-90932379D01*
X138491645Y-91067086D01*
X138491649Y-91067093D01*
X138577809Y-91182187D01*
X138577812Y-91182190D01*
X138692906Y-91268350D01*
X138692913Y-91268354D01*
X138827620Y-91318596D01*
X138827627Y-91318598D01*
X138887155Y-91324999D01*
X138887172Y-91325000D01*
X140185000Y-91325000D01*
X140185000Y-90575000D01*
X138435000Y-90575000D01*
X138075500Y-90575000D01*
X138075500Y-90075000D01*
X138435000Y-90075000D01*
X140185000Y-90075000D01*
X140185000Y-89325000D01*
X138887155Y-89325000D01*
X138827627Y-89331401D01*
X138827620Y-89331403D01*
X138692913Y-89381645D01*
X138692906Y-89381649D01*
X138577812Y-89467809D01*
X138577809Y-89467812D01*
X138491649Y-89582906D01*
X138491645Y-89582913D01*
X138441403Y-89717620D01*
X138441401Y-89717627D01*
X138435000Y-89777155D01*
X138435000Y-90075000D01*
X138075500Y-90075000D01*
X138075500Y-76600003D01*
X156994435Y-76600003D01*
X157014630Y-76779249D01*
X157014631Y-76779254D01*
X157074211Y-76949523D01*
X157170184Y-77102262D01*
X157297738Y-77229816D01*
X157450478Y-77325789D01*
X157620745Y-77385368D01*
X157620750Y-77385369D01*
X157799996Y-77405565D01*
X157800000Y-77405565D01*
X157800004Y-77405565D01*
X157979249Y-77385369D01*
X157979252Y-77385368D01*
X157979255Y-77385368D01*
X158149522Y-77325789D01*
X158302262Y-77229816D01*
X158429816Y-77102262D01*
X158525789Y-76949522D01*
X158585368Y-76779255D01*
X158605565Y-76600000D01*
X158585368Y-76420745D01*
X158525789Y-76250478D01*
X158429816Y-76097738D01*
X158302262Y-75970184D01*
X158149523Y-75874211D01*
X157979254Y-75814631D01*
X157979249Y-75814630D01*
X157800004Y-75794435D01*
X157799996Y-75794435D01*
X157620750Y-75814630D01*
X157620745Y-75814631D01*
X157450476Y-75874211D01*
X157297737Y-75970184D01*
X157170184Y-76097737D01*
X157074211Y-76250476D01*
X157014631Y-76420745D01*
X157014630Y-76420750D01*
X156994435Y-76599996D01*
X156994435Y-76600003D01*
X138075500Y-76600003D01*
X138075500Y-74156286D01*
X141224500Y-74156286D01*
X141257753Y-74366239D01*
X141323444Y-74568414D01*
X141419951Y-74757820D01*
X141544890Y-74929786D01*
X141695213Y-75080109D01*
X141867179Y-75205048D01*
X141867181Y-75205049D01*
X141867184Y-75205051D01*
X142056588Y-75301557D01*
X142258757Y-75367246D01*
X142468713Y-75400500D01*
X142468714Y-75400500D01*
X142681286Y-75400500D01*
X142681287Y-75400500D01*
X142891243Y-75367246D01*
X143093412Y-75301557D01*
X143282816Y-75205051D01*
X143304789Y-75189086D01*
X143454786Y-75080109D01*
X143454788Y-75080106D01*
X143454792Y-75080104D01*
X143605104Y-74929792D01*
X143605106Y-74929788D01*
X143605109Y-74929786D01*
X143730048Y-74757820D01*
X143730047Y-74757820D01*
X143730051Y-74757816D01*
X143826557Y-74568412D01*
X143892246Y-74366243D01*
X143925500Y-74156287D01*
X143925500Y-74156286D01*
X181224500Y-74156286D01*
X181257753Y-74366239D01*
X181323444Y-74568414D01*
X181419951Y-74757820D01*
X181544890Y-74929786D01*
X181695213Y-75080109D01*
X181867179Y-75205048D01*
X181867181Y-75205049D01*
X181867184Y-75205051D01*
X182056588Y-75301557D01*
X182258757Y-75367246D01*
X182468713Y-75400500D01*
X182468714Y-75400500D01*
X182681286Y-75400500D01*
X182681287Y-75400500D01*
X182891243Y-75367246D01*
X183093412Y-75301557D01*
X183282816Y-75205051D01*
X183304789Y-75189086D01*
X183454786Y-75080109D01*
X183454788Y-75080106D01*
X183454792Y-75080104D01*
X183605104Y-74929792D01*
X183605106Y-74929788D01*
X183605109Y-74929786D01*
X183730048Y-74757820D01*
X183730047Y-74757820D01*
X183730051Y-74757816D01*
X183826557Y-74568412D01*
X183892246Y-74366243D01*
X183925500Y-74156287D01*
X183925500Y-73943713D01*
X183892246Y-73733757D01*
X183826557Y-73531588D01*
X183730051Y-73342184D01*
X183730049Y-73342181D01*
X183730048Y-73342179D01*
X183605109Y-73170213D01*
X183454786Y-73019890D01*
X183282820Y-72894951D01*
X183093414Y-72798444D01*
X183093413Y-72798443D01*
X183093412Y-72798443D01*
X182891243Y-72732754D01*
X182891241Y-72732753D01*
X182891240Y-72732753D01*
X182729957Y-72707208D01*
X182681287Y-72699500D01*
X182468713Y-72699500D01*
X182420042Y-72707208D01*
X182258760Y-72732753D01*
X182056585Y-72798444D01*
X181867179Y-72894951D01*
X181695213Y-73019890D01*
X181544890Y-73170213D01*
X181419951Y-73342179D01*
X181323444Y-73531585D01*
X181257753Y-73733760D01*
X181224500Y-73943713D01*
X181224500Y-74156286D01*
X143925500Y-74156286D01*
X143925500Y-73943713D01*
X143892246Y-73733757D01*
X143826557Y-73531588D01*
X143730051Y-73342184D01*
X143730049Y-73342181D01*
X143730048Y-73342179D01*
X143605109Y-73170213D01*
X143454786Y-73019890D01*
X143282820Y-72894951D01*
X143093414Y-72798444D01*
X143093413Y-72798443D01*
X143093412Y-72798443D01*
X142891243Y-72732754D01*
X142891241Y-72732753D01*
X142891240Y-72732753D01*
X142729957Y-72707208D01*
X142681287Y-72699500D01*
X142468713Y-72699500D01*
X142420042Y-72707208D01*
X142258760Y-72732753D01*
X142056585Y-72798444D01*
X141867179Y-72894951D01*
X141695213Y-73019890D01*
X141544890Y-73170213D01*
X141419951Y-73342179D01*
X141323444Y-73531585D01*
X141257753Y-73733760D01*
X141224500Y-73943713D01*
X141224500Y-74156286D01*
X138075500Y-74156286D01*
X138075500Y-74052706D01*
X138075618Y-74047297D01*
X138078377Y-73984108D01*
X138092386Y-73663226D01*
X138093326Y-73652495D01*
X138143152Y-73274025D01*
X138145025Y-73263405D01*
X138227649Y-72890709D01*
X138230440Y-72880295D01*
X138345230Y-72516227D01*
X138348917Y-72506095D01*
X138495003Y-72153412D01*
X138499561Y-72143638D01*
X138675822Y-71805045D01*
X138681217Y-71795700D01*
X138886325Y-71473744D01*
X138892515Y-71464905D01*
X139124896Y-71162060D01*
X139131834Y-71153791D01*
X139389726Y-70872352D01*
X139397352Y-70864726D01*
X139678791Y-70606834D01*
X139687060Y-70599896D01*
X139989905Y-70367515D01*
X139998744Y-70361325D01*
X140320700Y-70156217D01*
X140330045Y-70150822D01*
X140668638Y-69974561D01*
X140678412Y-69970003D01*
X141031095Y-69823917D01*
X141041227Y-69820230D01*
X141405295Y-69705440D01*
X141415709Y-69702649D01*
X141788405Y-69620025D01*
X141799025Y-69618152D01*
X142177495Y-69568326D01*
X142188226Y-69567386D01*
X142572297Y-69550617D01*
X142577706Y-69550500D01*
X142640892Y-69550500D01*
X182509108Y-69550500D01*
X182572294Y-69550500D01*
X182577702Y-69550617D01*
G37*
G04 #@! TD.AperFunction*
G04 #@! TA.AperFunction,Conductor*
G36*
X150243389Y-85544863D02*
G01*
X150289310Y-85597522D01*
X150300677Y-85648710D01*
X150355090Y-95588391D01*
X150350033Y-95618695D01*
X150351181Y-95618957D01*
X150349630Y-95625748D01*
X150329435Y-95804996D01*
X150329435Y-95805003D01*
X150349630Y-95984247D01*
X150349633Y-95984258D01*
X150350539Y-95986848D01*
X150357492Y-96027114D01*
X150374319Y-99100714D01*
X150355002Y-99167860D01*
X150302449Y-99213904D01*
X150250712Y-99225392D01*
X142573711Y-99249609D01*
X142506610Y-99230136D01*
X142460689Y-99177477D01*
X142449322Y-99126292D01*
X142432160Y-95991272D01*
X142432869Y-95977341D01*
X142435499Y-95952879D01*
X142435500Y-95952874D01*
X142435499Y-94857129D01*
X142429091Y-94797518D01*
X142429089Y-94797512D01*
X142428786Y-94796228D01*
X142425465Y-94768398D01*
X142418650Y-93523526D01*
X142426467Y-93479516D01*
X142429091Y-93472482D01*
X142435500Y-93412872D01*
X142435499Y-92317127D01*
X142429091Y-92257516D01*
X142419156Y-92230881D01*
X142411340Y-92188229D01*
X142404946Y-91020268D01*
X142412760Y-90976266D01*
X142429091Y-90932483D01*
X142435500Y-90872873D01*
X142435499Y-89777128D01*
X142429091Y-89717517D01*
X142429091Y-89717516D01*
X142429089Y-89717510D01*
X142405044Y-89653043D01*
X142397228Y-89610395D01*
X142375680Y-85674283D01*
X142394997Y-85607139D01*
X142447550Y-85561095D01*
X142499282Y-85549607D01*
X142587453Y-85549329D01*
X142654552Y-85568802D01*
X142700473Y-85621461D01*
X142711062Y-85659445D01*
X142729630Y-85824249D01*
X142729631Y-85824254D01*
X142789211Y-85994523D01*
X142885184Y-86147262D01*
X143012738Y-86274816D01*
X143165478Y-86370789D01*
X143335745Y-86430368D01*
X143335750Y-86430369D01*
X143514996Y-86450565D01*
X143515000Y-86450565D01*
X143515004Y-86450565D01*
X143694249Y-86430369D01*
X143694252Y-86430368D01*
X143694255Y-86430368D01*
X143864522Y-86370789D01*
X144017262Y-86274816D01*
X144144816Y-86147262D01*
X144240789Y-85994522D01*
X144300368Y-85824255D01*
X144318938Y-85659445D01*
X144319597Y-85653593D01*
X144346663Y-85589179D01*
X144404258Y-85549624D01*
X144442418Y-85543478D01*
X150176288Y-85525390D01*
X150243389Y-85544863D01*
G37*
G04 #@! TD.AperFunction*
M02*
