G04 #@! TF.GenerationSoftware,KiCad,Pcbnew,8.0.1*
G04 #@! TF.CreationDate,2025-02-17T13:43:14+05:00*
G04 #@! TF.ProjectId,pwm_servo,70776d5f-7365-4727-966f-2e6b69636164,rev?*
G04 #@! TF.SameCoordinates,Original*
G04 #@! TF.FileFunction,Legend,Bot*
G04 #@! TF.FilePolarity,Positive*
%FSLAX46Y46*%
G04 Gerber Fmt 4.6, Leading zero omitted, Abs format (unit mm)*
G04 Created by KiCad (PCBNEW 8.0.1) date 2025-02-17 13:43:14*
%MOMM*%
%LPD*%
G01*
G04 APERTURE LIST*
%ADD10C,0.100000*%
%ADD11C,0.120000*%
%ADD12C,2.200000*%
%ADD13R,3.000000X1.000000*%
G04 APERTURE END LIST*
D10*
X185853258Y-88757419D02*
X185900877Y-88733609D01*
X185900877Y-88733609D02*
X185972306Y-88733609D01*
X185972306Y-88733609D02*
X186043734Y-88757419D01*
X186043734Y-88757419D02*
X186091353Y-88805038D01*
X186091353Y-88805038D02*
X186115163Y-88852657D01*
X186115163Y-88852657D02*
X186138972Y-88947895D01*
X186138972Y-88947895D02*
X186138972Y-89019323D01*
X186138972Y-89019323D02*
X186115163Y-89114561D01*
X186115163Y-89114561D02*
X186091353Y-89162180D01*
X186091353Y-89162180D02*
X186043734Y-89209800D01*
X186043734Y-89209800D02*
X185972306Y-89233609D01*
X185972306Y-89233609D02*
X185924687Y-89233609D01*
X185924687Y-89233609D02*
X185853258Y-89209800D01*
X185853258Y-89209800D02*
X185829449Y-89185990D01*
X185829449Y-89185990D02*
X185829449Y-89019323D01*
X185829449Y-89019323D02*
X185924687Y-89019323D01*
X185615163Y-89233609D02*
X185615163Y-88733609D01*
X185615163Y-88733609D02*
X185329449Y-89233609D01*
X185329449Y-89233609D02*
X185329449Y-88733609D01*
X185091353Y-89233609D02*
X185091353Y-88733609D01*
X185091353Y-88733609D02*
X184972305Y-88733609D01*
X184972305Y-88733609D02*
X184900877Y-88757419D01*
X184900877Y-88757419D02*
X184853258Y-88805038D01*
X184853258Y-88805038D02*
X184829448Y-88852657D01*
X184829448Y-88852657D02*
X184805639Y-88947895D01*
X184805639Y-88947895D02*
X184805639Y-89019323D01*
X184805639Y-89019323D02*
X184829448Y-89114561D01*
X184829448Y-89114561D02*
X184853258Y-89162180D01*
X184853258Y-89162180D02*
X184900877Y-89209800D01*
X184900877Y-89209800D02*
X184972305Y-89233609D01*
X184972305Y-89233609D02*
X185091353Y-89233609D01*
X178727068Y-98883609D02*
X178965163Y-98883609D01*
X178965163Y-98883609D02*
X178988972Y-99121704D01*
X178988972Y-99121704D02*
X178965163Y-99097895D01*
X178965163Y-99097895D02*
X178917544Y-99074085D01*
X178917544Y-99074085D02*
X178798496Y-99074085D01*
X178798496Y-99074085D02*
X178750877Y-99097895D01*
X178750877Y-99097895D02*
X178727068Y-99121704D01*
X178727068Y-99121704D02*
X178703258Y-99169323D01*
X178703258Y-99169323D02*
X178703258Y-99288371D01*
X178703258Y-99288371D02*
X178727068Y-99335990D01*
X178727068Y-99335990D02*
X178750877Y-99359800D01*
X178750877Y-99359800D02*
X178798496Y-99383609D01*
X178798496Y-99383609D02*
X178917544Y-99383609D01*
X178917544Y-99383609D02*
X178965163Y-99359800D01*
X178965163Y-99359800D02*
X178988972Y-99335990D01*
X178560401Y-98883609D02*
X178393735Y-99383609D01*
X178393735Y-99383609D02*
X178227068Y-98883609D01*
X147162782Y-88783609D02*
X146853258Y-88783609D01*
X146853258Y-88783609D02*
X147019925Y-88974085D01*
X147019925Y-88974085D02*
X146948496Y-88974085D01*
X146948496Y-88974085D02*
X146900877Y-88997895D01*
X146900877Y-88997895D02*
X146877068Y-89021704D01*
X146877068Y-89021704D02*
X146853258Y-89069323D01*
X146853258Y-89069323D02*
X146853258Y-89188371D01*
X146853258Y-89188371D02*
X146877068Y-89235990D01*
X146877068Y-89235990D02*
X146900877Y-89259800D01*
X146900877Y-89259800D02*
X146948496Y-89283609D01*
X146948496Y-89283609D02*
X147091353Y-89283609D01*
X147091353Y-89283609D02*
X147138972Y-89259800D01*
X147138972Y-89259800D02*
X147162782Y-89235990D01*
X146710401Y-88783609D02*
X146543735Y-89283609D01*
X146543735Y-89283609D02*
X146377068Y-88783609D01*
X146258021Y-88783609D02*
X145948497Y-88783609D01*
X145948497Y-88783609D02*
X146115164Y-88974085D01*
X146115164Y-88974085D02*
X146043735Y-88974085D01*
X146043735Y-88974085D02*
X145996116Y-88997895D01*
X145996116Y-88997895D02*
X145972307Y-89021704D01*
X145972307Y-89021704D02*
X145948497Y-89069323D01*
X145948497Y-89069323D02*
X145948497Y-89188371D01*
X145948497Y-89188371D02*
X145972307Y-89235990D01*
X145972307Y-89235990D02*
X145996116Y-89259800D01*
X145996116Y-89259800D02*
X146043735Y-89283609D01*
X146043735Y-89283609D02*
X146186592Y-89283609D01*
X146186592Y-89283609D02*
X146234211Y-89259800D01*
X146234211Y-89259800D02*
X146258021Y-89235990D01*
X139728258Y-98957419D02*
X139775877Y-98933609D01*
X139775877Y-98933609D02*
X139847306Y-98933609D01*
X139847306Y-98933609D02*
X139918734Y-98957419D01*
X139918734Y-98957419D02*
X139966353Y-99005038D01*
X139966353Y-99005038D02*
X139990163Y-99052657D01*
X139990163Y-99052657D02*
X140013972Y-99147895D01*
X140013972Y-99147895D02*
X140013972Y-99219323D01*
X140013972Y-99219323D02*
X139990163Y-99314561D01*
X139990163Y-99314561D02*
X139966353Y-99362180D01*
X139966353Y-99362180D02*
X139918734Y-99409800D01*
X139918734Y-99409800D02*
X139847306Y-99433609D01*
X139847306Y-99433609D02*
X139799687Y-99433609D01*
X139799687Y-99433609D02*
X139728258Y-99409800D01*
X139728258Y-99409800D02*
X139704449Y-99385990D01*
X139704449Y-99385990D02*
X139704449Y-99219323D01*
X139704449Y-99219323D02*
X139799687Y-99219323D01*
X139490163Y-99433609D02*
X139490163Y-98933609D01*
X139490163Y-98933609D02*
X139204449Y-99433609D01*
X139204449Y-99433609D02*
X139204449Y-98933609D01*
X138966353Y-99433609D02*
X138966353Y-98933609D01*
X138966353Y-98933609D02*
X138847305Y-98933609D01*
X138847305Y-98933609D02*
X138775877Y-98957419D01*
X138775877Y-98957419D02*
X138728258Y-99005038D01*
X138728258Y-99005038D02*
X138704448Y-99052657D01*
X138704448Y-99052657D02*
X138680639Y-99147895D01*
X138680639Y-99147895D02*
X138680639Y-99219323D01*
X138680639Y-99219323D02*
X138704448Y-99314561D01*
X138704448Y-99314561D02*
X138728258Y-99362180D01*
X138728258Y-99362180D02*
X138775877Y-99409800D01*
X138775877Y-99409800D02*
X138847305Y-99433609D01*
X138847305Y-99433609D02*
X138966353Y-99433609D01*
D11*
X177990000Y-89555000D02*
X179350000Y-89555000D01*
X179350000Y-88985000D02*
X184550000Y-88985000D01*
X179350000Y-89555000D02*
X179350000Y-88985000D01*
X179350000Y-92095000D02*
X179350000Y-91075000D01*
X179350000Y-94635000D02*
X179350000Y-93615000D01*
X179350000Y-97175000D02*
X179350000Y-96155000D01*
X179350000Y-99265000D02*
X179350000Y-98695000D01*
X179350000Y-99265000D02*
X184550000Y-99265000D01*
X184550000Y-89555000D02*
X184550000Y-88985000D01*
X184550000Y-92095000D02*
X184550000Y-91075000D01*
X184550000Y-94635000D02*
X184550000Y-93615000D01*
X184550000Y-97175000D02*
X184550000Y-96155000D01*
X184550000Y-99265000D02*
X184550000Y-98695000D01*
X140354999Y-98705000D02*
X140355000Y-99274999D01*
X140355000Y-88995001D02*
X140354999Y-89565000D01*
X140355000Y-91085000D02*
X140355000Y-92105000D01*
X140355000Y-93625000D02*
X140355000Y-94645000D01*
X140355000Y-96165000D02*
X140355000Y-97185000D01*
X145555000Y-88995001D02*
X140355000Y-88995001D01*
X145555000Y-88995001D02*
X145555001Y-89565000D01*
X145555000Y-91085000D02*
X145555000Y-92105000D01*
X145555000Y-93625000D02*
X145555000Y-94645000D01*
X145555000Y-96165000D02*
X145555000Y-97185000D01*
X145555000Y-99274999D02*
X140355000Y-99274999D01*
X145555001Y-98705000D02*
X145555000Y-99274999D01*
X146915000Y-98705000D02*
X145555001Y-98705000D01*
%LPC*%
D12*
X182575000Y-74050000D03*
X142575000Y-114050000D03*
X182575000Y-114050000D03*
X142575000Y-74050000D03*
D13*
X179430000Y-90315000D03*
X184470000Y-90315000D03*
X179430000Y-92855000D03*
X184470000Y-92855000D03*
X179430000Y-95395000D03*
X184470000Y-95395000D03*
X179430000Y-97935000D03*
X184470000Y-97935000D03*
X145475000Y-97945000D03*
X140435000Y-97945000D03*
X145475000Y-95405001D03*
X140435000Y-95405001D03*
X145475000Y-92864999D03*
X140435000Y-92864999D03*
X145475000Y-90325000D03*
X140435000Y-90325000D03*
%LPD*%
M02*
