G04 #@! TF.GenerationSoftware,KiCad,Pcbnew,9.0.0*
G04 #@! TF.CreationDate,2025-02-26T21:36:30+05:00*
G04 #@! TF.ProjectId,stencil,7374656e-6369-46c2-9e6b-696361645f70,rev?*
G04 #@! TF.SameCoordinates,Original*
G04 #@! TF.FileFunction,Paste,Top*
G04 #@! TF.FilePolarity,Positive*
%FSLAX46Y46*%
G04 Gerber Fmt 4.6, Leading zero omitted, Abs format (unit mm)*
G04 Created by KiCad (PCBNEW 9.0.0) date 2025-02-26 21:36:30*
%MOMM*%
%LPD*%
G01*
G04 APERTURE LIST*
G04 Aperture macros list*
%AMRoundRect*
0 Rectangle with rounded corners*
0 $1 Rounding radius*
0 $2 $3 $4 $5 $6 $7 $8 $9 X,Y pos of 4 corners*
0 Add a 4 corners polygon primitive as box body*
4,1,4,$2,$3,$4,$5,$6,$7,$8,$9,$2,$3,0*
0 Add four circle primitives for the rounded corners*
1,1,$1+$1,$2,$3*
1,1,$1+$1,$4,$5*
1,1,$1+$1,$6,$7*
1,1,$1+$1,$8,$9*
0 Add four rect primitives between the rounded corners*
20,1,$1+$1,$2,$3,$4,$5,0*
20,1,$1+$1,$4,$5,$6,$7,0*
20,1,$1+$1,$6,$7,$8,$9,0*
20,1,$1+$1,$8,$9,$2,$3,0*%
%AMRotRect*
0 Rectangle, with rotation*
0 The origin of the aperture is its center*
0 $1 length*
0 $2 width*
0 $3 Rotation angle, in degrees counterclockwise*
0 Add horizontal line*
21,1,$1,$2,0,0,$3*%
G04 Aperture macros list end*
%ADD10C,1.950000*%
%ADD11C,3.950000*%
%ADD12RoundRect,0.237500X0.237500X-0.250000X0.237500X0.250000X-0.237500X0.250000X-0.237500X-0.250000X0*%
%ADD13RoundRect,0.237500X-0.250000X-0.237500X0.250000X-0.237500X0.250000X0.237500X-0.250000X0.237500X0*%
%ADD14RoundRect,0.150000X-0.150000X0.512500X-0.150000X-0.512500X0.150000X-0.512500X0.150000X0.512500X0*%
%ADD15RoundRect,0.150000X0.150000X0.700000X-0.150000X0.700000X-0.150000X-0.700000X0.150000X-0.700000X0*%
%ADD16RoundRect,0.250000X0.250000X1.100000X-0.250000X1.100000X-0.250000X-1.100000X0.250000X-1.100000X0*%
%ADD17R,1.000000X3.000000*%
%ADD18RoundRect,0.150000X-0.512500X-0.150000X0.512500X-0.150000X0.512500X0.150000X-0.512500X0.150000X0*%
%ADD19RoundRect,0.150000X-0.700000X0.150000X-0.700000X-0.150000X0.700000X-0.150000X0.700000X0.150000X0*%
%ADD20RoundRect,0.250000X-1.100000X0.250000X-1.100000X-0.250000X1.100000X-0.250000X1.100000X0.250000X0*%
%ADD21RoundRect,0.237500X-0.237500X0.250000X-0.237500X-0.250000X0.237500X-0.250000X0.237500X0.250000X0*%
%ADD22RoundRect,0.150000X0.700000X-0.150000X0.700000X0.150000X-0.700000X0.150000X-0.700000X-0.150000X0*%
%ADD23RoundRect,0.250000X1.100000X-0.250000X1.100000X0.250000X-1.100000X0.250000X-1.100000X-0.250000X0*%
%ADD24RoundRect,0.237500X0.250000X0.237500X-0.250000X0.237500X-0.250000X-0.237500X0.250000X-0.237500X0*%
%ADD25RoundRect,0.150000X-0.150000X-0.700000X0.150000X-0.700000X0.150000X0.700000X-0.150000X0.700000X0*%
%ADD26RoundRect,0.250000X-0.250000X-1.100000X0.250000X-1.100000X0.250000X1.100000X-0.250000X1.100000X0*%
%ADD27RoundRect,0.150000X0.512500X0.150000X-0.512500X0.150000X-0.512500X-0.150000X0.512500X-0.150000X0*%
%ADD28RoundRect,0.200000X-0.335876X-0.053033X-0.053033X-0.335876X0.335876X0.053033X0.053033X0.335876X0*%
%ADD29RoundRect,0.225000X0.250000X-0.225000X0.250000X0.225000X-0.250000X0.225000X-0.250000X-0.225000X0*%
%ADD30RoundRect,0.200000X-0.275000X0.200000X-0.275000X-0.200000X0.275000X-0.200000X0.275000X0.200000X0*%
%ADD31R,0.350000X0.375000*%
%ADD32R,0.375000X0.350000*%
%ADD33RoundRect,0.225000X0.225000X0.250000X-0.225000X0.250000X-0.225000X-0.250000X0.225000X-0.250000X0*%
%ADD34RoundRect,0.200000X0.275000X-0.200000X0.275000X0.200000X-0.275000X0.200000X-0.275000X-0.200000X0*%
%ADD35RoundRect,0.200000X0.335876X0.053033X0.053033X0.335876X-0.335876X-0.053033X-0.053033X-0.335876X0*%
%ADD36RoundRect,0.225000X-0.250000X0.225000X-0.250000X-0.225000X0.250000X-0.225000X0.250000X0.225000X0*%
%ADD37R,1.066800X1.066800*%
%ADD38R,0.609600X0.838200*%
%ADD39R,0.838200X0.609600*%
%ADD40RoundRect,0.087500X-0.087500X-0.225000X0.087500X-0.225000X0.087500X0.225000X-0.087500X0.225000X0*%
%ADD41RoundRect,0.087500X-0.225000X-0.087500X0.225000X-0.087500X0.225000X0.087500X-0.225000X0.087500X0*%
%ADD42RoundRect,0.237500X-0.287500X-0.237500X0.287500X-0.237500X0.287500X0.237500X-0.287500X0.237500X0*%
%ADD43RoundRect,0.250000X-1.100000X0.325000X-1.100000X-0.325000X1.100000X-0.325000X1.100000X0.325000X0*%
%ADD44R,0.710000X0.580000*%
%ADD45R,0.750000X0.300000*%
%ADD46RoundRect,0.237500X-0.237500X0.287500X-0.237500X-0.287500X0.237500X-0.287500X0.237500X0.287500X0*%
%ADD47RoundRect,0.200000X0.200000X0.275000X-0.200000X0.275000X-0.200000X-0.275000X0.200000X-0.275000X0*%
%ADD48RoundRect,0.250000X-0.325000X-1.100000X0.325000X-1.100000X0.325000X1.100000X-0.325000X1.100000X0*%
%ADD49R,1.500000X2.500000*%
%ADD50RoundRect,0.182500X0.182500X-0.182500X0.182500X0.182500X-0.182500X0.182500X-0.182500X-0.182500X0*%
%ADD51RoundRect,0.062500X0.062500X-0.350000X0.062500X0.350000X-0.062500X0.350000X-0.062500X-0.350000X0*%
%ADD52RoundRect,0.062500X0.350000X-0.062500X0.350000X0.062500X-0.350000X0.062500X-0.350000X-0.062500X0*%
%ADD53RoundRect,0.200000X-0.200000X-0.275000X0.200000X-0.275000X0.200000X0.275000X-0.200000X0.275000X0*%
%ADD54R,3.000000X1.000000*%
%ADD55R,3.500000X4.000000*%
%ADD56RoundRect,0.237500X-0.237500X0.300000X-0.237500X-0.300000X0.237500X-0.300000X0.237500X0.300000X0*%
%ADD57RoundRect,0.200000X-0.200000X-0.800000X0.200000X-0.800000X0.200000X0.800000X-0.200000X0.800000X0*%
%ADD58RoundRect,0.150000X0.150000X-0.512500X0.150000X0.512500X-0.150000X0.512500X-0.150000X-0.512500X0*%
%ADD59RoundRect,0.225000X0.017678X-0.335876X0.335876X-0.017678X-0.017678X0.335876X-0.335876X0.017678X0*%
%ADD60RoundRect,0.225000X0.335876X0.017678X0.017678X0.335876X-0.335876X-0.017678X-0.017678X-0.335876X0*%
%ADD61RotRect,0.500000X0.600000X45.000000*%
%ADD62RoundRect,0.225000X-0.335876X-0.017678X-0.017678X-0.335876X0.335876X0.017678X0.017678X0.335876X0*%
%ADD63R,0.600000X1.450000*%
%ADD64R,0.300000X1.450000*%
%ADD65RoundRect,0.200000X0.053033X-0.335876X0.335876X-0.053033X-0.053033X0.335876X-0.335876X0.053033X0*%
%ADD66RoundRect,0.075000X-0.565685X0.459619X0.459619X-0.565685X0.565685X-0.459619X-0.459619X0.565685X0*%
%ADD67RoundRect,0.075000X-0.565685X-0.459619X-0.459619X-0.565685X0.565685X0.459619X0.459619X0.565685X0*%
%ADD68RoundRect,0.225000X-0.017678X0.335876X-0.335876X0.017678X0.017678X-0.335876X0.335876X-0.017678X0*%
%ADD69RoundRect,0.200000X-0.053033X0.335876X-0.335876X0.053033X0.053033X-0.335876X0.335876X-0.053033X0*%
%ADD70RoundRect,0.147500X-0.147500X-0.172500X0.147500X-0.172500X0.147500X0.172500X-0.147500X0.172500X0*%
G04 APERTURE END LIST*
D10*
X56775000Y-152100000D02*
G75*
G02*
X54825000Y-152100000I-975000J0D01*
G01*
X54825000Y-152100000D02*
G75*
G02*
X56775000Y-152100000I975000J0D01*
G01*
D11*
X50465179Y-85800000D02*
G75*
G02*
X46515179Y-85800000I-1975000J0D01*
G01*
X46515179Y-85800000D02*
G75*
G02*
X50465179Y-85800000I1975000J0D01*
G01*
D10*
X56775000Y-224100000D02*
G75*
G02*
X54825000Y-224100000I-975000J0D01*
G01*
X54825000Y-224100000D02*
G75*
G02*
X56775000Y-224100000I975000J0D01*
G01*
X56775000Y-176100000D02*
G75*
G02*
X54825000Y-176100000I-975000J0D01*
G01*
X54825000Y-176100000D02*
G75*
G02*
X56775000Y-176100000I975000J0D01*
G01*
X56775000Y-92100000D02*
G75*
G02*
X54825000Y-92100000I-975000J0D01*
G01*
X54825000Y-92100000D02*
G75*
G02*
X56775000Y-92100000I975000J0D01*
G01*
X56775000Y-164100000D02*
G75*
G02*
X54825000Y-164100000I-975000J0D01*
G01*
X54825000Y-164100000D02*
G75*
G02*
X56775000Y-164100000I975000J0D01*
G01*
X56775000Y-200100000D02*
G75*
G02*
X54825000Y-200100000I-975000J0D01*
G01*
X54825000Y-200100000D02*
G75*
G02*
X56775000Y-200100000I975000J0D01*
G01*
X56775000Y-44100000D02*
G75*
G02*
X54825000Y-44100000I-975000J0D01*
G01*
X54825000Y-44100000D02*
G75*
G02*
X56775000Y-44100000I975000J0D01*
G01*
X56775000Y-56100000D02*
G75*
G02*
X54825000Y-56100000I-975000J0D01*
G01*
X54825000Y-56100000D02*
G75*
G02*
X56775000Y-56100000I975000J0D01*
G01*
X56775000Y-68100000D02*
G75*
G02*
X54825000Y-68100000I-975000J0D01*
G01*
X54825000Y-68100000D02*
G75*
G02*
X56775000Y-68100000I975000J0D01*
G01*
X56775000Y-80100000D02*
G75*
G02*
X54825000Y-80100000I-975000J0D01*
G01*
X54825000Y-80100000D02*
G75*
G02*
X56775000Y-80100000I975000J0D01*
G01*
X56775000Y-128100000D02*
G75*
G02*
X54825000Y-128100000I-975000J0D01*
G01*
X54825000Y-128100000D02*
G75*
G02*
X56775000Y-128100000I975000J0D01*
G01*
X56775000Y-104100000D02*
G75*
G02*
X54825000Y-104100000I-975000J0D01*
G01*
X54825000Y-104100000D02*
G75*
G02*
X56775000Y-104100000I975000J0D01*
G01*
X56775000Y-116100000D02*
G75*
G02*
X54825000Y-116100000I-975000J0D01*
G01*
X54825000Y-116100000D02*
G75*
G02*
X56775000Y-116100000I975000J0D01*
G01*
D11*
X50275000Y-170100000D02*
G75*
G02*
X46325000Y-170100000I-1975000J0D01*
G01*
X46325000Y-170100000D02*
G75*
G02*
X50275000Y-170100000I1975000J0D01*
G01*
D10*
X56775000Y-140100000D02*
G75*
G02*
X54825000Y-140100000I-975000J0D01*
G01*
X54825000Y-140100000D02*
G75*
G02*
X56775000Y-140100000I975000J0D01*
G01*
X56775000Y-152100000D02*
G75*
G02*
X54825000Y-152100000I-975000J0D01*
G01*
X54825000Y-152100000D02*
G75*
G02*
X56775000Y-152100000I975000J0D01*
G01*
X56775000Y-188100000D02*
G75*
G02*
X54825000Y-188100000I-975000J0D01*
G01*
X54825000Y-188100000D02*
G75*
G02*
X56775000Y-188100000I975000J0D01*
G01*
X56775000Y-212100000D02*
G75*
G02*
X54825000Y-212100000I-975000J0D01*
G01*
X54825000Y-212100000D02*
G75*
G02*
X56775000Y-212100000I975000J0D01*
G01*
D11*
X377466822Y-182225000D02*
G75*
G02*
X373516822Y-182225000I-1975000J0D01*
G01*
X373516822Y-182225000D02*
G75*
G02*
X377466822Y-182225000I1975000J0D01*
G01*
D10*
X369157001Y-223925000D02*
G75*
G02*
X367207001Y-223925000I-975000J0D01*
G01*
X367207001Y-223925000D02*
G75*
G02*
X369157001Y-223925000I975000J0D01*
G01*
X369157001Y-211925000D02*
G75*
G02*
X367207001Y-211925000I-975000J0D01*
G01*
X367207001Y-211925000D02*
G75*
G02*
X369157001Y-211925000I975000J0D01*
G01*
X369157001Y-199925000D02*
G75*
G02*
X367207001Y-199925000I-975000J0D01*
G01*
X367207001Y-199925000D02*
G75*
G02*
X369157001Y-199925000I975000J0D01*
G01*
X369157001Y-187925000D02*
G75*
G02*
X367207001Y-187925000I-975000J0D01*
G01*
X367207001Y-187925000D02*
G75*
G02*
X369157001Y-187925000I975000J0D01*
G01*
X369157001Y-175925000D02*
G75*
G02*
X367207001Y-175925000I-975000J0D01*
G01*
X367207001Y-175925000D02*
G75*
G02*
X369157001Y-175925000I975000J0D01*
G01*
X369157001Y-163925000D02*
G75*
G02*
X367207001Y-163925000I-975000J0D01*
G01*
X367207001Y-163925000D02*
G75*
G02*
X369157001Y-163925000I975000J0D01*
G01*
X369157001Y-151925000D02*
G75*
G02*
X367207001Y-151925000I-975000J0D01*
G01*
X367207001Y-151925000D02*
G75*
G02*
X369157001Y-151925000I975000J0D01*
G01*
X369157001Y-139925000D02*
G75*
G02*
X367207001Y-139925000I-975000J0D01*
G01*
X367207001Y-139925000D02*
G75*
G02*
X369157001Y-139925000I975000J0D01*
G01*
X369157001Y-127925000D02*
G75*
G02*
X367207001Y-127925000I-975000J0D01*
G01*
X367207001Y-127925000D02*
G75*
G02*
X369157001Y-127925000I975000J0D01*
G01*
X369157001Y-115925000D02*
G75*
G02*
X367207001Y-115925000I-975000J0D01*
G01*
X367207001Y-115925000D02*
G75*
G02*
X369157001Y-115925000I975000J0D01*
G01*
X369157001Y-103925000D02*
G75*
G02*
X367207001Y-103925000I-975000J0D01*
G01*
X367207001Y-103925000D02*
G75*
G02*
X369157001Y-103925000I975000J0D01*
G01*
X369157001Y-91925000D02*
G75*
G02*
X367207001Y-91925000I-975000J0D01*
G01*
X367207001Y-91925000D02*
G75*
G02*
X369157001Y-91925000I975000J0D01*
G01*
X369157001Y-79925000D02*
G75*
G02*
X367207001Y-79925000I-975000J0D01*
G01*
X367207001Y-79925000D02*
G75*
G02*
X369157001Y-79925000I975000J0D01*
G01*
X369157001Y-67925000D02*
G75*
G02*
X367207001Y-67925000I-975000J0D01*
G01*
X367207001Y-67925000D02*
G75*
G02*
X369157001Y-67925000I975000J0D01*
G01*
X369157001Y-55925000D02*
G75*
G02*
X367207001Y-55925000I-975000J0D01*
G01*
X367207001Y-55925000D02*
G75*
G02*
X369157001Y-55925000I975000J0D01*
G01*
X369157001Y-43925000D02*
G75*
G02*
X367207001Y-43925000I-975000J0D01*
G01*
X367207001Y-43925000D02*
G75*
G02*
X369157001Y-43925000I975000J0D01*
G01*
D11*
X377657001Y-97925000D02*
G75*
G02*
X373707001Y-97925000I-1975000J0D01*
G01*
X373707001Y-97925000D02*
G75*
G02*
X377657001Y-97925000I1975000J0D01*
G01*
D12*
X311762500Y-84430000D03*
X311762500Y-82605000D03*
D13*
X321000000Y-111355000D03*
X322825000Y-111355000D03*
X316125000Y-80930000D03*
X317950000Y-80930000D03*
D14*
X322887499Y-113167500D03*
X320987501Y-113167500D03*
X321937500Y-115442500D03*
D15*
X319287500Y-78530000D03*
X318037500Y-78530001D03*
X316787500Y-78530000D03*
D16*
X321137500Y-75330000D03*
X314937500Y-75330000D03*
D17*
X301302500Y-108860000D03*
X301302500Y-113900000D03*
X303842499Y-108860000D03*
X303842499Y-113900000D03*
X306382501Y-108860000D03*
X306382501Y-113900000D03*
X308922500Y-108860000D03*
X308922500Y-113900000D03*
X334872500Y-87925000D03*
X334872500Y-82885000D03*
X332332501Y-87925000D03*
X332332501Y-82885000D03*
X329792499Y-87925000D03*
X329792499Y-82885000D03*
X327252500Y-87925000D03*
X327252500Y-82885000D03*
D18*
X313550000Y-82542501D03*
X313550000Y-84442499D03*
X315825000Y-83492500D03*
D19*
X298312500Y-97130000D03*
X298312501Y-98380000D03*
X298312500Y-99630000D03*
D20*
X295112500Y-95280000D03*
X295112500Y-101480000D03*
D21*
X305262500Y-102242500D03*
X305262500Y-104067500D03*
D17*
X327252500Y-108835000D03*
X327252500Y-113875000D03*
X329792499Y-108835000D03*
X329792499Y-113875000D03*
X332332501Y-108835000D03*
X332332501Y-113875000D03*
X334872500Y-108835000D03*
X334872500Y-113875000D03*
D22*
X337887500Y-99705000D03*
X337887499Y-98455000D03*
X337887500Y-97205000D03*
D23*
X341087500Y-101555000D03*
X341087500Y-95355000D03*
D17*
X308922500Y-87975000D03*
X308922500Y-82935000D03*
X306382501Y-87975000D03*
X306382501Y-82935000D03*
X303842499Y-87975000D03*
X303842499Y-82935000D03*
X301302500Y-87975000D03*
X301302500Y-82935000D03*
D12*
X301037500Y-100492500D03*
X301037500Y-98667500D03*
X330862500Y-95042500D03*
X330862500Y-93217500D03*
D24*
X319237500Y-115630000D03*
X317412500Y-115630000D03*
D25*
X316812500Y-118080000D03*
X318062500Y-118080000D03*
X319312500Y-118080000D03*
D26*
X314962500Y-121280000D03*
X321162500Y-121280000D03*
D21*
X335137500Y-96742500D03*
X335137500Y-98567500D03*
D18*
X332675000Y-93167501D03*
X332675000Y-95067499D03*
X334950000Y-94117500D03*
D27*
X303450000Y-104129999D03*
X303450000Y-102230001D03*
X301175000Y-103180000D03*
D28*
X96303363Y-102993363D03*
X95136637Y-101826637D03*
D29*
X124895000Y-100585000D03*
X124895000Y-102135000D03*
D30*
X118195000Y-92635000D03*
X118195000Y-90985000D03*
D31*
X101332500Y-102347500D03*
X101832500Y-102347500D03*
D32*
X102345000Y-102360000D03*
X102345000Y-102860000D03*
X102345000Y-103360000D03*
X102345000Y-103860000D03*
D31*
X101832500Y-103872500D03*
X101332500Y-103872500D03*
D32*
X100820000Y-103860000D03*
X100820000Y-103360000D03*
X100820000Y-102860000D03*
X100820000Y-102360000D03*
D29*
X118995000Y-100435000D03*
X118995000Y-101985000D03*
D33*
X110195000Y-99810000D03*
X111745000Y-99810000D03*
D34*
X119295000Y-96185000D03*
X119295000Y-97835000D03*
D33*
X113195000Y-99835000D03*
X114745000Y-99835000D03*
D35*
X99811637Y-109326637D03*
X100978363Y-110493363D03*
D36*
X101895000Y-107785000D03*
X101895000Y-106235000D03*
X103770000Y-103960000D03*
X103770000Y-102410000D03*
X99170000Y-102285000D03*
X99170000Y-100735000D03*
D29*
X99195000Y-103735000D03*
X99195000Y-105285000D03*
D37*
X121945000Y-102035000D03*
D38*
X120725799Y-102035000D03*
D39*
X120845000Y-100815800D03*
X121945000Y-100815799D03*
X123045000Y-100815800D03*
D38*
X123164201Y-102035000D03*
D39*
X123045000Y-103254200D03*
X121945000Y-103254201D03*
X120845000Y-103254200D03*
D40*
X111545000Y-96497500D03*
X112045000Y-96497500D03*
X112545000Y-96497500D03*
D41*
X113207500Y-96660000D03*
X113207500Y-97160000D03*
X113207500Y-97660000D03*
X113207500Y-98160000D03*
D40*
X112545000Y-98322500D03*
X112045000Y-98322500D03*
X111545000Y-98322500D03*
D41*
X110882500Y-98160000D03*
X110882500Y-97660000D03*
X110882500Y-97160000D03*
X110882500Y-96660000D03*
D33*
X249650000Y-85050000D03*
X248100000Y-85050000D03*
D15*
X239225000Y-77825000D03*
X237975000Y-77825000D03*
D16*
X241075000Y-74625000D03*
X236125000Y-74625000D03*
D42*
X241201802Y-118104700D03*
X242951800Y-118104700D03*
D43*
X261725000Y-102424999D03*
X261725000Y-105375001D03*
D44*
X254400000Y-112300001D03*
X254400000Y-111575001D03*
X253525000Y-112300001D03*
X253525000Y-111575001D03*
D45*
X255412500Y-112687501D03*
X255412500Y-112187501D03*
X255412500Y-111687501D03*
X255412500Y-111187501D03*
X252512500Y-111187501D03*
X252512500Y-111687501D03*
X252512500Y-112187501D03*
X252512500Y-112687501D03*
D43*
X241771001Y-110568998D03*
X241771001Y-113519000D03*
D46*
X267051800Y-115448452D03*
X267051800Y-117198450D03*
D47*
X242625000Y-80525000D03*
X240975000Y-80525000D03*
D48*
X247700000Y-82275000D03*
X250650000Y-82275000D03*
D13*
X241076801Y-119829700D03*
X242901801Y-119829700D03*
D34*
X253425000Y-92450000D03*
X253425000Y-90800000D03*
D49*
X248375001Y-110725000D03*
X244674999Y-110725000D03*
D29*
X250525000Y-113850001D03*
X250525000Y-112300001D03*
D36*
X250250000Y-86700000D03*
X250250000Y-88250000D03*
D50*
X248455000Y-91832500D03*
X249295000Y-91832500D03*
X248455000Y-90992500D03*
X249295000Y-90992500D03*
D51*
X248125000Y-92875000D03*
X248625000Y-92875000D03*
X249125000Y-92875000D03*
X249625000Y-92875000D03*
D52*
X250337500Y-92162500D03*
X250337500Y-91662500D03*
X250337500Y-91162500D03*
X250337500Y-90662500D03*
D51*
X249625000Y-89950000D03*
X249125000Y-89950000D03*
X248625000Y-89950000D03*
X248125000Y-89950000D03*
D52*
X247412500Y-90662500D03*
X247412500Y-91162500D03*
X247412500Y-91662500D03*
X247412500Y-92162500D03*
D47*
X252200000Y-94450000D03*
X250550000Y-94450000D03*
D43*
X261601800Y-110992200D03*
X261601800Y-113942202D03*
D34*
X254025000Y-115725002D03*
X254025000Y-114075002D03*
D53*
X240975000Y-82025000D03*
X242625000Y-82025000D03*
D30*
X255525000Y-114075002D03*
X255525000Y-115725002D03*
D54*
X235420000Y-94165000D03*
X230380000Y-94165000D03*
X235420000Y-96705000D03*
X230380000Y-96705000D03*
X235420000Y-99245000D03*
X230380000Y-99245000D03*
X235420000Y-101785000D03*
X230380000Y-101785000D03*
D30*
X254975000Y-90800000D03*
X254975000Y-92450000D03*
D43*
X258025001Y-113075001D03*
X258025001Y-116025003D03*
D55*
X248225000Y-100850000D03*
X257725000Y-100850000D03*
D21*
X265401800Y-115385951D03*
X265401800Y-117210951D03*
D54*
X269380000Y-101785000D03*
X274420000Y-101785000D03*
X269380000Y-99245001D03*
X274420000Y-99245001D03*
X269380000Y-96704999D03*
X274420000Y-96704999D03*
X269380000Y-94165000D03*
X274420000Y-94165000D03*
D27*
X173332500Y-118634999D03*
X173332500Y-117685000D03*
X173332500Y-116735001D03*
X171057500Y-116735001D03*
X171057500Y-118634999D03*
D17*
X191390000Y-107114999D03*
X191390000Y-112155001D03*
X193930000Y-107115000D03*
X193930000Y-112155000D03*
X196470000Y-107115000D03*
X196470000Y-112155000D03*
X199010000Y-107115000D03*
X199010000Y-112155000D03*
X201550000Y-107114999D03*
X201550000Y-112155001D03*
D33*
X187945000Y-80460000D03*
X186395000Y-80460000D03*
D17*
X162822479Y-107115000D03*
X162822479Y-112155000D03*
X165362481Y-107115000D03*
X165362481Y-112155000D03*
D56*
X169195000Y-116822499D03*
X169195000Y-118547501D03*
X175695000Y-117122499D03*
X175695000Y-118847501D03*
D57*
X177945000Y-80485000D03*
X182145000Y-80485000D03*
D58*
X181195002Y-110522500D03*
X182145001Y-110522500D03*
X183095000Y-110522500D03*
X183095000Y-108247500D03*
X182145001Y-108247500D03*
X181195002Y-108247500D03*
D59*
X167076445Y-90089668D03*
X168172461Y-88993652D03*
D60*
X169445253Y-87438017D03*
X168349237Y-86342001D03*
D61*
X162497929Y-83637319D03*
X163275746Y-84415136D03*
X163841431Y-83849451D03*
X163063614Y-83071634D03*
D62*
X177771435Y-84379781D03*
X178867451Y-85475797D03*
D60*
X163258069Y-100590203D03*
X162162053Y-99494187D03*
D35*
X166086495Y-86306647D03*
X164919769Y-85139921D03*
D62*
X184771792Y-101562475D03*
X185867808Y-102658491D03*
D63*
X178770000Y-113415000D03*
X179569999Y-113415000D03*
D64*
X180770000Y-113415001D03*
X181770000Y-113415000D03*
X182270000Y-113415000D03*
X183270000Y-113415001D03*
D63*
X184470001Y-113415000D03*
X185270000Y-113415000D03*
X185270000Y-113415000D03*
X184470001Y-113415000D03*
D64*
X183770000Y-113415000D03*
X182770000Y-113415000D03*
X181270000Y-113415000D03*
X180270000Y-113415000D03*
D63*
X179569999Y-113415000D03*
X178770000Y-113415000D03*
D59*
X162992903Y-92511509D03*
X164088919Y-91415493D03*
D65*
X161932243Y-88551711D03*
X163098969Y-87384985D03*
D60*
X172804011Y-110065434D03*
X171707995Y-108969418D03*
D66*
X173210596Y-87915315D03*
X172857043Y-88268868D03*
X172503489Y-88622422D03*
X172149936Y-88975975D03*
X171796383Y-89329528D03*
X171442829Y-89683082D03*
X171089276Y-90036635D03*
X170735722Y-90390189D03*
X170382169Y-90743742D03*
X170028616Y-91097295D03*
X169675062Y-91450849D03*
X169321509Y-91804402D03*
X168967955Y-92157955D03*
X168614402Y-92511509D03*
X168260849Y-92865062D03*
X167907295Y-93218616D03*
X167553742Y-93572169D03*
X167200189Y-93925722D03*
X166846635Y-94279276D03*
X166493082Y-94632829D03*
X166139528Y-94986383D03*
X165785975Y-95339936D03*
X165432422Y-95693489D03*
X165078868Y-96047043D03*
X164725315Y-96400596D03*
D67*
X164725315Y-98769404D03*
X165078868Y-99122957D03*
X165432422Y-99476511D03*
X165785975Y-99830064D03*
X166139528Y-100183617D03*
X166493082Y-100537171D03*
X166846635Y-100890724D03*
X167200189Y-101244278D03*
X167553742Y-101597831D03*
X167907295Y-101951384D03*
X168260849Y-102304938D03*
X168614402Y-102658491D03*
X168967955Y-103012045D03*
X169321509Y-103365598D03*
X169675062Y-103719151D03*
X170028616Y-104072705D03*
X170382169Y-104426258D03*
X170735722Y-104779811D03*
X171089276Y-105133365D03*
X171442829Y-105486918D03*
X171796383Y-105840472D03*
X172149936Y-106194025D03*
X172503489Y-106547578D03*
X172857043Y-106901132D03*
X173210596Y-107254685D03*
D66*
X175579404Y-107254685D03*
X175932957Y-106901132D03*
X176286511Y-106547578D03*
X176640064Y-106194025D03*
X176993617Y-105840472D03*
X177347171Y-105486918D03*
X177700724Y-105133365D03*
X178054278Y-104779811D03*
X178407831Y-104426258D03*
X178761384Y-104072705D03*
X179114938Y-103719151D03*
X179468491Y-103365598D03*
X179822045Y-103012045D03*
X180175598Y-102658491D03*
X180529151Y-102304938D03*
X180882705Y-101951384D03*
X181236258Y-101597831D03*
X181589811Y-101244278D03*
X181943365Y-100890724D03*
X182296918Y-100537171D03*
X182650472Y-100183617D03*
X183004025Y-99830064D03*
X183357578Y-99476511D03*
X183711132Y-99122957D03*
X184064685Y-98769404D03*
D67*
X184064685Y-96400596D03*
X183711132Y-96047043D03*
X183357578Y-95693489D03*
X183004025Y-95339936D03*
X182650472Y-94986383D03*
X182296918Y-94632829D03*
X181943365Y-94279276D03*
X181589811Y-93925722D03*
X181236258Y-93572169D03*
X180882705Y-93218616D03*
X180529151Y-92865062D03*
X180175598Y-92511509D03*
X179822045Y-92157955D03*
X179468491Y-91804402D03*
X179114938Y-91450849D03*
X178761384Y-91097295D03*
X178407831Y-90743742D03*
X178054278Y-90390189D03*
X177700724Y-90036635D03*
X177347171Y-89683082D03*
X176993617Y-89329528D03*
X176640064Y-88975975D03*
X176286511Y-88622422D03*
X175932957Y-88268868D03*
X175579404Y-87915315D03*
D68*
X170611980Y-107838047D03*
X169515964Y-108934063D03*
D59*
X164124274Y-93642880D03*
X165220290Y-92546864D03*
D29*
X203595000Y-95160000D03*
X203595000Y-93610000D03*
D34*
X187795000Y-111035000D03*
X187795000Y-109385000D03*
D62*
X176640064Y-85511151D03*
X177736080Y-86607167D03*
D15*
X186020000Y-76935000D03*
X184770000Y-76935000D03*
X183520000Y-76935000D03*
X182270000Y-76935000D03*
X181020000Y-76935000D03*
X179770000Y-76935000D03*
D16*
X187870000Y-73735000D03*
X177920000Y-73735000D03*
D59*
X158646992Y-89533008D03*
X159743008Y-88436992D03*
D69*
X181289291Y-86483424D03*
X180122565Y-87650150D03*
D68*
X186963824Y-99405799D03*
X185867808Y-100501815D03*
D17*
X199017479Y-86194999D03*
X199017479Y-81154999D03*
X196477480Y-86194999D03*
X196477480Y-81154999D03*
X193937478Y-86194999D03*
X193937478Y-81154999D03*
X191397479Y-86194999D03*
X191397479Y-81154999D03*
D34*
X186195000Y-111010000D03*
X186195000Y-109360000D03*
D70*
X186310000Y-81810000D03*
X187280000Y-81810000D03*
D60*
X162427218Y-85546507D03*
X161331202Y-84450491D03*
D61*
X160123249Y-90178934D03*
X160901066Y-90956751D03*
X161466751Y-90391066D03*
X160688934Y-89613249D03*
D33*
X181695000Y-83010000D03*
X180145000Y-83010000D03*
M02*
