G04 #@! TF.GenerationSoftware,KiCad,Pcbnew,9.0.0*
G04 #@! TF.CreationDate,2025-02-26T21:36:30+05:00*
G04 #@! TF.ProjectId,stencil,7374656e-6369-46c2-9e6b-696361645f70,rev?*
G04 #@! TF.SameCoordinates,Original*
G04 #@! TF.FileFunction,Paste,Bot*
G04 #@! TF.FilePolarity,Positive*
%FSLAX46Y46*%
G04 Gerber Fmt 4.6, Leading zero omitted, Abs format (unit mm)*
G04 Created by KiCad (PCBNEW 9.0.0) date 2025-02-26 21:36:30*
%MOMM*%
%LPD*%
G01*
G04 APERTURE LIST*
G04 Aperture macros list*
%AMRoundRect*
0 Rectangle with rounded corners*
0 $1 Rounding radius*
0 $2 $3 $4 $5 $6 $7 $8 $9 X,Y pos of 4 corners*
0 Add a 4 corners polygon primitive as box body*
4,1,4,$2,$3,$4,$5,$6,$7,$8,$9,$2,$3,0*
0 Add four circle primitives for the rounded corners*
1,1,$1+$1,$2,$3*
1,1,$1+$1,$4,$5*
1,1,$1+$1,$6,$7*
1,1,$1+$1,$8,$9*
0 Add four rect primitives between the rounded corners*
20,1,$1+$1,$2,$3,$4,$5,0*
20,1,$1+$1,$4,$5,$6,$7,0*
20,1,$1+$1,$6,$7,$8,$9,0*
20,1,$1+$1,$8,$9,$2,$3,0*%
G04 Aperture macros list end*
%ADD10C,1.950000*%
%ADD11C,3.950000*%
%ADD12R,3.000000X1.000000*%
%ADD13R,1.000000X3.000000*%
%ADD14RoundRect,0.200000X0.335876X0.053033X0.053033X0.335876X-0.335876X-0.053033X-0.053033X-0.335876X0*%
%ADD15RoundRect,0.200000X-0.053033X0.335876X-0.335876X0.053033X0.053033X-0.335876X0.335876X-0.053033X0*%
%ADD16R,1.100000X0.700000*%
%ADD17R,0.930000X0.900000*%
%ADD18R,0.780000X1.050000*%
%ADD19R,1.830000X1.140000*%
%ADD20R,2.800000X0.860000*%
%ADD21R,3.330000X0.700000*%
%ADD22RoundRect,0.150000X0.700000X-0.150000X0.700000X0.150000X-0.700000X0.150000X-0.700000X-0.150000X0*%
%ADD23RoundRect,0.250000X1.100000X-0.250000X1.100000X0.250000X-1.100000X0.250000X-1.100000X-0.250000X0*%
%ADD24RoundRect,0.225000X0.017678X-0.335876X0.335876X-0.017678X-0.017678X0.335876X-0.335876X0.017678X0*%
%ADD25RoundRect,0.147500X0.172500X-0.147500X0.172500X0.147500X-0.172500X0.147500X-0.172500X-0.147500X0*%
%ADD26RoundRect,0.250000X-0.127279X0.742462X-0.742462X0.127279X0.127279X-0.742462X0.742462X-0.127279X0*%
%ADD27RoundRect,0.125000X0.088388X0.265165X-0.265165X-0.088388X-0.088388X-0.265165X0.265165X0.088388X0*%
%ADD28R,0.450000X0.200000*%
%ADD29R,0.300000X2.800000*%
G04 APERTURE END LIST*
D10*
X369156999Y-43950000D02*
G75*
G02*
X367206999Y-43950000I-975000J0D01*
G01*
X367206999Y-43950000D02*
G75*
G02*
X369156999Y-43950000I975000J0D01*
G01*
X56775000Y-44100000D02*
G75*
G02*
X54825000Y-44100000I-975000J0D01*
G01*
X54825000Y-44100000D02*
G75*
G02*
X56775000Y-44100000I975000J0D01*
G01*
X56775000Y-104100000D02*
G75*
G02*
X54825000Y-104100000I-975000J0D01*
G01*
X54825000Y-104100000D02*
G75*
G02*
X56775000Y-104100000I975000J0D01*
G01*
X56775000Y-224100000D02*
G75*
G02*
X54825000Y-224100000I-975000J0D01*
G01*
X54825000Y-224100000D02*
G75*
G02*
X56775000Y-224100000I975000J0D01*
G01*
D11*
X50475000Y-85750000D02*
G75*
G02*
X46525000Y-85750000I-1975000J0D01*
G01*
X46525000Y-85750000D02*
G75*
G02*
X50475000Y-85750000I1975000J0D01*
G01*
D10*
X56775000Y-116100000D02*
G75*
G02*
X54825000Y-116100000I-975000J0D01*
G01*
X54825000Y-116100000D02*
G75*
G02*
X56775000Y-116100000I975000J0D01*
G01*
X56775000Y-92100000D02*
G75*
G02*
X54825000Y-92100000I-975000J0D01*
G01*
X54825000Y-92100000D02*
G75*
G02*
X56775000Y-92100000I975000J0D01*
G01*
D11*
X377675000Y-97900000D02*
G75*
G02*
X373725000Y-97900000I-1975000J0D01*
G01*
X373725000Y-97900000D02*
G75*
G02*
X377675000Y-97900000I1975000J0D01*
G01*
D10*
X56775000Y-56100000D02*
G75*
G02*
X54825000Y-56100000I-975000J0D01*
G01*
X54825000Y-56100000D02*
G75*
G02*
X56775000Y-56100000I975000J0D01*
G01*
D11*
X50275000Y-170100000D02*
G75*
G02*
X46325000Y-170100000I-1975000J0D01*
G01*
X46325000Y-170100000D02*
G75*
G02*
X50275000Y-170100000I1975000J0D01*
G01*
D10*
X56775000Y-128100000D02*
G75*
G02*
X54825000Y-128100000I-975000J0D01*
G01*
X54825000Y-128100000D02*
G75*
G02*
X56775000Y-128100000I975000J0D01*
G01*
X369156999Y-79900000D02*
G75*
G02*
X367206999Y-79900000I-975000J0D01*
G01*
X367206999Y-79900000D02*
G75*
G02*
X369156999Y-79900000I975000J0D01*
G01*
X56775000Y-200100000D02*
G75*
G02*
X54825000Y-200100000I-975000J0D01*
G01*
X54825000Y-200100000D02*
G75*
G02*
X56775000Y-200100000I975000J0D01*
G01*
X56775000Y-80100000D02*
G75*
G02*
X54825000Y-80100000I-975000J0D01*
G01*
X54825000Y-80100000D02*
G75*
G02*
X56775000Y-80100000I975000J0D01*
G01*
X369157001Y-175900000D02*
G75*
G02*
X367207001Y-175900000I-975000J0D01*
G01*
X367207001Y-175900000D02*
G75*
G02*
X369157001Y-175900000I975000J0D01*
G01*
X56775000Y-152100000D02*
G75*
G02*
X54825000Y-152100000I-975000J0D01*
G01*
X54825000Y-152100000D02*
G75*
G02*
X56775000Y-152100000I975000J0D01*
G01*
X56775000Y-176100000D02*
G75*
G02*
X54825000Y-176100000I-975000J0D01*
G01*
X54825000Y-176100000D02*
G75*
G02*
X56775000Y-176100000I975000J0D01*
G01*
X56775000Y-140100000D02*
G75*
G02*
X54825000Y-140100000I-975000J0D01*
G01*
X54825000Y-140100000D02*
G75*
G02*
X56775000Y-140100000I975000J0D01*
G01*
X369157001Y-103900000D02*
G75*
G02*
X367207001Y-103900000I-975000J0D01*
G01*
X367207001Y-103900000D02*
G75*
G02*
X369157001Y-103900000I975000J0D01*
G01*
X369157001Y-187900000D02*
G75*
G02*
X367207001Y-187900000I-975000J0D01*
G01*
X367207001Y-187900000D02*
G75*
G02*
X369157001Y-187900000I975000J0D01*
G01*
X369157001Y-223900000D02*
G75*
G02*
X367207001Y-223900000I-975000J0D01*
G01*
X367207001Y-223900000D02*
G75*
G02*
X369157001Y-223900000I975000J0D01*
G01*
X369157001Y-151900000D02*
G75*
G02*
X367207001Y-151900000I-975000J0D01*
G01*
X367207001Y-151900000D02*
G75*
G02*
X369157001Y-151900000I975000J0D01*
G01*
X369157001Y-163900000D02*
G75*
G02*
X367207001Y-163900000I-975000J0D01*
G01*
X367207001Y-163900000D02*
G75*
G02*
X369157001Y-163900000I975000J0D01*
G01*
X369157001Y-211900000D02*
G75*
G02*
X367207001Y-211900000I-975000J0D01*
G01*
X367207001Y-211900000D02*
G75*
G02*
X369157001Y-211900000I975000J0D01*
G01*
X56775000Y-164100000D02*
G75*
G02*
X54825000Y-164100000I-975000J0D01*
G01*
X54825000Y-164100000D02*
G75*
G02*
X56775000Y-164100000I975000J0D01*
G01*
X369157001Y-127900000D02*
G75*
G02*
X367207001Y-127900000I-975000J0D01*
G01*
X367207001Y-127900000D02*
G75*
G02*
X369157001Y-127900000I975000J0D01*
G01*
D11*
X377475000Y-182250000D02*
G75*
G02*
X373525000Y-182250000I-1975000J0D01*
G01*
X373525000Y-182250000D02*
G75*
G02*
X377475000Y-182250000I1975000J0D01*
G01*
D10*
X56775000Y-68100000D02*
G75*
G02*
X54825000Y-68100000I-975000J0D01*
G01*
X54825000Y-68100000D02*
G75*
G02*
X56775000Y-68100000I975000J0D01*
G01*
X369157001Y-199900000D02*
G75*
G02*
X367207001Y-199900000I-975000J0D01*
G01*
X367207001Y-199900000D02*
G75*
G02*
X369157001Y-199900000I975000J0D01*
G01*
X369157001Y-115900000D02*
G75*
G02*
X367207001Y-115900000I-975000J0D01*
G01*
X367207001Y-115900000D02*
G75*
G02*
X369157001Y-115900000I975000J0D01*
G01*
X369156999Y-55950000D02*
G75*
G02*
X367206999Y-55950000I-975000J0D01*
G01*
X367206999Y-55950000D02*
G75*
G02*
X369156999Y-55950000I975000J0D01*
G01*
X369157001Y-223925000D02*
G75*
G02*
X367207001Y-223925000I-975000J0D01*
G01*
X367207001Y-223925000D02*
G75*
G02*
X369157001Y-223925000I975000J0D01*
G01*
X369156999Y-91900000D02*
G75*
G02*
X367206999Y-91900000I-975000J0D01*
G01*
X367206999Y-91900000D02*
G75*
G02*
X369156999Y-91900000I975000J0D01*
G01*
X56775000Y-188100000D02*
G75*
G02*
X54825000Y-188100000I-975000J0D01*
G01*
X54825000Y-188100000D02*
G75*
G02*
X56775000Y-188100000I975000J0D01*
G01*
X369157001Y-139900000D02*
G75*
G02*
X367207001Y-139900000I-975000J0D01*
G01*
X367207001Y-139900000D02*
G75*
G02*
X369157001Y-139900000I975000J0D01*
G01*
X56775000Y-212100000D02*
G75*
G02*
X54825000Y-212100000I-975000J0D01*
G01*
X54825000Y-212100000D02*
G75*
G02*
X56775000Y-212100000I975000J0D01*
G01*
X369156999Y-67900000D02*
G75*
G02*
X367206999Y-67900000I-975000J0D01*
G01*
X367206999Y-67900000D02*
G75*
G02*
X369156999Y-67900000I975000J0D01*
G01*
D12*
X334917500Y-94670000D03*
X339957500Y-94670000D03*
X334917500Y-97210000D03*
X339957500Y-97210000D03*
X334917500Y-99750000D03*
X339957500Y-99750000D03*
X334917500Y-102290000D03*
X339957500Y-102290000D03*
X300962500Y-102300000D03*
X295922500Y-102300000D03*
X300962500Y-99760001D03*
X295922500Y-99760001D03*
X300962500Y-97219999D03*
X295922500Y-97219999D03*
X300962500Y-94680000D03*
X295922500Y-94680000D03*
D13*
X128855000Y-81890000D03*
X128855000Y-86930000D03*
X126315001Y-81890000D03*
X126315001Y-86930000D03*
X123774999Y-81890000D03*
X123774999Y-86930000D03*
X121235000Y-81890000D03*
X121235000Y-86930000D03*
X92685000Y-112905000D03*
X92685000Y-107865000D03*
X95225002Y-112905000D03*
X95225002Y-107865000D03*
X121290000Y-112905001D03*
X121290000Y-107864999D03*
X123830000Y-112905000D03*
X123830000Y-107865000D03*
X126370000Y-112905000D03*
X126370000Y-107865000D03*
X128910000Y-112905000D03*
X128910000Y-107865000D03*
X131450000Y-112905001D03*
X131450000Y-107864999D03*
D14*
X171653363Y-100768363D03*
X170486637Y-99601637D03*
D15*
X173578363Y-92876637D03*
X172411637Y-94043363D03*
D16*
X205320001Y-98685000D03*
X205320000Y-97585000D03*
X205320000Y-96485000D03*
X205320000Y-95385000D03*
X205320000Y-94285000D03*
X205320000Y-93185000D03*
X205320000Y-92085000D03*
X205320001Y-90985000D03*
D17*
X192855000Y-100475000D03*
D18*
X192780000Y-96209999D03*
D19*
X205305000Y-102564999D03*
D20*
X204820000Y-89905000D03*
D21*
X194055000Y-102785000D03*
X194055000Y-89825000D03*
D22*
X161895000Y-108310000D03*
X161895000Y-107060000D03*
X161895000Y-105810000D03*
X161895000Y-104560000D03*
D23*
X158695000Y-110160000D03*
X158695000Y-102710000D03*
D13*
X191397479Y-86194999D03*
X191397479Y-81154999D03*
X193937478Y-86194999D03*
X193937478Y-81154999D03*
X196477480Y-86194999D03*
X196477480Y-81154999D03*
X199017479Y-86194999D03*
X199017479Y-81154999D03*
X165422479Y-86244999D03*
X165422479Y-81204999D03*
X167962478Y-86244999D03*
X167962478Y-81204999D03*
X170502480Y-86244999D03*
X170502480Y-81204999D03*
X173042479Y-86244999D03*
X173042479Y-81204999D03*
X173042479Y-107115000D03*
X173042479Y-112155000D03*
X170502480Y-107115000D03*
X170502480Y-112155000D03*
X167962478Y-107115000D03*
X167962478Y-112155000D03*
X165422479Y-107115000D03*
X165422479Y-112155000D03*
D24*
X169196992Y-97158008D03*
X170293008Y-96061992D03*
D13*
X198992479Y-107090000D03*
X198992479Y-112130000D03*
X196452480Y-107090000D03*
X196452480Y-112130000D03*
X193912478Y-107090000D03*
X193912478Y-112130000D03*
X191372479Y-107090000D03*
X191372479Y-112130000D03*
D25*
X183495000Y-74345000D03*
X183495000Y-73375000D03*
D26*
X175756181Y-97744099D03*
X174235901Y-96223819D03*
X174554099Y-98946181D03*
X173033819Y-97425901D03*
D27*
X174957150Y-94328773D03*
X175855176Y-95226799D03*
X176753201Y-96124824D03*
X177651227Y-97022850D03*
X173832850Y-100841227D03*
X172934824Y-99943201D03*
X172036799Y-99045176D03*
X171138773Y-98147150D03*
D22*
X161845000Y-98610000D03*
X161845000Y-97360000D03*
X161845000Y-96110000D03*
X161845000Y-94860000D03*
D23*
X158645000Y-100460000D03*
X158645000Y-93010000D03*
D25*
X182195000Y-74327500D03*
X182195000Y-73357500D03*
D28*
X190219999Y-100084999D03*
X190220000Y-99684999D03*
X190220000Y-99284999D03*
X190220000Y-98884998D03*
X190220000Y-98485000D03*
X190220000Y-98084999D03*
X190220000Y-97684999D03*
X190219999Y-97284999D03*
X191370000Y-97284999D03*
X191370000Y-97684999D03*
X191370000Y-98084999D03*
X191370000Y-98484999D03*
X191370000Y-98884999D03*
X191370000Y-99284999D03*
X191370000Y-99684999D03*
X191370000Y-100084999D03*
D29*
X190794999Y-98684999D03*
D25*
X184795000Y-74345000D03*
X184795000Y-73375000D03*
X181120000Y-74320000D03*
X181120000Y-73350000D03*
M02*
