%TF.GenerationSoftware,KiCad,Pcbnew,8.0.1*%
%TF.CreationDate,2025-02-17T13:20:28+05:00*%
%TF.ProjectId,2s_power,32735f70-6f77-4657-922e-6b696361645f,rev?*%
%TF.SameCoordinates,Original*%
%TF.FileFunction,Drillmap*%
%TF.FilePolarity,Positive*%
%FSLAX45Y45*%
G04 Gerber Fmt 4.5, Leading zero omitted, Abs format (unit mm)*
G04 Created by KiCad (PCBNEW 8.0.1) date 2025-02-17 13:20:28*
%MOMM*%
%LPD*%
G01*
G04 APERTURE LIST*
%ADD10C,0.050000*%
%ADD11C,0.200000*%
%ADD12C,0.220000*%
G04 APERTURE END LIST*
D10*
X18500000Y-8000000D02*
G75*
G02*
X19000000Y-8500000I0J-500000D01*
G01*
X14000000Y-8500000D02*
G75*
G02*
X14500000Y-8000000I500000J0D01*
G01*
X14500000Y-8000000D02*
X18500000Y-8000000D01*
X14500000Y-13000000D02*
G75*
G02*
X14000000Y-12500000I0J500000D01*
G01*
X19000000Y-8500000D02*
X19000000Y-12500000D01*
X18500000Y-13000000D02*
X14500000Y-13000000D01*
X19000000Y-12500000D02*
G75*
G02*
X18500000Y-13000000I-500000J0D01*
G01*
X14000000Y-12500000D02*
X14000000Y-8500000D01*
D11*
D12*
X14390000Y-8390000D02*
X14610000Y-8610000D01*
X14610000Y-8390000D02*
X14390000Y-8610000D01*
X14390000Y-12390000D02*
X14610000Y-12610000D01*
X14610000Y-12390000D02*
X14390000Y-12610000D01*
X18390000Y-8390000D02*
X18610000Y-8610000D01*
X18610000Y-8390000D02*
X18390000Y-8610000D01*
X18390000Y-12390000D02*
X18610000Y-12610000D01*
X18610000Y-12390000D02*
X18390000Y-12610000D01*
D11*
X14258277Y-13313984D02*
X14258277Y-13113984D01*
X14258277Y-13113984D02*
X14305896Y-13113984D01*
X14305896Y-13113984D02*
X14334467Y-13123508D01*
X14334467Y-13123508D02*
X14353515Y-13142555D01*
X14353515Y-13142555D02*
X14363039Y-13161603D01*
X14363039Y-13161603D02*
X14372562Y-13199698D01*
X14372562Y-13199698D02*
X14372562Y-13228269D01*
X14372562Y-13228269D02*
X14363039Y-13266365D01*
X14363039Y-13266365D02*
X14353515Y-13285412D01*
X14353515Y-13285412D02*
X14334467Y-13304460D01*
X14334467Y-13304460D02*
X14305896Y-13313984D01*
X14305896Y-13313984D02*
X14258277Y-13313984D01*
X14458277Y-13313984D02*
X14458277Y-13180650D01*
X14458277Y-13218746D02*
X14467801Y-13199698D01*
X14467801Y-13199698D02*
X14477324Y-13190174D01*
X14477324Y-13190174D02*
X14496372Y-13180650D01*
X14496372Y-13180650D02*
X14515420Y-13180650D01*
X14582086Y-13313984D02*
X14582086Y-13180650D01*
X14582086Y-13113984D02*
X14572562Y-13123508D01*
X14572562Y-13123508D02*
X14582086Y-13133031D01*
X14582086Y-13133031D02*
X14591610Y-13123508D01*
X14591610Y-13123508D02*
X14582086Y-13113984D01*
X14582086Y-13113984D02*
X14582086Y-13133031D01*
X14705896Y-13313984D02*
X14686848Y-13304460D01*
X14686848Y-13304460D02*
X14677324Y-13285412D01*
X14677324Y-13285412D02*
X14677324Y-13113984D01*
X14810658Y-13313984D02*
X14791610Y-13304460D01*
X14791610Y-13304460D02*
X14782086Y-13285412D01*
X14782086Y-13285412D02*
X14782086Y-13113984D01*
X15039229Y-13313984D02*
X15039229Y-13113984D01*
X15039229Y-13113984D02*
X15105896Y-13256841D01*
X15105896Y-13256841D02*
X15172562Y-13113984D01*
X15172562Y-13113984D02*
X15172562Y-13313984D01*
X15353515Y-13313984D02*
X15353515Y-13209222D01*
X15353515Y-13209222D02*
X15343991Y-13190174D01*
X15343991Y-13190174D02*
X15324943Y-13180650D01*
X15324943Y-13180650D02*
X15286848Y-13180650D01*
X15286848Y-13180650D02*
X15267801Y-13190174D01*
X15353515Y-13304460D02*
X15334467Y-13313984D01*
X15334467Y-13313984D02*
X15286848Y-13313984D01*
X15286848Y-13313984D02*
X15267801Y-13304460D01*
X15267801Y-13304460D02*
X15258277Y-13285412D01*
X15258277Y-13285412D02*
X15258277Y-13266365D01*
X15258277Y-13266365D02*
X15267801Y-13247317D01*
X15267801Y-13247317D02*
X15286848Y-13237793D01*
X15286848Y-13237793D02*
X15334467Y-13237793D01*
X15334467Y-13237793D02*
X15353515Y-13228269D01*
X15448753Y-13180650D02*
X15448753Y-13380650D01*
X15448753Y-13190174D02*
X15467801Y-13180650D01*
X15467801Y-13180650D02*
X15505896Y-13180650D01*
X15505896Y-13180650D02*
X15524943Y-13190174D01*
X15524943Y-13190174D02*
X15534467Y-13199698D01*
X15534467Y-13199698D02*
X15543991Y-13218746D01*
X15543991Y-13218746D02*
X15543991Y-13275888D01*
X15543991Y-13275888D02*
X15534467Y-13294936D01*
X15534467Y-13294936D02*
X15524943Y-13304460D01*
X15524943Y-13304460D02*
X15505896Y-13313984D01*
X15505896Y-13313984D02*
X15467801Y-13313984D01*
X15467801Y-13313984D02*
X15448753Y-13304460D01*
X15629705Y-13294936D02*
X15639229Y-13304460D01*
X15639229Y-13304460D02*
X15629705Y-13313984D01*
X15629705Y-13313984D02*
X15620182Y-13304460D01*
X15620182Y-13304460D02*
X15629705Y-13294936D01*
X15629705Y-13294936D02*
X15629705Y-13313984D01*
X15629705Y-13190174D02*
X15639229Y-13199698D01*
X15639229Y-13199698D02*
X15629705Y-13209222D01*
X15629705Y-13209222D02*
X15620182Y-13199698D01*
X15620182Y-13199698D02*
X15629705Y-13190174D01*
X15629705Y-13190174D02*
X15629705Y-13209222D01*
X13797500Y-13542500D02*
X13997500Y-13742500D01*
X13997500Y-13542500D02*
X13797500Y-13742500D01*
X14248753Y-13553031D02*
X14258277Y-13543508D01*
X14258277Y-13543508D02*
X14277324Y-13533984D01*
X14277324Y-13533984D02*
X14324943Y-13533984D01*
X14324943Y-13533984D02*
X14343991Y-13543508D01*
X14343991Y-13543508D02*
X14353515Y-13553031D01*
X14353515Y-13553031D02*
X14363039Y-13572079D01*
X14363039Y-13572079D02*
X14363039Y-13591127D01*
X14363039Y-13591127D02*
X14353515Y-13619698D01*
X14353515Y-13619698D02*
X14239229Y-13733984D01*
X14239229Y-13733984D02*
X14363039Y-13733984D01*
X14448753Y-13714936D02*
X14458277Y-13724460D01*
X14458277Y-13724460D02*
X14448753Y-13733984D01*
X14448753Y-13733984D02*
X14439229Y-13724460D01*
X14439229Y-13724460D02*
X14448753Y-13714936D01*
X14448753Y-13714936D02*
X14448753Y-13733984D01*
X14534467Y-13553031D02*
X14543991Y-13543508D01*
X14543991Y-13543508D02*
X14563039Y-13533984D01*
X14563039Y-13533984D02*
X14610658Y-13533984D01*
X14610658Y-13533984D02*
X14629705Y-13543508D01*
X14629705Y-13543508D02*
X14639229Y-13553031D01*
X14639229Y-13553031D02*
X14648753Y-13572079D01*
X14648753Y-13572079D02*
X14648753Y-13591127D01*
X14648753Y-13591127D02*
X14639229Y-13619698D01*
X14639229Y-13619698D02*
X14524943Y-13733984D01*
X14524943Y-13733984D02*
X14648753Y-13733984D01*
X14772562Y-13533984D02*
X14791610Y-13533984D01*
X14791610Y-13533984D02*
X14810658Y-13543508D01*
X14810658Y-13543508D02*
X14820182Y-13553031D01*
X14820182Y-13553031D02*
X14829705Y-13572079D01*
X14829705Y-13572079D02*
X14839229Y-13610174D01*
X14839229Y-13610174D02*
X14839229Y-13657793D01*
X14839229Y-13657793D02*
X14829705Y-13695888D01*
X14829705Y-13695888D02*
X14820182Y-13714936D01*
X14820182Y-13714936D02*
X14810658Y-13724460D01*
X14810658Y-13724460D02*
X14791610Y-13733984D01*
X14791610Y-13733984D02*
X14772562Y-13733984D01*
X14772562Y-13733984D02*
X14753515Y-13724460D01*
X14753515Y-13724460D02*
X14743991Y-13714936D01*
X14743991Y-13714936D02*
X14734467Y-13695888D01*
X14734467Y-13695888D02*
X14724943Y-13657793D01*
X14724943Y-13657793D02*
X14724943Y-13610174D01*
X14724943Y-13610174D02*
X14734467Y-13572079D01*
X14734467Y-13572079D02*
X14743991Y-13553031D01*
X14743991Y-13553031D02*
X14753515Y-13543508D01*
X14753515Y-13543508D02*
X14772562Y-13533984D01*
X14963039Y-13533984D02*
X14982086Y-13533984D01*
X14982086Y-13533984D02*
X15001134Y-13543508D01*
X15001134Y-13543508D02*
X15010658Y-13553031D01*
X15010658Y-13553031D02*
X15020182Y-13572079D01*
X15020182Y-13572079D02*
X15029705Y-13610174D01*
X15029705Y-13610174D02*
X15029705Y-13657793D01*
X15029705Y-13657793D02*
X15020182Y-13695888D01*
X15020182Y-13695888D02*
X15010658Y-13714936D01*
X15010658Y-13714936D02*
X15001134Y-13724460D01*
X15001134Y-13724460D02*
X14982086Y-13733984D01*
X14982086Y-13733984D02*
X14963039Y-13733984D01*
X14963039Y-13733984D02*
X14943991Y-13724460D01*
X14943991Y-13724460D02*
X14934467Y-13714936D01*
X14934467Y-13714936D02*
X14924943Y-13695888D01*
X14924943Y-13695888D02*
X14915420Y-13657793D01*
X14915420Y-13657793D02*
X14915420Y-13610174D01*
X14915420Y-13610174D02*
X14924943Y-13572079D01*
X14924943Y-13572079D02*
X14934467Y-13553031D01*
X14934467Y-13553031D02*
X14943991Y-13543508D01*
X14943991Y-13543508D02*
X14963039Y-13533984D01*
X15115420Y-13733984D02*
X15115420Y-13600650D01*
X15115420Y-13619698D02*
X15124943Y-13610174D01*
X15124943Y-13610174D02*
X15143991Y-13600650D01*
X15143991Y-13600650D02*
X15172563Y-13600650D01*
X15172563Y-13600650D02*
X15191610Y-13610174D01*
X15191610Y-13610174D02*
X15201134Y-13629222D01*
X15201134Y-13629222D02*
X15201134Y-13733984D01*
X15201134Y-13629222D02*
X15210658Y-13610174D01*
X15210658Y-13610174D02*
X15229705Y-13600650D01*
X15229705Y-13600650D02*
X15258277Y-13600650D01*
X15258277Y-13600650D02*
X15277324Y-13610174D01*
X15277324Y-13610174D02*
X15286848Y-13629222D01*
X15286848Y-13629222D02*
X15286848Y-13733984D01*
X15382086Y-13733984D02*
X15382086Y-13600650D01*
X15382086Y-13619698D02*
X15391610Y-13610174D01*
X15391610Y-13610174D02*
X15410658Y-13600650D01*
X15410658Y-13600650D02*
X15439229Y-13600650D01*
X15439229Y-13600650D02*
X15458277Y-13610174D01*
X15458277Y-13610174D02*
X15467801Y-13629222D01*
X15467801Y-13629222D02*
X15467801Y-13733984D01*
X15467801Y-13629222D02*
X15477324Y-13610174D01*
X15477324Y-13610174D02*
X15496372Y-13600650D01*
X15496372Y-13600650D02*
X15524943Y-13600650D01*
X15524943Y-13600650D02*
X15543991Y-13610174D01*
X15543991Y-13610174D02*
X15553515Y-13629222D01*
X15553515Y-13629222D02*
X15553515Y-13733984D01*
X15943991Y-13524460D02*
X15772563Y-13781603D01*
X16201134Y-13533984D02*
X16220182Y-13533984D01*
X16220182Y-13533984D02*
X16239229Y-13543508D01*
X16239229Y-13543508D02*
X16248753Y-13553031D01*
X16248753Y-13553031D02*
X16258277Y-13572079D01*
X16258277Y-13572079D02*
X16267801Y-13610174D01*
X16267801Y-13610174D02*
X16267801Y-13657793D01*
X16267801Y-13657793D02*
X16258277Y-13695888D01*
X16258277Y-13695888D02*
X16248753Y-13714936D01*
X16248753Y-13714936D02*
X16239229Y-13724460D01*
X16239229Y-13724460D02*
X16220182Y-13733984D01*
X16220182Y-13733984D02*
X16201134Y-13733984D01*
X16201134Y-13733984D02*
X16182086Y-13724460D01*
X16182086Y-13724460D02*
X16172563Y-13714936D01*
X16172563Y-13714936D02*
X16163039Y-13695888D01*
X16163039Y-13695888D02*
X16153515Y-13657793D01*
X16153515Y-13657793D02*
X16153515Y-13610174D01*
X16153515Y-13610174D02*
X16163039Y-13572079D01*
X16163039Y-13572079D02*
X16172563Y-13553031D01*
X16172563Y-13553031D02*
X16182086Y-13543508D01*
X16182086Y-13543508D02*
X16201134Y-13533984D01*
X16353515Y-13714936D02*
X16363039Y-13724460D01*
X16363039Y-13724460D02*
X16353515Y-13733984D01*
X16353515Y-13733984D02*
X16343991Y-13724460D01*
X16343991Y-13724460D02*
X16353515Y-13714936D01*
X16353515Y-13714936D02*
X16353515Y-13733984D01*
X16486848Y-13533984D02*
X16505896Y-13533984D01*
X16505896Y-13533984D02*
X16524944Y-13543508D01*
X16524944Y-13543508D02*
X16534467Y-13553031D01*
X16534467Y-13553031D02*
X16543991Y-13572079D01*
X16543991Y-13572079D02*
X16553515Y-13610174D01*
X16553515Y-13610174D02*
X16553515Y-13657793D01*
X16553515Y-13657793D02*
X16543991Y-13695888D01*
X16543991Y-13695888D02*
X16534467Y-13714936D01*
X16534467Y-13714936D02*
X16524944Y-13724460D01*
X16524944Y-13724460D02*
X16505896Y-13733984D01*
X16505896Y-13733984D02*
X16486848Y-13733984D01*
X16486848Y-13733984D02*
X16467801Y-13724460D01*
X16467801Y-13724460D02*
X16458277Y-13714936D01*
X16458277Y-13714936D02*
X16448753Y-13695888D01*
X16448753Y-13695888D02*
X16439229Y-13657793D01*
X16439229Y-13657793D02*
X16439229Y-13610174D01*
X16439229Y-13610174D02*
X16448753Y-13572079D01*
X16448753Y-13572079D02*
X16458277Y-13553031D01*
X16458277Y-13553031D02*
X16467801Y-13543508D01*
X16467801Y-13543508D02*
X16486848Y-13533984D01*
X16667801Y-13619698D02*
X16648753Y-13610174D01*
X16648753Y-13610174D02*
X16639229Y-13600650D01*
X16639229Y-13600650D02*
X16629706Y-13581603D01*
X16629706Y-13581603D02*
X16629706Y-13572079D01*
X16629706Y-13572079D02*
X16639229Y-13553031D01*
X16639229Y-13553031D02*
X16648753Y-13543508D01*
X16648753Y-13543508D02*
X16667801Y-13533984D01*
X16667801Y-13533984D02*
X16705896Y-13533984D01*
X16705896Y-13533984D02*
X16724944Y-13543508D01*
X16724944Y-13543508D02*
X16734467Y-13553031D01*
X16734467Y-13553031D02*
X16743991Y-13572079D01*
X16743991Y-13572079D02*
X16743991Y-13581603D01*
X16743991Y-13581603D02*
X16734467Y-13600650D01*
X16734467Y-13600650D02*
X16724944Y-13610174D01*
X16724944Y-13610174D02*
X16705896Y-13619698D01*
X16705896Y-13619698D02*
X16667801Y-13619698D01*
X16667801Y-13619698D02*
X16648753Y-13629222D01*
X16648753Y-13629222D02*
X16639229Y-13638746D01*
X16639229Y-13638746D02*
X16629706Y-13657793D01*
X16629706Y-13657793D02*
X16629706Y-13695888D01*
X16629706Y-13695888D02*
X16639229Y-13714936D01*
X16639229Y-13714936D02*
X16648753Y-13724460D01*
X16648753Y-13724460D02*
X16667801Y-13733984D01*
X16667801Y-13733984D02*
X16705896Y-13733984D01*
X16705896Y-13733984D02*
X16724944Y-13724460D01*
X16724944Y-13724460D02*
X16734467Y-13714936D01*
X16734467Y-13714936D02*
X16743991Y-13695888D01*
X16743991Y-13695888D02*
X16743991Y-13657793D01*
X16743991Y-13657793D02*
X16734467Y-13638746D01*
X16734467Y-13638746D02*
X16724944Y-13629222D01*
X16724944Y-13629222D02*
X16705896Y-13619698D01*
X16915420Y-13533984D02*
X16877325Y-13533984D01*
X16877325Y-13533984D02*
X16858277Y-13543508D01*
X16858277Y-13543508D02*
X16848753Y-13553031D01*
X16848753Y-13553031D02*
X16829706Y-13581603D01*
X16829706Y-13581603D02*
X16820182Y-13619698D01*
X16820182Y-13619698D02*
X16820182Y-13695888D01*
X16820182Y-13695888D02*
X16829706Y-13714936D01*
X16829706Y-13714936D02*
X16839229Y-13724460D01*
X16839229Y-13724460D02*
X16858277Y-13733984D01*
X16858277Y-13733984D02*
X16896372Y-13733984D01*
X16896372Y-13733984D02*
X16915420Y-13724460D01*
X16915420Y-13724460D02*
X16924944Y-13714936D01*
X16924944Y-13714936D02*
X16934468Y-13695888D01*
X16934468Y-13695888D02*
X16934468Y-13648269D01*
X16934468Y-13648269D02*
X16924944Y-13629222D01*
X16924944Y-13629222D02*
X16915420Y-13619698D01*
X16915420Y-13619698D02*
X16896372Y-13610174D01*
X16896372Y-13610174D02*
X16858277Y-13610174D01*
X16858277Y-13610174D02*
X16839229Y-13619698D01*
X16839229Y-13619698D02*
X16829706Y-13629222D01*
X16829706Y-13629222D02*
X16820182Y-13648269D01*
X17105896Y-13533984D02*
X17067801Y-13533984D01*
X17067801Y-13533984D02*
X17048753Y-13543508D01*
X17048753Y-13543508D02*
X17039229Y-13553031D01*
X17039229Y-13553031D02*
X17020182Y-13581603D01*
X17020182Y-13581603D02*
X17010658Y-13619698D01*
X17010658Y-13619698D02*
X17010658Y-13695888D01*
X17010658Y-13695888D02*
X17020182Y-13714936D01*
X17020182Y-13714936D02*
X17029706Y-13724460D01*
X17029706Y-13724460D02*
X17048753Y-13733984D01*
X17048753Y-13733984D02*
X17086849Y-13733984D01*
X17086849Y-13733984D02*
X17105896Y-13724460D01*
X17105896Y-13724460D02*
X17115420Y-13714936D01*
X17115420Y-13714936D02*
X17124944Y-13695888D01*
X17124944Y-13695888D02*
X17124944Y-13648269D01*
X17124944Y-13648269D02*
X17115420Y-13629222D01*
X17115420Y-13629222D02*
X17105896Y-13619698D01*
X17105896Y-13619698D02*
X17086849Y-13610174D01*
X17086849Y-13610174D02*
X17048753Y-13610174D01*
X17048753Y-13610174D02*
X17029706Y-13619698D01*
X17029706Y-13619698D02*
X17020182Y-13629222D01*
X17020182Y-13629222D02*
X17010658Y-13648269D01*
X17201134Y-13533984D02*
X17201134Y-13572079D01*
X17277325Y-13533984D02*
X17277325Y-13572079D01*
X17572563Y-13810174D02*
X17563039Y-13800650D01*
X17563039Y-13800650D02*
X17543991Y-13772079D01*
X17543991Y-13772079D02*
X17534468Y-13753031D01*
X17534468Y-13753031D02*
X17524944Y-13724460D01*
X17524944Y-13724460D02*
X17515420Y-13676841D01*
X17515420Y-13676841D02*
X17515420Y-13638746D01*
X17515420Y-13638746D02*
X17524944Y-13591127D01*
X17524944Y-13591127D02*
X17534468Y-13562555D01*
X17534468Y-13562555D02*
X17543991Y-13543508D01*
X17543991Y-13543508D02*
X17563039Y-13514936D01*
X17563039Y-13514936D02*
X17572563Y-13505412D01*
X17734468Y-13600650D02*
X17734468Y-13733984D01*
X17686849Y-13524460D02*
X17639230Y-13667317D01*
X17639230Y-13667317D02*
X17763039Y-13667317D01*
X17991611Y-13733984D02*
X17991611Y-13533984D01*
X18077325Y-13733984D02*
X18077325Y-13629222D01*
X18077325Y-13629222D02*
X18067801Y-13610174D01*
X18067801Y-13610174D02*
X18048753Y-13600650D01*
X18048753Y-13600650D02*
X18020182Y-13600650D01*
X18020182Y-13600650D02*
X18001134Y-13610174D01*
X18001134Y-13610174D02*
X17991611Y-13619698D01*
X18201134Y-13733984D02*
X18182087Y-13724460D01*
X18182087Y-13724460D02*
X18172563Y-13714936D01*
X18172563Y-13714936D02*
X18163039Y-13695888D01*
X18163039Y-13695888D02*
X18163039Y-13638746D01*
X18163039Y-13638746D02*
X18172563Y-13619698D01*
X18172563Y-13619698D02*
X18182087Y-13610174D01*
X18182087Y-13610174D02*
X18201134Y-13600650D01*
X18201134Y-13600650D02*
X18229706Y-13600650D01*
X18229706Y-13600650D02*
X18248753Y-13610174D01*
X18248753Y-13610174D02*
X18258277Y-13619698D01*
X18258277Y-13619698D02*
X18267801Y-13638746D01*
X18267801Y-13638746D02*
X18267801Y-13695888D01*
X18267801Y-13695888D02*
X18258277Y-13714936D01*
X18258277Y-13714936D02*
X18248753Y-13724460D01*
X18248753Y-13724460D02*
X18229706Y-13733984D01*
X18229706Y-13733984D02*
X18201134Y-13733984D01*
X18382087Y-13733984D02*
X18363039Y-13724460D01*
X18363039Y-13724460D02*
X18353515Y-13705412D01*
X18353515Y-13705412D02*
X18353515Y-13533984D01*
X18534468Y-13724460D02*
X18515420Y-13733984D01*
X18515420Y-13733984D02*
X18477325Y-13733984D01*
X18477325Y-13733984D02*
X18458277Y-13724460D01*
X18458277Y-13724460D02*
X18448753Y-13705412D01*
X18448753Y-13705412D02*
X18448753Y-13629222D01*
X18448753Y-13629222D02*
X18458277Y-13610174D01*
X18458277Y-13610174D02*
X18477325Y-13600650D01*
X18477325Y-13600650D02*
X18515420Y-13600650D01*
X18515420Y-13600650D02*
X18534468Y-13610174D01*
X18534468Y-13610174D02*
X18543992Y-13629222D01*
X18543992Y-13629222D02*
X18543992Y-13648269D01*
X18543992Y-13648269D02*
X18448753Y-13667317D01*
X18620182Y-13724460D02*
X18639230Y-13733984D01*
X18639230Y-13733984D02*
X18677325Y-13733984D01*
X18677325Y-13733984D02*
X18696373Y-13724460D01*
X18696373Y-13724460D02*
X18705896Y-13705412D01*
X18705896Y-13705412D02*
X18705896Y-13695888D01*
X18705896Y-13695888D02*
X18696373Y-13676841D01*
X18696373Y-13676841D02*
X18677325Y-13667317D01*
X18677325Y-13667317D02*
X18648753Y-13667317D01*
X18648753Y-13667317D02*
X18629706Y-13657793D01*
X18629706Y-13657793D02*
X18620182Y-13638746D01*
X18620182Y-13638746D02*
X18620182Y-13629222D01*
X18620182Y-13629222D02*
X18629706Y-13610174D01*
X18629706Y-13610174D02*
X18648753Y-13600650D01*
X18648753Y-13600650D02*
X18677325Y-13600650D01*
X18677325Y-13600650D02*
X18696373Y-13610174D01*
X18772563Y-13810174D02*
X18782087Y-13800650D01*
X18782087Y-13800650D02*
X18801134Y-13772079D01*
X18801134Y-13772079D02*
X18810658Y-13753031D01*
X18810658Y-13753031D02*
X18820182Y-13724460D01*
X18820182Y-13724460D02*
X18829706Y-13676841D01*
X18829706Y-13676841D02*
X18829706Y-13638746D01*
X18829706Y-13638746D02*
X18820182Y-13591127D01*
X18820182Y-13591127D02*
X18810658Y-13562555D01*
X18810658Y-13562555D02*
X18801134Y-13543508D01*
X18801134Y-13543508D02*
X18782087Y-13514936D01*
X18782087Y-13514936D02*
X18772563Y-13505412D01*
X19134468Y-13810174D02*
X19124944Y-13800650D01*
X19124944Y-13800650D02*
X19105896Y-13772079D01*
X19105896Y-13772079D02*
X19096373Y-13753031D01*
X19096373Y-13753031D02*
X19086849Y-13724460D01*
X19086849Y-13724460D02*
X19077325Y-13676841D01*
X19077325Y-13676841D02*
X19077325Y-13638746D01*
X19077325Y-13638746D02*
X19086849Y-13591127D01*
X19086849Y-13591127D02*
X19096373Y-13562555D01*
X19096373Y-13562555D02*
X19105896Y-13543508D01*
X19105896Y-13543508D02*
X19124944Y-13514936D01*
X19124944Y-13514936D02*
X19134468Y-13505412D01*
X19210658Y-13600650D02*
X19210658Y-13733984D01*
X19210658Y-13619698D02*
X19220182Y-13610174D01*
X19220182Y-13610174D02*
X19239230Y-13600650D01*
X19239230Y-13600650D02*
X19267801Y-13600650D01*
X19267801Y-13600650D02*
X19286849Y-13610174D01*
X19286849Y-13610174D02*
X19296373Y-13629222D01*
X19296373Y-13629222D02*
X19296373Y-13733984D01*
X19420182Y-13733984D02*
X19401134Y-13724460D01*
X19401134Y-13724460D02*
X19391611Y-13714936D01*
X19391611Y-13714936D02*
X19382087Y-13695888D01*
X19382087Y-13695888D02*
X19382087Y-13638746D01*
X19382087Y-13638746D02*
X19391611Y-13619698D01*
X19391611Y-13619698D02*
X19401134Y-13610174D01*
X19401134Y-13610174D02*
X19420182Y-13600650D01*
X19420182Y-13600650D02*
X19448754Y-13600650D01*
X19448754Y-13600650D02*
X19467801Y-13610174D01*
X19467801Y-13610174D02*
X19477325Y-13619698D01*
X19477325Y-13619698D02*
X19486849Y-13638746D01*
X19486849Y-13638746D02*
X19486849Y-13695888D01*
X19486849Y-13695888D02*
X19477325Y-13714936D01*
X19477325Y-13714936D02*
X19467801Y-13724460D01*
X19467801Y-13724460D02*
X19448754Y-13733984D01*
X19448754Y-13733984D02*
X19420182Y-13733984D01*
X19543992Y-13600650D02*
X19620182Y-13600650D01*
X19572563Y-13533984D02*
X19572563Y-13705412D01*
X19572563Y-13705412D02*
X19582087Y-13724460D01*
X19582087Y-13724460D02*
X19601134Y-13733984D01*
X19601134Y-13733984D02*
X19620182Y-13733984D01*
X19839230Y-13600650D02*
X19839230Y-13800650D01*
X19839230Y-13610174D02*
X19858277Y-13600650D01*
X19858277Y-13600650D02*
X19896373Y-13600650D01*
X19896373Y-13600650D02*
X19915420Y-13610174D01*
X19915420Y-13610174D02*
X19924944Y-13619698D01*
X19924944Y-13619698D02*
X19934468Y-13638746D01*
X19934468Y-13638746D02*
X19934468Y-13695888D01*
X19934468Y-13695888D02*
X19924944Y-13714936D01*
X19924944Y-13714936D02*
X19915420Y-13724460D01*
X19915420Y-13724460D02*
X19896373Y-13733984D01*
X19896373Y-13733984D02*
X19858277Y-13733984D01*
X19858277Y-13733984D02*
X19839230Y-13724460D01*
X20048754Y-13733984D02*
X20029706Y-13724460D01*
X20029706Y-13724460D02*
X20020182Y-13705412D01*
X20020182Y-13705412D02*
X20020182Y-13533984D01*
X20210658Y-13733984D02*
X20210658Y-13629222D01*
X20210658Y-13629222D02*
X20201135Y-13610174D01*
X20201135Y-13610174D02*
X20182087Y-13600650D01*
X20182087Y-13600650D02*
X20143992Y-13600650D01*
X20143992Y-13600650D02*
X20124944Y-13610174D01*
X20210658Y-13724460D02*
X20191611Y-13733984D01*
X20191611Y-13733984D02*
X20143992Y-13733984D01*
X20143992Y-13733984D02*
X20124944Y-13724460D01*
X20124944Y-13724460D02*
X20115420Y-13705412D01*
X20115420Y-13705412D02*
X20115420Y-13686365D01*
X20115420Y-13686365D02*
X20124944Y-13667317D01*
X20124944Y-13667317D02*
X20143992Y-13657793D01*
X20143992Y-13657793D02*
X20191611Y-13657793D01*
X20191611Y-13657793D02*
X20210658Y-13648269D01*
X20277325Y-13600650D02*
X20353515Y-13600650D01*
X20305896Y-13533984D02*
X20305896Y-13705412D01*
X20305896Y-13705412D02*
X20315420Y-13724460D01*
X20315420Y-13724460D02*
X20334468Y-13733984D01*
X20334468Y-13733984D02*
X20353515Y-13733984D01*
X20496373Y-13724460D02*
X20477325Y-13733984D01*
X20477325Y-13733984D02*
X20439230Y-13733984D01*
X20439230Y-13733984D02*
X20420182Y-13724460D01*
X20420182Y-13724460D02*
X20410658Y-13705412D01*
X20410658Y-13705412D02*
X20410658Y-13629222D01*
X20410658Y-13629222D02*
X20420182Y-13610174D01*
X20420182Y-13610174D02*
X20439230Y-13600650D01*
X20439230Y-13600650D02*
X20477325Y-13600650D01*
X20477325Y-13600650D02*
X20496373Y-13610174D01*
X20496373Y-13610174D02*
X20505896Y-13629222D01*
X20505896Y-13629222D02*
X20505896Y-13648269D01*
X20505896Y-13648269D02*
X20410658Y-13667317D01*
X20677325Y-13733984D02*
X20677325Y-13533984D01*
X20677325Y-13724460D02*
X20658277Y-13733984D01*
X20658277Y-13733984D02*
X20620182Y-13733984D01*
X20620182Y-13733984D02*
X20601135Y-13724460D01*
X20601135Y-13724460D02*
X20591611Y-13714936D01*
X20591611Y-13714936D02*
X20582087Y-13695888D01*
X20582087Y-13695888D02*
X20582087Y-13638746D01*
X20582087Y-13638746D02*
X20591611Y-13619698D01*
X20591611Y-13619698D02*
X20601135Y-13610174D01*
X20601135Y-13610174D02*
X20620182Y-13600650D01*
X20620182Y-13600650D02*
X20658277Y-13600650D01*
X20658277Y-13600650D02*
X20677325Y-13610174D01*
X20753516Y-13810174D02*
X20763039Y-13800650D01*
X20763039Y-13800650D02*
X20782087Y-13772079D01*
X20782087Y-13772079D02*
X20791611Y-13753031D01*
X20791611Y-13753031D02*
X20801135Y-13724460D01*
X20801135Y-13724460D02*
X20810658Y-13676841D01*
X20810658Y-13676841D02*
X20810658Y-13638746D01*
X20810658Y-13638746D02*
X20801135Y-13591127D01*
X20801135Y-13591127D02*
X20791611Y-13562555D01*
X20791611Y-13562555D02*
X20782087Y-13543508D01*
X20782087Y-13543508D02*
X20763039Y-13514936D01*
X20763039Y-13514936D02*
X20753516Y-13505412D01*
M02*
