G04 #@! TF.GenerationSoftware,KiCad,Pcbnew,8.0.1*
G04 #@! TF.CreationDate,2025-02-17T13:19:52+05:00*
G04 #@! TF.ProjectId,2s_power,32735f70-6f77-4657-922e-6b696361645f,rev?*
G04 #@! TF.SameCoordinates,Original*
G04 #@! TF.FileFunction,Copper,L1,Top*
G04 #@! TF.FilePolarity,Positive*
%FSLAX46Y46*%
G04 Gerber Fmt 4.6, Leading zero omitted, Abs format (unit mm)*
G04 Created by KiCad (PCBNEW 8.0.1) date 2025-02-17 13:19:52*
%MOMM*%
%LPD*%
G01*
G04 APERTURE LIST*
G04 Aperture macros list*
%AMRoundRect*
0 Rectangle with rounded corners*
0 $1 Rounding radius*
0 $2 $3 $4 $5 $6 $7 $8 $9 X,Y pos of 4 corners*
0 Add a 4 corners polygon primitive as box body*
4,1,4,$2,$3,$4,$5,$6,$7,$8,$9,$2,$3,0*
0 Add four circle primitives for the rounded corners*
1,1,$1+$1,$2,$3*
1,1,$1+$1,$4,$5*
1,1,$1+$1,$6,$7*
1,1,$1+$1,$8,$9*
0 Add four rect primitives between the rounded corners*
20,1,$1+$1,$2,$3,$4,$5,0*
20,1,$1+$1,$4,$5,$6,$7,0*
20,1,$1+$1,$6,$7,$8,$9,0*
20,1,$1+$1,$8,$9,$2,$3,0*%
G04 Aperture macros list end*
G04 #@! TA.AperFunction,SMDPad,CuDef*
%ADD10R,3.000000X1.000000*%
G04 #@! TD*
G04 #@! TA.AperFunction,SMDPad,CuDef*
%ADD11RoundRect,0.237500X-0.237500X0.250000X-0.237500X-0.250000X0.237500X-0.250000X0.237500X0.250000X0*%
G04 #@! TD*
G04 #@! TA.AperFunction,SMDPad,CuDef*
%ADD12R,3.500000X4.000000*%
G04 #@! TD*
G04 #@! TA.AperFunction,SMDPad,CuDef*
%ADD13RoundRect,0.250000X-1.100000X0.325000X-1.100000X-0.325000X1.100000X-0.325000X1.100000X0.325000X0*%
G04 #@! TD*
G04 #@! TA.AperFunction,SMDPad,CuDef*
%ADD14RoundRect,0.200000X-0.275000X0.200000X-0.275000X-0.200000X0.275000X-0.200000X0.275000X0.200000X0*%
G04 #@! TD*
G04 #@! TA.AperFunction,SMDPad,CuDef*
%ADD15C,1.000000*%
G04 #@! TD*
G04 #@! TA.AperFunction,SMDPad,CuDef*
%ADD16RoundRect,0.062500X0.062500X-0.350000X0.062500X0.350000X-0.062500X0.350000X-0.062500X-0.350000X0*%
G04 #@! TD*
G04 #@! TA.AperFunction,SMDPad,CuDef*
%ADD17RoundRect,0.062500X0.350000X-0.062500X0.350000X0.062500X-0.350000X0.062500X-0.350000X-0.062500X0*%
G04 #@! TD*
G04 #@! TA.AperFunction,HeatsinkPad*
%ADD18C,0.500000*%
G04 #@! TD*
G04 #@! TA.AperFunction,HeatsinkPad*
%ADD19R,1.680000X1.680000*%
G04 #@! TD*
G04 #@! TA.AperFunction,SMDPad,CuDef*
%ADD20R,1.500000X2.500000*%
G04 #@! TD*
G04 #@! TA.AperFunction,SMDPad,CuDef*
%ADD21C,0.500000*%
G04 #@! TD*
G04 #@! TA.AperFunction,SMDPad,CuDef*
%ADD22RoundRect,0.200000X0.275000X-0.200000X0.275000X0.200000X-0.275000X0.200000X-0.275000X-0.200000X0*%
G04 #@! TD*
G04 #@! TA.AperFunction,SMDPad,CuDef*
%ADD23RoundRect,0.200000X-0.200000X-0.275000X0.200000X-0.275000X0.200000X0.275000X-0.200000X0.275000X0*%
G04 #@! TD*
G04 #@! TA.AperFunction,SMDPad,CuDef*
%ADD24RoundRect,0.237500X-0.250000X-0.237500X0.250000X-0.237500X0.250000X0.237500X-0.250000X0.237500X0*%
G04 #@! TD*
G04 #@! TA.AperFunction,SMDPad,CuDef*
%ADD25RoundRect,0.225000X-0.250000X0.225000X-0.250000X-0.225000X0.250000X-0.225000X0.250000X0.225000X0*%
G04 #@! TD*
G04 #@! TA.AperFunction,SMDPad,CuDef*
%ADD26RoundRect,0.225000X0.250000X-0.225000X0.250000X0.225000X-0.250000X0.225000X-0.250000X-0.225000X0*%
G04 #@! TD*
G04 #@! TA.AperFunction,SMDPad,CuDef*
%ADD27RoundRect,0.250000X-0.325000X-1.100000X0.325000X-1.100000X0.325000X1.100000X-0.325000X1.100000X0*%
G04 #@! TD*
G04 #@! TA.AperFunction,SMDPad,CuDef*
%ADD28RoundRect,0.200000X0.200000X0.275000X-0.200000X0.275000X-0.200000X-0.275000X0.200000X-0.275000X0*%
G04 #@! TD*
G04 #@! TA.AperFunction,SMDPad,CuDef*
%ADD29R,0.750000X0.300000*%
G04 #@! TD*
G04 #@! TA.AperFunction,SMDPad,CuDef*
%ADD30R,1.750000X1.450000*%
G04 #@! TD*
G04 #@! TA.AperFunction,SMDPad,CuDef*
%ADD31RoundRect,0.237500X-0.237500X0.287500X-0.237500X-0.287500X0.237500X-0.287500X0.237500X0.287500X0*%
G04 #@! TD*
G04 #@! TA.AperFunction,SMDPad,CuDef*
%ADD32RoundRect,0.150000X0.150000X0.700000X-0.150000X0.700000X-0.150000X-0.700000X0.150000X-0.700000X0*%
G04 #@! TD*
G04 #@! TA.AperFunction,SMDPad,CuDef*
%ADD33RoundRect,0.250000X0.250000X1.100000X-0.250000X1.100000X-0.250000X-1.100000X0.250000X-1.100000X0*%
G04 #@! TD*
G04 #@! TA.AperFunction,SMDPad,CuDef*
%ADD34RoundRect,0.237500X-0.287500X-0.237500X0.287500X-0.237500X0.287500X0.237500X-0.287500X0.237500X0*%
G04 #@! TD*
G04 #@! TA.AperFunction,SMDPad,CuDef*
%ADD35RoundRect,0.225000X0.225000X0.250000X-0.225000X0.250000X-0.225000X-0.250000X0.225000X-0.250000X0*%
G04 #@! TD*
G04 #@! TA.AperFunction,ComponentPad*
%ADD36R,3.800000X3.800000*%
G04 #@! TD*
G04 #@! TA.AperFunction,ComponentPad*
%ADD37C,3.800000*%
G04 #@! TD*
G04 #@! TA.AperFunction,ViaPad*
%ADD38C,0.600000*%
G04 #@! TD*
G04 #@! TA.AperFunction,Conductor*
%ADD39C,0.300000*%
G04 #@! TD*
G04 #@! TA.AperFunction,Conductor*
%ADD40C,1.000000*%
G04 #@! TD*
G04 #@! TA.AperFunction,Conductor*
%ADD41C,0.500000*%
G04 #@! TD*
G04 #@! TA.AperFunction,Conductor*
%ADD42C,2.000000*%
G04 #@! TD*
G04 APERTURE END LIST*
D10*
X181880000Y-108810000D03*
X186920000Y-108810000D03*
X181880000Y-106270001D03*
X186920000Y-106270001D03*
X181880000Y-103729999D03*
X186920000Y-103729999D03*
X181880000Y-101190000D03*
X186920000Y-101190000D03*
D11*
X177901800Y-122410951D03*
X177901800Y-124235951D03*
D12*
X160725000Y-107875000D03*
X170225000Y-107875000D03*
D13*
X170525001Y-120100001D03*
X170525001Y-123050003D03*
D14*
X167475000Y-97825000D03*
X167475000Y-99475000D03*
D15*
X167000000Y-89375000D03*
D16*
X160625000Y-99900000D03*
X161125000Y-99900000D03*
X161625000Y-99900000D03*
X162125000Y-99900000D03*
D17*
X162837500Y-99187500D03*
X162837500Y-98687500D03*
X162837500Y-98187500D03*
X162837500Y-97687500D03*
D16*
X162125000Y-96975000D03*
X161625000Y-96975000D03*
X161125000Y-96975000D03*
X160625000Y-96975000D03*
D17*
X159912500Y-97687500D03*
X159912500Y-98187500D03*
X159912500Y-98687500D03*
X159912500Y-99187500D03*
D18*
X160785000Y-99027500D03*
X161965000Y-99027500D03*
D19*
X161375000Y-98437500D03*
D18*
X160785000Y-97847500D03*
X161965000Y-97847500D03*
D20*
X160875001Y-117750000D03*
X157174999Y-117750000D03*
D15*
X151328800Y-117445200D03*
D13*
X174101800Y-118017200D03*
X174101800Y-120967202D03*
D10*
X147920000Y-101190000D03*
X142880000Y-101190000D03*
X147920000Y-103730000D03*
X142880000Y-103730000D03*
X147920000Y-106270000D03*
X142880000Y-106270000D03*
X147920000Y-108810000D03*
X142880000Y-108810000D03*
D21*
X187500000Y-82500000D03*
X142500000Y-127500000D03*
D14*
X168025000Y-121100002D03*
X168025000Y-122750002D03*
D22*
X165925000Y-99475000D03*
X165925000Y-97825000D03*
D23*
X153475000Y-89050000D03*
X155125000Y-89050000D03*
D24*
X153576801Y-126854700D03*
X155401801Y-126854700D03*
D25*
X162750000Y-93725000D03*
X162750000Y-95275000D03*
D22*
X166525000Y-122750002D03*
X166525000Y-121100002D03*
D21*
X187500000Y-127500000D03*
D26*
X163025000Y-120875001D03*
X163025000Y-119325001D03*
D15*
X151450000Y-87275000D03*
X169450000Y-100150000D03*
X157475000Y-90700000D03*
D27*
X160200000Y-89300000D03*
X163150000Y-89300000D03*
D28*
X164700000Y-101475000D03*
X163050000Y-101475000D03*
X155125000Y-87550000D03*
X153475000Y-87550000D03*
D13*
X154271001Y-117593998D03*
X154271001Y-120544000D03*
D15*
X173975000Y-107050000D03*
D29*
X167912500Y-119712501D03*
X167912500Y-119212501D03*
X167912500Y-118712501D03*
X167912500Y-118212501D03*
X165012500Y-118212501D03*
X165012500Y-118712501D03*
X165012500Y-119212501D03*
X165012500Y-119712501D03*
D30*
X166462500Y-118962501D03*
D31*
X179551800Y-122473452D03*
X179551800Y-124223450D03*
D21*
X142500000Y-82500000D03*
D32*
X151725000Y-84850000D03*
X150475000Y-84850000D03*
D33*
X153575000Y-81650000D03*
X148625000Y-81650000D03*
D34*
X153701802Y-125129700D03*
X155451800Y-125129700D03*
D13*
X174225000Y-109449999D03*
X174225000Y-112400001D03*
D35*
X162150000Y-92075000D03*
X160600000Y-92075000D03*
D36*
X163800000Y-83400000D03*
D37*
X158800000Y-83400000D03*
D38*
X152120600Y-106781600D03*
X164475000Y-88425000D03*
X163225000Y-91425000D03*
X154660600Y-83921600D03*
X180901800Y-123048451D03*
X175600000Y-113850000D03*
X169900600Y-94081600D03*
X187680600Y-86461600D03*
X164820600Y-106781600D03*
X167950000Y-84425000D03*
X157200600Y-94081600D03*
X172440600Y-89001600D03*
X187680600Y-89001600D03*
X172440600Y-86461600D03*
X174175000Y-113850000D03*
X174980600Y-104241600D03*
X174980600Y-86461600D03*
X155001802Y-122292203D03*
X174980600Y-124561600D03*
X152120600Y-119481600D03*
X149580600Y-89001600D03*
X167360600Y-127101600D03*
X180851800Y-121848451D03*
X180060600Y-81381600D03*
X157825000Y-100575000D03*
X185140600Y-114401600D03*
X147040600Y-91541600D03*
X162280600Y-124561600D03*
X182600600Y-122021600D03*
X141960600Y-83921600D03*
X169900600Y-81381600D03*
X141960600Y-116941600D03*
X144500600Y-91541600D03*
X177520600Y-86461600D03*
X174980600Y-91541600D03*
X172950000Y-113850000D03*
X166400000Y-96700000D03*
X158675000Y-99750000D03*
X169900600Y-86461600D03*
X187680600Y-119481600D03*
X172440600Y-81381600D03*
X158650000Y-100600000D03*
X167360600Y-104241600D03*
X187680600Y-99161600D03*
X149580600Y-91541600D03*
X155350000Y-90200000D03*
X167360600Y-124561600D03*
X164775000Y-97450000D03*
X159740600Y-127101600D03*
X167225000Y-85675000D03*
X157875000Y-98875000D03*
X182600600Y-94081600D03*
X187680600Y-122021600D03*
X152120600Y-104241600D03*
X185140600Y-119481600D03*
X144500600Y-127101600D03*
X174980600Y-127101600D03*
X169900600Y-91541600D03*
X177520600Y-83921600D03*
X167625000Y-82275000D03*
X164820600Y-104241600D03*
X182600600Y-127101600D03*
X180060600Y-96621600D03*
X162280600Y-111861600D03*
X164425000Y-86900000D03*
X172440600Y-99161600D03*
X180060600Y-94081600D03*
X154226800Y-123679700D03*
X141960600Y-94081600D03*
X144500600Y-111861600D03*
X182600600Y-124561600D03*
X180060600Y-89001600D03*
X185140600Y-89001600D03*
X152120600Y-99161600D03*
X185140600Y-122021600D03*
X169900600Y-96621600D03*
X157200600Y-106781600D03*
X147040600Y-86461600D03*
X187680600Y-124561600D03*
X185140600Y-111861600D03*
X167113000Y-117098601D03*
X159740600Y-124561600D03*
X152120600Y-111861600D03*
X147040600Y-83921600D03*
X174980600Y-83921600D03*
X174980600Y-119481600D03*
X144500600Y-119481600D03*
X174980600Y-94081600D03*
X187680600Y-91541600D03*
X180060600Y-99161600D03*
X164820600Y-91541600D03*
X162280600Y-86461600D03*
X174980600Y-101701600D03*
X147040600Y-127101600D03*
X174851802Y-122317201D03*
X180060600Y-91541600D03*
X172440600Y-104241600D03*
X157200600Y-127101600D03*
X164900000Y-98475000D03*
X152120600Y-94081600D03*
X180060600Y-127101600D03*
X174980600Y-89001600D03*
X167360600Y-91541600D03*
X185140600Y-116941600D03*
X147040600Y-96621600D03*
X149580600Y-94081600D03*
X172440600Y-83921600D03*
X166650000Y-81000000D03*
X152120600Y-91541600D03*
X172440600Y-96621600D03*
X147040600Y-81381600D03*
X162280600Y-127101600D03*
X153501804Y-122292203D03*
X147040600Y-94081600D03*
X164820600Y-111861600D03*
X154660600Y-94081600D03*
X158700000Y-98900000D03*
X154660600Y-114401600D03*
X141960600Y-96621600D03*
X152120600Y-101701600D03*
X174980600Y-96621600D03*
X172440600Y-94081600D03*
X164820600Y-127101600D03*
X141960600Y-122021600D03*
X141960600Y-91541600D03*
X169900600Y-127101600D03*
X174980600Y-81381600D03*
X182600600Y-119481600D03*
X141960600Y-99161600D03*
X185140600Y-99161600D03*
X182600600Y-89001600D03*
X185140600Y-127101600D03*
X182600600Y-91541600D03*
X141960600Y-111861600D03*
X185140600Y-81381600D03*
X167360600Y-94081600D03*
X177520600Y-91541600D03*
X152120600Y-109321600D03*
X167360600Y-111861600D03*
X177520600Y-81381600D03*
X147040600Y-124561600D03*
X159740600Y-111861600D03*
X169900600Y-89001600D03*
X172440600Y-101701600D03*
X185140600Y-94081600D03*
X154660600Y-96621600D03*
X157200600Y-124561600D03*
X169900600Y-83921600D03*
X187680600Y-96621600D03*
X173351802Y-122317200D03*
X171286001Y-124357001D03*
X141960600Y-124561600D03*
X187680600Y-114401600D03*
X157850000Y-99775000D03*
X147040600Y-99161600D03*
X144500600Y-116941600D03*
X172440600Y-127101600D03*
X141960600Y-114401600D03*
X149580600Y-99161600D03*
X144500600Y-94081600D03*
X144500600Y-99161600D03*
X172440600Y-91541600D03*
X187680600Y-111861600D03*
X180060600Y-83921600D03*
X157200600Y-111861600D03*
X177520600Y-127101600D03*
X157200600Y-109321600D03*
X153226801Y-123779700D03*
X177520600Y-96621600D03*
X152120600Y-114401600D03*
X182600600Y-96621600D03*
X165817600Y-116895401D03*
X144500600Y-122021600D03*
X164820600Y-124561600D03*
X152120600Y-96621600D03*
X180060600Y-86461600D03*
X165675000Y-96675000D03*
X144500600Y-89001600D03*
X152120600Y-81381600D03*
X163250000Y-92200000D03*
X144500600Y-96621600D03*
X187680600Y-116941600D03*
X152120600Y-89001600D03*
X141960600Y-119481600D03*
X182600600Y-99161600D03*
X180060600Y-119481600D03*
X185140600Y-91541600D03*
X185140600Y-96621600D03*
X166475000Y-86575000D03*
X182600600Y-83921600D03*
X164250000Y-96550000D03*
X147040600Y-89001600D03*
X187680600Y-83921600D03*
X141960600Y-89001600D03*
X149580600Y-96621600D03*
X182600600Y-86461600D03*
X147040600Y-122021600D03*
X163875000Y-93550000D03*
X169786001Y-124357000D03*
X157200600Y-104241600D03*
X147040600Y-119481600D03*
X164550000Y-89900000D03*
X177520600Y-89001600D03*
X164820600Y-109321600D03*
X144500600Y-114401600D03*
X177520600Y-94081600D03*
X157200600Y-96621600D03*
X150925000Y-83125000D03*
X150125000Y-86475000D03*
X144500600Y-81381600D03*
X141960600Y-86461600D03*
X187680600Y-94081600D03*
X182600600Y-81381600D03*
D39*
X155125000Y-87550000D02*
X157050000Y-87550000D01*
X157050000Y-87550000D02*
X158800000Y-89300000D01*
X158800000Y-89300000D02*
X160200000Y-89300000D01*
D40*
X155125000Y-89050000D02*
X155125000Y-89975000D01*
X170535999Y-123607001D02*
X169786001Y-124357000D01*
X168025000Y-122750001D02*
X170224999Y-122750001D01*
D39*
X165925000Y-96925000D02*
X165675000Y-96675000D01*
D40*
X166462500Y-117540301D02*
X166462500Y-118962501D01*
D39*
X180476799Y-122473452D02*
X180851800Y-122098451D01*
X165925000Y-97175000D02*
X166400000Y-96700000D01*
D40*
X167113000Y-117098601D02*
X166462500Y-117749101D01*
D41*
X150475000Y-84850000D02*
X150475000Y-83575000D01*
D39*
X179551800Y-122473452D02*
X180476799Y-122473452D01*
D40*
X174101800Y-121567201D02*
X173351802Y-122317200D01*
D39*
X153701802Y-124204698D02*
X154226800Y-123679700D01*
D40*
X170224999Y-122750001D02*
X170525001Y-123050003D01*
X155125000Y-89975000D02*
X155350000Y-90200000D01*
D39*
X165012500Y-118212501D02*
X165712500Y-118212501D01*
D40*
X171286001Y-124357001D02*
X170409001Y-123480000D01*
D39*
X180901800Y-123048451D02*
X180901800Y-122898453D01*
D40*
X154251800Y-121542205D02*
X153501804Y-122292203D01*
D39*
X165712501Y-119712501D02*
X166462500Y-118962501D01*
X165012500Y-119712501D02*
X165712501Y-119712501D01*
X153701802Y-125129700D02*
X153701802Y-124254701D01*
X164250000Y-96550000D02*
X164250000Y-97025000D01*
X165925000Y-97825000D02*
X165925000Y-96925000D01*
D40*
X154271001Y-120544000D02*
X154271001Y-121561402D01*
D41*
X150475000Y-84850000D02*
X150475000Y-86125000D01*
D39*
X164900000Y-98475000D02*
X164687500Y-98687500D01*
X180901800Y-122898453D02*
X180476799Y-122473452D01*
X153701802Y-125129700D02*
X153701802Y-124204698D01*
X153701802Y-124254701D02*
X153226801Y-123779700D01*
X164775000Y-97450000D02*
X164037500Y-98187500D01*
D41*
X150475000Y-83575000D02*
X150925000Y-83125000D01*
D40*
X166462500Y-117749101D02*
X166462500Y-118962501D01*
X174851802Y-122317201D02*
X173974802Y-121440200D01*
D39*
X163587500Y-97687500D02*
X162837500Y-97687500D01*
X165712500Y-118212501D02*
X166462500Y-118962501D01*
X164037500Y-98187500D02*
X162837500Y-98187500D01*
D41*
X150475000Y-86125000D02*
X150125000Y-86475000D01*
D40*
X154271001Y-121561402D02*
X155001802Y-122292203D01*
D39*
X164250000Y-97025000D02*
X163587500Y-97687500D01*
X180851800Y-122098451D02*
X180851800Y-121848451D01*
D40*
X165817600Y-116895401D02*
X166462500Y-117540301D01*
D39*
X164687500Y-98687500D02*
X162837500Y-98687500D01*
X168900000Y-101475000D02*
X170225000Y-102800000D01*
X177075000Y-99650000D02*
X175225000Y-97800000D01*
X169225000Y-114075000D02*
X156750000Y-114075000D01*
X170225000Y-107875000D02*
X170225000Y-113075000D01*
X154100000Y-111475000D02*
X154100000Y-99225000D01*
X155350000Y-97975000D02*
X157625000Y-97975000D01*
X154100000Y-99225000D02*
X155350000Y-97975000D01*
X175225000Y-97800000D02*
X167500000Y-97800000D01*
X156725000Y-114100000D02*
X154100000Y-111475000D01*
X156750000Y-114075000D02*
X156725000Y-114100000D01*
X167500000Y-97800000D02*
X167475000Y-97825000D01*
X177901800Y-122410951D02*
X177901800Y-118273451D01*
X177075000Y-106225000D02*
X177075000Y-99650000D01*
X170225000Y-102800000D02*
X170225000Y-107875000D01*
X157837500Y-98187500D02*
X159912500Y-98187500D01*
X170225000Y-113075000D02*
X169225000Y-114075000D01*
X157625000Y-97975000D02*
X157837500Y-98187500D01*
X164700000Y-101475000D02*
X168900000Y-101475000D01*
X162125000Y-96975000D02*
X162125000Y-95900000D01*
X162125000Y-95900000D02*
X162750000Y-95275000D01*
X169450000Y-100150000D02*
X168150000Y-100150000D01*
X162837500Y-99187500D02*
X163484320Y-99187500D01*
X168150000Y-100150000D02*
X167475000Y-99475000D01*
X165450000Y-99475000D02*
X167475000Y-99475000D01*
X163771820Y-99475000D02*
X165925000Y-99475000D01*
X163484320Y-99187500D02*
X163771820Y-99475000D01*
X163050000Y-101475000D02*
X162400000Y-101475000D01*
X162400000Y-101475000D02*
X162125000Y-101200000D01*
X162125000Y-101200000D02*
X162125000Y-99900000D01*
X164090400Y-120375201D02*
X164090400Y-119409601D01*
X164287500Y-119212501D02*
X165012499Y-119212501D01*
X164090400Y-119409601D02*
X164287500Y-119212501D01*
X163025000Y-120875001D02*
X163590600Y-120875001D01*
X163590600Y-120875001D02*
X164090400Y-120375201D01*
X170525001Y-119450001D02*
X170525001Y-120100001D01*
X167912500Y-119212501D02*
X170287501Y-119212501D01*
X170287501Y-119212501D02*
X170525001Y-119450001D01*
X154122203Y-117445200D02*
X154271001Y-117593998D01*
X149451800Y-125967201D02*
X150339299Y-126854700D01*
X150339299Y-126854700D02*
X153576801Y-126854700D01*
X149451800Y-118367201D02*
X149451800Y-125967201D01*
X151328800Y-117445200D02*
X154122203Y-117445200D01*
D42*
X147920000Y-115835401D02*
X147920000Y-101190000D01*
D39*
X151126800Y-117243200D02*
X151328800Y-117445200D01*
D42*
X154271001Y-117593998D02*
X157018997Y-117593998D01*
X157018997Y-117593998D02*
X157174999Y-117750000D01*
D39*
X151328800Y-117445200D02*
X150373801Y-117445200D01*
D42*
X149678597Y-117593998D02*
X147920000Y-115835401D01*
D39*
X157174999Y-120979999D02*
X158945001Y-122750001D01*
D42*
X154271001Y-117593998D02*
X149678597Y-117593998D01*
D39*
X157174999Y-117750000D02*
X157174999Y-120979999D01*
X158945001Y-122750001D02*
X166525000Y-122750001D01*
X150373801Y-117445200D02*
X149451800Y-118367201D01*
D41*
X151725000Y-84850000D02*
X151725000Y-86050000D01*
X151450000Y-87275000D02*
X151725000Y-87550000D01*
X151725000Y-86050000D02*
X151450000Y-86325000D01*
X151725000Y-87550000D02*
X153475000Y-87550000D01*
D40*
X153475000Y-89050000D02*
X153475000Y-87550000D01*
D41*
X151450000Y-86325000D02*
X151450000Y-87275000D01*
D39*
X166524999Y-121100001D02*
X168025001Y-121100001D01*
X168025000Y-119825000D02*
X167912500Y-119712500D01*
X168025001Y-121100001D02*
X168025000Y-119825000D01*
X155451800Y-125129699D02*
X155451800Y-126804701D01*
X177901800Y-124235951D02*
X179539299Y-124235951D01*
X179539299Y-124235951D02*
X179551800Y-124223450D01*
G04 #@! TA.AperFunction,Conductor*
G36*
X163004069Y-116509818D02*
G01*
X163043665Y-116564318D01*
X163049000Y-116598001D01*
X163049000Y-118546401D01*
X164525597Y-118546401D01*
X164548408Y-118550939D01*
X164548740Y-118549273D01*
X164559267Y-118551367D01*
X164559269Y-118551368D01*
X164617752Y-118563001D01*
X164966356Y-118563001D01*
X165278000Y-118563001D01*
X165342069Y-118583818D01*
X165381665Y-118638318D01*
X165387000Y-118672001D01*
X165387000Y-118753001D01*
X165366183Y-118817070D01*
X165311683Y-118856666D01*
X165278000Y-118862001D01*
X164241356Y-118862001D01*
X164152212Y-118885886D01*
X164149595Y-118887398D01*
X164146674Y-118888180D01*
X164145611Y-118888621D01*
X164145553Y-118888481D01*
X164095095Y-118902001D01*
X163760200Y-118902001D01*
X163760200Y-118902002D01*
X163760200Y-119273345D01*
X163756486Y-119301556D01*
X163739900Y-119363457D01*
X163739900Y-119758201D01*
X163719083Y-119822270D01*
X163664583Y-119861866D01*
X163630900Y-119867201D01*
X160160800Y-119867201D01*
X160096731Y-119846384D01*
X160057135Y-119791884D01*
X160051800Y-119758201D01*
X160051800Y-116598001D01*
X160072617Y-116533932D01*
X160127117Y-116494336D01*
X160160800Y-116489001D01*
X162940000Y-116489001D01*
X163004069Y-116509818D01*
G37*
G04 #@! TD.AperFunction*
G04 #@! TA.AperFunction,Conductor*
G36*
X183668039Y-99769685D02*
G01*
X183713794Y-99822489D01*
X183725000Y-99874000D01*
X183725000Y-110398579D01*
X183705315Y-110465618D01*
X183700000Y-110472208D01*
X183700000Y-110474960D01*
X177645446Y-110465440D01*
X177645447Y-110465440D01*
X177622045Y-110465403D01*
X167948805Y-110450194D01*
X167881797Y-110430404D01*
X167836125Y-110377528D01*
X167825000Y-110326194D01*
X167825000Y-105524000D01*
X167844685Y-105456961D01*
X167897489Y-105411206D01*
X167949000Y-105400000D01*
X179675000Y-105400000D01*
X179675000Y-99874000D01*
X179694685Y-99806961D01*
X179747489Y-99761206D01*
X179799000Y-99750000D01*
X183601000Y-99750000D01*
X183668039Y-99769685D01*
G37*
G04 #@! TD.AperFunction*
G04 #@! TA.AperFunction,Conductor*
G36*
X183700000Y-109375000D02*
G01*
X183700000Y-110472208D01*
X183700000Y-118776192D01*
X183680315Y-118843231D01*
X183627511Y-118888986D01*
X183576193Y-118900192D01*
X170516220Y-118920535D01*
X170454027Y-118903922D01*
X170422791Y-118885888D01*
X170422790Y-118885887D01*
X170422789Y-118885887D01*
X170333645Y-118862001D01*
X170333644Y-118862001D01*
X167774000Y-118862001D01*
X167706961Y-118842316D01*
X167661206Y-118789512D01*
X167650000Y-118738001D01*
X167650000Y-118024000D01*
X167669685Y-117956961D01*
X167722489Y-117911206D01*
X167774000Y-117900000D01*
X168800000Y-117900000D01*
X168800000Y-115623649D01*
X168819685Y-115556610D01*
X168872489Y-115510855D01*
X168923645Y-115499649D01*
X177625000Y-115475000D01*
X177645447Y-110465440D01*
X177650000Y-109350000D01*
X183700000Y-109375000D01*
G37*
G04 #@! TD.AperFunction*
G04 #@! TA.AperFunction,Conductor*
G36*
X160968039Y-81019685D02*
G01*
X161013794Y-81072489D01*
X161025000Y-81124000D01*
X161025000Y-95825000D01*
X161650500Y-95825000D01*
X161717539Y-95844685D01*
X161763294Y-95897489D01*
X161774500Y-95949000D01*
X161774500Y-95993064D01*
X161774335Y-95996059D01*
X161774447Y-95999863D01*
X161774500Y-96003502D01*
X161774500Y-97021143D01*
X161795275Y-97098677D01*
X161799500Y-97130770D01*
X161799500Y-97201000D01*
X161779815Y-97268039D01*
X161727011Y-97313794D01*
X161675500Y-97325000D01*
X160300000Y-97325000D01*
X160300000Y-97701000D01*
X160280315Y-97768039D01*
X160227511Y-97813794D01*
X160176000Y-97825000D01*
X159099000Y-97825000D01*
X159031961Y-97805315D01*
X158986206Y-97752511D01*
X158975000Y-97701000D01*
X158975000Y-91625000D01*
X156797363Y-91601330D01*
X156730542Y-91580918D01*
X156685363Y-91527619D01*
X156674711Y-91477629D01*
X156650293Y-81124292D01*
X156669820Y-81057207D01*
X156722516Y-81011327D01*
X156774293Y-81000000D01*
X160901000Y-81000000D01*
X160968039Y-81019685D01*
G37*
G04 #@! TD.AperFunction*
G04 #@! TA.AperFunction,Conductor*
G36*
X161417539Y-99797684D02*
G01*
X161463294Y-99850488D01*
X161474500Y-99901999D01*
X161474500Y-101264071D01*
X161498626Y-101385354D01*
X161498626Y-101385362D01*
X161498628Y-101385362D01*
X161499499Y-101389745D01*
X161548532Y-101508123D01*
X161619726Y-101614673D01*
X161752795Y-101747742D01*
X161786280Y-101809065D01*
X161789113Y-101836013D01*
X161775000Y-104800000D01*
X163126000Y-104800000D01*
X163193039Y-104819685D01*
X163238794Y-104872489D01*
X163250000Y-104924000D01*
X163250000Y-110225320D01*
X163230315Y-110292359D01*
X163177511Y-110338114D01*
X163125322Y-110349318D01*
X158797949Y-110325671D01*
X158731019Y-110305621D01*
X158685553Y-110252567D01*
X158674628Y-110202050D01*
X158650381Y-102176243D01*
X158669863Y-102109146D01*
X158722528Y-102063232D01*
X158776230Y-102051884D01*
X159937807Y-102069221D01*
X160324999Y-102075000D01*
X160324999Y-102074999D01*
X160325000Y-102075000D01*
X160325000Y-99916291D01*
X160344685Y-99849252D01*
X160397489Y-99803497D01*
X160402058Y-99801858D01*
X160401960Y-99801621D01*
X160412189Y-99797383D01*
X160436211Y-99787432D01*
X160483805Y-99779379D01*
X160483805Y-99778000D01*
X160487126Y-99777999D01*
X160487127Y-99778000D01*
X160735885Y-99777999D01*
X160749771Y-99778779D01*
X160784999Y-99782749D01*
X160784999Y-99782748D01*
X160785000Y-99782749D01*
X160820228Y-99778779D01*
X160834114Y-99777999D01*
X161350500Y-99777999D01*
X161417539Y-99797684D01*
G37*
G04 #@! TD.AperFunction*
G04 #@! TA.AperFunction,Conductor*
G36*
X147867539Y-80520185D02*
G01*
X147913294Y-80572989D01*
X147924500Y-80624500D01*
X147924500Y-82804269D01*
X147927353Y-82834699D01*
X147927353Y-82834701D01*
X147971182Y-82959953D01*
X147972207Y-82962882D01*
X148052850Y-83072150D01*
X148162118Y-83152793D01*
X148204845Y-83167744D01*
X148290299Y-83197646D01*
X148320730Y-83200500D01*
X148320734Y-83200500D01*
X148929270Y-83200500D01*
X148959699Y-83197646D01*
X148959701Y-83197646D01*
X149023790Y-83175219D01*
X149087882Y-83152793D01*
X149197150Y-83072150D01*
X149277793Y-82962882D01*
X149306045Y-82882143D01*
X149322646Y-82834701D01*
X149322646Y-82834699D01*
X149325500Y-82804269D01*
X149325500Y-80624500D01*
X149345185Y-80557461D01*
X149397989Y-80511706D01*
X149449500Y-80500500D01*
X152750500Y-80500500D01*
X152817539Y-80520185D01*
X152863294Y-80572989D01*
X152874500Y-80624500D01*
X152874500Y-82804269D01*
X152877353Y-82834699D01*
X152877353Y-82834701D01*
X152921182Y-82959953D01*
X152922207Y-82962882D01*
X153002850Y-83072150D01*
X153112118Y-83152793D01*
X153154845Y-83167744D01*
X153240299Y-83197646D01*
X153270730Y-83200500D01*
X153270734Y-83200500D01*
X153879270Y-83200500D01*
X153909699Y-83197646D01*
X153909701Y-83197646D01*
X153973790Y-83175219D01*
X154037882Y-83152793D01*
X154147150Y-83072150D01*
X154227793Y-82962882D01*
X154256045Y-82882143D01*
X154272646Y-82834701D01*
X154272646Y-82834699D01*
X154275500Y-82804269D01*
X154275500Y-80624500D01*
X154295185Y-80557461D01*
X154347989Y-80511706D01*
X154399500Y-80500500D01*
X184934108Y-80500500D01*
X184997294Y-80500500D01*
X185002702Y-80500617D01*
X185386771Y-80517386D01*
X185397506Y-80518326D01*
X185775971Y-80568152D01*
X185786597Y-80570025D01*
X186159284Y-80652648D01*
X186169710Y-80655442D01*
X186533765Y-80770227D01*
X186543911Y-80773920D01*
X186896578Y-80920000D01*
X186906369Y-80924566D01*
X187179711Y-81066859D01*
X187244942Y-81100816D01*
X187254310Y-81106224D01*
X187576244Y-81311318D01*
X187585105Y-81317523D01*
X187887930Y-81549889D01*
X187896217Y-81556843D01*
X188177635Y-81814715D01*
X188185284Y-81822364D01*
X188443156Y-82103782D01*
X188450110Y-82112069D01*
X188682476Y-82414894D01*
X188688681Y-82423755D01*
X188893775Y-82745689D01*
X188899183Y-82755057D01*
X189075430Y-83093623D01*
X189080002Y-83103427D01*
X189226075Y-83456078D01*
X189229775Y-83466244D01*
X189344554Y-83830278D01*
X189347354Y-83840727D01*
X189429971Y-84213389D01*
X189431849Y-84224042D01*
X189481671Y-84602473D01*
X189482614Y-84613249D01*
X189499382Y-84997297D01*
X189499500Y-85002706D01*
X189499500Y-124997293D01*
X189499382Y-125002702D01*
X189482614Y-125386750D01*
X189481671Y-125397526D01*
X189431849Y-125775957D01*
X189429971Y-125786610D01*
X189347354Y-126159272D01*
X189344554Y-126169721D01*
X189229775Y-126533755D01*
X189226075Y-126543921D01*
X189080002Y-126896572D01*
X189075430Y-126906376D01*
X188899183Y-127244942D01*
X188893775Y-127254310D01*
X188688681Y-127576244D01*
X188682476Y-127585105D01*
X188450110Y-127887930D01*
X188443156Y-127896217D01*
X188185284Y-128177635D01*
X188177635Y-128185284D01*
X187896217Y-128443156D01*
X187887930Y-128450110D01*
X187585105Y-128682476D01*
X187576244Y-128688681D01*
X187254310Y-128893775D01*
X187244942Y-128899183D01*
X186906376Y-129075430D01*
X186896572Y-129080002D01*
X186543921Y-129226075D01*
X186533755Y-129229775D01*
X186169721Y-129344554D01*
X186159272Y-129347354D01*
X185786610Y-129429971D01*
X185775957Y-129431849D01*
X185397526Y-129481671D01*
X185386750Y-129482614D01*
X185002703Y-129499382D01*
X184997294Y-129499500D01*
X145002706Y-129499500D01*
X144997297Y-129499382D01*
X144613249Y-129482614D01*
X144602473Y-129481671D01*
X144224042Y-129431849D01*
X144213389Y-129429971D01*
X143840727Y-129347354D01*
X143830278Y-129344554D01*
X143466244Y-129229775D01*
X143456078Y-129226075D01*
X143103427Y-129080002D01*
X143093623Y-129075430D01*
X142755057Y-128899183D01*
X142745689Y-128893775D01*
X142423755Y-128688681D01*
X142414894Y-128682476D01*
X142112069Y-128450110D01*
X142103782Y-128443156D01*
X141822364Y-128185284D01*
X141814715Y-128177635D01*
X141556843Y-127896217D01*
X141549889Y-127887930D01*
X141317523Y-127585105D01*
X141311318Y-127576244D01*
X141262745Y-127500000D01*
X141994353Y-127500000D01*
X142014834Y-127642456D01*
X142074622Y-127773371D01*
X142074623Y-127773373D01*
X142168872Y-127882143D01*
X142289947Y-127959953D01*
X142289950Y-127959954D01*
X142289949Y-127959954D01*
X142428036Y-128000499D01*
X142428038Y-128000500D01*
X142428039Y-128000500D01*
X142571962Y-128000500D01*
X142571962Y-128000499D01*
X142710053Y-127959953D01*
X142831128Y-127882143D01*
X142925377Y-127773373D01*
X142985165Y-127642457D01*
X143005647Y-127500000D01*
X142985165Y-127357543D01*
X142925377Y-127226627D01*
X142831128Y-127117857D01*
X142710053Y-127040047D01*
X142710051Y-127040046D01*
X142710049Y-127040045D01*
X142710050Y-127040045D01*
X142571963Y-126999500D01*
X142571961Y-126999500D01*
X142428039Y-126999500D01*
X142428036Y-126999500D01*
X142289949Y-127040045D01*
X142168873Y-127117856D01*
X142074623Y-127226626D01*
X142074622Y-127226628D01*
X142014834Y-127357543D01*
X141994353Y-127500000D01*
X141262745Y-127500000D01*
X141171990Y-127357543D01*
X141106223Y-127254309D01*
X141100816Y-127244942D01*
X141064171Y-127174548D01*
X140924566Y-126906369D01*
X140919997Y-126896572D01*
X140773924Y-126543921D01*
X140770224Y-126533755D01*
X140655442Y-126169710D01*
X140652648Y-126159284D01*
X140570025Y-125786597D01*
X140568152Y-125775971D01*
X140518326Y-125397506D01*
X140517386Y-125386771D01*
X140505140Y-125106287D01*
X143649500Y-125106287D01*
X143682754Y-125316243D01*
X143705663Y-125386750D01*
X143748444Y-125518414D01*
X143844951Y-125707820D01*
X143969890Y-125879786D01*
X144120213Y-126030109D01*
X144292179Y-126155048D01*
X144292181Y-126155049D01*
X144292184Y-126155051D01*
X144481588Y-126251557D01*
X144683757Y-126317246D01*
X144893713Y-126350500D01*
X144893714Y-126350500D01*
X145106286Y-126350500D01*
X145106287Y-126350500D01*
X145316243Y-126317246D01*
X145518412Y-126251557D01*
X145707816Y-126155051D01*
X145780162Y-126102489D01*
X145879786Y-126030109D01*
X145879793Y-126030103D01*
X145947609Y-125962287D01*
X146030104Y-125879792D01*
X146030106Y-125879788D01*
X146030109Y-125879786D01*
X146155048Y-125707820D01*
X146155047Y-125707820D01*
X146155051Y-125707816D01*
X146251557Y-125518412D01*
X146317246Y-125316243D01*
X146350500Y-125106287D01*
X146350500Y-124893713D01*
X146317246Y-124683757D01*
X146251557Y-124481588D01*
X146155051Y-124292184D01*
X146155049Y-124292181D01*
X146155048Y-124292179D01*
X146030109Y-124120213D01*
X145879786Y-123969890D01*
X145707820Y-123844951D01*
X145518414Y-123748444D01*
X145518413Y-123748443D01*
X145518412Y-123748443D01*
X145316243Y-123682754D01*
X145316241Y-123682753D01*
X145316240Y-123682753D01*
X145154957Y-123657208D01*
X145106287Y-123649500D01*
X144893713Y-123649500D01*
X144845042Y-123657208D01*
X144683760Y-123682753D01*
X144481585Y-123748444D01*
X144292179Y-123844951D01*
X144120213Y-123969890D01*
X143969890Y-124120213D01*
X143844951Y-124292179D01*
X143748444Y-124481585D01*
X143682753Y-124683760D01*
X143660516Y-124824160D01*
X143649500Y-124893713D01*
X143649500Y-125106287D01*
X140505140Y-125106287D01*
X140500618Y-125002702D01*
X140500500Y-124997293D01*
X140500500Y-109329752D01*
X146219500Y-109329752D01*
X146231131Y-109388229D01*
X146231132Y-109388230D01*
X146275447Y-109454552D01*
X146341769Y-109498867D01*
X146341770Y-109498868D01*
X146400247Y-109510499D01*
X146400250Y-109510500D01*
X146400252Y-109510500D01*
X146595500Y-109510500D01*
X146662539Y-109530185D01*
X146708294Y-109582989D01*
X146719500Y-109634500D01*
X146719500Y-115929887D01*
X146749059Y-116116519D01*
X146807454Y-116296237D01*
X146871417Y-116421770D01*
X146893240Y-116464600D01*
X147004310Y-116617475D01*
X148762907Y-118376071D01*
X148896524Y-118509688D01*
X149049398Y-118620758D01*
X149049400Y-118620759D01*
X149050186Y-118621330D01*
X149092851Y-118676660D01*
X149101300Y-118721648D01*
X149101300Y-126013345D01*
X149105791Y-126030104D01*
X149117206Y-126072708D01*
X149125187Y-126102491D01*
X149171327Y-126182409D01*
X149171329Y-126182412D01*
X149171330Y-126182413D01*
X150124087Y-127135170D01*
X150192294Y-127174549D01*
X150204011Y-127181314D01*
X150293155Y-127205200D01*
X152527261Y-127205200D01*
X152582159Y-127218014D01*
X152636697Y-127244942D01*
X153108842Y-127478063D01*
X153111865Y-127479609D01*
X153122964Y-127485475D01*
X153128901Y-127487968D01*
X153136213Y-127491578D01*
X153194890Y-127510260D01*
X153194891Y-127510260D01*
X153198870Y-127511527D01*
X153202128Y-127512614D01*
X153244452Y-127527425D01*
X153257134Y-127528614D01*
X153274041Y-127530200D01*
X153274045Y-127530200D01*
X153879561Y-127530200D01*
X153909150Y-127527425D01*
X154033776Y-127483816D01*
X154140012Y-127405411D01*
X154218417Y-127299175D01*
X154262026Y-127174549D01*
X154262026Y-127174548D01*
X154262027Y-127174548D01*
X154264801Y-127144960D01*
X154713801Y-127144960D01*
X154716575Y-127174548D01*
X154760185Y-127299176D01*
X154838589Y-127405410D01*
X154838590Y-127405411D01*
X154944824Y-127483815D01*
X154944825Y-127483815D01*
X154944826Y-127483816D01*
X155069452Y-127527425D01*
X155069451Y-127527425D01*
X155099041Y-127530200D01*
X155099045Y-127530200D01*
X155704561Y-127530200D01*
X155734150Y-127527425D01*
X155812525Y-127500000D01*
X186994353Y-127500000D01*
X187014834Y-127642456D01*
X187074622Y-127773371D01*
X187074623Y-127773373D01*
X187168872Y-127882143D01*
X187289947Y-127959953D01*
X187289950Y-127959954D01*
X187289949Y-127959954D01*
X187428036Y-128000499D01*
X187428038Y-128000500D01*
X187428039Y-128000500D01*
X187571962Y-128000500D01*
X187571962Y-128000499D01*
X187710053Y-127959953D01*
X187831128Y-127882143D01*
X187925377Y-127773373D01*
X187985165Y-127642457D01*
X188005647Y-127500000D01*
X187985165Y-127357543D01*
X187925377Y-127226627D01*
X187831128Y-127117857D01*
X187710053Y-127040047D01*
X187710051Y-127040046D01*
X187710049Y-127040045D01*
X187710050Y-127040045D01*
X187571963Y-126999500D01*
X187571961Y-126999500D01*
X187428039Y-126999500D01*
X187428036Y-126999500D01*
X187289949Y-127040045D01*
X187168873Y-127117856D01*
X187074623Y-127226626D01*
X187074622Y-127226628D01*
X187014834Y-127357543D01*
X186994353Y-127500000D01*
X155812525Y-127500000D01*
X155858776Y-127483816D01*
X155965012Y-127405411D01*
X156043417Y-127299175D01*
X156087026Y-127174549D01*
X156087026Y-127174548D01*
X156087027Y-127174548D01*
X156089801Y-127144960D01*
X156089801Y-126564439D01*
X156087027Y-126534860D01*
X156087026Y-126534859D01*
X156087026Y-126534851D01*
X156064319Y-126469962D01*
X156060156Y-126455182D01*
X156055979Y-126435834D01*
X155898590Y-126072708D01*
X155889991Y-126003370D01*
X155904466Y-125962287D01*
X155951189Y-125879790D01*
X156098705Y-125619328D01*
X156106813Y-125606831D01*
X156130916Y-125574175D01*
X156174525Y-125449549D01*
X156177300Y-125419956D01*
X156177300Y-125106287D01*
X183649500Y-125106287D01*
X183682754Y-125316243D01*
X183705663Y-125386750D01*
X183748444Y-125518414D01*
X183844951Y-125707820D01*
X183969890Y-125879786D01*
X184120213Y-126030109D01*
X184292179Y-126155048D01*
X184292181Y-126155049D01*
X184292184Y-126155051D01*
X184481588Y-126251557D01*
X184683757Y-126317246D01*
X184893713Y-126350500D01*
X184893714Y-126350500D01*
X185106286Y-126350500D01*
X185106287Y-126350500D01*
X185316243Y-126317246D01*
X185518412Y-126251557D01*
X185707816Y-126155051D01*
X185780162Y-126102489D01*
X185879786Y-126030109D01*
X185879793Y-126030103D01*
X185947609Y-125962287D01*
X186030104Y-125879792D01*
X186030106Y-125879788D01*
X186030109Y-125879786D01*
X186155048Y-125707820D01*
X186155047Y-125707820D01*
X186155051Y-125707816D01*
X186251557Y-125518412D01*
X186317246Y-125316243D01*
X186350500Y-125106287D01*
X186350500Y-124893713D01*
X186317246Y-124683757D01*
X186251557Y-124481588D01*
X186155051Y-124292184D01*
X186155049Y-124292181D01*
X186155048Y-124292179D01*
X186030109Y-124120213D01*
X185879786Y-123969890D01*
X185707820Y-123844951D01*
X185518414Y-123748444D01*
X185518413Y-123748443D01*
X185518412Y-123748443D01*
X185316243Y-123682754D01*
X185316241Y-123682753D01*
X185316240Y-123682753D01*
X185154957Y-123657208D01*
X185106287Y-123649500D01*
X184893713Y-123649500D01*
X184845042Y-123657208D01*
X184683760Y-123682753D01*
X184481585Y-123748444D01*
X184292179Y-123844951D01*
X184120213Y-123969890D01*
X183969890Y-124120213D01*
X183844951Y-124292179D01*
X183748444Y-124481585D01*
X183682753Y-124683760D01*
X183660516Y-124824160D01*
X183649500Y-124893713D01*
X183649500Y-125106287D01*
X156177300Y-125106287D01*
X156177300Y-124839444D01*
X156174525Y-124809851D01*
X156170784Y-124799161D01*
X156133611Y-124692927D01*
X156130916Y-124685225D01*
X156052511Y-124578989D01*
X156038028Y-124568300D01*
X155997936Y-124538711D01*
X177226300Y-124538711D01*
X177229074Y-124568300D01*
X177272684Y-124692927D01*
X177351088Y-124799161D01*
X177351089Y-124799162D01*
X177457323Y-124877566D01*
X177457324Y-124877566D01*
X177457325Y-124877567D01*
X177581951Y-124921176D01*
X177581950Y-124921176D01*
X177611540Y-124923951D01*
X177611544Y-124923951D01*
X178192060Y-124923951D01*
X178203893Y-124922841D01*
X178221649Y-124921176D01*
X178308869Y-124890655D01*
X178315715Y-124888481D01*
X178333177Y-124883492D01*
X178333729Y-124883208D01*
X178343718Y-124878918D01*
X178351990Y-124874547D01*
X178358768Y-124870341D01*
X178661620Y-124714717D01*
X178730243Y-124701586D01*
X178777727Y-124716181D01*
X179066668Y-124873981D01*
X179080864Y-124883036D01*
X179107325Y-124902566D01*
X179231951Y-124946175D01*
X179231950Y-124946175D01*
X179261540Y-124948950D01*
X179261544Y-124948950D01*
X179842060Y-124948950D01*
X179871649Y-124946175D01*
X179906134Y-124934108D01*
X179996275Y-124902566D01*
X180102511Y-124824161D01*
X180180916Y-124717925D01*
X180224525Y-124593299D01*
X180225867Y-124578988D01*
X180227300Y-124563710D01*
X180227300Y-123883189D01*
X180224525Y-123853600D01*
X180187746Y-123748493D01*
X180180916Y-123728975D01*
X180139412Y-123672739D01*
X180102511Y-123622739D01*
X180102510Y-123622738D01*
X179996276Y-123544334D01*
X179871648Y-123500724D01*
X179871649Y-123500724D01*
X179842060Y-123497950D01*
X179842056Y-123497950D01*
X179261544Y-123497950D01*
X179261540Y-123497950D01*
X179231951Y-123500724D01*
X179107322Y-123544335D01*
X179069285Y-123572407D01*
X179058433Y-123579569D01*
X178770699Y-123748493D01*
X178702920Y-123765458D01*
X178651246Y-123751850D01*
X178358767Y-123601558D01*
X178352013Y-123597369D01*
X178343726Y-123592987D01*
X178333755Y-123588705D01*
X178333180Y-123588409D01*
X178284353Y-123572628D01*
X178281536Y-123571680D01*
X178221648Y-123550725D01*
X178192060Y-123547951D01*
X178192056Y-123547951D01*
X177611544Y-123547951D01*
X177611540Y-123547951D01*
X177581950Y-123550725D01*
X177457323Y-123594335D01*
X177351089Y-123672739D01*
X177351088Y-123672740D01*
X177272684Y-123778974D01*
X177229074Y-123903601D01*
X177226300Y-123933190D01*
X177226300Y-124538711D01*
X155997936Y-124538711D01*
X155946276Y-124500584D01*
X155821648Y-124456974D01*
X155821649Y-124456974D01*
X155792060Y-124454200D01*
X155792056Y-124454200D01*
X155111544Y-124454200D01*
X155111540Y-124454200D01*
X155081950Y-124456974D01*
X154957323Y-124500584D01*
X154851089Y-124578988D01*
X154851088Y-124578989D01*
X154772684Y-124685223D01*
X154729074Y-124809850D01*
X154726300Y-124839439D01*
X154726300Y-125419960D01*
X154729074Y-125449549D01*
X154772683Y-125574173D01*
X154796776Y-125606819D01*
X154804901Y-125619343D01*
X154978284Y-125925479D01*
X154994193Y-125993513D01*
X154977087Y-126049763D01*
X154780969Y-126380994D01*
X154774041Y-126391450D01*
X154760184Y-126410225D01*
X154760182Y-126410229D01*
X154716575Y-126534848D01*
X154716575Y-126534850D01*
X154713801Y-126564439D01*
X154713801Y-127144960D01*
X154264801Y-127144960D01*
X154264801Y-126564439D01*
X154262026Y-126534850D01*
X154218416Y-126410223D01*
X154140012Y-126303989D01*
X154140011Y-126303988D01*
X154033777Y-126225584D01*
X153909149Y-126181974D01*
X153909150Y-126181974D01*
X153879561Y-126179200D01*
X153879557Y-126179200D01*
X153274045Y-126179200D01*
X153274041Y-126179200D01*
X153244453Y-126181974D01*
X153165465Y-126209613D01*
X153156662Y-126212331D01*
X153136217Y-126217819D01*
X153136210Y-126217822D01*
X153128858Y-126221451D01*
X153122942Y-126223936D01*
X153111899Y-126229773D01*
X153108858Y-126231326D01*
X152582159Y-126491385D01*
X152527261Y-126504200D01*
X150535843Y-126504200D01*
X150468804Y-126484515D01*
X150448162Y-126467881D01*
X149838619Y-125858338D01*
X149805134Y-125797015D01*
X149802300Y-125770657D01*
X149802300Y-118918498D01*
X149821985Y-118851459D01*
X149874789Y-118805704D01*
X149926300Y-118794498D01*
X154176520Y-118794498D01*
X156100499Y-118794498D01*
X156167538Y-118814183D01*
X156213293Y-118866987D01*
X156224499Y-118918498D01*
X156224499Y-119019747D01*
X156227997Y-119037338D01*
X156230171Y-119054356D01*
X156230204Y-119054935D01*
X156230204Y-119054937D01*
X156232852Y-119064074D01*
X156235366Y-119074382D01*
X156236131Y-119078231D01*
X156250996Y-119100477D01*
X156257974Y-119112286D01*
X156269607Y-119134719D01*
X156269613Y-119134730D01*
X156797327Y-119794371D01*
X156823835Y-119859017D01*
X156824499Y-119871833D01*
X156824499Y-121026142D01*
X156848385Y-121115286D01*
X156848386Y-121115289D01*
X156894526Y-121195207D01*
X156894528Y-121195210D01*
X156894529Y-121195211D01*
X158729789Y-123030471D01*
X158729791Y-123030472D01*
X158729795Y-123030475D01*
X158768056Y-123052565D01*
X158768060Y-123052566D01*
X158768061Y-123052567D01*
X158802445Y-123072418D01*
X158807440Y-123075303D01*
X158809713Y-123076615D01*
X158898857Y-123100501D01*
X165568343Y-123100501D01*
X165619088Y-123111360D01*
X165790745Y-123188349D01*
X166081657Y-123318825D01*
X166098101Y-123324008D01*
X166117124Y-123331790D01*
X166124696Y-123335648D01*
X166218481Y-123350502D01*
X166831518Y-123350501D01*
X166925304Y-123335648D01*
X167038342Y-123278052D01*
X167128050Y-123188344D01*
X167185646Y-123075306D01*
X167185646Y-123075304D01*
X167185647Y-123075303D01*
X167200499Y-122981526D01*
X167200500Y-122981521D01*
X167200499Y-122518484D01*
X167185646Y-122424698D01*
X167128050Y-122311660D01*
X167128046Y-122311656D01*
X167128045Y-122311654D01*
X167038347Y-122221956D01*
X167038344Y-122221954D01*
X167038342Y-122221952D01*
X166950125Y-122177003D01*
X166925301Y-122164354D01*
X166831524Y-122149502D01*
X166218482Y-122149502D01*
X166124693Y-122164356D01*
X166124692Y-122164357D01*
X166113524Y-122170047D01*
X166084941Y-122180423D01*
X166081669Y-122181172D01*
X166081667Y-122181173D01*
X165619084Y-122388643D01*
X165568340Y-122399501D01*
X159141545Y-122399501D01*
X159074506Y-122379816D01*
X159053864Y-122363182D01*
X157561818Y-120871136D01*
X157528333Y-120809813D01*
X157525499Y-120783455D01*
X157525499Y-119871832D01*
X157545184Y-119804793D01*
X157552664Y-119794379D01*
X157581601Y-119758208D01*
X159846300Y-119758208D01*
X159848829Y-119790340D01*
X159854170Y-119824069D01*
X159854936Y-119828573D01*
X159854937Y-119828578D01*
X159890881Y-119912674D01*
X159930473Y-119967168D01*
X159930477Y-119967173D01*
X159954718Y-119994919D01*
X160033229Y-120041826D01*
X160097298Y-120062643D01*
X160160800Y-120072701D01*
X160160801Y-120072701D01*
X162455025Y-120072701D01*
X162522064Y-120092386D01*
X162567819Y-120145190D01*
X162577763Y-120214348D01*
X162548738Y-120277904D01*
X162527908Y-120297021D01*
X162521776Y-120301475D01*
X162426476Y-120396775D01*
X162426473Y-120396779D01*
X162426472Y-120396781D01*
X162366565Y-120514356D01*
X162365279Y-120516879D01*
X162349500Y-120616507D01*
X162349500Y-121133494D01*
X162365279Y-121233122D01*
X162365280Y-121233125D01*
X162365281Y-121233127D01*
X162425643Y-121351594D01*
X162426473Y-121353222D01*
X162426476Y-121353226D01*
X162521774Y-121448524D01*
X162521778Y-121448527D01*
X162521780Y-121448529D01*
X162641874Y-121509720D01*
X162641876Y-121509720D01*
X162641878Y-121509721D01*
X162741507Y-121525501D01*
X162741512Y-121525501D01*
X163308493Y-121525501D01*
X163408121Y-121509721D01*
X163408121Y-121509720D01*
X163408126Y-121509720D01*
X163528220Y-121448529D01*
X163623528Y-121353221D01*
X163624359Y-121351589D01*
X163647258Y-121320105D01*
X164087667Y-120880666D01*
X164095147Y-120869483D01*
X164110520Y-120850761D01*
X164370870Y-120590413D01*
X164417014Y-120510489D01*
X164422318Y-120490692D01*
X164425381Y-120479265D01*
X164431401Y-120456792D01*
X164440900Y-120421345D01*
X164440900Y-119687001D01*
X164460585Y-119619962D01*
X164513389Y-119574207D01*
X164564900Y-119563001D01*
X165407250Y-119563001D01*
X165407251Y-119563000D01*
X165422068Y-119560053D01*
X165465729Y-119551369D01*
X165465729Y-119551368D01*
X165465731Y-119551368D01*
X165532052Y-119507053D01*
X165576367Y-119440732D01*
X165576367Y-119440730D01*
X165576368Y-119440730D01*
X165587999Y-119382253D01*
X165588000Y-119382251D01*
X165588000Y-119042750D01*
X165576849Y-118986693D01*
X165576849Y-118938309D01*
X165588000Y-118882251D01*
X165588000Y-118791168D01*
X165589527Y-118771769D01*
X165592500Y-118752998D01*
X165592500Y-118672008D01*
X165592499Y-118671993D01*
X165590548Y-118647203D01*
X165589970Y-118639853D01*
X165589525Y-118637046D01*
X165588000Y-118617657D01*
X165588000Y-118542750D01*
X165587999Y-118542748D01*
X165576368Y-118484271D01*
X165576367Y-118484270D01*
X165532052Y-118417948D01*
X165465730Y-118373633D01*
X165465729Y-118373632D01*
X165407252Y-118362001D01*
X165407248Y-118362001D01*
X165316168Y-118362001D01*
X165296770Y-118360474D01*
X165278000Y-118357501D01*
X165277999Y-118357501D01*
X164650206Y-118357501D01*
X164626013Y-118355118D01*
X164588834Y-118347722D01*
X164587338Y-118347595D01*
X164580623Y-118347028D01*
X164566875Y-118345086D01*
X164565699Y-118344852D01*
X164565697Y-118344851D01*
X164565693Y-118344851D01*
X164525597Y-118340901D01*
X164525592Y-118340901D01*
X163378500Y-118340901D01*
X163311461Y-118321216D01*
X163265706Y-118268412D01*
X163254500Y-118216901D01*
X163254500Y-116598008D01*
X163254499Y-116597993D01*
X163251970Y-116565853D01*
X163246635Y-116532170D01*
X163245863Y-116527626D01*
X163209919Y-116443529D01*
X163194110Y-116421770D01*
X163170326Y-116389033D01*
X163170323Y-116389029D01*
X163146082Y-116361283D01*
X163146079Y-116361281D01*
X163067577Y-116314379D01*
X163067571Y-116314376D01*
X163003500Y-116293558D01*
X162951949Y-116285393D01*
X162940000Y-116283501D01*
X160160800Y-116283501D01*
X160160792Y-116283501D01*
X160128660Y-116286030D01*
X160128655Y-116286030D01*
X160128652Y-116286031D01*
X160121653Y-116287139D01*
X160094931Y-116291371D01*
X160090427Y-116292137D01*
X160090422Y-116292138D01*
X160006326Y-116328082D01*
X159951832Y-116367674D01*
X159924083Y-116391918D01*
X159924080Y-116391921D01*
X159877178Y-116470423D01*
X159877175Y-116470429D01*
X159856357Y-116534500D01*
X159846300Y-116598001D01*
X159846300Y-119758208D01*
X157581601Y-119758208D01*
X158080387Y-119134725D01*
X158104043Y-119097609D01*
X158106257Y-119093142D01*
X158106262Y-119093127D01*
X158106733Y-119092076D01*
X158107237Y-119091163D01*
X158107349Y-119090938D01*
X158107359Y-119090942D01*
X158112318Y-119081968D01*
X158114944Y-119075627D01*
X158117055Y-119068515D01*
X158118364Y-119062896D01*
X158118367Y-119062891D01*
X158118715Y-119058372D01*
X158120731Y-119043715D01*
X158125499Y-119019746D01*
X158125499Y-118524451D01*
X158145184Y-118457412D01*
X158149182Y-118451565D01*
X158201756Y-118379203D01*
X158201755Y-118379203D01*
X158201759Y-118379199D01*
X158287546Y-118210832D01*
X158345939Y-118031118D01*
X158363863Y-117917949D01*
X158375499Y-117844486D01*
X158375499Y-117655512D01*
X158345939Y-117468885D01*
X158345939Y-117468882D01*
X158287546Y-117289168D01*
X158201759Y-117120801D01*
X158149180Y-117048431D01*
X158125701Y-116982625D01*
X158125499Y-116975547D01*
X158125499Y-116480249D01*
X158125498Y-116480247D01*
X158113867Y-116421770D01*
X158113866Y-116421769D01*
X158069551Y-116355447D01*
X158003229Y-116311132D01*
X158003228Y-116311131D01*
X157944751Y-116299500D01*
X157944747Y-116299500D01*
X156405251Y-116299500D01*
X156405246Y-116299500D01*
X156346769Y-116311131D01*
X156346768Y-116311132D01*
X156280447Y-116355447D01*
X156278720Y-116357175D01*
X156274022Y-116359740D01*
X156270292Y-116362233D01*
X156270069Y-116361899D01*
X156217399Y-116390663D01*
X156191035Y-116393498D01*
X150227222Y-116393498D01*
X150160183Y-116373813D01*
X150139541Y-116357179D01*
X149156819Y-115374456D01*
X149123334Y-115313133D01*
X149120500Y-115286775D01*
X149120500Y-111521143D01*
X153749500Y-111521143D01*
X153773386Y-111610287D01*
X153773387Y-111610290D01*
X153819527Y-111690208D01*
X153819529Y-111690211D01*
X153819530Y-111690212D01*
X156509788Y-114380470D01*
X156589712Y-114426614D01*
X156678857Y-114450500D01*
X156678859Y-114450500D01*
X156771142Y-114450500D01*
X156771144Y-114450500D01*
X156848678Y-114429724D01*
X156880770Y-114425500D01*
X169271142Y-114425500D01*
X169271144Y-114425500D01*
X169360288Y-114401614D01*
X169440212Y-114355470D01*
X170505470Y-113290212D01*
X170551614Y-113210288D01*
X170575500Y-113121143D01*
X170575500Y-113028856D01*
X170575500Y-110784019D01*
X170595185Y-110716980D01*
X170647989Y-110671225D01*
X170699693Y-110660019D01*
X177314797Y-110670420D01*
X177381804Y-110690210D01*
X177427476Y-110743086D01*
X177438600Y-110794926D01*
X177420836Y-115146933D01*
X177400878Y-115213892D01*
X177347888Y-115259431D01*
X177297188Y-115270427D01*
X168923055Y-115294150D01*
X168879666Y-115298909D01*
X168828500Y-115310117D01*
X168818634Y-115312536D01*
X168818624Y-115312540D01*
X168737919Y-115355546D01*
X168737913Y-115355550D01*
X168685104Y-115401309D01*
X168667160Y-115418891D01*
X168667154Y-115418898D01*
X168622511Y-115498708D01*
X168622509Y-115498713D01*
X168602826Y-115565745D01*
X168594500Y-115623652D01*
X168594500Y-117570500D01*
X168574815Y-117637539D01*
X168522011Y-117683294D01*
X168470500Y-117694500D01*
X167773992Y-117694500D01*
X167730313Y-117699197D01*
X167678825Y-117710397D01*
X167668627Y-117712890D01*
X167668624Y-117712891D01*
X167587916Y-117755899D01*
X167587913Y-117755901D01*
X167535104Y-117801660D01*
X167517158Y-117819243D01*
X167516022Y-117821275D01*
X167514361Y-117822901D01*
X167511774Y-117826286D01*
X167511286Y-117825913D01*
X167466111Y-117870170D01*
X167460458Y-117872839D01*
X167392947Y-117917948D01*
X167348632Y-117984270D01*
X167348631Y-117984271D01*
X167337000Y-118042748D01*
X167337000Y-118382248D01*
X167348151Y-118438311D01*
X167348151Y-118486691D01*
X167343577Y-118509688D01*
X167337000Y-118542753D01*
X167337000Y-118882249D01*
X167340511Y-118899900D01*
X167348151Y-118938311D01*
X167348151Y-118986691D01*
X167337000Y-119042753D01*
X167337000Y-119382249D01*
X167337001Y-119382253D01*
X167348151Y-119438311D01*
X167348151Y-119486691D01*
X167337000Y-119542753D01*
X167337000Y-119882253D01*
X167348631Y-119940730D01*
X167348632Y-119940731D01*
X167392947Y-120007053D01*
X167459269Y-120051368D01*
X167459270Y-120051369D01*
X167517747Y-120063000D01*
X167517750Y-120063001D01*
X167517752Y-120063001D01*
X167550500Y-120063001D01*
X167617539Y-120082686D01*
X167663294Y-120135490D01*
X167674500Y-120187001D01*
X167674500Y-120205269D01*
X167658759Y-120265734D01*
X167506752Y-120537891D01*
X167456876Y-120586822D01*
X167449237Y-120590568D01*
X167325743Y-120645955D01*
X167256519Y-120655428D01*
X167224255Y-120645955D01*
X166968337Y-120531175D01*
X166951900Y-120525995D01*
X166932880Y-120518215D01*
X166925307Y-120514356D01*
X166925302Y-120514355D01*
X166831524Y-120499502D01*
X166218482Y-120499502D01*
X166137519Y-120512325D01*
X166124696Y-120514356D01*
X166011658Y-120571952D01*
X166011657Y-120571953D01*
X166011652Y-120571956D01*
X165921954Y-120661654D01*
X165921951Y-120661659D01*
X165864352Y-120774700D01*
X165849500Y-120868477D01*
X165849500Y-121331519D01*
X165854235Y-121361412D01*
X165864354Y-121425306D01*
X165921950Y-121538344D01*
X165921952Y-121538346D01*
X165921954Y-121538349D01*
X166011652Y-121628047D01*
X166011654Y-121628048D01*
X166011658Y-121628052D01*
X166124694Y-121685647D01*
X166124698Y-121685649D01*
X166218475Y-121700501D01*
X166218481Y-121700502D01*
X166831518Y-121700501D01*
X166925304Y-121685648D01*
X166936473Y-121679956D01*
X166965079Y-121669572D01*
X166968342Y-121668825D01*
X166968343Y-121668824D01*
X166968345Y-121668824D01*
X167070626Y-121622949D01*
X167224255Y-121554045D01*
X167293478Y-121544572D01*
X167325741Y-121554045D01*
X167581657Y-121668825D01*
X167594897Y-121672998D01*
X167598101Y-121674008D01*
X167617124Y-121681790D01*
X167624696Y-121685648D01*
X167718481Y-121700502D01*
X168331518Y-121700501D01*
X168425304Y-121685648D01*
X168538342Y-121628052D01*
X168628050Y-121538344D01*
X168685646Y-121425306D01*
X168685646Y-121425304D01*
X168685647Y-121425303D01*
X168700499Y-121331526D01*
X168700500Y-121331521D01*
X168700499Y-120868484D01*
X168685646Y-120774698D01*
X168628050Y-120661660D01*
X168604722Y-120638332D01*
X168584147Y-120611119D01*
X168572582Y-120590413D01*
X168398039Y-120277904D01*
X168391241Y-120265733D01*
X168375500Y-120205268D01*
X168375500Y-120111118D01*
X168395185Y-120044079D01*
X168430611Y-120008015D01*
X168432052Y-120007053D01*
X168476367Y-119940732D01*
X168476367Y-119940730D01*
X168476368Y-119940730D01*
X168487999Y-119882253D01*
X168488000Y-119882251D01*
X168488000Y-119687001D01*
X168507685Y-119619962D01*
X168560489Y-119574207D01*
X168612000Y-119563001D01*
X168853120Y-119563001D01*
X168920159Y-119582686D01*
X168965914Y-119635490D01*
X168976579Y-119698576D01*
X168974502Y-119720731D01*
X168974501Y-119720739D01*
X168974501Y-120479269D01*
X168977354Y-120509700D01*
X168977354Y-120509702D01*
X169022207Y-120637881D01*
X169022208Y-120637883D01*
X169102851Y-120747151D01*
X169212119Y-120827794D01*
X169232190Y-120834817D01*
X169340300Y-120872647D01*
X169370731Y-120875501D01*
X169370735Y-120875501D01*
X171679271Y-120875501D01*
X171709700Y-120872647D01*
X171709702Y-120872647D01*
X171773791Y-120850220D01*
X171837883Y-120827794D01*
X171947151Y-120747151D01*
X172027794Y-120637883D01*
X172065133Y-120531175D01*
X172072647Y-120509702D01*
X172072647Y-120509700D01*
X172075501Y-120479269D01*
X172075501Y-119720731D01*
X172072647Y-119690301D01*
X172072647Y-119690299D01*
X172032024Y-119574207D01*
X172027794Y-119562119D01*
X171947151Y-119452851D01*
X171837883Y-119372208D01*
X171817239Y-119364984D01*
X171760465Y-119324262D01*
X171734719Y-119259309D01*
X171748176Y-119190747D01*
X171796565Y-119140345D01*
X171858001Y-119123944D01*
X177427108Y-119115270D01*
X177494177Y-119134850D01*
X177540014Y-119187583D01*
X177551300Y-119239270D01*
X177551300Y-121361412D01*
X177538485Y-121416310D01*
X177278432Y-121942996D01*
X177276882Y-121946031D01*
X177271031Y-121957103D01*
X177268544Y-121963022D01*
X177264924Y-121970355D01*
X177264918Y-121970370D01*
X177245023Y-122032871D01*
X177243907Y-122036212D01*
X177229074Y-122078601D01*
X177229074Y-122078602D01*
X177226300Y-122108190D01*
X177226300Y-122713711D01*
X177229074Y-122743300D01*
X177272684Y-122867927D01*
X177351088Y-122974161D01*
X177351089Y-122974162D01*
X177457323Y-123052566D01*
X177457324Y-123052566D01*
X177457325Y-123052567D01*
X177581951Y-123096176D01*
X177581950Y-123096176D01*
X177611540Y-123098951D01*
X177611544Y-123098951D01*
X178192060Y-123098951D01*
X178221649Y-123096176D01*
X178346275Y-123052567D01*
X178452511Y-122974162D01*
X178530916Y-122867926D01*
X178574525Y-122743300D01*
X178577300Y-122713707D01*
X178577300Y-122108195D01*
X178574525Y-122078602D01*
X178546884Y-121999611D01*
X178544164Y-121990801D01*
X178538678Y-121970365D01*
X178538678Y-121970363D01*
X178538677Y-121970360D01*
X178535073Y-121963060D01*
X178532578Y-121957119D01*
X178526709Y-121946015D01*
X178525153Y-121942972D01*
X178398099Y-121685647D01*
X178325369Y-121538344D01*
X178265114Y-121416308D01*
X178252300Y-121361410D01*
X178252300Y-119237792D01*
X178271985Y-119170753D01*
X178324789Y-119124998D01*
X178376106Y-119113792D01*
X183576513Y-119105692D01*
X183620034Y-119100961D01*
X183671352Y-119089755D01*
X183681373Y-119087302D01*
X183762085Y-119044292D01*
X183814889Y-118998537D01*
X183832843Y-118980946D01*
X183877490Y-118901129D01*
X183897175Y-118834090D01*
X183905500Y-118776192D01*
X183905500Y-110531095D01*
X183910523Y-110496158D01*
X183922175Y-110456477D01*
X183930500Y-110398579D01*
X183930500Y-99874000D01*
X183925803Y-99830316D01*
X183919559Y-99801612D01*
X183914602Y-99778825D01*
X183913392Y-99773875D01*
X183912110Y-99768627D01*
X183869100Y-99687915D01*
X183823345Y-99635111D01*
X183823339Y-99635104D01*
X183805757Y-99617160D01*
X183805756Y-99617159D01*
X183805754Y-99617157D01*
X183805752Y-99617156D01*
X183805750Y-99617154D01*
X183725940Y-99572511D01*
X183725935Y-99572509D01*
X183658903Y-99552826D01*
X183658899Y-99552825D01*
X183658898Y-99552825D01*
X183601000Y-99544500D01*
X179799000Y-99544500D01*
X179798992Y-99544500D01*
X179755313Y-99549197D01*
X179703825Y-99560397D01*
X179693627Y-99562890D01*
X179693624Y-99562891D01*
X179612916Y-99605899D01*
X179612913Y-99605901D01*
X179560104Y-99651660D01*
X179542160Y-99669242D01*
X179542154Y-99669249D01*
X179497511Y-99749059D01*
X179497509Y-99749064D01*
X179477826Y-99816096D01*
X179477825Y-99816101D01*
X179477825Y-99816102D01*
X179469502Y-99873992D01*
X179469500Y-99874003D01*
X179469500Y-105070500D01*
X179449815Y-105137539D01*
X179397011Y-105183294D01*
X179345500Y-105194500D01*
X177549500Y-105194500D01*
X177482461Y-105174815D01*
X177436706Y-105122011D01*
X177425500Y-105070500D01*
X177425500Y-99603858D01*
X177425500Y-99603856D01*
X177401614Y-99514712D01*
X177392436Y-99498815D01*
X177387468Y-99490209D01*
X177387468Y-99490210D01*
X177355470Y-99434788D01*
X175440212Y-97519530D01*
X175440211Y-97519529D01*
X175440208Y-97519527D01*
X175360286Y-97473385D01*
X175360284Y-97473384D01*
X175344294Y-97469100D01*
X175344293Y-97469099D01*
X175344293Y-97469100D01*
X175307718Y-97459300D01*
X175271144Y-97449500D01*
X175271143Y-97449500D01*
X168426044Y-97449500D01*
X168379917Y-97440601D01*
X167910504Y-97252484D01*
X167910492Y-97252480D01*
X167910491Y-97252480D01*
X167907271Y-97251571D01*
X167901122Y-97249837D01*
X167878501Y-97240983D01*
X167875301Y-97239352D01*
X167781524Y-97224500D01*
X167168482Y-97224500D01*
X167087519Y-97237323D01*
X167074696Y-97239354D01*
X166961658Y-97296950D01*
X166961657Y-97296951D01*
X166961652Y-97296954D01*
X166871954Y-97386652D01*
X166871951Y-97386657D01*
X166814352Y-97499698D01*
X166799500Y-97593475D01*
X166799500Y-98056517D01*
X166806245Y-98099101D01*
X166814354Y-98150304D01*
X166871950Y-98263342D01*
X166871952Y-98263344D01*
X166871954Y-98263347D01*
X166961652Y-98353045D01*
X166961654Y-98353046D01*
X166961658Y-98353050D01*
X167059125Y-98402712D01*
X167074698Y-98410647D01*
X167168475Y-98425499D01*
X167168481Y-98425500D01*
X167781518Y-98425499D01*
X167875304Y-98410646D01*
X167893325Y-98401463D01*
X167917232Y-98392252D01*
X167925772Y-98389942D01*
X168382217Y-98163424D01*
X168437339Y-98150500D01*
X175028456Y-98150500D01*
X175095495Y-98170185D01*
X175116137Y-98186819D01*
X176688181Y-99758863D01*
X176721666Y-99820186D01*
X176724500Y-99846544D01*
X176724500Y-105070500D01*
X176704815Y-105137539D01*
X176652011Y-105183294D01*
X176600500Y-105194500D01*
X170699500Y-105194500D01*
X170632461Y-105174815D01*
X170586706Y-105122011D01*
X170575500Y-105070500D01*
X170575500Y-102753858D01*
X170575500Y-102753856D01*
X170551614Y-102664712D01*
X170505470Y-102584788D01*
X169115212Y-101194530D01*
X169115211Y-101194529D01*
X169115208Y-101194527D01*
X169035290Y-101148387D01*
X169035289Y-101148386D01*
X169035288Y-101148386D01*
X168946144Y-101124500D01*
X168946143Y-101124500D01*
X165594734Y-101124500D01*
X165534269Y-101108759D01*
X165188881Y-100915851D01*
X165161667Y-100895275D01*
X165138342Y-100871950D01*
X165061517Y-100832805D01*
X165025301Y-100814352D01*
X164931524Y-100799500D01*
X164468482Y-100799500D01*
X164387519Y-100812323D01*
X164374696Y-100814354D01*
X164261658Y-100871950D01*
X164261657Y-100871951D01*
X164261652Y-100871954D01*
X164171954Y-100961652D01*
X164171951Y-100961657D01*
X164114352Y-101074698D01*
X164099500Y-101168475D01*
X164099500Y-101781517D01*
X164108959Y-101841241D01*
X164114354Y-101875304D01*
X164171950Y-101988342D01*
X164171952Y-101988344D01*
X164171954Y-101988347D01*
X164261652Y-102078045D01*
X164261654Y-102078046D01*
X164261658Y-102078050D01*
X164374694Y-102135645D01*
X164374698Y-102135647D01*
X164468475Y-102150499D01*
X164468481Y-102150500D01*
X164931518Y-102150499D01*
X165025304Y-102135646D01*
X165138342Y-102078050D01*
X165161667Y-102054723D01*
X165188882Y-102034145D01*
X165534267Y-101841241D01*
X165594732Y-101825500D01*
X168703456Y-101825500D01*
X168770495Y-101845185D01*
X168791137Y-101861819D01*
X169838181Y-102908863D01*
X169871666Y-102970186D01*
X169874500Y-102996544D01*
X169874500Y-105070500D01*
X169854815Y-105137539D01*
X169802011Y-105183294D01*
X169750500Y-105194500D01*
X167948992Y-105194500D01*
X167905313Y-105199197D01*
X167853825Y-105210397D01*
X167843627Y-105212890D01*
X167843624Y-105212891D01*
X167762916Y-105255899D01*
X167762913Y-105255901D01*
X167710104Y-105301660D01*
X167692160Y-105319242D01*
X167692154Y-105319249D01*
X167647511Y-105399059D01*
X167647509Y-105399064D01*
X167627826Y-105466096D01*
X167627825Y-105466101D01*
X167627825Y-105466102D01*
X167619500Y-105524000D01*
X167619500Y-110326194D01*
X167623058Y-110359412D01*
X167624163Y-110369724D01*
X167624164Y-110369728D01*
X167635290Y-110421070D01*
X167637723Y-110431071D01*
X167637728Y-110431086D01*
X167680606Y-110511857D01*
X167726274Y-110564729D01*
X167726288Y-110564744D01*
X167743844Y-110582717D01*
X167743846Y-110582719D01*
X167823587Y-110627486D01*
X167823593Y-110627489D01*
X167847533Y-110634559D01*
X167890599Y-110647278D01*
X167948482Y-110655694D01*
X169750696Y-110658527D01*
X169817703Y-110678317D01*
X169863375Y-110731193D01*
X169874500Y-110782527D01*
X169874500Y-112878456D01*
X169854815Y-112945495D01*
X169838181Y-112966137D01*
X169116137Y-113688181D01*
X169054814Y-113721666D01*
X169028456Y-113724500D01*
X156896544Y-113724500D01*
X156829505Y-113704815D01*
X156808863Y-113688181D01*
X154486819Y-111366137D01*
X154453334Y-111304814D01*
X154450500Y-111278456D01*
X154450500Y-102177775D01*
X158144882Y-102177775D01*
X158169129Y-110203561D01*
X158169129Y-110203570D01*
X158169130Y-110203577D01*
X158171488Y-110225320D01*
X158180549Y-110308900D01*
X158191473Y-110359412D01*
X158191475Y-110359418D01*
X158224593Y-110460042D01*
X158224594Y-110460043D01*
X158224594Y-110460044D01*
X158301713Y-110581501D01*
X158347170Y-110634545D01*
X158347184Y-110634561D01*
X158347189Y-110634565D01*
X158455407Y-110729376D01*
X158585957Y-110789860D01*
X158652887Y-110809910D01*
X158795187Y-110831163D01*
X159516415Y-110835104D01*
X163122555Y-110854810D01*
X163122555Y-110854809D01*
X163122560Y-110854810D01*
X163231426Y-110843557D01*
X163283615Y-110832353D01*
X163387504Y-110797933D01*
X163400071Y-110789857D01*
X163508537Y-110720149D01*
X163508537Y-110720148D01*
X163508543Y-110720145D01*
X163561347Y-110674390D01*
X163655567Y-110565656D01*
X163715338Y-110434779D01*
X163735023Y-110367740D01*
X163735024Y-110367736D01*
X163755500Y-110225320D01*
X163755500Y-104924000D01*
X163743947Y-104816544D01*
X163732741Y-104765033D01*
X163732637Y-104764722D01*
X163698616Y-104662502D01*
X163698613Y-104662496D01*
X163620828Y-104541462D01*
X163620825Y-104541457D01*
X163620820Y-104541451D01*
X163575076Y-104488659D01*
X163575072Y-104488656D01*
X163575070Y-104488653D01*
X163466336Y-104394433D01*
X163466333Y-104394431D01*
X163466331Y-104394430D01*
X163335465Y-104334664D01*
X163335460Y-104334662D01*
X163335459Y-104334662D01*
X163268420Y-104314977D01*
X163268422Y-104314977D01*
X163268417Y-104314976D01*
X163220944Y-104308150D01*
X163126000Y-104294500D01*
X163125998Y-104294500D01*
X162407504Y-104294500D01*
X162340465Y-104274815D01*
X162294710Y-104222011D01*
X162283505Y-104169910D01*
X162293575Y-102055051D01*
X162313579Y-101988108D01*
X162366600Y-101942605D01*
X162435805Y-101932991D01*
X162499222Y-101962318D01*
X162517891Y-101982757D01*
X162521948Y-101988341D01*
X162611652Y-102078045D01*
X162611654Y-102078046D01*
X162611658Y-102078050D01*
X162724694Y-102135645D01*
X162724698Y-102135647D01*
X162818475Y-102150499D01*
X162818481Y-102150500D01*
X163281518Y-102150499D01*
X163375304Y-102135646D01*
X163488342Y-102078050D01*
X163578050Y-101988342D01*
X163635646Y-101875304D01*
X163635646Y-101875302D01*
X163635647Y-101875301D01*
X163650499Y-101781524D01*
X163650500Y-101781519D01*
X163650499Y-101168482D01*
X163635646Y-101074696D01*
X163578050Y-100961658D01*
X163578046Y-100961654D01*
X163578045Y-100961652D01*
X163488347Y-100871954D01*
X163488344Y-100871952D01*
X163488342Y-100871950D01*
X163411517Y-100832805D01*
X163375301Y-100814352D01*
X163281524Y-100799500D01*
X162818482Y-100799500D01*
X162724695Y-100814354D01*
X162655794Y-100849461D01*
X162587125Y-100862357D01*
X162522385Y-100836080D01*
X162482128Y-100778973D01*
X162475500Y-100738976D01*
X162475500Y-99853858D01*
X162475500Y-99853856D01*
X162454724Y-99776318D01*
X162450499Y-99744225D01*
X162450499Y-99636999D01*
X162470184Y-99569960D01*
X162522988Y-99524205D01*
X162574496Y-99512999D01*
X162681725Y-99512999D01*
X162713818Y-99517224D01*
X162726189Y-99520538D01*
X162791356Y-99538000D01*
X163287775Y-99538000D01*
X163354814Y-99557685D01*
X163375456Y-99574318D01*
X163436243Y-99635104D01*
X163491351Y-99690212D01*
X163556608Y-99755469D01*
X163556611Y-99755470D01*
X163556614Y-99755473D01*
X163636526Y-99801611D01*
X163636527Y-99801611D01*
X163636532Y-99801614D01*
X163725676Y-99825500D01*
X164968342Y-99825500D01*
X165019086Y-99836358D01*
X165481659Y-100043824D01*
X165498101Y-100049006D01*
X165517124Y-100056788D01*
X165524696Y-100060646D01*
X165618481Y-100075500D01*
X166231518Y-100075499D01*
X166325304Y-100060646D01*
X166438342Y-100003050D01*
X166528050Y-99913342D01*
X166528050Y-99913340D01*
X166533464Y-99907927D01*
X166594787Y-99874441D01*
X166664478Y-99879425D01*
X166671891Y-99882466D01*
X166891864Y-99981125D01*
X167031657Y-100043823D01*
X167048101Y-100049006D01*
X167067124Y-100056788D01*
X167074696Y-100060646D01*
X167168481Y-100075500D01*
X167220962Y-100075499D01*
X167276838Y-100088801D01*
X167897754Y-100402223D01*
X167929557Y-100425239D01*
X167934788Y-100430470D01*
X167934789Y-100430471D01*
X167934791Y-100430472D01*
X167974750Y-100453542D01*
X168014712Y-100476614D01*
X168103856Y-100500500D01*
X168375689Y-100500500D01*
X168420316Y-100508808D01*
X169174066Y-100799568D01*
X169174079Y-100799570D01*
X169174846Y-100799786D01*
X169199022Y-100809394D01*
X169199775Y-100809790D01*
X169364944Y-100850500D01*
X169535056Y-100850500D01*
X169700225Y-100809790D01*
X169779692Y-100768081D01*
X169850849Y-100730736D01*
X169850850Y-100730734D01*
X169850852Y-100730734D01*
X169978183Y-100617929D01*
X170074818Y-100477930D01*
X170135140Y-100318872D01*
X170155645Y-100150000D01*
X170135140Y-99981128D01*
X170074818Y-99822070D01*
X170070694Y-99816096D01*
X170024425Y-99749064D01*
X169978183Y-99682071D01*
X169858407Y-99575959D01*
X169850849Y-99569263D01*
X169700226Y-99490210D01*
X169535056Y-99449500D01*
X169364944Y-99449500D01*
X169199774Y-99490210D01*
X169199005Y-99490614D01*
X169179746Y-99498231D01*
X169179750Y-99498239D01*
X169178828Y-99498594D01*
X169174471Y-99500318D01*
X169174079Y-99500426D01*
X168475967Y-99769723D01*
X168406335Y-99775485D01*
X168344642Y-99742686D01*
X168318119Y-99704601D01*
X168310665Y-99687913D01*
X168260662Y-99575959D01*
X168161279Y-99353446D01*
X168150499Y-99302877D01*
X168150499Y-99243482D01*
X168148370Y-99230039D01*
X168135646Y-99149696D01*
X168078050Y-99036658D01*
X168078048Y-99036656D01*
X168078045Y-99036652D01*
X167988347Y-98946954D01*
X167988344Y-98946952D01*
X167988342Y-98946950D01*
X167900125Y-98902001D01*
X167875301Y-98889352D01*
X167781524Y-98874500D01*
X167168482Y-98874500D01*
X167074693Y-98889354D01*
X167074692Y-98889355D01*
X167063524Y-98895045D01*
X167034941Y-98905421D01*
X167031669Y-98906170D01*
X167031667Y-98906171D01*
X167031658Y-98906174D01*
X167031658Y-98906175D01*
X166716445Y-99047550D01*
X166671890Y-99067533D01*
X166602666Y-99077006D01*
X166539309Y-99047550D01*
X166533465Y-99042072D01*
X166438347Y-98946954D01*
X166438344Y-98946952D01*
X166438342Y-98946950D01*
X166350125Y-98902001D01*
X166325301Y-98889352D01*
X166231524Y-98874500D01*
X165618482Y-98874500D01*
X165524693Y-98889354D01*
X165524692Y-98889355D01*
X165513524Y-98895045D01*
X165484941Y-98905421D01*
X165481669Y-98906170D01*
X165481662Y-98906173D01*
X165479749Y-98907031D01*
X165038766Y-99104815D01*
X165019087Y-99113641D01*
X164968342Y-99124500D01*
X163968363Y-99124500D01*
X163901324Y-99104815D01*
X163880682Y-99088181D01*
X163802292Y-99009791D01*
X163699532Y-98907030D01*
X163619608Y-98860886D01*
X163530464Y-98837000D01*
X162791356Y-98837000D01*
X162713822Y-98857775D01*
X162681730Y-98862000D01*
X162461601Y-98862000D01*
X162384881Y-98877260D01*
X162384879Y-98877261D01*
X162297888Y-98935388D01*
X162239760Y-99022383D01*
X162239758Y-99022387D01*
X162224500Y-99099095D01*
X162224500Y-99163000D01*
X162204815Y-99230039D01*
X162152011Y-99275794D01*
X162100502Y-99287000D01*
X162036601Y-99287000D01*
X161959880Y-99302260D01*
X161943889Y-99312946D01*
X161877212Y-99333823D01*
X161809832Y-99315337D01*
X161806111Y-99312946D01*
X161790117Y-99302259D01*
X161713403Y-99287000D01*
X161536600Y-99287000D01*
X161536599Y-99287001D01*
X161521654Y-99289973D01*
X161479824Y-99291092D01*
X161350501Y-99272499D01*
X161350500Y-99272499D01*
X160834114Y-99272499D01*
X160834112Y-99272499D01*
X160824664Y-99272764D01*
X160805764Y-99273295D01*
X160791949Y-99274071D01*
X160778050Y-99274071D01*
X160764235Y-99273295D01*
X160745333Y-99272764D01*
X160735886Y-99272499D01*
X160483803Y-99272499D01*
X160483797Y-99272500D01*
X160440827Y-99275573D01*
X160436669Y-99274668D01*
X160430249Y-99275755D01*
X160418409Y-99277177D01*
X160411868Y-99277644D01*
X160411853Y-99277647D01*
X160409054Y-99278469D01*
X160394829Y-99281748D01*
X160351878Y-99289016D01*
X160242747Y-99320417D01*
X160208506Y-99334602D01*
X160208480Y-99334614D01*
X160207125Y-99335292D01*
X160198414Y-99339235D01*
X160191908Y-99341882D01*
X160187493Y-99343679D01*
X160187488Y-99343682D01*
X160183030Y-99346547D01*
X160171479Y-99353122D01*
X160144285Y-99366725D01*
X160120312Y-99386019D01*
X160109612Y-99393729D01*
X160066466Y-99421459D01*
X160066444Y-99421475D01*
X160013659Y-99467214D01*
X159919433Y-99575955D01*
X159919430Y-99575959D01*
X159859664Y-99706825D01*
X159839976Y-99773873D01*
X159819500Y-99916292D01*
X159819500Y-101436033D01*
X159799815Y-101503072D01*
X159747011Y-101548827D01*
X159693650Y-101560019D01*
X158783777Y-101546439D01*
X158671727Y-101557305D01*
X158671711Y-101557307D01*
X158618021Y-101568652D01*
X158511142Y-101604051D01*
X158390350Y-101682196D01*
X158337676Y-101728117D01*
X158337675Y-101728118D01*
X158243789Y-101837134D01*
X158243787Y-101837137D01*
X158184414Y-101968185D01*
X158184409Y-101968200D01*
X158165606Y-102032957D01*
X158165085Y-102034628D01*
X158164930Y-102035288D01*
X158164930Y-102035290D01*
X158164929Y-102035293D01*
X158158913Y-102078050D01*
X158144882Y-102177775D01*
X154450500Y-102177775D01*
X154450500Y-99421544D01*
X154470185Y-99354505D01*
X154486819Y-99333863D01*
X155458863Y-98361819D01*
X155520186Y-98328334D01*
X155546544Y-98325500D01*
X157428455Y-98325500D01*
X157495494Y-98345185D01*
X157516135Y-98361818D01*
X157557016Y-98402698D01*
X157557031Y-98402712D01*
X157622288Y-98467969D01*
X157622291Y-98467970D01*
X157622294Y-98467973D01*
X157702206Y-98514111D01*
X157702207Y-98514111D01*
X157702212Y-98514114D01*
X157791356Y-98538000D01*
X157791358Y-98538000D01*
X159958642Y-98538000D01*
X159958644Y-98538000D01*
X160036182Y-98517223D01*
X160068273Y-98512999D01*
X160288398Y-98512999D01*
X160288400Y-98512999D01*
X160365117Y-98497740D01*
X160452112Y-98439612D01*
X160510240Y-98352617D01*
X160525500Y-98275901D01*
X160525499Y-98099100D01*
X160510240Y-98022383D01*
X160510239Y-98022381D01*
X160510238Y-98022378D01*
X160499555Y-98006391D01*
X160478676Y-97939714D01*
X160497160Y-97872333D01*
X160499517Y-97868664D01*
X160510240Y-97852617D01*
X160525500Y-97775901D01*
X160525499Y-97711998D01*
X160545183Y-97644961D01*
X160597986Y-97599205D01*
X160649497Y-97587999D01*
X160713400Y-97587999D01*
X160790117Y-97572740D01*
X160806108Y-97562054D01*
X160872785Y-97541176D01*
X160940166Y-97559660D01*
X160943869Y-97562040D01*
X160959880Y-97572738D01*
X160959883Y-97572740D01*
X160959887Y-97572741D01*
X160998241Y-97580370D01*
X161036599Y-97588000D01*
X161213400Y-97587999D01*
X161290117Y-97572740D01*
X161306108Y-97562054D01*
X161372785Y-97541176D01*
X161440166Y-97559660D01*
X161443869Y-97562040D01*
X161459880Y-97572738D01*
X161459883Y-97572740D01*
X161459887Y-97572741D01*
X161498241Y-97580370D01*
X161536599Y-97588000D01*
X161713400Y-97587999D01*
X161790117Y-97572740D01*
X161806107Y-97562055D01*
X161872783Y-97541176D01*
X161940164Y-97559659D01*
X161943871Y-97562041D01*
X161959880Y-97572738D01*
X161959883Y-97572740D01*
X161959887Y-97572741D01*
X161998241Y-97580370D01*
X162036599Y-97588000D01*
X162213400Y-97587999D01*
X162290117Y-97572740D01*
X162377112Y-97514612D01*
X162435240Y-97427617D01*
X162450500Y-97350901D01*
X162450499Y-97130773D01*
X162454724Y-97098680D01*
X162475500Y-97021144D01*
X162475500Y-96241483D01*
X162495185Y-96174444D01*
X162547989Y-96128689D01*
X162549957Y-96127810D01*
X162990812Y-95935670D01*
X163030634Y-95925725D01*
X163033491Y-95925500D01*
X163133121Y-95909720D01*
X163133121Y-95909719D01*
X163133126Y-95909719D01*
X163253220Y-95848528D01*
X163348528Y-95753220D01*
X163409719Y-95633126D01*
X163409720Y-95633121D01*
X163425500Y-95533493D01*
X163425500Y-95016506D01*
X163409720Y-94916878D01*
X163409719Y-94916876D01*
X163409719Y-94916874D01*
X163348528Y-94796780D01*
X163348526Y-94796778D01*
X163348523Y-94796774D01*
X163253225Y-94701476D01*
X163253221Y-94701473D01*
X163253220Y-94701472D01*
X163133126Y-94640281D01*
X163133124Y-94640280D01*
X163133121Y-94640279D01*
X163033493Y-94624500D01*
X163033488Y-94624500D01*
X162466512Y-94624500D01*
X162466507Y-94624500D01*
X162366878Y-94640279D01*
X162246778Y-94701473D01*
X162246774Y-94701476D01*
X162151476Y-94796774D01*
X162151473Y-94796778D01*
X162090279Y-94916878D01*
X162074500Y-95016506D01*
X162074500Y-95071784D01*
X162067902Y-95111694D01*
X161914008Y-95564400D01*
X161873794Y-95621537D01*
X161809073Y-95647862D01*
X161761671Y-95643467D01*
X161708407Y-95627827D01*
X161708402Y-95627826D01*
X161708398Y-95627825D01*
X161650500Y-95619500D01*
X161650496Y-95619500D01*
X161354500Y-95619500D01*
X161287461Y-95599815D01*
X161241706Y-95547011D01*
X161230500Y-95495500D01*
X161230500Y-92490751D01*
X161234118Y-92467911D01*
X161233193Y-92467765D01*
X161250500Y-92358493D01*
X161250500Y-91791506D01*
X161233193Y-91682236D01*
X161234117Y-91682089D01*
X161230500Y-91659249D01*
X161230500Y-85106287D01*
X183649500Y-85106287D01*
X183682754Y-85316243D01*
X183748015Y-85517096D01*
X183748444Y-85518414D01*
X183844951Y-85707820D01*
X183969890Y-85879786D01*
X184120213Y-86030109D01*
X184292179Y-86155048D01*
X184292181Y-86155049D01*
X184292184Y-86155051D01*
X184481588Y-86251557D01*
X184683757Y-86317246D01*
X184893713Y-86350500D01*
X184893714Y-86350500D01*
X185106286Y-86350500D01*
X185106287Y-86350500D01*
X185316243Y-86317246D01*
X185518412Y-86251557D01*
X185707816Y-86155051D01*
X185854625Y-86048389D01*
X185879786Y-86030109D01*
X185879788Y-86030106D01*
X185879792Y-86030104D01*
X186030104Y-85879792D01*
X186030106Y-85879788D01*
X186030109Y-85879786D01*
X186155048Y-85707820D01*
X186155047Y-85707820D01*
X186155051Y-85707816D01*
X186251557Y-85518412D01*
X186317246Y-85316243D01*
X186350500Y-85106287D01*
X186350500Y-84893713D01*
X186317246Y-84683757D01*
X186251557Y-84481588D01*
X186155051Y-84292184D01*
X186155049Y-84292181D01*
X186155048Y-84292179D01*
X186030109Y-84120213D01*
X185879786Y-83969890D01*
X185707820Y-83844951D01*
X185518414Y-83748444D01*
X185518413Y-83748443D01*
X185518412Y-83748443D01*
X185316243Y-83682754D01*
X185316241Y-83682753D01*
X185316240Y-83682753D01*
X185154957Y-83657208D01*
X185106287Y-83649500D01*
X184893713Y-83649500D01*
X184845042Y-83657208D01*
X184683760Y-83682753D01*
X184481585Y-83748444D01*
X184292179Y-83844951D01*
X184120213Y-83969890D01*
X183969890Y-84120213D01*
X183844951Y-84292179D01*
X183748444Y-84481585D01*
X183682753Y-84683760D01*
X183649500Y-84893713D01*
X183649500Y-85106287D01*
X161230500Y-85106287D01*
X161230500Y-82500000D01*
X186994353Y-82500000D01*
X187014834Y-82642456D01*
X187061980Y-82745689D01*
X187074623Y-82773373D01*
X187168872Y-82882143D01*
X187289947Y-82959953D01*
X187289950Y-82959954D01*
X187289949Y-82959954D01*
X187397107Y-82991417D01*
X187422300Y-82998815D01*
X187428036Y-83000499D01*
X187428038Y-83000500D01*
X187428039Y-83000500D01*
X187571962Y-83000500D01*
X187571962Y-83000499D01*
X187700078Y-82962882D01*
X187710050Y-82959954D01*
X187710050Y-82959953D01*
X187710053Y-82959953D01*
X187831128Y-82882143D01*
X187925377Y-82773373D01*
X187985165Y-82642457D01*
X188005647Y-82500000D01*
X187985165Y-82357543D01*
X187925377Y-82226627D01*
X187831128Y-82117857D01*
X187710053Y-82040047D01*
X187710051Y-82040046D01*
X187710049Y-82040045D01*
X187710050Y-82040045D01*
X187571963Y-81999500D01*
X187571961Y-81999500D01*
X187428039Y-81999500D01*
X187428036Y-81999500D01*
X187289949Y-82040045D01*
X187168873Y-82117856D01*
X187074623Y-82226626D01*
X187074622Y-82226628D01*
X187014834Y-82357543D01*
X186994353Y-82500000D01*
X161230500Y-82500000D01*
X161230500Y-81124008D01*
X161230499Y-81123992D01*
X161228697Y-81107234D01*
X161225803Y-81080316D01*
X161221897Y-81062364D01*
X161214602Y-81028825D01*
X161214348Y-81027789D01*
X161212110Y-81018627D01*
X161169100Y-80937915D01*
X161123345Y-80885111D01*
X161123339Y-80885104D01*
X161105757Y-80867160D01*
X161105756Y-80867159D01*
X161105754Y-80867157D01*
X161105752Y-80867156D01*
X161105750Y-80867154D01*
X161025940Y-80822511D01*
X161025935Y-80822509D01*
X160958903Y-80802826D01*
X160958899Y-80802825D01*
X160958898Y-80802825D01*
X160901000Y-80794500D01*
X156774293Y-80794500D01*
X156774291Y-80794500D01*
X156730372Y-80799248D01*
X156678592Y-80810576D01*
X156668187Y-80813138D01*
X156668180Y-80813141D01*
X156587579Y-80856336D01*
X156587575Y-80856338D01*
X156587575Y-80856339D01*
X156575147Y-80867160D01*
X156534870Y-80902227D01*
X156516968Y-80919851D01*
X156472508Y-80999775D01*
X156472506Y-80999780D01*
X156452982Y-81066856D01*
X156444794Y-81124770D01*
X156444794Y-81124777D01*
X156458580Y-86970272D01*
X156458828Y-87075208D01*
X156439301Y-87142293D01*
X156386605Y-87188173D01*
X156334828Y-87199500D01*
X156019734Y-87199500D01*
X155959269Y-87183759D01*
X155613881Y-86990851D01*
X155586667Y-86970275D01*
X155563342Y-86946950D01*
X155486517Y-86907805D01*
X155450301Y-86889352D01*
X155356524Y-86874500D01*
X154893482Y-86874500D01*
X154812519Y-86887323D01*
X154799696Y-86889354D01*
X154686658Y-86946950D01*
X154686657Y-86946951D01*
X154686652Y-86946954D01*
X154596954Y-87036652D01*
X154596951Y-87036657D01*
X154596950Y-87036658D01*
X154592906Y-87044595D01*
X154539352Y-87149698D01*
X154524500Y-87243475D01*
X154524500Y-87856517D01*
X154531466Y-87900500D01*
X154539354Y-87950304D01*
X154596950Y-88063342D01*
X154596952Y-88063344D01*
X154596954Y-88063347D01*
X154686652Y-88153045D01*
X154686654Y-88153046D01*
X154686658Y-88153050D01*
X154799694Y-88210645D01*
X154799698Y-88210647D01*
X154893475Y-88225499D01*
X154893481Y-88225500D01*
X155356518Y-88225499D01*
X155450304Y-88210646D01*
X155563342Y-88153050D01*
X155586667Y-88129723D01*
X155613882Y-88109145D01*
X155959267Y-87916241D01*
X156019732Y-87900500D01*
X156337066Y-87900500D01*
X156404105Y-87920185D01*
X156449860Y-87972989D01*
X156461065Y-88024206D01*
X156465043Y-89710645D01*
X156469212Y-91478111D01*
X156469213Y-91478125D01*
X156473722Y-91520451D01*
X156484380Y-91570471D01*
X156486473Y-91579320D01*
X156528604Y-91660499D01*
X156573774Y-91713788D01*
X156573782Y-91713796D01*
X156591178Y-91731941D01*
X156670506Y-91777453D01*
X156737327Y-91797865D01*
X156795129Y-91806818D01*
X158646850Y-91826944D01*
X158713669Y-91847356D01*
X158758848Y-91900654D01*
X158769500Y-91950937D01*
X158769500Y-97700991D01*
X158769678Y-97704308D01*
X158769500Y-97704317D01*
X158769500Y-97704321D01*
X158769436Y-97704321D01*
X158768530Y-97704369D01*
X158756961Y-97768503D01*
X158709351Y-97819641D01*
X158646076Y-97837000D01*
X158034044Y-97837000D01*
X157967005Y-97817315D01*
X157946362Y-97800681D01*
X157914184Y-97768503D01*
X157840212Y-97694530D01*
X157760288Y-97648386D01*
X157671144Y-97624500D01*
X155303856Y-97624500D01*
X155214712Y-97648386D01*
X155214709Y-97648387D01*
X155134791Y-97694527D01*
X155134786Y-97694531D01*
X153819531Y-99009786D01*
X153819527Y-99009791D01*
X153804018Y-99036656D01*
X153804016Y-99036659D01*
X153773388Y-99089706D01*
X153773387Y-99089709D01*
X153749500Y-99178856D01*
X153749500Y-111521143D01*
X149120500Y-111521143D01*
X149120500Y-109634500D01*
X149140185Y-109567461D01*
X149192989Y-109521706D01*
X149244500Y-109510500D01*
X149439750Y-109510500D01*
X149439751Y-109510499D01*
X149454568Y-109507552D01*
X149498229Y-109498868D01*
X149498229Y-109498867D01*
X149498231Y-109498867D01*
X149564552Y-109454552D01*
X149608867Y-109388231D01*
X149608867Y-109388229D01*
X149608868Y-109388229D01*
X149620499Y-109329752D01*
X149620500Y-109329750D01*
X149620500Y-108290249D01*
X149620499Y-108290247D01*
X149608868Y-108231770D01*
X149608867Y-108231769D01*
X149564552Y-108165447D01*
X149498230Y-108121132D01*
X149498229Y-108121131D01*
X149439752Y-108109500D01*
X149439748Y-108109500D01*
X149244500Y-108109500D01*
X149177461Y-108089815D01*
X149131706Y-108037011D01*
X149120500Y-107985500D01*
X149120500Y-107094500D01*
X149140185Y-107027461D01*
X149192989Y-106981706D01*
X149244500Y-106970500D01*
X149439750Y-106970500D01*
X149439751Y-106970499D01*
X149454568Y-106967552D01*
X149498229Y-106958868D01*
X149498229Y-106958867D01*
X149498231Y-106958867D01*
X149564552Y-106914552D01*
X149608867Y-106848231D01*
X149608867Y-106848229D01*
X149608868Y-106848229D01*
X149620499Y-106789752D01*
X149620500Y-106789750D01*
X149620500Y-105750249D01*
X149620499Y-105750247D01*
X149608868Y-105691770D01*
X149608867Y-105691769D01*
X149564552Y-105625447D01*
X149498230Y-105581132D01*
X149498229Y-105581131D01*
X149439752Y-105569500D01*
X149439748Y-105569500D01*
X149244500Y-105569500D01*
X149177461Y-105549815D01*
X149131706Y-105497011D01*
X149120500Y-105445500D01*
X149120500Y-104554500D01*
X149140185Y-104487461D01*
X149192989Y-104441706D01*
X149244500Y-104430500D01*
X149439750Y-104430500D01*
X149439751Y-104430499D01*
X149454568Y-104427552D01*
X149498229Y-104418868D01*
X149498229Y-104418867D01*
X149498231Y-104418867D01*
X149564552Y-104374552D01*
X149608867Y-104308231D01*
X149608867Y-104308229D01*
X149608868Y-104308229D01*
X149620499Y-104249752D01*
X149620500Y-104249750D01*
X149620500Y-103210249D01*
X149620499Y-103210247D01*
X149608868Y-103151770D01*
X149608867Y-103151769D01*
X149564552Y-103085447D01*
X149498230Y-103041132D01*
X149498229Y-103041131D01*
X149439752Y-103029500D01*
X149439748Y-103029500D01*
X149244500Y-103029500D01*
X149177461Y-103009815D01*
X149131706Y-102957011D01*
X149120500Y-102905500D01*
X149120500Y-102014500D01*
X149140185Y-101947461D01*
X149192989Y-101901706D01*
X149244500Y-101890500D01*
X149439750Y-101890500D01*
X149439751Y-101890499D01*
X149454568Y-101887552D01*
X149498229Y-101878868D01*
X149498229Y-101878867D01*
X149498231Y-101878867D01*
X149564552Y-101834552D01*
X149608867Y-101768231D01*
X149608867Y-101768229D01*
X149608868Y-101768229D01*
X149620499Y-101709752D01*
X149620500Y-101709750D01*
X149620500Y-100670249D01*
X149620499Y-100670247D01*
X149608868Y-100611770D01*
X149608867Y-100611769D01*
X149564552Y-100545447D01*
X149498230Y-100501132D01*
X149498229Y-100501131D01*
X149439752Y-100489500D01*
X149439748Y-100489500D01*
X148958138Y-100489500D01*
X148891099Y-100469815D01*
X148857821Y-100438387D01*
X148835690Y-100407927D01*
X148702075Y-100274312D01*
X148702073Y-100274310D01*
X148549199Y-100163240D01*
X148523214Y-100150000D01*
X148380836Y-100077454D01*
X148201118Y-100019059D01*
X148014486Y-99989500D01*
X148014481Y-99989500D01*
X147825519Y-99989500D01*
X147825514Y-99989500D01*
X147638881Y-100019059D01*
X147459163Y-100077454D01*
X147290800Y-100163240D01*
X147203579Y-100226610D01*
X147137927Y-100274310D01*
X147137925Y-100274312D01*
X147137924Y-100274312D01*
X147004309Y-100407927D01*
X146982179Y-100438387D01*
X146926848Y-100481052D01*
X146881862Y-100489500D01*
X146400247Y-100489500D01*
X146341770Y-100501131D01*
X146341769Y-100501132D01*
X146275447Y-100545447D01*
X146231132Y-100611769D01*
X146231131Y-100611770D01*
X146219500Y-100670247D01*
X146219500Y-101709752D01*
X146231131Y-101768229D01*
X146231132Y-101768230D01*
X146275447Y-101834552D01*
X146341769Y-101878867D01*
X146341770Y-101878868D01*
X146400247Y-101890499D01*
X146400250Y-101890500D01*
X146400252Y-101890500D01*
X146595500Y-101890500D01*
X146662539Y-101910185D01*
X146708294Y-101962989D01*
X146719500Y-102014500D01*
X146719500Y-102905500D01*
X146699815Y-102972539D01*
X146647011Y-103018294D01*
X146595500Y-103029500D01*
X146400247Y-103029500D01*
X146341770Y-103041131D01*
X146341769Y-103041132D01*
X146275447Y-103085447D01*
X146231132Y-103151769D01*
X146231131Y-103151770D01*
X146219500Y-103210247D01*
X146219500Y-104249752D01*
X146231131Y-104308229D01*
X146231132Y-104308230D01*
X146275447Y-104374552D01*
X146341769Y-104418867D01*
X146341770Y-104418868D01*
X146400247Y-104430499D01*
X146400250Y-104430500D01*
X146400252Y-104430500D01*
X146595500Y-104430500D01*
X146662539Y-104450185D01*
X146708294Y-104502989D01*
X146719500Y-104554500D01*
X146719500Y-105445500D01*
X146699815Y-105512539D01*
X146647011Y-105558294D01*
X146595500Y-105569500D01*
X146400247Y-105569500D01*
X146341770Y-105581131D01*
X146341769Y-105581132D01*
X146275447Y-105625447D01*
X146231132Y-105691769D01*
X146231131Y-105691770D01*
X146219500Y-105750247D01*
X146219500Y-106789752D01*
X146231131Y-106848229D01*
X146231132Y-106848230D01*
X146275447Y-106914552D01*
X146341769Y-106958867D01*
X146341770Y-106958868D01*
X146400247Y-106970499D01*
X146400250Y-106970500D01*
X146400252Y-106970500D01*
X146595500Y-106970500D01*
X146662539Y-106990185D01*
X146708294Y-107042989D01*
X146719500Y-107094500D01*
X146719500Y-107985500D01*
X146699815Y-108052539D01*
X146647011Y-108098294D01*
X146595500Y-108109500D01*
X146400247Y-108109500D01*
X146341770Y-108121131D01*
X146341769Y-108121132D01*
X146275447Y-108165447D01*
X146231132Y-108231769D01*
X146231131Y-108231770D01*
X146219500Y-108290247D01*
X146219500Y-109329752D01*
X140500500Y-109329752D01*
X140500500Y-87275000D01*
X150744355Y-87275000D01*
X150764859Y-87443869D01*
X150764860Y-87443874D01*
X150825182Y-87602931D01*
X150887475Y-87693177D01*
X150921817Y-87742929D01*
X151027505Y-87836560D01*
X151049150Y-87855736D01*
X151199773Y-87934789D01*
X151199775Y-87934790D01*
X151364944Y-87975500D01*
X151418761Y-87975500D01*
X151446298Y-87978596D01*
X151455686Y-87980735D01*
X151592991Y-87984522D01*
X151621653Y-87988699D01*
X151665691Y-88000500D01*
X152170284Y-88000500D01*
X152173704Y-88000547D01*
X152338350Y-88005090D01*
X152341058Y-88005143D01*
X152341369Y-88005150D01*
X152341376Y-88005150D01*
X152341473Y-88005152D01*
X152341796Y-88005156D01*
X152354374Y-88002734D01*
X152377812Y-88000500D01*
X152606340Y-88000500D01*
X152645739Y-88006926D01*
X152666980Y-88014044D01*
X152689899Y-88021724D01*
X152747210Y-88061689D01*
X152773816Y-88126295D01*
X152774500Y-88139298D01*
X152774500Y-89118993D01*
X152774500Y-89118995D01*
X152774499Y-89118995D01*
X152801418Y-89254322D01*
X152801421Y-89254332D01*
X152854221Y-89381804D01*
X152854231Y-89381822D01*
X152870934Y-89406820D01*
X152884552Y-89441605D01*
X152886339Y-89441025D01*
X152889352Y-89450301D01*
X152907805Y-89486517D01*
X152946950Y-89563342D01*
X152946952Y-89563344D01*
X152946954Y-89563347D01*
X153036652Y-89653045D01*
X153036654Y-89653046D01*
X153036658Y-89653050D01*
X153149694Y-89710645D01*
X153149698Y-89710647D01*
X153243475Y-89725499D01*
X153243481Y-89725500D01*
X153268111Y-89725499D01*
X153292302Y-89727881D01*
X153358144Y-89740979D01*
X153406006Y-89750500D01*
X153406007Y-89750500D01*
X153543995Y-89750500D01*
X153619940Y-89735392D01*
X153657700Y-89727881D01*
X153681891Y-89725499D01*
X153706517Y-89725499D01*
X153706518Y-89725499D01*
X153800304Y-89710646D01*
X153913342Y-89653050D01*
X154003050Y-89563342D01*
X154060646Y-89450304D01*
X154060646Y-89450297D01*
X154063660Y-89441026D01*
X154065453Y-89441608D01*
X154079067Y-89406815D01*
X154095775Y-89381811D01*
X154148580Y-89254328D01*
X154175500Y-89118993D01*
X154175500Y-87481007D01*
X154175500Y-87481004D01*
X154148581Y-87345677D01*
X154148580Y-87345676D01*
X154148580Y-87345672D01*
X154119307Y-87275000D01*
X154095777Y-87218193D01*
X154095776Y-87218191D01*
X154095775Y-87218189D01*
X154079064Y-87193180D01*
X154065449Y-87158392D01*
X154063660Y-87158974D01*
X154060644Y-87149691D01*
X154007094Y-87044595D01*
X154003050Y-87036658D01*
X154003047Y-87036655D01*
X154003045Y-87036652D01*
X153913347Y-86946954D01*
X153913344Y-86946952D01*
X153913342Y-86946950D01*
X153836517Y-86907805D01*
X153800301Y-86889352D01*
X153706524Y-86874500D01*
X153706519Y-86874500D01*
X153681886Y-86874500D01*
X153657695Y-86872117D01*
X153620003Y-86864619D01*
X153543995Y-86849500D01*
X153543993Y-86849500D01*
X153406007Y-86849500D01*
X153361460Y-86858360D01*
X153292293Y-86872118D01*
X153268107Y-86874500D01*
X153243487Y-86874500D01*
X153149695Y-86889354D01*
X153036659Y-86946948D01*
X153036656Y-86946950D01*
X153034537Y-86949070D01*
X153029145Y-86952407D01*
X153028767Y-86952683D01*
X153028746Y-86952654D01*
X152986262Y-86978958D01*
X152645738Y-87093074D01*
X152606337Y-87099500D01*
X152465393Y-87099500D01*
X152398354Y-87079815D01*
X152395305Y-87077792D01*
X152060773Y-86848578D01*
X152016596Y-86794447D01*
X152015918Y-86792806D01*
X151932456Y-86586585D01*
X151925552Y-86517057D01*
X151957334Y-86454834D01*
X151959635Y-86452467D01*
X152085490Y-86326614D01*
X152144799Y-86223887D01*
X152153917Y-86189856D01*
X152175500Y-86109309D01*
X152175500Y-86046925D01*
X152179912Y-86018414D01*
X152179136Y-86018250D01*
X152180397Y-86012295D01*
X152180397Y-86012290D01*
X152180399Y-86012286D01*
X152228902Y-85575756D01*
X152227947Y-85522991D01*
X152227075Y-85517096D01*
X152227074Y-85517095D01*
X152226835Y-85515474D01*
X152225500Y-85497326D01*
X152225500Y-84116739D01*
X152215573Y-84048608D01*
X152215573Y-84048607D01*
X152164198Y-83943517D01*
X152164196Y-83943515D01*
X152164196Y-83943514D01*
X152081485Y-83860803D01*
X151976391Y-83809426D01*
X151908261Y-83799500D01*
X151908260Y-83799500D01*
X151541740Y-83799500D01*
X151541739Y-83799500D01*
X151473608Y-83809426D01*
X151368514Y-83860803D01*
X151285803Y-83943514D01*
X151234426Y-84048608D01*
X151224500Y-84116739D01*
X151224500Y-85497320D01*
X151223165Y-85515470D01*
X151222052Y-85522986D01*
X151221097Y-85575757D01*
X151221097Y-85575760D01*
X151248619Y-85823462D01*
X151236458Y-85892265D01*
X151213059Y-85924835D01*
X151089514Y-86048382D01*
X151089509Y-86048389D01*
X151030201Y-86151112D01*
X151030200Y-86151117D01*
X150999500Y-86265691D01*
X150999500Y-86373599D01*
X150993248Y-86412475D01*
X150796323Y-87008924D01*
X150796320Y-87008936D01*
X150795012Y-87018119D01*
X150788195Y-87044595D01*
X150764860Y-87106126D01*
X150764859Y-87106130D01*
X150744355Y-87275000D01*
X140500500Y-87275000D01*
X140500500Y-85106287D01*
X143649500Y-85106287D01*
X143682754Y-85316243D01*
X143748015Y-85517096D01*
X143748444Y-85518414D01*
X143844951Y-85707820D01*
X143969890Y-85879786D01*
X144120213Y-86030109D01*
X144292179Y-86155048D01*
X144292181Y-86155049D01*
X144292184Y-86155051D01*
X144481588Y-86251557D01*
X144683757Y-86317246D01*
X144893713Y-86350500D01*
X144893714Y-86350500D01*
X145106286Y-86350500D01*
X145106287Y-86350500D01*
X145316243Y-86317246D01*
X145518412Y-86251557D01*
X145707816Y-86155051D01*
X145854625Y-86048389D01*
X145879786Y-86030109D01*
X145879788Y-86030106D01*
X145879792Y-86030104D01*
X146030104Y-85879792D01*
X146030106Y-85879788D01*
X146030109Y-85879786D01*
X146155048Y-85707820D01*
X146155047Y-85707820D01*
X146155051Y-85707816D01*
X146251557Y-85518412D01*
X146317246Y-85316243D01*
X146350500Y-85106287D01*
X146350500Y-84893713D01*
X146317246Y-84683757D01*
X146251557Y-84481588D01*
X146155051Y-84292184D01*
X146155049Y-84292181D01*
X146155048Y-84292179D01*
X146030109Y-84120213D01*
X145879786Y-83969890D01*
X145707820Y-83844951D01*
X145518414Y-83748444D01*
X145518413Y-83748443D01*
X145518412Y-83748443D01*
X145316243Y-83682754D01*
X145316241Y-83682753D01*
X145316240Y-83682753D01*
X145154957Y-83657208D01*
X145106287Y-83649500D01*
X144893713Y-83649500D01*
X144845042Y-83657208D01*
X144683760Y-83682753D01*
X144481585Y-83748444D01*
X144292179Y-83844951D01*
X144120213Y-83969890D01*
X143969890Y-84120213D01*
X143844951Y-84292179D01*
X143748444Y-84481585D01*
X143682753Y-84683760D01*
X143649500Y-84893713D01*
X143649500Y-85106287D01*
X140500500Y-85106287D01*
X140500500Y-85002706D01*
X140500618Y-84997297D01*
X140503377Y-84934108D01*
X140517386Y-84613226D01*
X140518326Y-84602495D01*
X140568152Y-84224025D01*
X140570025Y-84213405D01*
X140652649Y-83840709D01*
X140655440Y-83830295D01*
X140770230Y-83466227D01*
X140773917Y-83456095D01*
X140920003Y-83103412D01*
X140924561Y-83093638D01*
X141100822Y-82755045D01*
X141106217Y-82745700D01*
X141262745Y-82500000D01*
X141994353Y-82500000D01*
X142014834Y-82642456D01*
X142061980Y-82745689D01*
X142074623Y-82773373D01*
X142168872Y-82882143D01*
X142289947Y-82959953D01*
X142289950Y-82959954D01*
X142289949Y-82959954D01*
X142397107Y-82991417D01*
X142422300Y-82998815D01*
X142428036Y-83000499D01*
X142428038Y-83000500D01*
X142428039Y-83000500D01*
X142571962Y-83000500D01*
X142571962Y-83000499D01*
X142700078Y-82962882D01*
X142710050Y-82959954D01*
X142710050Y-82959953D01*
X142710053Y-82959953D01*
X142831128Y-82882143D01*
X142925377Y-82773373D01*
X142985165Y-82642457D01*
X143005647Y-82500000D01*
X142985165Y-82357543D01*
X142925377Y-82226627D01*
X142831128Y-82117857D01*
X142710053Y-82040047D01*
X142710051Y-82040046D01*
X142710049Y-82040045D01*
X142710050Y-82040045D01*
X142571963Y-81999500D01*
X142571961Y-81999500D01*
X142428039Y-81999500D01*
X142428036Y-81999500D01*
X142289949Y-82040045D01*
X142168873Y-82117856D01*
X142074623Y-82226626D01*
X142074622Y-82226628D01*
X142014834Y-82357543D01*
X141994353Y-82500000D01*
X141262745Y-82500000D01*
X141311325Y-82423744D01*
X141317515Y-82414905D01*
X141549896Y-82112060D01*
X141556834Y-82103791D01*
X141814726Y-81822352D01*
X141822352Y-81814726D01*
X142103791Y-81556834D01*
X142112060Y-81549896D01*
X142414905Y-81317515D01*
X142423744Y-81311325D01*
X142745700Y-81106217D01*
X142755045Y-81100822D01*
X143093638Y-80924561D01*
X143103412Y-80920003D01*
X143456095Y-80773917D01*
X143466227Y-80770230D01*
X143830295Y-80655440D01*
X143840709Y-80652649D01*
X144213405Y-80570025D01*
X144224025Y-80568152D01*
X144602495Y-80518326D01*
X144613226Y-80517386D01*
X144997297Y-80500617D01*
X145002706Y-80500500D01*
X145065892Y-80500500D01*
X147800500Y-80500500D01*
X147867539Y-80520185D01*
G37*
G04 #@! TD.AperFunction*
G04 #@! TA.AperFunction,Conductor*
G36*
X155485623Y-87154597D02*
G01*
X155490042Y-87157065D01*
X155919005Y-87396652D01*
X155924557Y-87403677D01*
X155925000Y-87406866D01*
X155925000Y-87693133D01*
X155921573Y-87701406D01*
X155919005Y-87703348D01*
X155485623Y-87945402D01*
X155476729Y-87946444D01*
X155471150Y-87942934D01*
X155259480Y-87703348D01*
X155130843Y-87557746D01*
X155127934Y-87549278D01*
X155130844Y-87542253D01*
X155250456Y-87406866D01*
X155471152Y-87157063D01*
X155479196Y-87153134D01*
X155485623Y-87154597D01*
G37*
G04 #@! TD.AperFunction*
G04 #@! TA.AperFunction,Conductor*
G36*
X166075000Y-97171447D02*
G01*
X165775000Y-97171447D01*
X165462868Y-96887132D01*
X165675000Y-96674000D01*
X165952164Y-96560195D01*
X166075000Y-97171447D01*
G37*
G04 #@! TD.AperFunction*
G04 #@! TA.AperFunction,Conductor*
G36*
X181063932Y-122060583D02*
G01*
X180704029Y-122458354D01*
X180491897Y-122246222D01*
X180551800Y-121848451D01*
X180852507Y-121847744D01*
X181063932Y-122060583D01*
G37*
G04 #@! TD.AperFunction*
G04 #@! TA.AperFunction,Conductor*
G36*
X166400707Y-96699293D02*
G01*
X166514805Y-96977164D01*
X166081802Y-97230330D01*
X165869670Y-97018198D01*
X166122836Y-96585195D01*
X166400707Y-96699293D01*
G37*
G04 #@! TD.AperFunction*
G04 #@! TA.AperFunction,Conductor*
G36*
X154227507Y-123678993D02*
G01*
X154341605Y-123956864D01*
X153908602Y-124210030D01*
X153696470Y-123997898D01*
X153949636Y-123564895D01*
X154227507Y-123678993D01*
G37*
G04 #@! TD.AperFunction*
G04 #@! TA.AperFunction,Conductor*
G36*
X164527164Y-96664805D02*
G01*
X164267677Y-97219454D01*
X164055546Y-97007323D01*
X163972836Y-96664805D01*
X164250707Y-96549293D01*
X164527164Y-96664805D01*
G37*
G04 #@! TD.AperFunction*
G04 #@! TA.AperFunction,Conductor*
G36*
X164901000Y-98475000D02*
G01*
X164900000Y-98775000D01*
X164388020Y-98837500D01*
X164388020Y-98537500D01*
X164687868Y-98262868D01*
X164901000Y-98475000D01*
G37*
G04 #@! TD.AperFunction*
G04 #@! TA.AperFunction,Conductor*
G36*
X181113932Y-122836319D02*
G01*
X180902507Y-123049158D01*
X180624636Y-123163256D01*
X180461387Y-122670172D01*
X180673519Y-122458040D01*
X181113932Y-122836319D01*
G37*
G04 #@! TD.AperFunction*
G04 #@! TA.AperFunction,Conductor*
G36*
X153757131Y-124097898D02*
G01*
X153544999Y-124310030D01*
X153111996Y-124056864D01*
X153226094Y-123778993D01*
X153503965Y-123664895D01*
X153757131Y-124097898D01*
G37*
G04 #@! TD.AperFunction*
G04 #@! TA.AperFunction,Conductor*
G36*
X164775707Y-97449293D02*
G01*
X164889805Y-97727164D01*
X164456802Y-97980330D01*
X164244670Y-97768198D01*
X164497836Y-97335195D01*
X164775707Y-97449293D01*
G37*
G04 #@! TD.AperFunction*
G04 #@! TA.AperFunction,Conductor*
G36*
X150925707Y-83124293D02*
G01*
X151137132Y-83337132D01*
X150677513Y-83726040D01*
X150323960Y-83372487D01*
X150712868Y-82912868D01*
X150925707Y-83124293D01*
G37*
G04 #@! TD.AperFunction*
G04 #@! TA.AperFunction,Conductor*
G36*
X150402164Y-86589805D02*
G01*
X150125000Y-86476000D01*
X149912868Y-86262868D01*
X150225000Y-86019974D01*
X150725000Y-86019974D01*
X150402164Y-86589805D01*
G37*
G04 #@! TD.AperFunction*
G04 #@! TA.AperFunction,Conductor*
G36*
X167834047Y-97443233D02*
G01*
X168342652Y-97647055D01*
X168349057Y-97653313D01*
X168350000Y-97657915D01*
X168350000Y-97942745D01*
X168346573Y-97951018D01*
X168343501Y-97953225D01*
X167834420Y-98205863D01*
X167825486Y-98206471D01*
X167820592Y-98203287D01*
X167589459Y-97951018D01*
X167481240Y-97832902D01*
X167478179Y-97824489D01*
X167481240Y-97817097D01*
X167821071Y-97446189D01*
X167829186Y-97442405D01*
X167834047Y-97443233D01*
G37*
G04 #@! TD.AperFunction*
G04 #@! TA.AperFunction,Conductor*
G36*
X178052801Y-121451878D02*
G01*
X178055019Y-121454971D01*
X178354415Y-122061343D01*
X178355005Y-122070278D01*
X178350933Y-122075891D01*
X177908809Y-122406706D01*
X177900132Y-122408919D01*
X177894791Y-122406706D01*
X177645433Y-122220126D01*
X177452665Y-122075890D01*
X177448094Y-122068191D01*
X177449183Y-122061345D01*
X177748581Y-121454971D01*
X177755317Y-121449070D01*
X177759072Y-121448451D01*
X178044528Y-121448451D01*
X178052801Y-121451878D01*
G37*
G04 #@! TD.AperFunction*
G04 #@! TA.AperFunction,Conductor*
G36*
X165060623Y-101079597D02*
G01*
X165065042Y-101082065D01*
X165494005Y-101321652D01*
X165499557Y-101328677D01*
X165500000Y-101331866D01*
X165500000Y-101618133D01*
X165496573Y-101626406D01*
X165494005Y-101628348D01*
X165060623Y-101870402D01*
X165051729Y-101871444D01*
X165046150Y-101867934D01*
X164834480Y-101628348D01*
X164705843Y-101482746D01*
X164702934Y-101474278D01*
X164705844Y-101467253D01*
X164825456Y-101331866D01*
X165046152Y-101082063D01*
X165054196Y-101078134D01*
X165060623Y-101079597D01*
G37*
G04 #@! TD.AperFunction*
G04 #@! TA.AperFunction,Conductor*
G36*
X162744816Y-95272548D02*
G01*
X162751859Y-95278079D01*
X162752269Y-95278878D01*
X162954782Y-95714128D01*
X162955165Y-95723075D01*
X162949110Y-95729672D01*
X162948849Y-95729790D01*
X162277235Y-96022503D01*
X162272560Y-96023477D01*
X161991335Y-96023477D01*
X161983062Y-96020050D01*
X161979635Y-96011777D01*
X161980258Y-96008011D01*
X162080160Y-95714128D01*
X162271435Y-95151454D01*
X162277341Y-95144726D01*
X162285665Y-95143956D01*
X162744816Y-95272548D01*
G37*
G04 #@! TD.AperFunction*
G04 #@! TA.AperFunction,Conductor*
G36*
X169256978Y-99692381D02*
G01*
X169263038Y-99698580D01*
X169449127Y-100145503D01*
X169449144Y-100154457D01*
X169449127Y-100154497D01*
X169263038Y-100601419D01*
X169256694Y-100607740D01*
X169248026Y-100607838D01*
X168457489Y-100302888D01*
X168451004Y-100296713D01*
X168450000Y-100291972D01*
X168450000Y-100008027D01*
X168453427Y-99999754D01*
X168457489Y-99997111D01*
X169247456Y-99692381D01*
X169248026Y-99692161D01*
X169256978Y-99692381D01*
G37*
G04 #@! TD.AperFunction*
G04 #@! TA.AperFunction,Conductor*
G36*
X167949679Y-99387861D02*
G01*
X167953771Y-99392757D01*
X168232086Y-100015887D01*
X168232331Y-100024838D01*
X168229676Y-100028931D01*
X168029225Y-100229382D01*
X168020952Y-100232809D01*
X168015680Y-100231554D01*
X167318986Y-99879881D01*
X167313144Y-99873094D01*
X167313438Y-99864983D01*
X167471879Y-99480154D01*
X167478197Y-99473810D01*
X167480517Y-99473115D01*
X167940915Y-99386032D01*
X167949679Y-99387861D01*
G37*
G04 #@! TD.AperFunction*
G04 #@! TA.AperFunction,Conductor*
G36*
X167129169Y-99096452D02*
G01*
X167468758Y-99467096D01*
X167471820Y-99475511D01*
X167468758Y-99482904D01*
X167129169Y-99853547D01*
X167121053Y-99857332D01*
X167115754Y-99856318D01*
X166606912Y-99628100D01*
X166600766Y-99621588D01*
X166600000Y-99617425D01*
X166600000Y-99332574D01*
X166603427Y-99324301D01*
X166606908Y-99321901D01*
X167115755Y-99093680D01*
X167124705Y-99093422D01*
X167129169Y-99096452D01*
G37*
G04 #@! TD.AperFunction*
G04 #@! TA.AperFunction,Conductor*
G36*
X165579169Y-99096452D02*
G01*
X165918758Y-99467096D01*
X165921820Y-99475511D01*
X165918758Y-99482904D01*
X165579169Y-99853547D01*
X165571053Y-99857332D01*
X165565754Y-99856318D01*
X165056912Y-99628100D01*
X165050766Y-99621588D01*
X165050000Y-99617425D01*
X165050000Y-99332574D01*
X165053427Y-99324301D01*
X165056908Y-99321901D01*
X165565755Y-99093680D01*
X165574705Y-99093422D01*
X165579169Y-99096452D01*
G37*
G04 #@! TD.AperFunction*
G04 #@! TA.AperFunction,Conductor*
G36*
X162758433Y-101039267D02*
G01*
X162907739Y-101262219D01*
X163045084Y-101467311D01*
X163046841Y-101476092D01*
X163043219Y-101482491D01*
X162672044Y-101818829D01*
X162663613Y-101821845D01*
X162657264Y-101819590D01*
X162656227Y-101818829D01*
X162580763Y-101763429D01*
X162198855Y-101483065D01*
X162194214Y-101475407D01*
X162196348Y-101466710D01*
X162197499Y-101465368D01*
X162399174Y-101263693D01*
X162400972Y-101262223D01*
X162742251Y-101036025D01*
X162751038Y-101034311D01*
X162758433Y-101039267D01*
G37*
G04 #@! TD.AperFunction*
G04 #@! TA.AperFunction,Conductor*
G36*
X163735153Y-120514120D02*
G01*
X163741201Y-120517334D01*
X163942517Y-120718650D01*
X163945944Y-120726923D01*
X163942517Y-120735196D01*
X163942508Y-120735205D01*
X163474571Y-121202113D01*
X163466294Y-121205531D01*
X163459270Y-121203178D01*
X163032434Y-120881837D01*
X163027886Y-120874124D01*
X163029246Y-120866803D01*
X163102453Y-120735196D01*
X163270877Y-120432411D01*
X163277893Y-120426848D01*
X163283323Y-120426613D01*
X163735153Y-120514120D01*
G37*
G04 #@! TD.AperFunction*
G04 #@! TA.AperFunction,Conductor*
G36*
X170401655Y-119112343D02*
G01*
X170926322Y-119495560D01*
X170956964Y-119517941D01*
X170961624Y-119525588D01*
X170959511Y-119534290D01*
X170959352Y-119534503D01*
X170532831Y-120091407D01*
X170525080Y-120095892D01*
X170516428Y-120093582D01*
X170516416Y-120093573D01*
X170513595Y-120091407D01*
X169790696Y-119536293D01*
X169786223Y-119528537D01*
X169788543Y-119519888D01*
X169792513Y-119516588D01*
X170181436Y-119318568D01*
X170386485Y-119113518D01*
X170394757Y-119110092D01*
X170401655Y-119112343D01*
G37*
G04 #@! TD.AperFunction*
G04 #@! TA.AperFunction,Conductor*
G36*
X153241741Y-126405566D02*
G01*
X153572556Y-126847691D01*
X153574769Y-126856368D01*
X153572556Y-126861709D01*
X153241741Y-127303833D01*
X153234041Y-127308405D01*
X153227193Y-127307315D01*
X152620821Y-127007919D01*
X152614920Y-127001183D01*
X152614301Y-126997428D01*
X152614301Y-126711971D01*
X152617728Y-126703698D01*
X152620817Y-126701482D01*
X153227195Y-126402083D01*
X153236128Y-126401494D01*
X153241741Y-126405566D01*
G37*
G04 #@! TD.AperFunction*
G04 #@! TA.AperFunction,Conductor*
G36*
X153079651Y-117040035D02*
G01*
X154043054Y-117487629D01*
X154246469Y-117582136D01*
X154252528Y-117588730D01*
X154252150Y-117597677D01*
X154245582Y-117603726D01*
X152983454Y-118068494D01*
X152974506Y-118068137D01*
X152972373Y-118066861D01*
X152350663Y-117598710D01*
X152346115Y-117590996D01*
X152346001Y-117589364D01*
X152346001Y-117303480D01*
X152349428Y-117295207D01*
X152353808Y-117292446D01*
X153070834Y-117039613D01*
X153079651Y-117040035D01*
G37*
G04 #@! TD.AperFunction*
G04 #@! TA.AperFunction,Conductor*
G36*
X152321311Y-117292311D02*
G01*
X152327796Y-117298486D01*
X152328800Y-117303227D01*
X152328800Y-117587172D01*
X152325373Y-117595445D01*
X152321311Y-117598088D01*
X151530773Y-117903038D01*
X151521821Y-117902818D01*
X151515761Y-117896619D01*
X151391459Y-117598088D01*
X151329671Y-117449695D01*
X151329655Y-117440744D01*
X151515762Y-116993778D01*
X151522105Y-116987459D01*
X151530773Y-116987361D01*
X152321311Y-117292311D01*
G37*
G04 #@! TD.AperFunction*
G04 #@! TA.AperFunction,Conductor*
G36*
X151141954Y-116994061D02*
G01*
X151142007Y-116994186D01*
X151327637Y-117440002D01*
X151327654Y-117448956D01*
X151327642Y-117448985D01*
X151142154Y-117895825D01*
X151135817Y-117902152D01*
X151126862Y-117902145D01*
X151126371Y-117901928D01*
X150449895Y-117583955D01*
X150446599Y-117581639D01*
X150248118Y-117383158D01*
X150244691Y-117374885D01*
X150248118Y-117366612D01*
X150251768Y-117364137D01*
X151126586Y-116987934D01*
X151135538Y-116987814D01*
X151141954Y-116994061D01*
G37*
G04 #@! TD.AperFunction*
G04 #@! TA.AperFunction,Conductor*
G36*
X157181015Y-117761719D02*
G01*
X157185034Y-117765738D01*
X157920817Y-118993025D01*
X157922132Y-119001883D01*
X157919918Y-119006350D01*
X157328512Y-119745609D01*
X157320668Y-119749928D01*
X157319376Y-119750000D01*
X157030622Y-119750000D01*
X157022349Y-119746573D01*
X157021486Y-119745609D01*
X156430079Y-119006350D01*
X156427587Y-118997749D01*
X156429179Y-118993027D01*
X157164964Y-117765737D01*
X157172157Y-117760404D01*
X157181015Y-117761719D01*
G37*
G04 #@! TD.AperFunction*
G04 #@! TA.AperFunction,Conductor*
G36*
X166179169Y-122371454D02*
G01*
X166518758Y-122742098D01*
X166521820Y-122750513D01*
X166518758Y-122757906D01*
X166179169Y-123128549D01*
X166171053Y-123132334D01*
X166165754Y-123131320D01*
X165656912Y-122903101D01*
X165650766Y-122896589D01*
X165650000Y-122892426D01*
X165650000Y-122607575D01*
X165653427Y-122599302D01*
X165656908Y-122596902D01*
X166165755Y-122368682D01*
X166174705Y-122368424D01*
X166179169Y-122371454D01*
G37*
G04 #@! TD.AperFunction*
G04 #@! TA.AperFunction,Conductor*
G36*
X151729603Y-84867980D02*
G01*
X151735756Y-84874133D01*
X152023787Y-85547167D01*
X152024659Y-85553062D01*
X151976156Y-85989592D01*
X151971837Y-85997436D01*
X151964528Y-86000000D01*
X151485472Y-86000000D01*
X151477199Y-85996573D01*
X151473844Y-85989592D01*
X151425340Y-85553062D01*
X151426212Y-85547167D01*
X151714244Y-84874133D01*
X151720649Y-84867875D01*
X151729603Y-84867980D01*
G37*
G04 #@! TD.AperFunction*
G04 #@! TA.AperFunction,Conductor*
G36*
X153124188Y-87153084D02*
G01*
X153127740Y-87155810D01*
X153469155Y-87542253D01*
X153472065Y-87550722D01*
X153469155Y-87557747D01*
X153127740Y-87944189D01*
X153119694Y-87948120D01*
X153115254Y-87947536D01*
X153105266Y-87944189D01*
X153070251Y-87932454D01*
X152682982Y-87802674D01*
X152676227Y-87796796D01*
X152675000Y-87791580D01*
X152675000Y-87308419D01*
X152678427Y-87300146D01*
X152682982Y-87297325D01*
X153115256Y-87152463D01*
X153124188Y-87153084D01*
G37*
G04 #@! TD.AperFunction*
G04 #@! TA.AperFunction,Conductor*
G36*
X151811554Y-86926929D02*
G01*
X152350954Y-87296514D01*
X152355842Y-87304017D01*
X152356041Y-87306166D01*
X152356041Y-87787972D01*
X152352614Y-87796245D01*
X152344341Y-87799672D01*
X152344018Y-87799668D01*
X151461354Y-87775313D01*
X151453179Y-87771659D01*
X151449977Y-87763640D01*
X151449062Y-87306166D01*
X151449009Y-87279866D01*
X151452417Y-87271592D01*
X151796684Y-86928295D01*
X151804960Y-86924882D01*
X151811554Y-86926929D01*
G37*
G04 #@! TD.AperFunction*
G04 #@! TA.AperFunction,Conductor*
G36*
X151322007Y-86126296D02*
G01*
X151660452Y-86464741D01*
X151663024Y-86468625D01*
X151907589Y-87072908D01*
X151907517Y-87081862D01*
X151901230Y-87088103D01*
X151453785Y-87273842D01*
X151444830Y-87273848D01*
X151444802Y-87273837D01*
X150998073Y-87087827D01*
X150991752Y-87081483D01*
X150991460Y-87073359D01*
X151302625Y-86130898D01*
X151308472Y-86124119D01*
X151317402Y-86123459D01*
X151322007Y-86126296D01*
G37*
G04 #@! TD.AperFunction*
G04 #@! TA.AperFunction,Conductor*
G36*
X166884244Y-120718682D02*
G01*
X167393089Y-120946901D01*
X167399234Y-120953412D01*
X167400000Y-120957575D01*
X167400000Y-121242426D01*
X167396573Y-121250699D01*
X167393088Y-121253101D01*
X166884245Y-121481320D01*
X166875294Y-121481579D01*
X166870830Y-121478549D01*
X166664271Y-121253101D01*
X166531240Y-121107904D01*
X166528179Y-121099491D01*
X166531240Y-121092099D01*
X166870831Y-120721453D01*
X166878946Y-120717669D01*
X166884244Y-120718682D01*
G37*
G04 #@! TD.AperFunction*
G04 #@! TA.AperFunction,Conductor*
G36*
X167679169Y-120721454D02*
G01*
X168018758Y-121092098D01*
X168021820Y-121100513D01*
X168018758Y-121107906D01*
X167679169Y-121478549D01*
X167671053Y-121482334D01*
X167665754Y-121481320D01*
X167156912Y-121253101D01*
X167150766Y-121246589D01*
X167150000Y-121242426D01*
X167150000Y-120957575D01*
X167153427Y-120949302D01*
X167156908Y-120946902D01*
X167665755Y-120718682D01*
X167674705Y-120718424D01*
X167679169Y-120721454D01*
G37*
G04 #@! TD.AperFunction*
G04 #@! TA.AperFunction,Conductor*
G36*
X168176406Y-120303429D02*
G01*
X168178348Y-120305997D01*
X168420402Y-120739377D01*
X168421444Y-120748271D01*
X168417934Y-120753850D01*
X168032747Y-121094156D01*
X168024278Y-121097066D01*
X168017253Y-121094156D01*
X167632065Y-120753850D01*
X167628134Y-120745804D01*
X167629597Y-120739377D01*
X167871654Y-120305995D01*
X167878678Y-120300445D01*
X167881859Y-120300002D01*
X168168133Y-120300002D01*
X168176406Y-120303429D01*
G37*
G04 #@! TD.AperFunction*
G04 #@! TA.AperFunction,Conductor*
G36*
X155459073Y-125134475D02*
G01*
X155918963Y-125499637D01*
X155923312Y-125507465D01*
X155921869Y-125514566D01*
X155605161Y-126073766D01*
X155598102Y-126079276D01*
X155594980Y-126079700D01*
X155308620Y-126079700D01*
X155300347Y-126076273D01*
X155298439Y-126073766D01*
X154981729Y-125514564D01*
X154980635Y-125505678D01*
X154984634Y-125499639D01*
X155444525Y-125134475D01*
X155453135Y-125132015D01*
X155459073Y-125134475D01*
G37*
G04 #@! TD.AperFunction*
G04 #@! TA.AperFunction,Conductor*
G36*
X155602392Y-125908127D02*
G01*
X155604854Y-125911747D01*
X155866152Y-126514616D01*
X155867429Y-126517561D01*
X155867575Y-126526515D01*
X155863414Y-126531791D01*
X155408794Y-126850792D01*
X155400054Y-126852739D01*
X155394997Y-126850532D01*
X154952711Y-126514616D01*
X154948196Y-126506884D01*
X154949720Y-126499338D01*
X155298402Y-125910439D01*
X155305566Y-125905066D01*
X155308470Y-125904700D01*
X155594119Y-125904700D01*
X155602392Y-125908127D01*
G37*
G04 #@! TD.AperFunction*
G04 #@! TA.AperFunction,Conductor*
G36*
X179174474Y-123761214D02*
G01*
X179546914Y-124216259D01*
X179549502Y-124224831D01*
X179547127Y-124230811D01*
X179189077Y-124695434D01*
X179181313Y-124699895D01*
X179174202Y-124698560D01*
X178607892Y-124389278D01*
X178602274Y-124382305D01*
X178601800Y-124379010D01*
X178601800Y-124092649D01*
X178605227Y-124084376D01*
X178607570Y-124082563D01*
X179159498Y-123758533D01*
X179168366Y-123757301D01*
X179174474Y-123761214D01*
G37*
G04 #@! TD.AperFunction*
G04 #@! TA.AperFunction,Conductor*
G36*
X178239253Y-123771188D02*
G01*
X178845447Y-124082686D01*
X178851240Y-124089515D01*
X178851800Y-124093092D01*
X178851800Y-124378809D01*
X178848373Y-124387082D01*
X178845447Y-124389215D01*
X178239254Y-124700712D01*
X178230330Y-124701446D01*
X178224331Y-124697027D01*
X177905514Y-124242670D01*
X177903568Y-124233931D01*
X177905515Y-124229231D01*
X178003552Y-124089515D01*
X178224332Y-123774873D01*
X178231887Y-123770071D01*
X178239253Y-123771188D01*
G37*
G04 #@! TD.AperFunction*
M02*
