G04 #@! TF.GenerationSoftware,KiCad,Pcbnew,8.0.1*
G04 #@! TF.CreationDate,2025-02-17T13:19:52+05:00*
G04 #@! TF.ProjectId,2s_power,32735f70-6f77-4657-922e-6b696361645f,rev?*
G04 #@! TF.SameCoordinates,Original*
G04 #@! TF.FileFunction,Copper,L2,Bot*
G04 #@! TF.FilePolarity,Positive*
%FSLAX46Y46*%
G04 Gerber Fmt 4.6, Leading zero omitted, Abs format (unit mm)*
G04 Created by KiCad (PCBNEW 8.0.1) date 2025-02-17 13:19:52*
%MOMM*%
%LPD*%
G01*
G04 APERTURE LIST*
G04 #@! TA.AperFunction,HeatsinkPad*
%ADD10C,0.500000*%
G04 #@! TD*
G04 #@! TA.AperFunction,HeatsinkPad*
%ADD11R,1.680000X1.680000*%
G04 #@! TD*
G04 #@! TA.AperFunction,ComponentPad*
%ADD12R,3.800000X3.800000*%
G04 #@! TD*
G04 #@! TA.AperFunction,ComponentPad*
%ADD13C,3.800000*%
G04 #@! TD*
G04 #@! TA.AperFunction,ViaPad*
%ADD14C,0.600000*%
G04 #@! TD*
G04 APERTURE END LIST*
D10*
X160785000Y-99027500D03*
X161965000Y-99027500D03*
D11*
X161375000Y-98437500D03*
D10*
X160785000Y-97847500D03*
X161965000Y-97847500D03*
D12*
X163800000Y-83400000D03*
D13*
X158800000Y-83400000D03*
D14*
X152120600Y-106781600D03*
X164475000Y-88425000D03*
X163225000Y-91425000D03*
X154660600Y-83921600D03*
X180901800Y-123048451D03*
X175600000Y-113850000D03*
X169900600Y-94081600D03*
X187680600Y-86461600D03*
X164820600Y-106781600D03*
X167950000Y-84425000D03*
X157200600Y-94081600D03*
X172440600Y-89001600D03*
X187680600Y-89001600D03*
X172440600Y-86461600D03*
X174175000Y-113850000D03*
X174980600Y-104241600D03*
X174980600Y-86461600D03*
X155001802Y-122292203D03*
X174980600Y-124561600D03*
X152120600Y-119481600D03*
X149580600Y-89001600D03*
X167360600Y-127101600D03*
X180851800Y-121848451D03*
X180060600Y-81381600D03*
X157825000Y-100575000D03*
X185140600Y-114401600D03*
X147040600Y-91541600D03*
X162280600Y-124561600D03*
X182600600Y-122021600D03*
X141960600Y-83921600D03*
X169900600Y-81381600D03*
X141960600Y-116941600D03*
X144500600Y-91541600D03*
X177520600Y-86461600D03*
X174980600Y-91541600D03*
X172950000Y-113850000D03*
X166400000Y-96700000D03*
X158675000Y-99750000D03*
X169900600Y-86461600D03*
X187680600Y-119481600D03*
X172440600Y-81381600D03*
X158650000Y-100600000D03*
X167360600Y-104241600D03*
X187680600Y-99161600D03*
X149580600Y-91541600D03*
X155350000Y-90200000D03*
X167360600Y-124561600D03*
X164775000Y-97450000D03*
X159740600Y-127101600D03*
X167225000Y-85675000D03*
X157875000Y-98875000D03*
X182600600Y-94081600D03*
X187680600Y-122021600D03*
X152120600Y-104241600D03*
X185140600Y-119481600D03*
X144500600Y-127101600D03*
X174980600Y-127101600D03*
X169900600Y-91541600D03*
X177520600Y-83921600D03*
X167625000Y-82275000D03*
X164820600Y-104241600D03*
X182600600Y-127101600D03*
X180060600Y-96621600D03*
X162280600Y-111861600D03*
X164425000Y-86900000D03*
X172440600Y-99161600D03*
X180060600Y-94081600D03*
X154226800Y-123679700D03*
X141960600Y-94081600D03*
X144500600Y-111861600D03*
X182600600Y-124561600D03*
X180060600Y-89001600D03*
X185140600Y-89001600D03*
X152120600Y-99161600D03*
X185140600Y-122021600D03*
X169900600Y-96621600D03*
X157200600Y-106781600D03*
X147040600Y-86461600D03*
X187680600Y-124561600D03*
X185140600Y-111861600D03*
X167113000Y-117098601D03*
X159740600Y-124561600D03*
X152120600Y-111861600D03*
X147040600Y-83921600D03*
X174980600Y-83921600D03*
X174980600Y-119481600D03*
X144500600Y-119481600D03*
X174980600Y-94081600D03*
X187680600Y-91541600D03*
X180060600Y-99161600D03*
X164820600Y-91541600D03*
X162280600Y-86461600D03*
X174980600Y-101701600D03*
X147040600Y-127101600D03*
X174851802Y-122317201D03*
X180060600Y-91541600D03*
X172440600Y-104241600D03*
X157200600Y-127101600D03*
X164900000Y-98475000D03*
X152120600Y-94081600D03*
X180060600Y-127101600D03*
X174980600Y-89001600D03*
X167360600Y-91541600D03*
X185140600Y-116941600D03*
X147040600Y-96621600D03*
X149580600Y-94081600D03*
X172440600Y-83921600D03*
X166650000Y-81000000D03*
X152120600Y-91541600D03*
X172440600Y-96621600D03*
X147040600Y-81381600D03*
X162280600Y-127101600D03*
X153501804Y-122292203D03*
X147040600Y-94081600D03*
X164820600Y-111861600D03*
X154660600Y-94081600D03*
X158700000Y-98900000D03*
X154660600Y-114401600D03*
X141960600Y-96621600D03*
X152120600Y-101701600D03*
X174980600Y-96621600D03*
X172440600Y-94081600D03*
X164820600Y-127101600D03*
X141960600Y-122021600D03*
X141960600Y-91541600D03*
X169900600Y-127101600D03*
X174980600Y-81381600D03*
X182600600Y-119481600D03*
X141960600Y-99161600D03*
X185140600Y-99161600D03*
X182600600Y-89001600D03*
X185140600Y-127101600D03*
X182600600Y-91541600D03*
X141960600Y-111861600D03*
X185140600Y-81381600D03*
X167360600Y-94081600D03*
X177520600Y-91541600D03*
X152120600Y-109321600D03*
X167360600Y-111861600D03*
X177520600Y-81381600D03*
X147040600Y-124561600D03*
X159740600Y-111861600D03*
X169900600Y-89001600D03*
X172440600Y-101701600D03*
X185140600Y-94081600D03*
X154660600Y-96621600D03*
X157200600Y-124561600D03*
X169900600Y-83921600D03*
X187680600Y-96621600D03*
X173351802Y-122317200D03*
X171286001Y-124357001D03*
X141960600Y-124561600D03*
X187680600Y-114401600D03*
X157850000Y-99775000D03*
X147040600Y-99161600D03*
X144500600Y-116941600D03*
X172440600Y-127101600D03*
X141960600Y-114401600D03*
X149580600Y-99161600D03*
X144500600Y-94081600D03*
X144500600Y-99161600D03*
X172440600Y-91541600D03*
X187680600Y-111861600D03*
X180060600Y-83921600D03*
X157200600Y-111861600D03*
X177520600Y-127101600D03*
X157200600Y-109321600D03*
X153226801Y-123779700D03*
X177520600Y-96621600D03*
X152120600Y-114401600D03*
X182600600Y-96621600D03*
X165817600Y-116895401D03*
X144500600Y-122021600D03*
X164820600Y-124561600D03*
X152120600Y-96621600D03*
X180060600Y-86461600D03*
X165675000Y-96675000D03*
X144500600Y-89001600D03*
X152120600Y-81381600D03*
X163250000Y-92200000D03*
X144500600Y-96621600D03*
X187680600Y-116941600D03*
X152120600Y-89001600D03*
X141960600Y-119481600D03*
X182600600Y-99161600D03*
X180060600Y-119481600D03*
X185140600Y-91541600D03*
X185140600Y-96621600D03*
X166475000Y-86575000D03*
X182600600Y-83921600D03*
X164250000Y-96550000D03*
X147040600Y-89001600D03*
X187680600Y-83921600D03*
X141960600Y-89001600D03*
X149580600Y-96621600D03*
X182600600Y-86461600D03*
X147040600Y-122021600D03*
X163875000Y-93550000D03*
X169786001Y-124357000D03*
X157200600Y-104241600D03*
X147040600Y-119481600D03*
X164550000Y-89900000D03*
X177520600Y-89001600D03*
X164820600Y-109321600D03*
X144500600Y-114401600D03*
X177520600Y-94081600D03*
X157200600Y-96621600D03*
X150925000Y-83125000D03*
X150125000Y-86475000D03*
X144500600Y-81381600D03*
X141960600Y-86461600D03*
X187680600Y-94081600D03*
X182600600Y-81381600D03*
G04 #@! TA.AperFunction,Conductor*
G36*
X185002702Y-80500617D02*
G01*
X185386771Y-80517386D01*
X185397506Y-80518326D01*
X185775971Y-80568152D01*
X185786597Y-80570025D01*
X186159284Y-80652648D01*
X186169710Y-80655442D01*
X186533765Y-80770227D01*
X186543911Y-80773920D01*
X186896578Y-80920000D01*
X186906369Y-80924566D01*
X187244942Y-81100816D01*
X187254310Y-81106224D01*
X187576244Y-81311318D01*
X187585105Y-81317523D01*
X187887930Y-81549889D01*
X187896217Y-81556843D01*
X188177635Y-81814715D01*
X188185284Y-81822364D01*
X188443156Y-82103782D01*
X188450110Y-82112069D01*
X188682476Y-82414894D01*
X188688681Y-82423755D01*
X188893775Y-82745689D01*
X188899183Y-82755057D01*
X189075430Y-83093623D01*
X189080002Y-83103427D01*
X189226075Y-83456078D01*
X189229775Y-83466244D01*
X189344554Y-83830278D01*
X189347354Y-83840727D01*
X189429971Y-84213389D01*
X189431849Y-84224042D01*
X189481671Y-84602473D01*
X189482614Y-84613249D01*
X189499382Y-84997297D01*
X189499500Y-85002706D01*
X189499500Y-124997293D01*
X189499382Y-125002702D01*
X189482614Y-125386750D01*
X189481671Y-125397526D01*
X189431849Y-125775957D01*
X189429971Y-125786610D01*
X189347354Y-126159272D01*
X189344554Y-126169721D01*
X189229775Y-126533755D01*
X189226075Y-126543921D01*
X189080002Y-126896572D01*
X189075430Y-126906376D01*
X188899183Y-127244942D01*
X188893775Y-127254310D01*
X188688681Y-127576244D01*
X188682476Y-127585105D01*
X188450110Y-127887930D01*
X188443156Y-127896217D01*
X188185284Y-128177635D01*
X188177635Y-128185284D01*
X187896217Y-128443156D01*
X187887930Y-128450110D01*
X187585105Y-128682476D01*
X187576244Y-128688681D01*
X187254310Y-128893775D01*
X187244942Y-128899183D01*
X186906376Y-129075430D01*
X186896572Y-129080002D01*
X186543921Y-129226075D01*
X186533755Y-129229775D01*
X186169721Y-129344554D01*
X186159272Y-129347354D01*
X185786610Y-129429971D01*
X185775957Y-129431849D01*
X185397526Y-129481671D01*
X185386750Y-129482614D01*
X185002703Y-129499382D01*
X184997294Y-129499500D01*
X145002706Y-129499500D01*
X144997297Y-129499382D01*
X144613249Y-129482614D01*
X144602473Y-129481671D01*
X144224042Y-129431849D01*
X144213389Y-129429971D01*
X143840727Y-129347354D01*
X143830278Y-129344554D01*
X143466244Y-129229775D01*
X143456078Y-129226075D01*
X143103427Y-129080002D01*
X143093623Y-129075430D01*
X142755057Y-128899183D01*
X142745689Y-128893775D01*
X142423755Y-128688681D01*
X142414894Y-128682476D01*
X142112069Y-128450110D01*
X142103782Y-128443156D01*
X141822364Y-128185284D01*
X141814715Y-128177635D01*
X141556843Y-127896217D01*
X141549889Y-127887930D01*
X141317523Y-127585105D01*
X141311318Y-127576244D01*
X141106224Y-127254310D01*
X141100816Y-127244942D01*
X140924569Y-126906376D01*
X140919997Y-126896572D01*
X140773924Y-126543921D01*
X140770224Y-126533755D01*
X140655442Y-126169710D01*
X140652648Y-126159284D01*
X140570025Y-125786597D01*
X140568152Y-125775971D01*
X140518326Y-125397506D01*
X140517386Y-125386771D01*
X140505140Y-125106287D01*
X143649500Y-125106287D01*
X143682754Y-125316243D01*
X143705663Y-125386750D01*
X143748444Y-125518414D01*
X143844951Y-125707820D01*
X143969890Y-125879786D01*
X144120213Y-126030109D01*
X144292179Y-126155048D01*
X144292181Y-126155049D01*
X144292184Y-126155051D01*
X144481588Y-126251557D01*
X144683757Y-126317246D01*
X144893713Y-126350500D01*
X144893714Y-126350500D01*
X145106286Y-126350500D01*
X145106287Y-126350500D01*
X145316243Y-126317246D01*
X145518412Y-126251557D01*
X145707816Y-126155051D01*
X145742637Y-126129752D01*
X145879786Y-126030109D01*
X145879788Y-126030106D01*
X145879792Y-126030104D01*
X146030104Y-125879792D01*
X146030106Y-125879788D01*
X146030109Y-125879786D01*
X146155048Y-125707820D01*
X146155047Y-125707820D01*
X146155051Y-125707816D01*
X146251557Y-125518412D01*
X146317246Y-125316243D01*
X146350500Y-125106287D01*
X183649500Y-125106287D01*
X183682754Y-125316243D01*
X183705663Y-125386750D01*
X183748444Y-125518414D01*
X183844951Y-125707820D01*
X183969890Y-125879786D01*
X184120213Y-126030109D01*
X184292179Y-126155048D01*
X184292181Y-126155049D01*
X184292184Y-126155051D01*
X184481588Y-126251557D01*
X184683757Y-126317246D01*
X184893713Y-126350500D01*
X184893714Y-126350500D01*
X185106286Y-126350500D01*
X185106287Y-126350500D01*
X185316243Y-126317246D01*
X185518412Y-126251557D01*
X185707816Y-126155051D01*
X185742637Y-126129752D01*
X185879786Y-126030109D01*
X185879788Y-126030106D01*
X185879792Y-126030104D01*
X186030104Y-125879792D01*
X186030106Y-125879788D01*
X186030109Y-125879786D01*
X186155048Y-125707820D01*
X186155047Y-125707820D01*
X186155051Y-125707816D01*
X186251557Y-125518412D01*
X186317246Y-125316243D01*
X186350500Y-125106287D01*
X186350500Y-124893713D01*
X186317246Y-124683757D01*
X186251557Y-124481588D01*
X186155051Y-124292184D01*
X186155049Y-124292181D01*
X186155048Y-124292179D01*
X186030109Y-124120213D01*
X185879786Y-123969890D01*
X185707820Y-123844951D01*
X185518414Y-123748444D01*
X185518413Y-123748443D01*
X185518412Y-123748443D01*
X185316243Y-123682754D01*
X185316241Y-123682753D01*
X185316240Y-123682753D01*
X185154957Y-123657208D01*
X185106287Y-123649500D01*
X184893713Y-123649500D01*
X184845042Y-123657208D01*
X184683760Y-123682753D01*
X184481585Y-123748444D01*
X184292179Y-123844951D01*
X184120213Y-123969890D01*
X183969890Y-124120213D01*
X183844951Y-124292179D01*
X183748444Y-124481585D01*
X183682753Y-124683760D01*
X183649500Y-124893713D01*
X183649500Y-125106287D01*
X146350500Y-125106287D01*
X146350500Y-124893713D01*
X146317246Y-124683757D01*
X146251557Y-124481588D01*
X146155051Y-124292184D01*
X146155049Y-124292181D01*
X146155048Y-124292179D01*
X146030109Y-124120213D01*
X145879786Y-123969890D01*
X145707820Y-123844951D01*
X145518414Y-123748444D01*
X145518413Y-123748443D01*
X145518412Y-123748443D01*
X145316243Y-123682754D01*
X145316241Y-123682753D01*
X145316240Y-123682753D01*
X145154957Y-123657208D01*
X145106287Y-123649500D01*
X144893713Y-123649500D01*
X144845042Y-123657208D01*
X144683760Y-123682753D01*
X144481585Y-123748444D01*
X144292179Y-123844951D01*
X144120213Y-123969890D01*
X143969890Y-124120213D01*
X143844951Y-124292179D01*
X143748444Y-124481585D01*
X143682753Y-124683760D01*
X143649500Y-124893713D01*
X143649500Y-125106287D01*
X140505140Y-125106287D01*
X140500618Y-125002702D01*
X140500500Y-124997293D01*
X140500500Y-85106286D01*
X143649500Y-85106286D01*
X143672781Y-85253280D01*
X143682754Y-85316243D01*
X143719981Y-85430816D01*
X143748444Y-85518414D01*
X143844951Y-85707820D01*
X143969890Y-85879786D01*
X144120213Y-86030109D01*
X144292179Y-86155048D01*
X144292181Y-86155049D01*
X144292184Y-86155051D01*
X144481588Y-86251557D01*
X144683757Y-86317246D01*
X144893713Y-86350500D01*
X144893714Y-86350500D01*
X145106286Y-86350500D01*
X145106287Y-86350500D01*
X145316243Y-86317246D01*
X145518412Y-86251557D01*
X145707816Y-86155051D01*
X145729789Y-86139086D01*
X145879786Y-86030109D01*
X145879788Y-86030106D01*
X145879792Y-86030104D01*
X146030104Y-85879792D01*
X146030106Y-85879788D01*
X146030109Y-85879786D01*
X146155048Y-85707820D01*
X146155047Y-85707820D01*
X146155051Y-85707816D01*
X146251557Y-85518412D01*
X146317246Y-85316243D01*
X146350500Y-85106287D01*
X146350500Y-84893713D01*
X146317246Y-84683757D01*
X146251557Y-84481588D01*
X146155051Y-84292184D01*
X146155049Y-84292181D01*
X146155048Y-84292179D01*
X146030109Y-84120213D01*
X145879786Y-83969890D01*
X145707820Y-83844951D01*
X145518414Y-83748444D01*
X145518413Y-83748443D01*
X145518412Y-83748443D01*
X145316243Y-83682754D01*
X145316241Y-83682753D01*
X145316240Y-83682753D01*
X145154957Y-83657208D01*
X145106287Y-83649500D01*
X144893713Y-83649500D01*
X144845042Y-83657208D01*
X144683760Y-83682753D01*
X144481585Y-83748444D01*
X144292179Y-83844951D01*
X144120213Y-83969890D01*
X143969890Y-84120213D01*
X143844951Y-84292179D01*
X143748444Y-84481585D01*
X143682753Y-84683760D01*
X143649500Y-84893713D01*
X143649500Y-85106286D01*
X140500500Y-85106286D01*
X140500500Y-85002706D01*
X140500618Y-84997297D01*
X140503377Y-84934108D01*
X140517386Y-84613226D01*
X140518326Y-84602495D01*
X140568152Y-84224025D01*
X140570025Y-84213405D01*
X140652649Y-83840709D01*
X140655440Y-83830295D01*
X140770230Y-83466227D01*
X140773917Y-83456095D01*
X140797150Y-83400005D01*
X156394754Y-83400005D01*
X156413718Y-83701446D01*
X156413719Y-83701453D01*
X156441093Y-83844951D01*
X156464927Y-83969896D01*
X156470320Y-83998164D01*
X156563659Y-84285431D01*
X156563661Y-84285436D01*
X156692265Y-84558732D01*
X156692268Y-84558738D01*
X156854111Y-84813763D01*
X156854114Y-84813767D01*
X156854115Y-84813768D01*
X157005943Y-84997297D01*
X157046652Y-85046505D01*
X157266836Y-85253272D01*
X157266846Y-85253280D01*
X157511193Y-85430808D01*
X157511198Y-85430810D01*
X157511205Y-85430816D01*
X157775896Y-85576332D01*
X157775901Y-85576334D01*
X157775903Y-85576335D01*
X157775904Y-85576336D01*
X158056734Y-85687524D01*
X158056737Y-85687525D01*
X158154259Y-85712564D01*
X158349302Y-85762642D01*
X158496039Y-85781179D01*
X158648963Y-85800499D01*
X158648969Y-85800499D01*
X158648973Y-85800500D01*
X158648975Y-85800500D01*
X158951025Y-85800500D01*
X158951027Y-85800500D01*
X158951032Y-85800499D01*
X158951036Y-85800499D01*
X159030591Y-85790448D01*
X159250698Y-85762642D01*
X159543262Y-85687525D01*
X159543265Y-85687524D01*
X159824095Y-85576336D01*
X159824096Y-85576335D01*
X159824094Y-85576335D01*
X159824104Y-85576332D01*
X160088795Y-85430816D01*
X160333162Y-85253274D01*
X160489688Y-85106286D01*
X183649500Y-85106286D01*
X183672781Y-85253280D01*
X183682754Y-85316243D01*
X183719981Y-85430816D01*
X183748444Y-85518414D01*
X183844951Y-85707820D01*
X183969890Y-85879786D01*
X184120213Y-86030109D01*
X184292179Y-86155048D01*
X184292181Y-86155049D01*
X184292184Y-86155051D01*
X184481588Y-86251557D01*
X184683757Y-86317246D01*
X184893713Y-86350500D01*
X184893714Y-86350500D01*
X185106286Y-86350500D01*
X185106287Y-86350500D01*
X185316243Y-86317246D01*
X185518412Y-86251557D01*
X185707816Y-86155051D01*
X185729789Y-86139086D01*
X185879786Y-86030109D01*
X185879788Y-86030106D01*
X185879792Y-86030104D01*
X186030104Y-85879792D01*
X186030106Y-85879788D01*
X186030109Y-85879786D01*
X186155048Y-85707820D01*
X186155047Y-85707820D01*
X186155051Y-85707816D01*
X186251557Y-85518412D01*
X186317246Y-85316243D01*
X186350500Y-85106287D01*
X186350500Y-84893713D01*
X186317246Y-84683757D01*
X186251557Y-84481588D01*
X186155051Y-84292184D01*
X186155049Y-84292181D01*
X186155048Y-84292179D01*
X186030109Y-84120213D01*
X185879786Y-83969890D01*
X185707820Y-83844951D01*
X185518414Y-83748444D01*
X185518413Y-83748443D01*
X185518412Y-83748443D01*
X185316243Y-83682754D01*
X185316241Y-83682753D01*
X185316240Y-83682753D01*
X185154957Y-83657208D01*
X185106287Y-83649500D01*
X184893713Y-83649500D01*
X184845042Y-83657208D01*
X184683760Y-83682753D01*
X184481585Y-83748444D01*
X184292179Y-83844951D01*
X184120213Y-83969890D01*
X183969890Y-84120213D01*
X183844951Y-84292179D01*
X183748444Y-84481585D01*
X183682753Y-84683760D01*
X183649500Y-84893713D01*
X183649500Y-85106286D01*
X160489688Y-85106286D01*
X160553349Y-85046504D01*
X160745885Y-84813768D01*
X160907733Y-84558736D01*
X161036341Y-84285430D01*
X161129681Y-83998160D01*
X161186280Y-83701457D01*
X161189549Y-83649500D01*
X161205246Y-83400005D01*
X161205246Y-83399994D01*
X161186281Y-83098553D01*
X161186280Y-83098546D01*
X161186280Y-83098543D01*
X161129681Y-82801840D01*
X161036341Y-82514570D01*
X160907733Y-82241264D01*
X160870103Y-82181969D01*
X160745888Y-81986236D01*
X160745885Y-81986232D01*
X160553349Y-81753496D01*
X160333162Y-81546726D01*
X160333159Y-81546724D01*
X160333153Y-81546719D01*
X160088806Y-81369191D01*
X160088799Y-81369186D01*
X160088795Y-81369184D01*
X159824104Y-81223668D01*
X159824101Y-81223666D01*
X159824096Y-81223664D01*
X159824095Y-81223663D01*
X159543265Y-81112475D01*
X159543262Y-81112474D01*
X159250695Y-81037357D01*
X158951036Y-80999500D01*
X158951027Y-80999500D01*
X158648973Y-80999500D01*
X158648963Y-80999500D01*
X158349304Y-81037357D01*
X158056737Y-81112474D01*
X158056734Y-81112475D01*
X157775904Y-81223663D01*
X157775903Y-81223664D01*
X157511205Y-81369184D01*
X157511193Y-81369191D01*
X157266846Y-81546719D01*
X157266836Y-81546727D01*
X157046652Y-81753494D01*
X156854111Y-81986236D01*
X156692268Y-82241261D01*
X156692265Y-82241267D01*
X156563661Y-82514563D01*
X156563659Y-82514568D01*
X156470320Y-82801835D01*
X156413719Y-83098546D01*
X156413718Y-83098553D01*
X156394754Y-83399994D01*
X156394754Y-83400005D01*
X140797150Y-83400005D01*
X140920003Y-83103412D01*
X140924561Y-83093638D01*
X141100822Y-82755045D01*
X141106217Y-82745700D01*
X141311325Y-82423744D01*
X141317515Y-82414905D01*
X141549896Y-82112060D01*
X141556834Y-82103791D01*
X141814726Y-81822352D01*
X141822352Y-81814726D01*
X142103791Y-81556834D01*
X142112060Y-81549896D01*
X142414905Y-81317515D01*
X142423744Y-81311325D01*
X142745700Y-81106217D01*
X142755045Y-81100822D01*
X143093638Y-80924561D01*
X143103412Y-80920003D01*
X143456095Y-80773917D01*
X143466227Y-80770230D01*
X143830295Y-80655440D01*
X143840709Y-80652649D01*
X144213405Y-80570025D01*
X144224025Y-80568152D01*
X144602495Y-80518326D01*
X144613226Y-80517386D01*
X144997297Y-80500617D01*
X145002706Y-80500500D01*
X145065892Y-80500500D01*
X184934108Y-80500500D01*
X184997294Y-80500500D01*
X185002702Y-80500617D01*
G37*
G04 #@! TD.AperFunction*
M02*
