M48
; DRILL file {KiCad 8.0.1} date 2025-02-17T13:20:27+0500
; FORMAT={-:-/ absolute / metric / decimal}
; #@! TF.CreationDate,2025-02-17T13:20:27+05:00
; #@! TF.GenerationSoftware,Kicad,Pcbnew,8.0.1
; #@! TF.FileFunction,Plated,1,2,PTH
FMAT,2
METRIC
; #@! TA.AperFunction,Plated,PTH,ComponentDrill
T1C0.200
; #@! TA.AperFunction,Plated,PTH,ViaDrill
T2C0.300
; #@! TA.AperFunction,Plated,PTH,ComponentDrill
T3C2.700
%
G90
G05
T1
X160.785Y-97.847
X160.785Y-99.027
X161.965Y-97.847
X161.965Y-99.027
T2
X141.961Y-83.922
X141.961Y-86.462
X141.961Y-89.002
X141.961Y-91.542
X141.961Y-94.082
X141.961Y-96.622
X141.961Y-99.162
X141.961Y-111.862
X141.961Y-114.402
X141.961Y-116.942
X141.961Y-119.482
X141.961Y-122.022
X141.961Y-124.562
X144.501Y-81.382
X144.501Y-89.002
X144.501Y-91.542
X144.501Y-94.082
X144.501Y-96.622
X144.501Y-99.162
X144.501Y-111.862
X144.501Y-114.402
X144.501Y-116.942
X144.501Y-119.482
X144.501Y-122.022
X144.501Y-127.102
X147.041Y-81.382
X147.041Y-83.922
X147.041Y-86.462
X147.041Y-89.002
X147.041Y-91.542
X147.041Y-94.082
X147.041Y-96.622
X147.041Y-99.162
X147.041Y-119.482
X147.041Y-122.022
X147.041Y-124.562
X147.041Y-127.102
X149.581Y-89.002
X149.581Y-91.542
X149.581Y-94.082
X149.581Y-96.622
X149.581Y-99.162
X150.125Y-86.475
X150.925Y-83.125
X152.121Y-81.382
X152.121Y-89.002
X152.121Y-91.542
X152.121Y-94.082
X152.121Y-96.622
X152.121Y-99.162
X152.121Y-101.702
X152.121Y-104.242
X152.121Y-106.782
X152.121Y-109.322
X152.121Y-111.862
X152.121Y-114.402
X152.121Y-119.482
X153.227Y-123.78
X153.502Y-122.292
X154.227Y-123.68
X154.661Y-83.922
X154.661Y-94.082
X154.661Y-96.622
X154.661Y-114.402
X155.002Y-122.292
X155.35Y-90.2
X157.201Y-94.082
X157.201Y-96.622
X157.201Y-104.242
X157.201Y-106.782
X157.201Y-109.322
X157.201Y-111.862
X157.201Y-124.562
X157.201Y-127.102
X157.825Y-100.575
X157.85Y-99.775
X157.875Y-98.875
X158.65Y-100.6
X158.675Y-99.75
X158.7Y-98.9
X159.741Y-111.862
X159.741Y-124.562
X159.741Y-127.102
X162.281Y-86.462
X162.281Y-111.862
X162.281Y-124.562
X162.281Y-127.102
X163.225Y-91.425
X163.25Y-92.2
X163.875Y-93.55
X164.25Y-96.55
X164.425Y-86.9
X164.475Y-88.425
X164.55Y-89.9
X164.775Y-97.45
X164.821Y-91.542
X164.821Y-104.242
X164.821Y-106.782
X164.821Y-109.322
X164.821Y-111.862
X164.821Y-124.562
X164.821Y-127.102
X164.9Y-98.475
X165.675Y-96.675
X165.818Y-116.895
X166.4Y-96.7
X166.475Y-86.575
X166.65Y-81.0
X167.113Y-117.099
X167.225Y-85.675
X167.361Y-91.542
X167.361Y-94.082
X167.361Y-104.242
X167.361Y-111.862
X167.361Y-124.562
X167.361Y-127.102
X167.625Y-82.275
X167.95Y-84.425
X169.786Y-124.357
X169.901Y-81.382
X169.901Y-83.922
X169.901Y-86.462
X169.901Y-89.002
X169.901Y-91.542
X169.901Y-94.082
X169.901Y-96.622
X169.901Y-127.102
X171.286Y-124.357
X172.441Y-81.382
X172.441Y-83.922
X172.441Y-86.462
X172.441Y-89.002
X172.441Y-91.542
X172.441Y-94.082
X172.441Y-96.622
X172.441Y-99.162
X172.441Y-101.702
X172.441Y-104.242
X172.441Y-127.102
X172.95Y-113.85
X173.352Y-122.317
X174.175Y-113.85
X174.852Y-122.317
X174.981Y-81.382
X174.981Y-83.922
X174.981Y-86.462
X174.981Y-89.002
X174.981Y-91.542
X174.981Y-94.082
X174.981Y-96.622
X174.981Y-101.702
X174.981Y-104.242
X174.981Y-119.482
X174.981Y-124.562
X174.981Y-127.102
X175.6Y-113.85
X177.521Y-81.382
X177.521Y-83.922
X177.521Y-86.462
X177.521Y-89.002
X177.521Y-91.542
X177.521Y-94.082
X177.521Y-96.622
X177.521Y-127.102
X180.061Y-81.382
X180.061Y-83.922
X180.061Y-86.462
X180.061Y-89.002
X180.061Y-91.542
X180.061Y-94.082
X180.061Y-96.622
X180.061Y-99.162
X180.061Y-119.482
X180.061Y-127.102
X180.852Y-121.848
X180.902Y-123.048
X182.601Y-81.382
X182.601Y-83.922
X182.601Y-86.462
X182.601Y-89.002
X182.601Y-91.542
X182.601Y-94.082
X182.601Y-96.622
X182.601Y-99.162
X182.601Y-119.482
X182.601Y-122.022
X182.601Y-124.562
X182.601Y-127.102
X185.141Y-81.382
X185.141Y-89.002
X185.141Y-91.542
X185.141Y-94.082
X185.141Y-96.622
X185.141Y-99.162
X185.141Y-111.862
X185.141Y-114.402
X185.141Y-116.942
X185.141Y-119.482
X185.141Y-122.022
X185.141Y-127.102
X187.681Y-83.922
X187.681Y-86.462
X187.681Y-89.002
X187.681Y-91.542
X187.681Y-94.082
X187.681Y-96.622
X187.681Y-99.162
X187.681Y-111.862
X187.681Y-114.402
X187.681Y-116.942
X187.681Y-119.482
X187.681Y-122.022
X187.681Y-124.562
T3
X158.8Y-83.4
X163.8Y-83.4
M30
