G04 #@! TF.GenerationSoftware,KiCad,Pcbnew,8.0.1*
G04 #@! TF.CreationDate,2025-02-17T13:19:52+05:00*
G04 #@! TF.ProjectId,2s_power,32735f70-6f77-4657-922e-6b696361645f,rev?*
G04 #@! TF.SameCoordinates,Original*
G04 #@! TF.FileFunction,Paste,Top*
G04 #@! TF.FilePolarity,Positive*
%FSLAX46Y46*%
G04 Gerber Fmt 4.6, Leading zero omitted, Abs format (unit mm)*
G04 Created by KiCad (PCBNEW 8.0.1) date 2025-02-17 13:19:52*
%MOMM*%
%LPD*%
G01*
G04 APERTURE LIST*
G04 Aperture macros list*
%AMRoundRect*
0 Rectangle with rounded corners*
0 $1 Rounding radius*
0 $2 $3 $4 $5 $6 $7 $8 $9 X,Y pos of 4 corners*
0 Add a 4 corners polygon primitive as box body*
4,1,4,$2,$3,$4,$5,$6,$7,$8,$9,$2,$3,0*
0 Add four circle primitives for the rounded corners*
1,1,$1+$1,$2,$3*
1,1,$1+$1,$4,$5*
1,1,$1+$1,$6,$7*
1,1,$1+$1,$8,$9*
0 Add four rect primitives between the rounded corners*
20,1,$1+$1,$2,$3,$4,$5,0*
20,1,$1+$1,$4,$5,$6,$7,0*
20,1,$1+$1,$6,$7,$8,$9,0*
20,1,$1+$1,$8,$9,$2,$3,0*%
G04 Aperture macros list end*
%ADD10R,3.000000X1.000000*%
%ADD11RoundRect,0.237500X-0.237500X0.250000X-0.237500X-0.250000X0.237500X-0.250000X0.237500X0.250000X0*%
%ADD12R,3.500000X4.000000*%
%ADD13RoundRect,0.250000X-1.100000X0.325000X-1.100000X-0.325000X1.100000X-0.325000X1.100000X0.325000X0*%
%ADD14RoundRect,0.200000X-0.275000X0.200000X-0.275000X-0.200000X0.275000X-0.200000X0.275000X0.200000X0*%
%ADD15RoundRect,0.182500X0.182500X-0.182500X0.182500X0.182500X-0.182500X0.182500X-0.182500X-0.182500X0*%
%ADD16RoundRect,0.062500X0.062500X-0.350000X0.062500X0.350000X-0.062500X0.350000X-0.062500X-0.350000X0*%
%ADD17RoundRect,0.062500X0.350000X-0.062500X0.350000X0.062500X-0.350000X0.062500X-0.350000X-0.062500X0*%
%ADD18R,1.500000X2.500000*%
%ADD19RoundRect,0.200000X0.275000X-0.200000X0.275000X0.200000X-0.275000X0.200000X-0.275000X-0.200000X0*%
%ADD20RoundRect,0.200000X-0.200000X-0.275000X0.200000X-0.275000X0.200000X0.275000X-0.200000X0.275000X0*%
%ADD21RoundRect,0.237500X-0.250000X-0.237500X0.250000X-0.237500X0.250000X0.237500X-0.250000X0.237500X0*%
%ADD22RoundRect,0.225000X-0.250000X0.225000X-0.250000X-0.225000X0.250000X-0.225000X0.250000X0.225000X0*%
%ADD23RoundRect,0.225000X0.250000X-0.225000X0.250000X0.225000X-0.250000X0.225000X-0.250000X-0.225000X0*%
%ADD24RoundRect,0.250000X-0.325000X-1.100000X0.325000X-1.100000X0.325000X1.100000X-0.325000X1.100000X0*%
%ADD25RoundRect,0.200000X0.200000X0.275000X-0.200000X0.275000X-0.200000X-0.275000X0.200000X-0.275000X0*%
%ADD26R,0.710000X0.580000*%
%ADD27R,0.750000X0.300000*%
%ADD28RoundRect,0.237500X-0.237500X0.287500X-0.237500X-0.287500X0.237500X-0.287500X0.237500X0.287500X0*%
%ADD29RoundRect,0.150000X0.150000X0.700000X-0.150000X0.700000X-0.150000X-0.700000X0.150000X-0.700000X0*%
%ADD30RoundRect,0.250000X0.250000X1.100000X-0.250000X1.100000X-0.250000X-1.100000X0.250000X-1.100000X0*%
%ADD31RoundRect,0.237500X-0.287500X-0.237500X0.287500X-0.237500X0.287500X0.237500X-0.287500X0.237500X0*%
%ADD32RoundRect,0.225000X0.225000X0.250000X-0.225000X0.250000X-0.225000X-0.250000X0.225000X-0.250000X0*%
G04 APERTURE END LIST*
D10*
X181880000Y-108810000D03*
X186920000Y-108810000D03*
X181880000Y-106270001D03*
X186920000Y-106270001D03*
X181880000Y-103729999D03*
X186920000Y-103729999D03*
X181880000Y-101190000D03*
X186920000Y-101190000D03*
D11*
X177901800Y-122410951D03*
X177901800Y-124235951D03*
D12*
X160725000Y-107875000D03*
X170225000Y-107875000D03*
D13*
X170525001Y-120100001D03*
X170525001Y-123050003D03*
D14*
X167475000Y-97825000D03*
X167475000Y-99475000D03*
D15*
X160955000Y-98857500D03*
X161795000Y-98857500D03*
X160955000Y-98017500D03*
X161795000Y-98017500D03*
D16*
X160625000Y-99900000D03*
X161125000Y-99900000D03*
X161625000Y-99900000D03*
X162125000Y-99900000D03*
D17*
X162837500Y-99187500D03*
X162837500Y-98687500D03*
X162837500Y-98187500D03*
X162837500Y-97687500D03*
D16*
X162125000Y-96975000D03*
X161625000Y-96975000D03*
X161125000Y-96975000D03*
X160625000Y-96975000D03*
D17*
X159912500Y-97687500D03*
X159912500Y-98187500D03*
X159912500Y-98687500D03*
X159912500Y-99187500D03*
D18*
X160875001Y-117750000D03*
X157174999Y-117750000D03*
D13*
X174101800Y-118017200D03*
X174101800Y-120967202D03*
D10*
X147920000Y-101190000D03*
X142880000Y-101190000D03*
X147920000Y-103730000D03*
X142880000Y-103730000D03*
X147920000Y-106270000D03*
X142880000Y-106270000D03*
X147920000Y-108810000D03*
X142880000Y-108810000D03*
D14*
X168025000Y-121100002D03*
X168025000Y-122750002D03*
D19*
X165925000Y-99475000D03*
X165925000Y-97825000D03*
D20*
X153475000Y-89050000D03*
X155125000Y-89050000D03*
D21*
X153576801Y-126854700D03*
X155401801Y-126854700D03*
D22*
X162750000Y-93725000D03*
X162750000Y-95275000D03*
D19*
X166525000Y-122750002D03*
X166525000Y-121100002D03*
D23*
X163025000Y-120875001D03*
X163025000Y-119325001D03*
D24*
X160200000Y-89300000D03*
X163150000Y-89300000D03*
D25*
X164700000Y-101475000D03*
X163050000Y-101475000D03*
X155125000Y-87550000D03*
X153475000Y-87550000D03*
D13*
X154271001Y-117593998D03*
X154271001Y-120544000D03*
D26*
X166900000Y-119325001D03*
X166900000Y-118600001D03*
X166025000Y-119325001D03*
X166025000Y-118600001D03*
D27*
X167912500Y-119712501D03*
X167912500Y-119212501D03*
X167912500Y-118712501D03*
X167912500Y-118212501D03*
X165012500Y-118212501D03*
X165012500Y-118712501D03*
X165012500Y-119212501D03*
X165012500Y-119712501D03*
D28*
X179551800Y-122473452D03*
X179551800Y-124223450D03*
D29*
X151725000Y-84850000D03*
X150475000Y-84850000D03*
D30*
X153575000Y-81650000D03*
X148625000Y-81650000D03*
D31*
X153701802Y-125129700D03*
X155451800Y-125129700D03*
D13*
X174225000Y-109449999D03*
X174225000Y-112400001D03*
D32*
X162150000Y-92075000D03*
X160600000Y-92075000D03*
M02*
